<?xml version="1.0" encoding="UTF-8" standalone="no"?>
<!DOCTYPE svg PUBLIC "-//W3C//DTD SVG 1.1//EN" "http://www.w3.org/Graphics/SVG/1.1/DTD/svg11.dtd">
<!-- Generated by graphviz version 2.40.1 (20161225.0304)
 -->
<!-- Title: %0 Pages: 1 -->
<svg width="1057pt" height="297pt" viewBox="0.00 0.00 1057.00 296.67" xmlns="http://www.w3.org/2000/svg" xmlns:xlink="http://www.w3.org/1999/xlink">
<g id="graph0" class="graph" transform="scale(1 1) rotate(0) translate(4 292.6725)">
<title>%0</title>
<polygon fill="#ffffff" stroke="transparent" points="-4,4 -4,-292.6725 1053,-292.6725 1053,4 -4,4"/>
<g id="clust1" class="cluster">
<title>cluster_default</title>
<polygon fill="none" stroke="#000000" points="8,-8 8,-280.6725 266,-280.6725 266,-8 8,-8"/>
<text text-anchor="middle" x="137" y="-264.0725" font-family="Times,serif" font-size="14.00" fill="#000000">default</text>
</g>
<g id="clust2" class="cluster">
<title>cluster_legend</title>
<polygon fill="none" stroke="#000000" points="542,-104.8 542,-267.4087 1041,-267.4087 1041,-104.8 542,-104.8"/>
<text text-anchor="middle" x="791.5" y="-254.4087" font-family="Times,serif" font-size="10.00" fill="#000000">Legend</text>
</g>
<!-- default/backend[Deployment] -->
<g id="node1" class="node">
<title>default/backend[Deployment]</title>
<ellipse fill="none" stroke="#0000ff" cx="137" cy="-34" rx="97.2567" ry="18"/>
<text text-anchor="middle" x="137" y="-29.8" font-family="Times,serif" font-size="14.00" fill="#0000ff">backend[Deployment]</text>
</g>
<!-- default/frontend[Deployment] -->
<g id="node2" class="node">
<title>default/frontend[Deployment]</title>
<ellipse fill="none" stroke="#0000ff" cx="160" cy="-229.8725" rx="97.8363" ry="18"/>
<text text-anchor="middle" x="160" y="-225.6725" font-family="Times,serif" font-size="14.00" fill="#0000ff">frontend[Deployment]</text>
</g>
<!-- default/frontend[Deployment]&#45;&gt;default/backend[Deployment] -->
<g id="edge4" class="edge">
<title>default/frontend[Deployment]-&gt;default/backend[Deployment]</title>
<path fill="none" stroke="#ff00ff" d="M132.9885,-212.365C111.3605,-196.5939 82.6115,-171.2463 69.8976,-140.8 63.7322,-126.0356 63.9733,-119.6628 69.8976,-104.8 77.0788,-86.7837 91.264,-70.7177 104.7494,-58.4627"/>
<polygon fill="#ff00ff" stroke="#ff00ff" points="107.2859,-60.896 112.5504,-51.7016 102.7013,-55.6062 107.2859,-60.896"/>
<text text-anchor="middle" x="173.0512" y="-118.6" font-family="Times,serif" font-size="14.00" fill="#ff00ff">TCP 9090,UDP 53 (dir1: TCP 9090)</text>
</g>
<!-- 0.0.0.0&#45;255.255.255.255 -->
<g id="node3" class="node">
<title>0.0.0.0-255.255.255.255</title>
<ellipse fill="none" stroke="#0000ff" cx="400" cy="-122.8" rx="105.9846" ry="18"/>
<text text-anchor="middle" x="400" y="-118.6" font-family="Times,serif" font-size="14.00" fill="#0000ff">0.0.0.0-255.255.255.255</text>
</g>
<!-- default/frontend[Deployment]&#45;&gt;0.0.0.0&#45;255.255.255.255 -->
<g id="edge3" class="edge">
<title>default/frontend[Deployment]-&gt;0.0.0.0-255.255.255.255</title>
<path fill="none" stroke="#c0c0c0" d="M164.6504,-211.685C169.8442,-195.2175 179.9256,-171.6328 197.5042,-158.8 202.4233,-155.2089 259.6316,-145.2178 311.9881,-136.6698"/>
<polygon fill="#c0c0c0" stroke="#c0c0c0" points="312.7262,-140.0958 322.0353,-135.0371 311.6033,-133.1864 312.7262,-140.0958"/>
<text text-anchor="middle" x="219.7479" y="-172.1362" font-family="Times,serif" font-size="14.00" fill="#c0c0c0">UDP 53</text>
</g>
<!-- 0.0.0.0&#45;255.255.255.255&#45;&gt;default/backend[Deployment] -->
<g id="edge1" class="edge">
<title>0.0.0.0-255.255.255.255-&gt;default/backend[Deployment]</title>
<path fill="none" stroke="#008000" d="M352.3727,-106.719C307.6419,-91.616 240.6895,-69.01 193.3271,-53.0184"/>
<polygon fill="#008000" stroke="#008000" points="194.425,-49.6951 183.8308,-49.8121 192.1857,-56.3272 194.425,-49.6951"/>
<text text-anchor="middle" x="320.5859" y="-74.2" font-family="Times,serif" font-size="14.00" fill="#008000">TCP 9090</text>
</g>
<!-- 0.0.0.0&#45;255.255.255.255&#45;&gt;default/frontend[Deployment] -->
<g id="edge2" class="edge">
<title>0.0.0.0-255.255.255.255-&gt;default/frontend[Deployment]</title>
<path fill="none" stroke="#c0c0c0" d="M366.239,-139.9014C336.4554,-154.7738 291.7288,-176.5889 252,-193.8725 239.467,-199.3248 225.8222,-204.871 212.9722,-209.9242"/>
<polygon fill="#c0c0c0" stroke="#c0c0c0" points="211.3777,-206.7892 203.3322,-213.6827 213.9205,-213.3111 211.3777,-206.7892"/>
<text text-anchor="middle" x="353.5859" y="-172.1362" font-family="Times,serif" font-size="14.00" fill="#c0c0c0">TCP 8080</text>
</g>
<!-- a -->
<!-- b -->
<!-- a&#45;&gt;b -->
<g id="edge5" class="edge">
<title>a-&gt;b</title>
<path fill="none" stroke="#008000" d="M852.8387,-229.8725C885.2585,-229.8725 959.0277,-229.8725 993.5461,-229.8725"/>
<polygon fill="#008000" stroke="#008000" points="993.5617,-230.5726 995.5616,-229.8725 993.5616,-229.1726 993.5617,-230.5726"/>
<text text-anchor="middle" x="924.2223" y="-235.8725" font-family="Times,serif" font-size="10.00" fill="#008000">added connection</text>
</g>
<!-- c -->
<!-- d -->
<!-- c&#45;&gt;d -->
<g id="edge6" class="edge">
<title>c-&gt;d</title>
<path fill="none" stroke="#ee0000" d="M597.8387,-229.8725C630.2585,-229.8725 704.0277,-229.8725 738.5461,-229.8725"/>
<polygon fill="#ee0000" stroke="#ee0000" points="738.5617,-230.5726 740.5616,-229.8725 738.5616,-229.1726 738.5617,-230.5726"/>
<text text-anchor="middle" x="669.2223" y="-235.8725" font-family="Times,serif" font-size="10.00" fill="#ee0000">removed connection</text>
</g>
<!-- e -->
<!-- f -->
<!-- e&#45;&gt;f -->
<g id="edge7" class="edge">
<title>e-&gt;f</title>
<path fill="none" stroke="#ff00ff" d="M846.7482,-176.3362C879.2628,-176.3362 953.608,-176.3362 987.5372,-176.3362"/>
<polygon fill="#ff00ff" stroke="#ff00ff" points="987.9092,-177.0363 989.9092,-176.3362 987.9091,-175.6363 987.9092,-177.0363"/>
<text text-anchor="middle" x="918.5494" y="-182.3362" font-family="Times,serif" font-size="10.00" fill="#ff00ff">changed connection</text>
</g>
<!-- g -->
<!-- h -->
<!-- g&#45;&gt;h -->
<g id="edge8" class="edge">
<title>g-&gt;h</title>
<path fill="none" stroke="#c0c0c0" d="M614.5577,-176.3362C647.5305,-176.3362 721.1795,-176.3362 755.6046,-176.3362"/>
<polygon fill="#c0c0c0" stroke="#c0c0c0" points="755.6146,-177.0363 757.6146,-176.3362 755.6145,-175.6363 755.6146,-177.0363"/>
<text text-anchor="middle" x="686" y="-182.3362" font-family="Times,serif" font-size="10.00" fill="#c0c0c0">unchanged connection</text>
</g>
<!-- np -->
<g id="node12" class="node">
<title>np</title>
<ellipse fill="none" stroke="#008000" cx="573" cy="-122.8" rx="31.4781" ry="18"/>
<text text-anchor="middle" x="573" y="-119.8" font-family="Times,serif" font-size="10.00" fill="#008000">new peer</text>
</g>
<!-- lp -->
<g id="node13" class="node">
<title>lp</title>
<ellipse fill="none" stroke="#ff0000" cx="778" cy="-122.8" rx="30.3198" ry="18"/>
<text text-anchor="middle" x="778" y="-119.8" font-family="Times,serif" font-size="10.00" fill="#ff0000">lost peer</text>
</g>
<!-- np&#45;&gt;lp -->
<!-- pp -->
<g id="node14" class="node">
<title>pp</title>
<ellipse fill="none" stroke="#0000ff" cx="996" cy="-122.8" rx="44.5329" ry="18"/>
<text text-anchor="middle" x="996" y="-119.8" font-family="Times,serif" font-size="10.00" fill="#0000ff">persistent peer</text>
</g>
<!-- lp&#45;&gt;pp -->
</g>
</svg>
