<svg height="22" viewBox="0 0 22 22" width="22" xmlns="http://www.w3.org/2000/svg" xmlns:xlink="http://www.w3.org/1999/xlink"><defs><path id="a" d="m9.81780043 16.6630341c3.57696447 0 6.47666717-2.8997027 6.47666717-6.4766672s-2.8997027-6.47666717-6.47666717-6.47666717c-3.57696451 0-6.47666718 2.89970267-6.47666718 6.47666717s2.89970267 6.4766672 6.47666718 6.4766672z"/><mask id="b" height="15.453334" width="15.453334" x="-1.25" y="-1.25"><path d="m2.091133 2.4597h15.453334v15.453334h-15.453334z" fill="#fff"/><use xlink:href="#a"/></mask><path id="c" d="m9.93725656 19.354703c5.18779504 0 9.39333384-4.2055389 9.39333384-9.39333389 0-5.18779503-4.2055388-9.39333385-9.39333384-9.39333385-5.18779503 0-9.39333385 4.20553882-9.39333385 9.39333385 0 5.18779499 4.20553882 9.39333389 9.39333385 9.39333389z"/><mask id="d" height="21.286668" width="21.286668" x="-1.25" y="-1.25"><path d="m-.706077-.681965h21.286668v21.286668h-21.286668z" fill="#fff"/><use xlink:href="#c"/></mask></defs><g fill="none" fill-rule="evenodd" transform="translate(1 1)"><path d="m9.76660503 15.5094621c2.88660857 0 5.22666717-2.3400586 5.22666717-5.2266672 0-2.88660855-2.3400586-5.22666715-5.22666717-5.22666715-2.88660858 0-5.22666718 2.3400586-5.22666718 5.22666715 0 2.8866086 2.3400586 5.2266672 5.22666718 5.2266672z" fill="#64a6f0"/><g stroke="#cbd4ff" stroke-dasharray="1.666667" stroke-width="2.5"><use mask="url(#b)" xlink:href="#a"/><use mask="url(#d)" xlink:href="#c"/></g></g></svg>