<svg height="25" viewBox="0 0 44 25" width="44" xmlns="http://www.w3.org/2000/svg"><g fill="none" fill-rule="evenodd"><path d="m0 0h44v25h-44z" fill="#d2e7ff"/><g fill-rule="nonzero"><path d="m13.8028838 9.75987123c-2.0436542-.81934615-4.38741529.11815998-5.23498413 2.09391917-.20103628.4689086-.3049318.9713995-.30557515 1.479021 0 .1265555.00739815.2532665.01833452.3762462-1.39245755.191699-2.36048731 1.4382868-2.16218516 2.7842223.17803772 1.2084967 1.24513819 2.1082228 2.50764587 2.1147526h8.36728985v-11.32392378c-1.337454.42646425-2.4704943 1.30566779-3.1905258 2.47576251z" fill="#94c3f8"/><path d="m24.6183128 13.0022744c.0109364-.1231352.0146355-.2461149.0146355-.3728259.0001608-3.10745194-2.6055907-5.62690256-5.820241-5.62721351-.6180658 0-1.2322718.09514988-1.8192977.28187373v11.32392378h7.2757435c1.6073251-.0035759 2.9073059-1.2658665 2.9037677-2.8196702-.0032166-1.4185417-1.0983013-2.6127348-2.554608-2.7860879z" fill="#537aa6"/><path d="m39.9678963 9.50302816-2.4489724-2.64952434c-.0931518-.1007659-.2344939-.1007659-.3276457 0l-2.4489725 2.64952434c-.0753346.08150389-.1011636.21044399-.0648117.32429074.036352.11384675.1272318.1888821.2286346.1888821h1.5538701v3.2811298c0 .1625766.1096537.2943917.2448972.2943917h1.3004102c.1352436 0 .2448972-.1318151.2448972-.2943917v-3.2811298h1.5538702c.1014027 0 .1922826-.07503535.2286345-.1888821s.0105229-.24278685-.0648117-.32429074z" fill="#537ca6"/><path d="m35.92708 13.8961316-2.4489725-2.6495243c-.0931518-.1007659-.2344939-.1007659-.3276457 0l-2.4489724 2.6495243c-.0753346.0815039-.1011636.210444-.0648117.3242907.0363519.1138468.1272318.1888821.2286345.1888821h1.5538702v3.2811298c0 .1625766.1096536.2943917.2448972.2943917h1.3004102c.1352435 0 .2448972-.1318151.2448972-.2943917v-3.2811298h1.5538701c.1014028 0 .1922826-.0750353.2286346-.1888821.0363519-.1138467.0105229-.2427868-.0648117-.3242907z" fill="#537ca6" transform="matrix(1 0 0 -1 0 29.155858)"/></g></g></svg>