<svg height="12" viewBox="0 0 30 12" width="30" xmlns="http://www.w3.org/2000/svg"><g fill="#858eb6"><path d="m9.72608054.33424189v-.07149531c.52180076-.1740533 1.06776166-.26274658 1.61715356-.26274658 2.8574668.00028985 5.1736904 2.34877775 5.1735475 5.24536688 0 .11811279-.0032881.23274742-.0130093.34752696 1.2944948.16158988 2.2679034 1.2747485 2.2707626 2.59703196.0031451 1.44836703-1.1523934 2.6250022-2.5811269 2.6283355h-6.26732777-7.437591c-1.12222905-.0060868-2.07076279-.84476002-2.22901855-1.97125161-.17626858-1.25460414.68420232-2.41660202 1.92194237-2.59529292-.00972122-.11463459-.01629736-.23274738-.01629736-.35071522.00057188-.47317577.09292345-.94156904.27162236-1.37865879.75339453-1.84168985 2.83673773-2.7155795 4.65331924-1.95183184.60381823-1.0289891 1.53439089-1.81663915 2.63602325-2.23626903z" transform="translate(-.065272 .862797)"/><g transform="translate(21.092971 1.021428)"><path d="m8.30887927 2.54018135-2.1768644-2.46973519c-.08280161-.09392821-.20843901-.09392821-.29124062 0l-2.17686441 2.46973519c-.0669641.07597327-.08992322.19616386-.05761039.30228529.03231283.10612144.11309491.17606509.2032307.17606509h1.38121789v3.0584817c0 .15154463.09746994.27441514.21768644.27441514h1.15592016c.12021649 0 .21768644-.12287051.21768644-.27441514v-3.0584817h1.38121788c.0901358 0 .17091787-.06994365.2032307-.17606509.03231283-.10612143.00935372-.22631202-.05761039-.30228529z"/><path d="m4.71704254 6.63518135-2.17686441-2.46973519c-.08280161-.09392821-.20843901-.09392821-.29124062 0l-2.1768644 2.46973519c-.06696411.07597327-.08992322.19616386-.05761039.30228529.03231283.10612144.11309491.17606509.2032307.17606509h1.38121788v3.05848167c0 .1515447.09746995.2744152.21768644.2744152h1.15592016c.1202165 0 .21768644-.1228705.21768644-.2744152v-3.05848167h1.38121789c.09013579 0 .17091787-.06994365.2032307-.17606509.03231283-.10612143.00935371-.22631202-.05761039-.30228529z" transform="matrix(1 0 0 -1 0 14.541428)"/></g></g></svg>