<svg height="12" viewBox="0 0 22 12" width="22" version="1.1" id="svg386" xmlns="http://www.w3.org/2000/svg"> <g id="g317" transform="translate(-0.17,0.31)"> <g fill="#416383" id="g146"> <path d="M 9.7260805,0.33424189 V 0.26274658 C 10.247881,0.08869328 10.793842,0 11.343234,0 c 2.857467,2.8985e-4 5.173691,2.3487778 5.173548,5.2453669 0,0.1181128 -0.0033,0.2327474 -0.01301,0.3475269 1.294495,0.1615899 2.267904,1.2747485 2.270763,2.597032 0.0031,1.448367 -1.152393,2.6250022 -2.581127,2.6283352 H 9.9260802 2.4884892 C 1.3662602,10.812174 0.41772644,9.9735013 0.25947068,8.8470097 0.0832021,7.5924056 0.943673,6.4304077 2.1814131,6.2517168 2.1716918,6.1370822 2.1651157,6.0189694 2.1651157,5.9010015 2.1656876,5.4278258 2.2580391,4.9594325 2.4367381,4.5223428 3.1901326,2.6806529 5.2734758,1.8067633 7.0900573,2.5705109 7.6938755,1.5415218 8.6244482,0.75387177 9.7260805,0.33424189 Z" transform="translate(-0.06,0.8)" id="path138" /> <g transform="translate(21,1)" id="g144"> <path d="M 1.9039263,0.53944774 0.31748282,-1.2604326 c -0.060344,-0.068452 -0.15190505,-0.068452 -0.21224875,0 L -1.4812094,0.53944774 c -0.048802,0.0553672 -0.065534,0.14295927 -0.041985,0.22029787 0.023549,0.0773387 0.082421,0.12831175 0.1481094,0.12831175 h 1.00659657 V 3.1170012 c 0,0.1104418 0.0710336,0.1999868 0.15864435,0.1999868 h 0.84240487 c 0.0876107,0 0.15864432,-0.089545 0.15864432,-0.1999868 V 0.88805736 H 1.797802 c 0.065689,0 0.1245605,-0.0509734 0.1481093,-0.12831175 0.023549,-0.0773386 0.00681,-0.16493046 -0.041985,-0.22029787 z" id="path140" style="stroke-width:0.728775" /> <path d="m -0.6396004,3.8571985 -1.5864435,1.7998803 c -0.060344,0.068452 -0.1519051,0.068452 -0.2122488,0 L -4.0247362,3.8571985 c -0.048802,-0.055367 -0.065534,-0.1429592 -0.041985,-0.2202978 0.023549,-0.077339 0.082421,-0.1283118 0.1481094,-0.1283118 h 1.0065965 V 1.2796451 c 0,-0.1104419 0.071034,-0.1999868 0.1586444,-0.1999868 h 0.8424052 c 0.087611,0 0.1586444,0.089545 0.1586444,0.1999868 v 2.2289438 h 1.0065965 c 0.065689,0 0.1245606,0.050973 0.1481094,0.1283118 0.023549,0.077339 0.00682,0.1649304 -0.041985,0.2202978 z" id="path142" style="stroke-width:0.728775" /> </g> </g> </g> </svg>