<?xml version="1.0" encoding="UTF-8"?>
<svg width="120px" height="120px" viewBox="0 0 120 120" version="1.1" xmlns="http://www.w3.org/2000/svg" xmlns:xlink="http://www.w3.org/1999/xlink">
    <!-- Generator: Sketch 48.1 (47250) - http://www.bohemiancoding.com/sketch -->
    <title>Artboard 2 Copy 5@2x</title>
    <desc>Created with Sketch.</desc>
    <defs></defs>
    <g id="Page-1" stroke="none" stroke-width="1" fill="none" fill-rule="evenodd">
        <g id="Artboard-2-Copy-5">
            <g id="Group-5" transform="translate(12.000000, 1.000000)">
                <path d="M83.0987859,0.747360491 C83.046777,5.53205605 82.9943488,10.3167516 82.94234,15.1018696 C82.7036865,15.1124309 82.4650331,15.1238372 82.2259603,15.1352434 C77.6210817,15.1175004 73.0162031,15.1001798 68.4113245,15.0828593 C68.3752539,10.4384179 68.3391832,5.79439898 68.3026932,1.15038005 L68.4134216,1.14150855 C72.4495585,1.15080251 76.4856954,1.16812305 80.5218322,1.16094136 C81.1199338,1.15967401 81.7952097,1.36709812 82.2599338,0.747360491 L83.0987859,0.747360491 Z" id="Fill-6" fill="#F68F1F"></path>
                <path d="M53.3672671,1.19364077 C53.3513289,1.04485251 53.3353907,0.896064257 53.3194525,0.747276001 L68.4187903,0.747276001 C68.3990773,0.879059885 68.3973996,1.01126888 68.4137572,1.14390298 C68.4137572,1.14390298 68.3026093,1.15283028 68.3034481,1.15283028 C63.3248609,1.16643378 58.3462737,1.18003727 53.3672671,1.19364077" id="Fill-10" fill="#F2E564"></path>
                <path d="M68.4135475,1.14381849 C68.3971898,1.01118439 68.3988675,0.878975395 68.419,0.74719151 L82.2600596,0.74719151 C81.7953355,1.37125197 81.1196402,1.16209819 80.5219581,1.16337352 C76.4858212,1.17060038 72.4496843,1.1531709 68.4135475,1.14381849" id="Fill-12" fill="#FAAD52"></path>
                <path d="M53.3672671,1.19085099 C58.3462737,1.17733252 63.3248609,1.16381404 68.3034481,1.15029556 C68.3390993,5.79431449 68.37517,10.4387559 68.41166,15.0831972 C68.4154349,15.2297882 68.4187903,15.3768016 68.4225651,15.5233926 L68.3449713,15.4879066 L39.1164283,15.4131325 L39.1524989,15.3903201 C42.0205342,11.9464884 45.4413731,9.05226718 48.541351,5.83824953 C50.0911302,4.23166316 51.7549934,2.73660422 53.3672671,1.19085099" id="Fill-22" fill="#EEE119"></path>
                <path d="M82.226128,15.1354012 C81.3780486,15.8738161 80.3638764,15.4890921 79.4340088,15.5014203 C75.7640309,15.5524334 72.0932141,15.5248013 68.4223974,15.5260766 C68.4190419,15.3785637 68.4152671,15.2310508 68.4114923,15.0831127 C73.0163709,15.1001171 77.6212494,15.1175466 82.226128,15.1354012" id="Fill-32" fill="#FAAD52"></path>
                <g id="Group-4" transform="translate(0.000000, 14.936709)">
                    <path d="M88.1313942,84.2261411 C88.1313942,83.1455058 88.1411507,82.3603856 88.1270206,81.5759393 C88.120292,81.2099992 88.2319869,80.6722087 87.6237209,80.7382531 C84.7065336,81.0560078 81.6140661,80.8147434 79.1820114,82.9066001 C77.5099527,84.3454255 77.8460466,87.5886795 79.7448593,88.5783353 C81.8885933,89.6956995 83.9448553,89.1188215 85.9842959,88.1015348 C87.7660309,87.2129675 88.5882666,85.9267856 88.1313942,84.2261411 Z M93.515625,93.5559299 C92.2984201,93.5171793 91.0791966,93.4181126 89.8643468,93.4568632 C88.6367125,93.4956138 87.6338138,93.4363086 88.3497375,91.3484954 C86.1656319,92.8307888 84.2459605,93.8221294 81.979093,94.0509263 C77.8618588,94.4663997 74.3761043,92.2865961 73.1790852,88.3812128 C71.8845013,84.157064 73.4731253,80.1280159 77.2054832,78.2450753 C80.1293991,76.7698581 83.3201042,76.5535288 86.5067722,76.3345039 C88.2541913,76.2142087 88.4900289,75.808844 87.820869,74.1408848 C87.3831732,73.0501406 86.5387331,72.5059479 85.4328866,72.2528898 C82.4675898,71.5745864 79.6583967,72.2474984 76.8828466,73.2152517 C74.7118617,73.9724041 74.7142167,73.9794803 74.7111889,71.7922635 C74.7068153,68.2487768 74.7061424,68.2450703 78.1606089,67.6584204 C80.9946979,67.1772394 83.8435898,67.0094326 86.6810431,67.5556471 C90.6559673,68.3202127 92.4491409,70.2361755 93.2077913,74.3595728 C93.2306685,74.4829007 93.409313,74.5779238 93.515625,74.6860885 L93.515625,75.0230499 C93.0856671,75.2713905 93.1886147,75.6976467 93.1882783,76.071337 C93.1818861,81.3279357 93.1815497,86.5848713 93.1892876,91.84147 C93.189624,92.2104428 93.0674998,92.6431013 93.515625,92.882007 L93.515625,93.5559299 Z" id="Fill-4" fill="#484749"></path>
                    <path d="M40.5767741,80.2150393 C40.5767741,78.2809717 40.586762,76.346904 40.5695414,74.4135204 C40.5657529,73.9343641 40.6642545,73.4760704 40.0790998,73.0954131 C36.3384491,70.6609845 31.2256639,72.3128938 29.9637411,76.5055967 C29.0069666,79.6832134 29.0761932,82.9199979 30.1827866,86.0586255 C31.0761894,88.592921 33.2725,89.6955619 35.9255,89.1367172 C37.2270301,88.8627671 38.401817,88.3090526 39.5276974,87.6120358 C40.2767919,87.14827 40.6373905,86.6003696 40.5988164,85.674548 C40.5244236,83.8574479 40.5771185,82.0352176 40.5767741,80.2150393 M40.5767741,92.0564582 C38.6780348,93.2162148 36.9821537,94.1201478 35.0231425,94.3427964 C30.726612,94.831187 27.03349,92.8434237 25.3444972,88.8008632 C23.3114375,83.9337161 23.1671292,78.9393413 25.2318747,74.0280749 C27.6751282,68.2166377 33.4867238,65.8006777 39.400954,68.0435805 C40.9528712,68.6321801 42.4465828,67.8869398 43.9805906,67.9016463 C45.6447858,67.9173788 46.0274267,68.3339472 46.0143391,69.9701239 C45.9299583,80.3935686 45.9303027,90.8183813 46.0153723,101.241484 C46.0281155,102.811995 45.5610938,103.100993 44.1135333,103.05961 C40.5788405,102.958717 40.5764297,103.030197 40.5764297,99.4401163 C40.5764297,97.0716957 40.5767741,94.7032751 40.5767741,92.0564582" id="Fill-14" fill="#49484A"></path>
                    <path d="M15.4533929,84.1686141 C15.4533929,83.0562527 15.4564421,82.2705612 15.4520376,81.4848696 C15.449666,81.1457392 15.4425511,80.7166903 14.9770318,80.7682166 C11.9860534,81.1006116 8.77485111,80.7813507 6.36594122,83.0855519 C4.77423113,84.6084397 5.22585939,87.6983324 7.11063657,88.6227744 C9.2861092,89.6896714 11.3406281,89.1097482 13.4053112,88.0849478 C15.2724705,87.1584852 15.8667361,85.778726 15.4533929,84.1686141 M15.1704899,91.7295057 C12.529498,93.5938813 9.72825089,94.509904 6.53297252,93.9269499 C3.34548669,93.3456796 0.851536513,90.8545694 0.184427711,87.4989627 C-0.504364669,84.0345784 0.771578322,80.6011772 3.42036279,78.8802669 C6.31783078,76.9980423 9.64592106,76.752198 12.9546994,76.3665929 C13.8017141,76.2679184 15.1671019,77.0263313 15.4279824,75.4465289 C15.6522719,74.0879864 14.6226408,72.7752451 13.1041128,72.3532685 C10.9222029,71.747077 8.74198694,71.9552027 6.58955311,72.5169402 C5.50300261,72.8008398 4.43678047,73.1662386 3.37292996,73.5279329 C2.46391375,73.8370905 1.99127953,73.6777969 2.03871236,72.5927141 C2.26130783,67.4872347 0.872881284,68.6942293 6.23312931,67.6071259 C8.90596899,67.0652581 11.6204818,67.0985986 14.3024692,67.6246381 C18.1665504,68.3820407 20.5849469,70.9223198 20.6892991,74.7962201 C20.8475215,80.6823395 20.7526558,86.575531 20.7567215,92.4656916 C20.7570603,92.7344365 20.7330051,93.2076027 20.6191663,93.2406064 C19.1379069,93.6710024 17.6112476,93.4393025 16.105933,93.4170755 C15.0400497,93.4012472 15.7274868,92.2888858 15.1704899,91.7295057" id="Fill-16" fill="#49484A"></path>
                    <path d="M64.573541,91.3538094 C62.5890383,92.5779682 61.0189201,93.6984197 59.0227156,93.9843898 C53.5310879,94.7720135 49.3149662,91.521257 49.1253267,85.9710252 C48.9257063,80.127588 49.0372184,74.2738144 48.9845599,68.4248645 C48.9776764,67.6496443 49.1600882,67.3512707 50.0174237,67.3026902 C54.3185562,67.0590988 54.2879248,67.0294682 54.3250955,71.3407259 C54.3632987,75.8108176 54.1358002,80.2853883 54.4748108,84.751001 C54.7539353,88.4248554 56.861652,89.7833857 60.3815114,88.5926475 C60.8127604,88.4469061 61.2202615,88.2319117 61.6415295,88.0568843 C63.6652679,87.215512 64.6747279,85.9648235 64.5542673,83.5085815 C64.3164436,78.6446779 64.513999,73.7607909 64.4613405,68.8858621 C64.4492944,67.7788477 64.603484,67.2789168 65.9061796,67.2920094 C69.7258138,67.32922 69.7265022,67.2651351 69.7265022,71.1119498 C69.7265022,77.9952157 69.6769412,84.8784816 69.7650496,91.7603694 C69.7846674,93.2601619 69.3052342,93.6870498 67.9323273,93.4834254 C67.4277693,93.4083151 66.8963659,93.419685 66.3880221,93.4813581 C65.0192453,93.647772 64.0913543,93.3807517 64.573541,91.3538094" id="Fill-18" fill="#474749"></path>
                    <path d="M68.4158124,28.8908659 C63.9925453,33.9307227 58.7283289,38.1121563 54.1884614,43.0328815 C53.7862318,43.4684299 53.2799845,43.6420578 52.6894327,43.6348762 C48.1063642,43.5795349 43.522457,43.5317978 38.9389691,43.4823708 C39.2082406,38.619944 39.2015298,33.7570948 38.9410662,28.8942455 L39.0631192,28.8710107 C39.0631192,28.8710107 39.1868499,28.8773474 39.1868499,28.8773474 C48.9372472,28.8866414 58.6876446,28.8959354 68.4380419,28.9052293 L68.4158124,28.8908659 Z" id="Fill-20" fill="#8DD4EC"></path>
                    <path d="M24.5478742,28.9342095 C24.5105453,24.5085985 24.4774106,20.0829874 24.4304349,15.6573764 C24.4241435,15.0705901 24.5164172,14.5488614 24.9597506,14.1255641 C29.71017,9.58884808 34.1548278,4.7306458 39.1518698,0.453737987 C39.1522892,0.453737987 39.1162185,0.476127963 39.116638,0.476972868 C39.1401258,9.94413052 39.1636137,19.4108657 39.1871015,28.8771785 L39.0629514,28.8708417 C39.0629514,28.8708417 38.9408985,28.894499 38.9413179,28.894499 C34.1435033,28.907595 29.3456887,28.9206911 24.5478742,28.9342095" id="Fill-24" fill="#00B4D9"></path>
                    <path d="M82.226128,0.198365529 C82.4647815,0.186959315 82.7038543,0.175975553 82.9425077,0.164991791 C82.9727064,4.6548156 82.9957748,9.14506186 83.040234,13.6348857 C83.0469448,14.3036278 82.895532,14.8502811 82.399351,15.330187 C77.7311391,19.8432457 73.0750905,24.368978 68.4156865,28.8909082 L68.4379161,28.9052716 C68.4068786,19.4537446 68.3758411,10.0026402 68.3448035,0.551113259 L68.4223974,0.586599258 C72.0932141,0.585331901 75.7640309,0.612791305 79.4340088,0.562097021 C80.3638764,0.549845902 81.3780486,0.932165299 82.226128,0.198365529" id="Fill-26" fill="#FAA924"></path>
                    <path d="M24.5478742,28.9342095 C29.3456887,28.9206911 34.1435033,28.907595 38.9413179,28.894499 C39.201362,33.7573483 39.2080728,38.6197751 38.9388013,43.4822019 C34.6921126,43.4961428 30.444585,43.4737528 26.1987351,43.5468371 C24.8678962,43.5696495 24.367521,43.1852178 24.4082053,41.7581737 C24.5310971,37.4859129 24.5118035,33.2090051 24.5478742,28.9342095" id="Fill-28" fill="#0082C6"></path>
                    <path d="M14.7162184,84.2787252 C15.138032,85.9909231 14.5315885,87.4581632 12.6261667,88.4433664 C10.5191733,89.5331422 8.42255238,90.1498343 6.20249913,89.0152928 C4.27909837,88.0322383 3.81821517,84.746437 5.44254319,83.1269936 C7.9008174,80.6766991 11.1778248,81.016202 14.2300955,80.6627322 C14.7051544,80.607939 14.7124152,81.0641909 14.7148354,81.4248232 C14.7193301,82.26033 14.7162184,83.0958367 14.7162184,84.2787252" id="Fill-36" fill="#FAF9F9"></path>
                </g>
            </g>
        </g>
    </g>
</svg>