<?xml version="1.0" encoding="UTF-8"?>
<svg width="63px" height="79px" viewBox="0 0 63 79" version="1.1" xmlns="http://www.w3.org/2000/svg" xmlns:xlink="http://www.w3.org/1999/xlink">
    <!-- Generator: Sketch 48.1 (47250) - http://www.bohemiancoding.com/sketch -->
    <title>Group 5@2x</title>
    <desc>Created with Sketch.</desc>
    <defs></defs>
    <g id="Artboard" stroke="none" stroke-width="1" fill="none" fill-rule="evenodd" transform="translate(-902.000000, -23.000000)">
        <g id="Group-5" transform="translate(902.000000, 23.000000)">
            <path d="M55.98234,0.500351515 C55.9473024,3.70366465 55.9119823,6.90697778 55.8769448,10.1105737 C55.7161678,10.1176444 55.5553907,10.1252808 55.3943311,10.1329172 C52.2920971,10.1210384 49.1898631,10.1094424 46.0876291,10.0978465 C46.0633289,6.98843232 46.0390287,3.87930101 46.0144459,0.770169697 L46.0890419,0.764230303 C48.8081236,0.770452525 51.5272053,0.782048485 54.246287,0.777240404 C54.6492185,0.776391919 55.1041413,0.915260606 55.4172185,0.500351515 L55.98234,0.500351515 Z" id="Fill-6" fill="#F68F1F"></path>
            <path d="M35.9526852,0.797264646 C39.3069634,0.788214141 42.6609589,0.779163636 46.0149545,0.770113131 C46.0389722,3.87924444 46.0632724,6.98865859 46.0878552,10.0980727 C46.0903982,10.1962141 46.0926587,10.2946384 46.0952018,10.3927798 L46.042928,10.3690222 L26.3521201,10.3189616 L26.3764203,10.3036889 C28.3085704,7.99807273 30.6131355,6.06041616 32.7015417,3.90865859 C33.7456035,2.83306263 34.8665219,1.83213333 35.9526852,0.797264646" id="Fill-22" fill="#EEE119"></path>
            <g id="Group-4" transform="translate(0.000000, 10.000000)">
                <path d="M59.3727287,56.3886877 C59.3727287,55.6652115 59.3793015,55.1395802 59.3697823,54.6144 C59.3652494,54.3694062 59.4404964,54.0093601 59.0307172,54.0535763 C57.0654542,54.2663103 54.9821077,54.1047858 53.3436708,55.5052662 C52.2172313,56.4685476 52.4436524,58.6398786 53.7228526,59.3024448 C55.1670523,60.0505107 56.5523236,59.6642957 57.9262625,58.9832309 C59.1265892,58.3883426 59.6805164,57.5272548 59.3727287,56.3886877 Z M63,62.6349022 C62.1799883,62.608959 61.3586167,62.5426347 60.5401915,62.5685779 C59.7131537,62.5945211 59.0375166,62.5548167 59.5198231,61.1570435 C58.0484257,62.1494264 56.7551734,62.8131205 55.2280206,62.9662981 C52.4543049,63.2444541 50.1060071,61.785094 49.2995942,59.170473 C48.4274535,56.3424412 49.4976844,53.6450276 52.012115,52.3844148 C53.981911,51.3967694 56.1314387,51.2519388 58.2782465,51.1053035 C59.4554552,51.0247668 59.6143353,50.7533786 59.1635328,49.6366941 C58.868664,48.9064501 58.2997781,48.5421176 57.5547868,48.3726974 C55.5571131,47.918579 53.6646041,48.3690879 51.7947598,49.0169906 C50.3322016,49.5238977 50.3337881,49.5286351 50.3317483,48.064312 C50.3288019,45.6919777 50.3283486,45.6894962 52.6555681,45.2967391 C54.5648491,44.9745925 56.4841026,44.8622473 58.3956501,45.2279333 C61.0734938,45.7398034 62.2815265,47.0225243 62.7926173,49.7831038 C62.8080293,49.8656708 62.9283793,49.929288 63,50.0017033 L63,50.2272961 C62.7103441,50.3935581 62.7796983,50.678933 62.7794717,50.9291154 C62.7751654,54.4483637 62.7749387,57.9678376 62.7801516,61.4870858 C62.7803783,61.73411 62.6981051,62.0237712 63,62.1837165 L63,62.6349022 Z" id="Fill-4" fill="#484749"></path>
                <path d="M27.335932,53.703289 C27.335932,52.4084471 27.3426607,51.1136052 27.3310595,49.8192213 C27.3285072,49.4984302 27.3948662,49.1916065 27.0006567,48.9367596 C24.4806394,47.3069303 21.0362367,48.4128696 20.1860992,51.2198487 C19.5415354,53.3472361 19.5881723,55.5142359 20.3336668,57.6155204 C20.9355381,59.3122098 22.4151579,60.0504185 24.2024421,59.6762768 C25.0792624,59.4928695 25.8706977,59.1221623 26.6291856,58.6555155 C27.1338387,58.3450282 27.3767683,57.9782136 27.3507816,57.3583838 C27.3006643,56.1418507 27.336164,54.9218829 27.335932,53.703289 M27.335932,61.6310187 C26.0567813,62.4074659 24.914293,63.0126413 23.5945381,63.1617027 C20.7000333,63.488676 18.2120354,62.1578854 17.0741876,59.4514254 C15.7045474,56.1929117 15.6073292,52.84922 16.9983156,49.5611688 C18.6442969,45.6704608 22.5594771,44.0529961 26.5438006,45.5546005 C27.5893027,45.9486629 28.5955926,45.4497309 29.6290294,45.4595767 C30.7501715,45.4701095 31.0079506,45.7489985 30.9991337,46.844405 C30.9422877,53.8228129 30.9425197,60.8021367 30.9998298,67.7803156 C31.0084147,68.8317592 30.6937895,69.0252414 29.7185909,68.9975356 C27.3373242,68.9299886 27.3357,68.977844 27.3357,66.5743152 C27.3357,64.9886777 27.335932,63.4030401 27.335932,61.6310187" id="Fill-14" fill="#49484A"></path>
                <path d="M10.4107068,56.3501738 C10.4107068,55.6054573 10.412761,55.0794435 10.4097938,54.5534297 C10.408196,54.3263847 10.4034028,54.0391401 10.0897898,54.0736365 C8.0748149,54.2961722 5.91147864,54.0824297 4.28863408,55.6250729 C3.21632413,56.6446333 3.52057896,58.7132903 4.79032358,59.3321964 C6.25590515,60.0464749 7.64000211,59.6582213 9.03094652,58.9721261 C10.2888222,58.3518672 10.6891696,57.4281301 10.4107068,56.3501738 M10.2201195,61.4121267 C8.44092498,62.6603104 6.55376902,63.2735798 4.40116044,62.883297 C2.25380156,62.4941414 0.573666703,60.8263642 0.124246037,58.579814 C-0.339782514,56.2604381 0.519800133,53.9618051 2.30424441,52.8096702 C4.25622284,51.5495368 6.49830471,51.3849461 8.72737644,51.1267868 C9.29799689,51.060725 10.2178371,51.568476 10.3935882,50.5108117 C10.5446885,49.6012791 9.85104223,48.7224098 8.82803389,48.4399001 C7.35811561,48.03406 5.88933857,48.1733984 4.43927788,48.5494769 C3.70728597,48.7395453 2.98898895,48.9841767 2.27228966,49.2263279 C1.65989979,49.4333064 1.34149358,49.3266606 1.37344833,48.6002069 C1.52340738,45.1821317 0.588046339,45.9902044 4.1991608,45.2623979 C5.99981069,44.8996219 7.82853511,44.9219431 9.6353477,45.2741221 C12.2385182,45.7811967 13.8677537,47.4818921 13.9380541,50.0754355 C14.044646,54.0161425 13.9807366,57.9615843 13.9834755,61.9049969 C13.9837038,62.0849194 13.9674982,62.4017001 13.8908068,62.4237958 C12.8929057,62.7119423 11.8644194,62.5568212 10.8503128,62.5419404 C10.132244,62.5313434 10.5953595,61.7866269 10.2201195,61.4121267" id="Fill-16" fill="#49484A"></path>
                <path d="M43.502175,61.1606012 C42.1652468,61.9801652 41.107483,62.730298 39.7626715,62.9217525 C36.0630487,63.4490599 33.2227141,61.272706 33.094957,57.5568728 C32.9604758,53.6447411 33.0355998,49.7256893 33.0001246,45.8098669 C32.9954873,45.2908636 33.1183752,45.091105 33.6959486,45.0585808 C36.5935537,44.8954984 36.5729178,44.8756609 36.5979591,47.7620114 C36.623696,50.7546999 36.4704338,53.7503871 36.6988199,56.7400769 C36.8868617,59.1996913 38.3067971,60.1092158 40.6780708,59.3120267 C40.9685965,59.2144541 41.2431235,59.0705172 41.5269251,58.9533378 C42.8902857,58.3900462 43.570343,57.5527208 43.4891906,55.9082876 C43.3289725,52.6519454 43.4620625,49.3822244 43.4265873,46.1185009 C43.418472,45.3773641 43.5223471,45.0426646 44.3999526,45.05143 C46.9731798,45.0763422 46.9736436,45.0334379 46.9736436,47.6088478 C46.9736436,52.2171359 46.9402551,56.8254241 46.9996123,61.4327897 C47.0128286,62.4368881 46.689842,62.7226859 45.7649363,62.586361 C45.4250236,62.5360754 45.0670255,62.5436874 44.7245623,62.584977 C43.8024389,62.6963897 43.1773334,62.5176219 43.502175,61.1606012" id="Fill-18" fill="#474749"></path>
                <path d="M46.0906525,19.3421899 C43.1107673,22.7163313 39.5643479,25.5157657 36.5059108,28.8101495 C36.2349351,29.1017455 35.8938843,29.2179879 35.4960389,29.2131798 C32.408498,29.1761293 29.3203921,29.1441697 26.2325687,29.1110788 C26.4139726,25.8557253 26.4094517,22.6000889 26.2339815,19.3444525 L26.3162066,19.328897 C26.3162066,19.328897 26.399562,19.3331394 26.399562,19.3331394 C32.9682508,19.3393616 39.5369395,19.3455838 46.1056283,19.3518061 L46.0906525,19.3421899 Z" id="Fill-20" fill="#8DD4EC"></path>
                <path d="M16.5375152,19.3712081 C16.5123673,16.408299 16.490045,13.4453899 16.4583982,10.4824808 C16.4541598,10.0896323 16.5163232,9.74033939 16.8149898,9.45694545 C20.0152724,6.41965253 23.0095682,3.16712727 26.3759965,0.303773737 C26.376279,0.303773737 26.3519788,0.318763636 26.3522614,0.319329293 C26.3680848,6.65751111 26.3839082,12.9954101 26.3997316,19.3330263 L26.3160936,19.3287838 C26.3160936,19.3287838 26.2338684,19.3446222 26.234151,19.3446222 C23.0019391,19.3533899 19.7697272,19.3621576 16.5375152,19.3712081" id="Fill-24" fill="#00B4D9"></path>
                <path d="M55.3944442,0.13280404 C55.5552212,0.125167677 55.7162808,0.117814141 55.8770578,0.110460606 C55.8974022,3.1163596 55.912943,6.12254141 55.9428945,9.1284404 C55.9474155,9.57615758 55.845411,9.94213737 55.5111417,10.2634303 C52.3662411,13.2848848 49.2295347,16.3148242 46.0905678,19.3422182 L46.1055435,19.3518343 C46.084634,13.0241172 46.0637245,6.69668283 46.042815,0.368965657 L46.0950887,0.392723232 C48.56806,0.391874747 51.0410313,0.410258586 53.5134375,0.376319192 C54.1398746,0.368117172 54.8231064,0.624076768 55.3944442,0.13280404" id="Fill-26" fill="#FAA924"></path>
                <path d="M16.5375152,19.3712081 C19.7697272,19.3621576 23.0019391,19.3533899 26.234151,19.3446222 C26.4093386,22.6002586 26.4138596,25.8556121 26.2324556,29.1109657 C23.3715285,29.120299 20.5100362,29.1053091 17.6496742,29.1542384 C16.7531091,29.1695111 16.4160141,28.9121374 16.4434225,27.9567434 C16.5262128,25.096501 16.513215,22.2331475 16.5375152,19.3712081" id="Fill-28" fill="#0082C6"></path>
                <path d="M9.91408397,56.4238923 C10.1982531,57.5701943 9.78970174,58.5524991 8.50604915,59.2120843 C7.08660097,59.94168 5.67414055,60.3545501 4.17852573,59.5949841 C2.882761,58.9368375 2.57227127,56.7370214 3.66655541,55.6528178 C5.32265593,54.0123663 7.5303241,54.2396607 9.58659068,54.0030156 C9.90663036,53.966332 9.91152179,54.2717888 9.91315227,54.5132291 C9.9161803,55.0725938 9.91408397,55.6319585 9.91408397,56.4238923" id="Fill-36" fill="#FAF9F9"></path>
            </g>
        </g>
    </g>
</svg>