<?xml version="1.0" encoding="UTF-8"?>
<svg width="48px" height="61px" viewBox="0 0 48 61" version="1.1" xmlns="http://www.w3.org/2000/svg" xmlns:xlink="http://www.w3.org/1999/xlink">
    <!-- Generator: Sketch 48.1 (47250) - http://www.bohemiancoding.com/sketch -->
    <title>Page 1@2x</title>
    <desc>Created with Sketch.</desc>
    <defs></defs>
    <g id="Artboard" stroke="none" stroke-width="1" fill="none" fill-rule="evenodd" transform="translate(-795.000000, -32.000000)">
        <g id="Page-1" transform="translate(795.000000, 32.000000)" fill="#4AA948">
            <g id="Group-7">
                <path d="M4.6405636,23.4731083 C4.80119442,34.6450273 14.029158,42.875301 24.6093461,42.5694226 C35.2415156,42.262143 43.6670352,33.4806436 43.4180645,22.9880184 C43.1743488,12.720003 34.4613696,4.06447004 23.5133355,4.3454074 C13.533063,4.60154381 4.77804427,12.5543831 4.6405636,23.4731083 Z M25.9174008,0.140174432 C26.9227992,0.321067267 27.9311801,0.486967435 28.9331698,0.68523495 C38.131024,2.50495242 45.5708867,10.0213229 47.2375558,19.1695122 C49.5477422,31.8516272 41.4064156,43.7106868 28.6113401,46.3013357 C15.668274,48.9218297 2.79508451,40.0954924 0.761563686,27.2064225 C-1.20889783,14.7158493 6.85928565,3.20414316 19.4019819,0.622461914 C20.3362255,0.430219489 21.2835355,0.299489036 22.2247383,0.140174432 L25.9174008,0.140174432 Z" id="Fill-1"></path>
                <polygon id="Fill-7" points="0.814908457 60.2189586 47.6395731 60.2189586 47.6395731 56.1181138 0.814908457 56.1181138"></polygon>
            </g>
        </g>
    </g>
</svg>