<?xml version="1.0" encoding="UTF-8"?>
<svg width="108px" height="49px" viewBox="0 0 108 49" version="1.1" xmlns="http://www.w3.org/2000/svg" xmlns:xlink="http://www.w3.org/1999/xlink">
    <!-- Generator: Sketch 48.1 (47250) - http://www.bohemiancoding.com/sketch -->
    <title>microsoft-azure-2@2x</title>
    <desc>Created with Sketch.</desc>
    <defs></defs>
    <g id="Artboard" stroke="none" stroke-width="1" fill="none" fill-rule="evenodd" transform="translate(-765.000000, -169.000000)">
        <g id="microsoft-azure-2" transform="translate(765.000000, 169.000000)" fill-rule="nonzero">
            <g id="Group-5">
                <path d="M40.8715596,3.626 L51.6334128,2.14057868 L51.6334128,12.5683756 L40.8725505,12.5683756 L40.8715596,3.626 Z M51.6334128,13.9028173 L51.6334128,24.2127157 L40.8730459,22.729533 L40.8727982,13.9033147 L51.6336606,13.9033147 L51.6336606,13.9028173 L51.6334128,13.9028173 Z M52.8233945,1.97666497 L67.1433028,0 L67.1433028,12.5683756 L52.8233945,12.5683756 L52.8233945,1.97666497 Z M67.1433028,13.9028173 L67.1433028,26.3515533 L52.8233945,24.3763807 L52.8233945,13.9028173 L67.1433028,13.9028173 Z" id="Shape" fill="#0DADEA"></path>
                <path d="M11.3899262,48.7895435 L9.64892456,48.7895435 L9.64892456,42.0578811 C9.64892456,41.5060828 9.68342215,40.8322404 9.75224398,40.0335804 L9.72312039,40.0335804 C9.61442697,40.4881249 9.5185618,40.8143846 9.43535152,41.0133995 L6.27821509,48.7895435 L5.06837239,48.7895435 L1.90360835,41.0716477 C1.81519743,40.8445488 1.72158587,40.4985264 1.62346709,40.0344472 L1.5943435,40.0344472 C1.63404173,40.4505062 1.65345746,41.1297227 1.65345746,42.0726165 L1.65345746,48.7895435 L0.0303370787,48.7895435 L0.0303370787,38.3873733 L2.50150883,38.3873733 L5.28263884,45.3151035 C5.49395827,45.8469657 5.63177528,46.2439554 5.69539647,46.5046857 L5.73214767,46.5046857 C5.91417014,45.9580881 6.06152167,45.5515638 6.17472231,45.2856327 L9.00768539,38.3873733 L11.3904462,38.3873733 L11.3897528,48.7895435 L11.3899262,48.7895435 Z M14.6580096,39.8016274 C14.3778684,39.8016274 14.1374254,39.7125215 13.9389342,39.5334427 C13.7395762,39.3545373 13.6400706,39.1269183 13.6400706,38.8514525 C13.6400706,38.5759868 13.7395762,38.3461141 13.9389342,38.162008 C14.1382921,37.9785953 14.3778684,37.8863689 14.6580096,37.8863689 C14.9478587,37.8863689 15.1943692,37.9785953 15.3958074,38.162008 C15.5972456,38.3461141 15.6984848,38.57512 15.6984848,38.8514525 C15.6984848,39.1121829 15.5972456,39.3361614 15.3958074,39.5223478 C15.1935024,39.7088809 14.9478587,39.8016274 14.6580096,39.8016274 Z M15.5058876,48.7895435 L13.7950498,48.7895435 L13.7950498,41.3611555 L15.506061,41.3611555 L15.506061,48.7895435 L15.5058876,48.7895435 Z M23.1560321,48.4485484 C22.5515441,48.7917971 21.8354157,48.9634215 21.0092071,48.9634215 C19.8879486,48.9634215 18.9830369,48.6187859 18.2944719,47.9300348 C17.6062536,47.2412836 17.2616244,46.3477968 17.2616244,45.2495742 C17.2616244,44.0260138 17.6317368,43.043421 18.3717881,42.3007556 C19.1120128,41.5584369 20.1013483,41.1871041 21.341008,41.1871041 C22.0293997,41.1871041 22.6368347,41.305681 23.1627929,41.543008 L23.1627929,43.1096437 C22.6361413,42.7230555 22.0758587,42.5292413 21.481252,42.5292413 C20.7583628,42.5292413 20.1658363,42.7702089 19.7036726,43.2511038 C19.2415088,43.7321721 19.0099069,44.3619815 19.0099069,45.1405321 C19.0099069,45.9095479 19.2271204,46.5164741 19.6624141,46.9613106 C20.0975345,47.4063204 20.68174,47.6287387 21.4145104,47.6287387 C22.0293997,47.6287387 22.6090979,47.4137748 23.1551653,46.9835004 L23.1560321,48.4485484 Z M29.2413034,42.9645431 C29.0344912,42.8047071 28.7371878,42.7253092 28.3485265,42.7253092 C27.8419839,42.7253092 27.418825,42.9498077 27.0795698,43.3998449 C26.7401413,43.8491887 26.5702536,44.4613156 26.5702536,45.2348388 L26.5702536,48.7895435 L24.858549,48.7895435 L24.858549,41.3611555 L26.5702536,41.3611555 L26.5702536,42.8917328 L26.5993772,42.8917328 C26.7664912,42.3694053 27.0234029,41.9620142 27.3701124,41.6695593 C27.7168218,41.3772778 28.1042697,41.230617 28.5319358,41.230617 C28.8420674,41.230617 29.0780032,41.2770769 29.24061,41.3684365 L29.2413034,42.9645431 Z M33.8149213,48.9634215 C32.6494575,48.9634215 31.7190626,48.6165322 31.0225233,47.9225804 C30.3266774,47.2288019 29.9784077,46.3086179 29.9784077,45.1627219 C29.9784077,43.914718 30.3408925,42.940273 31.0667287,42.2390401 C31.792565,41.5378073 32.7692456,41.1871041 33.9991974,41.1871041 C35.1797432,41.1871041 36.09887,41.5282726 36.7579647,42.2102627 C37.4172327,42.8924262 37.7460867,43.8374004 37.7460867,45.0462253 C37.7460867,46.2314736 37.3910562,47.1802617 36.6801284,47.8931095 C35.9700674,48.6069975 35.0150562,48.9634215 33.8149213,48.9634215 Z M33.895878,42.5292413 C33.2270754,42.5292413 32.6981701,42.759114 32.3102022,43.2179925 C31.9213676,43.6775644 31.7273836,44.3110143 31.7273836,45.1183423 C31.7273836,45.8968928 31.9243146,46.5098865 32.3176565,46.9569766 C32.710825,47.4040668 33.2374767,47.6278719 33.8965714,47.6278719 C34.5709213,47.6278719 35.0883852,47.4077073 35.4494831,46.9680715 C35.8104077,46.527569 35.9917368,45.9014001 35.9917368,45.0888714 C35.9917368,44.2720088 35.8112745,43.6408125 35.4494831,43.1958026 C35.0876918,42.7516596 34.5700546,42.5292413 33.895878,42.5292413 Z M39.023191,48.5575905 L39.023191,46.9982358 C39.66287,47.4770505 40.3684238,47.7162844 41.1398523,47.7162844 C42.1730465,47.7162844 42.6889502,47.4165485 42.6889502,46.8169034 C42.6889502,46.6475327 42.6449181,46.5039923 42.5565072,46.3852421 C42.4680963,46.2666653 42.3490016,46.161437 42.1983563,46.0700774 C42.0477111,45.9787177 41.8710626,45.8961994 41.6673708,45.823389 C41.4628122,45.7504053 41.2357175,45.6685804 40.9848732,45.5765273 C40.6979021,45.4662406 40.4182364,45.337812 40.1475698,45.1920194 C39.8988058,45.0564535 39.6928604,44.9033784 39.528,44.731754 C39.3656588,44.5642259 39.239035,44.3654695 39.1558074,44.1475378 C39.0719037,43.9303203 39.0306453,43.6760042 39.0306453,43.3859763 C39.0306453,43.0279922 39.1168026,42.7126541 39.2889438,42.4394419 C39.4614318,42.1660565 39.6919936,41.9363572 39.9820161,41.7506908 C40.2725586,41.564331 40.6014125,41.4244312 40.9706581,41.3301244 C41.3442506,41.2352125 41.7283006,41.1876858 42.1137592,41.1886644 C42.8118587,41.1886644 43.4364559,41.2925058 43.9872039,41.5001886 L43.9872039,42.972691 C43.4560449,42.6147068 42.8463563,42.4356281 42.1579647,42.4356281 C41.9414446,42.4356281 41.7459005,42.4578179 41.5715056,42.5004639 C41.3969374,42.5439768 41.2478523,42.6044787 41.1249438,42.6817963 C41.0022087,42.759114 40.9063435,42.8518605 40.8373483,42.9609026 C40.7689531,43.0680209 40.7330659,43.1926651 40.7340289,43.3197536 C40.7340289,43.4794162 40.7685265,43.6149822 40.8373483,43.726278 C40.9063435,43.8374004 41.0081027,43.9353476 41.1436661,44.0201197 C41.2785361,44.1048917 41.4411429,44.1822094 41.6306196,44.2520726 C41.8200963,44.3221092 42.0373098,44.3987334 42.2838202,44.4805584 C42.5816639,44.5989409 42.873382,44.7321894 43.1578748,44.8798017 C43.4163467,45.0151943 43.6365072,45.1684427 43.8185297,45.3400671 C43.9977874,45.5076544 44.1408,45.7102002 44.2387416,45.9352049 C44.3370337,46.1598768 44.3864398,46.4273681 44.3864398,46.7366387 C44.3864398,47.1138656 44.2980289,47.4422055 44.1205136,47.7230454 C43.9436918,48.0037119 43.7070626,48.2356648 43.4127063,48.4190775 C43.1174831,48.6031837 42.7766677,48.739443 42.3909535,48.828549 C42.0043724,48.9185218 41.5976822,48.962728 41.1700161,48.962728 C40.343114,48.9634215 39.627679,48.828549 39.023191,48.5575905 Z M49.3653612,48.9634215 C48.1998973,48.9634215 47.268809,48.6165322 46.5727897,47.9225804 C45.8769438,47.2288019 45.5293676,46.3086179 45.5293676,45.1627219 C45.5293676,43.914718 45.8920257,42.940273 46.617862,42.2390401 C47.3428315,41.5378073 48.3203788,41.1871041 49.5496372,41.1871041 C50.730183,41.1871041 51.6491364,41.5282726 52.3084045,42.2102627 C52.9674992,42.8924262 53.2970465,43.8374004 53.2970465,45.0462253 C53.2970465,46.2314736 52.9420161,47.1802617 52.2312616,47.8931095 C51.5205072,48.6069975 50.5646292,48.9634215 49.3653612,48.9634215 Z M49.4463178,42.5292413 C48.7773419,42.5292413 48.2484366,42.759114 47.8597753,43.2179925 C47.4709406,43.6775644 47.2769567,44.3110143 47.2769567,45.1183423 C47.2769567,45.8968928 47.474061,46.5098865 47.8672295,46.9569766 C48.2605714,47.4040668 48.7870498,47.6278719 49.4463178,47.6278719 C50.1196276,47.6278719 50.6372648,47.4077073 50.9990562,46.9680715 C51.3608475,46.527569 51.5413098,45.9014001 51.5413098,45.0888714 C51.5413098,44.2720088 51.3608475,43.6408125 50.9990562,43.1958026 C50.6372648,42.7516596 50.1196276,42.5292413 49.4463178,42.5292413 Z M59.316443,39.1636702 C59.0858812,39.033305 58.8222087,38.9677757 58.5269856,38.9677757 C57.6955762,38.9677757 57.280565,39.4296013 57.280565,40.3532524 L57.280565,41.3616756 L59.0363018,41.3616756 L59.0363018,42.6817963 L57.2880193,42.6817963 L57.2880193,48.7895435 L55.576488,48.7895435 L55.576488,42.6817963 L54.285862,42.6817963 L54.285862,41.3616756 L55.576488,41.3616756 L55.576488,40.1573579 C55.576488,39.37378 55.8372135,38.7564524 56.3584912,38.3041615 C56.8797689,37.8516973 57.5315827,37.6256385 58.3135859,37.6256385 C58.7367448,37.6256385 59.0707994,37.671405 59.316443,37.7634581 L59.316443,39.1636702 Z M64.2513323,48.7099722 C63.9172777,48.8743155 63.4767833,48.9568339 62.9307159,48.9568339 C61.4655217,48.9568339 60.7329246,48.2651357 60.7329246,46.8826061 L60.7329246,42.6824898 L59.4715955,42.6824898 L59.4715955,41.3625424 L60.7329246,41.3625424 L60.7329246,39.6431783 L62.4446292,39.164537 L62.4446292,41.3625424 L64.2520257,41.3625424 L64.2520257,42.6824898 L62.4446292,42.6824898 L62.4446292,46.3961637 C62.4446292,46.8359728 62.5254125,47.1504441 62.6880193,47.3390575 C62.850626,47.527671 63.120886,47.6219777 63.4993194,47.6219777 C63.7891685,47.6219777 64.0401862,47.5401527 64.2513323,47.375116 L64.2513323,48.7099722 Z M78.7687512,48.7895435 L76.8436469,48.7895435 L75.8922761,46.1415008 L71.7321091,46.1415008 L70.8174896,48.7895435 L68.8991461,48.7895435 L72.8601284,38.3873733 L74.8368925,38.3873733 L78.7685778,48.7895435 L78.7687512,48.7895435 Z M75.4271653,44.7347011 L73.9597175,40.5853787 C73.915512,40.4498128 73.8683596,40.2325953 73.8196469,39.932686 L73.7905233,39.932686 C73.7463178,40.2083252 73.6969117,40.4262361 73.642825,40.5853787 L72.1897657,44.7347011 L75.4271653,44.7347011 Z M85.614183,42.0651621 L81.5349727,47.4761837 L85.5992745,47.4761837 L85.5992745,48.7895435 L79.13713,48.7895435 L79.13713,48.1583472 L83.3049246,42.6743419 L79.5356726,42.6743419 L79.5356726,41.3609822 L85.614183,41.3609822 L85.614183,42.0651621 Z M93.6470947,48.7895435 L91.9362568,48.7895435 L91.9362568,47.6140032 L91.9071332,47.6140032 C91.4104719,48.5133842 90.6381766,48.9634215 89.591114,48.9634215 C87.8059069,48.9634215 86.91313,47.9094052 86.91313,45.8005058 L86.91313,41.3609822 L88.6246613,41.3609822 L88.6246613,45.6266277 C88.6246613,46.9614839 89.1481926,47.6287387 90.1962953,47.6287387 C90.7024912,47.6287387 91.1190626,47.4453259 91.4463563,47.0778071 C91.7736501,46.7102883 91.9369502,46.22922 91.9369502,45.6340821 L91.9369502,41.3609822 L93.6486549,41.3609822 L93.6470947,48.7895435 Z M100.264218,42.9645431 C100.057579,42.8047071 99.7601027,42.7253092 99.3714414,42.7253092 C98.8650722,42.7253092 98.44174,42.9498077 98.1024848,43.3998449 C97.7632295,43.8491887 97.5931685,44.4613156 97.5931685,45.2348388 L97.5931685,48.7895435 L95.8821573,48.7895435 L95.8821573,41.3611555 L97.5931685,41.3611555 L97.5931685,42.8917328 L97.6222921,42.8917328 C97.7894061,42.3694053 98.0463178,41.9620142 98.3930273,41.6695593 C98.7399101,41.3772778 99.1271846,41.230617 99.5548507,41.230617 C99.8642889,41.230617 100.100918,41.2770769 100.262658,41.3684365 L100.264392,42.9645431 L100.264218,42.9645431 Z M107.884372,45.532321 L102.735217,45.532321 C102.754632,46.2188185 102.969592,46.748427 103.38079,47.1211466 C103.791294,47.4931727 104.35539,47.6795325 105.073772,47.6795325 C105.880392,47.6795325 106.620443,47.4423789 107.293926,46.968765 L107.293926,48.3247708 C106.605708,48.7505379 105.695596,48.9634215 104.564456,48.9634215 C103.452732,48.9634215 102.581624,48.6260669 101.9494,47.9513578 C101.317175,47.2766487 101.001843,46.3278606 101.001843,45.1044736 C101.001843,43.9486962 101.349419,43.0064958 102.046132,42.2787391 C102.741978,41.5509825 103.606324,41.1871041 104.639345,41.1871041 C105.672193,41.1871041 106.470665,41.5135371 107.036321,42.1660565 C107.601804,42.8187491 107.884892,43.7254112 107.884892,44.8863893 L107.884199,45.532321 L107.884372,45.532321 Z M106.231955,44.3427388 C106.224501,43.7380663 106.082177,43.2679196 105.796835,42.9321252 C105.511319,42.5963309 105.118151,42.428347 104.616289,42.428347 C104.124828,42.428347 103.707563,42.6051721 103.366055,42.9579555 C103.024546,43.310739 102.814093,43.7727379 102.73539,44.3434322 L106.231955,44.3434322 L106.231955,44.3427388 Z" id="Shape" fill="#00ADEF"></path>
            </g>
        </g>
    </g>
</svg>