<?xml version="1.0" encoding="UTF-8"?>
<svg width="77px" height="64px" viewBox="0 0 77 64" version="1.1" xmlns="http://www.w3.org/2000/svg" xmlns:xlink="http://www.w3.org/1999/xlink">
    <!-- Generator: Sketch 48.1 (47250) - http://www.bohemiancoding.com/sketch -->
    <title>Page 1@2x</title>
    <desc>Created with Sketch.</desc>
    <defs>
        <path d="M5.33076923,19.4755254 C8.62615385,22.2437966 14.4975385,27.4668475 24.1774615,24.4848814 C22.4096923,24.0005424 18.2393077,22.3826441 15.442,17.7632542 C11.0492308,19.2981695 6.31938462,19.52 5.33076923,19.4755254 Z" id="path-1"></path>
    </defs>
    <g id="Artboard" stroke="none" stroke-width="1" fill="none" fill-rule="evenodd" transform="translate(-326.000000, -28.000000)">
        <g id="Page-1" transform="translate(326.000000, 28.000000)">
            <polygon id="Fill-1" fill="#17A0DB" points="24.7692308 19.5254237 30.6923077 19.5254237 30.6923077 14.1016949 24.7692308 14.1016949"></polygon>
            <polygon id="Fill-2" fill="#17A0DB" points="17.7692308 19.5254237 23.6923077 19.5254237 23.6923077 14.1016949 17.7692308 14.1016949"></polygon>
            <polygon id="Fill-3" fill="#17A0DB" points="31.7692308 19.5254237 37.6923077 19.5254237 37.6923077 14.1016949 31.7692308 14.1016949"></polygon>
            <polygon id="Fill-4" fill="#17A0DB" points="38.7692308 19.5254237 44.6923077 19.5254237 44.6923077 14.1016949 38.7692308 14.1016949"></polygon>
            <polygon id="Fill-5" fill="#17A0DB" points="45.7692308 19.5254237 51.6923077 19.5254237 51.6923077 14.1016949 45.7692308 14.1016949"></polygon>
            <polygon id="Fill-6" fill="#17A0DB" points="24.7692308 13.0169492 30.6923077 13.0169492 30.6923077 7.59322034 24.7692308 7.59322034"></polygon>
            <polygon id="Fill-7" fill="#17A0DB" points="31.7692308 13.0169492 37.6923077 13.0169492 37.6923077 7.59322034 31.7692308 7.59322034"></polygon>
            <polygon id="Fill-8" fill="#17A0DB" points="38.7692308 13.0169492 44.6923077 13.0169492 44.6923077 7.59322034 38.7692308 7.59322034"></polygon>
            <polygon id="Fill-9" fill="#17A0DB" points="38.7692308 6.50847458 44.6923077 6.50847458 44.6923077 1.08474576 38.7692308 1.08474576"></polygon>
            <path d="M69.3343,15.7762169 C68.1184538,14.9518102 64.9248385,14.6003525 62.6024538,15.2300475 C62.4775308,12.9000136 61.2843,10.9366237 59.1024538,9.22381017 L58.2947615,8.67818305 L57.7563,9.4971661 C56.6982231,11.114522 56.2523769,13.2704542 56.4101462,15.2300475 C56.5345308,16.4373695 56.9513,17.7949288 57.7563,18.7793356 C57.1397615,19.2615051 55.2233769,20.1938441 52.6409154,20.1444881 L14.1409154,20.1444881 C13.4565308,24.2394034 14.6287615,39.8006237 32.4486077,39.8006237 C45.6775308,39.8006237 56.5479923,33.8079458 61.5255308,21.2362847 C63.1629923,21.2634034 67.4863,21.531878 69.6024538,17.4141831 C69.6536077,17.3447593 70.1409154,16.3218441 70.1409154,16.3218441 L69.3343,15.7762169 Z" id="Fill-10" fill="#17A0DB"></path>
            <g id="Group-14" transform="translate(12.923077, 14.644068)">
                <path d="M56.2556077,1.03576949 C55.0440692,0.216786441 51.7314538,-0.166671186 49.5178385,0.481464407 L49.0240692,1.18275254 C41.8086846,16.2254644 32.7786846,22.5847864 20.4414538,22.8679051 C6.98637692,22.8304814 3.61991538,15.6847186 2.67222308,5.9415322 L0.518376923,5.9415322 C0.241069231,10.0364475 1.27868462,25.0965153 19.2363769,25.0965153 C32.4830692,25.0965153 43.3869154,19.1173966 48.4209923,6.55929492 C50.0633,6.58641356 54.6402231,6.58641356 56.6594538,2.46437966 L57.0692231,1.59115932 L56.2556077,1.03576949 Z" id="Fill-21" fill="#1497D0"></path>
                <mask id="mask-2" fill="white">
                    <use xlink:href="#path-1"></use>
                </mask>
                <g id="Clip-13"></g>
                <polygon id="Fill-12" fill="#FEFEFE" mask="url(#mask-2)" points="2.63846154 28.0884068 26.8692308 28.0884068 26.8692308 15.0513898 2.63846154 15.0513898"></polygon>
            </g>
            <g id="Group-58">
                <path d="M27.8746462,31.4518237 C25.7611846,32.666739 23.3111846,33.3495864 20.7131077,33.3495864 C19.3965692,33.3495864 18.1209538,33.1727729 16.9078,32.8424678 L17.6761846,34.1436203 C18.6588769,34.3388746 19.6738769,34.4413831 20.7131077,34.4413831 C23.5131077,34.4413831 26.1246462,33.7042983 28.3996462,32.4074847 C28.2111846,32.0934508 28.0361846,31.7794169 27.8746462,31.4518237" id="Fill-15" fill="#0075B2"></path>
                <path d="M31.9719615,30.7439186 C33.0058077,30.7439186 33.8441923,29.8940203 33.8441923,28.8456136 C33.8441923,27.7972068 33.0058077,26.9473085 31.9719615,26.9473085 C30.9381154,26.9473085 30.0997308,27.7972068 30.0997308,28.8456136 C30.0997308,29.8940203 30.9381154,30.7439186 31.9719615,30.7439186" id="Fill-17" fill="#FEFEFE"></path>
                <path d="M32.2538462,28.3122441 C32.2538462,28.1381424 32.3394615,27.9900746 32.4643846,27.890278 C32.3173846,27.8138034 32.1536923,27.7660746 31.9776154,27.7660746 C31.3869231,27.7660746 30.9076923,28.2520407 30.9076923,28.8508203 C30.9076923,29.4501424 31.3869231,29.9355661 31.9776154,29.9355661 C32.5683077,29.9355661 33.047,29.4501424 33.047,28.8508203 C33.047,28.8296678 33.0421538,28.8096 33.0410769,28.7884475 C32.9656923,28.8291254 32.8833077,28.8584136 32.7923077,28.8584136 C32.4950769,28.8584136 32.2538462,28.6138034 32.2538462,28.3122441" id="Fill-19" fill="#4D5C64"></path>
                <polygon id="Fill-23" fill="#006FB6" points="18.8461538 18.440678 19.3846154 18.440678 19.3846154 15.1864407 18.8461538 15.1864407"></polygon>
                <polygon id="Fill-25" fill="#006FB6" points="20.4615385 18.440678 21 18.440678 21 15.1864407 20.4615385 15.1864407"></polygon>
                <polygon id="Fill-26" fill="#006FB6" points="22.0769231 18.440678 22.6153846 18.440678 22.6153846 15.1864407 22.0769231 15.1864407"></polygon>
                <polygon id="Fill-27" fill="#006FB6" points="25.8461538 18.440678 26.3846154 18.440678 26.3846154 15.1864407 25.8461538 15.1864407"></polygon>
                <polygon id="Fill-28" fill="#006FB6" points="27.4615385 18.440678 28 18.440678 28 15.1864407 27.4615385 15.1864407"></polygon>
                <polygon id="Fill-29" fill="#006FB6" points="29.0769231 18.440678 29.6153846 18.440678 29.6153846 15.1864407 29.0769231 15.1864407"></polygon>
                <polygon id="Fill-30" fill="#006FB6" points="32.8461538 18.440678 33.3846154 18.440678 33.3846154 15.1864407 32.8461538 15.1864407"></polygon>
                <polygon id="Fill-31" fill="#006FB6" points="34.4615385 18.440678 35 18.440678 35 15.1864407 34.4615385 15.1864407"></polygon>
                <polygon id="Fill-32" fill="#006FB6" points="36.0769231 18.440678 36.6153846 18.440678 36.6153846 15.1864407 36.0769231 15.1864407"></polygon>
                <polygon id="Fill-33" fill="#006FB6" points="39.8461538 18.440678 40.3846154 18.440678 40.3846154 15.1864407 39.8461538 15.1864407"></polygon>
                <polygon id="Fill-34" fill="#006FB6" points="41.4615385 18.440678 42 18.440678 42 15.1864407 41.4615385 15.1864407"></polygon>
                <polygon id="Fill-35" fill="#006FB6" points="43.0769231 18.440678 43.6153846 18.440678 43.6153846 15.1864407 43.0769231 15.1864407"></polygon>
                <polygon id="Fill-36" fill="#006FB6" points="46.8461538 18.440678 47.3846154 18.440678 47.3846154 15.1864407 46.8461538 15.1864407"></polygon>
                <polygon id="Fill-37" fill="#006FB6" points="48.4615385 18.440678 49 18.440678 49 15.1864407 48.4615385 15.1864407"></polygon>
                <polygon id="Fill-38" fill="#006FB6" points="50.0769231 18.440678 50.6153846 18.440678 50.6153846 15.1864407 50.0769231 15.1864407"></polygon>
                <polygon id="Fill-39" fill="#006FB6" points="27.4615385 11.9322034 28 11.9322034 28 8.6779661 27.4615385 8.6779661"></polygon>
                <polygon id="Fill-40" fill="#006FB6" points="29.0769231 11.9322034 29.6153846 11.9322034 29.6153846 8.6779661 29.0769231 8.6779661"></polygon>
                <polygon id="Fill-41" fill="#006FB6" points="32.8461538 11.9322034 33.3846154 11.9322034 33.3846154 8.6779661 32.8461538 8.6779661"></polygon>
                <polygon id="Fill-42" fill="#006FB6" points="34.4615385 11.9322034 35 11.9322034 35 8.6779661 34.4615385 8.6779661"></polygon>
                <polygon id="Fill-43" fill="#006FB6" points="36.0769231 11.9322034 36.6153846 11.9322034 36.6153846 8.6779661 36.0769231 8.6779661"></polygon>
                <polygon id="Fill-44" fill="#006FB6" points="39.8461538 11.9322034 40.3846154 11.9322034 40.3846154 8.6779661 39.8461538 8.6779661"></polygon>
                <polygon id="Fill-45" fill="#006FB6" points="41.4615385 11.9322034 42 11.9322034 42 8.6779661 41.4615385 8.6779661"></polygon>
                <polygon id="Fill-46" fill="#006FB6" points="43.0769231 11.9322034 43.6153846 11.9322034 43.6153846 8.6779661 43.0769231 8.6779661"></polygon>
                <polygon id="Fill-47" fill="#006FB6" points="41.4615385 5.42372881 42 5.42372881 42 2.16949153 41.4615385 2.16949153"></polygon>
                <polygon id="Fill-48" fill="#006FB6" points="39.8461538 5.42372881 40.3846154 5.42372881 40.3846154 2.16949153 39.8461538 2.16949153"></polygon>
                <polygon id="Fill-49" fill="#006FB6" points="43.0769231 5.42372881 43.6153846 5.42372881 43.6153846 2.16949153 43.0769231 2.16949153"></polygon>
                <polygon id="Fill-50" fill="#006FB6" points="25.8461538 11.9322034 26.3846154 11.9322034 26.3846154 8.6779661 25.8461538 8.6779661"></polygon>
                <path d="M10.2205385,59.0535051 C10.0083846,59.5470644 9.71923077,59.979878 9.35307692,60.3530305 C8.98692308,60.7256407 8.55669231,61.0212339 8.06346154,61.2381831 C7.56969231,61.4562169 7.04146154,61.5646915 6.47823077,61.5646915 C5.90746154,61.5646915 5.37546154,61.4562169 4.88169231,61.2381831 C4.38792308,61.0212339 3.95984615,60.7278102 3.598,60.3584542 C3.23507692,59.9901831 2.94807692,59.5568271 2.73592308,59.0594712 C2.52376923,58.5626576 2.41769231,58.0338441 2.41769231,57.4746576 C2.41769231,56.9154712 2.52376923,56.3872 2.73592308,55.8898441 C2.94807692,55.3930305 3.23507692,54.9596746 3.598,54.5903186 C3.95984615,54.2220475 4.38792308,53.9286237 4.88169231,53.7105898 C5.37546154,53.4936407 5.90746154,53.3846237 6.47823077,53.3846237 C7.04146154,53.3846237 7.56969231,53.4936407 8.06346154,53.7105898 C8.55669231,53.9286237 8.98692308,54.2236746 9.35307692,54.5962847 C9.71923077,54.9694373 10.0083846,55.4027932 10.2205385,55.8958102 C10.4326923,56.3893695 10.5387692,56.9154712 10.5387692,57.4746576 C10.5387692,58.0338441 10.4326923,58.5604881 10.2205385,59.0535051 M11.7422308,45.355878 C11.3949231,45.355878 11.1073846,45.470861 10.8801538,45.6997424 C10.6523846,45.9291661 10.5387692,46.2182508 10.5387692,46.567539 L10.5387692,52.3823186 C9.36653846,51.4266576 8.01284615,50.9493695 6.47823077,50.9493695 C4.68892308,50.9493695 3.16184615,51.5861153 1.897,52.8601492 C0.632153846,54.1347254 0,55.6723525 0,57.4746576 C0,59.2769627 0.632153846,60.8151322 1.897,62.0891661 C3.16184615,63.3632 4.68892308,63.9999458 6.47823077,63.9999458 C8.25192308,63.9999458 9.779,63.3632 11.0594615,62.0891661 C12.3243077,60.8303186 12.9564615,59.2921492 12.9564615,57.4746576 L12.9564615,46.567539 C12.9564615,46.2182508 12.8390769,45.9291661 12.6037692,45.6997424 C12.3684615,45.470861 12.0814615,45.355878 11.7422308,45.355878" id="Fill-51" fill="#006FB6"></path>
                <path d="M24.3417462,59.0535051 C24.1295923,59.5470644 23.8399,59.979878 23.4737462,60.3530305 C23.1075923,60.7256407 22.6773615,61.0212339 22.1841308,61.2381831 C21.6903615,61.4562169 21.1621308,61.5646915 20.5989,61.5646915 C20.0281308,61.5646915 19.4961308,61.4562169 19.0029,61.2381831 C18.5091308,61.0212339 18.0810538,60.7278102 17.7186692,60.3584542 C17.3557462,59.9901831 17.0687462,59.5568271 16.8565923,59.0594712 C16.6444385,58.5626576 16.5383615,58.0338441 16.5383615,57.4746576 C16.5383615,56.9154712 16.6444385,56.3872 16.8565923,55.8898441 C17.0687462,55.3930305 17.3557462,54.9596746 17.7186692,54.5903186 C18.0810538,54.2220475 18.5091308,53.9286237 19.0029,53.7105898 C19.4961308,53.4936407 20.0281308,53.3846237 20.5989,53.3846237 C21.1621308,53.3846237 21.6903615,53.4936407 22.1841308,53.7105898 C22.6773615,53.9286237 23.1075923,54.2236746 23.4737462,54.5962847 C23.8399,54.9694373 24.1295923,55.4027932 24.3417462,55.8958102 C24.5533615,56.3893695 24.6594385,56.9154712 24.6594385,57.4746576 C24.6594385,58.0338441 24.5533615,58.5604881 24.3417462,59.0535051 M25.1801308,52.8601492 C23.8996692,51.5861153 22.3725923,50.9493695 20.5989,50.9493695 C18.8095923,50.9493695 17.2825154,51.5861153 16.0182077,52.8601492 C14.7528231,54.1347254 14.1206692,55.6723525 14.1206692,57.4746576 C14.1206692,59.2769627 14.7528231,60.8151322 16.0182077,62.0891661 C17.2825154,63.3632 18.8095923,63.9999458 20.5989,63.9999458 C22.3725923,63.9999458 23.8996692,63.3632 25.1801308,62.0891661 C26.4449769,60.8303186 27.0776692,59.2921492 27.0776692,57.4746576 C27.0695923,56.5737763 26.9096692,55.738522 26.5973615,54.9694373 C26.2850538,54.2003525 25.8128231,53.4974373 25.1801308,52.8601492" id="Fill-52" fill="#006FB6"></path>
                <path d="M51.6860615,52.1610305 C51.6860615,51.9977763 51.6532154,51.8426576 51.5875231,51.6951322 C51.5218308,51.5476068 51.4351385,51.4174373 51.3274462,51.3046237 C51.2192154,51.1923525 51.0916,51.1050305 50.9456769,51.0421153 C50.7992154,50.9802847 50.6409077,50.9493695 50.4707538,50.9493695 C50.2322154,50.9493695 50.0157538,51.0117424 49.8235231,51.1354034 L42.9053692,55.6685559 L42.9053692,46.5794712 C42.9053692,46.2377763 42.7879846,45.9486915 42.5526769,45.7111322 C42.3179077,45.4746576 42.0336,45.355878 41.7024462,45.355878 C41.3626769,45.355878 41.0756769,45.4746576 40.8403692,45.7111322 C40.6056,45.9486915 40.4876769,46.2377763 40.4876769,46.5794712 L40.4876769,62.7763525 C40.4876769,63.1104542 40.6056,63.3984542 40.8403692,63.6387254 C41.0756769,63.879539 41.3626769,63.9999458 41.7024462,63.9999458 C42.0336,63.9999458 42.3179077,63.879539 42.5526769,63.6387254 C42.7879846,63.3984542 42.9053692,63.1104542 42.9053692,62.7763525 L42.9053692,58.5697085 L44.3166769,57.6379119 L49.6614462,63.6853695 C49.8773692,63.8952678 50.1476769,63.9999458 50.4707538,63.9999458 C50.6409077,63.9999458 50.7992154,63.9690305 50.9456769,63.9066576 C51.0916,63.8448271 51.2192154,63.7575051 51.3274462,63.6446915 C51.4351385,63.5324203 51.5218308,63.4017085 51.5875231,63.2541831 C51.6532154,63.1072 51.6860615,62.951539 51.6860615,62.7882847 C51.6860615,62.4699119 51.5740615,62.1862508 51.3506,61.9373017 L46.3762923,56.2977085 L51.2235231,53.1280814 C51.5315231,52.9181831 51.6860615,52.5965559 51.6860615,52.1610305" id="Fill-53" fill="#006FB6"></path>
                <path d="M31.8160769,54.5789288 C32.186,54.2101153 32.6178462,53.918861 33.1116154,53.7051661 C33.6053846,53.4914712 34.1336154,53.3846237 34.6968462,53.3846237 C35.2056923,53.3846237 35.6757692,53.4703186 36.1081538,53.6411661 C36.5394615,53.8120136 36.9524615,54.0647593 37.3455385,54.3983186 C37.5770769,54.5848949 37.8393077,54.6781831 38.1322308,54.6781831 C38.4795385,54.6781831 38.7665385,54.5615729 38.9943077,54.3283525 C39.2215385,54.0951322 39.3356923,53.803878 39.3356923,53.4545898 C39.3356923,53.0895729 39.1967692,52.7825898 38.9189231,52.5336407 C37.7310769,51.4776407 36.3240769,50.9493695 34.6968462,50.9493695 C32.907,50.9493695 31.3799231,51.5861153 30.1156154,52.8601492 C28.8507692,54.1347254 28.2180769,55.6723525 28.2180769,57.4746576 C28.2180769,59.2769627 28.8507692,60.8151322 30.1156154,62.0891661 C31.3799231,63.3632 32.907,63.9999458 34.6968462,63.9999458 C36.316,63.9999458 37.7235385,63.4716746 38.9189231,62.4151322 C39.1736154,62.1585898 39.3006923,61.8602847 39.3006923,61.5180475 C39.3006923,61.1682169 39.1865385,60.8791322 38.9598462,60.6497085 C38.7320769,60.4208271 38.4445385,60.3063864 38.0977692,60.3063864 C37.8048462,60.3139797 37.5501538,60.3991322 37.3342308,60.5623864 C36.9486923,60.8964881 36.5394615,61.1470644 36.1081538,61.3141153 C35.6757692,61.4817085 35.2056923,61.5646915 34.6968462,61.5646915 C34.1336154,61.5646915 33.6053846,61.4578441 33.1116154,61.2441492 C32.6178462,61.0309966 32.186,60.7392 31.8160769,60.3703864 C31.4456154,60.0015729 31.1543077,59.5682169 30.9426923,59.070861 C30.7305385,58.5740475 30.6244615,58.0419797 30.6244615,57.4746576 C30.6244615,56.907878 30.7305385,56.3758102 30.9426923,55.8784542 C31.1543077,55.3810983 31.4456154,54.9482847 31.8160769,54.5789288" id="Fill-54" fill="#006FB6"></path>
                <path d="M76.2533692,51.7648271 C76.0374462,51.5549288 75.7655231,51.3905898 75.4376,51.2696407 C75.1102154,51.1492339 74.7516,51.0657085 74.3617538,51.0190644 C73.9724462,50.971878 73.6079077,50.9490983 73.2686769,50.9490983 C72.4970615,50.9490983 71.7722923,51.0738441 71.0938308,51.3222508 C70.4148308,51.5712 69.7864462,51.9280814 69.2081385,52.3939797 L69.2081385,52.1607593 C69.2081385,51.8272 69.0902154,51.5419119 68.8554462,51.3043525 C68.6201385,51.067878 68.3363692,50.9490983 68.0052154,50.9490983 C67.6654462,50.9490983 67.3784462,51.067878 67.1431385,51.3043525 C66.9083692,51.5419119 66.7904462,51.8272 66.7904462,52.1607593 L66.7904462,62.7880136 C66.7904462,63.1221153 66.9083692,63.4079458 67.1431385,63.6444203 C67.3784462,63.8819797 67.6654462,64.0002169 68.0052154,64.0002169 C68.3363692,64.0002169 68.6201385,63.8819797 68.8554462,63.6444203 C69.0902154,63.4079458 69.2081385,63.1221153 69.2081385,62.7880136 L69.2081385,57.4743864 C69.2081385,56.9076068 69.3142154,56.375539 69.5263692,55.8781831 C69.7379846,55.3813695 70.0271385,54.9480136 70.3932923,54.5786576 C70.7605231,54.2103864 71.1902154,53.9191322 71.6839846,53.7048949 C72.1772154,53.4917424 72.7049077,53.3843525 73.2686769,53.3843525 C73.8394462,53.3843525 74.3676769,53.4819797 74.8533692,53.6756068 C75.0461385,53.7618441 75.2157538,53.8041492 75.3627538,53.8041492 C75.5312923,53.8041492 75.6901385,53.7732339 75.8371385,53.710861 C75.9830615,53.6490305 76.1101385,53.5617085 76.2189077,53.4483525 C76.3266,53.3360814 76.4132923,53.2059119 76.4789846,53.0583864 C76.5446769,52.910861 76.5775231,52.7514034 76.5775231,52.5805559 C76.5775231,52.2469966 76.4687538,51.9747254 76.2533692,51.7648271" id="Fill-55" fill="#006FB6"></path>
                <path d="M55.3606308,56.2627254 C55.4839385,55.835878 55.6729385,55.4453695 55.9276308,55.0917424 C56.1817846,54.7381153 56.4822462,54.4354712 56.8300923,54.1827254 C57.1768615,53.930522 57.5586308,53.7341831 57.9748615,53.5942508 C58.3910923,53.4543186 58.8197077,53.3843525 59.2590923,53.3843525 C59.6990154,53.3843525 60.1249385,53.4543186 60.5368615,53.5942508 C60.9498615,53.7341831 61.3278615,53.930522 61.6708615,54.1827254 C62.0138615,54.4354712 62.3148615,54.7381153 62.5733231,55.0917424 C62.8317846,55.4453695 63.0261692,55.835878 63.1575538,56.2627254 L55.3606308,56.2627254 Z M63.8403231,52.8604203 C62.5593231,51.5863864 61.0322462,50.9490983 59.2590923,50.9490983 C57.4692462,50.9490983 55.9421692,51.5863864 54.6778615,52.8604203 C53.4130154,54.1344542 52.7803231,55.6720814 52.7803231,57.4743864 C52.7803231,59.2772339 53.4130154,60.8154034 54.6778615,62.0888949 C55.9421692,63.3634712 57.4692462,64.0002169 59.2590923,64.0002169 C60.8863231,64.0002169 62.2976308,63.4719458 63.4935538,62.4154034 C63.7245538,62.1745898 63.8403231,61.8833356 63.8403231,61.5410983 C63.8403231,61.1918102 63.7261692,60.9027254 63.4984,60.6733017 C63.2711692,60.4444203 62.9841692,60.3294373 62.6374,60.3294373 C62.3364,60.3375729 62.0698615,60.4384542 61.8388615,60.6326237 C61.4759385,60.9434034 61.0823231,61.1766237 60.6590923,61.3317424 C60.2342462,61.4874034 59.7684769,61.5644203 59.2590923,61.5644203 C58.8110923,61.5644203 58.3814,61.4944542 57.9689385,61.3550644 C57.5564769,61.2151322 57.1779385,61.0193356 56.8349385,60.7665898 C56.4924769,60.5143864 56.1936308,60.2112 55.9389385,59.8575729 C55.6847846,59.5044881 55.4909385,59.1139797 55.3606308,58.6865898 L64.5230923,58.6865898 C64.8617846,58.6865898 65.1493231,58.5721492 65.3840923,58.3427254 C65.6199385,58.1133017 65.7373231,57.8242169 65.7373231,57.4743864 C65.7373231,56.5735051 65.5790154,55.7366237 65.2634769,54.9632 C64.9468615,54.190861 64.4724769,53.4895729 63.8403231,52.8604203 Z" id="Fill-56" fill="#006FB6"></path>
                <path d="M65.4746615,20.1345627 C64.2965077,20.5521898 63.2276615,20.6449356 61.6268154,20.6118508 C61.6101231,20.6113085 61.5105077,20.609139 61.3462769,20.6064271 L60.9763538,20.5999186 L60.8379692,20.9486644 C56.1275077,32.8472407 45.8407385,39.1707661 32.2607385,39.1707661 C24.4977385,39.1707661 19.4318923,36.2094102 16.6372769,31.1572068 C15.5587385,29.2073763 14.8727385,27.0194441 14.5518154,24.7805288 C14.3288923,23.2271729 14.2982,21.7199186 14.4215077,20.6064271 L16.6922,20.6064271 L16.6922,20.6102237 L23.6922,20.6102237 L24.7691231,20.6102237 L30.6922,20.6102237 L31.7691231,20.6102237 L37.6922,20.6102237 L38.7691231,20.6102237 L44.6922,20.6102237 L45.7691231,20.6102237 L52.7691231,20.6102237 L52.7691231,20.5993763 C54.9019692,20.5755119 56.8964308,19.9105627 57.8974308,19.1273763 L58.3384308,18.7818847 L57.9830462,18.3469017 C57.3158923,17.5306305 56.8867385,16.3352407 56.7580462,15.0894102 C56.6045846,13.1883932 57.0622769,11.1745627 58.0169692,9.71503729 L58.2560462,9.35110508 L58.5995846,9.58324068 C60.6898923,11.2288 61.7630462,13.0555119 61.8766615,15.1756475 L61.9127385,15.8476475 L62.5535077,15.6735458 C64.6508154,15.1045966 67.7205846,15.3822915 68.8470462,16.1459525 L69.2632769,16.4279864 C69.2438923,16.4675797 69.2250462,16.5066305 69.1986615,16.5614102 C69.1318923,16.6980881 69.0753538,16.8130712 69.0317385,16.8998508 C69.0080462,16.9470373 68.9886615,16.9839186 68.9369692,17.0777492 C68.1373538,18.6332746 66.9640462,19.6073763 65.4746615,20.1345627 Z M17.7691231,19.5140881 L23.6922,19.5140881 L23.6922,14.1017492 L17.7691231,14.1017492 L17.7691231,19.5140881 Z M24.7691231,19.5140881 L30.6922,19.5140881 L30.6922,14.1017492 L24.7691231,14.1017492 L24.7691231,19.5140881 Z M24.7691231,13.0170034 L30.6922,13.0170034 L30.6922,7.59327458 L24.7691231,7.59327458 L24.7691231,13.0170034 Z M31.7691231,19.5140881 L37.6922,19.5140881 L37.6922,14.1017492 L31.7691231,14.1017492 L31.7691231,19.5140881 Z M31.7691231,13.0170034 L37.6922,13.0170034 L37.6922,7.59327458 L31.7691231,7.59327458 L31.7691231,13.0170034 Z M38.7691231,19.5140881 L44.6922,19.5140881 L44.6922,14.1017492 L38.7691231,14.1017492 L38.7691231,19.5140881 Z M38.7691231,13.0170034 L44.6922,13.0170034 L44.6922,7.59327458 L38.7691231,7.59327458 L38.7691231,13.0170034 Z M38.7691231,6.50852881 L44.6922,6.50852881 L44.6922,1.0848 L38.7691231,1.0848 L38.7691231,6.50852881 Z M45.7691231,19.5140881 L51.6922,19.5140881 L51.6922,14.1017492 L45.7691231,14.1017492 L45.7691231,19.5140881 Z M69.8825077,17.6016814 C69.9342,17.5149017 70.0106615,17.3608678 70.1727385,17.0273085 C70.2314308,16.9063593 70.2933538,16.7772746 70.3552769,16.6481898 C70.3768154,16.6026305 70.3972769,16.5608678 70.4382,16.4757153 L70.6417385,16.0477831 L69.4452769,15.2380203 C68.1518923,14.3610034 65.2022,14.0306983 62.8916615,14.4765288 C62.5938923,12.2826305 61.3726615,10.3783593 59.2290462,8.69646102 L57.9572,7.8368 L57.1198923,9.11029153 C56.0252,10.7840542 55.5125846,13.0419525 55.6854308,15.1902915 C55.8130462,16.4225627 56.1910462,17.6114441 56.7978923,18.552461 C55.8814308,19.0671729 54.3775077,19.4885966 52.7691231,19.5097492 L52.7691231,13.0170034 L45.7691231,13.0170034 L45.7691231,7.59327458 L45.7691231,6.50852881 L45.7691231,5.42372881e-05 L37.6922,5.42372881e-05 L37.6922,6.50852881 L31.7691231,6.50852881 L30.6922,6.50852881 L23.6922,6.50852881 L23.6922,13.0170034 L16.6922,13.0170034 L16.6922,19.5140881 L13.9530462,19.5140881 L13.4980462,19.5140881 L13.4221231,19.969139 C13.2121231,21.2231051 13.2153538,23.0530712 13.4862,24.9378169 C13.8254308,27.3031051 14.5512769,29.6179525 15.6982,31.6914441 C18.6845077,37.0907661 24.1111231,40.2625627 32.2607385,40.2625627 C46.1282769,40.2625627 56.7510462,33.8137492 61.6962769,21.7052746 C63.3671231,21.7356475 64.5221231,21.6282576 65.8295077,21.1650712 C67.5622769,20.5521898 68.9509692,19.4029017 69.8825077,17.6016814 Z" id="Fill-57" fill="#006FB6"></path>
            </g>
        </g>
    </g>
</svg>