<?xml version="1.0" encoding="UTF-8"?>
<svg width="77px" height="64px" viewBox="0 0 77 64" version="1.1" xmlns="http://www.w3.org/2000/svg" xmlns:xlink="http://www.w3.org/1999/xlink">
    <!-- Generator: Sketch 48.1 (47250) - http://www.bohemiancoding.com/sketch -->
    <title>Group 10@2x</title>
    <desc>Created with Sketch.</desc>
    <defs></defs>
    <g id="Artboard" stroke="none" stroke-width="1" fill="none" fill-rule="evenodd" transform="translate(-552.000000, -164.000000)">
        <g id="Group-10" transform="translate(552.000000, 164.000000)" fill="#1869A5">
            <path d="M76.6739972,51.7646255 C76.4568993,51.5552321 76.1835695,51.3905219 75.854245,51.2695443 C75.524446,51.1495174 75.1640398,51.0653797 74.7725518,51.0187951 C74.3805892,50.9722104 74.0140141,50.9493934 73.6730636,50.9493934 C72.89768,50.9493934 72.168326,51.0736984 71.4861878,51.3218332 C70.8038123,51.5709187 70.1719743,51.9276719 69.5899621,52.3942319 L69.5899621,52.1610707 C69.5899621,51.8273722 69.4720412,51.5416845 69.2352503,51.3044828 C68.9991711,51.0675188 68.7132662,50.9493934 68.3803828,50.9493934 C68.0387205,50.9493934 67.7502057,51.0675188 67.513652,51.3044828 C67.2773356,51.5416845 67.1587029,51.8273722 67.1587029,52.1610707 L67.1587029,62.7883226 C67.1587029,63.1224965 67.2773356,63.4077089 67.513652,63.6446729 C67.7502057,63.8816369 68.0387205,64 68.3803828,64 C68.7132662,64 68.9991711,63.8816369 69.2352503,63.6446729 C69.4720412,63.4077089 69.5899621,63.1224965 69.5899621,62.7883226 L69.5899621,57.4745778 C69.5899621,56.9077182 69.6972061,56.3753217 69.909796,55.8778637 C70.1233349,55.3811188 70.4139851,54.948309 70.7822211,54.5789589 C71.1509317,54.2100842 71.5829921,53.9189299 72.0795887,53.7052582 C72.5754735,53.4913489 73.1067109,53.384632 73.6730636,53.384632 C74.2470088,53.384632 74.7780089,53.4816042 75.2667757,53.676024 C75.4601471,53.7615877 75.6312155,53.8038942 75.7785574,53.8038942 C75.9484394,53.8038942 76.1076446,53.7734715 76.255461,53.7104871 C76.4023283,53.6489288 76.5306889,53.5614636 76.6395938,53.4488047 C76.7477868,53.3363835 76.8348632,53.2061365 76.900823,53.0580637 C76.9667828,52.9111794 77,52.7516981 77,52.580333 C77,52.2466345 76.8910951,51.9744943 76.6739972,51.7646255 Z M55.6665126,56.2626628 C55.7898906,55.8357949 55.9804148,55.4457669 56.2359497,55.0916282 C56.4919592,54.7384402 56.7942354,54.4351643 57.1434901,54.1825137 C57.4927449,53.9308137 57.8764032,53.7340171 58.2951767,53.5940254 C58.713713,53.454509 59.1441126,53.384632 59.5863754,53.384632 C60.028401,53.384632 60.4564279,53.454509 60.8711679,53.5940254 C61.2861452,53.7340171 61.6664818,53.9308137 62.0109912,54.1825137 C62.3564498,54.4351643 62.6592005,54.7384402 62.9182944,55.0916282 C63.1788119,55.4457669 63.3743186,55.8357949 63.5064755,56.2626628 L55.6665126,56.2626628 Z M64.1928845,52.8600788 C62.9050075,51.5861301 61.3694254,50.9493934 59.5863754,50.9493934 C57.7867168,50.9493934 56.2511347,51.5861301 54.9798663,52.8600788 C53.7074116,54.1347406 53.0717774,55.6722731 53.0717774,57.4745778 C53.0717774,59.2768826 53.7074116,60.8151281 54.9798663,62.0890769 C56.2511347,63.3632633 57.7867168,64 59.5863754,64 C61.2220836,64 62.6411683,63.4718817 63.843867,62.4151697 C64.0763872,62.1748783 64.1928845,61.883724 64.1928845,61.5414691 C64.1928845,61.1916085 64.078048,60.9023556 63.8490868,60.6729973 C63.6206002,60.4441143 63.3320854,60.3293163 62.9828306,60.3293163 C62.6805544,60.3373974 62.412919,60.4388854 62.1803988,60.6323545 C61.8154845,60.943236 61.4197257,61.1763972 60.9935969,61.3316003 C60.5662818,61.487041 60.098157,61.5647614 59.5863754,61.5647614 C59.1360456,61.5647614 58.7039851,61.4946467 58.2887706,61.3546549 C57.8745051,61.2149009 57.493694,61.019055 57.1489473,60.7664044 C56.8039633,60.5139914 56.5033479,60.2114286 56.247813,59.8575275 C55.9918036,59.5041018 55.7974831,59.1138361 55.6665126,58.6864929 L64.878819,58.6864929 C65.2195322,58.6864929 65.5085215,58.5716949 65.7450752,58.3425743 C65.9818661,58.1136913 66.1004989,57.823963 66.1004989,57.4745778 C66.1004989,56.573782 65.9408192,55.7369213 65.623358,54.9635203 C65.3049478,54.1905947 64.8280442,53.4894475 64.1928845,52.8600788 Z M51.9711029,52.1610707 C51.9711029,51.9977866 51.9385975,51.8428212 51.8726377,51.6952238 C51.8064407,51.5476264 51.7193643,51.4176171 51.6104594,51.3044828 C51.5017918,51.1925369 51.3739057,51.1050718 51.2265639,51.0423251 C51.0794593,50.9802914 50.9202542,50.9493934 50.7496603,50.9493934 C50.5093104,50.9493934 50.2922125,51.0119024 50.0983666,51.1352568 L43.1426921,55.668708 L43.1426921,46.579464 C43.1426921,46.2379221 43.0240593,45.9486692 42.7875057,45.7112299 C42.5514265,45.4747412 42.2657589,45.3559027 41.9324009,45.3559027 C41.5907386,45.3559027 41.3022238,45.4747412 41.0661447,45.7112299 C40.829591,45.9486692 40.7109583,46.2379221 40.7109583,46.579464 L40.7109583,62.7764388 C40.7109583,63.110375 40.829591,63.3984395 41.0661447,63.638731 C41.3022238,63.8794978 41.5907386,64 41.9324009,64 C42.2657589,64 42.5514265,63.8794978 42.7875057,63.638731 C43.0240593,63.3984395 43.1426921,63.110375 43.1426921,62.7764388 L43.1426921,58.5697935 L44.5615396,57.6380996 L49.936077,63.6853156 C50.1524631,63.8954221 50.4241321,64 50.7496603,64 C50.9202542,64 51.0794593,63.9688643 51.2265639,63.9068306 C51.3739057,63.8447969 51.5017918,63.7575695 51.6104594,63.6446729 C51.7193643,63.5324893 51.8064407,63.401767 51.8726377,63.2544072 C51.9385975,63.1070475 51.9711029,62.9508937 51.9711029,62.7883226 C51.9711029,62.4700731 51.8584018,62.1862868 51.6339487,61.937439 L46.6321553,56.297839 L51.5060626,53.1281785 C51.815694,52.918072 51.9711029,52.5967327 51.9711029,52.1610707 Z M31.9916895,54.5789589 C32.3637218,54.2100842 32.7979176,53.9189299 33.294277,53.7052582 C33.7908736,53.4913489 34.322111,53.384632 34.8884637,53.384632 C35.400008,53.384632 35.8726408,53.4704334 36.3075484,53.6406101 C36.7412697,53.8119752 37.1564843,54.0648635 37.5517686,54.3983244 C37.784526,54.5849008 38.0481279,54.6783079 38.3428116,54.6783079 C38.6920664,54.6783079 38.9805812,54.5616085 39.2095424,54.3284473 C39.4382663,54.0950485 39.5528655,53.8038942 39.5528655,53.454509 C39.5528655,53.0896748 39.4131162,52.7825961 39.1338547,52.5337483 C37.9394603,51.4777493 36.5246463,50.9493934 34.8884637,50.9493934 C33.0885678,50.9493934 31.553223,51.5861301 30.2819546,52.8600788 C29.0099744,54.1347406 28.3738657,55.6722731 28.3738657,57.4745778 C28.3738657,59.2768826 29.0099744,60.8151281 30.2819546,62.0890769 C31.553223,63.3632633 33.0885678,64 34.8884637,64 C36.5165793,64 37.9318678,63.4718817 39.1338547,62.4151697 C39.3898641,62.1584786 39.517513,61.8601939 39.517513,61.5181767 C39.517513,61.1680785 39.4029137,60.8790633 39.1749016,60.6499426 C38.9459404,60.420822 38.6567138,60.3057863 38.3081709,60.3057863 C38.0134872,60.3138673 37.7574777,60.3991934 37.5403798,60.5622398 C37.152688,60.8966514 36.7412697,61.1469252 36.3075484,61.3142499 C35.8726408,61.4813368 35.400008,61.5647614 34.8884637,61.5647614 C34.322111,61.5647614 33.7908736,61.4578068 33.294277,61.2443728 C32.7979176,61.0304635 32.3637218,60.7393092 31.9916895,60.3704345 C31.6191828,60.0015598 31.3263972,59.5682746 31.11357,59.0708166 C30.9002684,58.5740717 30.7934989,58.0419129 30.7934989,57.4745778 C30.7934989,56.9077182 30.9002684,56.3753217 31.11357,55.8778637 C31.3263972,55.3811188 31.6191828,54.948309 31.9916895,54.5789589 Z M24.4760685,59.0537039 C24.2627669,59.5471213 23.9716422,59.9799311 23.6034061,60.3526087 C23.2351701,60.7257616 22.8023979,61.0211941 22.3065131,61.2381932 C21.8101537,61.456143 21.2789163,61.5647614 20.7125637,61.5647614 C20.1386185,61.5647614 19.6038221,61.456143 19.1077,61.2381932 C18.6113407,61.0211941 18.1809411,60.7279007 17.8165014,60.3585506 C17.4515871,59.9896759 17.162835,59.5568661 16.9495333,59.0594081 C16.7362317,58.5626632 16.6296995,58.0338318 16.6296995,57.4745778 C16.6296995,56.9155615 16.7362317,56.3872055 16.9495333,55.8897476 C17.162835,55.3930026 17.4515871,54.9597175 17.8165014,54.5901297 C18.1809411,54.2222057 18.6113407,53.9286746 19.1077,53.7104871 C19.6038221,53.4937257 20.1386185,53.384632 20.7125637,53.384632 C21.2789163,53.384632 21.8101537,53.4937257 22.3065131,53.7104871 C22.8023979,53.9286746 23.2351701,54.2236318 23.6034061,54.5963093 C23.9716422,54.9694622 24.2627669,55.402272 24.4760685,55.8959272 C24.6888957,56.3893446 24.7956651,56.9155615 24.7956651,57.4745778 C24.7956651,58.0338318 24.6888957,58.5605241 24.4760685,59.0537039 Z M25.3190728,52.8600788 C24.0314331,51.5861301 22.4960882,50.9493934 20.7125637,50.9493934 C18.9133796,50.9493934 17.3777975,51.5861301 16.1067664,52.8600788 C14.8343117,54.1347406 14.1986775,55.6722731 14.1986775,57.4745778 C14.1986775,59.2768826 14.8343117,60.8151281 16.1067664,62.0890769 C17.3777975,63.3632633 18.9133796,64 20.7125637,64 C22.4960882,64 24.0314331,63.3632633 25.3190728,62.0890769 C26.5910529,60.8303395 27.2271617,59.2923316 27.2271617,57.4745778 C27.2190946,56.573782 27.0582286,55.738585 26.7440892,54.9694622 C26.4301869,54.2003394 25.9551815,53.4975285 25.3190728,52.8600788 Z M10.2769165,59.0537039 C10.0636149,59.5471213 9.77296468,59.9799311 9.40472867,60.3526087 C9.03649266,60.7257616 8.60395771,61.0211941 8.10807288,61.2381932 C7.61147625,61.456143 7.08047613,61.5647614 6.51388619,61.5647614 C5.94017829,61.5647614 5.40514465,61.456143 4.90878529,61.2381932 C4.41218867,61.0211941 3.9817891,60.7279007 3.61782388,60.3585506 C3.25290958,59.9896759 2.96439477,59.5568661 2.75109312,59.0594081 C2.53779146,58.5626632 2.431022,58.0338318 2.431022,57.4745778 C2.431022,56.9155615 2.53779146,56.3872055 2.75109312,55.8897476 C2.96439477,55.3930026 3.25290958,54.9597175 3.61782388,54.5901297 C3.9817891,54.2222057 4.41218867,53.9286746 4.90878529,53.7104871 C5.40514465,53.4937257 5.94017829,53.384632 6.51388619,53.384632 C7.08047613,53.384632 7.61147625,53.4937257 8.10807288,53.7104871 C8.60395771,53.9286746 9.03649266,54.2236318 9.40472867,54.5963093 C9.77296468,54.9694622 10.0636149,55.402272 10.2769165,55.8959272 C10.4904555,56.3893446 10.5969877,56.9155615 10.5969877,57.4745778 C10.5969877,58.0338318 10.4904555,58.5605241 10.2769165,59.0537039 Z M11.8070415,45.3559027 C11.4577868,45.3559027 11.1687974,45.4709384 10.9403108,45.6998214 C10.7111123,45.9291797 10.5969877,46.2184326 10.5969877,46.5675801 L10.5969877,52.382348 C9.4182528,51.4266488 8.0570608,50.9493934 6.51388619,50.9493934 C4.71470214,50.9493934 3.17935729,51.5861301 1.90737711,52.8600788 C0.635634192,54.1347406 0,55.6722731 0,57.4745778 C0,59.2768826 0.635634192,60.8151281 1.90737711,62.0890769 C3.17935729,63.3632633 4.71470214,64 6.51388619,64 C8.29741073,64 9.83299284,63.3632633 11.1203953,62.0890769 C12.3923755,60.8303395 13.0280097,59.2923316 13.0280097,57.4745778 L13.0280097,46.5675801 C13.0280097,46.2184326 12.9098514,45.9291797 12.6732978,45.6998214 C12.4367441,45.4709384 12.1482293,45.3559027 11.8070415,45.3559027 Z M45.5649352,18.4406457 L51.5205358,18.4406457 L51.5205358,13.0168565 L45.5649352,13.0168565 L45.5649352,18.4406457 Z M38.5262178,18.4406457 L44.4820556,18.4406457 L44.4820556,13.0168565 L38.5262178,13.0168565 L38.5262178,18.4406457 Z M31.4877377,18.4406457 L37.4433382,18.4406457 L37.4433382,13.0168565 L31.4877377,13.0168565 L31.4877377,18.4406457 Z M24.4490203,18.4406457 L30.4048581,18.4406457 L30.4048581,13.0168565 L24.4490203,13.0168565 L24.4490203,18.4406457 Z M17.4103029,18.4406457 L23.3661407,18.4406457 L23.3661407,13.0168565 L17.4103029,13.0168565 L17.4103029,18.4406457 Z M24.4490203,11.9320987 L30.4048581,11.9320987 L30.4048581,6.50854709 L24.4490203,6.50854709 L24.4490203,11.9320987 Z M31.4877377,11.9320987 L37.4433382,11.9320987 L37.4433382,6.50854709 L31.4877377,6.50854709 L31.4877377,11.9320987 Z M38.5262178,11.9320987 L44.4820556,11.9320987 L44.4820556,6.50854709 L38.5262178,6.50854709 L38.5262178,11.9320987 Z M38.5262178,5.42378924 L44.4820556,5.42378924 L44.4820556,0 L38.5262178,0 L38.5262178,5.42378924 Z M70.6218297,16.0819391 L69.4193683,15.2781155 C68.1182044,14.4065539 65.1303204,14.087116 62.8300316,14.5215896 C62.5339243,12.3515986 61.3264804,10.4699097 59.1305884,8.76909308 L57.8678616,7.92581507 L57.0255692,9.19168279 C55.9469604,10.8209587 55.4081305,13.0781772 55.584656,15.2429393 C55.6641399,16.0042188 55.9139805,17.3663457 56.6962447,18.5637624 C55.914455,18.9846884 54.369145,19.5643826 52.3326955,19.5254036 L13.163251,19.5254036 L13.0866142,19.9772276 C12.7183782,22.1526852 12.7264452,28.9409781 17.1260588,34.1587014 C20.4705529,38.1245799 25.4846841,40.135565 32.0289402,40.135565 C46.216229,40.135565 56.7123788,33.5935055 61.6275702,21.7018119 C63.5603348,21.7405533 67.7222084,21.7132204 69.8599702,17.6216108 C69.9154904,17.5277284 70.043851,17.282208 70.4173068,16.5071433 L70.6218297,16.0819391 Z" id="vertical"></path>
        </g>
    </g>
</svg>