<?xml version="1.0" encoding="UTF-8"?>
<svg width="120px" height="120px" viewBox="0 0 120 120" version="1.1" xmlns="http://www.w3.org/2000/svg" xmlns:xlink="http://www.w3.org/1999/xlink">
    <!-- Generator: Sketch 48.1 (47250) - http://www.bohemiancoding.com/sketch -->
    <title>Artboard 2@2x</title>
    <desc>Created with Sketch.</desc>
    <defs>
        <path d="M8.30769231,30.4305085 C13.4433566,34.7559322 22.5935664,42.9169492 37.6791608,38.2576271 C34.9241958,37.5008475 28.4248951,34.9728814 24.0654545,27.7550847 C17.2195804,30.1533898 9.84839161,30.5 8.30769231,30.4305085 Z" id="path-1"></path>
    </defs>
    <g id="Page-1" stroke="none" stroke-width="1" fill="none" fill-rule="evenodd">
        <g id="Artboard-2">
            <g id="Page-1" transform="translate(1.000000, 10.000000)">
                <polygon id="Fill-1" fill="#17A0DB" points="38.6013986 30.5084746 47.8321678 30.5084746 47.8321678 22.0338983 38.6013986 22.0338983"></polygon>
                <polygon id="Fill-2" fill="#17A0DB" points="27.6923077 30.5084746 36.9230769 30.5084746 36.9230769 22.0338983 27.6923077 22.0338983"></polygon>
                <polygon id="Fill-3" fill="#17A0DB" points="49.5104895 30.5084746 58.7412587 30.5084746 58.7412587 22.0338983 49.5104895 22.0338983"></polygon>
                <polygon id="Fill-4" fill="#17A0DB" points="60.4195804 30.5084746 69.6503497 30.5084746 69.6503497 22.0338983 60.4195804 22.0338983"></polygon>
                <polygon id="Fill-5" fill="#17A0DB" points="71.3286713 30.5084746 80.5594406 30.5084746 80.5594406 22.0338983 71.3286713 22.0338983"></polygon>
                <polygon id="Fill-6" fill="#17A0DB" points="38.6013986 20.3389831 47.8321678 20.3389831 47.8321678 11.8644068 38.6013986 11.8644068"></polygon>
                <polygon id="Fill-7" fill="#17A0DB" points="49.5104895 20.3389831 58.7412587 20.3389831 58.7412587 11.8644068 49.5104895 11.8644068"></polygon>
                <polygon id="Fill-8" fill="#17A0DB" points="60.4195804 20.3389831 69.6503497 20.3389831 69.6503497 11.8644068 60.4195804 11.8644068"></polygon>
                <polygon id="Fill-9" fill="#17A0DB" points="60.4195804 10.1694915 69.6503497 10.1694915 69.6503497 1.69491525 60.4195804 1.69491525"></polygon>
                <path d="M108.053455,24.650339 C106.158629,23.3622034 101.181566,22.8130508 97.5622657,23.7969492 C97.3675804,20.1562712 95.508,17.0884746 92.1077203,14.4122034 L90.848979,13.559661 L90.0098182,14.839322 C88.3608671,17.3664407 87.666042,20.7350847 87.9119161,23.7969492 C88.1057622,25.6833898 88.7552727,27.8045763 90.0098182,29.3427119 C89.048979,30.0961017 86.0624056,31.5528814 82.0377902,31.4757627 L22.0377902,31.4757627 C20.9712168,37.8740678 22.7980699,62.1884746 50.5692587,62.1884746 C71.1857622,62.1884746 88.1267413,52.8249153 95.8839441,33.1816949 C98.4358322,33.2240678 105.173455,33.6435593 108.471357,27.209661 C108.551077,27.1011864 109.310517,25.5028814 109.310517,25.5028814 L108.053455,24.650339 Z" id="Fill-10" fill="#17A0DB"></path>
                <g id="Group-14" transform="translate(20.139860, 22.881356)">
                    <path d="M87.6710769,1.61838983 C85.782965,0.338728814 80.6204476,-0.260423729 77.1706573,0.752288136 L76.4011469,1.84805085 C65.1563916,25.3522881 51.0836643,35.2887288 31.8568112,35.7311017 C10.8878601,35.6726271 5.64142657,24.5073729 4.1645035,9.28364407 L0.80786014,9.28364407 C0.375692308,15.6819492 1.99275524,39.2133051 29.9787692,39.2133051 C50.622965,39.2133051 67.615972,29.8709322 75.4612867,10.2488983 C78.0207273,10.2912712 85.1535944,10.2912712 88.3004476,3.85059322 L88.939049,2.48618644 L87.6710769,1.61838983 Z" id="Fill-21" fill="#1497D0"></path>
                    <mask id="mask-2" fill="white">
                        <use xlink:href="#path-1"></use>
                    </mask>
                    <g id="Clip-13"></g>
                    <polygon id="Fill-12" fill="#FEFEFE" mask="url(#mask-2)" points="4.11188811 43.8881356 41.8741259 43.8881356 41.8741259 23.5177966 4.11188811 23.5177966"></polygon>
                </g>
                <g id="Group-58">
                    <path d="M43.441007,49.1434746 C40.1473007,51.0417797 36.3291189,52.1087288 32.2801678,52.1087288 C30.2284196,52.1087288 28.2404476,51.8324576 26.3498182,51.3163559 L27.5473007,53.3494068 C29.0787692,53.6544915 30.6605874,53.814661 32.2801678,53.814661 C36.6438042,53.814661 40.7137343,52.6629661 44.2591888,50.6366949 C43.9654825,50.1460169 43.6927552,49.655339 43.441007,49.1434746" id="Fill-15" fill="#0075B2"></path>
                    <path d="M49.8264336,48.0373729 C51.4376224,48.0373729 52.7441958,46.7094068 52.7441958,45.0712712 C52.7441958,43.4331356 51.4376224,42.1051695 49.8264336,42.1051695 C48.2152448,42.1051695 46.9086713,43.4331356 46.9086713,45.0712712 C46.9086713,46.7094068 48.2152448,48.0373729 49.8264336,48.0373729" id="Fill-17" fill="#FEFEFE"></path>
                    <path d="M50.2657343,44.2378814 C50.2657343,43.9658475 50.3991608,43.7344915 50.5938462,43.5785593 C50.3647552,43.4590678 50.1096503,43.3844915 49.8352448,43.3844915 C48.9146853,43.3844915 48.1678322,44.1438136 48.1678322,45.0794068 C48.1678322,46.0158475 48.9146853,46.774322 49.8352448,46.774322 C50.7558042,46.774322 51.5018182,46.0158475 51.5018182,45.0794068 C51.5018182,45.0463559 51.4942657,45.015 51.4925874,44.9819492 C51.3751049,45.0455085 51.2467133,45.0912712 51.1048951,45.0912712 C50.6416783,45.0912712 50.2657343,44.7090678 50.2657343,44.2378814" id="Fill-19" fill="#4D5C64"></path>
                    <polygon id="Fill-23" fill="#006FB6" points="29.3706294 28.8135593 30.2097902 28.8135593 30.2097902 23.7288136 29.3706294 23.7288136"></polygon>
                    <polygon id="Fill-25" fill="#006FB6" points="31.8881119 28.8135593 32.7272727 28.8135593 32.7272727 23.7288136 31.8881119 23.7288136"></polygon>
                    <polygon id="Fill-26" fill="#006FB6" points="34.4055944 28.8135593 35.2447552 28.8135593 35.2447552 23.7288136 34.4055944 23.7288136"></polygon>
                    <polygon id="Fill-27" fill="#006FB6" points="40.2797203 28.8135593 41.1188811 28.8135593 41.1188811 23.7288136 40.2797203 23.7288136"></polygon>
                    <polygon id="Fill-28" fill="#006FB6" points="42.7972028 28.8135593 43.6363636 28.8135593 43.6363636 23.7288136 42.7972028 23.7288136"></polygon>
                    <polygon id="Fill-29" fill="#006FB6" points="45.3146853 28.8135593 46.1538462 28.8135593 46.1538462 23.7288136 45.3146853 23.7288136"></polygon>
                    <polygon id="Fill-30" fill="#006FB6" points="51.1888112 28.8135593 52.027972 28.8135593 52.027972 23.7288136 51.1888112 23.7288136"></polygon>
                    <polygon id="Fill-31" fill="#006FB6" points="53.7062937 28.8135593 54.5454545 28.8135593 54.5454545 23.7288136 53.7062937 23.7288136"></polygon>
                    <polygon id="Fill-32" fill="#006FB6" points="56.2237762 28.8135593 57.0629371 28.8135593 57.0629371 23.7288136 56.2237762 23.7288136"></polygon>
                    <polygon id="Fill-33" fill="#006FB6" points="62.0979021 28.8135593 62.9370629 28.8135593 62.9370629 23.7288136 62.0979021 23.7288136"></polygon>
                    <polygon id="Fill-34" fill="#006FB6" points="64.6153846 28.8135593 65.4545455 28.8135593 65.4545455 23.7288136 64.6153846 23.7288136"></polygon>
                    <polygon id="Fill-35" fill="#006FB6" points="67.1328671 28.8135593 67.972028 28.8135593 67.972028 23.7288136 67.1328671 23.7288136"></polygon>
                    <polygon id="Fill-36" fill="#006FB6" points="73.006993 28.8135593 73.8461538 28.8135593 73.8461538 23.7288136 73.006993 23.7288136"></polygon>
                    <polygon id="Fill-37" fill="#006FB6" points="75.5244755 28.8135593 76.3636364 28.8135593 76.3636364 23.7288136 75.5244755 23.7288136"></polygon>
                    <polygon id="Fill-38" fill="#006FB6" points="78.041958 28.8135593 78.8811189 28.8135593 78.8811189 23.7288136 78.041958 23.7288136"></polygon>
                    <polygon id="Fill-39" fill="#006FB6" points="42.7972028 18.6440678 43.6363636 18.6440678 43.6363636 13.559322 42.7972028 13.559322"></polygon>
                    <polygon id="Fill-40" fill="#006FB6" points="45.3146853 18.6440678 46.1538462 18.6440678 46.1538462 13.559322 45.3146853 13.559322"></polygon>
                    <polygon id="Fill-41" fill="#006FB6" points="51.1888112 18.6440678 52.027972 18.6440678 52.027972 13.559322 51.1888112 13.559322"></polygon>
                    <polygon id="Fill-42" fill="#006FB6" points="53.7062937 18.6440678 54.5454545 18.6440678 54.5454545 13.559322 53.7062937 13.559322"></polygon>
                    <polygon id="Fill-43" fill="#006FB6" points="56.2237762 18.6440678 57.0629371 18.6440678 57.0629371 13.559322 56.2237762 13.559322"></polygon>
                    <polygon id="Fill-44" fill="#006FB6" points="62.0979021 18.6440678 62.9370629 18.6440678 62.9370629 13.559322 62.0979021 13.559322"></polygon>
                    <polygon id="Fill-45" fill="#006FB6" points="64.6153846 18.6440678 65.4545455 18.6440678 65.4545455 13.559322 64.6153846 13.559322"></polygon>
                    <polygon id="Fill-46" fill="#006FB6" points="67.1328671 18.6440678 67.972028 18.6440678 67.972028 13.559322 67.1328671 13.559322"></polygon>
                    <polygon id="Fill-47" fill="#006FB6" points="64.6153846 8.47457627 65.4545455 8.47457627 65.4545455 3.38983051 64.6153846 3.38983051"></polygon>
                    <polygon id="Fill-48" fill="#006FB6" points="62.0979021 8.47457627 62.9370629 8.47457627 62.9370629 3.38983051 62.0979021 3.38983051"></polygon>
                    <polygon id="Fill-49" fill="#006FB6" points="67.1328671 8.47457627 67.972028 8.47457627 67.972028 3.38983051 67.1328671 3.38983051"></polygon>
                    <polygon id="Fill-50" fill="#006FB6" points="40.2797203 18.6440678 41.1188811 18.6440678 41.1188811 13.559322 40.2797203 13.559322"></polygon>
                    <path d="M15.9281119,92.2711017 C15.5974825,93.0422881 15.1468531,93.7185593 14.5762238,94.3016102 C14.0055944,94.8838136 13.3351049,95.345678 12.5664336,95.684661 C11.7969231,96.025339 10.9737063,96.1948305 10.0959441,96.1948305 C9.20643357,96.1948305 8.37734266,96.025339 7.60783217,95.684661 C6.83832168,95.345678 6.17118881,94.8872034 5.60727273,94.3100847 C5.04167832,93.734661 4.59440559,93.0575424 4.26377622,92.2804237 C3.93314685,91.5041525 3.76783217,90.6778814 3.76783217,89.8041525 C3.76783217,88.9304237 3.93314685,88.105 4.26377622,87.3278814 C4.59440559,86.5516102 5.04167832,85.8744915 5.60727273,85.2973729 C6.17118881,84.7219492 6.83832168,84.2634746 7.60783217,83.9227966 C8.37734266,83.5838136 9.20643357,83.4134746 10.0959441,83.4134746 C10.9737063,83.4134746 11.7969231,83.5838136 12.5664336,83.9227966 C13.3351049,84.2634746 14.0055944,84.7244915 14.5762238,85.3066949 C15.1468531,85.8897458 15.5974825,86.5668644 15.9281119,87.3372034 C16.2587413,88.1083898 16.4240559,88.9304237 16.4240559,89.8041525 C16.4240559,90.6778814 16.2587413,91.5007627 15.9281119,92.2711017 M18.2995804,70.8685593 C17.7583217,70.8685593 17.3102098,71.0482203 16.9560839,71.4058475 C16.6011189,71.764322 16.4240559,72.2160169 16.4240559,72.7617797 L16.4240559,81.8473729 C14.5972028,80.3541525 12.4875524,79.6083898 10.0959441,79.6083898 C7.30741259,79.6083898 4.92755245,80.6033051 2.95636364,82.5939831 C0.985174825,84.5855085 0,86.9880508 0,89.8041525 C0,92.6202542 0.985174825,95.0236441 2.95636364,97.014322 C4.92755245,99.005 7.30741259,99.9999153 10.0959441,99.9999153 C12.8601399,99.9999153 15.24,99.005 17.2355245,97.014322 C19.2067133,95.0473729 20.1918881,92.6439831 20.1918881,89.8041525 L20.1918881,72.7617797 C20.1918881,72.2160169 20.008951,71.764322 19.6422378,71.4058475 C19.2755245,71.0482203 18.8282517,70.8685593 18.2995804,70.8685593" id="Fill-51" fill="#006FB6"></path>
                    <path d="M37.9351888,92.2711017 C37.6045594,93.0422881 37.1530909,93.7185593 36.5824615,94.3016102 C36.0118322,94.8838136 35.3413427,95.345678 34.5726713,95.684661 C33.8031608,96.025339 32.9799441,96.1948305 32.1021818,96.1948305 C31.2126713,96.1948305 30.3835804,96.025339 29.6149091,95.684661 C28.8453986,95.345678 28.1782657,94.8872034 27.6135105,94.3100847 C27.0479161,93.734661 26.6006434,93.0575424 26.270014,92.2804237 C25.9393846,91.5041525 25.7740699,90.6778814 25.7740699,89.8041525 C25.7740699,88.9304237 25.9393846,88.105 26.270014,87.3278814 C26.6006434,86.5516102 27.0479161,85.8744915 27.6135105,85.2973729 C28.1782657,84.7219492 28.8453986,84.2634746 29.6149091,83.9227966 C30.3835804,83.5838136 31.2126713,83.4134746 32.1021818,83.4134746 C32.9799441,83.4134746 33.8031608,83.5838136 34.5726713,83.9227966 C35.3413427,84.2634746 36.0118322,84.7244915 36.5824615,85.3066949 C37.1530909,85.8897458 37.6045594,86.5668644 37.9351888,87.3372034 C38.264979,88.1083898 38.4302937,88.9304237 38.4302937,89.8041525 C38.4302937,90.6778814 38.264979,91.5007627 37.9351888,92.2711017 M39.2417622,82.5939831 C37.2462378,80.6033051 34.8663776,79.6083898 32.1021818,79.6083898 C29.3136503,79.6083898 26.9337902,80.6033051 24.9634406,82.5939831 C22.9914126,84.5855085 22.0062378,86.9880508 22.0062378,89.8041525 C22.0062378,92.6202542 22.9914126,95.0236441 24.9634406,97.014322 C26.9337902,99.005 29.3136503,99.9999153 32.1021818,99.9999153 C34.8663776,99.9999153 37.2462378,99.005 39.2417622,97.014322 C41.212951,95.0473729 42.198965,92.6439831 42.198965,89.8041525 C42.1863776,88.3965254 41.9371469,87.0914407 41.4504336,85.8897458 C40.9637203,84.6880508 40.2277762,83.5897458 39.2417622,82.5939831" id="Fill-52" fill="#006FB6"></path>
                    <path d="M80.5497063,81.5016102 C80.5497063,81.2465254 80.4985175,81.0041525 80.3961399,80.7736441 C80.2937622,80.5431356 80.1586573,80.3397458 79.9908252,80.1634746 C79.8221538,79.9880508 79.6232727,79.8516102 79.3958601,79.7533051 C79.1676084,79.6566949 78.9208951,79.6083898 78.6557203,79.6083898 C78.283972,79.6083898 77.9466294,79.7058475 77.647049,79.8990678 L66.8655105,86.9821186 L66.8655105,72.7804237 C66.8655105,72.2465254 66.6825734,71.7948305 66.3158601,71.4236441 C65.949986,71.0541525 65.5069091,70.8685593 64.9908252,70.8685593 C64.4613147,70.8685593 64.014042,71.0541525 63.6473287,71.4236441 C63.2814545,71.7948305 63.0976783,72.2465254 63.0976783,72.7804237 L63.0976783,98.0880508 C63.0976783,98.6100847 63.2814545,99.0600847 63.6473287,99.4355085 C64.014042,99.8117797 64.4613147,99.9999153 64.9908252,99.9999153 C65.5069091,99.9999153 65.949986,99.8117797 66.3158601,99.4355085 C66.6825734,99.0600847 66.8655105,98.6100847 66.8655105,98.0880508 L66.8655105,91.5151695 L69.064951,90.0592373 L77.3944615,99.5083898 C77.730965,99.8363559 78.1522238,99.9999153 78.6557203,99.9999153 C78.9208951,99.9999153 79.1676084,99.9516102 79.3958601,99.8541525 C79.6232727,99.7575424 79.8221538,99.6211017 79.9908252,99.4448305 C80.1586573,99.2694068 80.2937622,99.0651695 80.3961399,98.834661 C80.4985175,98.605 80.5497063,98.3617797 80.5497063,98.1066949 C80.5497063,97.6092373 80.3751608,97.1660169 80.0269091,96.7770339 L72.2747413,87.9651695 L79.8288671,83.0126271 C80.3088671,82.684661 80.5497063,82.1821186 80.5497063,81.5016102" id="Fill-53" fill="#006FB6"></path>
                    <path d="M49.5834965,85.2795763 C50.16,84.7033051 50.833007,84.2482203 51.6025175,83.914322 C52.372028,83.5804237 53.1952448,83.4134746 54.073007,83.4134746 C54.866014,83.4134746 55.5986014,83.5473729 56.2724476,83.814322 C56.9446154,84.0812712 57.5882517,84.4761864 58.2008392,84.9973729 C58.5616783,85.2888983 58.9703497,85.434661 59.4268531,85.434661 C59.9681119,85.434661 60.4153846,85.2524576 60.7703497,84.8880508 C61.1244755,84.5236441 61.3023776,84.0685593 61.3023776,83.5227966 C61.3023776,82.9524576 61.0858741,82.4727966 60.6528671,82.0838136 C58.8016783,80.4338136 56.608951,79.6083898 54.073007,79.6083898 C51.2836364,79.6083898 48.9037762,80.6033051 46.9334266,82.5939831 C44.9622378,84.5855085 43.9762238,86.9880508 43.9762238,89.8041525 C43.9762238,92.6202542 44.9622378,95.0236441 46.9334266,97.014322 C48.9037762,99.005 51.2836364,99.9999153 54.073007,99.9999153 C56.5963636,99.9999153 58.7899301,99.1744915 60.6528671,97.5236441 C61.0497902,97.1227966 61.2478322,96.6566949 61.2478322,96.1219492 C61.2478322,95.575339 61.0699301,95.1236441 60.7166434,94.7651695 C60.3616783,94.4075424 59.9135664,94.2287288 59.3731469,94.2287288 C58.9166434,94.2405932 58.5197203,94.3736441 58.1832168,94.6287288 C57.5823776,95.1507627 56.9446154,95.5422881 56.2724476,95.8033051 C55.5986014,96.0651695 54.866014,96.1948305 54.073007,96.1948305 C53.1952448,96.1948305 52.372028,96.0278814 51.6025175,95.6939831 C50.833007,95.3609322 50.16,94.905 49.5834965,94.3287288 C49.0061538,93.7524576 48.5521678,93.075339 48.2223776,92.2982203 C47.8917483,91.5219492 47.7264336,90.6905932 47.7264336,89.8041525 C47.7264336,88.9185593 47.8917483,88.0872034 48.2223776,87.3100847 C48.5521678,86.5329661 49.0061538,85.8566949 49.5834965,85.2795763" id="Fill-54" fill="#006FB6"></path>
                    <path d="M118.83642,80.8825424 C118.499916,80.5545763 118.07614,80.2977966 117.565091,80.1088136 C117.054881,79.920678 116.496,79.7901695 115.888448,79.7172881 C115.281734,79.6435593 114.713622,79.6079661 114.184951,79.6079661 C112.982434,79.6079661 111.852923,79.8028814 110.79558,80.1910169 C109.737399,80.58 108.758098,81.1376271 107.856839,81.8655932 L107.856839,81.5011864 C107.856839,80.98 107.673063,80.5342373 107.307189,80.1630508 C106.940476,79.7935593 106.498238,79.6079661 105.982154,79.6079661 C105.452643,79.6079661 105.005371,79.7935593 104.638657,80.1630508 C104.272783,80.5342373 104.089007,80.98 104.089007,81.5011864 L104.089007,98.1062712 C104.089007,98.6283051 104.272783,99.0749153 104.638657,99.4444068 C105.005371,99.8155932 105.452643,100.000339 105.982154,100.000339 C106.498238,100.000339 106.940476,99.8155932 107.307189,99.4444068 C107.673063,99.0749153 107.856839,98.6283051 107.856839,98.1062712 L107.856839,89.8037288 C107.856839,88.9181356 108.022154,88.0867797 108.352783,87.309661 C108.682573,86.5333898 109.133203,85.8562712 109.703832,85.2791525 C110.27614,84.7037288 110.94579,84.2486441 111.715301,83.9138983 C112.483972,83.5808475 113.30635,83.4130508 114.184951,83.4130508 C115.074462,83.4130508 115.897678,83.5655932 116.654601,83.8681356 C116.955021,84.0028814 117.219357,84.0689831 117.448448,84.0689831 C117.711105,84.0689831 117.958657,84.020678 118.187748,83.9232203 C118.415161,83.8266102 118.613203,83.6901695 118.782713,83.5130508 C118.950545,83.3376271 119.08565,83.1342373 119.188028,82.9037288 C119.290406,82.6732203 119.341594,82.4240678 119.341594,82.1571186 C119.341594,81.6359322 119.172084,81.2105085 118.83642,80.8825424" id="Fill-55" fill="#006FB6"></path>
                    <path d="M86.2763077,87.9105085 C86.4684755,87.2435593 86.763021,86.6333898 87.1599441,86.0808475 C87.556028,85.5283051 88.0242797,85.0554237 88.5663776,84.6605085 C89.1067972,84.2664407 89.7017622,83.959661 90.3504336,83.7410169 C90.9991049,83.5223729 91.6670769,83.4130508 92.3518322,83.4130508 C93.0374266,83.4130508 93.7012028,83.5223729 94.3431608,83.7410169 C94.9867972,83.959661 95.5758881,84.2664407 96.1104336,84.6605085 C96.644979,85.0554237 97.1140699,85.5283051 97.5168671,86.0808475 C97.9196643,86.6333898 98.2226014,87.2435593 98.4273566,87.9105085 L86.2763077,87.9105085 Z M99.4914126,82.5944068 C97.495049,80.6037288 95.1151888,79.6079661 92.3518322,79.6079661 C89.5624615,79.6079661 87.1826014,80.6037288 85.2122517,82.5944068 C83.2410629,84.5850847 82.255049,86.9876271 82.255049,89.8037288 C82.255049,92.620678 83.2410629,95.0240678 85.2122517,97.0138983 C87.1826014,99.0054237 89.5624615,100.000339 92.3518322,100.000339 C94.8877762,100.000339 97.0872168,99.1749153 98.950993,97.5240678 C99.310993,97.1477966 99.4914126,96.6927119 99.4914126,96.1579661 C99.4914126,95.6122034 99.3135105,95.1605085 98.9585455,94.8020339 C98.6044196,94.4444068 98.1571469,94.2647458 97.6167273,94.2647458 C97.1476364,94.2774576 96.7322517,94.4350847 96.3722517,94.7384746 C95.8066573,95.2240678 95.1932308,95.5884746 94.5336503,95.8308475 C93.8715524,96.0740678 93.1456783,96.1944068 92.3518322,96.1944068 C91.6536503,96.1944068 90.984,96.0850847 90.3412028,95.8672881 C89.6984056,95.6486441 89.1084755,95.3427119 88.5739301,94.9477966 C88.0402238,94.5537288 87.5744895,94.08 87.1775664,93.5274576 C86.7814825,92.9757627 86.4793846,92.3655932 86.2763077,91.6977966 L100.555469,91.6977966 C101.083301,91.6977966 101.531413,91.5189831 101.897287,91.1605085 C102.264839,90.8020339 102.447776,90.350339 102.447776,89.8037288 C102.447776,88.3961017 102.201063,87.0884746 101.709315,85.88 C101.215888,84.6732203 100.476587,83.5774576 99.4914126,82.5944068 Z" id="Fill-56" fill="#006FB6"></path>
                    <path d="M102.038434,31.4602542 C100.20235,32.1127966 98.5366154,32.2577119 96.0417902,32.2060169 C96.0157762,32.2051695 95.8605315,32.2017797 95.6045874,32.1975424 L95.0280839,32.1873729 L94.8124196,32.7322881 C87.4714406,51.3238136 71.4401119,61.204322 50.2764755,61.204322 C38.1782937,61.204322 30.2834685,56.5772034 25.9282238,48.6831356 C24.2473846,45.6365254 23.1782937,42.2178814 22.6781538,38.7195763 C22.3307413,36.2924576 22.2829091,33.9373729 22.4750769,32.1975424 L26.0138182,32.1975424 L26.0138182,32.2034746 L36.9229091,32.2034746 L38.6012308,32.2034746 L47.832,32.2034746 L49.5103217,32.2034746 L58.7410909,32.2034746 L60.4194126,32.2034746 L69.6501818,32.2034746 L71.3285035,32.2034746 L82.2375944,32.2034746 L82.2375944,32.1865254 C85.5615105,32.1492373 88.6697622,31.1102542 90.2297622,29.8865254 L90.917035,29.3466949 L90.3631888,28.6670339 C89.3234685,27.3916102 88.6546573,25.5238136 88.4540979,23.5772034 C88.2149371,20.6068644 88.9282238,17.4602542 90.4160559,15.1797458 L90.7886434,14.6111017 L91.324028,14.9738136 C94.5816503,17.545 96.2540979,20.3992373 96.4311608,23.7119492 L96.4873846,24.7619492 L97.485986,24.4899153 C100.754517,23.6009322 105.538573,24.0348305 107.294098,25.2280508 L107.942769,25.6687288 C107.912559,25.7305932 107.883189,25.7916102 107.84207,25.8772034 C107.738014,26.0907627 107.649902,26.2704237 107.58193,26.4060169 C107.545007,26.4797458 107.514797,26.5373729 107.434238,26.6839831 C106.188084,29.1144915 104.359552,30.6365254 102.038434,31.4602542 Z M27.6921399,30.4907627 L36.9229091,30.4907627 L36.9229091,22.0339831 L27.6921399,22.0339831 L27.6921399,30.4907627 Z M38.6012308,30.4907627 L47.832,30.4907627 L47.832,22.0339831 L38.6012308,22.0339831 L38.6012308,30.4907627 Z M38.6012308,20.3390678 L47.832,20.3390678 L47.832,11.8644915 L38.6012308,11.8644915 L38.6012308,20.3390678 Z M49.5103217,30.4907627 L58.7410909,30.4907627 L58.7410909,22.0339831 L49.5103217,22.0339831 L49.5103217,30.4907627 Z M49.5103217,20.3390678 L58.7410909,20.3390678 L58.7410909,11.8644915 L49.5103217,11.8644915 L49.5103217,20.3390678 Z M60.4194126,30.4907627 L69.6501818,30.4907627 L69.6501818,22.0339831 L60.4194126,22.0339831 L60.4194126,30.4907627 Z M60.4194126,20.3390678 L69.6501818,20.3390678 L69.6501818,11.8644915 L60.4194126,11.8644915 L60.4194126,20.3390678 Z M60.4194126,10.1695763 L69.6501818,10.1695763 L69.6501818,1.695 L60.4194126,1.695 L60.4194126,10.1695763 Z M71.3285035,30.4907627 L80.5592727,30.4907627 L80.5592727,22.0339831 L71.3285035,22.0339831 L71.3285035,30.4907627 Z M108.907804,27.5026271 C108.988364,27.3670339 109.107524,27.1263559 109.360112,26.6051695 C109.45158,26.4161864 109.548084,26.2144915 109.644587,26.0127966 C109.678154,25.9416102 109.710042,25.8763559 109.773818,25.7433051 L110.091021,25.074661 L108.226406,23.8094068 C106.210741,22.4390678 101.613818,21.9229661 98.012979,22.6195763 C97.5489231,19.1916102 95.6457063,16.2161864 92.305007,13.5882203 L90.3229091,12.245 L89.018014,14.2348305 C87.312,16.8500847 86.5131189,20.3780508 86.7824895,23.7348305 C86.9813706,25.6602542 87.5704615,27.5178814 88.5161958,28.9882203 C87.0879441,29.7924576 84.7441678,30.4509322 82.2375944,30.4839831 L82.2375944,20.3390678 L71.3285035,20.3390678 L71.3285035,11.8644915 L71.3285035,10.1695763 L71.3285035,8.47457627e-05 L58.7410909,8.47457627e-05 L58.7410909,10.1695763 L49.5103217,10.1695763 L47.832,10.1695763 L36.9229091,10.1695763 L36.9229091,20.3390678 L26.0138182,20.3390678 L26.0138182,30.4907627 L21.745007,30.4907627 L21.0359161,30.4907627 L20.9175944,31.2017797 C20.5903217,33.1611017 20.5953566,36.0204237 21.0174545,38.965339 C21.5461259,42.6611017 22.6773147,46.2780508 24.4647273,49.5178814 C29.1187133,57.954322 37.5757762,62.9102542 50.2764755,62.9102542 C71.8882238,62.9102542 88.4431888,52.8339831 96.150042,33.9144915 C98.753958,33.9619492 100.553958,33.7941525 102.591441,33.0704237 C105.29186,32.1127966 107.456056,30.3170339 108.907804,27.5026271 Z" id="Fill-57" fill="#006FB6"></path>
                </g>
            </g>
        </g>
    </g>
</svg>