<?xml version="1.0" encoding="UTF-8"?>
<svg width="59px" height="81px" viewBox="0 0 59 81" version="1.1" xmlns="http://www.w3.org/2000/svg" xmlns:xlink="http://www.w3.org/1999/xlink">
    <!-- Generator: Sketch 48.1 (47250) - http://www.bohemiancoding.com/sketch -->
    <title>Group 2@2x</title>
    <desc>Created with Sketch.</desc>
    <defs>
        <radialGradient cx="14.3780526%" cy="6.75293597%" fx="14.3780526%" fy="6.75293597%" r="76.9741617%" gradientTransform="translate(0.143781,0.067529),scale(0.880113,1.000000),translate(-0.143781,-0.067529)" id="radialGradient-1">
            <stop stop-color="#FFFFFF" stop-opacity="0.1" offset="0%"></stop>
            <stop stop-color="#FFFFFF" stop-opacity="0" offset="100%"></stop>
        </radialGradient>
        <path d="M2.71591558,1.16084249 C1.16544156,1.80536996 0.042525974,3.43054945 0.042525974,5.25440049 C0.042525974,7.70891819 1.82631818,9.89315018 4.2502987,9.89315018 C5.36057143,9.89315018 6.15247403,9.74068132 6.85587662,9.29598046 C7.00644156,9.15737241 7.85696104,8.48281319 7.86500649,8.33727473 C7.86500649,8.30262271 7.74662338,8.40888889 7.56042857,8.5105348 C7.01333766,8.79699145 6.19155195,8.90672283 5.54676623,8.9182735 C4.2457013,8.94137485 3.20553896,8.05774847 2.52512338,7.01472283 C2.09066883,6.33900855 1.80677922,5.56742369 1.73551948,4.74270574 C1.62862987,3.4709768 1.9401039,2.00866178 3.38368831,1.65174603 C4.34454545,1.41264713 5.25827922,1.95090842 5.60998052,2.86918681 C5.77203896,3.28501099 5.67434416,3.50562882 5.28471429,3.66387302 L1.80677922,5.10539683 L2.99175974,5.17932112 C4.40431169,4.59485714 5.98581818,4.04851038 7.39722078,3.46635653 C7.68570779,3.34853968 7.70984416,3.32543834 7.60295455,3.02396581 C7.14321429,1.71642979 5.72836364,0.862835165 4.21926623,0.862835165 C3.71814935,0.862835165 3.20553896,0.956395604 2.71591558,1.16084249 Z" id="path-2"></path>
        <path d="M2.43547403,1.00490842 C1.92171429,1.23245665 1.45507792,1.5859072 0.967753247,1.83771184 C1.48611039,1.82269597 1.96079221,1.82962637 2.478,1.81345543 C2.25847403,5.27750183 2.40329221,8.73577289 2.38145455,12.332652 C2.40788961,13.4045543 2.19411039,13.6806154 1.7745974,14.1079902 C2.88257143,14.1079902 3.94227273,14.1310916 5.0490974,14.1310916 C5.28356494,13.9982589 5.58354545,13.6921661 5.76859091,13.536232 C4.54338312,13.570884 4.17214286,13.6806154 4.1549026,12.7415458 C4.18018831,9.29713553 4.08824026,5.82846886 4.23880519,2.38405861 C4.25834416,2.08489621 4.28592857,1.75454701 4.39741558,1.57782173 C4.55142857,1.33525763 4.67325974,1.23592186 5.03415584,1.00490842 L2.43547403,1.00490842 Z" id="path-4"></path>
        <path d="M2.39294805,3.21455189 C2.10331169,3.83597802 1.98837662,4.62142369 2.17112338,5.37914774 C2.53891558,6.86918437 4.10433117,7.85445665 5.62262338,7.62690842 C5.79042857,7.60265201 5.8455974,7.54720879 5.75824675,7.70083272 C5.42263636,8.2852967 5.66744805,9.16314774 6.32717532,9.59052259 C5.88812338,9.55818071 5.42493506,9.55125031 4.90427922,9.60900366 C3.04577922,9.82615629 0.988441558,10.7721563 1.09533117,12.7646471 C1.17923377,14.3031966 2.7480974,15.4363175 5.23184416,15.4478681 C7.23286364,15.4386276 9.11894805,14.8114261 9.9097013,13.4033993 C10.7372338,11.9272234 10.246461,10.3990696 8.99711688,9.46924054 C8.42244156,9.04417582 7.43514935,8.45855678 7.49721429,7.65463004 C7.5179026,7.37972405 7.71444156,7.09211233 8.10637013,6.86340904 C8.79023377,6.4637558 9.25801948,5.94166545 9.49018831,5.33294505 C9.73614935,4.68841758 9.70051948,3.98498168 9.45915584,3.35200488 C9.23388312,2.75945543 8.82701299,2.22465934 8.29256494,1.85157265 L9.55914935,1.85157265 L10.6694221,1.13658608 C9.08791558,1.12503541 7.58916234,1.12503541 5.97547403,1.12503541 C4.42155195,1.12503541 3.02164286,1.87236386 2.39294805,3.21455189 Z M3.94342208,4.93906716 C3.50896753,3.25382418 3.95836364,2.18538706 5.00197403,1.86081319 C6.24097403,1.47502076 7.56502597,2.58735043 7.86500649,4.4065812 C8.06269481,5.59976557 7.75926623,6.72711111 6.67542857,7.02511844 C6.52371429,7.06785592 6.3697013,7.08864713 6.21568831,7.08864713 C5.24678571,7.08864713 4.28477922,6.26739438 3.94342208,4.93906716 Z M2.86303247,11.8579194 C3.08140909,10.7097827 4.61464286,10.1172332 5.88007792,10.0733407 C6.23292857,10.06179 6.58807792,10.0883565 6.94092857,10.1010623 C7.12597403,10.2396703 7.32021429,10.3667277 7.5225,10.4937851 C8.60863636,11.1822051 8.95803896,12.0219389 8.86953896,12.796989 C8.7637987,13.7302833 7.86155844,14.4637509 6.31912987,14.5596215 C6.21453896,14.5653968 6.1065,14.568862 5.99846104,14.568862 C4.39971429,14.568862 2.478,13.8723565 2.86303247,11.8579194 Z" id="path-6"></path>
        <path d="M1.05280519,5.33294505 C1.05280519,8.13282784 3.49977273,10.0537045 6.30763636,9.75569719 C8.64081818,9.51082295 10.5475909,7.45711355 10.4085195,5.15968498 C10.2705974,2.85417094 8.71667532,0.885936508 5.73411039,0.885936508 C3.15611688,0.885936508 1.05280519,2.88535775 1.05280519,5.33294505 Z M2.99405844,5.94859585 C2.53891558,3.5483663 3.29059091,1.97400977 4.76175974,1.5859072 C6.50992208,1.12503541 8.28911688,2.87842735 8.54657143,5.45422711 C8.72472078,7.14293529 8.15119481,8.71498168 6.62370779,9.06496703 C6.45015584,9.10423932 6.27430519,9.12387546 6.10075325,9.12387546 C4.70888961,9.12387546 3.363,7.89257387 2.99405844,5.94859585 Z" id="path-8"></path>
        <path d="M1.12751299,5.33294505 C1.12751299,8.13282784 3.60666234,10.0537045 6.44555844,9.75569719 C8.80632468,9.51082295 10.7372338,7.45711355 10.5935649,5.15968498 C10.4510455,2.85417094 8.88103247,0.885936508 5.86513636,0.885936508 C3.25381169,0.885936508 1.12751299,2.88535775 1.12751299,5.33294505 Z M3.0952013,5.94859585 C2.63775974,3.5483663 3.39633117,1.97400977 4.88703896,1.5859072 C6.65474026,1.12503541 8.45347403,2.87842735 8.72012338,5.45422711 C8.88907792,7.14293529 8.3121039,8.71498168 6.76967532,9.06496703 C6.59267532,9.10423932 6.41567532,9.12387546 6.23867532,9.12387546 C4.83187013,9.12387546 3.46874026,7.89257387 3.0952013,5.94859585 Z" id="path-10"></path>
        <path d="M4.66061688,0.926363858 C2.3872013,2.06872527 0.734435065,4.33496703 0.650532468,6.8680293 C0.568928571,9.53623443 2.12514935,11.6453871 3.70895455,12.7057387 C6.32257792,14.4591306 10.8544675,14.0652527 13.583026,12.6976532 L13.583026,12.4435385 L13.583026,9.65058608 L14.2197662,8.9113431 L10.2453117,8.9113431 L8.77299351,9.73490598 L11.6325779,9.65058608 L11.6325779,12.1131893 C11.6325779,12.4631746 11.636026,12.5174628 11.0590519,12.7057387 C10.2453117,12.917116 9.32468182,12.9610085 8.48105844,12.8905495 C5.62492208,12.6549158 3.45035065,10.4106203 2.93314286,7.61997802 C2.44237013,4.9690989 3.70435714,2.45798291 5.83065584,1.42535287 C6.87196753,0.918278388 8.11671429,0.682644689 9.47064935,1.1111746 C10.3165714,1.38146032 11.0877857,1.86427839 11.7590065,2.53768254 L11.2923701,3.38088156 L12.167026,3.12214652 L13.5232597,1.74992674 C12.1796688,0.646837607 10.2763442,0.10164591 8.40405195,0.10164591 C7.06965584,0.10164591 5.75135065,0.37770696 4.66061688,0.926363858 Z" id="path-12"></path>
    </defs>
    <g id="Artboard" stroke="none" stroke-width="1" fill="none" fill-rule="evenodd" transform="translate(-676.000000, -23.000000)">
        <g id="Group-2" transform="translate(674.000000, 18.000000)">
            <g id="Google-Cloud-Platform">
                <path d="M40.3626727,46.432633 L34.4564227,56.5975849 L18.9885937,56.5975849 C17.6087273,56.5973314 16.3344593,55.8661593 15.6482648,54.6809116 L3.13685859,33.0840435 C2.45764052,31.909788 2.45764052,30.4671519 3.13685859,29.2928965 L7.89793594,21.0771204 L13.7747039,31.1868132 L22.6340789,46.432633 L40.3626727,46.432633 Z" id="Shape" fill="#FBBC05" fill-rule="nonzero"></path>
                <path d="M59.8631414,33.0839947 L47.3517352,54.6841277 C46.6661415,55.8699672 45.3914927,56.6013578 44.0114063,56.6008011 L34.453125,56.6008014 L40.359375,46.4358491 L49.2252961,31.1868132 L40.359375,15.9409934 L52.1259539,15.9409934 L59.8598438,29.2928478 C60.5450102,30.465217 60.5462673,31.9104589 59.8631414,33.0839947 Z" id="Shape" fill="#EA4335" fill-rule="nonzero"></path>
                <path d="M52.1292023,15.9409934 L22.6340789,15.9409934 L13.7747039,31.1868132 L7.89798516,21.0738555 L15.6483141,7.6927635 C16.3338864,6.50692039 17.6085147,5.77551215 18.9885937,5.77604145 L44.0147039,5.77604145 C45.394348,5.77711309 46.6682319,6.50806484 47.3550328,7.69271477 L52.1292023,15.9409934 Z" id="Shape" fill="#4285F4" fill-rule="nonzero"></path>
                <polyline id="Shape" fill="#E0E0E0" fill-rule="nonzero" points="40.3626727 15.9409934 49.2220477 31.1868132 40.359375 46.432633 22.6373273 46.432633 13.7747039 31.1868132 22.6340789 15.9409934 40.3626727 15.9409934"></polyline>
                <ellipse id="Oval" fill="#FFFFFF" fill-rule="nonzero" cx="31.5" cy="31.1868132" rx="7.70111016" ry="7.62454234"></ellipse>
                <path d="M15.6482648,8.00784777 C16.3338585,6.8220083 17.6085073,6.09061767 18.9885937,6.09117445 L44.0147039,6.09117445 C45.394348,6.09224609 46.6682319,6.82319784 47.3550328,8.00784777 L51.9487664,15.9409934 L52.1325,15.9409934 L47.3549836,7.6927635 C46.6693899,6.50692403 45.3947411,5.77553339 44.0146547,5.77609018 L18.9885937,5.77609018 C17.6087273,5.77634366 16.3344593,6.5075158 15.6482648,7.6927635 L7.89793594,21.0738555 L7.98982734,21.2330545 L15.6482648,8.00784777 Z" id="Shape" fill="#FFFFFF" fill-rule="nonzero" opacity="0.2"></path>
                <polyline id="Shape" fill-opacity="0.2" fill="#1A237E" fill-rule="nonzero" points="13.7748516 31.1868132 22.6342266 15.9408472 52.1290547 15.9408472 51.9454688 15.6226442 22.6342266 15.6226442 13.7748516 30.8686102"></polyline>
                <path d="M3.13685859,29.6079808 L7.89793594,21.3889398 L13.7746547,31.5018975 L22.6340297,46.7477173 L40.1755922,46.7477173 L40.3626234,46.4293681 L22.6340297,46.4293681 L13.7746547,31.1868132 L7.89793594,21.0738555 L3.13685859,29.2896316 C2.77818719,29.9149723 2.60423083,30.6275185 2.63482734,31.3460121 C2.65957576,30.735288 2.83172222,30.1393172 3.13685859,29.6079808 Z" id="Shape" fill="#FFFFFF" fill-rule="nonzero" opacity="0.2"></path>
                <g id="Group" opacity="0.2" transform="translate(2.460938, 30.699519)" fill="#BF360C" fill-rule="nonzero">
                    <path d="M32.1792187,25.5796678 L16.5276562,25.5796678 C15.1477898,25.5794143 13.8735218,24.8482422 13.1873273,23.6629945 L0.675921094,2.06612637 C0.37078472,1.53478994 0.19863826,0.938819183 0.173889844,0.328095021 C0.14048004,1.0468584 0.314622533,1.76016704 0.675921094,2.38447552 L13.1873273,23.9846085 C13.872921,25.170448 15.1475698,25.9018386 16.5276562,25.9012818 L31.9954852,25.9012818 L32.1792187,25.5796678 Z" id="Shape"></path>
                </g>
                <g id="Group" opacity="0.2" transform="translate(34.453125, 15.593407)" fill="#3E2723" fill-rule="nonzero">
                    <polygon id="Shape" points="14.9526563 15.5934066 6.09328125 0.347440591 5.90969531 0.347440591 14.7720234 15.5934066"></polygon>
                    <path d="M25.4100164,17.172239 L12.8986102,38.772372 C12.2130165,39.9582115 10.9383677,40.6896021 9.55828125,40.6890453 L0.18703125,40.6890453 L0,41.0073945 L9.55828125,41.0073945 C10.9379254,41.0063228 12.2118092,40.2753711 12.8986102,39.0907212 L25.4100164,17.4905882 C25.7698274,16.8656945 25.9438642,16.1528189 25.9120477,15.4342077 C25.8872992,16.0449318 25.7151528,16.6409026 25.4100164,17.172239 Z" id="Shape"></path>
                </g>
                <g id="Group" opacity="0.2" transform="translate(34.453125, 15.593407)" fill="#FFFFFF" fill-rule="nonzero">
                    <path d="M17.6760773,0.66271978 L25.4099672,14.0145742 C25.7151036,14.5459106 25.88725,15.1418814 25.9119984,15.7526055 C25.9454082,15.0338421 25.7712657,14.3205335 25.4099672,13.696225 L17.6760773,0.344370639 L5.90954766,0.344370639 L6.09657891,0.66271978" id="Shape"></path>
                    <polygon id="Shape" points="5.90969531 31.1575755 14.9526563 15.5934066 14.7720234 15.5934066 5.90969531 30.8393726 0.0034453125 41.0043245 0.18703125 41.0043245"></polygon>
                </g>
                <path d="M59.8631414,29.2896316 L52.1292516,15.9377772 L47.3517352,7.68949863 C46.6661415,6.50365916 45.3914927,5.77226852 44.0114063,5.77282531 L18.9885938,5.77282531 C17.6087273,5.77307879 16.3344593,6.50425093 15.6482648,7.68949863 L3.13685859,29.2896316 C2.45764052,30.4638871 2.45764052,31.9065232 3.13685859,33.0807786 L15.6482648,54.6809116 C16.3338585,55.8667511 17.6085073,56.5981417 18.9885938,56.5975849 L44.0147039,56.5975849 C45.394348,56.5965133 46.6682319,55.8655615 47.3550328,54.6809116 L59.8664391,33.0807786 C60.5462705,31.9063737 60.5450149,30.4628755 59.8631414,29.2896316 Z" id="Shape" fill="url(#radialGradient-1)" fill-rule="nonzero"></path>
                <rect id="Rectangle-path" x="0" y="0" width="63" height="62.3736264"></rect>
            </g>
            <g id="Page-1" transform="translate(3.818182, 65.208791)">
                <g id="Group-3" transform="translate(48.272727, 4.620269)">
                    <mask id="mask-3" fill="white">
                        <use xlink:href="#path-2"></use>
                    </mask>
                    <g id="Clip-2"></g>
                    <polygon id="Fill-1" fill="#757D81" mask="url(#mask-3)" points="-9.64535065 19.6280562 17.5517338 19.6280562 17.5517338 -8.87438095 -9.64535065 -8.87438095"></polygon>
                </g>
                <g id="Group-6" transform="translate(42.525974, 0.000000)">
                    <mask id="mask-5" fill="white">
                        <use xlink:href="#path-4"></use>
                    </mask>
                    <g id="Clip-5"></g>
                    <polygon id="Fill-4" fill="#757D81" mask="url(#mask-5)" points="-8.71897403 23.8683077 15.4564675 23.8683077 15.4564675 -8.73230769 -8.71897403 -8.73230769"></polygon>
                </g>
                <g id="Group-9" transform="translate(33.331169, 4.620269)">
                    <mask id="mask-7" fill="white">
                        <use xlink:href="#path-6"></use>
                    </mask>
                    <g id="Clip-8"></g>
                    <polygon id="Fill-7" fill="#757D81" mask="url(#mask-7)" points="-8.59599351 25.1827741 20.3561494 25.1827741 20.3561494 -8.60987057 -8.59599351 -8.60987057"></polygon>
                </g>
                <g id="Group-12" transform="translate(24.136364, 4.620269)">
                    <mask id="mask-9" fill="white">
                        <use xlink:href="#path-8"></use>
                    </mask>
                    <g id="Clip-11"></g>
                    <polygon id="Fill-10" fill="#757D81" mask="url(#mask-9)" points="-8.63392208 19.52179 20.1044416 19.52179 20.1044416 -8.85012454 -8.63392208 -8.85012454"></polygon>
                </g>
                <g id="Group-15" transform="translate(13.792208, 4.620269)">
                    <mask id="mask-11" fill="white">
                        <use xlink:href="#path-10"></use>
                    </mask>
                    <g id="Clip-14"></g>
                    <polygon id="Fill-13" fill="#757D81" mask="url(#mask-11)" points="-8.56036364 19.52179 20.289487 19.52179 20.289487 -8.85012454 -8.56036364 -8.85012454"></polygon>
                </g>
                <g id="Group-18" transform="translate(0.000000, 1.155067)">
                    <mask id="mask-13" fill="white">
                        <use xlink:href="#path-12"></use>
                    </mask>
                    <g id="Clip-17"></g>
                    <polygon id="Fill-16" fill="#757D81" mask="url(#mask-13)" points="-9.03964286 23.6118828 23.9064935 23.6118828 23.9064935 -9.63441514 -9.03964286 -9.63441514"></polygon>
                </g>
            </g>
        </g>
    </g>
</svg>