<?xml version="1.0" encoding="UTF-8"?>
<svg width="120px" height="120px" viewBox="0 0 120 120" version="1.1" xmlns="http://www.w3.org/2000/svg" xmlns:xlink="http://www.w3.org/1999/xlink">
    <!-- Generator: Sketch 48.1 (47250) - http://www.bohemiancoding.com/sketch -->
    <title>Artboard 2 Copy 3@2x</title>
    <desc>Created with Sketch.</desc>
    <defs>
        <radialGradient cx="14.3780526%" cy="6.75293597%" fx="14.3780526%" fy="6.75293597%" r="76.9741617%" gradientTransform="translate(0.143781,0.067529),scale(0.877199,1.000000),translate(-0.143781,-0.067529)" id="radialGradient-1">
            <stop stop-color="#FFFFFF" stop-opacity="0.1" offset="0%"></stop>
            <stop stop-color="#FFFFFF" stop-opacity="0" offset="100%"></stop>
        </radialGradient>
        <path d="M4.25630131,1.8132138 C1.826445,2.81995339 0.0666454289,5.35845271 0.0666454289,8.20727319 C0.0666454289,12.041183 2.86215099,15.4529116 6.66094043,15.4529116 C8.4009265,15.4529116 9.64197246,15.2147581 10.7443239,14.5201439 C10.9802847,14.3036408 12.3131933,13.2499922 12.3258019,13.0226639 C12.3258019,12.9685381 12.1402754,13.1345238 11.8484765,13.2932928 C10.9910921,13.7407326 9.7032142,13.9121309 8.6927254,13.9301728 C6.65373552,13.9662567 5.02362436,12.5860492 3.95729749,10.9568631 C3.27643338,9.90141026 2.83153011,8.69620945 2.71985399,7.40801576 C2.5523398,5.42159946 3.04047254,3.13749133 5.30281467,2.57999575 C6.80864111,2.20652783 8.24061722,3.04728169 8.79179293,4.48161499 C9.04576605,5.13112441 8.89266169,5.47572524 8.28204546,5.72289966 L2.83153011,7.97453231 L4.68859598,8.09000065 C6.90230496,7.17707908 9.38079443,6.32369587 11.5927022,5.41438269 C12.0448104,5.23035502 12.0826361,5.19427116 11.915122,4.72337683 C11.1946308,2.68103055 8.9773194,1.34773204 6.61230728,1.34773204 C5.82697196,1.34773204 5.02362436,1.49387166 4.25630131,1.8132138 Z" id="path-2"></path>
        <path d="M3.81680173,1.56964776 C3.0116529,1.92507375 2.28035441,2.47715676 1.51663381,2.87047079 C2.32898756,2.84701629 3.07289464,2.85784144 3.88344715,2.83258274 C3.53941264,8.24335704 3.76636735,13.6451104 3.73214402,19.2633669 C3.77357226,20.9376578 3.43854389,21.3688599 2.78109574,22.0364112 C4.51747934,22.0364112 6.17821138,22.0724951 7.91279376,22.0724951 C8.28024423,21.8650129 8.75036469,21.3869018 9.04036237,21.1433358 C7.12025353,21.1974616 6.53845694,21.3688599 6.51143853,19.9020511 C6.55106554,14.5219481 6.40696731,9.10395703 6.64292816,3.723854 C6.67354903,3.25656806 6.7167785,2.74056891 6.89149759,2.46452741 C7.13286212,2.08564691 7.32379227,1.93048633 7.8893778,1.56964776 L3.81680173,1.56964776 Z" id="path-4"></path>
        <path d="M3.7501563,5.02106865 C3.29624689,5.99172439 3.11612411,7.21857552 3.40251933,8.40212601 C3.97891223,10.7295348 6.4321845,12.2685113 8.81160644,11.9130853 C9.0745857,11.8751972 9.16104463,11.788596 9.02415132,12.0285536 C8.4981928,12.9414752 8.88185432,14.3126617 9.91575908,14.9802131 C9.22769006,14.9296957 8.50179525,14.9188705 7.68583906,15.0090802 C4.77325369,15.3482684 1.54905592,16.8259023 1.7165701,19.938135 C1.84805973,22.3413198 4.30673569,24.111233 8.19918898,24.1292749 C11.3351266,24.1148414 14.2909414,23.1351647 15.5301862,20.9358536 C16.8270702,18.6300952 16.0579459,16.2431481 14.1000113,14.7907728 C13.1993974,14.1268299 11.6521427,13.2121041 11.749409,11.9563859 C11.7818311,11.526988 12.089841,11.077744 12.7040597,10.7205138 C13.7757903,10.0962631 14.50889,9.28076792 14.872738,8.3299583 C15.2582008,7.3232187 15.2023627,6.22446527 14.8241049,5.2357676 C14.4710642,4.31021667 13.8334296,3.47487539 12.9958586,2.89212111 L14.9808117,2.89212111 L16.7207977,1.77532575 C14.2423083,1.75728382 11.8935072,1.75728382 9.36458337,1.75728382 C6.92932338,1.75728382 4.73542791,2.92459658 3.7501563,5.02106865 Z M6.18001261,7.71472855 C5.4991485,5.0824112 6.20342857,3.41353284 7.83894342,2.90655465 C9.780667,2.30395425 11.8556814,4.04139194 12.3258019,6.88299565 C12.6356131,8.74672684 12.1600889,10.507619 10.4615311,10.9731008 C10.223769,11.0398559 9.98240451,11.0723314 9.74103999,11.0723314 C8.22260494,11.0723314 6.71497727,9.7895503 6.18001261,7.71472855 Z M4.48685847,18.5218436 C4.82909175,16.7284759 7.23192965,15.802925 9.21508147,15.7343657 C9.7680584,15.7163238 10.3246378,15.7578202 10.8776147,15.7776663 C11.1676124,15.9941694 11.4720199,16.1926307 11.789036,16.3910919 C13.4911963,17.4663908 14.0387695,18.778039 13.900075,19.9886524 C13.734362,21.4464402 12.3203982,22.5921026 9.90315049,22.7418506 C9.73923876,22.7508716 9.56992334,22.7562842 9.40060793,22.7562842 C6.89510005,22.7562842 3.88344715,21.6683559 4.48685847,18.5218436 Z" id="path-6"></path>
        <path d="M1.64992467,8.3299583 C1.64992467,12.7033217 5.48473868,15.7036944 9.88513821,15.2382127 C13.5416307,14.8557238 16.5298676,11.6478689 16.311919,8.05932938 C16.0957717,4.45816049 13.6605117,1.3838159 8.98632554,1.3838159 C4.94617156,1.3838159 1.64992467,4.50687369 1.64992467,8.3299583 Z M4.69219844,9.29159308 C3.97891223,5.54248038 5.15691521,3.08336555 7.46248681,2.47715676 C10.2021543,1.75728382 12.990455,4.49604853 13.39393,8.51939855 C13.6731203,11.1571285 12.7743076,13.6126349 10.3804759,14.1593053 C10.1084905,14.2206479 9.8329026,14.2513192 9.56091721,14.2513192 C7.37963033,14.2513192 5.27039257,12.3280496 4.69219844,9.29159308 Z" id="path-8"></path>
        <path d="M1.76700448,8.3299583 C1.76700448,12.7033217 5.65225286,15.7036944 10.1012855,15.2382127 C13.8010075,14.8557238 16.8270702,11.6478689 16.6019167,8.05932938 C16.3785645,4.45816049 13.9180873,1.3838159 9.19166551,1.3838159 C5.09927593,1.3838159 1.76700448,4.50687369 1.76700448,8.3299583 Z M4.85070649,9.29159308 C4.13381782,5.54248038 5.32262817,3.08336555 7.65882064,2.47715676 C10.429109,1.75728382 13.2480305,4.49604853 13.6659154,8.51939855 C13.9306959,11.1571285 13.0264795,13.6126349 10.6092318,14.1593053 C10.3318427,14.2206479 10.0544536,14.2513192 9.77706454,14.2513192 C7.57236171,14.2513192 5.43610553,12.3280496 4.85070649,9.29159308 Z" id="path-10"></path>
        <path d="M7.30397876,1.44696265 C3.74115016,3.23130936 1.15098457,6.77113569 1.01949494,10.7277306 C0.891607765,14.895416 3.33047022,18.1898721 5.81256214,19.8461211 C9.90855417,22.5848859 17.0107954,21.9696561 21.2869102,19.8334918 L21.2869102,19.4365694 L21.2869102,15.0740311 L22.2847904,13.9193477 L16.0561447,13.9193477 L13.7487719,15.2057372 L18.2302266,15.0740311 L18.2302266,18.9205702 C18.2302266,19.4672406 18.2356303,19.5520377 17.331414,19.8461211 C16.0561447,20.1762884 14.6133612,20.2448478 13.29126,20.134792 C8.81520889,19.7667367 5.40728588,16.26119 4.59673337,11.9022601 C3.82760909,7.76163756 5.80535723,3.83932234 9.13762867,2.22637395 C10.7695411,1.4343333 12.7202708,1.06627796 14.8421171,1.7356335 C16.1678208,2.15781463 17.3764447,2.91196723 18.4283617,3.96381165 L17.6970632,5.28087242 L19.0677976,4.87673322 L21.1932464,2.73335214 C19.0876111,1.01034799 16.1047778,0.158768969 13.1705777,0.158768969 C11.0793522,0.158768969 9.01334395,0.589971056 7.30397876,1.44696265 Z" id="path-12"></path>
    </defs>
    <g id="Page-1" stroke="none" stroke-width="1" fill="none" fill-rule="evenodd">
        <g id="Artboard-2-Copy-3">
            <g id="Group-2" transform="translate(16.000000, 2.000000)">
                <g id="Google-Cloud-Platform" fill-rule="nonzero">
                    <path d="M59.8893143,63.5715286 L50.6332168,79.4489893 L26.3925,79.4489893 C24.2300147,79.4485934 22.2330202,78.3065165 21.1576369,76.4551822 L1.55013689,42.7212868 C0.485686731,40.8871222 0.485686731,38.6337522 1.55013689,36.7995876 L9.01155427,23.9667023 L18.2214485,39.7578493 L32.1055948,63.5715286 L59.8893143,63.5715286 Z" id="Shape" fill="#FBBC05"></path>
                    <path d="M90.4498631,42.7212106 L70.8423631,76.4602058 C69.7679213,78.3124644 67.77033,79.4548826 65.6075,79.4540129 L50.6280488,79.4540134 L59.8841463,63.5765522 L73.7785515,39.7578493 L59.8841463,15.94417 L78.3243753,15.94417 L90.4446951,36.7995115 C91.5184674,38.6307298 91.5204375,40.88817 90.4498631,42.7212106 Z" id="Shape" fill="#EA4335"></path>
                    <path d="M78.3294662,15.94417 L32.1055948,15.94417 L18.2214485,39.7578493 L9.0116314,23.9616026 L21.157714,3.06059248 C22.2321224,1.2083282 24.2296815,0.065882503 26.3925,0.0667092611 L65.612668,0.0667092611 C67.7748048,0.0683831436 69.7711973,1.21011581 70.8475311,3.06051637 L78.3294662,15.94417 Z" id="Shape" fill="#4285F4"></path>
                    <polyline id="Shape" fill="#E0E0E0" points="59.8893143 15.94417 73.7734607 39.7578493 59.8841463 63.5715286 32.1106857 63.5715286 18.2214485 39.7578493 32.1055948 15.94417 59.8893143 15.94417"></polyline>
                    <ellipse id="Oval" fill="#FFFFFF" cx="46" cy="39.7578493" rx="12.0689485" ry="11.9093895"></ellipse>
                    <path d="M21.1576369,3.5527481 C22.2320787,1.70048951 24.22967,0.558071302 26.3925,0.558940989 L65.612668,0.558940989 C67.7748048,0.560614872 69.7711973,1.70234754 70.8475311,3.5527481 L78.0466924,15.94417 L78.3346341,15.94417 L70.847454,3.06059248 C69.7730122,1.20833389 67.7754209,0.0659156881 65.6125909,0.0667853755 L26.3925,0.0667853755 C24.2300147,0.0671813055 22.2330202,1.20925823 21.1576369,3.06059248 L9.01155427,23.9616026 L9.15556372,24.2102683 L21.1576369,3.5527481 Z" id="Shape" fill="#FFFFFF" opacity="0.2"></path>
                    <polyline id="Shape" fill-opacity="0.2" fill="#1A237E" points="18.2216799 39.7578493 32.1058262 15.9439416 78.3292348 15.9439416 78.0415244 15.4469147 32.1058262 15.4469147 18.2216799 39.2608224"></polyline>
                    <path d="M1.55013689,37.2917432 L9.01155427,24.4537582 L18.2213713,40.2500049 L32.1055177,64.0636842 L59.5961274,64.0636842 L59.8892372,63.5664289 L32.1055177,63.5664289 L18.2213713,39.7578493 L9.01155427,23.9616026 L1.55013689,36.7944879 C0.988037844,37.7712581 0.715418656,38.8842417 0.763368598,40.006515 C0.802153572,39.0525755 1.07193633,38.1216806 1.55013689,37.2917432 Z" id="Shape" fill="#FFFFFF" opacity="0.2"></path>
                    <g id="Group" opacity="0.2" transform="translate(0.490854, 38.996705)" fill="#BF360C">
                        <path d="M50.4303049,39.9549525 L25.9016463,39.9549525 C23.739161,39.9545566 21.7421665,38.8124796 20.6667832,36.9611454 L1.05928323,3.22724993 C0.581082674,2.39731257 0.311299913,1.46641763 0.272514939,0.512478155 C0.220156098,1.63517282 0.493066981,2.74934729 1.05928323,3.7245052 L20.6667832,37.4635003 C21.741225,39.3157589 23.7388163,40.4581771 25.9016463,40.4573074 L50.1423631,40.4573074 L50.4303049,39.9549525 Z" id="Shape"></path>
                    </g>
                    <g id="Group" opacity="0.2" transform="translate(50.628049, 15.401246)" fill="#3E2723">
                        <polygon id="Shape" points="23.4333537 24.3566032 9.54920732 0.542695565 9.26149695 0.542695565 23.1502713 24.3566032"></polygon>
                        <path d="M39.8218143,26.8227093 L20.2143143,60.5617044 C19.1398725,62.413963 17.1422813,63.5563812 14.9794512,63.5555115 L0.293109756,63.5555115 L0,64.0527668 L14.9794512,64.0527668 C17.141588,64.0510929 19.1379806,62.9093603 20.2143143,61.0589597 L39.8218143,27.3199646 C40.3856993,26.3438927 40.6584445,25.2303946 40.6085826,24.1079375 C40.5697976,25.061877 40.3000149,25.9927719 39.8218143,26.8227093 Z" id="Shape"></path>
                    </g>
                    <g id="Group" opacity="0.2" transform="translate(50.628049, 15.401246)" fill="#FFFFFF">
                        <path d="M27.7014174,1.03515564 L39.8217372,21.8904971 C40.2999378,22.7204345 40.5697205,23.6513294 40.6085055,24.6052689 C40.6608643,23.4825742 40.3879534,22.3683998 39.8217372,21.3932419 L27.7014174,0.537900359 L9.26126555,0.537900359 L9.5543753,1.03515564" id="Shape"></path>
                        <polygon id="Shape" points="9.26149695 48.6675378 23.4333537 24.3566032 23.1502713 24.3566032 9.26149695 48.1705109 0.00539939024 64.0479716 0.293109756 64.0479716"></polygon>
                    </g>
                    <path d="M90.4498631,36.7944879 L78.3295433,15.9391464 L70.8423631,3.05549282 C69.7679213,1.20323423 67.77033,0.0608160243 65.6075,0.0616857117 L26.3925,0.0616857117 C24.2300147,0.0620816417 22.2330202,1.20415856 21.1576369,3.05549282 L1.55013689,36.7944879 C0.485686731,38.6286525 0.485686731,40.8820225 1.55013689,42.7161871 L21.1576369,76.4551822 C22.2320787,78.3074408 24.22967,79.449859 26.3925,79.4489893 L65.612668,79.4489893 C67.7748048,79.4473154 69.7711973,78.3055828 70.8475311,76.4551822 L90.4550311,42.7161871 C91.5204425,40.8817891 91.5184748,38.6270725 90.4498631,36.7944879 Z" id="Shape" fill="url(#radialGradient-1)"></path>
                </g>
                <g id="Page-1" transform="translate(2.617886, 85.524529)">
                    <g id="Group-3" transform="translate(75.651568, 7.216771)">
                        <mask id="mask-3" fill="white">
                            <use xlink:href="#path-2"></use>
                        </mask>
                        <g id="Clip-2"></g>
                        <polygon id="Fill-1" fill="#757D81" mask="url(#mask-3)" points="-15.1159038 30.6586488 27.5065499 30.6586488 27.5065499 -13.8616135 -15.1159038 -13.8616135"></polygon>
                    </g>
                    <g id="Group-6" transform="translate(66.645429, 0.000000)">
                        <mask id="mask-5" fill="white">
                            <use xlink:href="#path-4"></use>
                        </mask>
                        <g id="Clip-5"></g>
                        <polygon id="Fill-4" fill="#757D81" mask="url(#mask-5)" points="-13.6641142 37.2818407 24.2229116 37.2818407 24.2229116 -13.6396978 -13.6641142 -13.6396978"></polygon>
                    </g>
                    <g id="Group-9" transform="translate(52.235606, 7.216771)">
                        <mask id="mask-7" fill="white">
                            <use xlink:href="#path-6"></use>
                        </mask>
                        <g id="Clip-8"></g>
                        <polygon id="Fill-7" fill="#757D81" mask="url(#mask-7)" points="-13.4713828 39.3350121 31.9015457 39.3350121 31.9015457 -13.4484534 -13.4713828 -13.4484534"></polygon>
                    </g>
                    <g id="Group-12" transform="translate(37.825784, 7.216771)">
                        <mask id="mask-9" fill="white">
                            <use xlink:href="#path-8"></use>
                        </mask>
                        <g id="Clip-11"></g>
                        <polygon id="Fill-10" fill="#757D81" mask="url(#mask-9)" points="-13.5308233 30.492663 31.5070768 30.492663 31.5070768 -13.8237255 -13.5308233 -13.8237255"></polygon>
                    </g>
                    <g id="Group-15" transform="translate(21.614734, 7.216771)">
                        <mask id="mask-11" fill="white">
                            <use xlink:href="#path-10"></use>
                        </mask>
                        <g id="Clip-14"></g>
                        <polygon id="Fill-13" fill="#757D81" mask="url(#mask-11)" points="-13.4155447 30.492663 31.7970745 30.492663 31.7970745 -13.8237255 -13.4155447 -13.8237255"></polygon>
                    </g>
                    <g id="Group-18" transform="translate(0.000000, 1.804193)">
                        <mask id="mask-13" fill="white">
                            <use xlink:href="#path-12"></use>
                        </mask>
                        <g id="Clip-17"></g>
                        <polygon id="Fill-16" fill="#757D81" mask="url(#mask-13)" points="-14.1666567 36.8813099 37.4655384 36.8813099 37.4655384 -15.0487724 -14.1666567 -15.0487724"></polygon>
                    </g>
                </g>
            </g>
        </g>
    </g>
</svg>