<?xml version="1.0" encoding="UTF-8"?>
<svg width="77px" height="72px" viewBox="0 0 77 72" version="1.1" xmlns="http://www.w3.org/2000/svg" xmlns:xlink="http://www.w3.org/1999/xlink">
    <!-- Generator: Sketch 48.1 (47250) - http://www.bohemiancoding.com/sketch -->
    <title>Group 4@2x</title>
    <desc>Created with Sketch.</desc>
    <defs></defs>
    <g id="Artboard" stroke="none" stroke-width="1" fill="none" fill-rule="evenodd" transform="translate(-1236.000000, -25.000000)">
        <g id="Group-4" transform="translate(1236.000000, 25.000000)" fill="#464646">
            <g id="grafeas-logo" transform="translate(17.388678, 0.000000)" fill-rule="nonzero">
                <g id="Group" transform="translate(21.011320, 23.039999) scale(-1, 1) rotate(-180.000000) translate(-21.011320, -23.039999) translate(0.000000, -0.000000)">
                    <path d="M37.8203751,45.9200982 C29.0825643,45.1642118 20.9388667,41.3557073 14.7079237,35.1051083 C12.7661879,33.1572472 11.5055087,31.6018656 9.94052771,29.2179162 C8.49147119,27.0084022 7.92633915,25.9908628 6.91199959,23.6650585 C5.05720725,19.435002 4.07184881,15.1904092 3.82550921,10.3352928 L3.72407525,8.38743168 L2.8691319,6.94834028 C1.65192443,4.86965271 -2.84217094e-14,1.51177278 -2.84217094e-14,1.09022076 C-2.84217094e-14,0.654132453 0.594113172,0 0.985358432,0 C1.50701878,0 1.85479234,0.479697132 3.04301869,2.83457396 C3.68060355,4.11376632 4.55003746,5.71275676 4.97026385,6.39596176 L5.73826381,7.63154529 L7.67999954,7.80598061 C12.230037,8.21299636 16.1859613,9.23053573 20.0404516,10.9748889 C27.2422625,14.2455512 33.5166772,19.9728442 37.1538091,26.6159227 C37.7479223,27.7061435 37.791394,28.0259415 37.4001487,28.5056387 C37.1393185,28.8254368 36.9944129,28.8545093 35.4149413,28.9271907 L33.690564,28.9998721 L36.7046016,30.7151527 C38.8347147,31.9362 39.7621108,32.5467236 39.9070165,32.8229129 C40.2402995,33.4770453 41.1387145,36.8785341 41.4285258,38.6664961 C41.7328277,40.4399219 42.022639,43.3181047 42.022639,44.597297 C42.022639,45.2223569 41.9501862,45.4404011 41.6603749,45.7165903 C41.356073,46.0363884 41.1966768,46.0799973 40.2547901,46.065461 C39.6751674,46.0509247 38.5738845,45.9927796 37.8203751,45.9200982 Z M39.8490542,43.1872782 C39.8490542,41.442925 39.0810543,37.0238968 38.3855071,34.8143828 L38.1101864,33.9422062 L33.6760735,31.3983577 C31.227168,30.0028752 29.0825643,28.7382191 28.894187,28.5928563 C28.4015077,28.2149131 28.4159983,27.4444905 28.9231681,27.052011 C29.2854322,26.7612855 29.5027907,26.7467492 32.0531302,26.7467492 L34.791847,26.7467492 L34.4875451,26.1943707 C34.3136583,25.8745726 33.5456584,24.7843518 32.7776584,23.7522762 C30.3287529,20.4670776 26.8075456,17.2400242 23.1849043,14.972365 C20.1998479,13.0971853 15.6932821,11.3092233 12.0996219,10.5533369 C10.0999239,10.1463212 7.56407502,9.8119868 7.43365993,9.92827701 C7.27426372,10.1027123 10.0709428,13.6641001 12.7516974,16.7167182 C13.4907162,17.5598223 15.229584,19.435002 16.6061877,20.8886297 C18.7363008,23.1272163 19.127546,23.6069134 19.127546,23.9848566 C19.127546,24.5517714 18.6783385,25.002396 18.1132065,25.002396 C17.6060367,25.002396 17.3886782,24.8134244 14.7658859,22.0224593 C11.4475465,18.4756077 8.66535797,15.2485543 6.40482981,12.2831538 L6.07154681,11.8470655 L6.14399963,12.8936775 C6.43381094,16.4986741 7.82490519,21.0485287 9.85358432,24.9587872 C11.6504144,28.4474936 13.6211313,31.0930959 16.5337349,33.9422062 C19.9824894,37.3146224 23.7645269,39.7712531 28.227621,41.5592152 C31.4300359,42.8384075 36.023545,43.8414106 38.8781864,43.8850195 L39.8490542,43.8995557 L39.8490542,43.1872782 Z" id="Shape"></path>
                </g>
            </g>
            <path d="M11.9898405,69.1142046 C11.4159649,69.8520446 10.7806122,70.3678417 10.0837633,70.6616114 C9.38691434,70.955381 8.68324413,71.1022636 7.97273152,71.1022636 C6.85230777,71.1022636 5.84462471,70.9075588 4.94965208,70.5181432 C4.05467946,70.1287276 3.29977113,69.5924353 2.68490444,68.9092501 C2.07003776,68.2260649 1.59864703,67.4233343 1.27071813,66.5010342 C0.942789234,65.5787342 0.778827243,64.5847146 0.778827243,63.5189457 C0.778827243,62.4258494 0.942789234,61.4113346 1.27071813,60.4753708 C1.59864703,59.5394071 2.07003776,58.723013 2.68490444,58.0261641 C3.29977113,57.3293152 4.05467946,56.7827752 4.94965208,56.3865278 C5.84462471,55.9902804 6.85230777,55.7921597 7.97273152,55.7921597 C8.72423524,55.7921597 9.45181658,55.9048835 10.1554973,56.1303346 C10.8591781,56.3557858 11.4945308,56.6871256 12.0615745,57.1243641 C12.6286183,57.5616027 13.0965931,58.1013109 13.4655131,58.743505 C13.8344331,59.3856991 14.0598809,60.123528 14.1418631,60.957014 L11.067545,60.957014 C10.8762532,60.1371918 10.5073387,59.5223343 9.96079053,59.1124232 C9.41424236,58.702512 8.75156265,58.4975596 7.97273152,58.4975596 C7.2485552,58.4975596 6.63369773,58.6376104 6.12814068,58.9177164 C5.62258362,59.1978223 5.21267865,59.5735685 4.89841345,60.0449663 C4.58414825,60.5163641 4.35528464,61.0526564 4.21181575,61.6538594 C4.06834686,62.2550624 3.99661348,62.8767516 3.99661348,63.5189457 C3.99661348,64.1338124 4.06834686,64.7315905 4.21181575,65.3122979 C4.35528464,65.8930054 4.58414825,66.4156342 4.89841345,66.8802001 C5.21267865,67.3447661 5.62258362,67.7170964 6.12814068,67.9972024 C6.63369773,68.2773083 7.2485552,68.4173592 7.97273152,68.4173592 C9.03850044,68.4173592 9.86172627,68.1475051 10.4424337,67.6077888 C11.0231411,67.0680724 11.3613127,66.2858371 11.4569587,65.2610593 L8.21867696,65.2610593 L8.21867696,62.8630912 L14.3673131,62.8630912 L14.3673131,70.7743364 L12.3177677,70.7743364 L11.9898405,69.1142046 Z M16.6628039,60.1781868 L19.4296902,60.1781868 L19.4296902,62.1457503 L19.4706811,62.1457503 C19.6073181,61.8178214 19.7917754,61.5138086 20.0240583,61.2337026 C20.2563413,60.9535967 20.5227795,60.7144855 20.823381,60.5163617 C21.1239825,60.318238 21.4450748,60.1645237 21.7866674,60.055214 C22.12826,59.9459044 22.4835109,59.8912504 22.852431,59.8912504 C23.0437228,59.8912504 23.255507,59.9254092 23.48779,59.9937277 L23.48779,62.6991276 C23.351153,62.6718002 23.187191,62.647889 22.9958991,62.6273935 C22.8046073,62.6068979 22.62015,62.5966503 22.4425219,62.5966503 C21.9096374,62.5966503 21.4587419,62.685463 21.0898219,62.8630912 C20.7209019,63.0407194 20.4237208,63.2832465 20.1982697,63.5906798 C19.9728186,63.8981132 19.8122725,64.25678 19.7166265,64.6666911 C19.6209806,65.0766023 19.5731583,65.520666 19.5731583,65.9988956 L19.5731583,70.7743364 L16.6628039,70.7743364 L16.6628039,60.1781868 Z M24.5125627,63.4369639 C24.5535538,62.7537787 24.7243476,62.1867435 25.0249491,61.7358412 C25.3255505,61.284939 25.7081285,60.9228563 26.1726945,60.6495822 C26.6372604,60.3763081 27.1598892,60.1816032 27.7405967,60.0654618 C28.3213041,59.9493203 28.9054187,59.8912504 29.492958,59.8912504 C30.0258424,59.8912504 30.5655507,59.928825 31.1120988,60.0039754 C31.658647,60.0791258 32.1573647,60.2260084 32.6082669,60.4446277 C33.0591692,60.6632469 33.4280837,60.9672598 33.7150214,61.3566754 C34.0019592,61.7460909 34.145426,62.261888 34.145426,62.9040821 L34.145426,68.4173592 C34.145426,68.8955888 34.172753,69.353316 34.2274078,69.7905546 C34.2820626,70.2277931 34.3777071,70.5557171 34.5143441,70.7743364 L31.5629988,70.7743364 C31.508344,70.6103719 31.4639376,70.442994 31.4297784,70.2721977 C31.3956191,70.1014014 31.371708,69.9271918 31.3580443,69.7495637 C30.8934783,70.2277933 30.3469384,70.562549 29.718408,70.7538409 C29.0898776,70.9451328 28.4476931,71.0407773 27.7918353,71.0407773 C27.2862783,71.0407773 26.8148875,70.9792915 26.377649,70.8563182 C25.9404105,70.7333448 25.5578325,70.5420558 25.2299036,70.2824455 C24.9019747,70.0228351 24.6457841,69.6949111 24.4613241,69.2986637 C24.2768641,68.9024163 24.1846354,68.4310255 24.1846354,67.8844774 C24.1846354,67.2832744 24.2905276,66.7879725 24.502315,66.398557 C24.7141024,66.0091414 24.9873724,65.6982968 25.3221331,65.4660138 C25.6568939,65.2337309 26.0394719,65.0595212 26.4698785,64.9433798 C26.9002852,64.8272383 27.3341013,64.7350097 27.7713399,64.6666911 C28.2085784,64.5983726 28.6389786,64.5437186 29.0625534,64.5027275 C29.4861283,64.4617364 29.8618745,64.4002506 30.1898034,64.3182684 C30.5177323,64.2362862 30.7773388,64.1167306 30.9686306,63.959598 C31.1599225,63.8024654 31.2487352,63.5736018 31.2350715,63.2730003 C31.2350715,62.9587351 31.1838334,62.7093762 31.0813556,62.5249162 C30.9788779,62.3404562 30.8422429,62.1969895 30.6714466,62.0945117 C30.5006503,61.9920339 30.3025295,61.9237164 30.0770784,61.8895571 C29.8516273,61.8553979 29.6091002,61.8383185 29.3494898,61.8383185 C28.7756142,61.8383185 28.3247187,61.96129 27.9967898,62.2072367 C27.6688609,62.4531834 27.477572,62.8630883 27.4229171,63.4369639 L24.5125627,63.4369639 Z M31.2350715,65.5889866 C31.1120982,65.6982962 30.9583838,65.7836931 30.7739238,65.8451797 C30.5894638,65.9066664 30.3913431,65.9579045 30.1795557,65.9988956 C29.9677683,66.0398867 29.7457364,66.0740455 29.5134534,66.1013729 C29.2811705,66.1287003 29.048891,66.1628591 28.816608,66.2038502 C28.5979887,66.2448413 28.3827886,66.2994953 28.1710012,66.3678138 C27.9592138,66.4361323 27.7747566,66.5283609 27.617624,66.6445024 C27.4604914,66.7606439 27.334104,66.9075265 27.2384581,67.0851547 C27.1428121,67.2627828 27.0949899,67.4882306 27.0949899,67.7615047 C27.0949899,68.021115 27.1428121,68.239731 27.2384581,68.4173592 C27.334104,68.5949873 27.4639072,68.7350382 27.6278717,68.837516 C27.7918361,68.9399938 27.9831251,69.0117271 28.2017444,69.0527182 C28.4203637,69.0937094 28.6458114,69.1142046 28.8780944,69.1142046 C29.4519699,69.1142046 29.8960337,69.0185601 30.2102989,68.8272682 C30.524564,68.6359764 30.7568435,68.4071128 30.9071443,68.1406705 C31.057445,67.8742283 31.1496736,67.6043742 31.1838329,67.3311001 C31.2179922,67.057826 31.2350715,66.8392101 31.2350715,66.6752456 L31.2350715,65.5889866 Z M37.035285,62.1252549 L35.2931714,62.1252549 L35.2931714,60.1781868 L37.035285,60.1781868 L37.035285,59.3583686 C37.035285,58.415573 37.3290502,57.6435853 37.9165895,57.0423823 C38.5041287,56.4411794 39.3922562,56.1405824 40.5809985,56.1405824 C40.8406088,56.1405824 41.1002153,56.15083 41.3598257,56.1713255 C41.6194361,56.1918211 41.8722108,56.2089005 42.1181575,56.2225642 L42.1181575,58.3950823 C41.7765649,58.3540912 41.4213139,58.3335959 41.0523939,58.3335959 C40.6561465,58.3335959 40.3726289,58.4258245 40.2018326,58.6102845 C40.0310363,58.7947446 39.9456394,59.1055892 39.9456394,59.5428277 L39.9456394,60.1781868 L41.9541939,60.1781868 L41.9541939,62.1252549 L39.9456394,62.1252549 L39.9456394,70.7743364 L37.035285,70.7743364 L37.035285,62.1252549 Z M50.3573299,64.3387639 C50.2206929,63.6009238 49.9781658,63.0407204 49.6297413,62.6581367 C49.2813168,62.2755529 48.7518562,62.084264 48.0413436,62.084264 C47.5767777,62.084264 47.1907838,62.1628291 46.8833505,62.3199617 C46.5759172,62.4770943 46.3299742,62.6717991 46.1455142,62.9040821 C45.9610542,63.1363651 45.8312509,63.3823081 45.7561005,63.6419184 C45.6809502,63.9015288 45.6365438,64.1338083 45.6228801,64.3387639 L50.3573299,64.3387639 Z M45.6228801,66.1833547 C45.6638712,67.1261503 45.9029824,67.8093253 46.340221,68.2329001 C46.7774595,68.6564749 47.4059805,68.8682592 48.2258027,68.8682592 C48.813342,68.8682592 49.3188915,68.7213765 49.7424663,68.4276069 C50.1660411,68.1338373 50.4256476,67.8229927 50.5212935,67.4950638 L53.0832253,67.4950638 C52.6733141,68.7657882 52.0447932,69.6744109 51.1976435,70.2209591 C50.3504939,70.7675073 49.3257314,71.0407773 48.1233254,71.0407773 C47.2898395,71.0407773 46.538347,70.9075581 45.8688255,70.6411159 C45.199304,70.3746737 44.6322688,69.9955116 44.1677029,69.5036182 C43.7031369,69.0117249 43.3444701,68.4241944 43.0916915,67.7410092 C42.838913,67.057824 42.7125257,66.3063315 42.7125257,65.4865093 C42.7125257,64.6940144 42.8423289,63.9561855 43.1019393,63.2730003 C43.3615497,62.5898151 43.7304641,61.9988687 44.2086938,61.5001435 C44.6869234,61.0014183 45.2573745,60.6085927 45.9200642,60.3216549 C46.5827538,60.0347171 47.3171669,59.8912504 48.1233254,59.8912504 C49.0251299,59.8912504 49.8107811,60.06546 50.4803026,60.4138845 C51.1498241,60.7623089 51.69978,61.2302838 52.1301867,61.8178231 C52.5605933,62.4053623 52.8714379,63.0748738 53.0627298,63.8263775 C53.2540217,64.5778813 53.3223392,65.3635325 53.2676843,66.1833547 L45.6228801,66.1833547 Z M54.8663297,63.4369639 C54.9073208,62.7537787 55.0781146,62.1867435 55.3787161,61.7358412 C55.6793176,61.284939 56.0618956,60.9228563 56.5264615,60.6495822 C56.9910274,60.3763081 57.5136563,60.1816032 58.0943637,60.0654618 C58.6750711,59.9493203 59.2591857,59.8912504 59.846725,59.8912504 C60.3796095,59.8912504 60.9193177,59.928825 61.4658659,60.0039754 C62.012414,60.0791258 62.5111317,60.2260084 62.962034,60.4446277 C63.4129362,60.6632469 63.7818507,60.9672598 64.0687885,61.3566754 C64.3557263,61.7460909 64.499193,62.261888 64.499193,62.9040821 L64.499193,68.4173592 C64.499193,68.8955888 64.52652,69.353316 64.5811748,69.7905546 C64.6358296,70.2277931 64.7314741,70.5557171 64.8681112,70.7743364 L61.9167658,70.7743364 C61.862111,70.6103719 61.8177046,70.442994 61.7835454,70.2721977 C61.7493861,70.1014014 61.725475,69.9271918 61.7118113,69.7495637 C61.2472454,70.2277933 60.7007054,70.562549 60.072175,70.7538409 C59.4436446,70.9451328 58.8014601,71.0407773 58.1456023,71.0407773 C57.6400453,71.0407773 57.1686546,70.9792915 56.731416,70.8563182 C56.2941775,70.7333448 55.9115995,70.5420558 55.5836706,70.2824455 C55.2557417,70.0228351 54.9995511,69.6949111 54.8150911,69.2986637 C54.6306311,68.9024163 54.5384025,68.4310255 54.5384025,67.8844774 C54.5384025,67.2832744 54.6442946,66.7879725 54.856082,66.398557 C55.0678694,66.0091414 55.3411394,65.6982968 55.6759002,65.4660138 C56.0106609,65.2337309 56.3932389,65.0595212 56.8236456,64.9433798 C57.2540523,64.8272383 57.6878684,64.7350097 58.1251069,64.6666911 C58.5623454,64.5983726 58.9927456,64.5437186 59.4163205,64.5027275 C59.8398953,64.4617364 60.2156415,64.4002506 60.5435704,64.3182684 C60.8714993,64.2362862 61.1311058,64.1167306 61.3223977,63.959598 C61.5136895,63.8024654 61.6025023,63.5736018 61.5888386,63.2730003 C61.5888386,62.9587351 61.5376005,62.7093762 61.4351227,62.5249162 C61.3326449,62.3404562 61.1960099,62.1969895 61.0252136,62.0945117 C60.8544173,61.9920339 60.6562966,61.9237164 60.4308454,61.8895571 C60.2053943,61.8553979 59.9628672,61.8383185 59.7032568,61.8383185 C59.1293813,61.8383185 58.6784858,61.96129 58.3505569,62.2072367 C58.022628,62.4531834 57.831339,62.8630883 57.7766842,63.4369639 L54.8663297,63.4369639 Z M61.5888386,65.5889866 C61.4658652,65.6982962 61.3121509,65.7836931 61.1276909,65.8451797 C60.9432309,65.9066664 60.7451101,65.9579045 60.5333227,65.9988956 C60.3215353,66.0398867 60.0995034,66.0740455 59.8672205,66.1013729 C59.6349375,66.1287003 59.402658,66.1628591 59.170375,66.2038502 C58.9517558,66.2448413 58.7365556,66.2994953 58.5247682,66.3678138 C58.3129808,66.4361323 58.1285236,66.5283609 57.971391,66.6445024 C57.8142584,66.7606439 57.687871,66.9075265 57.5922251,67.0851547 C57.4965792,67.2627828 57.4487569,67.4882306 57.4487569,67.7615047 C57.4487569,68.021115 57.4965792,68.239731 57.5922251,68.4173592 C57.687871,68.5949873 57.8176743,68.7350382 57.9816387,68.837516 C58.1456032,68.9399938 58.3368921,69.0117271 58.5555114,69.0527182 C58.7741307,69.0937094 58.9995784,69.1142046 59.2318614,69.1142046 C59.805737,69.1142046 60.2498007,69.0185601 60.5640659,68.8272682 C60.8783311,68.6359764 61.1106106,68.4071128 61.2609113,68.1406705 C61.4112121,67.8742283 61.5034407,67.6043742 61.5375999,67.3311001 C61.5717592,67.057826 61.5888386,66.8392101 61.5888386,66.6752456 L61.5888386,65.5889866 Z M69.0081928,67.3311001 C69.0081928,67.6453653 69.0730945,67.9152194 69.2028996,68.1406705 C69.3327048,68.3661217 69.5000827,68.5505789 69.7050383,68.6940478 C69.9099938,68.8375167 70.1456892,68.9434088 70.4121314,69.0117273 C70.6785737,69.0800459 70.9552595,69.1142046 71.2421973,69.1142046 C71.4471529,69.1142046 71.662353,69.0902935 71.8878041,69.0424705 C72.1132552,68.9946475 72.3182077,68.9194983 72.5026677,68.8170205 C72.6871277,68.7145427 72.8408421,68.5779077 72.9638154,68.4071114 C73.0867888,68.2363151 73.1482745,68.021115 73.1482745,67.7615047 C73.1482745,67.3242661 72.8579251,66.9963421 72.2772177,66.7777229 C71.6965103,66.5591036 70.886948,66.3404876 69.8485064,66.1218684 C69.4249316,66.0262224 69.0116108,65.9134986 68.6085315,65.7836934 C68.2054522,65.6538882 67.8467854,65.4830944 67.5325202,65.271307 C67.218255,65.0595196 66.9654802,64.7930814 66.7741884,64.4719843 C66.5828965,64.1508873 66.487252,63.7580617 66.487252,63.2934957 C66.487252,62.6103105 66.6204711,62.0501071 66.8869134,61.6128685 C67.1533556,61.17563 67.5051907,60.8306266 67.9424292,60.5778481 C68.3796678,60.3250696 68.8715537,60.1474441 69.4181019,60.0449663 C69.9646501,59.9424885 70.5248535,59.8912504 71.0987291,59.8912504 C71.6726047,59.8912504 72.2293923,59.9459044 72.7691086,60.055214 C73.3088249,60.1645237 73.7904633,60.3489809 74.2140381,60.6085913 C74.6376129,60.8682017 74.989448,61.213205 75.269554,61.6436117 C75.5496599,62.0740184 75.7170378,62.6171425 75.7716926,63.2730003 L73.0048063,63.2730003 C72.9638152,62.7127884 72.752031,62.3336263 72.3694473,62.1355026 C71.9868635,61.9373789 71.5359681,61.8383185 71.0167473,61.8383185 C70.8527829,61.8383185 70.6751574,61.8485661 70.4838655,61.8690617 C70.2925737,61.8895573 70.118364,61.9339636 69.9612314,62.0022821 C69.8040988,62.0706007 69.6708797,62.169661 69.5615701,62.2994662 C69.4522605,62.4292714 69.3976065,62.603481 69.3976065,62.8221003 C69.3976065,63.0817107 69.493251,63.2934949 69.6845428,63.4574594 C69.8758347,63.6214238 70.1251935,63.7546429 70.4326269,63.8571207 C70.7400602,63.9595985 71.0918953,64.0518271 71.4881427,64.1338093 C71.8843902,64.2157916 72.2874634,64.3046043 72.6973745,64.4002502 C73.1209493,64.4958962 73.5342702,64.6120359 73.9373495,64.748673 C74.3404287,64.88531 74.6990956,65.0663514 75.0133608,65.2918025 C75.327626,65.5172536 75.5804007,65.7973553 75.7716926,66.1321161 C75.9629844,66.4668768 76.0586289,66.8801977 76.0586289,67.372091 C76.0586289,68.0689399 75.9185781,68.6530545 75.6384721,69.1244523 C75.3583662,69.5958501 74.9928676,69.9750122 74.5419654,70.26195 C74.0910631,70.5488878 73.575266,70.7504244 72.9945586,70.8665659 C72.4138512,70.9827074 71.8229048,71.0407773 71.2217018,71.0407773 C70.6068352,71.0407773 70.0056412,70.9792915 69.4181019,70.8563182 C68.8305626,70.7333448 68.3079338,70.5283923 67.8501997,70.2414546 C67.3924656,69.9545168 67.0167194,69.5753547 66.7229497,69.1039569 C66.4291801,68.6325591 66.268634,68.0416127 66.2413066,67.3311001 L69.0081928,67.3311001 Z" id="Grafeas"></path>
        </g>
    </g>
</svg>