<?xml version="1.0" encoding="UTF-8"?>
<svg width="120px" height="120px" viewBox="0 0 120 120" version="1.1" xmlns="http://www.w3.org/2000/svg" xmlns:xlink="http://www.w3.org/1999/xlink">
    <!-- Generator: Sketch 48.1 (47250) - http://www.bohemiancoding.com/sketch -->
    <title>Artboard 2 Copy 7@2x</title>
    <desc>Created with Sketch.</desc>
    <defs></defs>
    <g id="Page-1" stroke="none" stroke-width="1" fill="none" fill-rule="evenodd">
        <g id="Artboard-2-Copy-7" fill="#464646">
            <g id="Group-4" transform="translate(0.000000, 2.000000)">
                <g id="grafeas-logo" transform="translate(27.099239, 0.000000)" fill-rule="nonzero">
                    <g id="Group" transform="translate(32.744914, 35.942398) scale(-1, 1) rotate(-180.000000) translate(-32.744914, -35.942398) translate(0.000000, -0.000000)">
                        <path d="M58.9408443,71.6353532 C45.3234768,70.4561704 32.632,64.5149034 22.9214395,54.763969 C19.8953578,51.7253057 17.930663,49.2989104 15.4917315,45.5799493 C13.2334616,42.1331074 12.3527363,40.545746 10.7719474,36.9174913 C7.88136194,30.3186031 6.34573841,23.6970383 5.96183253,16.1230567 L5.80375364,13.0843934 L4.4713744,10.8394108 C2.57442768,7.59665822 -2.84217094e-14,2.35836554 -2.84217094e-14,1.70074438 C-2.84217094e-14,1.02044663 0.925890658,0 1.53562353,0 C2.34860069,0 2.89058547,0.748327526 4.74236678,4.42193538 C5.73600554,6.41747545 7.09096748,8.91190054 7.74586575,9.97770035 L8.94274879,11.9052106 L11.9688305,12.1773297 C19.0597979,12.8122743 25.2248748,14.3996357 31.2318727,17.1208267 C42.4554741,22.2230599 52.2337827,31.157637 57.9020402,41.5208394 C58.8279308,43.2215838 58.8956789,43.7204688 58.285946,44.4687963 C57.8794575,44.9676814 57.6536305,45.0130345 55.1921163,45.1264175 L52.5047751,45.2398005 L57.2019765,47.9156383 C60.5216332,49.820472 61.966926,50.7728888 62.192753,51.2037441 C62.712155,52.2241907 64.1122824,57.5305132 64.5639364,60.3197339 C65.038173,63.0862781 65.489827,67.5762433 65.489827,69.5717834 C65.489827,70.5468768 65.3769135,70.8870257 64.9252595,71.3178809 C64.4510229,71.8167659 64.2026132,71.8847957 62.7347377,71.8621191 C61.8314298,71.8394425 60.1151447,71.7487362 58.9408443,71.6353532 Z M62.1024222,67.372154 C62.1024222,64.650963 60.9055391,57.7572791 59.8215696,54.3104371 L59.3924983,52.9498416 L52.4821924,48.9814381 C48.6657163,46.8044853 45.3234768,44.8316218 45.0299018,44.6048559 C44.26209,44.0152645 44.2846727,42.8134051 45.0750671,42.2011372 C45.6396346,41.7476053 45.9783751,41.7249287 49.9529301,41.7249287 L54.2210602,41.7249287 L53.7468236,40.8632183 C53.4758312,40.3643332 52.2789481,38.6635889 51.0820651,37.0535509 C47.2655889,31.9286411 41.7779931,26.8944378 36.1323184,23.3568895 C31.4802824,20.4316091 24.457063,17.6423883 18.8565536,16.4632056 C15.7401412,15.828261 11.7881689,15.3066994 11.5849246,15.4881121 C11.3365149,15.7602312 15.6949758,21.3159962 19.8727751,26.0780805 C21.0244927,27.3933228 23.7344166,30.3186031 25.879773,32.5862623 C29.1994298,36.0784574 29.8091626,36.8267849 29.8091626,37.4163763 C29.8091626,38.3007634 29.109099,39.0037377 28.2283737,39.0037377 C27.4379793,39.0037377 27.0992388,38.708942 23.0117703,34.3550364 C17.8403322,28.8219481 13.504454,23.7877447 9.98155295,19.16172 L9.46215087,18.4814222 L9.57506436,20.1141368 C10.0267183,25.7379316 12.1946574,32.8357048 15.3562353,38.935708 C18.15649,44.37809 21.227737,48.5052297 25.7668595,52.9498416 C31.1415419,58.2108109 37.0356263,62.0431549 43.9910976,64.8323757 C48.9818741,66.8279158 56.1405896,68.3926006 60.5893813,68.4606304 L62.1024222,68.483307 L62.1024222,67.372154 Z" id="Shape"></path>
                    </g>
                </g>
                <path d="M18.6854656,107.818159 C17.7911141,108.96919 16.800954,109.773833 15.7149557,110.232114 C14.6289574,110.690394 13.5323285,110.919531 12.4250361,110.919531 C10.6789212,110.919531 9.10850604,110.615792 7.71374351,110.008303 C6.31898098,109.400815 5.14250046,108.564199 4.18426667,107.49843 C3.22603287,106.432661 2.49139797,105.180401 1.98033995,103.741613 C1.46928192,102.302825 1.21375674,100.752155 1.21375674,99.0895553 C1.21375674,97.384325 1.46928192,95.8016819 1.98033995,94.3415785 C2.49139797,92.8814751 3.22603287,91.6079003 4.18426667,90.520816 C5.14250046,89.4337317 6.31898098,88.5811294 7.71374351,87.9629834 C9.10850604,87.3448374 10.6789212,87.0357691 12.4250361,87.0357691 C13.5962108,87.0357691 14.7301038,87.2116183 15.8267491,87.563322 C16.9233945,87.9150258 17.9135545,88.431916 18.797259,89.1140081 C19.6809635,89.7961002 20.410275,90.638045 20.9852153,91.6398678 C21.5601555,92.6416906 21.9115027,93.7927038 22.0392672,95.0929418 L17.2481221,95.0929418 C16.950005,93.8140191 16.3750733,92.8548415 15.5233099,92.2153801 C14.6715465,91.5759188 13.6387989,91.2561929 12.4250361,91.2561929 C11.2964497,91.2561929 10.3382302,91.4746723 9.55034911,91.9116375 C8.76246798,92.3486028 8.12365503,92.9347669 7.63389109,93.6701474 C7.14412715,94.405528 6.78745659,95.2421441 6.5638687,96.1800207 C6.34028081,97.1178974 6.22848855,98.0877325 6.22848855,99.0895553 C6.22848855,100.048747 6.34028081,100.981281 6.5638687,101.887185 C6.78745659,102.793088 7.14412715,103.608389 7.63389109,104.333112 C8.12365503,105.057835 8.76246798,105.63867 9.55034911,106.075636 C10.3382302,106.512601 11.2964497,106.73108 12.4250361,106.73108 C14.0859747,106.73108 15.3689241,106.310108 16.2739226,105.46815 C17.1789212,104.626193 17.7059419,103.405906 17.8550005,101.807252 L12.8083277,101.807252 L12.8083277,98.0664223 L22.3906178,98.0664223 L22.3906178,110.407965 L19.1965211,110.407965 L18.6854656,107.818159 Z M25.9680061,93.8779713 L30.2800366,93.8779713 L30.2800366,96.9473705 L30.3439186,96.9473705 C30.5568594,96.4358014 30.8443252,95.9615414 31.2063247,95.5245761 C31.5683241,95.0876108 31.9835525,94.7145973 32.4520224,94.4055243 C32.9204922,94.0964513 33.4208957,93.8566569 33.9532478,93.6861339 C34.4855999,93.5156109 35.0392378,93.4303506 35.6141781,93.4303506 C35.9122953,93.4303506 36.2423486,93.4836383 36.6043481,93.5902152 L36.6043481,97.810639 C36.3914072,97.7680083 36.1358821,97.7307069 35.8377649,97.6987338 C35.5396477,97.6667608 35.2521819,97.6507745 34.9753588,97.6507745 C34.1448895,97.6507745 33.4421952,97.7893224 32.867255,98.0664223 C32.2923147,98.3435222 31.8291753,98.7218645 31.4778229,99.2014605 C31.1264705,99.6810565 30.8762688,100.240577 30.7272102,100.880038 C30.5781516,101.5195 30.5036234,102.212239 30.5036234,102.958277 L30.5036234,110.407965 L25.9680061,110.407965 L25.9680061,93.8779713 Z M38.2013964,98.9616637 C38.2652787,97.8958948 38.5314507,97.0113198 38.9999206,96.3079123 C39.4683905,95.6045049 40.0646159,95.0396558 40.7886147,94.6133482 C41.5126136,94.1870407 42.3271001,93.8833011 43.2320987,93.7021204 C44.1370973,93.5209396 45.0474058,93.4303506 45.9630514,93.4303506 C46.7935207,93.4303506 47.6346244,93.488967 48.4863878,93.6062016 C49.3381511,93.7234362 50.1153736,93.9525731 50.8180784,94.2936191 C51.5207831,94.6346652 52.0957148,95.1089253 52.5428906,95.7164135 C52.9900663,96.3239018 53.2136509,97.1285453 53.2136509,98.1303681 L53.2136509,106.73108 C53.2136509,107.477119 53.2562384,108.191173 53.3414147,108.873265 C53.4265911,109.555357 53.5756474,110.066919 53.7885883,110.407965 L49.189089,110.407965 C49.1039127,110.15218 49.034708,109.891071 48.9814728,109.624628 C48.9282375,109.358186 48.8909735,109.086419 48.8696794,108.809319 C48.1456805,109.555358 47.2939299,110.077577 46.314402,110.375992 C45.3348741,110.674407 44.3340672,110.823613 43.3119511,110.823613 C42.52407,110.823613 41.7894351,110.727695 41.1080244,110.535856 C40.4266137,110.344018 39.8303883,110.045607 39.3193303,109.640615 C38.8082722,109.235623 38.4090141,108.724061 38.121544,108.105915 C37.8340739,107.487769 37.690341,106.7524 37.690341,105.899785 C37.690341,104.961908 37.8553676,104.189237 38.1854259,103.581749 C38.5154843,102.974261 38.9413596,102.489343 39.4630646,102.126982 C39.9847697,101.76462 40.5809951,101.492853 41.2517588,101.311672 C41.9225224,101.130492 42.5985995,100.986615 43.2800102,100.880038 C43.9614209,100.773461 44.6321745,100.688201 45.2922911,100.624255 C45.9524077,100.560309 46.5379862,100.464391 47.0490443,100.336499 C47.5601023,100.208606 47.9646838,100.0221 48.262801,99.7769728 C48.5609182,99.531846 48.6993277,99.1748188 48.6780336,98.7058804 C48.6780336,98.2156267 48.598182,97.8266269 48.4384763,97.5388693 C48.2787707,97.2511117 48.065833,97.0273036 47.799657,96.8674382 C47.5334809,96.7075729 47.2247213,96.6009976 46.8733689,96.5477092 C46.5220165,96.4944207 46.1440522,96.4677769 45.7394646,96.4677769 C44.8451131,96.4677769 44.1424188,96.6596124 43.6313608,97.0432892 C43.1203028,97.426966 42.8221901,98.0664178 42.7370137,98.9616637 L38.2013964,98.9616637 Z M48.6780336,102.318819 C48.4863868,102.489342 48.246832,102.622561 47.9593618,102.71848 C47.6718917,102.8144 47.3631321,102.894331 47.0330738,102.958277 C46.7030155,103.022223 46.3569918,103.075511 45.9949924,103.118142 C45.6329929,103.160772 45.2709989,103.21406 44.9089995,103.278006 C44.5682941,103.341952 44.2329173,103.427213 43.902859,103.53379 C43.5728007,103.640366 43.2853349,103.784243 43.0404529,103.965424 C42.7955709,104.146604 42.5986036,104.375741 42.449545,104.652841 C42.3004864,104.929941 42.2259583,105.28164 42.2259583,105.707947 C42.2259583,106.112939 42.3004864,106.45398 42.449545,106.73108 C42.5986036,107.00818 42.8008944,107.22666 43.0564234,107.386525 C43.3119524,107.54639 43.6100651,107.658294 43.9507705,107.72224 C44.2914758,107.786187 44.6428229,107.818159 45.0048224,107.818159 C45.8991739,107.818159 46.5912213,107.668954 47.0809852,107.370538 C47.5707492,107.072123 47.9327432,106.715096 48.1669781,106.299446 C48.401213,105.883796 48.5449459,105.462824 48.5981812,105.036516 C48.6514164,104.610209 48.6780336,104.269168 48.6780336,104.013383 L48.6780336,102.318819 Z M57.7173272,96.9153976 L55.002345,96.9153976 L55.002345,93.8779713 L57.7173272,93.8779713 L57.7173272,92.599055 C57.7173272,91.1282939 58.1751432,89.9239931 59.0907888,88.9861164 C60.0064344,88.0482398 61.3905291,87.5793085 63.2431145,87.5793085 C63.6477021,87.5793085 64.0522836,87.5952948 64.4568712,87.6272679 C64.8614588,87.6592409 65.2553935,87.6858847 65.638687,87.7072001 L65.638687,91.0963284 C65.1063349,91.0323822 64.552697,91.0004096 63.9777567,91.0004096 C63.3602283,91.0004096 62.9183827,91.1442863 62.6522066,91.4320439 C62.3860305,91.7198015 62.2529445,92.2047191 62.2529445,92.8868112 L62.2529445,93.8779713 L65.3831593,93.8779713 L65.3831593,96.9153976 L62.2529445,96.9153976 L62.2529445,110.407965 L57.7173272,110.407965 L57.7173272,96.9153976 Z M78.4789557,100.368472 C78.2660149,99.2174412 77.8880505,98.3435238 77.3450514,97.7466932 C76.8020522,97.1498626 75.9769188,96.8514518 74.8696264,96.8514518 C74.1456276,96.8514518 73.5440787,96.9740134 73.0649618,97.2191402 C72.5858449,97.4642671 72.2025571,97.7680067 71.915087,98.1303681 C71.6276169,98.4927295 71.4253261,98.8764006 71.3082086,99.2813928 C71.1910912,99.686385 71.1218864,100.048741 71.1005923,100.368472 L78.4789557,100.368472 Z M71.1005923,103.246033 C71.1644746,104.716794 71.5371155,105.782547 72.2185262,106.443324 C72.8999369,107.104101 73.8794501,107.434484 75.1570951,107.434484 C76.0727408,107.434484 76.8606101,107.205347 77.5207267,106.747067 C78.1808433,106.288786 78.5854248,105.803869 78.7344834,105.292299 L82.7271043,105.292299 C82.0882818,107.27463 81.1087686,108.692081 79.7885353,109.544696 C78.4683021,110.397311 76.8712697,110.823613 74.9973903,110.823613 C73.6984512,110.823613 72.5272941,110.615791 71.4838839,110.200141 C70.4404738,109.784491 69.5567826,109.192998 68.8327837,108.425644 C68.1087848,107.658291 67.5498235,106.741743 67.1558829,105.675974 C66.7619424,104.610205 66.564975,103.437877 66.564975,102.158954 C66.564975,100.922663 66.7672658,99.7716494 67.1718534,98.7058804 C67.576441,97.6401115 68.1513727,96.7182352 68.8966656,95.9402239 C69.6419586,95.1622126 70.5309733,94.5494046 71.5637364,94.1017817 C72.5964995,93.6541588 73.7410393,93.4303506 74.9973903,93.4303506 C76.4027999,93.4303506 77.6271914,93.7021176 78.6706015,94.2456598 C79.7140116,94.7892019 80.5710857,95.5192427 81.2418493,96.435804 C81.912613,97.3523653 82.3970462,98.3968031 82.6951633,99.5691489 C82.9932805,100.741495 83.0997493,101.967111 83.014573,103.246033 L71.1005923,103.246033 Z M85.5059684,98.9616637 C85.5698507,97.8958948 85.8360227,97.0113198 86.3044926,96.3079123 C86.7729625,95.6045049 87.3691879,95.0396558 88.0931867,94.6133482 C88.8171856,94.1870407 89.6316721,93.8833011 90.5366707,93.7021204 C91.4416693,93.5209396 92.3519778,93.4303506 93.2676234,93.4303506 C94.0980927,93.4303506 94.9391964,93.488967 95.7909598,93.6062016 C96.6427231,93.7234362 97.4199456,93.9525731 98.1226504,94.2936191 C98.8253551,94.6346652 99.4002868,95.1089253 99.8474626,95.7164135 C100.294638,96.3239018 100.518223,97.1285453 100.518223,98.1303681 L100.518223,106.73108 C100.518223,107.477119 100.56081,108.191173 100.645987,108.873265 C100.731163,109.555357 100.880219,110.066919 101.09316,110.407965 L96.493661,110.407965 C96.4084847,110.15218 96.33928,109.891071 96.2860448,109.624628 C96.2328095,109.358186 96.1955455,109.086419 96.1742514,108.809319 C95.4502525,109.555358 94.5985019,110.077577 93.618974,110.375992 C92.6394461,110.674407 91.6386392,110.823613 90.6165231,110.823613 C89.828642,110.823613 89.0940071,110.727695 88.4125964,110.535856 C87.7311857,110.344018 87.1349603,110.045607 86.6239023,109.640615 C86.1128442,109.235623 85.7135861,108.724061 85.426116,108.105915 C85.1386459,107.487769 84.994913,106.7524 84.994913,105.899785 C84.994913,104.961908 85.1599396,104.189237 85.4899979,103.581749 C85.8200562,102.974261 86.2459315,102.489343 86.7676366,102.126982 C87.2893417,101.76462 87.8855671,101.492853 88.5563308,101.311672 C89.2270944,101.130492 89.9031715,100.986615 90.5845822,100.880038 C91.2659929,100.773461 91.9367465,100.688201 92.5968631,100.624255 C93.2569797,100.560309 93.8425582,100.464391 94.3536163,100.336499 C94.8646743,100.208606 95.2692558,100.0221 95.567373,99.7769728 C95.8654902,99.531846 96.0038997,99.1748188 95.9826056,98.7058804 C95.9826056,98.2156267 95.9027539,97.8266269 95.7430483,97.5388693 C95.5833427,97.2511117 95.370405,97.0273036 95.104229,96.8674382 C94.8380529,96.7075729 94.5292933,96.6009976 94.1779409,96.5477092 C93.8265885,96.4944207 93.4486242,96.4677769 93.0440366,96.4677769 C92.1496851,96.4677769 91.4469908,96.6596124 90.9359328,97.0432892 C90.4248748,97.426966 90.1267621,98.0664178 90.0415857,98.9616637 L85.5059684,98.9616637 Z M95.9826056,102.318819 C95.7909588,102.489342 95.551404,102.622561 95.2639338,102.71848 C94.9764637,102.8144 94.6677041,102.894331 94.3376458,102.958277 C94.0075875,103.022223 93.6615638,103.075511 93.2995643,103.118142 C92.9375649,103.160772 92.5755709,103.21406 92.2135715,103.278006 C91.8728661,103.341952 91.5374893,103.427213 91.207431,103.53379 C90.8773727,103.640366 90.5899069,103.784243 90.3450249,103.965424 C90.1001429,104.146604 89.9031756,104.375741 89.754117,104.652841 C89.6050584,104.929941 89.5305303,105.28164 89.5305303,105.707947 C89.5305303,106.112939 89.6050584,106.45398 89.754117,106.73108 C89.9031756,107.00818 90.1054664,107.22666 90.3609954,107.386525 C90.6165244,107.54639 90.9146371,107.658294 91.2553425,107.72224 C91.5960478,107.786187 91.9473949,107.818159 92.3093944,107.818159 C93.2037459,107.818159 93.8957933,107.668954 94.3855572,107.370538 C94.8753212,107.072123 95.2373152,106.715096 95.4715501,106.299446 C95.705785,105.883796 95.8495179,105.462824 95.9027532,105.036516 C95.9559884,104.610209 95.9826056,104.269168 95.9826056,104.013383 L95.9826056,102.318819 Z M107.545236,105.036516 C107.545236,105.52677 107.646381,105.947742 107.848675,106.299446 C108.050969,106.65115 108.311817,106.938903 108.631228,107.162715 C108.95064,107.386526 109.317957,107.551718 109.733192,107.658295 C110.148426,107.764872 110.579625,107.818159 111.026801,107.818159 C111.346212,107.818159 111.681589,107.780858 112.032941,107.706254 C112.384294,107.63165 112.7037,107.514417 112.99117,107.354552 C113.278641,107.194687 113.518195,106.981536 113.709842,106.715094 C113.901489,106.448652 113.997311,106.112939 113.997311,105.707947 C113.997311,105.025855 113.544818,104.514294 112.63982,104.173248 C111.734821,103.832202 110.473166,103.491161 108.854815,103.150115 C108.194699,103.000907 107.550562,102.825058 106.922387,102.622562 C106.294211,102.420066 105.73525,102.153627 105.245486,101.823239 C104.755722,101.492851 104.361787,101.077207 104.06367,100.576296 C103.765553,100.075384 103.616497,99.4625762 103.616497,98.7378533 C103.616497,97.6720844 103.824111,96.798167 104.239346,96.1160749 C104.65458,95.4339828 105.202895,94.8957776 105.884305,94.501443 C106.565716,94.1071085 107.332292,93.8300128 108.184055,93.6701474 C109.035818,93.5102821 109.908863,93.4303506 110.803214,93.4303506 C111.697566,93.4303506 112.565287,93.5156109 113.406403,93.6861339 C114.247519,93.8566569 114.998125,94.1444102 115.658241,94.5494024 C116.318358,94.9543946 116.866672,95.4925998 117.303201,96.1640343 C117.73973,96.8354687 118.000578,97.6827423 118.085755,98.7058804 L113.773724,98.7058804 C113.709842,97.8319499 113.379789,97.240457 112.783554,96.931384 C112.18732,96.6223111 111.484626,96.4677769 110.67545,96.4677769 C110.419921,96.4677769 110.143102,96.4837632 109.844985,96.5157362 C109.546868,96.5477093 109.275373,96.6169833 109.030491,96.7235601 C108.785609,96.830137 108.577994,96.9846712 108.407642,97.1871673 C108.237289,97.3896634 108.152114,97.6614304 108.152114,98.0024765 C108.152114,98.4074687 108.30117,98.7378521 108.599287,98.9936366 C108.897405,99.2494211 109.286016,99.457243 109.765133,99.6171083 C110.24425,99.7769736 110.792564,99.9208503 111.410093,100.048743 C112.027621,100.176635 112.655787,100.315183 113.29461,100.46439 C113.954726,100.613598 114.598863,100.794776 115.227038,101.00793 C115.855214,101.221084 116.414175,101.503508 116.903939,101.855212 C117.393703,102.206916 117.787637,102.643874 118.085755,103.166101 C118.383872,103.688328 118.532928,104.333108 118.532928,105.100462 C118.532928,106.187546 118.314667,107.098765 117.878138,107.834146 C117.44161,108.569526 116.872001,109.161019 116.169297,109.608642 C115.466592,110.056265 114.662752,110.370662 113.757754,110.551843 C112.852755,110.733024 111.9318,110.823613 110.99486,110.823613 C110.036626,110.823613 109.099701,110.727695 108.184055,110.535856 C107.268409,110.344018 106.453923,110.024292 105.740571,109.576669 C105.027219,109.129046 104.441641,108.537553 103.983818,107.802173 C103.525995,107.066792 103.275793,106.144916 103.233205,105.036516 L107.545236,105.036516 Z" id="Grafeas"></path>
            </g>
        </g>
    </g>
</svg>