<?xml version="1.0" encoding="UTF-8"?>
<svg width="90px" height="70px" viewBox="0 0 90 70" version="1.1" xmlns="http://www.w3.org/2000/svg" xmlns:xlink="http://www.w3.org/1999/xlink">
    <!-- Generator: Sketch 48.1 (47250) - http://www.bohemiancoding.com/sketch -->
    <title>Jira Software-blue@2x</title>
    <desc>Created with Sketch.</desc>
    <defs>
        <linearGradient x1="91.8666124%" y1="40.3276956%" x2="28.2635218%" y2="81.6596195%" id="linearGradient-1">
            <stop stop-color="#0052CC" offset="18%"></stop>
            <stop stop-color="#2684FF" offset="100%"></stop>
        </linearGradient>
        <linearGradient x1="3878%" y1="2561.06905%" x2="5439%" y2="1905.36835%" id="linearGradient-2">
            <stop stop-color="#0052CC" offset="18%"></stop>
            <stop stop-color="#2684FF" offset="100%"></stop>
        </linearGradient>
    </defs>
    <g id="Artboard" stroke="none" stroke-width="1" fill="none" fill-rule="evenodd" transform="translate(-432.000000, -28.000000)">
        <g id="Jira-Software-blue" transform="translate(432.000000, 28.000000)" fill-rule="nonzero">
            <g id="Group-13" transform="translate(0.000000, 57.689529)" fill="#253858">
                <path d="M3.16097561,0.907068063 L4.6097561,0.907068063 L4.6097561,8.19989529 C4.6097561,10.1319503 3.75731707,11.4653403 1.7597561,11.4653403 C1.16903386,11.4742053 0.581181458,11.3821543 0.0219512195,11.1932199 L0.0219512195,9.79633508 C0.498981855,9.97975322 1.00667696,10.0720812 1.51829268,10.0684555 C2.74207317,10.0684555 3.16463415,9.34280105 3.16463415,8.2960445 L3.16097561,0.907068063 Z" id="Shape"></path>
                <path d="M7.24939024,0.3465 C7.51083867,0.327945783 7.76752859,0.422888766 7.95287327,0.606700233 C8.13821796,0.7905117 8.23395288,1.04507822 8.2152439,1.30436387 C8.2152439,1.83337748 7.78281649,2.26222775 7.24939024,2.26222775 C6.715964,2.26222775 6.28353659,1.83337748 6.28353659,1.30436387 C6.2648276,1.04507822 6.36056253,0.7905117 6.54590721,0.606700233 C6.7312519,0.422888766 6.98794182,0.327945783 7.24939024,0.3465 Z M6.54146341,3.41239005 L7.92621951,3.41239005 L7.92621951,11.394589 L6.54146341,11.394589 L6.54146341,3.41239005 Z" id="Shape"></path>
                <path d="M10.0170732,3.41057592 L11.3689024,3.41057592 L11.3689024,4.81471728 C11.8353659,3.87318063 12.6493902,3.20195026 14.2189024,3.29809948 L14.2189024,4.63874607 C12.4481707,4.45733246 11.3689024,4.99068848 11.3689024,6.68146335 L11.3689024,11.3982173 L10.0170732,11.3982173 L10.0170732,3.41057592 Z" id="Shape"></path>
                <path d="M20.7054878,9.95597906 C20.1896341,11.0099921 19.2237805,11.5524188 17.9853659,11.5524188 C15.845122,11.5524188 14.7658537,9.74916754 14.7658537,7.40167539 C14.7658537,5.15033246 15.8926829,3.25093194 18.1463415,3.25093194 C19.3207317,3.25093194 20.222561,3.77703141 20.7073171,4.81471728 L20.7073171,3.41057592 L22.0920732,3.41057592 L22.0920732,11.3927749 L20.7073171,11.3927749 L20.7054878,9.95597906 Z M18.354878,10.275267 C19.595122,10.275267 20.7054878,9.49337435 20.7054878,7.72096335 L20.7054878,7.07513089 C20.7054878,5.3027199 19.6920732,4.52082723 18.5103659,4.52082723 C16.9481707,4.52082723 16.1432927,5.54218586 16.1432927,7.39441885 C16.1506098,9.31740314 16.922561,10.275267 18.3567073,10.275267 L18.354878,10.275267 Z" id="Shape"></path>
                <path d="M30.2835366,11.5524188 C28.2384146,11.5524188 27.2890244,11.1533089 26.4676829,10.7378717 L26.4676829,9.2702356 C27.45,9.78182199 28.9628049,10.1482775 30.3621951,10.1482775 C31.9554878,10.1482775 32.5573171,9.5260288 32.5573171,8.59900524 C32.5573171,7.67198168 31.977439,7.17853665 29.9652439,6.69960471 C27.5871951,6.12452356 26.5207317,5.30997644 26.5207317,3.58654712 C26.5207317,1.95382461 27.7756098,0.745609948 30.2396341,0.745609948 C31.7689024,0.745609948 32.7512195,1.10843717 33.4756098,1.51117539 L33.4756098,2.9479712 C32.4685946,2.39766553 31.3323695,2.12221918 30.1829268,2.14975131 C28.7981707,2.14975131 27.9768293,2.62868325 27.9768293,3.58654712 C27.9768293,4.44826178 28.6536585,4.88002618 30.5195122,5.34263089 C32.7567073,5.90138482 34.0134146,6.61252618 34.0134146,8.50285602 C34.002439,10.3224346 32.9085366,11.5524188 30.2835366,11.5524188 Z" id="Shape"></path>
                <path d="M35.2262195,7.38534817 C35.2262195,4.99068848 36.6420732,3.25093194 39.0567073,3.25093194 C41.4713415,3.25093194 42.8560976,4.99068848 42.8560976,7.38534817 C42.8560976,9.78000785 41.454878,11.5578613 39.0567073,11.5578613 C36.6585366,11.5578613 35.2262195,9.78000785 35.2262195,7.38534817 Z M36.5780488,7.38534817 C36.5780488,8.90196597 37.3353659,10.275267 39.0567073,10.275267 C40.7780488,10.275267 41.5042683,8.90196597 41.5042683,7.38534817 C41.5042683,5.86873037 40.7634146,4.53534031 39.0567073,4.53534031 C37.35,4.53534031 36.5853659,5.86873037 36.5853659,7.38534817 L36.5780488,7.38534817 Z" id="Shape"></path>
                <path d="M46.3810976,3.41057592 L48.4573171,3.41057592 L48.4573171,4.6804712 L46.3810976,4.6804712 L46.3810976,11.3927749 L45.0292683,11.3927749 L45.0292683,4.6804712 L43.7195122,4.6804712 L43.7195122,3.41057592 L45.0237805,3.41057592 L45.0237805,2.53979058 C45.0237805,1.05582722 45.8615854,0.0489816746 47.5847561,0.0489816746 C47.9002295,0.047237396 48.21435,0.0899953121 48.5176829,0.175971203 L48.5176829,1.44586649 C48.2312764,1.39185289 47.9403181,1.36512391 47.6487805,1.3660445 C46.7963415,1.3660445 46.3682927,1.86130366 46.3682927,2.57970157 L46.3810976,3.41057592 Z" id="Shape"></path>
                <path d="M53.1420732,10.0521283 C53.4347648,10.0434674 53.7258485,10.0057876 54.0109756,9.93965183 L54.0109756,11.2639712 C53.7076632,11.3500438 53.3935287,11.3928036 53.0780488,11.3909607 C51.354878,11.3909607 50.5170732,10.3859293 50.5170732,8.90015183 L50.5170732,4.68772775 L49.2073171,4.68772775 L49.2073171,3.41783246 L50.5115854,3.41783246 L50.5115854,1.71798691 L51.8634146,1.71798691 L51.8634146,3.41057592 L54.0036585,3.41057592 L54.0036585,4.6804712 L51.8634146,4.6804712 L51.8634146,8.87112565 C51.8707317,9.57319634 52.2896341,10.0521283 53.1420732,10.0521283 Z" id="Shape"></path>
                <polygon id="Shape" points="54.3987805 3.41057592 55.9280488 3.41057592 58.2457317 10.1791178 60.5945122 3.41057592 61.9152439 3.41057592 64.2658537 10.1791178 66.5853659 3.41057592 68.1146341 3.41057592 65.1530488 11.3927749 63.3823171 11.3927749 61.997561 7.53047906 61.2658537 5.07232461 60.5341463 7.53047906 59.1310976 11.3927749 57.3603659 11.3927749"></polygon>
                <path d="M74.4384146,9.95597906 C73.922561,11.0099921 72.9567073,11.5524188 71.7182927,11.5524188 C69.5780488,11.5524188 68.4987805,9.74916754 68.4987805,7.40167539 C68.4987805,5.15033246 69.6256098,3.25093194 71.8792683,3.25093194 C73.0536585,3.25093194 73.9554878,3.77703141 74.4402439,4.81471728 L74.4402439,3.41057592 L75.825,3.41057592 L75.825,11.3927749 L74.4402439,11.3927749 L74.4384146,9.95597906 Z M72.0878049,10.275267 C73.3280488,10.275267 74.4384146,9.49337435 74.4384146,7.72096335 L74.4384146,7.07513089 C74.4384146,5.3027199 73.425,4.52082723 72.2432927,4.52082723 C70.6884146,4.53534031 69.8780488,5.54944241 69.8780488,7.40167539 C69.8780488,9.31740314 70.6554878,10.275267 72.0896341,10.275267 L72.0878049,10.275267 Z" id="Shape"></path>
                <path d="M77.9158537,3.41057592 L79.2676829,3.41057592 L79.2676829,4.81471728 C79.7341463,3.87318063 80.5481707,3.20195026 82.1176829,3.29809948 L82.1176829,4.63874607 C80.3469512,4.45733246 79.2676829,4.99068848 79.2676829,6.68146335 L79.2676829,11.3982173 L77.9158537,11.3982173 L77.9158537,3.41057592 Z" id="Shape"></path>
                <path d="M86.9945122,11.5524188 C83.9835366,11.5524188 82.6646341,9.82898953 82.6646341,7.37990576 C82.6646341,4.96891885 84.0164634,3.24548953 86.4640244,3.24548953 C88.9426829,3.24548953 89.9396341,4.95440576 89.9396341,7.37990576 L89.9396341,8.00215445 L84.0658537,8.00215445 C84.2597561,9.35912827 85.145122,10.2371702 87.0439024,10.2371702 C87.8789483,10.2364154 88.7073768,10.0902757 89.4914634,9.80540576 L89.4914634,11.075301 C88.8310976,11.4290576 87.8158537,11.5524188 86.9945122,11.5524188 Z M84.0493902,6.83566492 L88.5365854,6.83566492 C88.4560976,5.35170157 87.7792683,4.5045 86.3963415,4.5045 C84.9347561,4.49724346 84.1939024,5.44240838 84.0493902,6.82659424 L84.0493902,6.83566492 Z" id="Shape"></path>
            </g>
            <g id="Group-11" transform="translate(23.048780, 0.000000)">
                <path d="M45.100857,22.0228487 L24.7930125,1.94609066 L22.8245221,0 L7.53757416,15.1129952 L0.548187212,22.0228487 C-0.180536433,22.7441772 -0.180536433,23.9127305 0.548187212,24.634059 L14.5145023,38.441449 L22.8245221,46.6569077 L38.11147,31.5439125 L38.3481872,31.309889 L45.100857,24.634059 C45.8295806,23.9127305 45.8295806,22.7441772 45.100857,22.0228487 Z M22.8245221,30.2259904 L15.8475939,23.3284538 L22.8245221,16.4309173 L29.8014502,23.3284538 L22.8245221,30.2259904 Z" id="Shape" fill="#2684FF"></path>
                <path d="M22.8245221,16.4309173 C18.2565517,11.9143932 18.2342891,4.59904286 22.7746869,0.0554266317 L7.50642716,15.1437878 L15.8164469,23.3592464 L22.8245221,16.4309173 Z" id="Shape" fill="url(#linearGradient-1)"></path>
                <path d="M29.8201384,23.3099783 L22.8245221,30.2259904 C25.0293329,32.404416 26.268093,35.3597732 26.268093,38.441449 C26.268093,41.5231248 25.0293329,44.4784821 22.8245221,46.6569077 L38.1301582,31.525437 L29.8201384,23.3099783 Z" id="Shape" fill="url(#linearGradient-2)"></path>
            </g>
        </g>
    </g>
</svg>