<?xml version="1.0" encoding="UTF-8"?>
<svg width="82px" height="69px" viewBox="0 0 82 69" version="1.1" xmlns="http://www.w3.org/2000/svg" xmlns:xlink="http://www.w3.org/1999/xlink">
    <!-- Generator: Sketch 48.1 (47250) - http://www.bohemiancoding.com/sketch -->
    <title>Group 8@2x</title>
    <desc>Created with Sketch.</desc>
    <defs>
        <path d="M24.4457176,0.00274688057 C24.0053774,0.028842246 23.5746099,0.140090909 23.1793977,0.330999109 L6.04989118,8.32716845 C5.15416814,8.74332086 4.50323048,9.53716934 4.27895784,10.4807228 L0.0847859975,28.4205998 C-0.116238868,29.2625187 0.0451280309,30.1456408 0.531963759,30.8680704 C0.589399434,30.9545971 0.650937658,31.038377 0.715210915,31.1207834 L12.5620028,45.5185579 C13.1883252,46.2670829 14.1278087,46.70109 15.1178904,46.6969697 L34.1167914,46.6969697 C35.1109756,46.6983431 36.0518267,46.2602157 36.6767815,45.5048235 L48.5167358,31.1043021 C49.1375881,30.3502834 49.3700659,29.3614064 49.1471607,28.4178529 L44.9229035,10.4601212 C44.6999984,9.5151943 44.0476932,8.72409269 43.1533377,8.30656684 L26.0347713,0.330999109 C25.5821235,0.113995544 25.0857151,-2.84217094e-14 24.5811017,-2.84217094e-14 C24.5359737,-2.84217094e-14 24.4922132,0.00137344029 24.4457176,0.00274688057 Z" id="path-1"></path>
        <path d="M23.6347806,6.60350089 L23.6347806,6.62959626 L23.6347806,6.88368271 C23.6607634,7.2036943 23.7072589,7.51958556 23.7728997,7.83272995 C23.8658908,8.43292335 23.8987112,9.03861052 23.8713609,9.64567112 C23.8139252,9.84481996 23.6990538,10.0247406 23.540422,10.1607112 L23.5171742,10.5837308 C22.904527,10.6345481 22.2932473,10.7265686 21.6929077,10.8625392 C19.1671055,11.4242763 16.8669434,12.7208039 15.09054,14.5845624 L14.7267808,14.3291025 C14.5271234,14.386787 14.3110559,14.3675588 14.1278087,14.2700446 C13.6355029,13.9102032 13.1787526,13.5036649 12.7657627,13.0572968 C12.5592678,12.8128244 12.3377302,12.580713 12.1038849,12.3595891 C12.0409792,12.3073984 11.9479881,12.2346061 11.8796123,12.1837888 C11.6799549,12.0244697 11.433802,11.9324492 11.1780765,11.9214617 C10.8676504,11.9063538 10.5681643,12.0368307 10.3726095,12.2744358 C10.0307305,12.7496462 10.1414993,13.4088975 10.6214975,13.7467638 C10.6857707,13.800328 10.7705567,13.8676266 10.8293599,13.9143235 C11.0987606,14.0914973 11.3791014,14.2521898 11.6676473,14.3977745 C12.2050811,14.6930642 12.711062,15.0405446 13.1801201,15.431975 C13.3004615,15.6009082 13.3702048,15.800057 13.3825124,16.0074465 L13.7134513,16.2917487 C11.9288428,18.9383681 11.1944867,22.1426043 11.6539721,25.2905294 L11.2300421,25.4113922 C11.1192733,25.5858191 10.9715816,25.7327772 10.7965395,25.8440258 C10.2044051,26.000598 9.59722791,26.0994857 8.98594822,26.1393155 C8.66047939,26.1448093 8.33637808,26.1695312 8.0150118,26.2134813 L7.74697865,26.2766595 L7.71689329,26.2766595 C7.33672382,26.3261034 7.01672505,26.5856836 6.89228109,26.9441515 C6.76783713,27.3026194 6.8594607,27.7009171 7.13022889,27.9714848 C7.39962956,28.2420526 7.8030468,28.3381934 8.16680608,28.2187041 L8.18731883,28.2187041 L8.46218956,28.1898619 C8.76988068,28.0964679 9.07346925,27.9879661 9.37022024,27.8616096 C9.93773942,27.6363654 10.5271389,27.4646854 11.1302134,27.3520633 C11.3394434,27.3644242 11.5404683,27.4344697 11.7100403,27.553959 L12.1503805,27.4797932 C13.1363596,30.5013619 15.2081464,33.0614545 17.9746315,34.6766203 L17.7886493,35.0584367 C17.8748028,35.2328636 17.9062557,35.4292656 17.8789053,35.6215472 C17.6286499,36.1942718 17.3209588,36.7422745 16.9640371,37.2573146 C16.7684823,37.5127745 16.5866026,37.7792219 16.4211332,38.0552834 C16.3828427,38.1308226 16.3336122,38.2448182 16.2925867,38.3231043 C16.0997669,38.6499831 16.1093395,39.0565214 16.317202,39.3737861 C16.5264319,39.6910508 16.8983963,39.8654777 17.2785658,39.8242745 C17.6601028,39.7816979 17.9842041,39.5317317 18.1168531,39.1773841 C18.1565111,39.099098 18.2098442,38.99609 18.2426646,38.9219242 C18.357536,38.6225143 18.4546296,38.3162371 18.5339456,38.007213 C18.8019787,37.3507086 18.9483029,36.6475071 19.3161648,36.2135 C19.4365062,36.1022513 19.5869329,36.029459 19.7496674,36.0047371 L19.9780425,35.5954519 C22.9770053,36.7340339 26.2945994,36.7422745 29.2990322,35.6188004 L29.5014246,36.0006168 C29.7079195,36.0322059 29.8925342,36.1420811 30.0169782,36.3082674 C30.302789,36.8452825 30.5352668,37.4056462 30.7089413,37.9866114 C30.7896247,38.2970089 30.8880859,38.6019127 31.0043248,38.9026961 C31.0371452,38.9768619 31.0904783,39.0798699 31.1287687,39.1567825 C31.2641528,39.5125036 31.5868866,39.7624697 31.9684236,39.8036729 C32.3485931,39.8462496 32.7205575,39.6718226 32.9284199,39.3545579 C33.1376499,39.0372932 33.14859,38.6307549 32.9530352,38.3025027 C32.9133772,38.22559 32.8627791,38.110221 32.8217537,38.0346818 C32.6549167,37.7599938 32.4744046,37.4949198 32.2788498,37.2408333 C31.9287656,36.743648 31.6306471,36.2135 31.3844942,35.6572567 C31.3366312,35.4526141 31.3735541,35.236984 31.487058,35.0584367 C31.4227847,34.9293333 31.365349,34.7933627 31.3188535,34.6573922 C34.081236,33.0298654 36.1434502,30.4601586 37.1171217,27.4344697 L37.5465217,27.5100089 C37.7010511,27.369918 37.904811,27.2957522 38.1126734,27.3026194 C38.7143805,27.4152415 39.3051474,27.5869216 39.8740341,27.8121658 C40.1707851,27.9453895 40.4716387,28.0621319 40.7820648,28.1596462 C40.8545432,28.1802478 40.9612094,28.1953556 41.0432604,28.2159572 L41.0624056,28.2159572 C41.4288999,28.3340731 41.8295821,28.2393057 42.1003503,27.968738 C42.369751,27.6981702 42.4641096,27.2998725 42.3382981,26.9400312 C42.2138542,26.5815633 41.8952229,26.3219831 41.5136859,26.2725392 C41.4275324,26.2519376 41.304456,26.2203485 41.21967,26.2024938 C40.8969362,26.1612906 40.5728348,26.1351952 40.2487335,26.1269545 C39.6360863,26.0884982 39.0302767,25.990984 38.4381422,25.8330383 C38.2548951,25.7327772 38.1031008,25.5830722 38.0005371,25.4017781 L37.5930173,25.2850357 C38.0292549,22.1371105 37.2825911,18.9424884 35.4897775,16.3041096 L35.8480668,15.9786043 C35.8330241,15.7725882 35.9013999,15.5693191 36.036784,15.4113734 C36.5017395,15.0158226 37.0049854,14.6683422 37.5410517,14.3689323 C37.8282301,14.2233476 38.1072033,14.0626551 38.3779715,13.8841078 C38.4436123,13.834664 38.5297658,13.7632451 38.6008766,13.706934 C38.9318155,13.5036649 39.1164302,13.1287157 39.0726697,12.7441524 C39.0302767,12.3595891 38.7677136,12.0354572 38.3984843,11.9063538 C38.0278874,11.7786239 37.6162651,11.8733913 37.3413943,12.1480793 C37.271651,12.2002701 37.1800274,12.2716889 37.1171217,12.3238797 C36.8819089,12.5436301 36.6617388,12.777115 36.4538764,13.0215873 C36.0531942,13.4720758 35.610119,13.8868547 35.1287533,14.2535633 C34.9359335,14.3318494 34.722601,14.3538244 34.5161061,14.3194884 L34.1332016,14.5914296 C31.9178255,12.2964109 28.9352729,10.8749002 25.7393878,10.590598 C25.7393878,10.4560009 25.7202426,10.2183957 25.7161401,10.1456034 C25.543833,10.028861 25.4248591,9.85031373 25.3852012,9.648418 C25.3646884,9.04273084 25.4029789,8.43704367 25.50144,7.83822371 C25.5657133,7.52507932 25.6122088,7.20918806 25.6395592,6.89054991 L25.6395592,6.60624777 C25.6696445,6.03077629 25.2279368,5.53771123 24.6467425,5.49788146 L24.6262297,5.49376114 C24.0450354,5.53496435 23.6033277,6.02802941 23.6347806,6.60350089 Z M26.6980166,19.2446453 C26.3903255,19.1018075 26.1934032,18.7969037 26.1906681,18.4617843 L25.8925496,13.2344706 C28.1735665,13.513279 30.2986865,14.5255045 31.9410733,16.1159483 L27.6361326,19.1388904 C27.4747657,19.2652469 27.2792109,19.3297986 27.0809211,19.3297986 C26.9523746,19.3297986 26.8210931,19.3023298 26.6980166,19.2446453 Z M21.6245319,19.1416373 L17.2799333,16.099467 C18.6624921,14.7562424 20.39787,13.8236765 22.2905123,13.4034037 C22.6433314,13.329238 23.0016206,13.2729269 23.3626449,13.2344706 L23.0604238,18.4672781 L23.037176,18.4672781 C23.0235009,18.79141 22.8306811,19.0812059 22.5352976,19.2212968 C22.4122212,19.2803547 22.2795721,19.309197 22.1469231,19.309197 C21.9609409,19.309197 21.7776937,19.2528859 21.6245319,19.1416373 Z M29.9376622,23.0998922 L29.9376622,23.0792906 C29.621766,22.9941373 29.3783481,22.7427977 29.3045023,22.4282799 C29.2320239,22.1110152 29.3400577,21.7813895 29.5875781,21.5685062 L33.530127,18.0813414 L33.5246569,18.0689804 C34.7308061,20.0096515 35.2655049,22.2840686 35.0425998,24.5516185 L29.9376622,23.0998922 Z M15.7004522,18.0689804 L19.6730865,21.5712531 L19.6730865,21.5932282 C19.9206069,21.8074848 20.0286406,22.1371105 19.9547948,22.4543752 C19.8809489,22.768893 19.6388986,23.0202326 19.3230023,23.1053859 L19.3230023,23.1218672 L14.2235348,24.5708467 C13.9705444,22.3019234 14.4902005,20.0137718 15.7004522,18.0689804 Z M23.1465773,24.6463859 L22.8019633,23.0875312 L23.8125577,21.8431943 L25.4385343,21.8431943 L26.431351,23.0889046 L26.0703267,24.6463859 L24.6098195,25.3399733 L23.1465773,24.6463859 Z M28.2419423,27.3451961 C28.1284384,27.0801221 28.1530537,26.7779652 28.3062155,26.5348663 C28.4593773,26.2890205 28.7233079,26.1351952 29.0132213,26.1187139 L29.0214264,26.0953654 C29.0884347,26.0884982 29.1581781,26.0884982 29.2251863,26.0953654 L34.4832857,26.9729938 C33.7106391,29.1320419 32.2282517,30.9738253 30.2754387,32.2058012 L28.2419423,27.3451961 Z M20.1900075,26.1187139 C20.4867585,26.1228342 20.7616293,26.2739127 20.9243637,26.5197585 C21.0857306,26.7656043 21.1117134,27.0760018 20.9954745,27.3451961 L20.9954745,27.3644242 L18.9742857,32.1865731 C17.043353,30.9614643 15.5732732,29.141656 14.7937891,27.0073298 L20.0040254,26.1351952 C20.0628285,26.1297014 20.1216317,26.1297014 20.1804349,26.1351952 L20.1900075,26.1187139 Z M21.2717128,33.2660971 L23.8358054,28.6870472 C23.9903348,28.4178529 24.2802482,28.2502932 24.5934093,28.2447995 L24.5934093,28.2310651 C24.9311858,28.221451 25.2457145,28.3999982 25.4084489,28.692541 L25.4275942,28.692541 L27.9971569,33.2729643 C27.6593804,33.384213 27.3175014,33.4803538 26.9701523,33.5572665 C26.2029758,33.73032 25.4207566,33.8168467 24.6412724,33.8168467 C23.500764,33.8168467 22.3629906,33.6328057 21.2717128,33.2660971 Z" id="path-3"></path>
        <path d="M0.469075981,0.735016043 L2.52404819,0.368983957 L2.52404819,7.04316578 L2.52601279,7.04316578 L3.15370267,6.28847059 C3.36980874,6.02477005 3.5780564,5.7659893 3.78139256,5.50917647 L4.35309133,4.7771123 C4.53186998,4.5448984 4.68707342,4.34318717 4.81575476,4.17197861 L7.25775328,4.17197861 C6.76955004,4.78990374 6.2941167,5.37831016 5.83047096,5.93818182 C5.36682522,6.49903743 4.85799367,7.07760428 4.30692321,7.67486631 C4.6094717,7.98087701 4.89433878,8.30951872 5.15759526,8.65783957 C5.45130305,9.03764706 5.73518783,9.42827807 6.00826731,9.83071658 C6.28232909,10.2321711 6.53576257,10.6375615 6.76660314,11.0478717 C6.9964614,11.454246 7.18997456,11.8251979 7.34517801,12.1607273 L4.98274581,12.1607273 C4.84129457,11.8960428 4.67430352,11.6028235 4.48177266,11.2830374 C4.28825951,10.9622674 4.09081715,10.6474011 3.88748099,10.3394225 C3.67726873,10.0265241 3.45330426,9.71952941 3.22049909,9.41745455 C3.00832223,9.14785027 2.77551706,8.89792513 2.52404819,8.67161497 L2.52404819,12.1764706 L0.469075981,12.1764706 L0.469075981,0.735016043 Z M12.9462543,4.30481283 L15.2035803,4.30481283 L15.2035803,12.6635294 C14.7153771,12.8081711 14.2202977,12.9213262 13.7193246,13.0010267 C13.0877055,13.1082781 12.4511749,13.1604278 11.8126797,13.1584599 C11.2370518,13.1771551 10.6633884,13.0758075 10.1231232,12.8603209 C9.7066279,12.6900963 9.33924759,12.4027807 9.05438051,12.0308449 C8.78326563,11.6569412 8.59269937,11.224 8.49348704,10.7615401 C8.37855791,10.2272513 8.32256679,9.68017112 8.3284606,9.13210695 L8.3284606,4.30678075 L10.5857867,4.30678075 L10.5857867,8.83003209 C10.5857867,9.61916578 10.6810698,10.1908449 10.8726183,10.5401497 C11.0641669,10.8914225 11.4236888,11.0665668 11.9472549,11.0665668 C12.1034406,11.0665668 12.2743609,11.0577112 12.4619802,11.040984 C12.6486173,11.0242567 12.8106968,11.0045775 12.9462543,10.9819465 L12.9462543,4.30481283 Z M18.1504812,0.759614973 L18.1504812,12.672385 C18.3410474,12.7363422 18.5581358,12.7993155 18.800764,12.8603209 C19.0433922,12.9203422 19.2987902,12.971508 19.5669582,13.0148021 C19.8341439,13.0580963 20.1052588,13.0935187 20.3812851,13.1191016 C20.6573115,13.1466524 20.9215503,13.1594439 21.1749838,13.1594439 C21.7309657,13.1702674 22.2830185,13.063016 22.8056023,12.8435936 C23.2604073,12.649754 23.6729734,12.3427594 24.0138316,11.9442567 C24.348796,11.5408342 24.6061587,11.0606631 24.7662736,10.533262 C24.9450523,9.93895187 25.0334593,9.31413904 25.0256009,8.68539037 C25.0314947,8.07041711 24.9597868,7.45839572 24.8134241,6.86703743 C24.6886719,6.35734759 24.479442,5.88012834 24.1955572,5.46391444 C23.9254246,5.07623529 23.5776903,4.76628877 23.1828056,4.56260963 C22.7437173,4.34417112 22.2692663,4.23691979 21.7908861,4.24774332 C21.5168243,4.2457754 21.2437448,4.27922995 20.9755768,4.34613904 C20.7250902,4.41009626 20.4795152,4.50160428 20.2447454,4.6206631 L20.2447454,0.368983957 L18.1504812,0.759614973 Z M21.1602493,11.1010053 C20.9726299,11.1010053 20.7977805,11.0931337 20.6396301,11.0764064 C20.4804975,11.0596791 20.3498515,11.04 20.2476923,11.0183529 L20.2476923,6.63383957 C20.406825,6.52068449 20.5797098,6.43704813 20.7614354,6.3848984 C20.969683,6.31995722 21.1848068,6.28650267 21.3999305,6.28650267 C22.3940184,6.28650267 22.8900801,7.06481283 22.8900801,8.6204492 C22.9195491,9.25805348 22.7692572,9.88975401 22.4608149,10.4210909 C22.1759478,10.8540321 21.7329303,11.1059251 21.2653554,11.1059251 C21.2299926,11.1059251 21.1956121,11.1039572 21.1602493,11.1010053 Z M28.21513,4.59409626 C27.7956877,4.78104813 27.4145552,5.06541176 27.0943253,5.42947594 C26.7544494,5.83093048 26.4862814,6.30716578 26.3084851,6.8286631 C26.0992551,7.45249198 25.9970959,8.1166631 26.0098658,8.78673797 C26.0069189,9.37514439 26.0864852,9.96059893 26.2466002,10.5204706 C26.390016,11.0360642 26.6316619,11.5083636 26.9548387,11.9039144 C27.2947146,12.3093048 27.7092453,12.6222032 28.1660149,12.8239144 C28.7161031,13.0600642 29.2986072,13.1742032 29.8850404,13.1594439 C30.1443677,13.1594439 30.4056596,13.1437005 30.6640046,13.1122139 C30.9233319,13.0797433 31.1669423,13.0394011 31.394836,12.9911872 C31.6030837,12.948877 31.8093667,12.8927914 32.0127029,12.8239144 C32.1659417,12.7737326 32.3142691,12.7097754 32.4576849,12.6310588 L32.1787116,10.6975829 C31.8899153,10.8343529 31.5883491,10.9337326 31.2808892,10.993754 C30.9105619,11.0744385 30.5353232,11.1147807 30.1591022,11.1147807 C29.6581291,11.1433155 29.1620674,10.9927701 28.7396783,10.6828235 C28.3978378,10.4171551 28.1778025,9.98913369 28.1404751,9.51585027 L32.8447112,9.51585027 C32.8545342,9.38990374 32.8633749,9.24329412 32.8722156,9.07700535 C32.8810563,8.91071658 32.8849855,8.75918717 32.8849855,8.62143316 C32.8849855,7.2035508 32.5834193,6.13005348 31.980287,5.39995722 C31.3781369,4.66986096 30.5569338,4.30481283 29.5176601,4.30481283 C29.0716958,4.30481283 28.6296607,4.40320856 28.21513,4.59409626 Z M30.1502615,6.40654545 C30.3064473,6.4951016 30.442987,6.62006417 30.5549692,6.77454545 C30.66204,6.92410695 30.7425886,7.09826738 30.7907213,7.28423529 C30.8418009,7.47610695 30.8722522,7.67486631 30.8810929,7.87559358 L30.8810929,7.87854545 L28.1385105,7.87854545 C28.1669972,7.67486631 28.2112008,7.47413904 28.2711211,7.27931551 C28.3290768,7.08842781 28.4155192,6.91229947 28.529466,6.75880214 C28.6443952,6.60628877 28.7868287,6.48427807 28.9459614,6.3986738 C29.1335807,6.30322995 29.3388815,6.25698396 29.5451645,6.2628877 C29.7534122,6.25501604 29.9616599,6.3042139 30.1502615,6.40654545 Z M37.1825493,4.51144385 C37.7296906,4.3746738 38.2896017,4.30481283 38.8495129,4.30481283 C38.876035,4.30481283 38.9025571,4.30481283 38.9300615,4.30481283 C39.0459729,4.30481283 39.1854596,4.31465241 39.3475391,4.33137968 C39.5115833,4.34810695 39.6736628,4.36975401 39.8367247,4.39730481 C39.9997865,4.42387166 40.1628484,4.4573262 40.3259102,4.49668449 C40.4683438,4.52817112 40.6088127,4.57441711 40.7433878,4.63640642 L40.3858305,6.6653262 C40.1932997,6.61120856 39.9712998,6.55413904 39.7188486,6.49313369 C39.4438046,6.43016043 39.1648313,6.3986738 38.8848757,6.40064171 C38.7227962,6.40260963 38.5616989,6.41638503 38.4025663,6.44098396 C38.2581681,6.45967914 38.1167169,6.49018182 37.9772302,6.53347594 L37.9772302,13.1604278 L35.8318864,13.1604278 L35.8318864,4.9473369 C36.2749038,4.77514439 36.7257797,4.62853476 37.1825493,4.51144385 Z M46.098889,4.30678075 C46.1440748,4.30481283 46.190243,4.30481283 46.2364111,4.30481283 C46.7648886,4.30481283 47.2914016,4.40320856 47.7904101,4.59704813 C48.2049408,4.76235294 48.5742858,5.04278075 48.8571882,5.41176471 C49.1273208,5.77779679 49.3178871,6.20483422 49.4180817,6.66139037 C49.5330108,7.18879144 49.589002,7.73095187 49.5831081,8.2731123 L49.5831081,13.1604278 L47.3238175,13.1604278 L47.3238175,8.56731551 C47.3238175,7.77719786 47.2285344,7.2173262 47.0360035,6.88966845 C46.8454372,6.56102674 46.4878799,6.39670588 45.9623493,6.39670588 C45.8071458,6.39670588 45.6362256,6.40457754 45.4486062,6.42130481 C45.2619692,6.43901604 45.1008719,6.45771123 44.9662968,6.48034225 L44.9662968,13.1604278 L42.7109353,13.1604278 L42.7109353,4.80171123 L42.7079884,4.80171123 C43.1952094,4.65805348 43.691271,4.5448984 44.1902796,4.46519786 C44.8218986,4.35794652 45.4594115,4.30481283 46.098889,4.30678075 Z M53.750026,4.59409626 C53.3325484,4.78203209 52.9523981,5.06639572 52.6351151,5.42947594 C52.2952392,5.83093048 52.0270713,6.30716578 51.8482926,6.8286631 C51.6390627,7.45249198 51.5369034,8.1166631 51.5496733,8.78673797 C51.5447618,9.37219251 51.6233459,9.95469519 51.7795316,10.5135829 C51.9219651,11.0311444 52.1626287,11.5063957 52.4848232,11.9039144 C52.8266637,12.3093048 53.2402121,12.6222032 53.6979641,12.8239144 C54.2480522,13.0600642 54.8315386,13.1742032 55.4179719,13.1594439 C55.6792637,13.1594439 55.9395733,13.1437005 56.1989006,13.1122139 C56.4582279,13.0797433 56.7018383,13.0394011 56.929732,12.9911872 C57.1399443,12.948877 57.345245,12.8927914 57.5495635,12.8239144 C57.7028023,12.7737326 57.8511297,12.7097754 57.9945455,12.6310588 L57.7155722,10.6975829 C57.4257937,10.8343529 57.1242275,10.9337326 56.8157852,10.993754 C56.4464403,11.0744385 56.0702193,11.1147807 55.6930159,11.1147807 C55.1920428,11.1433155 54.6949989,10.9927701 54.2716274,10.6828235 C53.9297869,10.4171551 53.7097517,9.98913369 53.6724243,9.51585027 L58.3815718,9.51585027 C58.3904125,9.38990374 58.3992532,9.24329412 58.4100586,9.07700535 C58.4198816,8.91071658 58.4247931,8.75918717 58.4247931,8.62143316 C58.4247931,7.2035508 58.1232269,6.13005348 57.5191122,5.39995722 C56.9159798,4.66986096 56.0937945,4.30481283 55.0535385,4.30481283 C54.6065918,4.30481283 54.1635744,4.40320856 53.750026,4.59409626 Z M55.6959629,6.40654545 C55.850184,6.4951016 55.9886883,6.62006417 56.0996883,6.77454545 C56.2077413,6.92410695 56.2882899,7.09826738 56.3364226,7.28423529 C56.3884846,7.47610695 56.4179536,7.67486631 56.4267943,7.87559358 L56.4267943,7.87854545 L53.6802827,7.87854545 C53.7097517,7.67486631 53.7539552,7.47413904 53.8138755,7.27931551 C53.8708489,7.08842781 53.9582736,6.91229947 54.0722205,6.75880214 C54.1881319,6.60628877 54.3295831,6.48427807 54.4887158,6.3986738 C54.6782998,6.30322995 54.8836005,6.25698396 55.0898836,6.2628877 C55.2981312,6.25501604 55.5063789,6.3042139 55.6959629,6.40654545 Z M60.3923405,2.71375401 L62.4895517,2.3368984 L62.4895517,4.7495615 L65.0081696,4.7495615 L65.0081696,6.68106952 L62.4895517,6.68106952 L62.4895517,9.57685561 C62.4718702,9.98322995 62.5524189,10.3896043 62.7213745,10.7507166 C62.876578,11.040984 63.1879672,11.1866096 63.6575067,11.1866096 C63.8903119,11.1866096 64.1250816,11.1629947 64.3539576,11.1167487 C64.5759575,11.0744385 64.7950104,11.0094973 65.0052227,10.9209412 L65.3008951,12.7363422 C65.0268333,12.8583529 64.7449131,12.9577326 64.4561168,13.0334973 C64.0818604,13.1240214 63.6997456,13.1663316 63.3156662,13.1584599 C62.8333568,13.1751872 62.350065,13.087615 61.8972246,12.8996791 C61.5455611,12.7471658 61.2351542,12.4982246 60.9954729,12.1764706 C60.7616854,11.8497968 60.6005882,11.4670374 60.5239688,11.0586952 C60.4306502,10.5834439 60.3854644,10.097369 60.3893936,9.61031016 L60.3893936,2.71375401 L60.3923405,2.71375401 Z M68.4904241,4.59409626 C68.0699996,4.78104813 67.6878848,5.06639572 67.3686372,5.43045989 C67.027779,5.83191444 66.7605933,6.30716578 66.582797,6.82964706 C66.373567,7.45445989 66.2723901,8.12059893 66.2841777,8.78968984 C66.2792662,9.37612834 66.3558856,9.95961497 66.5120713,10.5185027 C66.6584341,11.0350802 66.9030269,11.5083636 67.2281682,11.9029305 C67.5700087,12.3073369 67.9825749,12.6222032 68.4403268,12.8239144 C68.9894327,13.0600642 69.5719367,13.1742032 70.15837,13.1594439 C70.4196619,13.1594439 70.6789892,13.1437005 70.9383164,13.1122139 C71.1976437,13.0797433 71.4412542,13.0384171 71.6681656,12.9911872 C71.8773955,12.948877 72.0836786,12.8927914 72.2870147,12.8239144 C72.4402536,12.7737326 72.5885809,12.7097754 72.7319968,12.6310588 L72.4530235,10.695615 C72.1642272,10.832385 71.862661,10.9317647 71.555201,10.9917861 C71.1848738,11.0724706 70.8096351,11.1128128 70.4334141,11.1128128 C69.9334232,11.1423316 69.4363793,10.9917861 69.0139902,10.6808556 C68.6711674,10.4151872 68.4501498,9.98618182 68.4128224,9.5128984 L73.1160762,9.5128984 C73.1249169,9.38695187 73.1337576,9.23935829 73.1445629,9.07405348 C73.1543859,8.90776471 73.1592974,8.75623529 73.1592974,8.61749733 C73.1592974,7.2035508 72.8587135,6.13103743 72.2555811,5.40094118 C71.6524488,4.66986096 70.8312457,4.30481283 69.791972,4.30481283 C69.3460077,4.30481283 68.9039725,4.40320856 68.4904241,4.59409626 Z M70.4314495,6.41048128 C70.5866529,6.50002139 70.724175,6.62498396 70.8351749,6.77749733 C70.9422456,6.92902674 71.0227943,7.10318717 71.0719093,7.29013904 C71.1229889,7.4820107 71.1534402,7.6797861 71.1622809,7.88248128 L68.4088932,7.88248128 C68.4373799,7.67781818 68.4815834,7.47610695 68.5415037,7.28128342 C68.5984772,7.09137968 68.6859019,6.91525134 68.7998487,6.76077005 C68.9177247,6.60825668 69.0640875,6.48526203 69.226167,6.40359358 C69.4147687,6.30716578 69.6200695,6.26091979 69.8263525,6.26682353 C70.0346002,6.25895187 70.2428478,6.30814973 70.4314495,6.41048128 Z M79.2957273,4.30481283 C79.3055503,4.30481283 79.3134087,4.30481283 79.3222494,4.30481283 C79.7642845,4.30481283 80.207302,4.35007487 80.6434433,4.43961497 C80.9901953,4.50750802 81.3300712,4.6068877 81.6620887,4.73677005 L81.2848854,6.59054545 C81.0157351,6.49313369 80.7416733,6.41048128 80.4636823,6.34357219 C80.1365764,6.26583957 79.801612,6.2284492 79.4666476,6.23336898 C78.7868958,6.23336898 78.4470199,6.44098396 78.4470199,6.8562139 C78.4470199,6.94083422 78.4617544,7.02447059 78.4912234,7.10417112 C78.5305154,7.19075936 78.5904357,7.26455615 78.6660728,7.31768984 C78.7790374,7.40427807 78.8978957,7.47807487 79.0226478,7.54203209 C79.1719575,7.62271658 79.3644883,7.71225668 79.5963112,7.80868449 C80.0029835,7.96808556 80.3959036,8.15897326 80.7760538,8.38036364 C81.0491333,8.53779679 81.2976553,8.74344385 81.5098322,8.99041711 C81.682717,9.19704813 81.8123806,9.44402139 81.8870355,9.71460963 C81.9646372,10.0147166 82.0009823,10.327615 81.9970531,10.6385455 C82.0343805,11.3863529 81.7112037,12.1007059 81.146381,12.5208556 C80.5786115,12.9439572 79.7770544,13.1574759 78.738763,13.1594439 C78.1700112,13.1712513 77.600277,13.1072941 77.044295,12.9656043 C76.7250474,12.8849198 76.4116937,12.7776684 76.1061983,12.6458182 L76.4696494,10.7133262 C76.838012,10.8727273 77.2171799,10.9986738 77.6032239,11.0882139 C77.9784626,11.1738182 78.3605774,11.2151444 78.7446568,11.2131765 C79.0305062,11.2328556 79.3173379,11.1885775 79.5874705,11.085262 C79.7554438,10.993754 79.8546562,10.7969626 79.8359925,10.5922995 C79.8163465,10.3768128 79.6935589,10.188877 79.513798,10.0983529 C79.2033911,9.90352941 78.8772674,9.73920856 78.5393561,9.60637433 C78.2260023,9.47944385 77.9165777,9.33480214 77.6150115,9.17540107 C77.3556842,9.03863102 77.1179676,8.85758289 76.9097199,8.63914439 C76.7152244,8.4295615 76.5629679,8.17766845 76.4608087,7.90019251 C76.3478441,7.56761497 76.2928353,7.21634225 76.3006937,6.86211765 C76.2761362,6.13300535 76.5737732,5.43636364 77.1012685,4.99259893 C77.6336752,4.53407487 78.3654889,4.30481283 79.2957273,4.30481283 Z" id="path-5"></path>
    </defs>
    <g id="Artboard" stroke="none" stroke-width="1" fill="none" fill-rule="evenodd" transform="translate(-1009.000000, -25.000000)">
        <g id="Group-8" transform="translate(1009.000000, 25.000000)">
            <g id="Group-7" transform="translate(16.119658, 0.000000)">
                <g id="Group-2">
                    <mask id="mask-2" fill="white">
                        <use xlink:href="#path-1"></use>
                    </mask>
                    <g id="Clip-2"></g>
                    <polygon id="Fill-1" fill="#326CE5" mask="url(#mask-2)" points="-6.83758045 53.5641711 56.0681597 53.5641711 56.0681597 -6.86720143 -6.83758045 -6.86720143"></polygon>
                    <mask id="mask-4" fill="white">
                        <use xlink:href="#path-3"></use>
                    </mask>
                    <g id="Clip-5"></g>
                    <polygon id="Fill-4" fill="#FFFFFF" mask="url(#mask-4)" points="0 46.6969697 49.2305792 46.6969697 49.2305792 -1.37344029 0 -1.37344029"></polygon>
                    <path d="M24.62664,5.49376114 C24.0454457,5.53359091 23.6023704,6.02802941 23.6338233,6.60350089 L23.6338233,6.62959626 L23.6338233,6.88368271 C23.6611736,7.20232086 23.7076692,7.51958556 23.7719424,7.83272995 C23.8649335,8.43292335 23.8991214,9.03998396 23.8717711,9.64429768 C23.8143354,9.84481996 23.6994641,10.0247406 23.5408322,10.1620847 L23.5175844,10.5837308 C22.9035697,10.6345481 22.2936575,10.7279421 21.693318,10.8611658 C19.1661482,11.4242763 16.8673537,12.7208039 15.0909503,14.5845624 L14.727191,14.3291025 C14.5261662,14.3881604 14.3114661,14.3661854 14.1268515,14.2700446 C13.6345457,13.9102032 13.1791628,13.5036649 12.7661729,13.0572968 C12.559678,12.8128244 12.3381404,12.5793396 12.1042952,12.3609626 C12.0413894,12.3073984 11.9483983,12.2359795 11.878655,12.1837888 C11.6789977,12.0244697 11.4342123,11.9324492 11.1771193,11.9214617 C10.8666931,11.9063538 10.5685746,12.0368307 10.3730198,12.2744358 C10.0311408,12.7496462 10.1419096,13.4075241 10.6205402,13.7467638 C10.6875485,13.7989545 10.7695995,13.8676266 10.8297702,13.9143235 C11.0991708,14.0914973 11.3781441,14.2521898 11.66669,14.3977745 C12.2054914,14.6930642 12.7114723,15.0391711 13.1805303,15.431975 C13.3008717,15.6009082 13.3706151,15.800057 13.3829227,16.0074465 L13.7138616,16.2917487 C11.9278856,18.9383681 11.194897,22.1439777 11.6543824,25.2919029 L11.2304524,25.4113922 C11.1196836,25.5858191 10.9719918,25.7327772 10.7969498,25.8440258 C10.2034478,26.000598 9.59763817,26.0981123 8.98499096,26.1379421 C8.66088965,26.1448093 8.33678833,26.1695312 8.01542205,26.2134813 L7.7473889,26.2752861 L7.71730355,26.2752861 C7.33576656,26.3261034 7.01713531,26.5843102 6.89269134,26.9441515 C6.76687986,27.3026194 6.85987096,27.7009171 7.13063914,27.9714848 C7.40003981,28.2406791 7.80208954,28.33682 8.16721634,28.2187041 L8.18772908,28.2187041 L8.46259981,28.1884884 C8.77029093,28.0978414 9.07251199,27.9879661 9.36926298,27.8616096 C9.93814967,27.6363654 10.5275491,27.4646854 11.1306237,27.3520633 C11.3398537,27.3644242 11.5408785,27.4344697 11.7104505,27.553959 L12.1507907,27.4797932 C13.1367698,30.5013619 15.2085567,33.0614545 17.9750417,34.6766203 L17.7890595,35.0584367 C17.8752131,35.2328636 17.9052984,35.4292656 17.8779481,35.6215472 C17.6276926,36.1942718 17.321369,36.7422745 16.9644473,37.2573146 C16.7688925,37.5127745 16.5870129,37.7792219 16.4215435,38.0552834 C16.3818855,38.1308226 16.3326549,38.2448182 16.2929969,38.3231043 C16.1001772,38.6499831 16.1083823,39.0565214 16.3176122,39.3737861 C16.5268422,39.6910508 16.8988066,39.8654777 17.278976,39.8242745 C17.6591455,39.7816979 17.9846143,39.5317317 18.1172634,39.1773841 C18.1569214,39.099098 18.2102545,38.9974635 18.2430749,38.9219242 C18.3579462,38.6225143 18.4550399,38.3162371 18.5343558,38.0058396 C18.802389,37.352082 18.9487132,36.6488806 19.316575,36.2135 C19.4355489,36.1022513 19.5873432,36.029459 19.7500776,36.0033636 L19.9784528,35.5954519 C22.9760481,36.7340339 26.2950096,36.7422745 29.2994425,35.6188004 L29.5004673,36.0006168 C29.7069623,36.0322059 29.8929444,36.1420811 30.0173884,36.3082674 C30.3031993,36.8439091 30.5343095,37.4056462 30.7093516,37.9866114 C30.790035,38.2970089 30.8884962,38.6032861 31.004735,38.9026961 C31.0361879,38.9768619 31.0908885,39.0784964 31.129179,39.158156 C31.2631956,39.5125036 31.5872969,39.7624697 31.9688339,39.8036729 C32.3490033,39.8462496 32.7209677,39.6718226 32.9288302,39.3545579 C33.1380601,39.0372932 33.1476327,38.6307549 32.9534455,38.3038761 C32.915155,38.22559 32.8618219,38.1115945 32.8221639,38.0346818 C32.6566945,37.7599938 32.4748148,37.4949198 32.27926,37.2408333 C31.9291759,36.7422745 31.6296899,36.2121266 31.3849045,35.6572567 C31.3356739,35.4526141 31.3725969,35.236984 31.4874682,35.0584367 C31.423195,34.9279599 31.3657593,34.7933627 31.3192637,34.6560187 C34.0802787,33.0298654 36.142493,30.4615321 37.1161644,27.4344697 L37.546932,27.5086355 C37.7014613,27.369918 37.9038537,27.2957522 38.1130837,27.3026194 C38.7161583,27.4152415 39.3055577,27.5869216 39.8744444,27.8121658 C40.1698279,27.9453895 40.4720489,28.0621319 40.7811075,28.1596462 C40.8549534,28.1802478 40.9602522,28.1953556 41.0436706,28.2145838 L41.0628159,28.2145838 C41.4279427,28.3340731 41.8299924,28.2393057 42.1007606,27.968738 C42.3701612,27.6981702 42.4631523,27.2998725 42.3387084,26.9414046 C42.2142644,26.5815633 41.8942656,26.3233565 41.5140962,26.2725392 C41.4279427,26.2533111 41.3048662,26.2203485 41.2187127,26.2038672 C40.8973464,26.1599171 40.5732451,26.1351952 40.2491438,26.128328 C39.6364966,26.0884982 39.030687,25.9896105 38.437185,25.8344118 C38.2539378,25.7327772 38.1021435,25.5830722 38.0009473,25.4017781 L37.5934275,25.2850357 C38.0296652,22.138484 37.2816339,18.9424884 35.4901878,16.3054831 L35.848477,15.9786043 C35.8334343,15.7725882 35.9018101,15.5693191 36.0371942,15.4127469 C36.5021497,15.0171961 37.0053956,14.6669688 37.5400944,14.3689323 C37.8286403,14.2233476 38.1076136,14.0612816 38.3783818,13.8841078 C38.4440226,13.834664 38.5301761,13.7632451 38.5999194,13.706934 C38.9322258,13.5036649 39.1168405,13.1287157 39.07308,12.7441524 C39.030687,12.3609626 38.7667563,12.0340838 38.397527,11.9063538 C38.0282977,11.7799973 37.6180428,11.8733913 37.3418046,12.1480793 C37.2720613,12.2002701 37.1790702,12.2716889 37.1161644,12.3238797 C36.8823192,12.5436301 36.6607816,12.7757415 36.4542866,13.0202139 C36.0536044,13.4734492 35.6105292,13.8854813 35.1291636,14.2535633 C34.9363438,14.3318494 34.7230113,14.3538244 34.5165163,14.3194884 L34.1336118,14.5914296 C31.9182358,12.2964109 28.9356832,10.8749002 25.7384306,10.590598 C25.7384306,10.4560009 25.7192853,10.2170223 25.7165503,10.1456034 C25.5442433,10.028861 25.4252694,9.85031373 25.3856114,9.648418 C25.3650987,9.04273084 25.4033891,8.43704367 25.5004828,7.83959715 C25.5661235,7.52507932 25.6126191,7.20918806 25.6399694,6.89054991 L25.6399694,6.60624777 C25.6700548,6.03077629 25.2283471,5.53771123 24.6471527,5.49650802 L24.62664,5.49376114 Z M23.3616876,13.2330971 L23.0608341,18.4672781 L23.0375863,18.4672781 C23.0239111,18.79141 22.8310914,19.0812059 22.5343404,19.2226702 C22.2389569,19.3627611 21.8888728,19.3325455 21.6235747,19.1416373 L17.278976,16.099467 C18.6629023,14.7576159 20.3982802,13.8236765 22.289555,13.4034037 C22.6437417,13.329238 23.0020309,13.2715535 23.3616876,13.2330971 Z M25.8915924,13.2330971 C28.1739767,13.513279 30.2990967,14.5255045 31.9414835,16.1145749 L27.6365429,19.1375169 C27.3698773,19.3476533 27.0074855,19.3902299 26.6997944,19.2460187 C26.3921033,19.1018075 26.1938134,18.7969037 26.1897109,18.4604109 L25.8915924,13.2330971 Z M15.7008625,18.067607 L19.6734967,21.5712531 L19.6734967,21.5946016 C19.9210171,21.8074848 20.0290509,22.138484 19.955205,22.4543752 C19.8827267,22.7702665 19.6393088,23.0202326 19.3220451,23.1053859 L19.3220451,23.1218672 L14.2239451,24.5722201 C13.9709546,22.3019234 14.4906107,20.0137718 15.7008625,18.067607 Z M33.5236997,18.067607 C34.7312164,20.0082781 35.2645476,22.2854421 35.04301,24.5516185 L29.9380725,23.0985187 L29.9380725,23.0792906 C29.6208087,22.9941373 29.3787584,22.7441711 29.3049125,22.4282799 C29.2310667,22.1123886 29.3404679,21.7813895 29.5866208,21.5685062 L33.5305372,18.0813414 L33.5236997,18.067607 Z M23.8129679,21.8431943 L25.437577,21.8431943 L26.4317612,23.0902781 L26.070737,24.6463859 L24.6102298,25.3399733 L23.1469876,24.6463859 L22.8023735,23.0861578 L23.8129679,21.8431943 Z M29.0204692,26.0953654 C29.088845,26.0884982 29.1572208,26.0884982 29.2255966,26.0953654 L34.483696,26.9729938 C33.7096819,29.1306684 32.2286619,30.9724519 30.275849,32.2058012 L28.2423525,27.3451961 C28.1288487,27.0814955 28.153464,26.7779652 28.3066258,26.5334929 C28.4597876,26.2903939 28.7237182,26.1351952 29.0136316,26.1187139 L29.0204692,26.0953654 Z M20.1904178,26.1187139 C20.4871688,26.1242077 20.7620395,26.2739127 20.9234064,26.5197585 C21.0847733,26.7656043 21.1121236,27.0760018 20.9945173,27.3451961 L20.9945173,27.3644242 L18.974696,32.1865731 C17.0437633,30.9600909 15.5736835,29.141656 14.7928318,27.0087032 L20.0044356,26.1351952 C20.0632388,26.1297014 20.122042,26.1297014 20.1808452,26.1351952 L20.1904178,26.1187139 Z M24.5938196,28.2324385 C24.9315961,28.221451 25.2461248,28.3999982 25.4088592,28.6939144 L25.4280044,28.6939144 L27.9975671,33.2729643 C27.6597907,33.384213 27.3179117,33.4789804 26.9705626,33.5572665 C25.0820228,33.9844064 23.1086971,33.8841453 21.272123,33.2660971 L23.8348482,28.6870472 C23.9921125,28.4178529 24.2806584,28.2502932 24.5938196,28.2447995 L24.5938196,28.2324385 Z" id="Stroke-7" stroke="#FFFFFF" stroke-width="0.831431958" mask="url(#mask-4)"></path>
                </g>
            </g>
            <g id="Clip-13-+-Clip-16-+-Clip-19-+-Clip-22-+-Clip-25-+-Clip-28-+-Clip-31-+-Clip-34-+-Clip-37-Mask" transform="translate(0.000000, 55.757576)">
                <mask id="mask-6" fill="white">
                    <use xlink:href="#path-5"></use>
                </mask>
                <use id="Mask" fill="#1D1D1D" xlink:href="#path-5"></use>
            </g>
        </g>
    </g>
</svg>