<?xml version="1.0" encoding="UTF-8"?>
<svg width="90px" height="18px" viewBox="0 0 90 18" version="1.1" xmlns="http://www.w3.org/2000/svg" xmlns:xlink="http://www.w3.org/1999/xlink">
    <!-- Generator: Sketch 48.1 (47250) - http://www.bohemiancoding.com/sketch -->
    <title>logo-pagerduty@2x</title>
    <desc>Created with Sketch.</desc>
    <defs></defs>
    <g id="Artboard" stroke="none" stroke-width="1" fill="none" fill-rule="evenodd" transform="translate(-1347.000000, -57.000000)">
        <g id="logo-pagerduty" transform="translate(1347.000000, 57.000000)" fill="#25C151" fill-rule="nonzero">
            <path d="M19.3476316,5.47346939 C18.9902518,4.74327476 18.3595798,4.19600425 17.6021053,3.95877551 C17.2816844,3.85427701 16.9480689,3.79939655 16.6121053,3.79591837 L11.3305263,3.79591837 L11.3305263,5.96326531 L16.6121053,5.96326531 C16.8621978,5.95492012 17.1051693,6.05012527 17.2871053,6.2277551 C17.4708478,6.41382097 17.5687062,6.67236025 17.5559211,6.93795918 L17.5559211,7.89061224 L13.5,7.89061224 C13.0110658,7.87490227 12.5257815,7.98248886 12.0860526,8.20408163 C11.7205227,8.3946562 11.397769,8.66247592 11.1386842,8.99020408 C10.9032391,9.29398819 10.7259929,9.64142095 10.6164474,10.0138776 C10.5142583,10.3462892 10.4599914,10.6924552 10.4553947,11.0412245 C10.4410949,11.5464477 10.545528,12.0477181 10.7597368,12.5020408 C10.943593,12.8803026 11.2026729,13.2141246 11.52,13.4816327 C11.8123758,13.7245404 12.1467268,13.9077904 12.5052632,14.0216327 C12.8255022,14.1273773 13.1591217,14.1834964 13.4952632,14.1881633 L16.6073684,14.1881633 C17.0967983,14.2036926 17.5825171,14.0956795 18.0225,13.8734694 C18.3880299,13.6828948 18.7107837,13.4150751 18.9698684,13.0873469 C19.2045214,12.7848465 19.3817155,12.4391776 19.4921053,12.0685714 C19.596713,11.7357729 19.6525943,11.3886679 19.6578947,11.0387755 L19.6578947,6.93428571 C19.6712145,6.42847235 19.5646993,5.92696538 19.3476316,5.47346939 Z M17.5559211,11.0204082 C17.5639397,11.2783049 17.4757494,11.5295159 17.3096053,11.7220408 C17.1282432,11.9170576 16.8732822,12.0200044 16.6121053,12.0036735 L13.5177632,12.0036735 C13.2713537,12.0102527 13.0311746,11.9231129 12.8427632,11.7587755 C12.6495231,11.5829803 12.5447988,11.325349 12.5585526,11.0595918 C12.5507983,10.8004831 12.6384039,10.5479819 12.8036842,10.3530612 C12.983208,10.1552543 13.2380351,10.049498 13.5,10.0640816 L17.5559211,10.0640816 L17.5559211,11.0204082 Z" id="Shape"></path>
            <path d="M37.3784211,10.1118367 C37.8700011,10.1272102 38.3577869,10.0183488 38.7994737,9.79469388 C39.5094595,9.42303083 40.0416687,8.76743461 40.2726316,7.98 C40.3755269,7.64772636 40.4302005,7.30151179 40.4348684,6.95265306 C40.4494497,6.44437973 40.3441839,5.94007295 40.1281579,5.48326531 C39.9425005,5.10481908 39.681844,4.77104529 39.3631579,4.50367347 C39.0684295,4.25749334 38.7307411,4.07209839 38.3684211,3.95755102 C38.0479118,3.85359034 37.7143154,3.79912563 37.3784211,3.79591837 L34.2473684,3.79591837 C33.7557709,3.78034658 33.2679394,3.88921817 32.8263158,4.11306122 C32.4604343,4.30521855 32.1376746,4.57471192 31.8789474,4.90408163 C31.643068,5.20859101 31.4647023,5.55627136 31.3531579,5.92897959 C31.2510199,6.2622814 31.1963675,6.60918677 31.1909211,6.95877551 L31.1909211,11.0791837 C31.1762293,11.587604 31.2819272,12.0920335 31.4988158,12.5485714 C31.8555695,13.2849026 32.4906569,13.8361314 33.2538158,14.0718367 C33.5751191,14.1785596 33.9099337,14.2355036 34.2473684,14.2408163 L40.1198684,14.2408163 L40.1198684,12.0502041 L34.2639474,12.0502041 C34.0118489,12.0583662 33.7662235,11.9668458 33.5771053,11.7942857 C33.3865109,11.6108857 33.2849201,11.349168 33.3,11.0804082 L33.3,10.1130612 L37.3784211,10.1118367 Z M33.2988158,6.96979592 C33.291358,6.70823913 33.3802454,6.45351483 33.5475,6.25714286 C33.728178,6.05907971 33.984536,5.95412509 34.2473684,5.97061224 L37.3796053,5.97061224 C37.6263416,5.9648607 37.8659591,6.0563509 38.0498684,6.22653061 C38.239101,6.40833398 38.3405966,6.66756408 38.3269737,6.93428571 C38.3345088,7.19489998 38.246045,7.44874782 38.0794737,7.6444898 C37.8986076,7.84226577 37.6423847,7.94716503 37.3796053,7.93102041 L33.2988158,7.93102041 L33.2988158,6.96979592 Z" id="Shape"></path>
            <path d="M55.6377632,14.2040816 L52.2793421,14.2040816 C51.0868421,14.2040816 50.3905263,13.7032653 50.0175,13.2820408 C49.2714474,12.4432653 49.2667105,11.3595918 49.2797368,11.0706122 L49.2797368,6.90734694 C49.2797368,5.70489796 49.7534211,4.99346939 50.1513158,4.60897959 C50.9660526,3.81918367 52.0342105,3.80571429 52.2935526,3.8155102 L56.4785526,3.8155102 L56.4785526,0.0648979592 L58.6101316,0.0648979592 L58.6101316,11.1183673 C58.6101316,12.2497959 58.1613158,12.9428571 57.7811842,13.322449 C56.9605263,14.155102 55.8592105,14.2040816 55.6377632,14.2040816 Z M51.4077632,11.1832653 C51.4077632,11.2971429 51.4314474,11.6167347 51.5913158,11.7955102 C51.7511842,11.9742857 52.0507895,11.9987755 52.2793421,11.9987755 L55.6413158,11.9987755 C56.4785526,11.9865306 56.4785526,11.3363265 56.4785526,11.1220408 L56.4785526,6.01591837 L52.2,6.01591837 C52.0815789,6.01591837 51.7713158,6.05142857 51.6078947,6.22163265 C51.48,6.34408163 51.4160526,6.57918367 51.4160526,6.90612245 L51.4077632,11.1832653 Z" id="Shape"></path>
            <path d="M2.19789474,17.9387755 L0.0663157895,17.9387755 L0.0663157895,6.85714286 C0.0663157895,5.7244898 0.516315789,5.03020408 0.895263158,4.64693878 C1.73013158,3.79591837 2.86223684,3.77265306 3.05526316,3.77387755 L6.40894737,3.77387755 C7.60263158,3.77387755 8.30368421,4.27591837 8.67434211,4.69714286 C9.42157895,5.53714286 9.42631579,6.62326531 9.41328947,6.9122449 L9.41328947,11.0840816 C9.41328947,12.2877551 8.93960526,13.0004082 8.54052632,13.3861224 C7.72460526,14.1771429 6.65644737,14.1906122 6.39592105,14.1808163 L2.19789474,14.1808163 L2.19789474,17.9387755 Z M6.48236842,11.9791837 C6.59486842,11.9791837 6.91460526,11.9461224 7.08868421,11.7722449 C7.21657895,11.6497959 7.28171053,11.4122449 7.28171053,11.0840816 L7.28171053,6.79836735 C7.28171053,6.68326531 7.25802632,6.36244898 7.09697368,6.18612245 C6.93592105,6.00979592 6.63513158,5.98163265 6.40539474,5.98163265 L3.03986842,5.98163265 C2.19789474,5.99387755 2.19789474,6.6477551 2.19789474,6.86204082 L2.19789474,11.9791837 L6.48236842,11.9791837 Z" id="Shape"></path>
            <path d="M43.4273684,14.2040816 L41.2957895,14.2040816 L41.2957895,6.87061224 C41.2957895,5.74163265 41.7446053,5.04857143 42.1247368,4.66653061 C42.9643421,3.80938776 44.1094737,3.78367347 44.2906579,3.78367347 L48.4353947,3.78367347 L48.4353947,5.9877551 L44.2776316,5.9877551 C43.4273684,6.00244898 43.4273684,6.65632653 43.4273684,6.87183673 L43.4273684,14.2040816 Z" id="Shape"></path>
            <path d="M62.7051316,14.2040816 C62.5428947,14.2040816 61.3859211,14.1710204 60.5415789,13.3065306 C60.1685526,12.9232653 59.7232895,12.2314286 59.7232895,11.1122449 L59.7232895,3.78489796 L61.8548684,3.78489796 L61.8548684,11.1171429 C61.8548684,11.5995918 62.0159211,11.757551 62.1888158,11.8518367 C62.3531749,11.9392952 62.5335761,11.9897897 62.7181579,12 L66.8877632,12 L66.8877632,3.78489796 L69.0193421,3.78489796 L69.0193421,14.2040816 L62.7051316,14.2040816 Z" id="Shape"></path>
            <path d="M26.9514474,17.8408163 L21.8889474,17.8408163 L21.8889474,15.6367347 L26.9502632,15.6367347 C27.4831579,15.6367347 27.6702632,15.4212245 27.7792105,15.2106122 C27.8780433,15.0140131 27.9368841,14.7985651 27.9521053,14.577551 L27.9521053,14.1563265 L23.9257895,14.1563265 C23.6569737,14.1661224 22.5284211,14.1563265 21.6663158,13.322449 C21.2471053,12.9171429 20.7485526,12.1677551 20.7485526,10.8967347 L20.7485526,7.05673469 C20.7402632,6.79102041 20.7544737,5.60816327 21.5775,4.71306122 C21.9694737,4.2844898 22.6918421,3.77265306 23.9080263,3.77265306 L26.9348684,3.77265306 C28.1996053,3.77265306 30.0813158,4.63959184 30.0813158,7.02612245 L30.0813158,14.5959184 C30.0789474,15.9073469 29.2310526,17.8408163 26.9514474,17.8408163 Z M22.8896053,6.97959184 L22.8896053,7.02 L22.8896053,7.03591837 L22.8896053,10.8979592 C22.8896053,11.2836735 22.9713158,11.5591837 23.1264474,11.7146939 C23.3775,11.9595918 23.8369737,11.9595918 23.8369737,11.9595918 L23.9068421,11.9595918 L27.9521053,11.9595918 L27.9521053,7.02612245 C27.9521053,6.44081633 27.7235526,6.24489796 27.5009211,6.12857143 C27.32389,6.04168235 27.1327131,5.98977072 26.9372368,5.9755102 L23.9151316,5.9755102 C23.5527632,5.9755102 23.2922368,6.05755102 23.1394737,6.22040816 C22.9286842,6.4444898 22.8884211,6.83510204 22.8896053,6.97959184 Z" id="Shape"></path>
            <path d="M86.8251316,17.8689796 L81.7697368,17.8689796 L81.7697368,15.664898 L86.8251316,15.664898 C87.3556579,15.664898 87.5415789,15.4518367 87.6540789,15.2436735 C87.7520011,15.0486018 87.8100474,14.8347783 87.8246053,14.6155102 L87.8246053,14.2102041 L83.79,14.2102041 C82.5619737,14.2102041 81.8360526,13.6946939 81.4428947,13.2612245 C80.6317105,12.3673469 80.6198684,11.1930612 80.6293421,10.917551 L80.6293421,3.79591837 L82.7609211,3.79591837 L82.7609211,11.0081633 C82.7609211,11.1526531 82.7976316,11.5383673 83.0048684,11.7612245 C83.1576316,11.9240816 83.4217105,12.0061224 83.7911842,12.0061224 L87.8246053,12.0061224 L87.8246053,3.78 L89.9561842,3.78 L89.9561842,14.6326531 C89.9467105,15.9379592 89.1059211,17.8689796 86.8251316,17.8689796 Z" id="Shape"></path>
            <polygon id="Shape" points="75.8723684 14.2138776 73.7407895 14.2138776 73.7407895 5.99387755 70.1135526 5.99387755 70.1135526 3.78979592 73.7407895 3.78979592 73.7407895 0.95877551 75.8723684 0.95877551 75.8723684 3.78979592 79.5138158 3.78979592 79.5138158 5.99387755 75.8723684 5.99387755"></polygon>
        </g>
    </g>
</svg>