<?xml version="1.0" encoding="UTF-8"?>
<svg width="120px" height="120px" viewBox="0 0 120 120" version="1.1" xmlns="http://www.w3.org/2000/svg" xmlns:xlink="http://www.w3.org/1999/xlink">
    <!-- Generator: Sketch 48.1 (47250) - http://www.bohemiancoding.com/sketch -->
    <title>Artboard 2 Copy 4@2x</title>
    <desc>Created with Sketch.</desc>
    <defs>
        <polygon id="path-1" points="0 0 59.99996 0 59.99996 59.99998 0 59.99998"></polygon>
    </defs>
    <g id="Page-1" stroke="none" stroke-width="1" fill="none" fill-rule="evenodd">
        <g id="Artboard-2-Copy-4">
            <g id="Group-19" transform="translate(0.000000, 8.000000)">
                <g id="logo-pagerduty" transform="translate(0.000000, 80.000000)" fill="#25C151" fill-rule="nonzero">
                    <path d="M25.7968421,7.29795918 C25.3203357,6.32436634 24.4794397,5.59467234 23.4694737,5.27836735 C23.0422458,5.13903601 22.5974252,5.06586206 22.1494737,5.06122449 L15.1073684,5.06122449 L15.1073684,7.95102041 L22.1494737,7.95102041 C22.4829304,7.93989349 22.8068923,8.0668337 23.0494737,8.30367347 C23.2944637,8.55176129 23.4249416,8.89648033 23.4078947,9.25061224 L23.4078947,10.5208163 L18,10.5208163 C17.3480878,10.4998697 16.701042,10.6433185 16.1147368,10.9387755 C15.6273636,11.1928749 15.1970253,11.5499679 14.8515789,11.9869388 C14.5376521,12.3919843 14.3013239,12.8552279 14.1552632,13.3518367 C14.019011,13.7950523 13.9466552,14.256607 13.9405263,14.7216327 C13.9214598,15.3952636 14.060704,16.0636241 14.3463158,16.6693878 C14.5914573,17.1737367 14.9368972,17.6188328 15.36,17.9755102 C15.7498345,18.2993871 16.1956357,18.5437205 16.6736842,18.6955102 C17.1006696,18.8365031 17.5454957,18.9113285 17.9936842,18.917551 L22.1431579,18.917551 C22.7957311,18.9382568 23.4433562,18.7942393 24.03,18.4979592 C24.5173732,18.2438598 24.9477115,17.8867668 25.2931579,17.4497959 C25.6060285,17.046462 25.8422873,16.5855702 25.9894737,16.0914286 C26.1289507,15.6476972 26.2034591,15.1848905 26.2105263,14.7183673 L26.2105263,9.24571429 C26.228286,8.57129647 26.0862657,7.90262051 25.7968421,7.29795918 Z M23.4078947,14.6938776 C23.4185863,15.0377398 23.3009992,15.3726878 23.0794737,15.6293878 C22.8376576,15.8894102 22.4977096,16.0266725 22.1494737,16.004898 L18.0236842,16.004898 C17.6951382,16.0136703 17.3748995,15.8974839 17.1236842,15.6783673 C16.8660309,15.4439737 16.7263984,15.1004653 16.7447368,14.7461224 C16.7343977,14.4006442 16.8512052,14.0639759 17.0715789,13.8040816 C17.310944,13.5403391 17.6507135,13.3993306 18,13.4187755 L23.4078947,13.4187755 L23.4078947,14.6938776 Z" id="Shape"></path>
                    <path d="M49.8378947,13.482449 C50.4933348,13.5029469 51.1437158,13.3577984 51.7326316,13.0595918 C52.6792794,12.5640411 53.3888916,11.6899128 53.6968421,10.64 C53.8340359,10.1969685 53.906934,9.73534906 53.9131579,9.27020408 C53.9325996,8.59250631 53.7922452,7.92009726 53.5042105,7.31102041 C53.2566673,6.80642544 52.9091253,6.36139373 52.4842105,6.00489796 C52.0912393,5.67665779 51.6409882,5.42946452 51.1578947,5.27673469 C50.7305491,5.13812045 50.2857539,5.06550083 49.8378947,5.06122449 L45.6631579,5.06122449 C45.0076945,5.04046211 44.3572526,5.18562422 43.7684211,5.48408163 C43.280579,5.74029141 42.8502328,6.09961589 42.5052632,6.53877551 C42.1907573,6.94478801 41.9529364,7.40836181 41.8042105,7.90530612 C41.6680265,8.34970853 41.5951567,8.81224903 41.5878947,9.27836735 L41.5878947,14.7722449 C41.5683057,15.4501387 41.7092362,16.1227114 41.9984211,16.7314286 C42.4740927,17.7132035 43.3208759,18.4481752 44.3384211,18.762449 C44.7668255,18.9047462 45.2132449,18.9806715 45.6631579,18.9877551 L53.4931579,18.9877551 L53.4931579,16.0669388 L45.6852632,16.0669388 C45.3491319,16.0778216 45.0216314,15.9557945 44.7694737,15.7257143 C44.5153478,15.481181 44.3798935,15.132224 44.4,14.7738776 L44.4,13.4840816 L49.8378947,13.482449 Z M44.3984211,9.29306122 C44.3884773,8.94431885 44.5069939,8.60468645 44.73,8.34285714 C44.9709039,8.07877295 45.3127147,7.93883346 45.6631579,7.96081633 L49.8394737,7.96081633 C50.1684555,7.95314759 50.4879455,8.07513454 50.7331579,8.30204082 C50.985468,8.54444531 51.1207955,8.89008544 51.1026316,9.24571429 C51.1126783,9.59319997 50.9947266,9.93166375 50.7726316,10.1926531 C50.5314768,10.4563544 50.1898463,10.59622 49.8394737,10.5746939 L44.3984211,10.5746939 L44.3984211,9.29306122 Z" id="Shape"></path>
                    <path d="M74.1836842,18.9387755 L69.7057895,18.9387755 C68.1157895,18.9387755 67.1873684,18.2710204 66.69,17.7093878 C65.6952632,16.5910204 65.6889474,15.1461224 65.7063158,14.7608163 L65.7063158,9.20979592 C65.7063158,7.60653061 66.3378947,6.65795918 66.8684211,6.14530612 C67.9547368,5.0922449 69.3789474,5.07428571 69.7247368,5.08734694 L75.3047368,5.08734694 L75.3047368,0.0865306122 L78.1468421,0.0865306122 L78.1468421,14.8244898 C78.1468421,16.3330612 77.5484211,17.2571429 77.0415789,17.7632653 C75.9473684,18.8734694 74.4789474,18.9387755 74.1836842,18.9387755 Z M68.5436842,14.9110204 C68.5436842,15.0628571 68.5752632,15.4889796 68.7884211,15.7273469 C69.0015789,15.9657143 69.4010526,15.9983673 69.7057895,15.9983673 L74.1884211,15.9983673 C75.3047368,15.9820408 75.3047368,15.115102 75.3047368,14.8293878 L75.3047368,8.02122449 L69.6,8.02122449 C69.4421053,8.02122449 69.0284211,8.06857143 68.8105263,8.2955102 C68.64,8.45877551 68.5547368,8.7722449 68.5547368,9.20816327 L68.5436842,14.9110204 Z" id="Shape"></path>
                    <path d="M2.93052632,23.9183673 L0.0884210526,23.9183673 L0.0884210526,9.14285714 C0.0884210526,7.63265306 0.688421053,6.70693878 1.19368421,6.19591837 C2.30684211,5.06122449 3.81631579,5.03020408 4.07368421,5.03183673 L8.54526316,5.03183673 C10.1368421,5.03183673 11.0715789,5.70122449 11.5657895,6.26285714 C12.5621053,7.38285714 12.5684211,8.83102041 12.5510526,9.21632653 L12.5510526,14.7787755 C12.5510526,16.3836735 11.9194737,17.3338776 11.3873684,17.8481633 C10.2994737,18.9028571 8.87526316,18.9208163 8.52789474,18.9077551 L2.93052632,18.9077551 L2.93052632,23.9183673 Z M8.64315789,15.9722449 C8.79315789,15.9722449 9.21947368,15.9281633 9.45157895,15.6963265 C9.62210526,15.5330612 9.70894737,15.2163265 9.70894737,14.7787755 L9.70894737,9.0644898 C9.70894737,8.91102041 9.67736842,8.48326531 9.46263158,8.24816327 C9.24789474,8.01306122 8.84684211,7.9755102 8.54052632,7.9755102 L4.05315789,7.9755102 C2.93052632,7.99183673 2.93052632,8.86367347 2.93052632,9.14938776 L2.93052632,15.9722449 L8.64315789,15.9722449 Z" id="Shape"></path>
                    <path d="M57.9031579,18.9387755 L55.0610526,18.9387755 L55.0610526,9.16081633 C55.0610526,7.6555102 55.6594737,6.73142857 56.1663158,6.22204082 C57.2857895,5.07918367 58.8126316,5.04489796 59.0542105,5.04489796 L64.5805263,5.04489796 L64.5805263,7.98367347 L59.0368421,7.98367347 C57.9031579,8.00326531 57.9031579,8.87510204 57.9031579,9.16244898 L57.9031579,18.9387755 Z" id="Shape"></path>
                    <path d="M83.6068421,18.9387755 C83.3905263,18.9387755 81.8478947,18.8946939 80.7221053,17.7420408 C80.2247368,17.2310204 79.6310526,16.3085714 79.6310526,14.8163265 L79.6310526,5.04653061 L82.4731579,5.04653061 L82.4731579,14.8228571 C82.4731579,15.4661224 82.6878947,15.6767347 82.9184211,15.802449 C83.1375665,15.9190603 83.3781014,15.9863862 83.6242105,16 L89.1836842,16 L89.1836842,5.04653061 L92.0257895,5.04653061 L92.0257895,18.9387755 L83.6068421,18.9387755 Z" id="Shape"></path>
                    <path d="M35.9352632,23.7877551 L29.1852632,23.7877551 L29.1852632,20.8489796 L35.9336842,20.8489796 C36.6442105,20.8489796 36.8936842,20.5616327 37.0389474,20.2808163 C37.1707244,20.0186841 37.2491788,19.7314201 37.2694737,19.4367347 L37.2694737,18.875102 L31.9010526,18.875102 C31.5426316,18.8881633 30.0378947,18.875102 28.8884211,17.7632653 C28.3294737,17.2228571 27.6647368,16.2236735 27.6647368,14.5289796 L27.6647368,9.40897959 C27.6536842,9.05469388 27.6726316,7.47755102 28.77,6.28408163 C29.2926316,5.71265306 30.2557895,5.03020408 31.8773684,5.03020408 L35.9131579,5.03020408 C37.5994737,5.03020408 40.1084211,6.18612245 40.1084211,9.36816327 L40.1084211,19.4612245 C40.1052632,21.2097959 38.9747368,23.7877551 35.9352632,23.7877551 Z M30.5194737,9.30612245 L30.5194737,9.36 L30.5194737,9.38122449 L30.5194737,14.5306122 C30.5194737,15.044898 30.6284211,15.4122449 30.8352632,15.6195918 C31.17,15.9461224 31.7826316,15.9461224 31.7826316,15.9461224 L31.8757895,15.9461224 L37.2694737,15.9461224 L37.2694737,9.36816327 C37.2694737,8.5877551 36.9647368,8.32653061 36.6678947,8.17142857 C36.4318533,8.05557647 36.1769508,7.98636096 35.9163158,7.96734694 L31.8868421,7.96734694 C31.4036842,7.96734694 31.0563158,8.07673469 30.8526316,8.29387755 C30.5715789,8.59265306 30.5178947,9.11346939 30.5194737,9.30612245 Z" id="Shape"></path>
                    <path d="M115.766842,23.8253061 L109.026316,23.8253061 L109.026316,20.8865306 L115.766842,20.8865306 C116.474211,20.8865306 116.722105,20.602449 116.872105,20.324898 C117.002668,20.0648024 117.080063,19.7797044 117.099474,19.4873469 L117.099474,18.9469388 L111.72,18.9469388 C110.082632,18.9469388 109.114737,18.2595918 108.590526,17.6816327 C107.508947,16.4897959 107.493158,14.9240816 107.505789,14.5567347 L107.505789,5.06122449 L110.347895,5.06122449 L110.347895,14.677551 C110.347895,14.8702041 110.396842,15.3844898 110.673158,15.6816327 C110.876842,15.8987755 111.228947,16.0081633 111.721579,16.0081633 L117.099474,16.0081633 L117.099474,5.04 L119.941579,5.04 L119.941579,19.5102041 C119.928947,21.2506122 118.807895,23.8253061 115.766842,23.8253061 Z" id="Shape"></path>
                    <polygon id="Shape" points="101.163158 18.9518367 98.3210526 18.9518367 98.3210526 7.99183673 93.4847368 7.99183673 93.4847368 5.05306122 98.3210526 5.05306122 98.3210526 1.27836735 101.163158 1.27836735 101.163158 5.05306122 106.018421 5.05306122 106.018421 7.99183673 101.163158 7.99183673"></polygon>
                </g>
                <g id="Page-1" transform="translate(30.666667, 0.000000)">
                    <g id="Group-3">
                        <mask id="mask-2" fill="white">
                            <use xlink:href="#path-1"></use>
                        </mask>
                        <g id="Clip-2"></g>
                        <path d="M45.65196,20.23418 C42.88336,20.23418 40.25996,20.22378 37.63656,20.23658 C33.89816,20.25498 31.65316,22.48658 31.63336,26.20358 C31.61996,28.73438 31.62656,31.26538 31.63116,33.79638 C31.63776,37.48798 33.82436,39.72758 37.50376,39.77838 C39.56796,39.80678 41.63316,39.79538 43.69776,39.78138 C47.50096,39.75558 49.78016,37.45978 49.78236,33.65738 C49.78656,27.19698 49.78436,20.73678 49.78176,14.27638 C49.78156,13.95338 49.75276,13.63038 49.73556,13.27018 L45.65196,13.27018 L45.65196,20.23418 Z M14.42476,39.76538 C17.26396,39.76538 19.95976,39.79458 22.65476,39.75838 C26.17056,39.71118 28.37996,37.46518 28.39556,33.96878 C28.40736,31.37178 28.39716,28.77458 28.39996,26.17738 C28.40436,22.47378 26.24176,20.26378 22.53656,20.22018 C20.60576,20.19758 18.67416,20.21418 16.74316,20.21598 C12.47396,20.21978 10.28216,22.39978 10.27756,26.66838 C10.27076,33.02798 10.27576,39.38758 10.27576,45.74698 L10.27576,46.71358 L14.42476,46.71358 L14.42476,39.76538 Z M-3.99999976e-05,59.99998 L59.99996,59.99998 L59.99996,-1.99999988e-05 L-3.99999976e-05,-1.99999988e-05 L-3.99999976e-05,59.99998 Z" id="Fill-1" fill="#00AF4D" mask="url(#mask-2)"></path>
                    </g>
                    <path d="M14.42432,35.6045 C14.42432,32.2687 14.40572,29.0469 14.43652,25.8257 C14.44512,24.9275 15.00272,24.3985 15.90492,24.3891 C18.23452,24.3647 20.56452,24.3713 22.89412,24.3931 C23.76512,24.4011 24.25392,24.8673 24.25212,25.7675 C24.24652,28.6295 24.24212,31.4915 24.22312,34.3533 C24.21712,35.2489 23.61292,35.5871 22.84032,35.5943 C20.08032,35.6203 17.32012,35.6045 14.42432,35.6045" id="Fill-4" fill="#00AF4D"></path>
                    <path d="M45.625,24.40976 C45.625,26.46376 45.6252,28.45016 45.6248,30.43656 C45.6246,31.66776 45.6312,32.89876 45.6194,34.12996 C45.6104,35.05356 45.099,35.58896 44.206,35.60316 C41.8446,35.64036 39.4818,35.63096 37.1202,35.60156 C36.2432,35.59056 35.794,35.07036 35.794,34.18796 C35.7938,31.39296 35.7936,28.59796 35.8,25.80316 C35.802,24.96836 36.2496,24.43616 37.063,24.42496 C39.8812,24.38576 42.7004,24.40976 45.625,24.40976" id="Fill-6" fill="#00AF4D"></path>
                </g>
            </g>
        </g>
    </g>
</svg>