<?xml version="1.0" encoding="UTF-8"?>
<svg width="120px" height="120px" viewBox="0 0 120 120" version="1.1" xmlns="http://www.w3.org/2000/svg" xmlns:xlink="http://www.w3.org/1999/xlink">
    <!-- Generator: Sketch 48.1 (47250) - http://www.bohemiancoding.com/sketch -->
    <title>Artboard 2 Copy 4@2x</title>
    <desc>Created with Sketch.</desc>
    <defs></defs>
    <g id="Page-1" stroke="none" stroke-width="1" fill="none" fill-rule="evenodd">
        <g id="Artboard-2-Copy-4" fill-rule="nonzero">
            <g id="qualys" transform="translate(7.000000, 0.000000)">
                <path d="M12.429569,90 C5.5681295,90.0076742 0.00777214748,95.4979696 0,102.272953 C0,106.369334 1.74351739,110.019052 5.04192088,112.828709 C8.13089072,115.459424 12.5605532,117.273055 17.6749296,118.113463 C18.4063607,117.716759 19.7893631,116.378163 20.2297379,115.461339 C16.4615191,114.819544 14.733339,114.182623 14.733339,114.182623 C15.2257132,114.13643 15.7119264,114.040063 16.1842134,113.89506 C21.2183775,112.500936 24.9086757,107.591303 24.859138,102.273127 C24.7962021,95.5059964 19.2834082,90 12.429569,90 Z M12.429569,111.012641 C7.54120061,111.012545 3.57846488,107.099611 3.57852979,102.272837 C3.57859469,97.4460635 7.54143566,93.5332333 12.429804,93.5332653 C17.3181724,93.5332974 21.2809608,97.4461795 21.2809608,102.272953 C21.275423,107.097551 17.3157336,111.007269 12.429569,111.012641 Z M104.331799,109.844634 C105.095826,109.143296 106.278598,109.143296 107.042625,109.844634 C107.752145,110.614236 107.752145,111.790517 107.042625,112.56012 C106.278328,113.26078 105.096095,113.26078 104.331799,112.56012 C103.622278,111.790517 103.622278,110.614236 104.331799,109.844634 Z M104.606107,112.298145 C105.2142,112.860658 106.160047,112.860658 106.76814,112.298145 C107.327659,111.670828 107.327659,110.730618 106.76814,110.103301 C106.158148,109.545553 105.2161,109.545553 104.606107,110.103301 C104.046978,110.730764 104.046978,111.670683 104.606107,112.298145 Z M106.493831,110.713067 C106.504238,111.002681 106.309866,111.2607 106.025955,111.334148 L106.566463,112.170726 L106.146714,112.170726 L105.654686,111.358169 L105.404705,111.358169 L105.404705,112.170726 L105.049655,112.170726 L105.049655,110.099298 L105.824102,110.099298 C106.001321,110.091802 106.174685,110.151811 106.308373,110.266927 C106.433435,110.381535 106.501236,110.544577 106.493831,110.712893 L106.493831,110.713067 Z M105.404705,110.425852 L105.404705,111.031441 L105.775974,111.031441 C105.868303,111.036461 105.959095,111.006517 106.029833,110.947713 C106.091823,110.891716 106.125735,110.811633 106.122562,110.728733 C106.122562,110.527045 106.007033,110.426142 105.775974,110.426026 L105.404705,110.425852 Z M81.166993,107.911765 L76.9688006,96.9128271 L73.2280831,96.9128271 L79.3534881,112.265768 C79.3534881,112.265768 76.6437201,118.626098 76.6447778,118.625576 C78.4276081,118.625576 80.3779148,118.501291 81.1401968,116.646405 C82.9299024,112.295882 89.162316,96.9128271 89.162316,96.9128271 L85.421246,96.9130012 L81.166993,107.911765 Z M67.135292,113.398788 C67.135292,113.398788 70.6082235,113.335252 70.6082235,111.008986 L70.6082235,90.114886 L67.135292,90.114886 L67.135292,113.398788 Z M59.9343359,99.0780792 C58.9673801,97.7466206 57.0784227,96.4543277 54.2981383,96.4543277 C49.5523862,96.4543277 45.9735038,100.098824 45.9735038,104.931519 C45.9735038,107.19042 46.7557067,109.289526 48.1760828,110.842053 C49.7124584,112.521651 51.8295363,113.409232 54.2981383,113.409232 C56.6898775,113.409232 58.7378493,112.44593 59.9343359,110.79575 L59.9343359,113.398265 C59.9343359,113.398265 63.4072675,113.343956 63.4072675,111.010204 L63.4072675,96.9123049 L59.9343359,96.9123049 L59.9343359,99.0780792 Z M54.7337532,110.181807 C52.6344807,110.181807 49.4943865,108.798475 49.445025,104.987743 L49.445025,104.960414 C49.445025,101.951098 51.6934397,99.6817527 54.674872,99.6817527 C56.9019555,99.6817527 58.7119346,100.830612 59.5205811,102.7647 C59.8465221,103.457594 59.9982573,104.217937 59.9628951,104.981128 C59.9419517,105.755917 59.7605856,106.51827 59.4299676,107.22123 C58.6132116,109.075072 56.8570013,110.181807 54.7334006,110.181807 L54.7337532,110.181807 Z M39.6471272,105.84904 C39.6471272,108.616747 38.190964,110.156393 35.5494206,110.181807 C32.8697983,110.181807 31.5675371,108.680108 31.5675371,105.591068 L31.5675371,96.9128271 L28.0954871,96.9128271 L28.0954871,106.278818 C28.0954871,107.630816 28.3262519,109.558637 29.4261311,111.066777 C30.5499858,112.607989 32.3264696,113.396176 34.7051633,113.40958 L34.8026522,113.40958 C37.6476353,113.40958 39.1126131,112.136261 39.8213026,111.146675 L39.8213026,113.398091 C39.8213026,113.398091 43.1191772,113.342563 43.1191772,111.124394 L43.1191772,96.9128271 L39.6462457,96.9128271 L39.6471272,105.84904 Z M97.4869505,103.427905 C95.6826127,102.657821 94.3708318,101.991831 94.3939259,100.958727 C94.4092632,100.275156 95.32104,99.6206543 96.2691327,99.6532053 C97.2838633,99.6880192 98.0360967,100.378727 98.4551403,100.931573 C98.4551403,100.931573 100.352031,99.3301321 100.581562,99.1590216 C99.6277085,97.5875087 97.9132251,96.6205725 96.0577598,96.6076831 C93.4044154,96.5357719 91.1924243,98.597349 91.1120938,101.217047 C91.0618509,103.468986 92.3976073,104.398343 94.1495867,105.379574 L97.0331776,106.981014 C97.6984996,107.440384 98.0122975,107.783301 97.9964313,108.490024 C97.9717506,109.597455 97.0337065,110.315318 95.8188856,110.386164 C94.9252668,110.438385 94.1913676,109.928187 93.4960762,109.209628 C92.1426906,107.811152 90.0654545,108.483409 89.4299257,108.685678 C90.7521077,111.686639 93.2519132,113.434124 95.7497795,113.488433 C98.8955151,113.556843 101.411892,111.264346 101.479235,108.269304 C101.50991,106.826963 100.869974,105.035438 97.4869505,103.427905 Z" id="Shape" fill="#262626"></path>
                <g id="Group-17" transform="translate(24.786885, 0.000000)">
                    <path d="M28.6395844,-2.35596523e-14 C47.2926748,-2.35596523e-14 56.6715785,9.78237695 56.6715785,9.78237695 C56.6715785,9.78237695 57.7438787,17.0233613 57.0594961,31.6031813 C56.0255921,53.6276711 28.6463328,66.8546819 28.643773,66.8560504 C28.6412133,66.857419 1.26241942,53.6276711 0.228282664,31.6031813 C-0.456099919,17.0233613 0.616200299,9.78237695 0.616200299,9.78237695 C0.616200299,9.78237695 9.9867266,-2.84217094e-14 28.6395844,-2.35596523e-14 Z" id="Shape" fill="#ED2E26"></path>
                    <path d="M14.642669,28.9513926 C14.642669,21.1639016 20.9235838,14.8284394 28.643773,14.8284394 C36.3791802,14.836987 42.6477918,20.9813382 42.6565122,28.5634094 C42.6565122,34.6094238 37.354118,39.5838655 33.2673696,42.140084 C34.8527822,43.0266747 38.3517202,43.9577431 41.7017276,44.2588235 C46.6670839,40.5065324 49.576073,34.7090988 49.5771304,28.5636375 C49.602121,21.2168624 45.6177422,14.4176576 39.1307096,10.7371808 C32.6436769,7.05670396 24.6441019,7.05670396 18.1570692,10.7371808 C11.6700365,14.4176576 7.6856578,21.2168624 7.71064838,28.5636375 C7.71064838,35.3967947 10.6133986,41.4669868 16.1047485,46.1184514 C21.2388978,50.4670108 28.7489553,53.3696999 37.2996652,54.7439496 C39.1519894,53.7403481 42.3204876,50.7781273 43.5084417,49.0439496 C36.3672201,48.1436735 29.608564,46.4366387 25.0782817,44.1069148 C18.1537076,40.5466387 14.642669,35.4476591 14.642669,28.9513926 Z" id="Shape" fill="#FFFFFF"></path>
                </g>
            </g>
        </g>
    </g>
</svg>