<?xml version="1.0" encoding="UTF-8"?>
<svg width="61px" height="59px" viewBox="0 0 61 59" version="1.1" xmlns="http://www.w3.org/2000/svg" xmlns:xlink="http://www.w3.org/1999/xlink">
    <!-- Generator: Sketch 48.1 (47250) - http://www.bohemiancoding.com/sketch -->
    <title>slack (1)@2x</title>
    <desc>Created with Sketch.</desc>
    <defs></defs>
    <g id="Artboard" stroke="none" stroke-width="1" fill="none" fill-rule="evenodd" transform="translate(-334.000000, -163.000000)">
        <g id="slack-(1)" transform="translate(334.000000, 163.000000)" fill-rule="nonzero">
            <path d="M5.11081869,30.6107339 C2.87042077,30.6277004 0.972566392,29.3051224 0.272798857,27.2408665 C0.246839227,27.1629071 0.222637676,27.0843839 0.200212248,27.0053555 C-0.562354938,24.3618154 0.91629138,21.5962781 3.56651819,20.710789 L46.0745414,6.60315554 C46.579267,6.45851061 47.1015945,6.38294209 47.6269977,6.37855157 C49.926933,6.36077716 51.8769845,7.71244058 52.5938792,9.82032454 L52.6574944,10.0239224 C53.4526848,12.7773408 51.4769425,15.2350575 49.1097219,16.0227872 C49.1080908,16.0239991 48.6774646,16.1682143 6.83740129,30.3194759 C6.28126851,30.50728 5.69835472,30.605612 5.11081869,30.6107339 Z" id="Shape" fill="#70CADB"></path>
            <path d="M13.081068,51.5379846 C10.8231351,51.5541432 8.91875606,50.2501475 8.22714432,48.215381 C8.20089123,48.1379769 8.17641751,48.0599918 8.15374213,47.9814859 C7.38057241,45.3064365 8.85758757,42.5118138 11.5167858,41.6251129 L54.0264401,27.3882109 C54.5757332,27.2064271 55.142969,27.1135154 55.7134671,27.1082639 C57.9775169,27.0912974 59.9667162,28.4615432 60.6685227,30.5193356 L60.7337691,30.7334365 C61.1444135,32.1557936 60.9017785,33.754279 60.0853831,35.0158585 C59.4769605,35.9538628 57.557901,36.7795652 57.557901,36.7795652 L14.8867618,51.2329918 C14.3047924,51.4281605 13.6954358,51.5313572 13.081068,51.5387926 L13.081068,51.5379846 Z" id="Shape" fill="#E01765"></path>
            <path d="M48.0737905,52.100994 C45.8133939,52.1224971 43.7959847,50.6999957 43.0763248,48.5772163 L28.8893128,6.83158028 L28.8183574,6.59728118 C28.0496733,3.93515866 29.5279119,1.15831037 32.1773231,0.27362929 C32.70745,0.097097038 33.2555197,0.00499325426 33.8072595,0.000145686696 C34.6269173,-0.00591377276 35.4200687,0.177081903 36.1671398,0.54266929 C37.4100618,1.15156615 38.3565737,2.22630201 38.7969772,3.52877091 L52.9827658,45.2707713 L53.0239526,45.4048873 C53.8207741,48.1688087 52.3457979,50.9472729 49.6963867,51.831954 C49.1730549,52.0051513 48.6255316,52.0959353 48.0737905,52.100994 Z" id="Shape" fill="#E8A723"></path>
            <path d="M27.406399,58.4754411 C25.1446986,58.4967833 23.1263359,57.0730485 22.4068944,54.9488357 L8.22355252,13.2048155 C7.77970279,11.9041507 7.87639483,10.4820036 8.49230202,9.25204615 C9.10820921,8.02208871 10.1927333,7.08536481 11.5066693,6.64848041 C12.030777,6.47492088 12.5791209,6.38386517 13.1317122,6.37863248 C15.3924889,6.35652255 17.4104575,7.77918609 18.1299935,9.90241014 L32.3137432,51.6480462 C32.7578055,52.9493396 32.6607959,54.3722041 32.0441302,55.6025287 C31.4274644,56.8328533 30.3418534,57.7694634 29.0269562,58.2055932 C28.503867,58.3792447 27.9564263,58.4701741 27.4047679,58.4750372 L27.406399,58.4750372 L27.406399,58.4754411 Z" id="Shape" fill="#3EB890"></path>
            <polygon id="Shape" fill="#CC2027" points="41.3990385 41.5665312 51.2912068 38.2160541 48.0574326 28.7027027 38.1538462 32.018035 41.3990385 41.5665312"></polygon>
            <polygon id="Shape" fill="#361238" points="20.7552081 49.6118137 30.6465608 46.2617405 27.3883192 36.6756757 17.4871795 39.9922198 20.7552081 49.6118137"></polygon>
            <polygon id="Shape" fill="#65863A" points="33.4193285 20.7212677 43.3123124 17.3752342 40.1164627 7.97297297 30.2051282 11.2624515"></polygon>
            <polygon id="Shape" fill="#1A937D" points="12.7918097 28.814218 22.6847936 25.4681845 19.449796 15.9459459 9.53846154 19.2350205 12.7918097 28.814218"></polygon>
        </g>
    </g>
</svg>