<?xml version="1.0" encoding="UTF-8"?>
<svg width="120px" height="120px" viewBox="0 0 120 120" version="1.1" xmlns="http://www.w3.org/2000/svg" xmlns:xlink="http://www.w3.org/1999/xlink">
    <!-- Generator: Sketch 48.1 (47250) - http://www.bohemiancoding.com/sketch -->
    <title>Artboard 2 Copy 12@2x</title>
    <desc>Created with Sketch.</desc>
    <defs></defs>
    <g id="Page-1" stroke="none" stroke-width="1" fill="none" fill-rule="evenodd">
        <g id="Artboard-2-Copy-12" fill-rule="nonzero">
            <g id="splunk" transform="translate(0.000000, 42.000000)">
                <path d="M11.0388015,11.9994 C11.0388015,11.9994 10.0596255,11.0013 8.0952809,11.0013 C6.92779026,11.0013 5.76958801,11.568 5.79475655,12.7554 C5.84779026,15.25365 12.8958801,17.25585 12.8909363,21.33105 C12.8900375,22.095 13.3333333,26.85915 5.9658427,27.21345 C5.82546816,27.2202 3.0341573,27.3729 0.149662921,25.14045 L1.68928839,22.58895 C4.48524345,24.8391 5.43490637,24.36345 5.65917603,24.3549 C8.13662921,24.2604 8.10666667,22.5303 8.0952809,22.05435 C8.02456929,19.08075 0.999250936,17.6634 1.15265918,13.1334 C1.27011236,9.66255 4.59745318,8.2674 7.30801498,8.2674 C10.2365543,8.2674 12.5017228,9.68415 12.5017228,9.68415 L11.0388015,11.9994 Z" id="Shape" fill="#000000"></path>
                <path d="M26.3755805,8.2674 C21.1854682,8.0997 19.7453184,11.40885 19.7453184,11.40885 L19.7689888,8.6448 L15.0500375,8.6448 L15.0500375,35.86005 L19.7689888,35.86005 L19.7217978,24.3078 C19.7217978,24.3078 21.6329588,27.2181 25.136779,27.2181 C31.8259176,27.2181 33.9495131,21.01245 33.9495131,17.5395 C33.9495131,13.7004 32.2034457,8.4558 26.3755805,8.2674 Z M24.3090637,24.3786 C21.1373783,24.3786 19.7180524,21.41175 19.7180524,17.7519 C19.7180524,14.09205 21.2317603,11.1252 24.3090637,11.1252 C27.6731086,11.1252 28.9000749,14.09205 28.9000749,17.7519 C28.9002247,21.11835 27.413633,24.3786 24.3090637,24.3786 Z" id="Shape" fill="#000000"></path>
                <rect id="Rectangle-path" fill="#000000" x="36.0022472" y="0.13995" width="4.86052434" height="26.64825"></rect>
                <path d="M48.6963296,19.93725 C48.6963296,19.93725 48.3659925,23.9298 52.2826966,23.9061 C52.6271161,23.904 56.2465918,24.1659 56.3715356,19.08675 L56.3644944,8.6448 L61.1071161,8.6448 L61.1071161,26.78835 L56.3715356,26.78835 L56.3644944,24.35505 C53.7689888,27.3789 50.5164045,27.2136 50.3478652,27.2136 C43.8828464,27.216 43.8828464,21.35475 43.8828464,21.35475 L43.8828464,8.6448 L48.6961798,8.6448 L48.6963296,19.93725 Z" id="Shape" fill="#000000"></path>
                <path d="M76.8686142,15.4974 C76.8686142,15.4974 77.1989513,11.50485 73.2822472,11.52855 C72.9378277,11.53065 69.3183521,11.26875 69.1934082,16.3479 L69.2004494,26.78985 L64.4578277,26.78985 L64.4578277,8.6463 L69.1934082,8.6463 L69.2004494,11.0796 C71.7959551,8.05575 75.0485393,8.22105 75.2170787,8.22105 C81.6820974,8.21865 81.6820974,14.0799 81.6820974,14.0799 L81.6820974,26.78985 L76.868764,26.78985 L76.8686142,15.4974 Z" id="Shape" fill="#000000"></path>
                <polygon id="Shape" fill="#000000" points="89.7277903 26.78985 84.9851685 26.78985 84.9851685 0.13995 89.7277903 0.13995 89.7277903 15.81465 90.223221 15.8148 96.6882397 8.38485 100.274607 9.9441 94.1635955 16.5117 101.407191 25.6071 96.9478652 27.0954 89.8782022 17.23815 89.7277903 17.23215"></polygon>
                <polygon id="Shape" fill="#6AB361" points="120 19.1103 105.583521 26.19765 105.583521 23.10285 116.838352 17.53935 105.583521 12.1176 105.583521 8.88105 120 16.11"></polygon>
            </g>
        </g>
    </g>
</svg>