<?xml version="1.0" encoding="UTF-8"?>
<svg width="24px" height="24px" viewBox="0 0 24 24" version="1.1" xmlns="http://www.w3.org/2000/svg" xmlns:xlink="http://www.w3.org/1999/xlink">
    <title>both-policy-rules</title>
    <g id="both-policy-rules" stroke="none" stroke-width="1" fill="none" fill-rule="evenodd">
        <g id="Group-13" transform="translate(5.500000, 5.000000)">
            <path d="M12.499442,1.47347741 C11.1662326,1.63719712 10.1663256,1.63719712 9.49972098,1.47347741 C8.83311632,1.30975769 7.83320933,0.818598559 6.5,0 C5.16679067,0.818598559 4.16688368,1.30975769 3.50027902,1.47347741 C2.83367436,1.63719712 1.83376736,1.63719712 0.500558036,1.47347741 C0.2234375,1.47347741 0,1.67266162 0,1.91920432 L0,7.77076299 C0,12.1709234 5.62511161,15 6.50725446,15 C7.38939732,15 13,12.1709234 13,7.77215588 L13,1.91920432 C13,1.67266162 12.7765625,1.47347741 12.499442,1.47347741 Z" id="Shape-path" stroke="#1E4F18" stroke-width="1.92" fill="#BDE5B8"></path>
            <path d="M5.63940348,10.655842 L11.1594161,5.72094465 C11.3468613,5.55335258 11.3468613,5.28164979 11.1594161,5.11407408 L10.4806068,4.50720352 C10.2931616,4.33962781 9.98922452,4.33962781 9.80177927,4.50720352 L5.29999886,8.53178683 L3.19822073,6.6528011 C3.01077548,6.48520903 2.70683842,6.48520903 2.51939318,6.6528011 L1.84058394,7.25967167 C1.65313869,7.42726374 1.65313869,7.69896653 1.84058394,7.86654223 L4.96059424,10.6558256 C5.14802117,10.8234177 5.45193992,10.8234177 5.63940348,10.655842 Z" id="check" fill="#1E4F18"></path>
        </g>
    </g>
</svg>