<?xml version="1.0" encoding="UTF-8"?>
<svg width="16px" height="16px" viewBox="0 0 16 16" version="1.1" xmlns="http://www.w3.org/2000/svg" xmlns:xlink="http://www.w3.org/1999/xlink">
    <title>derived icon</title>
    <g id="derived-icon" stroke="none" stroke-width="1" fill="none" fill-rule="evenodd">
        <g id="Icons-/-2.-Size-sm-/-Actions-/-filter" transform="translate(3.888161, 2.052636)" fill="#151515">
            <path d="M1.87499553,11.9999714 C2.91093514,11.9999714 3.74999106,11.1609155 3.74999106,10.1249759 C3.74999106,9.32810276 3.25311267,8.64608229 2.54998934,8.37655168 C2.62265915,8.2546724 2.73279683,8.14684642 2.89921642,8.06248078 C3.27890759,7.87028916 3.84607542,7.8187222 4.44842232,7.76248607 C5.43748704,7.67107088 6.55779229,7.56560238 7.21873279,6.74529184 C7.54685701,6.33749405 7.7132537,5.81248614 7.72497243,5.15390312 C8.46560939,4.90076041 8.99997854,4.19999456 8.99997854,3.37499195 C8.99997854,2.33905235 8.16092262,1.5 7.12498301,1.5 C6.0890434,1.5 5.24998748,2.33905235 5.24998748,3.37499195 C5.24998748,4.22812407 5.8195128,4.9476353 6.59764052,5.17498308 C6.58358721,5.55233967 6.49919868,5.84295024 6.33982863,6.03983393 C5.97888284,6.48983743 5.18436722,6.56481894 4.34295382,6.64218082 C3.68201332,6.70310902 2.99765826,6.76872928 2.43749419,7.03825989 L2.43749419,3.66326794 C3.19921112,3.42420143 3.74999106,2.71405145 3.74999106,1.87499553 C3.74999106,0.839055922 2.91093514,0 1.87499553,0 C0.839055922,0 0,0.839055922 0,1.87499553 C0,2.71405145 0.550779937,3.42420143 1.31249687,3.66326794 L1.31249687,8.33434597 C0.550779937,8.57576996 0,9.28591994 0,10.1249759 C0,11.1609155 0.839055922,11.9999714 1.87499553,11.9999714 Z M1.87499553,2.24999464 C1.6687506,2.24999464 1.49999642,2.08124046 1.49999642,1.87499553 C1.49999642,1.6687506 1.6687506,1.49999642 1.87499553,1.49999642 C2.08124046,1.49999642 2.24999464,1.6687506 2.24999464,1.87499553 C2.24999464,2.08124046 2.08124046,2.24999464 1.87499553,2.24999464 Z M7.12498301,3.74999106 C6.91873808,3.74999106 6.74998391,3.58123688 6.74998391,3.37499195 C6.74998391,3.16874702 6.91873808,2.99999285 7.12498301,2.99999285 C7.33122794,2.99999285 7.49998212,3.16874702 7.49998212,3.37499195 C7.49998212,3.58123688 7.33122794,3.74999106 7.12498301,3.74999106 Z M1.87499553,10.499975 C1.6687506,10.499975 1.49999642,10.3312208 1.49999642,10.1249759 C1.49999642,9.91873093 1.6687506,9.74997675 1.87499553,9.74997675 C2.08124046,9.74997675 2.24999464,9.91873093 2.24999464,10.1249759 C2.24999464,10.3312208 2.08124046,10.499975 1.87499553,10.499975 Z" id="code-branch"></path>
        </g>
    </g>
</svg>