<?xml version="1.0" encoding="UTF-8"?>
<svg width="24px" height="24px" viewBox="0 0 24 24" version="1.1" xmlns="http://www.w3.org/2000/svg" xmlns:xlink="http://www.w3.org/1999/xlink">
    <title>egress-only</title>
    <g id="egress-only" stroke="none" stroke-width="1" fill="none" fill-rule="evenodd">
        <g id="Group-31" transform="translate(5.500000, 5.000000)">
            <path d="M11.7963138,1.44621384 C10.5381012,1.60690426 9.59444171,1.60690426 8.9653354,1.44621384 C8.3362291,1.28552341 7.39256964,0.803452131 6.13435702,0 C4.87614441,0.803452131 3.93248495,1.28552341 3.30337864,1.44621384 C2.67427234,1.60690426 1.73061288,1.60690426 0.472400262,1.44621384 C0.210868523,1.44621384 0,1.64171257 0,1.88369352 L0,7.62698152 C0,11.9457263 5.30868352,14.7224569 6.1412034,14.7224569 C6.97372328,14.7224569 12.268714,11.9457263 12.268714,7.62834864 L12.268714,1.88369352 C12.268714,1.64171257 12.0578455,1.44621384 11.7963138,1.44621384 Z" id="pficon-security" stroke="#795600" stroke-width="1.92" fill="#FFEFC7"></path>
            <ellipse id="Oval" stroke="#795600" stroke-width="0.96" fill="#795600" transform="translate(6.400000, 7.359976) scale(-1, 1) translate(-6.400000, -7.359976) " cx="6.4" cy="7.35997646" rx="1.6" ry="1.6301627"></ellipse>
            <path d="M12.6164974,13.2489365 L15.7428871,10.1754187 C16.2921383,9.63544994 15.9031356,9.512181 15.1263364,9.512181 L13.4531459,9.512181 L13.4531459,1.52857096 C13.4531459,1.29189432 13.2579528,1.1 13.0172075,1.1 L10.982828,1.1 C10.7420827,1.1 10.5468896,1.29189432 10.5468896,1.52857096 L10.5468896,9.512181 L8.87366358,9.512181 C8.09686441,9.512181 7.70786171,9.63541507 8.25711294,10.1754187 L11.3835026,13.2489365 C11.7240085,13.5836878 12.2760269,13.5836878 12.6164974,13.2489365 Z" id="long-arrow-alt-down" fill="#795600" transform="translate(12.000000, 7.300000) rotate(-90.000000) translate(-12.000000, -7.300000) "></path>
            <g id="Group-62" transform="translate(4.800000, 5.729814)"></g>
        </g>
    </g>
</svg>