<?xml version="1.0" encoding="UTF-8"?>
<svg width="24px" height="24px" viewBox="0 0 24 24" version="1.1" xmlns="http://www.w3.org/2000/svg" xmlns:xlink="http://www.w3.org/1999/xlink">
    <title>ingress-only</title>
    <g id="ingress-only" stroke="none" stroke-width="1" fill="none" fill-rule="evenodd">
        <g id="Group-62-Copy" transform="translate(0.700000, 5.000000)">
            <path d="M16.5963138,1.44621384 C15.3381012,1.60690426 14.3944417,1.60690426 13.7653354,1.44621384 C13.1362291,1.28552341 12.1925696,0.803452131 10.934357,0 C9.67614441,0.803452131 8.73248495,1.28552341 8.10337864,1.44621384 C7.47427234,1.60690426 6.53061288,1.60690426 5.27240026,1.44621384 C5.01086852,1.44621384 4.8,1.64171257 4.8,1.88369352 L4.8,7.62698152 C4.8,11.9457263 10.1086835,14.7224569 10.9412034,14.7224569 C11.7737233,14.7224569 17.068714,11.9457263 17.068714,7.62834864 L17.068714,1.88369352 C17.068714,1.64171257 16.8578455,1.44621384 16.5963138,1.44621384 Z" id="pficon-security" stroke="#795600" stroke-width="1.92" fill="#FFEFC7"></path>
            <path d="M7.41649743,13.2676726 L10.5428871,10.4235217 C11.0921383,9.9238492 10.7031356,9.80977943 9.92633642,9.80977943 L8.2531459,9.80977943 L8.2531459,1.49658805 C8.2531459,1.27757385 8.05795276,1.1 7.81720745,1.1 L5.78282802,1.1 C5.54208272,1.1 5.34688958,1.27757385 5.34688958,1.49658805 L5.34688958,9.80977943 L3.67366358,9.80977943 C2.89686441,9.80977943 2.50786171,9.92381693 3.05711294,10.4235217 L6.18350257,13.2676726 C6.52400853,13.5774425 7.07602695,13.5774425 7.41649743,13.2676726 Z" id="long-arrow-alt-down" fill="#795600" transform="translate(6.800000, 7.300000) rotate(-90.000000) translate(-6.800000, -7.300000) "></path>
            <ellipse id="Oval" stroke="#795600" stroke-width="0.96" fill="#795600" transform="translate(1.561480, 7.359976) scale(-1, 1) translate(-1.561480, -7.359976) " cx="1.56147961" cy="7.35997646" rx="1.56147961" ry="1.6301627"></ellipse>
        </g>
    </g>
</svg>