<?xml version="1.0" encoding="UTF-8"?>
<svg width="24px" height="24px" viewBox="0 0 24 24" version="1.1" xmlns="http://www.w3.org/2000/svg" xmlns:xlink="http://www.w3.org/1999/xlink">
    <title>no-policy-rules</title>
    <g id="no-policy-rules" stroke="none" stroke-width="1" fill="none" fill-rule="evenodd">
        <g id="Group-32" transform="translate(5.500000, 5.000000)">
            <path d="M12.499442,1.47347741 C11.1662326,1.63719712 10.1663256,1.63719712 9.49972098,1.47347741 C8.83311632,1.30975769 7.83320933,0.818598559 6.5,0 C5.16679067,0.818598559 4.16688368,1.30975769 3.50027902,1.47347741 C2.83367436,1.63719712 1.83376736,1.63719712 0.500558036,1.47347741 C0.2234375,1.47347741 0,1.67266162 0,1.91920432 L0,7.77076299 C0,12.1709234 5.62511161,15 6.50725446,15 C7.38939732,15 13,12.1709234 13,7.77215588 L13,1.91920432 C13,1.67266162 12.7765625,1.47347741 12.499442,1.47347741 Z" id="Shape-path" stroke="#7D1007" stroke-width="1.92" fill="#FFD4CF"></path>
            <path d="M4.5180423,10.6955854 L6.3375,8.87612773 L8.1569577,10.6955854 C8.38021734,10.9188628 8.74239723,10.9188628 8.96567462,10.6955854 L9.37004196,10.2912181 C9.59331935,10.0679407 9.59331935,9.70595613 9.37004196,9.48250118 L7.55058425,7.66304348 L9.37004196,5.84358577 C9.59331935,5.62032614 9.59331935,5.2583238 9.37004196,5.03486886 L8.96567462,4.63050152 C8.74239723,4.40722413 8.38041265,4.40722413 8.1569577,4.63050152 L6.3375,6.44995922 L4.5180423,4.63050152 C4.29478266,4.40722413 3.93278032,4.40722413 3.70932538,4.63050152 L3.30495804,5.03486886 C3.08168065,5.25814625 3.08168065,5.62013083 3.30495804,5.84358577 L5.12441575,7.66304348 L3.30495804,9.48250118 C3.08168065,9.70576082 3.08168065,10.0677632 3.30495804,10.2912181 L3.70932538,10.6955854 C3.93260277,10.9188628 4.29478266,10.9188628 4.5180423,10.6955854 Z" id="times" fill="#7D1007"></path>
        </g>
    </g>
</svg>