<?xml version="1.0" encoding="UTF-8"?>
<svg width="24px" height="16px" viewBox="0 0 24 16" version="1.1" xmlns="http://www.w3.org/2000/svg" xmlns:xlink="http://www.w3.org/1999/xlink">
    <title>Group 52</title>
    <g id="Network" stroke="none" stroke-width="1" fill="none" fill-rule="evenodd">
        <g id="Group-52">
            <path d="M2.54999995,0 L21.45,0 C22.8583261,-2.58705305e-16 24,1.14167387 24,2.54999995 L24,13.45 C24,14.8583261 22.8583261,16 21.45,16 L2.54999995,16 C1.14167387,16 1.72470203e-16,14.8583261 0,13.45 L0,2.54999995 C-1.72470203e-16,1.14167387 1.14167387,2.58705305e-16 2.54999995,0 Z" id="Rectangle-Copy-11" fill="#6C6E72"></path>
            <g id="TCP" transform="translate(3.189000, 4.601000)" fill="#FFFFFF" fill-rule="nonzero">
                <polygon id="Path" points="0 1.422 0 0.099 5.607 0.099 5.607 1.422 3.582 1.422 3.582 6.399 2.034 6.399 2.034 1.422"></polygon>
                <path d="M9.261,5.103 C9.543,5.103 9.804,5.037 10.044,4.905 C10.284,4.773 10.503,4.578 10.701,4.32 L11.718,5.283 C11.442,5.643 11.076,5.934 10.62,6.156 C10.164,6.378 9.693,6.489 9.207,6.489 C8.739,6.489 8.301,6.405 7.893,6.237 C7.485,6.069 7.134,5.841 6.84,5.553 C6.546,5.265 6.3135,4.923 6.1425,4.527 C5.9715,4.131 5.886,3.705 5.886,3.249 C5.886,2.793 5.9715,2.3655 6.1425,1.9665 C6.3135,1.5675 6.5475,1.224 6.8445,0.936 C7.1415,0.648 7.4925,0.42 7.8975,0.252 C8.3025,0.084 8.739,0 9.207,0 C9.711,0 10.194,0.111 10.656,0.333 C11.118,0.555 11.487,0.852 11.763,1.224 L10.719,2.214 C10.515,1.938 10.2855,1.7295 10.0305,1.5885 C9.7755,1.4475 9.501,1.377 9.207,1.377 C8.961,1.377 8.733,1.425 8.523,1.521 C8.313,1.617 8.1315,1.7475 7.9785,1.9125 C7.8255,2.0775 7.7055,2.2755 7.6185,2.5065 C7.5315,2.7375 7.488,2.985 7.488,3.249 C7.488,3.513 7.533,3.759 7.623,3.987 C7.713,4.215 7.8375,4.4115 7.9965,4.5765 C8.1555,4.7415 8.343,4.8705 8.559,4.9635 C8.775,5.0565 9.009,5.103 9.261,5.103 Z" id="Path"></path>
                <path d="M12.663,6.399 L12.663,0.099 L15.741,0.099 C16.077,0.099 16.3815,0.1515 16.6545,0.2565 C16.9275,0.3615 17.1615,0.5055 17.3565,0.6885 C17.5515,0.8715 17.7015,1.0905 17.8065,1.3455 C17.9115,1.6005 17.964,1.878 17.964,2.178 C17.964,2.46 17.9115,2.7255 17.8065,2.9745 C17.7015,3.2235 17.5515,3.438 17.3565,3.618 C17.1615,3.798 16.9275,3.9405 16.6545,4.0455 C16.3815,4.1505 16.077,4.203 15.741,4.203 L14.211,4.203 L14.211,6.399 L12.663,6.399 Z M15.471,1.377 L14.211,1.377 L14.211,2.97 L15.462,2.97 C15.774,2.97 16.008,2.8935 16.164,2.7405 C16.32,2.5875 16.398,2.397 16.398,2.169 C16.398,1.947 16.32,1.7595 16.164,1.6065 C16.008,1.4535 15.777,1.377 15.471,1.377 Z" id="Shape"></path>
            </g>
        </g>
    </g>
</svg>