<svg height="128" viewBox="0 0 376 128" width="376" xmlns="http://www.w3.org/2000/svg" xmlns:xlink="http://www.w3.org/1999/xlink"><mask id="a" fill="#fff"><path d="m.10363264.16913636h45.26102566v45.42348824h-45.26102566z" fill="#fff" fill-rule="evenodd"/></mask><mask id="b" fill="#fff"><path d="m.00001465.13288719h53.01974255v4.25726433h-53.01974255z" fill="#fff" fill-rule="evenodd"/></mask><g fill="none" fill-rule="evenodd" transform="translate(70 34)"><path d="m22.8091561 4.59738977c-10.0214184-.03373485-18.29801066 8.17561743-18.32976406 18.18077273-.03129321 9.9351439 8.10862136 18.2660341 17.73335246 18.4559659 9.9022281.1954773 18.5992077-7.6090568 18.7526825-17.9732803.1534747-10.3487424-7.9938029-18.62926136-18.1562709-18.66345833m.009434 40.99523483c-12.6332505.0002311-22.72139709-10.118606-22.71495437-22.783731.00621262-12.4470038 10.23655927-22.66196216 22.67422717-22.63978034 12.5826291.02264394 22.5950738 10.24360984 22.5867903 23.05753784-.0078233 12.238125-10.2172311 22.3659735-22.5460631 22.3659735" fill="#43bf49" mask="url(#a)" transform="translate(3.681553 .061924)"/><g fill="#060606"><path d="m95.0658082 39.6856527c0 1.2664431-.0087437 2.5331174.0069029 3.7993295.0034514.270572-.1318457.5935947.3173039.7410114 2.0382.6693825 3.9714757-.6049167 4.081232-2.7415341.0453291-.8803409.0338243-1.7646099.0326738-2.6470303-.004602-3.1482008-.5556845-3.6648523-3.6797126-3.5941478-.5809952.0134016-.7972865.137019-.7726661.7583409.0483204 1.2262387.0142661 2.4559432.0142661 3.6840304m6.2227458 6.3153484c2.445472 1.3098826 2.850212 3.5437766 2.902444 5.9301705.04602 2.1139735.028532 4.2297954.089508 6.3433068.019789.6816288.200185 1.3586364.321906 2.1322273-1.381733 0-2.754722-.0083182-4.127942.0032348-.7478152.0064697-.7024861-.5841212-.7705949-1.0400038-.3087902-2.0636022-.1732631-4.144534-.1976534-6.2192272-.0057524-.5002462.0080534-1.0004925-.0023009-1.5005076-.0531525-2.5211023-1.5361282-3.6870341-4.024168-3.2357727-.6652107.1208447-.3996786.5651742-.4015194.8722538-.0200184 3.347606-.0411874 6.6956742.0073631 10.0428181.0124252.8422159-.1691214 1.1756364-1.0639689 1.0968447-.9505311-.0843371-1.9157884-.0522197-2.8716117-.0071628-.6079165.0286515-.8051097-.1834622-.7850912-.7846819.0372757-1.1144053.0105844-2.2313522.0105844-3.3471439 0-8.0422955.0161068-16.0845909-.0216291-24.1264242-.0043718-.9475796.229867-1.2518864 1.1939738-1.2075228 2.4086563.1106781 4.8249058-.0882651 7.2337922.121769 3.202491.2793522 5.133236 2.2073219 5.286711 5.4278447.091348 1.9154924.21491 3.8471591-.123102 5.7545644-.282329 1.5940871-1.095953 2.85175-2.656701 3.7434128"/><path d="m210.611293 39.7601004c0 1.0383863.108145 2.0910985-.027382 3.111231-.170502 1.2828485.409113 1.4355796 1.463878 1.3697273 2.1804-.1363257 2.852513-.7072765 3.054999-2.8868712.074321-.8008561.065347-1.6116477.061896-2.4175871-.013116-3.2230644-.661529-3.8192008-3.864251-3.6939659-.548551.0214886-.718363.1571212-.701566.7109735.038887 1.2680606.012426 2.5377386.012426 3.8064924m6.297987 6.2441818c2.197427 1.1687045 2.77428 3.1193182 2.878745 5.2774242.07225 1.4977349.027841 3.0014773.02531 4.5026781-.002531 1.5310075-.073861 3.0666363.498621 4.6225985-1.446621 0-2.785556-.0212576-4.12357.0103977-.551773.0131704-.699495-.2453864-.806951-.7303826-.312472-1.4099318-.159687-2.8348826-.215141-4.2529015-.064657-1.6490796.186149-3.3120227-.179245-4.9467765-.356881-1.5954735-2.673498-2.7306743-4.141288-2.0465038-.439485.2047197-.221813.6079204-.223424.9103788-.017487 3.3485303-.035665 6.6977538.007133 10.046053.010124.7839886-.157156 1.0986932-.993329 1.0277576-.913485-.0776364-1.842157-.0681629-2.757483-.0016174-.721585.0524507-.901061-.1878523-.891627-.8953599.039117-2.9631212.016567-5.9276288.016567-8.8914432 0-6.1972765.016797-12.394553-.019788-18.5915985-.005062-.8369015.154855-1.1298863 1.052234-1.0938409 2.295449.0921932 4.602402-.0318863 6.892788.1176099 3.754955.2451553 5.411884 1.8422462 5.787402 5.5456856.170042 1.6761136.160838 3.3792614-.056374 5.066928-.232858 1.811053-.974691 3.3011629-2.75058 4.3229129"/><path d="m194.24474 45.6566746c0 2.7706477-.042568 5.5422197.014266 8.3119432.040727 1.9972879 1.506215 2.9913106 3.264387 2.3087576 1.055916-.4099015 1.343997-1.3133485 1.356423-2.3219281.030372-2.5007689.027381-5.002.026001-7.503231-.001841-3.0398333.029682-6.0805909-.040498-9.1190379-.043028-1.8658144-1.252418-2.7459242-2.985739-2.3311704-1.055686.2523181-1.6116 1.0242916-1.627937 2.4577916-.030833 2.7320606-.008974 5.4645834-.006903 8.196875m9.272912.0268031c0 2.6946287.020709 5.3894886-.005982 8.0841174-.026001 2.6638977-.817535 5.0262613-3.398074 6.1799469-2.731713 1.2211553-5.54718 1.1964319-8.080549-.5996022-1.964799-1.3928334-2.453296-3.5745076-2.4648-5.8227273-.027842-5.5029394-.067419-11.0093447.094339-16.5083561.121952-4.151928 2.896002-6.4969621 7.135771-6.3839734 4.152793.110678 6.65947 2.604284 6.712623 6.7356477.035435 2.7711098.006672 5.5431439.006672 8.314947"/><path d="m148.940763 37.2344693-.210309-.0501401c-.66544 4.4324356-1.324438 8.8653333-2.005526 13.2952272-.068799.4482576.101243.5272803.47285.5245076 1.071562-.0080871 2.143354-.0122462 3.214916.0023106.42568.0057765.597102-.0672386.517259-.5827348-.682468-4.3933864-1.330882-8.7920871-1.98919-13.1891705m.194202-6.1811023c1.06604 0 2.365858-.3750113 3.130931.106519.746435.4699773.491257 1.906481.655547 2.9208371 1.360794 8.4122235 2.70203 16.8279129 4.069267 25.2389811.130465.8015492.057754 1.2246212-.919468 1.1033144-1.200187-.1488031-2.780493.5025568-3.522556-.2615606-.673955-.693644-.475381-2.249144-.645653-3.4266288-.23723-1.6409925-.231017-1.6419167-1.924532-1.6419167h-1.953984c-1.978835 0-1.978835 0-2.264156 1.9228864-.011505.0760189-.017027.1529621-.026691.2294431-.435114 3.4092993-.666131 3.5622614-4.169129 3.1782387-.898759-.0982008-.463876-.6700758-.414175-.9991061.531294-3.5329166 1.104466-7.0595947 1.667974-10.587428.890246-5.5768788 1.810174-11.1491364 2.644966-16.7343333.14197-.948966.47515-1.2324773 1.37391-1.1439811.75909.0746326 1.531296.01525 2.297519.01525 0 .026572.00023.0529129.00023.0794848"/><path d="m80.248246 37.3235894c-.078233.0020795-.156466.0043901-.234699.0062386-.1346068.9212387-.265532 1.8427084-.4047408 2.7630228-.5004612 3.3053219-.9861961 6.6127234-1.5179505 9.9129621-.1295446.8033977.0699495 1.0929166.9017505 1.0111212.7213544-.0713977 1.4624971-.0797159 2.1815505.0011553.9470796.1065189 1.1511757-.2352197 1.000232-1.1342765-.4208475-2.5005379-.7648427-5.0142462-1.1451932-7.5214849-.2549475-1.6805038-.5202495-3.3591591-.7809495-5.0387386m5.7883223 23.0836477c-2.3449194 0-2.3347951-.0016174-2.6580815-2.2875-.1389786-.9831629.0823748-2.2787197-.5821456-2.8533674-.6661311-.575803-1.9114165-.1575833-2.9017544-.1661326-2.5168019-.0219507-2.5186427-.007625-2.9121087 2.5003068-.1417398.9022917.0628165 2.077697-.5432593 2.626697-.6185009.5600909-1.7595524.1518068-2.6705068.171678-1.4397174.0311932-1.4606563.0050834-1.2344708-1.4207916 1.4323543-9.0303106 2.8851873-18.0576175 4.2929213-27.091625.1129777-.7248371.3391631-.9510455 1.0591369-.9286326 1.6474952.0510644 3.2984418.0459811 4.946167.0018485.6988049-.0187159.9565136.1626666 1.0740932.9161553 1.4470806 9.2694583 2.9383398 18.5322159 4.436502 27.7935871.0876669.5416061.033364.7916136-.5814554.7465568-.5722514-.0415909-1.1497951-.0090113-1.7250379-.0087803"/><path d="m158.573847 45.6368034c0-3.0391401-.157157-6.0891401.039346-9.115572.250116-3.8570947 2.933048-6.0001818 6.964119-5.8883484 3.925686.1092916 6.345617 2.3986401 6.593202 6.2397916.012425.1917803.02508.3856402.011965.5767273-.077773 1.1342765.503222 2.7329848-.237 3.2822159-.776578.5760341-2.277041.1441818-3.45882.2026402-.587437.0291136-.706858-.2204319-.68845-.743091.032214-.922856.037046-1.8487159-.00023-2.7713409-.064888-1.6114166-.866316-2.4772007-2.258173-2.5026174-1.482055-.0270341-2.296599.6839394-2.347681 2.356125-.171192 5.6154659-.164059 11.2341667-.002301 16.8498636.04556 1.5920076.844687 2.2745607 2.304193 2.2667046 1.412106-.007625 2.219976-.7763636 2.293838-2.3166136.062356-1.3061856.055683-2.6186099.003911-3.9254887-.026921-.6719242.197424-.8477613.834332-.8126401 1.141512.0630795 2.641745-.3826364 3.334107.1883144.721585.5954431.172573 2.1594924.216982 3.2988522.037505.9598258.013805 1.9159546-.193972 2.8702349-.617581 2.8383485-2.453295 4.6013409-5.333881 4.9359167-1.253569.1455681-2.526236.1284696-3.765769-.2234357-2.760705-.7835265-4.356888-3.1793939-4.393704-6.683659-.028302-2.6943978-.005752-5.3894887-.005752-8.0843485.029913 0 .059825 0 .089738-.0002311"/></g><path d="m26.4077825 4.36621364c-8.3930213 0-16.78627279-.01756061-25.17906405.0240303-.98182427.00462121-1.27059612-.28397349-1.17487573-1.22439015.09272913-.91014773-.27772719-2.12252273.18269709-2.67452652.5451-.65343939 1.79383689-.2135 2.73263301-.21442424 16.24945628-.01594318 32.49914268 0 48.74859898-.03720076 1.0676505-.00254166 1.3260496.29159849 1.3002787 1.32790531-.0697194 2.79745075-.0218592 2.79860606-2.810866 2.79860606z" fill="#43bf49" mask="url(#b)" transform="translate(0 56.440712)"/><path d="m229.221292 43.790814c1.002533-3.8159659 2.054997-7.6196856 2.976536-11.4550606.267603-1.1146364.727567-1.5323939 1.830652-1.3713447.964107.140947 2.294068-.4360114 2.802813.2726515.344685.480144-.388634 1.7505152-.656697 2.6622803-1.470321 5.001769-2.924994 10.0081591-4.433511 14.998144-.372067 1.2306288-.56788 2.4494735-.543949 3.7346325.042798 2.3078334-.004833 4.6170531.023239 6.9253485.007824.6234015-.136447.903447-.823977.8643978-.992869-.0566099-1.993792-.0563788-2.986891-.0002311-.682468.0385871-.849748-.2308295-.827659-.8604697.039347-1.1144053-.055683-2.2362045.02324-3.3462197.263001-3.6953523-.368385-7.2301174-1.512428-10.7424697-1.447771-4.4442197-2.671197-8.9616856-4.040045-13.4324773-.262771-.8576969-.181546-1.1982803.785782-1.0778977.528303.0658523 1.071332.0117841 1.607688.0117841 2.222968 0 2.214685.0020795 2.784865 2.2045492.911645 3.5218258 1.835024 7.0406478 2.753112 10.560625.079153.0175606.158076.0346591.23723.0517576" fill="#060606"/><path d="m129.187918 45.6248576c0-4.5394167.017027-9.0786023-.016337-13.6175568-.005983-.7696629.146802-1.0651894.989877-1.0534053 3.447085.0480606 6.89509.0390492 10.342634.003928.690522-.0069318.956284.1455682.902901.8828826-.080534 1.1081666.336402 2.5402803-.211689 3.2339242-.424989.537678-2.002995.1684432-3.068575.1809205-1.187301.0138636-2.376212.0339659-3.562133-.0101667-.572481-.0212576-.703176.1779167-.697424.7197538.026001 2.4619507.030143 4.9241326-.002531 7.3856212-.007593.5825038.19075.705197.723885.6936439 1.493331-.0323485 2.988271.0094735 4.481371-.0224128.527153-.011091.754949.1055946.722275.6871742-.064427 1.1428258.33226 2.5730909-.215371 3.3462197-.45168.6381894-2.000234.1663636-3.061442.1751439-2.636912.0224129-2.637142.007625-2.637142 2.607519 0 2.8466666-.025541 5.6935644.016567 8.5397689.011505.7731288-.145652 1.1333523-.99517 1.040928-1.203868-.1303181-2.823291.514572-3.510131-.2643333-.598253-.6781629-.194432-2.2653182-.197654-3.4511212-.010354-3.6925796-.003911-7.3856212-.003911-11.0784318" fill="#060606"/><path d="m115.240307 47.8528826c0 3.8473901-.02163 7.6952424.017717 11.5424015.008053.796697-.191671 1.0959204-1.014268 1.0282197-.875289-.0720909-1.766225-.0757879-2.641054.0006932-.850439.0744015-.997471-.2747311-.99471-1.0467046.026231-7.6566553-.004832-15.3133106.041878-22.9697348.005752-.9799281-.247815-1.2572008-1.193054-1.1687046-.94961.0889584-1.914868-.0071628-2.871381.0298068-.561207.0217197-.846758-.0813333-.807871-.743553.056604-.9584394.032674-1.9231174.007133-2.8845606-.012886-.4940076.159687-.6758523.661989-.6742348 4.329507.0136325 8.659244.0140947 12.988751-.0004622.52209-.0016174.684999.2197387.637139.6927197-.003912.037894.00046.0767122-.000231.1152993-.022319 1.1109394.366085 2.5442083-.179245 3.244553-.576623.7405493-2.069954.1936288-3.160844.2280568-1.490799.0473675-1.491949.0120152-1.491949 1.5252311z" fill="#060606"/><path d="m183.192878 47.8544538c0 3.8480833-.02301 7.6966288.018637 11.54425.008744.8050151-.198113 1.0915303-1.016568 1.0245227-.87552-.0713977-1.768067-.0829507-2.640825.0025417-.894847.087803-1.074093-.2504697-1.070181-1.0912993.033594-6.6189621.018638-13.2376931.018638-19.8566553 0-1.1543788-.029683-2.3099128.011965-3.4629053.021629-.5970606-.153705-.7987765-.764843-.770125-1.070872.0501402-2.146116-.0101666-3.218138.0237993-.549702.0173295-.842616-.0635417-.795906-.7315379.080304-1.14375-.343305-2.6107538.218132-3.3501477.532905-.7024243 2.074786-.1929356 3.170968-.2026402 3.295221-.0288826 6.591361.0136326 9.886582-.0281894.769444-.0097045 1.009666.2204318.952372.9769243-.080534 1.0665757.325817 2.4765075-.21169 3.1181628-.560286.6684584-2.009898.1758372-3.069495.1991743-1.488958.0328106-1.489648.0083182-1.489648 1.5215341z" fill="#060606"/><path d="m126.588994 45.7830417c0 4.5380303-.019558 9.0760606.018178 13.6136288.006673.8001628-.190981 1.0924545-1.012658 1.0270643-.913485-.0720909-1.841006-.068625-2.754952-.000231-.747585.0559167-.875749-.2428447-.874369-.918928.020019-9.1913599.021859-18.3827197-.002301-27.5738485-.002071-.739625.163369-1.0309925.943398-.9727652.914176.068394 1.840317.0630796 2.755413.0016174.771745-.0522197.949841.2347576.944318.9790038-.033824 4.6147425-.017027 9.2294849-.017027 13.8444584" fill="#060606"/><path d="m119.753845 12.9698246c.004602-1.3579432-.539808-2.0081477-1.65946-1.9829621-1.055455.0240303-1.594343.6832462-1.594343 1.9503826 0 1.3182007.578004 2.0009848 1.679939 1.9834242 1.058677-.0166363 1.569722-.6499735 1.573864-1.9508447m-1.894849 10.5354394c.970319.0221818 1.92085-.0783295 2.734473-.6624507.727107-.522197.765994-1.5176061.024621-1.7713106-1.471241-.5027879-2.997935-.5580114-4.483902.004159-.4977.1880834-.789693.6157766-.766684 1.1730947.021169.5180379.368156.8027046.806951 1.0222122.541648.2710341 1.11482.2218181 1.684541.2342954m-3.023936-3.8192007c-1.285093-1.4385834-1.23217-1.9552349.33272-3.5128144-.932583-.6915644-1.575935-1.5596591-1.65923-2.7669508-.198114-2.8697727 1.654168-4.60873484 4.838021-4.36773863 1.645425.12454167 3.284866.2123447 4.932592.20864773.35573-.00069318.85527-.12569697.801658.49885985-.040267.46951515.315003 1.14490525-.560057 1.26251515-.791764.1062879-1.048782.3572197-.849748 1.3255947.563278 2.7396856-1.367927 4.5719962-4.59688 4.5747689-.59388.0004622-1.531296-.3657689-1.477453.6587538.040727.7761326.929592.5924394 1.51634.6201667 1.031295.0487538 2.064201-.0589205 3.096186.129856 1.166132.213269 2.181321.6564432 2.526696 1.8736705.370457 1.3045682.297746 2.5952727-.68868 3.679178-.530144.5827349-1.189142.9582084-1.920391 1.2211553-1.742985.6270985-3.547867.6203978-5.338942.3930341-1.803041-.228981-2.917401-1.227856-3.140365-2.5878788-.219743-1.3417689.347216-2.1925341 2.187533-3.2108181" fill="#43bf49"/><path d="m108.480652 14.9269542c-.013115-.6134659-.042337-1.2181515-.223194-1.8186781-.328118-1.0899128-1.096182-1.5400189-2.153478-1.5229204-1.037738.0166363-1.722737.5811174-1.993562 1.5864621-.326047 1.2105265-.323516 2.4326061.053613 3.6329659.296825.9443447.957664 1.4614583 1.956286 1.4757841 1.02002.0150189 1.763464-.4015833 2.106999-1.4228712.212149-.6298712.251035-1.2761477.253336-1.9307424m3.223891-.0522197c-.030833 4.2898712-2.81938 6.6182689-6.854823 5.8273485-1.61367-.316322-2.817538-1.2167652-3.498626-2.7110341-.92476-2.0287122-.918777-4.1200417-.038656-6.1529129.945009-2.18236744 3.275202-3.16321971 6.132547-2.69740153 2.295679.37385606 3.945475 2.21148103 4.203184 4.69307193.039577.3819432.042338.7678144.056374 1.0409281" fill="#43bf49"/><path d="m80.8676444 13.1483189c0-2.1544091.028532-4.30951132-.0156466-6.46322723-.0151864-.74193561.1799359-1.00511364.9553631-.98824622 2.2211272.04921591 4.4443252.04089773 6.6659126.00346591.6829282-.01178409 1.0087456.16128031.9190078.89328031-.0418777.34104545-.0329039.693875-.0016107 1.03746212.0538427.59267045-.1679709.8170303-.7786486.79877651-1.263233-.038125-2.528997.01732955-3.7922301-.02310606-.6079165-.01940909-.7597805.18993182-.7791087.78676137-.0954903 2.95572729-.1145883 2.95503409 2.8532039 2.95503409.3064893 0 .6205718.0443636.9180874-.0078561 1.0938815-.1917803 1.2779592.3142425 1.3136242 1.3205114.0400369 1.1356629-.3858728 1.338072-1.3727592 1.2888561-1.1764864-.0589205-2.7531116-.4182197-3.4385709.1806894-.7878524.6887916-.2236543 2.3096818-.2462038 3.5232121-.0416476 2.2523788-.0124253 2.2082462-2.2278 2.2332007-.8612534.0099356-1.0020729-.3211742-.9873466-1.0755871.0421077-2.1537159.0147262-4.3085871.0147262-6.4632273" fill="#43bf49"/><path d="m74.026881 13.312811c0-2.2288106.0218592-4.45762123-.0131156-6.68596971-.0105844-.68417046.1707321-.92470455.8950777-.93163637 2.3775932-.02310606 2.3976117-.0545303 2.3727612 2.31222349-.0444088 4.22494319.1886796 8.45566289-.1145884 12.67344319-.2342388 3.259572-2.6877641 4.933375-5.8902553 4.2212462-.4797524-.10675-.6500243-.2955265-.6254039-.7567235.0202485-.3830985.0338243-.7712803-.0034515-1.1518371-.0667281-.6855568.0644272-.9284015.8688466-.7763636 1.6638321.3144734 2.4470826-.3579129 2.4901107-2.1035758.0556835-2.2657803.0135758-4.5336401.0135758-6.8008068z" fill="#43bf49"/><path d="m94.9831113 10.9975837c.9029009-1.30387499 2.0582184-2.00653029 3.6056213-1.98920075.6329971.00693182.9196981.25301137.7761175.90321591-.0163369.07486364-.0434884.15157574-.0400369.22597724.0566039 1.1821061-.0492408 1.9619356-1.6776379 1.9446061-1.675797-.0177917-2.4735436 1.1206439-2.502766 2.8369621-.0283019 1.6513902-.0255408 3.3041667.0029913 4.9557879.0101243.5868939-.1695816.7823712-.7774981.8059394-2.3964611.0926553-2.3955408.1162235-2.3955408-2.2907349 0-2.6893144-.0078233-5.3786287.0078233-8.0679431.0025311-.44571595-.2199728-1.15183716.6088369-1.05710231.7185932.08202651 1.7779602-.57534091 2.0195622.78768561.0526922.2971439.0471699.6194735.3725272.9448068" fill="#43bf49"/></g></svg>