<?xml version="1.0" encoding="UTF-8"?>
<svg width="120px" height="120px" viewBox="0 0 120 120" version="1.1" xmlns="http://www.w3.org/2000/svg" xmlns:xlink="http://www.w3.org/1999/xlink">
    <!-- Generator: Sketch 48.1 (47250) - http://www.bohemiancoding.com/sketch -->
    <title>Artboard 2 Copy 4@2x</title>
    <desc>Created with Sketch.</desc>
    <defs></defs>
    <g id="Page-1" stroke="none" stroke-width="1" fill="none" fill-rule="evenodd">
        <g id="Artboard-2-Copy-4" fill="#4AA948">
            <g id="Page-1" transform="translate(13.000000, 1.000000)">
                <g id="Group-7">
                    <path d="M9.08777039,46.1766064 C9.40233907,68.1541521 27.4737677,84.3448545 48.1933028,83.7431264 C69.0146347,83.1386419 85.5146106,65.8635611 85.027043,45.2223313 C84.5497664,25.0229568 67.4868489,7.99567877 46.0469487,8.54834243 C26.5022483,9.05221733 9.35700336,24.6971471 9.08777039,46.1766064 Z M50.7549099,0.275752982 C52.723815,0.631607739 54.698561,0.957968725 56.6607909,1.34800318 C74.6732553,4.92777525 89.2429865,19.7140779 92.50688,37.7105158 C97.0309952,62.6589388 81.0875639,85.9882364 56.030541,91.0845948 C30.6837033,96.239665 5.47370717,78.8763785 1.49139555,53.5208312 C-2.36742491,28.9492118 13.4327677,6.30323244 37.9955479,1.22451524 C39.8251083,0.846333422 41.6802569,0.58915876 43.5234459,0.275752982 L50.7549099,0.275752982 Z" id="Fill-1"></path>
                    <polygon id="Fill-7" points="1.59586239 118.463525 93.2941639 118.463525 93.2941639 110.396289 1.59586239 110.396289"></polygon>
                </g>
            </g>
        </g>
    </g>
</svg>