<svg height="128" viewBox="0 0 376 128" width="376" xmlns="http://www.w3.org/2000/svg"><g fill="none" fill-rule="evenodd" transform="translate(134 38)"><path d="m30.5403974 23.5751738c0 1.3337636.1430463 2.4151936.3933774 3.2082423.2860927.7930486.6437086 1.6581926 1.1443709 2.595432.1788079.2883813.2503311.5767626.2503311.8290963 0 .3604767-.2145695.7209533-.6794702 1.08143l-2.2529801 1.514002c-.3218543.216286-.6437086.324429-.9298013.324429-.3576159 0-.7152318-.1802384-1.0728477-.5046674-.5006623-.540715-.9298013-1.1174776-1.2874172-1.6942403-.3576159-.6128103-.7152318-1.297716-1.1086093-2.1268123-2.789404 3.3163853-6.2940397 4.974578-10.5139073 4.974578-3.0039735 0-5.39999999-.865144-7.15231787-2.595432s-2.64635762-4.0373386-2.64635762-6.921152c0-3.0640516 1.07284768-5.5513406 3.25430464-7.4258192 2.18145695-1.8744787 5.07814565-2.811718 8.76158945-2.811718 1.215894 0 2.4675496.108143 3.7907284.2883813 1.3231788.1802384 2.6821192.4686197 4.1125828.7930487v-2.6314796c0-2.73962269-.5721854-4.65014901-1.6807947-5.76762666-1.1443709-1.11747766-3.0754967-1.65819265-5.8291391-1.65819265-1.2516556 0-2.5390728.14419066-3.8622516.46861966s-2.610596.72095333-3.86225168 1.22562065c-.57218543.25233367-1.0013245.39652433-1.25165563.46861967-.25033112.07209533-.42913907.108143-.57218543.108143-.50066225 0-.75099337-.36047667-.75099337-1.11747766v-1.76633565c0-.57676266.07152318-1.00933466.25033112-1.26166832.17880795-.25233367.50066225-.50466733 1.00132451-.757001 1.25165563-.64885799 2.75364238-1.18957298 4.50596028-1.62214498 1.7523179-.46861966 3.6119205-.68490566 5.5788079-.68490566 4.2556292 0 7.3668874.97328699 9.3695365 2.91986097 1.9668874 1.94657398 2.9682119 4.90248262 2.9682119 8.86772593v11.6794439zm-14.5192053 5.4792453c1.1801324 0 2.3960264-.216286 3.6834437-.648858 1.2874172-.432572 2.431788-1.2256207 3.397351-2.3070507.5721854-.6849056 1.0013245-1.4419066 1.215894-2.3070506s.3576159-1.9105263.3576159-3.136147v-1.514002c-1.0370861-.2523336-2.1456954-.4686196-3.2900662-.6128103-1.1443709-.1441907-2.2529802-.216286-3.3615894-.216286-2.3960265 0-4.1483444.4686197-5.3284769 1.4419067-1.1801324.9732869-1.7523178 2.3430983-1.7523178 4.1454816 0 1.6942403.429139 2.9559086 1.3231788 3.8210526.8582781.9011917 2.1099337 1.3337637 3.7549669 1.3337637zm28.7165562 3.8931479c-.6437086 0-1.0728476-.108143-1.3589404-.3604766-.2860927-.216286-.5364238-.7209534-.7509933-1.405859l-8.4039735-27.8648461c-.2145696-.72095332-.3218543-1.18957299-.3218543-1.44190665 0-.57676266.2860927-.90119166.8582781-.90119166h3.5046358c.6794702 0 1.1443708.108143 1.3947019.36047666.2860928.216286.5006623.72095333.7152318 1.40585899l6.0079471 23.86355516 5.5788079-23.86355516c.178808-.72095333.3933775-1.18957299.6794702-1.40585899.2860927-.21628599.786755-.36047666 1.4304636-.36047666h2.8609271c.6794702 0 1.1443709.108143 1.4304636.36047666.2860927.216286.5364238.72095333.6794702 1.40585899l5.6503311 24.15193646 6.186755-24.15193646c.2145695-.72095333.4649007-1.18957299.7152318-1.40585899.2860927-.21628599.7509934-.36047666 1.394702-.36047666h3.3258278c.5721854 0 .8940397.28838133.8940397.90119166 0 .18023833-.0357616.36047666-.0715232.57676266-.0357615.216286-.1072847.50466733-.2503311.90119166l-8.618543 27.86484603c-.2145696.7209534-.4649007 1.189573-.7509934 1.405859s-.7509934.3604767-1.3589404.3604767h-3.0754967c-.6794702 0-1.1443709-.108143-1.4304636-.3604767-.2860927-.2523336-.5364238-.7209533-.6794702-1.4419066l-5.5430463-23.25074481-5.5072848 23.21469711c-.1788079.7209533-.3933775 1.189573-.6794702 1.4419067-.2860927.2523336-.786755.3604766-1.4304636.3604766zm45.9536424.973287c-1.8596026 0-3.7192053-.216286-5.5072847-.648858-1.7880795-.432572-3.1827815-.9011916-4.1125828-1.4419066-.5721855-.324429-.9655629-.6849057-1.1086093-1.0093347s-.2145695-.6849056-.2145695-1.0093346v-1.838431c0-.757001.2860927-1.1174777.8225165-1.1174777.2145696 0 .4291391.0360477.6437086.108143.2145696.0720954.5364239.216286.8940398.3604767 1.215894.540715 2.5390728.973287 3.9337748 1.2616683 1.4304636.2883813 2.8251656.432572 4.2556291.432572 2.2529802 0 4.0052981-.3965243 5.2211921-1.189573 1.215894-.7930486 1.8596026-1.946574 1.8596026-3.4245283 0-1.0093346-.3218543-1.838431-.9655629-2.5233366-.6437086-.6849057-1.8596026-1.297716-3.6119205-1.8744787l-5.1854305-1.622145c-2.610596-.8290963-4.5417218-2.0547169-5.7218543-3.6768619-1.1801324-1.5860974-1.7880794-3.352433-1.7880794-5.22691165 0-1.51400199.3218543-2.84776564.9655629-4.00129097.6437086-1.15352532 1.5019867-2.16285998 2.5748344-2.95590864 1.0728477-.82909632 2.2887417-1.44190665 3.7192053-1.87447865 1.4304636-.43257199 2.9324503-.61281032 4.5059603-.61281032.7867549 0 1.6092715.03604766 2.3960265.14419066.8225165.108143 1.5735099.25233367 2.3245033.39652433.7152318.18023833 1.394702.36047667 2.0384106.57676266.6437086.216286 1.1443708.432572 1.5019864.648858.500663.28838133.858278.57676266 1.072848.90119166.21457.28838133.321854.68490566.321854 1.18957298v1.69424032c0 .757001-.286092 1.15352532-.822516 1.15352532-.286093 0-.7509936-.14419066-1.3589406-.43257199-2.0384106-.93723933-4.3271524-1.40585899-6.8662252-1.40585899-2.0384106 0-3.6476821.324429-4.7562914 1.00933466s-1.6807947 1.73028798-1.6807947 3.2082423c0 1.00933462.3576159 1.87447862 1.0728477 2.55938432s2.0384106 1.3698113 3.9337748 1.9826216l5.0781457 1.622145c2.5748345.8290964 4.4344367 1.9826217 5.5430467 3.460576 1.108609 1.4779543 1.645033 3.1721946 1.645033 5.0466733 0 1.5500496-.321855 2.9559086-.929802 4.1815293-.643708 1.2256206-1.501986 2.3070506-2.6105956 3.1721946-1.1086092.9011917-2.431788 1.5500497-3.9695364 2.0186693-1.6092715.5046674-3.2900662.757001-5.1139073.757001z" fill="#252f3e" fill-rule="nonzero"/><g fill="#f90" transform="translate(0 40.373386)"><path d="m97.4503311 11.0666336c-11.7655629 8.7595829-28.8596026 13.4097318-43.5576159 13.4097318-20.5986755 0-39.1589404-7.6781529-53.17748341-20.43902677-1.10860927-1.00933466-.10728477-2.37914598 1.21589404-1.58609732 15.16291387 8.86772589 33.86622517 14.23882819 53.21324507 14.23882819 13.0529801 0 27.3933774-2.7396226 40.5894039-8.36305858 1.9668875-.90119165 3.6476822 1.29771599 1.7165563 2.73962268z"/><path d="m102.349669 5.44319762c-1.501987-1.94657399-9.941722-.93723933-13.768212-.46861967-1.1443709.14419067-1.3231789-.86514399-.2860928-1.62214498 6.7231788-4.75829196 17.7735098-3.38848064 19.0609268-1.80238332 1.287418 1.62214499-.357616 12.76087385-6.651655 18.09592855-.9655632.8290963-1.8953645.3965243-1.4662254-.6849057 1.4304634-3.568719 4.6132454-11.60734857 3.1112584-13.51787488z"/></g></g></svg>