<?xml version="1.0" encoding="UTF-8"?>
<svg width="120px" height="120px" viewBox="0 0 120 120" version="1.1" xmlns="http://www.w3.org/2000/svg" xmlns:xlink="http://www.w3.org/1999/xlink">
    <!-- Generator: Sketch 48.1 (47250) - http://www.bohemiancoding.com/sketch -->
    <title>Artboard 2 Copy 10@2x</title>
    <desc>Created with Sketch.</desc>
    <defs></defs>
    <g id="Page-1" stroke="none" stroke-width="1" fill="none" fill-rule="evenodd">
        <g id="Artboard-2-Copy-10" fill-rule="nonzero">
            <g id="microsoft-azure-2" transform="translate(18.000000, 0.000000)">
                <g id="Group-5">
                    <path d="M6.00619544,10.0377627 L36.0066435,5.92570899 L36.0066435,34.7927115 L6.00895753,34.7927115 L6.00619544,10.0377627 Z M36.0066435,38.486812 L36.0066435,67.0274392 L6.01033857,62.9215825 L6.00964805,38.4881891 L36.007334,38.4881891 L36.007334,38.486812 L36.0066435,38.486812 Z M39.3239144,5.47195089 L79.2430301,0 L79.2430301,34.7927115 L39.3239144,34.7927115 L39.3239144,5.47195089 Z M79.2430301,38.486812 L79.2430301,72.9483283 L39.3239144,67.4805087 L39.3239144,38.486812 L79.2430301,38.486812 Z" id="Shape" fill="#0DADEA"></path>
                    <path d="M26.5324163,117.152974 L23.10974,117.152974 L21.4182814,112.678078 L14.0218487,112.678078 L12.3957307,117.152974 L8.98507463,117.152974 L16.0273736,99.5744681 L19.5418966,99.5744681 L26.5321081,117.152974 L26.5324163,117.152974 Z M20.591353,110.300743 L17.9823521,103.288852 C17.9037585,103.05976 17.8199252,102.692687 17.7333181,102.185874 L17.6815388,102.185874 C17.6029451,102.651673 17.5151052,103.019919 17.4189435,103.288852 L14.8355241,110.300743 L20.591353,110.300743 Z M38.7030279,105.78952 L31.4505294,114.933543 L38.6765218,114.933543 L38.6765218,117.152974 L27.1873634,117.152974 L27.1873634,116.086323 L34.5973574,106.818966 L27.895939,106.818966 L27.895939,104.599535 L38.7030279,104.599535 L38.7030279,105.78952 Z M52.9848806,117.152974 L49.9431523,117.152974 L49.9431523,115.166442 L49.891373,115.166442 C49.0083502,116.686296 47.635273,117.446809 45.7736823,117.446809 C42.5997317,117.446809 41.0124483,115.665639 41.0124483,112.101834 L41.0124483,104.599535 L44.0554094,104.599535 L44.0554094,111.808 C44.0554094,114.063758 44.9862047,115.191344 46.8496447,115.191344 C47.749619,115.191344 48.4902486,114.881397 49.0721498,114.260331 C49.654051,113.639265 49.9443851,112.826313 49.9443851,111.820597 L49.9443851,104.599535 L52.9876545,104.599535 L52.9848806,117.152974 Z M64.7495791,107.309374 C64.3821923,107.039269 63.8533033,106.905095 63.1622956,106.905095 C62.2620131,106.905095 61.5093633,107.284473 60.9061956,108.044985 C60.3030279,108.804326 60.0006735,109.838752 60.0006735,111.14592 L60.0006735,117.152974 L56.958637,117.152974 L56.958637,104.599828 L60.0006735,104.599828 L60.0006735,107.186333 L60.0524528,107.186333 C60.3495676,106.303658 60.8063354,105.615212 61.4227562,105.120996 C62.0394852,104.627073 62.7280272,104.379232 63.4883822,104.379232 C64.0385377,104.379232 64.4592449,104.457744 64.7468052,104.612132 L64.7498873,107.309374 L64.7495791,107.309374 Z M78.2975828,111.648632 L69.1428099,111.648632 C69.1773294,112.808736 69.5595103,113.703715 70.2905853,114.33357 C71.0204275,114.962252 72.0233441,115.27718 73.3005679,115.27718 C74.7346708,115.27718 76.0504209,114.876416 77.2478183,114.076062 L77.2478183,116.36756 C76.0242231,117.087059 74.4061185,117.446809 72.3950458,117.446809 C70.4184926,117.446809 68.8697355,116.876717 67.7456922,115.736534 C66.6216489,114.596351 66.0610142,112.993005 66.0610142,110.925618 C66.0610142,108.972483 66.6789761,107.380269 67.9176736,106.150442 C69.1548301,104.920614 70.691567,104.305701 72.5281927,104.305701 C74.3645101,104.305701 75.7841272,104.857336 76.7898176,105.960021 C77.7951999,107.062998 78.2985075,108.595156 78.2985075,110.557079 L78.2972746,111.648632 L78.2975828,111.648632 Z M75.3597215,109.638371 C75.3464684,108.616542 75.0934277,107.822046 74.5861134,107.254591 C74.0784909,106.687136 73.3794698,106.403262 72.4872007,106.403262 C71.6134243,106.403262 70.8715619,106.702077 70.2643874,107.298242 C69.657213,107.894406 69.2830456,108.675133 69.1431181,109.639543 L75.3597215,109.639543 L75.3597215,109.638371 Z" id="Shape" fill="#00ADEF"></path>
                </g>
            </g>
        </g>
    </g>
</svg>