<svg height="128" viewBox="0 0 376 128" width="376" xmlns="http://www.w3.org/2000/svg"><g fill="none" transform="translate(97 36)"><path d="m83.1805283 15.0182609c4.5650632 0 7.7254916 1.8834782 10.0832714 4.0643478l-2.9096007 3.7173913c-2.0567867-1.7347826-4.2139044-3.0234783-6.9730085-3.0234783-6.2706912 0-10.7855889 5.3530435-10.7855889 13.1843479 0 7.7817391 4.3142356 13.0356521 10.6350923 13.0356521 3.2607594 0 6.0198635-1.6356521 8.0766502-3.42l2.6086075 3.7669566c-3.1102628 2.7260869-7.1235051 4.4113043-11.2370786 4.4113043-9.1802918 0-16.2034659-6.5426087-16.2034659-17.8434783.100331-11.3504347 7.8258225-17.8930434 16.7051212-17.8930434zm15.350652-15.0182609h5.8192017v43.5182609c0 1.833913.802648 2.5278261 1.655462 2.5278261.351159 0 .652152 0 1.254138-.1486957l.802649 4.3617391c-.802649.3469566-1.755794.5452174-3.361091.5452174-4.414566 0-6.1703597-2.7260869-6.1703597-7.7321739zm34.6142157 28.3513043c0-4.3617391-1.504966-8.5747826-7.123506-8.5747826-4.063407 0-7.574995 1.8339131-10.283933 3.6678261l-2.35778-4.0147826c3.210594-2.0321739 8.026485-4.4113043 13.544693-4.4113043 8.427809 0 11.989561 5.5513043 11.989561 14.0269565v20.9165217h-4.81589l-.501656-4.0643478h-.150496c-3.361091 2.6765217-7.173671 4.9069565-11.437741 4.9069565-5.819201 0-10.133437-3.5686956-10.133437-9.6652174.050166-7.4843478 6.571684-11.2017391 21.270185-12.7878261zm-9.43112 17.7939131c3.361091 0 6.120195-1.6356522 9.43112-4.56v-9.4669565c-11.588238 1.3878261-15.501149 4.2130434-15.501149 8.5747826.050166 3.8660869 2.658773 5.4521739 6.070029 5.4521739zm22.273495-41.04000001c0-2.23043478 1.755794-3.7173913 4.063408-3.7173913 2.257449 0 4.063408 1.48695652 4.063408 3.7173913 0 2.18086957-1.755794 3.71739131-4.063408 3.71739131-2.257449 0-4.063408-1.53652174-4.063408-3.71739131zm1.103642 10.75565221h5.819201v34.1008695h-5.819201zm13.895851 0h4.815891l.501655 6.1956521h.200663c2.357779-4.2626087 5.869367-7.0382608 9.782278-7.0382608 1.504966 0 2.558442.1982608 3.712249.693913l-1.153807 5.0556522c-1.153807-.3469565-1.90629-.5452174-3.361091-.5452174-2.9096 0-6.371022 2.0817391-8.728802 7.8808696v21.907826h-5.819201v-34.1504347z" fill="#000"/><g transform="translate(0 5.452174)"><path d="m26.7883927.04956522c-14.2971759-.19826087-26.08607529 11.10260868-26.28673741 25.22869568-.20066211 14.1260869 11.23707861 25.773913 25.58442001 25.9721739h21.5210121c3.1604283 0 4.8158908-1.586087 4.8158908-4.5104348v-20.9165217c.0501655-14.0269566-11.3374097-25.57565221-25.6345855-25.77391308zm-.7023174 45.25304348c-10.9360854-.1486957-19.66488754-9.0208696-19.51439095-19.826087.15049658-10.8052174 9.13012635-19.42956518 20.06621175-19.28086953 10.9360854.14869566 19.6648875 9.02086953 19.5143909 19.82608693s-9.1301263 19.4295652-20.0662117 19.2808696z" fill="#56a3d9"/><path d="m19.4140599 22.4530435c.6521518-1.3878261 1.7557935-2.5773913 3.2105938-3.3704348 1.4046349-.7434783 2.9597663-1.0408696 4.4145666-.8921739l2.1069523-7.6330435c-3.411256-.5947826-7.0733397-.1486956-10.3340991 1.6852174-3.411256 1.8834783-5.8192014 4.8078261-7.0733396 8.1286956zm3.6119181 10.2104348c-1.4046348-.6443479-2.6587731-1.7347826-3.4614216-3.172174-.7524829-1.387826-1.0534761-2.9243478-.9029795-4.3617391l-7.7254915-2.0817391c-.6521519 3.3704348-.1504966 6.9886956 1.705628 10.26 1.9062901 3.3208696 4.9162219 5.7 8.2773123 6.9391304z" fill="#56a3d9"/><path d="m33.3099115 29.0452174c-.6521519 1.3878261-1.7557935 2.6269565-3.2105939 3.42-1.4046348.7434783-2.9096007 1.0408696-4.364401.8921739l-2.1571178 7.6330435c3.411256.5947826 7.0733396.0991304 10.334099-1.6852174 3.411256-1.8834783 5.8192015-4.8078261 7.0733397-8.1782609z" fill="#f1626e"/></g></g></svg>