<svg height="274" viewBox="0 0 2489 274" width="2489" xmlns="http://www.w3.org/2000/svg" xmlns:xlink="http://www.w3.org/1999/xlink"><linearGradient id="a" x1="45.549578%" x2="45.549578%" y1="50%" y2="-7.03125%"><stop offset="0" stop-color="#fff" stop-opacity=".08"/><stop offset="1" stop-color="#a6c5eb" stop-opacity=".08"/></linearGradient><linearGradient id="b" x1="7.078299%" x2="19.174452%" y1="47.67272%" y2="97.187352%"><stop offset="0" stop-color="#fff" stop-opacity=".295913"/><stop offset="1" stop-color="#92bfff" stop-opacity=".170177"/></linearGradient><linearGradient id="c" x1="7.078299%" x2="19.400525%" y1="47.67272%" y2="98.112762%"><stop offset="0" stop-color="#fff" stop-opacity=".08"/><stop offset="1" stop-color="#f5f5ff" stop-opacity=".582428"/></linearGradient><linearGradient id="d" x1="7.078299%" x2="19.400525%" y1="47.67272%" y2="98.112762%"><stop offset="0" stop-color="#fff" stop-opacity=".3857"/><stop offset="1" stop-color="#ecebff" stop-opacity=".668224"/></linearGradient><g fill="none" fill-rule="evenodd" opacity=".892857" transform="translate(28 -442)"><path d="m1763.16408 512.422082h954v226.173938l-880.93503-99.226097z" fill="#e5e4f2" fill-opacity=".883707" opacity=".759654" transform="matrix(-.88294759 .46947156 .46947156 .88294759 3924.452845 -978.47599)"/><path d="m1933.8081 397.593153h1203.08511v611.876886h-1203.08511z" fill="#f4f5ff" fill-opacity=".735705" opacity=".634989" transform="matrix(-.60181502 .79863551 .79863551 .60181502 3499.297447 -1744.685348)"/><path d="m1121.81122 828.956238h1401.138v726.476076h-1401.138z" fill="url(#a)" transform="matrix(.89879405 .43837115 .43837115 -.89879405 -338.187844 1464.852488)"/><path d="m1247.86539 903.863439h1328.97667v726.476076h-1328.97667z" fill="url(#b)" opacity=".703571" transform="matrix(.92718385 .37460659 .37460659 -.92718385 -335.41434 1725.55719)"/><path d="m1828.81225 163.25195h252.751103v318.522454h-252.751103z" fill="#fff7f2" fill-opacity=".584333" transform="matrix(.90630779 .42261826 .42261826 -.90630779 46.885914 -211.48869)"/><path d="m1114.27508 297.035208h345.61474v172.293361h-345.61474z" fill="#b1adff" fill-opacity=".08" opacity=".867522" transform="matrix(.80901699 -.58778525 .58778525 .80901699 20.582213 829.709314)"/><path d="m241.97747 664.438072h345.61474v347h-345.61474z" fill="#fa8787" fill-opacity=".119226" transform="matrix(.80901699 -.58778525 .58778525 .80901699 -413.310786 403.836343)"/><path d="m759.735874 807.637205h1378.34651v726.476076h-1378.34651z" fill="url(#c)" transform="matrix(.89879405 .43837115 .43837115 -.89879405 -366.639693 1588.090985)"/><path d="m-1.442234 201.504241h1272v204h-1272z" fill="url(#d)" transform="matrix(.94551858 -.32556815 -.32556815 -.94551858 133.382927 797.064939)"/></g></svg>