<?xml version="1.0" encoding="UTF-8"?>
<svg width="120px" height="120px" viewBox="0 0 120 120" version="1.1" xmlns="http://www.w3.org/2000/svg" xmlns:xlink="http://www.w3.org/1999/xlink">
    <!-- Generator: Sketch 48.1 (47250) - http://www.bohemiancoding.com/sketch -->
    <title>Artboard 2 Copy 8@2x</title>
    <desc>Created with Sketch.</desc>
    <defs></defs>
    <g id="Page-1" stroke="none" stroke-width="1" fill="none" fill-rule="evenodd">
        <g id="Artboard-2-Copy-8" fill="#1869A5">
            <g id="Group-10" transform="translate(0.000000, 10.000000)">
                <path d="M119.491944,80.8822273 C119.153609,80.5550501 118.727641,80.2976904 118.214408,80.108663 C117.700435,79.9211209 117.138763,79.7896559 116.528652,79.7168673 C115.917801,79.6440787 115.346515,79.6084271 114.815164,79.6084271 C113.606774,79.6084271 112.470118,79.8026538 111.407046,80.1903644 C110.343604,80.5795605 109.358921,81.1369874 108.451889,81.8659873 L108.451889,81.501673 C108.451889,80.9802691 108.268116,80.533882 107.899091,80.1632544 C107.531176,79.7929982 107.08561,79.6084271 106.56683,79.6084271 C106.03437,79.6084271 105.584736,79.7929982 105.216081,80.1632544 C104.847796,80.533882 104.662914,80.9802691 104.662914,81.501673 L104.662914,98.1067541 C104.662914,98.6289008 104.847796,99.0745452 105.216081,99.4448014 C105.584736,99.8150576 106.03437,100 106.56683,100 C107.08561,100 107.531176,99.8150576 107.899091,99.4448014 C108.268116,99.0745452 108.451889,98.6289008 108.451889,98.1067541 L108.451889,89.8040279 C108.451889,88.9183097 108.619023,88.0864402 108.950331,87.3091621 C109.283119,86.5329981 109.736081,85.8567328 110.309955,85.2796233 C110.884569,84.7032565 111.55791,84.2483279 112.331827,83.914466 C113.104634,83.5802327 113.932536,83.4134874 114.815164,83.4134874 C115.709624,83.4134874 116.537157,83.5650065 117.298871,83.8687874 C117.600229,84.0024808 117.866829,84.0685847 118.096453,84.0685847 C118.361204,84.0685847 118.609316,84.0210493 118.839679,83.9226361 C119.068564,83.8264512 119.268606,83.6897869 119.438328,83.5137574 C119.60694,83.3380993 119.742644,83.1345883 119.845438,82.9032246 C119.948233,82.6737178 120,82.4245283 120,82.1567703 C120,81.6353663 119.830278,81.2101473 119.491944,80.8822273 Z M86.7530066,87.9104106 C86.9452841,87.2434295 87.2422049,86.6340108 87.6404411,86.0806691 C88.0394169,85.5288128 88.5104967,85.0549442 89.0547898,84.6601776 C89.599083,84.2668964 90.196992,83.9594018 90.8496261,83.7406647 C91.5018904,83.5226703 92.172643,83.4134874 92.8618838,83.4134874 C93.5507548,83.4134874 94.2178097,83.5226703 94.8641578,83.7406647 C95.5108757,83.9594018 96.103608,84.2668964 96.6405058,84.6601776 C97.1788828,85.0549442 97.6507021,85.5288128 98.0544848,86.0806691 C98.4604861,86.6340108 98.7651719,87.2434295 98.9711306,87.9104106 L86.7530066,87.9104106 Z M100.040859,82.5938731 C98.033778,80.6033282 95.640663,79.6084271 92.8618838,79.6084271 C90.057221,79.6084271 87.664106,80.6033282 85.6829086,82.5938731 C83.6998623,84.5855322 82.7092635,86.9879268 82.7092635,89.8040279 C82.7092635,92.620129 83.6998623,95.0236377 85.6829086,97.0141826 C87.664106,99.0050989 90.057221,100 92.8618838,100 C95.4110393,100 97.6226,99.1748152 99.4969356,97.5237027 C99.8593047,97.1482473 100.040859,96.6933187 100.040859,96.1585454 C100.040859,95.6118883 99.861893,95.1599306 99.5050704,94.8015583 C99.1489873,94.4439287 98.6993538,94.2645568 98.1550607,94.2645568 C97.6839809,94.2771834 97.2668867,94.4357585 96.9045176,94.7380539 C96.33582,95.2238063 95.719053,95.5881206 95.0549562,95.8306254 C94.3890106,96.0735016 93.6594655,96.1949397 92.8618838,96.1949397 C92.160071,96.1949397 91.4867301,96.0853855 90.8396424,95.8666483 C90.1940339,95.6482826 89.600562,95.3422735 89.0632944,94.9475068 C88.525657,94.5531115 88.0571656,94.0803571 87.6589293,93.5273867 C87.2599536,92.975159 86.9571166,92.365369 86.7530066,91.6976451 L101.109848,91.6976451 C101.640829,91.6976451 102.091202,91.5182733 102.459857,91.1602723 C102.828882,90.8026427 103.013764,90.3499423 103.013764,89.8040279 C103.013764,88.3965344 102.764913,87.0889395 102.270168,85.8805005 C101.773945,84.6728042 101.030718,83.5772617 100.040859,82.5938731 Z M80.9939266,81.501673 C80.9939266,81.2465416 80.9432689,81.0044082 80.8404744,80.7737872 C80.7373101,80.5431662 80.6016066,80.3400267 80.4318848,80.1632544 C80.2625327,79.988339 80.0632297,79.8516747 79.833606,79.7536329 C79.6043521,79.6567053 79.3562402,79.6084271 79.0903797,79.6084271 C78.7158084,79.6084271 78.377474,79.7060975 78.0753765,79.8988387 L67.2353643,86.9823562 L67.2353643,72.7804124 C67.2353643,72.2467533 67.0504821,71.7947956 66.681827,71.4237967 C66.3139115,71.0542832 65.8687152,70.868598 65.3491962,70.868598 C64.8167355,70.868598 64.3671021,71.0542832 63.9991865,71.4237967 C63.6305314,71.7947956 63.4456493,72.2467533 63.4456493,72.7804124 L63.4456493,98.0881856 C63.4456493,98.6099609 63.6305314,99.0600617 63.9991865,99.4355171 C64.3671021,99.8117152 64.8167355,100 65.3491962,100 C65.8687152,100 66.3139115,99.8117152 66.681827,99.4355171 C67.0504821,99.0600617 67.2353643,98.6099609 67.2353643,98.0881856 L67.2353643,91.5153023 L69.4465552,90.0595307 L77.8224576,99.5083057 C78.1596827,99.8365971 78.5830629,100 79.0903797,100 C79.3562402,100 79.6043521,99.9513505 79.833606,99.8544228 C80.0632297,99.7574952 80.2625327,99.6212023 80.4318848,99.4448014 C80.6016066,99.2695146 80.7373101,99.0652609 80.8404744,98.8350113 C80.9432689,98.6047617 80.9939266,98.3607714 80.9939266,98.1067541 C80.9939266,97.6094893 80.8182885,97.1660731 80.4684915,96.7772484 L72.6734888,87.9653734 L80.2691885,83.0127789 C80.751731,82.6844875 80.9939266,82.1823948 80.9939266,81.501673 Z M49.8571785,85.2796233 C50.436969,84.7032565 51.1136378,84.2483279 51.8871849,83.914466 C52.6611017,83.5802327 53.4890041,83.4134874 54.3716317,83.4134874 C55.1688437,83.4134874 55.9054143,83.5475521 56.5831924,83.8134533 C57.2591216,84.0812113 57.9062093,84.4763493 58.5222367,84.9973818 C58.8849755,85.2889075 59.2957838,85.4348561 59.7550311,85.4348561 C60.2993243,85.4348561 60.7489577,85.2525132 61.1057803,84.888199 C61.4622332,84.5235133 61.6408294,84.0685847 61.6408294,83.5226703 C61.6408294,82.9526169 61.4230382,82.4728064 60.9878255,82.0839817 C59.1264317,80.4339834 56.9215268,79.6084271 54.3716317,79.6084271 C51.5665992,79.6084271 49.173854,80.6033282 47.1926565,82.5938731 C45.2103497,84.5855322 44.2190114,86.9879268 44.2190114,89.8040279 C44.2190114,92.620129 45.2103497,95.0236377 47.1926565,97.0141826 C49.173854,99.0050989 51.5665992,100 54.3716317,100 C56.9089548,100 59.1145992,99.1748152 60.9878255,97.5237027 C61.3868013,97.1226228 61.5857345,96.656553 61.5857345,96.1221511 C61.5857345,95.5751226 61.4071383,95.1235363 61.0517947,94.7655353 C60.6949721,94.4075344 60.2442294,94.2277911 59.7010455,94.2277911 C59.2417982,94.2404177 58.8428224,94.3737397 58.504488,94.6284997 C57.900293,95.1510177 57.2591216,95.5420707 56.5831924,95.8035154 C55.9054143,96.0645887 55.1688437,96.1949397 54.3716317,96.1949397 C53.4890041,96.1949397 52.6611017,96.0278231 51.8871849,95.6943325 C51.1136378,95.3600992 50.436969,94.9051706 49.8571785,94.3288039 C49.2766485,93.7524371 48.8203592,93.075429 48.4886806,92.2981509 C48.1562624,91.521987 47.9898685,90.6904888 47.9898685,89.8040279 C47.9898685,88.9183097 48.1562624,88.0864402 48.4886806,87.3091621 C48.8203592,86.5329981 49.2766485,85.8567328 49.8571785,85.2796233 Z M38.1445224,92.2714123 C37.8121042,93.0423771 37.3584034,93.7186424 36.7845291,94.3009511 C36.2106548,94.8840025 35.5362046,95.3456158 34.763397,95.6846769 C33.98985,96.0252235 33.1619475,96.1949397 32.27932,96.1949397 C31.38486,96.1949397 30.5514111,96.0252235 29.7782338,95.6846769 C29.0046868,95.3456158 28.3339342,94.8873448 27.7659761,94.3102353 C27.1972785,93.7338686 26.7472753,93.0576033 26.4148571,92.2803252 C26.082439,91.5041612 25.9164148,90.6778622 25.9164148,89.8040279 C25.9164148,88.9305649 26.082439,88.1050087 26.4148571,87.3277306 C26.7472753,86.5515666 27.1972785,85.8745585 27.7659761,85.2970777 C28.3339342,84.7221964 29.0046868,84.2635541 29.7782338,83.9226361 C30.5514111,83.5839464 31.38486,83.4134874 32.27932,83.4134874 C33.1619475,83.4134874 33.98985,83.5839464 34.763397,83.9226361 C35.5362046,84.2635541 36.2106548,84.7244247 36.7845291,85.3067333 C37.3584034,85.8897847 37.8121042,86.5660501 38.1445224,87.3373862 C38.476201,88.108351 38.642595,88.9305649 38.642595,89.8040279 C38.642595,90.6778622 38.476201,91.5008189 38.1445224,92.2714123 Z M39.4582952,82.5938731 C37.451584,80.6033282 35.0588388,79.6084271 32.27932,79.6084271 C29.4753968,79.6084271 27.0822818,80.6033282 25.1014541,82.5938731 C23.1184078,84.5855322 22.1278091,86.9879268 22.1278091,89.8040279 C22.1278091,92.620129 23.1184078,95.0236377 25.1014541,97.0141826 C27.0822818,99.0050989 29.4753968,100 32.27932,100 C35.0588388,100 37.451584,99.0050989 39.4582952,97.0141826 C41.440602,95.0474054 42.4319402,92.6442681 42.4319402,89.8040279 C42.4193683,88.3965344 42.168668,87.0915391 41.6791,85.8897847 C41.1899017,84.6880304 40.4496335,83.5898883 39.4582952,82.5938731 Z M16.0159738,92.2714123 C15.6835557,93.0423771 15.2305943,93.7186424 14.65672,94.3009511 C14.0828457,94.8840025 13.4087653,95.3456158 12.6359577,95.6846769 C11.8620409,96.0252235 11.0345083,96.1949397 10.1515109,96.1949397 C9.25742071,96.1949397 8.42360206,96.0252235 7.650055,95.6846769 C6.87613818,95.3456158 6.20538562,94.8873448 5.63816708,94.3102353 C5.06946948,93.7338686 4.61983601,93.0576033 4.28741784,92.2803252 C3.95499968,91.5041612 3.78860571,90.6778622 3.78860571,89.8040279 C3.78860571,88.9305649 3.95499968,88.1050087 4.28741784,87.3277306 C4.61983601,86.5515666 5.06946948,85.8745585 5.63816708,85.2970777 C6.20538562,84.7221964 6.87613818,84.2635541 7.650055,83.9226361 C8.42360206,83.5839464 9.25742071,83.4134874 10.1515109,83.4134874 C11.0345083,83.4134874 11.8620409,83.5839464 12.6359577,83.9226361 C13.4087653,84.2635541 14.0828457,84.7244247 14.65672,85.3067333 C15.2305943,85.8897847 15.6835557,86.5660501 16.0159738,87.3373862 C16.3487618,88.108351 16.514786,88.9305649 16.514786,89.8040279 C16.514786,90.6778622 16.3487618,91.5008189 16.0159738,92.2714123 Z M18.4005842,70.868598 C17.8562911,70.868598 17.4059181,71.0483413 17.049835,71.4059709 C16.6926426,71.7643433 16.514786,72.2163009 16.514786,72.7618439 L16.514786,81.8474188 C14.6777966,80.3541387 12.5564584,79.6084271 10.1515109,79.6084271 C7.34758775,79.6084271 4.95484253,80.6033282 2.97253575,82.5938731 C0.990598741,84.5855322 0,86.9879268 0,89.8040279 C0,92.620129 0.990598741,95.0236377 2.97253575,97.0141826 C4.95484253,99.0050989 7.34758775,100 10.1515109,100 C12.9310297,100 15.3241447,99.0050989 17.3304861,97.0141826 C19.3127929,95.0474054 20.3033917,92.6442681 20.3033917,89.8040279 L20.3033917,72.7618439 C20.3033917,72.2163009 20.119249,71.7643433 19.7505939,71.4059709 C19.3819389,71.0483413 18.9323054,70.868598 18.4005842,70.868598 Z M71.0102887,28.813509 L80.2917441,28.813509 L80.2917441,20.3388383 L71.0102887,20.3388383 L71.0102887,28.813509 Z M60.040859,28.813509 L69.3226841,28.813509 L69.3226841,20.3388383 L60.040859,20.3388383 L60.040859,28.813509 Z M49.071799,28.813509 L58.3532544,28.813509 L58.3532544,20.3388383 L49.071799,20.3388383 L49.071799,28.813509 Z M38.1023693,28.813509 L47.3841944,28.813509 L47.3841944,20.3388383 L38.1023693,20.3388383 L38.1023693,28.813509 Z M27.1329395,28.813509 L36.4147647,28.813509 L36.4147647,20.3388383 L27.1329395,20.3388383 L27.1329395,28.813509 Z M38.1023693,18.6439041 L47.3841944,18.6439041 L47.3841944,10.1696048 L38.1023693,10.1696048 L38.1023693,18.6439041 Z M49.071799,18.6439041 L58.3532544,18.6439041 L58.3532544,10.1696048 L49.071799,10.1696048 L49.071799,18.6439041 Z M60.040859,18.6439041 L69.3226841,18.6439041 L69.3226841,10.1696048 L60.040859,10.1696048 L60.040859,18.6439041 Z M60.040859,8.47467069 L69.3226841,8.47467069 L69.3226841,0 L60.040859,0 L60.040859,8.47467069 Z M110.059994,25.1280299 L108.186028,23.8720555 C106.158241,22.5102405 101.501798,22.0111188 97.9169324,22.6899838 C97.4554665,19.2993728 95.5737356,16.3592339 92.1515664,13.7017079 L90.1836804,12.384086 L88.8710169,14.3620044 C87.1900681,16.9077479 86.3503333,20.4346518 86.6254379,23.8170927 C86.749309,25.0065918 87.1386709,27.1349151 88.357784,29.0058788 C87.1394104,29.6635756 84.7311351,30.5693478 81.5574475,30.5084431 L20.5141574,30.5084431 L20.3947235,31.2144181 C19.8208492,34.6135706 19.8334212,45.2202783 26.6899618,53.3729709 C31.9021603,59.5696561 39.7163907,62.7118203 49.9152315,62.7118203 C72.0252919,62.7118203 88.382928,52.4898523 96.0429666,33.9090811 C99.0550672,33.9696145 105.541104,33.9269069 108.872681,27.5337668 C108.959206,27.3870756 109.159248,27.00345 109.741257,25.7924114 L110.059994,25.1280299 Z" id="vertical"></path>
            </g>
        </g>
    </g>
</svg>