<svg height="128" viewBox="0 0 376 128" width="376" xmlns="http://www.w3.org/2000/svg" xmlns:xlink="http://www.w3.org/1999/xlink"><mask id="a" fill="#fff"><path d="m.04869863.6128h86.42464727v59.3872h-86.42464727z" fill="#fff" fill-rule="evenodd"/></mask><g fill="none" fill-rule="evenodd" transform="translate(67 32)"><path d="m6.77722603 29.4128h8.92808217v-8h-8.92808217z" fill="#099cec"/><path d="m17.3285959 29.4128h8.9280822v-8h-8.9280822z" fill="#099cec"/><path d="m27.8799658 29.4128h8.9280821v-8h-8.9280821z" fill="#099cec"/><path d="m38.4313356 29.4128h8.9280822v-8h-8.9280822z" fill="#099cec"/><path d="m48.9827055 29.4128h8.9280822v-8h-8.9280822z" fill="#099cec"/><path d="m17.3285959 19.8128h8.9280822v-8h-8.9280822z" fill="#099cec"/><path d="m27.8799658 19.8128h8.9280821v-8h-8.9280821z" fill="#099cec"/><path d="m38.4313356 19.8128h8.9280822v-8h-8.9280822z" fill="#099cec"/><path d="m38.4313356 10.2128h8.9280822v-8h-8.9280822z" fill="#099cec"/><g transform="translate(.811644 12.8)"><path d="m83.6918425 11.0824c-1.8326918-1.216-6.647363-1.7344-10.1471713-.8056-.189113-3.4368-1.9860924-6.3328-5.2756849-8.8584l-1.2174658-.8056-.8116438 1.208c-1.5948801 2.3856-2.2669212 5.5656-2.0291096 8.456.1874897 1.7808.8165137 3.7824 2.0291096 5.2352-.9301438.712-3.8171609 2.0864-7.7106164 2.0136h-58.03253427c-1.03241096 6.04.73453767 28.9936 27.59589037 28.9936 19.9404658 0 36.3259315-8.8392 43.8287672-27.3832 2.4682089.04 8.9848972.436 12.1746575-5.6376.0771062-.1024.8116438-1.6104.8116438-1.6104z" fill="#099cec"/><path d="m21.9379212 35.6136c-6.6213904 2.264-13.75168147 2.5912-15.24185956 2.5256 4.96644866 4.0832 13.81823626 11.7872 28.40753426 7.388-2.6646267-.7136-8.9491849-3.1008-13.1656747-9.9136" fill="#fff"/></g><path d="m28.1859555 40.3592c1.5583561 0 2.8220856 1.2544 2.8220856 2.8 0 1.5472-1.2637295 2.8-2.8220856 2.8-1.5583562 0-2.8220856-1.2528-2.8220856-2.8 0-1.5456 1.2637294-2.8 2.8220856-2.8" fill="#fff"/><path d="m28.6104452 42.3728c0-.256.1290514-.4752.3173527-.6224-.2207671-.1128-.4683184-.1832-.733726-.1832-.8911849 0-1.6127363.7168-1.6127363 1.6 0 .8848.7215514 1.6 1.6127363 1.6.8903733 0 1.6119247-.7152 1.6119247-1.6l-.0097398-.0912c-.1128184.06-.237.1024-.3741678.1024-.4480274 0-.8116438-.36-.8116438-.8056" fill="#4d5c64"/><path d="m84.2632397 23.736c-1.2539897-.7008-3.5371438-1.1344-5.8949692-1.1344-1.3757363 0-2.7758219.1472-4.0119554.4752-.0040583-.072-.0089281-.1448-.0146096-.2168 1.114387-.2904 2.392726-.42 3.6694418-.42 2.5363869 0 5.0614109.5128 6.2520924 1.296" fill="#f3f3f3"/><path d="m32.9405651 59.0776c.9642328-.1944 1.95525-.4424 2.9746746-.7504-1.2474965-.3344-3.2904041-1.0352-5.5419041-2.3872 18.5509315-.4448 32.136226-9.8296 42.9952089-31.9824l.7450891-1.0352c.0754828-.0216.1517774-.0424.2280719-.0624.0056815.072.0105513.1448.0146096.2168 1.2361335-.328 2.6362191-.4752 4.0119554-.4752 2.3578254 0 4.6409795.4336 5.8949692 1.1344.0016233.0016.0040582.0032.0064932.004l1.2255822.8192-.6168493 1.288c-2.8147809 5.6232-8.926459 6.0464-11.7883151 6.0464-.2329418 0-.4447808-.0032-.6306473-.0056-7.014226 17.1216-21.5856678 25.9512-39.5189383 27.1896" fill="#f3f3f3"/><g transform="translate(0 22.4)"><path d="m32.9405651 36.6776c.9642328-.1944 1.95525-.4424 2.9746746-.7504-1.2474965-.3344-3.2904041-1.0352-5.5419041-2.3872 18.5509315-.4448 32.136226-9.8296 42.9952089-31.9824l.7450891-1.0352c.0754828-.0216.1517774-.0424.2280719-.0624.0056815.072.0105513.1448.0146096.2168 1.2361335-.328 2.6362191-.4752 4.0119554-.4752 2.3578254 0 4.6409795.4336 5.8949692 1.1344.0016233.0016.0040582.0032.0064932.004l1.2255822.8192-.6168493 1.288c-2.8147809 5.6232-8.926459 6.0464-11.7883151 6.0464-.2329418 0-.4447808-.0032-.6306473-.0056-7.014226 17.1216-21.5856678 25.9512-39.5189383 27.1896" fill="#0994e0"/><path d="m18.9242877 35.7304c-17.90729797-4.5504-19.03304797-21.9216-18.67024318-27.1544h.96179795c-.66554795 5.7544.98290068 21.72 16.75151713 26.7824.3132945.1296.6322705.2536.9569281.372" fill="#f3f3f3"/></g><path d="m17.9673596 57.7584c-15.76861645-5.0624-17.41706508-21.028-16.75151713-26.7824h2.28477739c.82219521 8.2704 2.8513048 15.272 8.29094174 19.736-1.7263664.1768-3.09560955.2344-3.86910612.2344-.16638699 0-.30517808-.0024-.41475-.0072 2.45928082 2.0216 5.87143152 4.9304 10.45965412 6.8192" fill="#f3f3f3"/><path d="m17.9673596 57.7584c-15.76861645-5.0624-17.41706508-21.028-16.75151713-26.7824h2.28477739c.82219521 8.2704 2.8513048 15.272 8.29094174 19.736-1.7263664.1768-3.09560955.2344-3.86910612.2344-.16638699 0-.30517808-.0024-.41475-.0072 2.45928082 2.0216 5.87143152 4.9304 10.45965412 6.8192" fill="#0994e0"/><path d="m28.4692192 59.2296c-3.6183082 0-6.7812843-.3968-9.5449315-1.0992-.3246576-.1184-.6436336-.2424-.9569281-.372-4.5882226-1.8888-8.0003733-4.7976-10.45965412-6.8192.10957192.0048.24836301.0072.41475.0072.77349657 0 2.14273972-.0576 3.86910612-.2344 4.0135788 3.2944 9.8825754 5.2072 18.4933048 5.2304.0292192-.0008.05925-.0016.0884692-.0024 2.2515 1.352 4.2944076 2.0528 5.5419041 2.3872-1.0194246.308-2.0104418.556-2.9746746.7504-1.4682637.1016-2.9608767.152-4.4713459.152" fill="#f3f3f3"/><path d="m28.4692192 59.2296c-3.6183082 0-6.7812843-.3968-9.5449315-1.0992-.3246576-.1184-.6436336-.2424-.9569281-.372-4.5882226-1.8888-8.0003733-4.7976-10.45965412-6.8192.10957192.0048.24836301.0072.41475.0072.77349657 0 2.14273972-.0576 3.86910612-.2344 4.0135788 3.2944 9.8825754 5.2072 18.4933048 5.2304.0292192-.0008.05925-.0016.0884692-.0024 2.2515 1.352 4.2944076 2.0528 5.5419041 2.3872-1.0194246.308-2.0104418.556-2.9746746.7504-1.4682637.1016-2.9608767.152-4.4713459.152" fill="#f2f2f2" mask="url(#a)"/><g fill="#066da5"><path d="m84.2989521 25.04c-.1006439.2016-.1858665.372-.2516096.4992-.0357124.0696-.0641199.1248-.143661.2632-1.2044794 2.2944-2.973863 3.7312-5.2180582 4.508-1.7766884.616-3.3869897.7536-5.8008185.7048-.0235377-.0008-.1753151-.004-.4220548-.0088l-.558411-.0088-.2085924.5144c-7.1002603 17.5496-22.6050925 26.8768-43.07475 26.8768-8.9662295 0-15.5364863-2.5712-20.01757194-7.1224.85790753.0936 1.72798974.1472 2.61186984.1472 4.2197363 0 8.1570206-1.088 11.5854041-3-.2832637-.4632-.5478596-.9264-.7905411-1.4096-3.185702 1.792-6.8794931 2.7984-10.794863 2.7984-1.45771231 0-2.88052395-.1432-4.25869518-.4104-.68989727-.8848-1.32054453-1.824-1.88626028-2.8232-1.62409931-2.876-2.6589452-6.1024-3.14349657-9.4056-.33602055-2.2904-.38066096-4.5136-.19560617-6.1568h3.42270206v.0064h54.38013694v-.016c3.2149213-.036 6.22125-1.016 7.7300959-2.1712l.665548-.5096-.5364966-.6416c-1.0056267-1.204-1.6533185-2.968-1.8473014-4.8048-.2305068-2.804.4593904-5.7744 1.898435-7.928l.3603698-.536.5178288.3424c3.1508014 2.4264 4.7684075 5.1216 4.9396644 8.2488l.0551918.9912.9650445-.2568c3.1605411-.8392 7.7885342-.4296 9.4856815.6968l.6282123.4152c-.0292192.0592-.0576267.116-.0973972.1968zm-77.52172607 4.356h8.92808217v-7.9832h-8.92808217zm10.55136987-9.5832h8.9280822v-8h-8.9280822zm10.5513699 0h8.9280821v-8h-8.9280821zm10.5513698-9.6h8.9280822v-8h-8.9280822zm0 9.6h8.9280822v-8h-8.9280822zm10.5513699 9.5832h8.9280822v-7.9832h-8.9280822zm-31.6541096 0h8.9280822v-7.9832h-8.9280822zm10.5513699 0h8.9280821v-7.9832h-8.9280821zm10.5513698 0h8.9280822v-7.9832h-8.9280822zm36.3608322-7.4304c-.448839-3.236-2.2896473-6.0448-5.5208014-8.5264l-1.9162911-1.2672-1.2621061 1.8776c-1.6500719 2.4696-2.4235685 5.8-2.1630308 8.9688.1915479 1.8176.7613219 3.5712 1.6760445 4.9592-1.3814178.7592-3.6483391 1.38-6.0719076 1.412v-9.5768h-10.5513698v-19.2h-12.1746576v9.6h-21.1027397v9.6h-10.55136984v9.5832h-4.81467124l-.11444178.6704c-.31654109 1.8504-.31167123 4.5496.09577398 7.3288.51214726 3.4896 1.6054315 6.9032 3.33423287 9.9624 4.50218836 7.964 12.68112331 12.6424 24.96616441 12.6424 20.9030753 0 36.9151849-9.512 44.3693219-27.372 2.5193425.0448 4.2595068-.1136 6.2301781-.7968 2.6118698-.9048 4.7050993-2.5992 6.1084315-5.256.0787294-.1288.1939829-.3552.437476-.848.0892808-.1776.1826199-.3688.2759589-.5592.0324658-.0664.0624966-.128.1241815-.2544l.3068014-.6304-1.802661-1.1944c-1.9503801-1.2936-6.3949417-1.7816-9.8785171-1.1232z" mask="url(#a)"/><path d="m8.4005137 27.8128h.81164383v-4.8h-.81164383z"/><path d="m10.8354452 27.8128h.8116438v-4.8h-.8116438z"/><path d="m13.2703767 27.8128h.8116438v-4.8h-.8116438z"/><path d="m18.9518836 27.8128h.8116438v-4.8h-.8116438z"/><path d="m21.3868151 27.8128h.8116438v-4.8h-.8116438z"/><path d="m23.8217466 27.8128h.8116438v-4.8h-.8116438z"/><path d="m29.5032534 27.8128h.8116439v-4.8h-.8116439z"/><path d="m31.9381849 27.8128h.8116439v-4.8h-.8116439z"/><path d="m34.3731164 27.8128h.8116439v-4.8h-.8116439z"/><path d="m40.0546233 27.8128h.8116438v-4.8h-.8116438z"/><path d="m42.4895548 27.8128h.8116438v-4.8h-.8116438z"/><path d="m44.9244863 27.8128h.8116438v-4.8h-.8116438z"/><path d="m50.6059932 27.8128h.8116438v-4.8h-.8116438z"/><path d="m53.0409247 27.8128h.8116438v-4.8h-.8116438z"/><path d="m55.4758562 27.8128h.8116438v-4.8h-.8116438z"/><path d="m21.3868151 18.2128h.8116438v-4.8h-.8116438z"/><path d="m23.8217466 18.2128h.8116438v-4.8h-.8116438z"/><path d="m29.5032534 18.2128h.8116439v-4.8h-.8116439z"/><path d="m31.9381849 18.2128h.8116439v-4.8h-.8116439z"/><path d="m34.3731164 18.2128h.8116439v-4.8h-.8116439z"/><path d="m40.0546233 18.2128h.8116438v-4.8h-.8116438z"/><path d="m42.4895548 18.2128h.8116438v-4.8h-.8116438z"/><path d="m44.9244863 18.2128h.8116438v-4.8h-.8116438z"/><path d="m42.4895548 8.6128h.8116438v-4.8h-.8116438z"/><path d="m40.0546233 8.6128h.8116438v-4.8h-.8116438z"/><path d="m44.9244863 8.6128h.8116438v-4.8h-.8116438z"/><path d="m18.9518836 18.2128h.8116438v-4.8h-.8116438z"/><path d="m200.968158 38.3224c.23213-.7952.588441-1.5216 1.068123-2.18.479681-.6576 1.046209-1.2216 1.700394-1.692.654185-.4696 1.373301-.8352 2.158161-1.0952.784859-.2608 1.590822-.3904 2.41951-.3904s1.631404.1296 2.408959.3904c.777555.26 1.489366.6256 2.136246 1.0952.646881.4704 1.213408 1.0344 1.700394 1.692.486175.6584.85385 1.3848 1.100589 2.18zm15.978832-6.3344c-2.412206-2.372-5.289483-3.5576-8.632644-3.5576-3.371569 0-6.249658 1.1856-8.632644 3.5576-2.383798 2.372-3.575291 5.236-3.575291 8.5912s1.191493 6.2192 3.575291 8.5912c2.382986 2.372 5.261075 3.5576 8.632644 3.5576 3.06639 0 5.726147-.9832 7.97927-2.9504.435853-.448.653374-.9904.653374-1.6264 0-.6512-.214274-1.1904-.643634-1.6168-.427736-.4264-.969103-.64-1.623288-.64-.567339.0144-1.068123.2024-1.503976.564-.683404.5784-1.424434 1.0128-2.224715 1.3016-.798658.2896-1.677668.4336-2.637031.4336-.843298 0-1.653319-.1296-2.430873-.3904-.777555-.26-1.489367-.6248-2.135435-1.0952-.64688-.4704-1.210973-1.0344-1.690654-1.692-.47887-.6576-.842487-1.3848-1.089226-2.1808h17.264476c.639575 0 1.180941-.2136 1.624911-.64.443157-.4264.664736-.9656.664736-1.616 0-1.6776-.298685-3.236-.89362-4.6752-.595747-1.4392-1.490178-2.7448-2.681671-3.916z"/><path d="m240.862075 29.9488c-.407445-.3904-.919592-.6976-1.537253-.9224-.616849-.224-1.292949-.3792-2.027486-.4664-.733726-.0864-1.420377-.1296-2.059952-.1296-1.452843 0-2.818839.2312-4.097179.6936-1.279962.4632-2.46415 1.1288-3.554188 1.9968v-.4344c0-.6216-.221579-1.1536-.664736-1.5944-.443969-.4408-.977219-.6616-1.602185-.6616-.639575 0-1.180942.2208-1.624099.6616-.443158.4408-.665548.9728-.665548 1.5944v19.7856c0 .6216.22239 1.1528.665548 1.5944.443157.4416.984524.6616 1.624099.6616.624966 0 1.158216-.22 1.602185-.6616.443157-.4416.664736-.9728.664736-1.5944v-9.8928c0-1.0552.200476-2.0464.599805-2.972s.944753-1.732 1.635462-2.4192c.689086-.6872 1.499918-1.2296 2.430062-1.6272s1.926031-.596 2.986038-.596c1.076239 0 2.071315.18 2.986849.5424.362805.1584.683404.2384.959363.2384.319788 0 .616849-.0576.89362-.1736.275959-.116.516205-.2784.719116-.488.203723-.2096.366863-.452.490233-.7264.124182-.2752.185867-.572.185867-.8904 0-.6216-.203723-1.128-.610357-1.5184"/><path d="m193.64226 30.6864c0-.3032-.061685-.5928-.185055-.8672-.124181-.2752-.287321-.5176-.491044-.7272s-.443158-.372-.718305-.488c-.27677-.116-.574644-.1736-.894431-.1736-.450463 0-.857908.1152-1.220713.3472l-13.035811 8.4392v-16.9224c0-.636-.222391-1.1744-.665548-1.616-.443158-.4408-.977219-.6616-1.602185-.6616-.638764 0-1.18013.2208-1.623288.6616-.443969.4416-.665548.98-.665548 1.616v30.156c0 .6216.221579 1.1568.665548 1.6056.443158.448.984524.672 1.623288.672.624966 0 1.159027-.224 1.602185-.672.443157-.4488.665548-.984.665548-1.6056v-7.8312l2.658945-1.736 10.071688 11.2592c.406634.3904.915534.5856 1.525891.5856.319787 0 .617661-.0576.894431-.1728.275147-.116.514582-.2784.718305-.4888.203723-.2088.366863-.4512.491044-.7264.12337-.2752.185055-.564.185055-.868 0-.5928-.210215-1.1208-.63227-1.584l-9.373675-10.4992 9.13424-5.9016c.581137-.3904.871705-.9912.871705-1.8008"/><path d="m114.300017 43.5192c-.40014.9184-.944753 1.7248-1.634651 2.4184-.690708.6944-1.500729 1.244-2.430873 1.6496-.930144.4048-1.925219.6064-2.986849.6064-1.075428 0-2.07862-.2016-3.007952-.6064-.930956-.4056-1.736918-.9512-2.420322-1.6384-.682593-.6872-1.223959-1.4936-1.623288-2.4192-.4001402-.9256-.5998046-1.9088-.5998046-2.9504s.1996644-2.024.5998046-2.9504c.399329-.9256.940695-1.732 1.623288-2.4192.683404-.6872 1.489366-1.2328 2.420322-1.6376.929332-.4048 1.932524-.6072 3.007952-.6072 1.06163 0 2.056705.2024 2.986849.6072s1.740165.9544 2.430873 1.6488c.689898.6944 1.234511 1.5008 1.634651 2.4192.400141.9184.599805 1.8976.599805 2.9392s-.199664 2.0208-.599805 2.94zm2.866726-25.5024c-.654185 0-1.195551.2136-1.624099.64-.42936.4264-.642822.9656-.642822 1.616v10.8256c-2.209295-1.7784-4.760291-2.668-7.652178-2.668-3.371569 0-6.248846 1.1856-8.632644 3.5576-2.3829863 2.372-3.5744795 5.236-3.5744795 8.5912s1.1914932 6.2192 3.5744795 8.5912c2.383798 2.372 5.261075 3.5576 8.632644 3.5576 3.342349 0 6.220438-1.1856 8.633455-3.5576 2.382987-2.3432 3.57448-5.2072 3.57448-8.5912v-20.3064c0-.6504-.220767-1.1896-.664737-1.616-.443157-.4264-.984524-.64-1.624099-.64z"/><path d="m141.310712 43.5192c-.399328.9184-.944753 1.7248-1.635462 2.4184-.689897.6944-1.500729 1.244-2.430062 1.6496-.930955.4048-1.92603.6064-2.986849.6064-1.075428 0-2.077808-.2016-3.008764-.6064-.929332-.4056-1.736106-.9512-2.418698-1.6384-.683404-.6872-1.224771-1.4936-1.6241-2.4192-.40014-.9256-.599804-1.9088-.599804-2.9504s.199664-2.024.599804-2.9504c.399329-.9256.940696-1.732 1.6241-2.4192.682592-.6872 1.489366-1.2328 2.418698-1.6376.930956-.4048 1.933336-.6072 3.008764-.6072 1.060819 0 2.055894.2024 2.986849.6072.929333.4048 1.740165.9544 2.430062 1.6488.690709.6944 1.236134 1.5008 1.635462 2.4192.399329.9184.598993 1.8976.598993 2.9392s-.199664 2.0208-.598993 2.94zm1.580271-11.5312c-2.413017-2.372-5.290295-3.5576-8.632644-3.5576-3.371568 0-6.248846 1.1856-8.631832 3.5576-2.383798 2.372-3.576103 5.236-3.576103 8.5912s1.192305 6.2192 3.576103 8.5912c2.382986 2.372 5.260264 3.5576 8.631832 3.5576 3.342349 0 6.219627-1.1856 8.632644-3.5576 2.383798-2.3432 3.575291-5.2072 3.575291-8.5912-.01461-1.6776-.315729-3.232-.904983-4.664-.588442-1.432-1.478003-2.7408-2.670308-3.9272z"/><path d="m155.796932 35.188c.698013-.6872 1.512092-1.2296 2.442236-1.6272s1.925219-.596 2.986037-.596c.960175 0 1.845679.1592 2.659757.4768.814079.3184 1.591634.788 2.332665 1.4104.435852.3472.930144.52 1.482061.52.654185 0 1.195552-.2168 1.6241-.6504.429359-.4336.642822-.976.642822-1.6272 0-.6792-.26135-1.2512-.784048-1.7136-2.238514-1.9672-4.890966-2.9504-7.957357-2.9504-3.370756 0-6.248845 1.1856-8.632643 3.5576-2.382987 2.372-3.57448 5.236-3.57448 8.5912s1.191493 6.2192 3.57448 8.5912c2.383798 2.372 5.261887 3.5576 8.632643 3.5576 3.052593 0 5.704233-.9832 7.957357-2.9504.47887-.4776.719116-1.0336.719116-1.6704 0-.6512-.214274-1.1888-.643633-1.616-.428548-.4272-.969915-.64-1.6241-.64-.551106.0144-1.030787.1736-1.438233.4768-.727233.6224-1.496671 1.0888-2.31075 1.3992-.814078.3112-1.699582.4664-2.659757.4664-1.060818 0-2.055893-.1984-2.986037-.596s-1.744223-.94-2.442236-1.6272c-.697203-.6864-1.245874-1.4936-1.645203-2.4184-.40014-.9264-.599804-1.9168-.599804-2.9728 0-1.0552.199664-2.0464.599804-2.972.399329-.9256.948-1.732 1.645203-2.4192"/></g></g></svg>