<svg height="128" viewBox="0 0 376 128" width="376" xmlns="http://www.w3.org/2000/svg" xmlns:xlink="http://www.w3.org/1999/xlink"><linearGradient id="a" x1="0%" x2="101.999998%" y1="0%" y2="100.999999%"><stop offset="0" stop-color="#8075e1"/><stop offset="1" stop-color="#c86dd7"/></linearGradient><linearGradient id="b" x1="10.101265%" x2="114.827751%" y1="7.574865%" y2="118.922178%"><stop offset="0" stop-color="#fff"/><stop offset="1" stop-color="#e8efee"/></linearGradient><linearGradient id="c"><stop offset="0" stop-color="#c2cece" stop-opacity="0"/><stop offset=".179" stop-color="#afbcbc" stop-opacity=".179"/><stop offset="1" stop-color="#5b6a6a"/></linearGradient><linearGradient id="d" x1="100.873559%" x2="-4.780801%" xlink:href="#c" y1="-11.474526%" y2="110.15782%"/><linearGradient id="e" x1="104.038892%" x2="12.902785%" xlink:href="#c" y1="53.699531%" y2="-30.188448%"/><linearGradient id="f" x1="0%" x2="101.999998%" y1="0%" y2="100.999999%"><stop offset="0" stop-color="#5c53b8"/><stop offset="1" stop-color="#bf75cb"/></linearGradient><linearGradient id="g" x1="0%" x2="101.999998%" y1="0%" y2="100.999999%"><stop offset="0" stop-color="#463e8e"/><stop offset="1" stop-color="#9a50b6"/></linearGradient><linearGradient id="h" x1="50%" x2="50%" y1="0%" y2="100%"><stop offset="0" stop-color="#f5515f"/><stop offset="1" stop-color="#9f041b"/></linearGradient><linearGradient id="i" x1="24.787957%" x2="-52.394167%" xlink:href="#c" y1="23.179353%" y2="-58.914184%"/><g fill="none" fill-rule="evenodd" transform="translate(90 35)"><g fill-rule="nonzero"><path d="m29.3963555.69376173-29.35385159 20.09626187v3.7451695h30.95749609 30.9574961v-3.7451695l-29.3538516-20.09626187c-.9354492-.64042265-2.2718398-.64042265-3.207289 0z" fill="url(#a)"/><path d="m56.8546055 53.7299412h-51.70921097c-1.40904687 0-2.55144531-1.0463184-2.55144531-2.3368591v-44.26723215c0-1.29054071 1.14227734-2.33685912 2.55144531-2.33685912h51.70921097c1.4090468 0 2.5514453 1.04631841 2.5514453 2.33685912v44.26734305c0 1.2906516-1.1422774 2.3367482-2.5514453 2.3367482z" fill="url(#b)"/><path d="m59.4060508 45.5179735v.9888019c0 1.6375147-1.3349375 2.9664056-2.9796328 2.9664056h-50.85271488c-1.6448164 0-2.97963281-1.3290114-2.97963281-2.9664056v-.9888019z" fill="url(#d)"/><g fill="#c2cece"><path d="m14.5855 4.318738h32.829v1.862834h-32.829z"/><path d="m14.5855 11.769473h32.829v1.862834h-32.829z"/><path d="m14.5855 19.38983h32.829v1.862834h-32.829z"/><path d="m14.5855 27.010307h32.829v1.862834h-32.829z"/></g><path d="m51.4965703 21.4224073c-2.5451484 0-4.877293-.9057387-6.6909141-2.4099183l-.7082773.1238112 15.3086719 15.2407138v-16.5575491c-1.918125 2.2055755-4.7490547 3.6029424-7.9094805 3.6029424z" fill="url(#e)"/><path d="m61.9574961 20.7229402v34.7369408c0 1.4021891-1.1430039 2.540119-2.5514453 2.540119h-56.81210158c-1.40844141 0-2.55144531-1.1379299-2.55144531-2.540119v-34.7369408l31.29776949 24.5765855z" fill="url(#f)"/><path d="m61.6133477 56.7299405-28.6717305-23.0149005c-.9346016-.7502212-2.2683281-.7502212-3.2029297 0l-29.10887891 23.365719c.46814844.5614302 1.17400391.919241 1.96414063.919241h56.81198048c.9439258 0 1.7661523-.5115199 2.207418-1.2700595z" fill="url(#g)"/><g transform="translate(42.758621 6.917431)"><ellipse cx="8.700414" cy="8.632099" fill="url(#h)" rx="8.368741" ry="8.33159"/><path d="m6.81348265 5.29520046c0-.27023876.1096625-.48338211.32889063-.6393336l1.62905-1.55941847c.11479687-.11428727.25575-.17157557.42295625-.17157557.1879375 0 .35756562.04947626.50898125.14813945.15131875.09885608.22717187.23146789.22717187.39764255v10.32317858c0 .166464-.0837.2989793-.25061562.397739-.16720625.098856-.36018125.1481394-.57950625.1481394-.2297875 0-.42566875-.0492834-.58735313-.1481394-.16207187-.0986632-.24286562-.231275-.24286562-.397739v-8.67030496l-.54821563.68620585c-.10443125.10396766-.21922812.15595149-.34458437.15595149-.15664688 0-.28975313-.07011548-.3995125-.21044289-.10956563-.14042385-.16439688-.29367489-.16439688-.46004243z" fill="#fff"/></g><path d="m3.38941406 56.2387572v-48.11783432c0-1.40279186 1.14239844-2.54011898 2.55144531-2.54011898h51.70921093c.5007227 0 .9663281.14575244 1.3603672.39385708-.452043-.7116432-1.2475078-1.18567015-2.155832-1.18567015h-51.70921097c-1.40904687 0-2.55144531 1.13732712-2.55144531 2.54011898v48.11771369c0 .9044126.47614062 1.6962257 1.19107812 2.1463825-.24921093-.3924104-.39561328-.855949-.39561328-1.3544488z" fill="url(#i)"/></g><path d="m102.912202 35.0979492h-11.4205074c.0142579 1.3259832.2815892 2.4951121.8020019 3.5074219.5204128 1.0123097 1.2119098 1.7750951 2.0745118 2.2883789.8626019.5132838 1.8143014.7699219 2.8551269.7699219.6986363 0 1.3366671-.0819816 1.9141113-.2459473.5774443-.1639657 1.1370575-.4206037 1.6788575-.7699219.5418-.3493181 1.040818-.723582 1.49707-1.1228027.456253-.3992207 1.047946-.9410122 1.775098-1.6253906.299415-.2566419.727146-.384961 1.283203-.384961.598831 0 1.083592.1639632 1.454297.4918946.370705.3279313.556055.7913056.556055 1.3901367 0 .5275417-.206737 1.1441859-.620215 1.8499512-.413479.7057652-1.037252 1.3830045-1.871338 2.0317382-.834086.6487338-1.882025 1.1869608-3.143848 1.6146973-1.261822.4277365-2.7125404.6416016-4.352197.6416016-3.7498235 0-6.665517-1.0693253-8.747168-3.2080078-2.081651-2.1386826-3.1224609-5.0401184-3.1224609-8.7043946 0-1.7252039.256638-3.3256274.7699218-4.8013183.5132839-1.475691 1.2618115-2.7410592 2.2456055-3.7961426s2.1956959-1.8642062 3.6357422-2.4273926 3.0369053-.8447754 4.790625-.8447754c2.2812614 0 4.2381264.4811964 5.8706544 1.4436035 1.632528.9624072 2.855123 2.2063889 3.667822 3.7319825.8127 1.5255935 1.219043 3.0796795 1.219043 4.6623046 0 1.4685621-.420601 2.4202615-1.261816 2.855127s-2.024602.6522949-3.550196.6522949zm-11.4205074-3.3149414h10.5864254c-.142578-1.9961037-.680806-3.4895946-1.614697-4.4805176-.9338913-.9909229-2.1636153-1.4863769-3.6892089-1.4863769-1.4543041 0-2.648384.5025828-3.5822754 1.5077637-.9338914 1.0051808-1.5006337 2.4915428-1.7002441 4.4591308zm40.5706054 2.3097656v7.7633789c0 1.226178-.278025 2.1457978-.834082 2.7588868s-1.290327.9196289-2.202832.9196289c-.883989 0-1.600437-.3065399-2.149365-.9196289-.548929-.613089-.823389-1.5327088-.823389-2.7588868v-9.3032226c0-1.468562-.049902-2.6091756-.149707-3.421875s-.370701-1.4792455-.812695-1.9996582c-.441995-.5204128-1.14062-.7806152-2.095899-.7806152-1.910556 0-3.168795.6558528-3.774756 1.9675781-.60596 1.3117253-.908935 3.1937377-.908935 5.6460937v7.8916992c0 1.2119202-.27446 2.1279755-.823389 2.7481934-.548928.6202179-1.272505.9303223-2.170752.9303223-.883989 0-1.607565-.3101044-2.170752-.9303223-.563186-.6202179-.844775-1.5362732-.844775-2.7481934v-16.7030273c0-1.0978571.253074-1.9319307.759228-2.5022461.506155-.5703153 1.172701-.8554687 1.999659-.8554687.798441 0 1.464987.2673313 1.999658.8020019.534671.5346707.802002 1.2725051.802002 2.2135254v.5560547c1.01231-1.2119201 2.095892-2.1030245 3.250781-2.6733399 1.154889-.5703153 2.438079-.8554687 3.849609-.8554687 1.468562 0 2.730366.2922822 3.78545.8768555 1.055083.5845732 1.924801 1.4685487 2.609179 2.6519531.983794-1.1976623 2.038862-2.0852022 3.165235-2.6626465s2.373919-.8661621 3.742675-.8661621c1.596883 0 2.972749.3136687 4.127637.9410156 1.154889.6273469 2.017478 1.5255801 2.587793 2.6947266.499026 1.0550834.748535 2.7161019.748535 4.9831055v11.399121c0 1.226178-.278024 2.1457978-.834082 2.7588868-.556057.613089-1.290327.9196289-2.202832.9196289-.883989 0-1.607565-.3101044-2.170752-.9303223-.563186-.6202179-.844775-1.5362732-.844775-2.7481934v-9.8165039c0-1.2546937-.053466-2.2598595-.1604-3.0155273-.106935-.7556678-.395652-1.3901342-.866163-1.903418-.47051-.5132838-1.183393-.7699218-2.138671-.7699218-.769926 0-1.500632.2281227-2.192139.684375-.691507.4562522-1.229735 1.069332-1.614697 1.8392578-.427737.9837939-.641602 2.7232297-.641602 5.2183593zm34.09043 8.1483399c-1.411531 1.097857-2.776703 1.9212375-4.095557 2.470166s-2.798087.8233887-4.437744.8233887c-1.497078 0-2.812348-.2958467-3.94585-.8875489-1.133501-.5917021-2.006784-1.3936961-2.619873-2.4060058-.613089-1.0123098-.919629-2.1101504-.919629-3.2935547 0-1.596883.506148-2.9584905 1.518457-4.0848633 1.01231-1.1263728 2.402433-1.8820293 4.170411-2.2669922.370705-.0855473 1.290324-.2780258 2.758886-.5774414 1.468562-.2994155 2.726802-.5738757 3.774756-.8233887 1.047955-.2495129 2.185004-.5524884 3.411182-.9089355-.07129-1.5398514-.381394-2.6697718-.930322-3.3897949-.548929-.7200232-1.685978-1.0800293-3.411182-1.0800293-1.48282 0-2.598483.2067362-3.347022.6202148-.748538.4134787-1.390134 1.0336873-1.924804 1.8606446-.534671.8269572-.912499 1.3723131-1.133496 1.6360839-.220998.2637709-.695065.3956543-1.422217.3956543-.655863 0-1.222605-.2103006-1.700244-.6309082-.477639-.4206075-.716455-.9588346-.716455-1.6146972 0-1.0265677.36357-2.0246046 1.090722-2.9941407s1.860637-1.7679656 3.400489-2.3953125c1.539851-.6273468 3.457508-.9410156 5.753027-.9410156 2.566419 0 4.583879.3029755 6.052441.9089356 1.468562.60596 2.505808 1.5647883 3.111768 2.8765136s.908935 3.0511611.908935 5.2183594c0 1.3687569-.003564 2.530757-.010693 3.4860352s-.017822 2.0174746-.03208 3.1866211c0 1.097857.181785 2.242035.545361 3.4325683s.545362 1.9568831.545362 2.2990723c0 .5988311-.281589 1.144187-.844776 1.636084-.563186.491897-1.201217.7378418-1.914111.7378418-.598831 0-1.190524-.281589-1.775098-.8447754-.584573-.5631864-1.204782-1.379438-1.860644-2.4487793zm-.384961-8.4477539c-.855473.3136734-2.099455.6451642-3.731983.9944824-1.632527.3493181-2.762448.6059562-3.389795.7699219-.627346.1639656-1.226169.4847632-1.796484.9624023s-.855469 1.1441852-.855469 1.9996582c0 .8839888.335056 1.6360809 1.005176 2.2562988.670121.620218 1.546967.9303223 2.630567.9303223 1.154888 0 2.220649-.2530736 3.197314-.7592285s1.693113-1.1584433 2.149365-1.9568848c.527542-.8839888.791309-2.3382711.791309-4.3628906zm17.494336-8.6830078v16.8741211c0 1.1691464-.278025 2.053122-.834082 2.6519531-.556058.5988311-1.261812.8982422-2.117285.8982422s-1.550535-.3065399-2.085206-.9196289c-.53467-.613089-.802001-1.4899357-.802001-2.6305664v-16.7030274c0-1.1548886.267331-2.0246064.802001-2.6091797.534671-.5845732 1.229733-.8768554 2.085206-.8768554s1.561227.2922822 2.117285.8768554c.556057.5845733.834082 1.3972604.834082 2.438086zm-2.887207-6.0310547c-.8127 0-1.507761-.2495092-2.085205-.7485352-.577445-.4990259-.866162-1.2047806-.866162-2.1172851 0-.8269573.295846-1.507761.887548-2.0424317.591703-.5346706 1.279635-.8020019 2.063819-.8020019.755668 0 1.425778.2423804 2.010351.7271484.584574.4847681.876856 1.1905227.876856 2.1172852 0 .8982466-.285154 1.6004369-.855469 2.1065918-.570315.5061548-1.247555.7592285-2.031738.7592285zm8.918261 22.9051758v-25.321875c0-1.1691465.260203-2.053122.780616-2.6519532.520412-.5988311 1.222603-.8982422 2.106591-.8982422.883989 0 1.596873.2958467 2.138672.8875489.5418.5917021.812696 1.4792421.812696 2.6626465v25.321875c0 1.1834043-.27446 2.0709443-.823389 2.6626464-.548929.5917022-1.258248.8875489-2.127979.8875489-.855473 0-1.550534-.3065399-2.085205-.9196289-.53467-.613089-.802002-1.4899357-.802002-2.6305664z" fill="#525565"/></g></svg>