<svg height="17" viewBox="0 0 21 17" width="21" xmlns="http://www.w3.org/2000/svg"><g fill="#656a85" opacity=".807315"><path d="m3.12309375 11.0169076c.12759961.5766307.32283398 1.1371058.58594922 1.6766977.19892578.407962.69016992.5770007 1.09716797.377665.40703906-.1993769.57573633-.691735.37681054-1.099697-.2680371-.5497046-.44645507-1.1271987-.53422851-1.7247948-.00192774-.05525-.00910547-.1090612-.02136914-.1610225-.02789063-.23485366-.04232813-.47262598-.04232813-.71298814 0-1.33023419.43944141-2.55950558 1.18038868-3.54973029.02501953-.02877604.0483164-.05849758.06866015-.08969903.91546875-1.17632347 2.2632832-1.99878385 3.80186133-2.22545684.05085937-.00221987.1005293-.00879725.14855859-.01993769.23460935-.02848828.47327935-.04349293.71543555-.04349293 1.3272246 0 2.5537148.44043787 3.5416992 1.1831064.028752.02507626.0584063.04846707.0895781.06885695 1.1736211.91754465 1.9941387 2.26833315 2.2202989 3.81035901.0022148.0509747.0087773.10075725.0198926.14893657.0284238.23510026.0433945.47435249.0433945.71701674 0 .91121395-.2010586 1.78559445-.5975977 2.59884655-.1989258.407962-.0301875.900279.3768516 1.0996559.1159922.0568121.2386699.0836971.359584.0836971.3035566 0 .5953828-.1696553.737625-.4614032.4549453-.9331248.7080117-1.9286115.7553437-2.96376789.1036875.15559617.1642676.34235269.1642676.54304499v.0025076c0 .454086.3672539.8209394.8203125.8209394s.8203125-.3693199.8203125-.8234059c0-1.22507828-.8418047-2.25657605-1.9760098-2.54458312-.2903086-1.3088577-.9191601-2.49142968-1.7899629-3.44971298.1841602.03584673.3597481.1243125.5018672.26580841l.0017637.00176767c.320332.32109952.8397129.32105841 1.1600859 0 .3203731-.32105841.3203731-.84165811 0-1.16275763-.0006152-.00061663-.0029941-.00300093-.0036504-.00365866-.8652656-.86147248-2.1873222-.99248568-3.1916718-.39460175-1.0776856-.68951507-2.3405977-1.11256399-3.6957949-1.17628237.1554492-.10379929.3419472-.16447563.5423496-.16447563.4530586 0 .8203125-.36808668.8203125-.82217262s-.3672539-.82217262-.8203125-.82217262c-1.2227579 0-2.2524141.843508-2.54075394 1.98036719-1.30614258.29092578-2.48620313.92124442-3.44244141 1.79414509.03576562-.18453665.12403125-.36056381.26520703-.5029641l.00176367-.00176767c.32037305-.32105841.32033203-.84165811 0-1.16275763s-.83971289-.32109952-1.16008593 0c-.00065625.00065774-.00303516.00304204-.00369141.00369978-.85960547.86726878-.99028125 2.1924055-.39375 3.19895033-.68820117 1.08058147-1.110375 2.34693285-1.17366211 3.70581976-.10352344-.15555506-.1640625-.34218825-.1640625-.54275726v-.00250763c0-.45408593-.36725391-.82093936-.8203125-.82093936s-.8203125.36931994-.8203125.82340588c0 1.22462612.84110742 2.25579502 1.97465625 2.54421322z"/><path d="m8.94140625 13.1958705c-.00061523.1293278.11131641.2061187.25470703.2055432.10073438-.0004111.20712891-.0409031.27730664-.1109522l3.87236718-4.44018434c.3362051-.38954539.0647637-.99852865-.4512129-.99852865h-1.8997207l1.5010488-2.42540922h-2.91157613l-1.89016406 3.37777288c-.30876563.55184226.09212109 1.22639383.72679687 1.22639383h1.64788482l-1.10229497 3.062223c-.01718555.0375733-.02501953.0720223-.02514258.1031415z"/><path d="m19.8224004 14.4764866c-.351709-.421939-.879252-.6639866-1.4474004-.6639866s-1.0956914.2420476-1.4473594.6639866c-.4321406.5185443-.8614101.8159241-1.1776406.8159241s-.7455-.2973798-1.1775996-.8159241c-.351709-.421939-.879252-.6639866-1.4474004-.6639866s-1.0956914.2420476-1.4473594.6639866c-.4321406.5185443-.8614101.8159241-1.1776406.8159241s-.7455-.2973798-1.17759961-.8159241c-.35170898-.421939-.87925195-.6639866-1.44740039-.6639866s-1.09569141.2420476-1.44735938.6639866c-.43214062.5185443-.86141015.8159241-1.17764062.8159241s-.7455-.2973798-1.17759961-.8159241c-.35170898-.421939-.87925195-.6639866-1.44740039-.6639866s-1.09569141.2420476-1.44735937.6639866c-.43214063.5185443-.86141016.8159241-1.17764063.8159241v1.6443453c.83934375 0 1.65920508-.4730782 2.43682031-1.4061208.03847266-.0462061.10881446-.07379.18817969-.07379s.14970703.0275839.1882207.07379c.77757422.9330426 1.59743555 1.4061208 2.4367793 1.4061208s1.65920508-.4730782 2.43682031-1.4061208c.03847266-.0462061.10881446-.07379.18817969-.07379s.14970703.0275839.1882207.07379c.77757422.9330426 1.59743555 1.4061208 2.4367793 1.4061208.8393437 0 1.6592051-.4730782 2.4368203-1.4061208.0384727-.0462061.1088145-.07379.1881797-.07379s.149707.0275839.1882207.07379c.7775742.9330426 1.5974356 1.4061208 2.4367793 1.4061208.8393438 0 1.6592051-.4730782 2.4368203-1.4061208.0384727-.0462061.1088145-.07379.1881797-.07379s.149707.0275839.1882207.07379c.7775742.9330426 1.5974355 1.4061208 2.4367793 1.4061208v-1.6443453c-.3162305 0-.7455-.2973798-1.1775996-.8159241z"/></g></svg>