<svg height="268" viewBox="0 0 588 268" width="588" xmlns="http://www.w3.org/2000/svg" xmlns:xlink="http://www.w3.org/1999/xlink"><linearGradient id="a" x1="50%" x2="50%" y1="116.203136%" y2="33.035714%"><stop offset="0" stop-color="#fff"/><stop offset="1" stop-color="#fff" stop-opacity="0"/></linearGradient><linearGradient id="b" x1="100%" x2="-5.289578%" y1="46.307837%" y2="46.307838%"><stop offset="0" stop-color="#edfdff"/><stop offset="1" stop-color="#ecf5ff"/></linearGradient><linearGradient id="c" x1="100%" x2="-5.289578%" y1="46.307837%" y2="46.307838%"><stop offset="0" stop-color="#edefff"/><stop offset="1" stop-color="#ecf5ff"/></linearGradient><linearGradient id="d" x1="100%" x2="-5.289578%" y1="46.307837%" y2="46.307838%"><stop offset="0" stop-color="#ffedfa"/><stop offset="1" stop-color="#ffecf6"/></linearGradient><mask id="e" fill="#fff"/><mask id="f" fill="#fff"/><mask id="g" fill="#fff"/><mask id="h" fill="#fff"/><mask id="i" fill="#fff"/><mask id="j" fill="#fff"/><g fill="none" fill-rule="evenodd" transform="translate(0 -3)"><g transform="translate(0 159)"><g transform="translate(2 72)"><path d="m2 2h580v35h-580z" fill="#fff"/><g fill="#e6e9f5" mask="url(#e)"><path d="m0 0h584v39h-584z"/></g><path d="m0 0h560v39h-560z" fill="#fff"/><g stroke="#8f94b0" stroke-linecap="round" stroke-linejoin="round"><g stroke-width="1.333333" transform="translate(564 16)"><path d="m8 0-8 8"/><path d="m0 0 8 8"/></g><circle cx="17.67936" cy="19.67936" r="5.67936" stroke-width="1.41984"/><path d="m24.7785593 26.7785593-3.0881518-3.0881518" stroke-width="1.41984"/></g><path d="m36 11h74v18h-74z" fill="#edf6ff"/><g fill="#a1c7ed" mask="url(#f)" transform="translate(34 9)"><path d="m0 0h78v22h-78z"/></g><path d="m65.9306641 18.0185547c-.5696643 0-1.0107407.2140278-1.3232422.6420898-.3125016.4280621-.46875 1.024573-.46875 1.7895508 0 1.5918048.5973247 2.3876953 1.7919922 2.3876953.5013046 0 1.1083948-.1253242 1.821289-.3759765v1.2695312c-.5859404.2441419-1.2402307.3662109-1.9628906.3662109-1.0384167 0-1.8326795-.3149382-2.3828125-.9448242-.550133-.6298859-.8251953-1.534011-.8251953-2.7124023 0-.7421912.1350898-1.3924126.4052734-1.9506836.2701837-.558271.6583634-.9863266 1.1645508-1.2841797.5061874-.297853 1.0994432-.4467773 1.7797852-.4467773.6933628 0 1.3899704.1676415 2.0898437.5029297l-.4882812 1.2304687c-.2669285-.1269538-.5354805-.2376297-.8056641-.3320313-.2701836-.0944015-.5354805-.1416015-.7958984-.1416015zm5.211914 5.9814453h-1.4892578v-7.5976562h1.4892578zm5.9296875 0-.2001953-.6982422h-.078125c-.159506.2539075-.3857407.4500319-.6787109.5883789-.2929702.1383471-.6266258.2075195-1.0009766.2075195-.6412792 0-1.1246728-.1717105-1.4501953-.5151367s-.4882813-.8373991-.4882813-1.4819336v-3.5595703h1.4892579v3.1884766c0 .3938822.0699862.6892894.2099609.8862305.1399747.196941.3629542.2954101.6689453.2954101.4166688 0 .7177725-.1391588.9033203-.4174805s.2783203-.7397428.2783203-1.3842773v-2.5683594h1.4892579v5.4589844zm7.0136719-1.6210938c0 .5598987-.1944968.9863267-.5834961 1.2792969s-.970862.4394531-1.7456055.4394531c-.3971374 0-.7356756-.0268552-1.015625-.0805664-.2799493-.0537112-.5419909-.1326492-.7861328-.2368164v-1.2304687c.2766941.130209.5883772.2392574.9350586.3271484.3466814.0878911.6518542.131836.9155274.131836.5403672 0 .8105468-.1562485.8105468-.46875 0-.1171881-.0358069-.212402-.1074218-.2856446-.071615-.0732425-.1953117-.1562495-.3710938-.2490234s-.4101548-.2010085-.703125-.324707c-.419924-.1757822-.7283519-.338541-.925293-.4882813-.196941-.1497403-.3401688-.3214508-.4296875-.5151367-.0895186-.1936859-.1342773-.4321275-.1342773-.715332 0-.4850285.1879864-.8601875.5639648-1.1254883.3759785-.2653008.9090135-.3979492 1.5991211-.3979492.6575554 0 1.2971974.1432277 1.9189454.4296875l-.4492188 1.0742187c-.2734389-.1171881-.5289702-.2132158-.7666016-.2880859-.2376314-.0748702-.480142-.1123047-.727539-.1123047-.4394553 0-.6591797.1188139-.6591797.3564453 0 .1334642.0708001.2490229.2124023.3466797.1416023.0976567.4516578.242512.9301758.4345703.4264344.1725269.7389313.3336581.9375.4833984.1985687.1497404.3450516.3222647.4394531.5175782.0944016.1953134.1416016.4280585.1416016.6982421zm3.9619141.5322266c.2604179 0 .5729148-.0569656.9375-.1708984v1.1083984c-.3710956.1660165-.8268203.2490234-1.3671875.2490234-.5957061 0-1.0294583-.1505518-1.3012696-.4516601-.2718112-.3011083-.4077148-.7527639-.4077148-1.3549805v-2.6318359h-.7128906v-.6298828l.8203125-.4980469.4296875-1.1523438h.9521484v1.1621094h1.5283203v1.1181641h-1.5283203v2.6318359c0 .2115896.059407.3678381.1782227.46875.1188157.100912.2758779.1513672.4711914.1513672zm4.8017578-3.4130859c-.3157568 0-.5631502.1000966-.7421875.3002929-.1790374.2001964-.2815754.4842104-.3076172.8520508h2.0898437c-.0065104-.3678404-.1025381-.6518544-.2880859-.8520508-.1855478-.2001963-.4361963-.3002929-.7519531-.3002929zm.2099609 4.5996093c-.8789106 0-1.5657527-.2425105-2.0605469-.727539-.4947941-.4850285-.7421875-1.1718706-.7421875-2.0605469 0-.9147181.2286761-1.621905.6860352-2.121582s1.0896769-.7495117 1.8969727-.7495117c.7714882 0 1.3720681.2197243 1.8017578.6591796.4296896.4394554.6445312 1.0465457.6445312 1.8212891v.7226563h-3.5205078c.0162761.4231792.1416004.7535795.3759766.9912109.2343761.2376314.5631489.3564453.9863281.3564453.3287777 0 .639647-.0341793.9326172-.102539.2929702-.0683598.5989567-.1774082.9179687-.3271485v1.1523438c-.2604179.1302089-.5387355.2270504-.8349609.2905273-.2962255.0634769-.65755.0952148-1.0839844.0952148zm6.9843747-5.6591796c.201824 0 .369466.0146483.50293.0439453l-.112305 1.3964843c-.120443-.0325522-.266926-.0488281-.4394528-.0488281-.4752628 0-.8455391.1220691-1.1108399.366211-.2653008.2441418-.3979492.5859353-.3979492 1.0253906v2.7783203h-1.4892578v-5.4589844h1.1279297l.2197266.9179688h.0732422c.1692716-.3059911.3979477-.5525707.6860351-.7397461s.6013981-.2807617.9399411-.2807617zm1.78418 4.8632812c0-.2734389.073241-.4801425.219727-.6201172.146485-.1399746.359699-.2099609.639648-.2099609.270184 0 .479329.0716139.627441.2148437.148113.1432299.222168.348306.222168.6152344 0 .2571628-.074869.4597974-.224609.6079102-.14974.1481127-.358072.2221679-.625.2221679-.273439 0-.485025-.0724276-.634766-.2172851-.14974-.1448575-.224609-.3491198-.224609-.612793zm0-4.0332031c0-.2734389.073241-.4801425.219727-.6201172.146485-.1399747.359699-.2099609.639648-.2099609.270184 0 .479329.0716138.627441.2148437.148113.1432299.222168.348306.222168.6152344 0 .2636732-.075682.4679355-.22705.612793s-.358886.2172851-.622559.2172851c-.273439 0-.485025-.0716139-.634766-.2148437-.14974-.1432299-.224609-.348306-.224609-.6152344z" fill="#3f7dff" fill-rule="nonzero"/><path d="m54.75 9.65h1.5v20.7h-1.5z" fill="#a1c7ed"/><path d="m44.0893555 20.4331055-1.9335938-2.9379883h1.8583985l1.1655273 1.9121094 1.1762695-1.9121094h1.8583985l-1.9550782 2.9379883 2.0463868 3.0668945h-1.8637696l-1.262207-2.0571289-1.2675781 2.0571289h-1.8583985z" fill="#3f7dff"/><path d="m118 11h80v18h-80z" fill="#f7f8fc"/><g fill="#d1d5ed" mask="url(#g)" transform="translate(116 9)"><path d="m0 0h84v22h-84z"/></g><path d="m150.640625 24h-1.71875l-1.870117-3.0078125-.639649.4589844v2.5488281h-1.513671v-7.1386719h1.513671v3.2666016l.595703-.8398438 1.933594-2.4267578h1.679688l-2.490235 3.1591797zm5.148437 0-.200195-.6982422h-.078125c-.159506.2539075-.385741.4500319-.678711.5883789-.29297.1383471-.626625.2075195-1.000976.2075195-.64128 0-1.124673-.1717105-1.450196-.5151367-.325522-.3434262-.488281-.8373991-.488281-1.4819336v-3.5595703h1.489258v3.1884766c0 .3938822.069986.6892894.209961.8862305.139975.196941.362954.2954101.668945.2954101.416669 0 .717773-.1391588.90332-.4174805.185548-.2783217.278321-.7397428.278321-1.3842773v-2.5683594h1.489258v5.4589844zm6.242188-5.5615234c.644534 0 1.149087.2514623 1.513672.7543945s.546875 1.1922157.546875 2.0678711c0 .9016972-.187987 1.5999324-.563965 2.0947266-.375978.4947941-.887855.7421874-1.535644.7421874-.64128 0-1.144204-.232745-1.50879-.6982421h-.102539l-.249023.6005859h-1.137695v-7.5976562h1.489257v1.7675781c0 .2246105-.019531.5843074-.058593 1.0791015h.058593c.348309-.5403672.864255-.8105468 1.547852-.8105468zm-.478516 1.1914062c-.36784 0-.636392.1131174-.805664.3393555-.169271.2262381-.257161.5997695-.263672 1.1206055v.1611328c0 .5859404.087076 1.0058581.261231 1.2597656.174154.2539075.450031.3808594.827637.3808594.305991 0 .549315-.1407864.72998-.4223633s.270996-.6909153.270996-1.2280274c0-.537112-.091145-.93994-.273437-1.2084961-.182293-.268556-.431314-.402832-.747071-.402832zm6.530274-.1318359c-.315757 0-.56315.1000966-.742188.3002929-.179037.2001964-.281575.4842104-.307617.8520508h2.089844c-.006511-.3678404-.102538-.6518544-.288086-.8520508-.185548-.2001963-.436196-.3002929-.751953-.3002929zm.209961 4.5996093c-.878911 0-1.565753-.2425105-2.060547-.727539s-.742188-1.1718706-.742188-2.0605469c0-.9147181.228676-1.621905.686036-2.121582.457359-.499677 1.089676-.7495117 1.896972-.7495117.771488 0 1.372068.2197243 1.801758.6591796.42969.4394554.644531 1.0465457.644531 1.8212891v.7226563h-3.520508c.016277.4231792.141601.7535795.375977.9912109s.563149.3564453.986328.3564453c.328778 0 .639647-.0341793.932617-.102539.292971-.0683598.598957-.1774082.917969-.3271485v1.1523438c-.260418.1302089-.538735.2270504-.834961.2905273-.296225.0634769-.65755.0952148-1.083984.0952148zm3.454101-2.1679687v-1.2207031h2.622071v1.2207031zm5.929688 2.1679687c-.641279 0-1.145018-.2490209-1.511231-.7470703-.366212-.4980493-.549316-1.1881466-.549316-2.0703125 0-.8951867.186359-1.5926081.559082-2.0922851s.886227-.7495117 1.540527-.7495117c.686853 0 1.210936.2669244 1.572266.8007812h.048828c-.07487-.4069031-.112305-.7698552-.112305-1.0888672v-1.7480468h1.494141v7.5976562h-1.142578l-.288086-.7080078h-.063477c-.338543.537112-.854488.805664-1.547851.805664zm.522461-1.1865234c.380861 0 .659992-.110676.837402-.3320312.17741-.2213553.274251-.5973281.290527-1.1279297v-.1611328c0-.5859405-.090331-1.0058581-.270996-1.2597657-.180665-.2539075-.474444-.3808593-.881347-.3808593-.332033 0-.590006.1407863-.773926.4223632-.18392.281577-.275879.6909153-.275879 1.2280274 0 .537112.092773.9399401.27832 1.2084961.185548.268556.450845.402832.795899.402832zm6.83789-3.4130859c-.315756 0-.56315.1000966-.742187.3002929-.179037.2001964-.281576.4842104-.307617.8520508h2.089843c-.00651-.3678404-.102538-.6518544-.288086-.8520508-.185547-.2001963-.436196-.3002929-.751953-.3002929zm.209961 4.5996093c-.87891 0-1.565752-.2425105-2.060547-.727539-.494794-.4850285-.742187-1.1718706-.742187-2.0605469 0-.9147181.228676-1.621905.686035-2.121582s1.089677-.7495117 1.896973-.7495117c.771488 0 1.372068.2197243 1.801758.6591796.429689.4394554.644531 1.0465457.644531 1.8212891v.7226563h-3.520508c.016276.4231792.1416.7535795.375977.9912109.234376.2376314.563148.3564453.986328.3564453.328777 0 .639647-.0341793.932617-.102539.29297-.0683598.598957-.1774082.917969-.3271485v1.1523438c-.260418.1302089-.538736.2270504-.834961.2905273-.296226.0634769-.65755.0952148-1.083985.0952148zm5.036133-.0976562-2.080078-5.4589844h1.557617l1.054688 3.1103516c.117188.3938822.190429.7665998.219726 1.118164h.029297c.016276-.3125015.089518-.6852191.219727-1.118164l1.049804-3.1103516h1.557618l-2.080079 5.4589844z" fill="#53587a" fill-rule="nonzero"/><path d="m136.75 9.65h1.5v20.7h-1.5z" fill="#d1d5ed"/><path d="m126.089355 20.4331055-1.933593-2.9379883h1.858398l1.165528 1.9121094 1.176269-1.9121094h1.858398l-1.955078 2.9379883 2.046387 3.0668945h-1.863769l-1.262207-2.0571289-1.267579 2.0571289h-1.858398z" fill="#53587a"/><path d="m206 11h86v18h-86z" fill="#f7f8fc"/><g fill="#d1d5ed" mask="url(#h)" transform="translate(204 9)"><path d="m0 0h90v22h-90z"/></g><path d="m238.640625 24h-1.71875l-1.870117-3.0078125-.639649.4589844v2.5488281h-1.513671v-7.1386719h1.513671v3.2666016l.595703-.8398438 1.933594-2.4267578h1.679688l-2.490235 3.1591797zm5.148437 0-.200195-.6982422h-.078125c-.159506.2539075-.385741.4500319-.678711.5883789-.29297.1383471-.626625.2075195-1.000976.2075195-.64128 0-1.124673-.1717105-1.450196-.5151367-.325522-.3434262-.488281-.8373991-.488281-1.4819336v-3.5595703h1.489258v3.1884766c0 .3938822.069986.6892894.209961.8862305.139975.196941.362954.2954101.668945.2954101.416669 0 .717773-.1391588.90332-.4174805.185548-.2783217.278321-.7397428.278321-1.3842773v-2.5683594h1.489258v5.4589844zm6.242188-5.5615234c.644534 0 1.149087.2514623 1.513672.7543945s.546875 1.1922157.546875 2.0678711c0 .9016972-.187987 1.5999324-.563965 2.0947266-.375978.4947941-.887855.7421874-1.535644.7421874-.64128 0-1.144204-.232745-1.50879-.6982421h-.102539l-.249023.6005859h-1.137695v-7.5976562h1.489257v1.7675781c0 .2246105-.019531.5843074-.058593 1.0791015h.058593c.348309-.5403672.864255-.8105468 1.547852-.8105468zm-.478516 1.1914062c-.36784 0-.636392.1131174-.805664.3393555-.169271.2262381-.257161.5997695-.263672 1.1206055v.1611328c0 .5859404.087076 1.0058581.261231 1.2597656.174154.2539075.450031.3808594.827637.3808594.305991 0 .549315-.1407864.72998-.4223633s.270996-.6909153.270996-1.2280274c0-.537112-.091145-.93994-.273437-1.2084961-.182293-.268556-.431314-.402832-.747071-.402832zm6.530274-.1318359c-.315757 0-.56315.1000966-.742188.3002929-.179037.2001964-.281575.4842104-.307617.8520508h2.089844c-.006511-.3678404-.102538-.6518544-.288086-.8520508-.185548-.2001963-.436196-.3002929-.751953-.3002929zm.209961 4.5996093c-.878911 0-1.565753-.2425105-2.060547-.727539s-.742188-1.1718706-.742188-2.0605469c0-.9147181.228676-1.621905.686036-2.121582.457359-.499677 1.089676-.7495117 1.896972-.7495117.771488 0 1.372068.2197243 1.801758.6591796.42969.4394554.644531 1.0465457.644531 1.8212891v.7226563h-3.520508c.016277.4231792.141601.7535795.375977.9912109s.563149.3564453.986328.3564453c.328778 0 .639647-.0341793.932617-.102539.292971-.0683598.598957-.1774082.917969-.3271485v1.1523438c-.260418.1302089-.538735.2270504-.834961.2905273-.296225.0634769-.65755.0952148-1.083984.0952148zm3.454101-2.1679687v-1.2207031h2.622071v1.2207031zm7.199219 2.1679687c-.641279 0-1.144204-.232745-1.508789-.6982421h-.078125c.052084.4557314.078125.7194006.078125.7910156v2.2119141h-1.489258v-7.8613282h1.210938l.209961.7080078h.068359c.348309-.5403672.864254-.8105468 1.547852-.8105468.644534 0 1.149086.2490209 1.513671.7470703.364586.4980493.546875 1.1897742.546875 2.0751953 0 .5826852-.085448 1.088865-.256347 1.5185547-.1709.4296896-.414224.7568348-.729981.9814453-.315756.2246105-.686847.336914-1.113281.336914zm-.439453-4.4677734c-.36784 0-.636392.1131174-.805664.3393555s-.257162.5997695-.263672 1.1206055v.1611328c0 .5859404.087076 1.0058581.26123 1.2597656.174155.2539075.450031.3808594.827637.3808594.667321 0 1.000977-.5501247 1.000977-1.6503907 0-.537112-.082193-.93994-.246582-1.2084961-.164389-.268556-.422362-.402832-.773926-.402832zm7.316406-1.1914062c.201824 0 .369466.0146483.50293.0439453l-.112305 1.3964843c-.120443-.0325522-.266926-.0488281-.439453-.0488281-.475263 0-.845539.1220691-1.11084.366211-.265301.2441418-.397949.5859353-.397949 1.0253906v2.7783203h-1.489258v-5.4589844h1.12793l.219726.9179688h.073243c.169271-.3059911.397947-.5525707.686035-.7397461.288087-.1871754.601398-.2807617.939941-.2807617zm2.980469 2.8222656c0 .5403673.088703.9488918.266113 1.2255859s.466307.4150391.866699.4150391c.397138 0 .68278-.1375312.856934-.4125977.174155-.2750664.261231-.6844048.261231-1.2280273 0-.5403673-.08789-.9456367-.263672-1.2158203-.175783-.2701837-.463866-.4052735-.864258-.4052735-.397138 0-.683593.134276-.859375.4028321-.175782.268556-.263672.6746392-.263672 1.2182617zm3.774414 0c0 .8886763-.234373 1.5836563-.703125 2.0849609s-1.121415.7519531-1.958008.7519531c-.524091 0-.986326-.1147449-1.386719-.3442382-.400392-.2294934-.708006-.5590799-.922851-.9887696-.214845-.4296896-.322266-.9309867-.322266-1.5039062 0-.8919316.232745-1.585284.698242-2.0800781.465498-.4947942 1.119788-.7421875 1.962891-.7421875.524091 0 .986326.1139311 1.386719.3417968.400392.2278658.708007.5550109.922851.9814454.214845.4264344.322266.9261039.322266 1.4990234zm3.458984 2.836914c-.641279 0-1.145017-.2490209-1.51123-.7470703-.366213-.4980493-.549317-1.1881466-.549317-2.0703125 0-.8951867.186359-1.5926081.559083-2.0922851.372723-.499677.886227-.7495117 1.540527-.7495117.686852 0 1.210936.2669244 1.572266.8007812h.048828c-.074871-.4069031-.112305-.7698552-.112305-1.0888672v-1.7480468h1.494141v7.5976562h-1.142579l-.288085-.7080078h-.063477c-.338543.537112-.854489.805664-1.547852.805664zm.522461-1.1865234c.380862 0 .659993-.110676.837403-.3320312.177409-.2213553.274251-.5973281.290527-1.1279297v-.1611328c0-.5859405-.090331-1.0058581-.270996-1.2597657-.180665-.2539075-.474445-.3808593-.881348-.3808593-.332033 0-.590005.1407863-.773926.4223632-.18392.281577-.275878.6909153-.275878 1.2280274 0 .537112.092772.9399401.27832 1.2084961s.450845.402832.795898.402832z" fill="#53587a" fill-rule="nonzero"/><path d="m224.75 9.65h1.5v20.7h-1.5z" fill="#d1d5ed"/><path d="m214.089355 20.4331055-1.933593-2.9379883h1.858398l1.165528 1.9121094 1.176269-1.9121094h1.858398l-1.955078 2.9379883 2.046387 3.0668945h-1.863769l-1.262207-2.0571289-1.267579 2.0571289h-1.858398z" fill="#53587a"/><path d="m301 11h81v18h-81z" fill="#edf6ff"/><g fill="#a1c7ed" mask="url(#i)" transform="translate(299 9)"><path d="m0 0h85v22h-85z"/></g><path d="m330.930664 18.0185547c-.569664 0-1.010741.2140278-1.323242.6420898-.312502.4280621-.46875 1.024573-.46875 1.7895508 0 1.5918048.597325 2.3876953 1.791992 2.3876953.501305 0 1.108395-.1253242 1.821289-.3759765v1.2695312c-.58594.2441419-1.240231.3662109-1.962891.3662109-1.038416 0-1.832679-.3149382-2.382812-.9448242-.550133-.6298859-.825195-1.534011-.825195-2.7124023 0-.7421912.135089-1.3924126.405273-1.9506836s.658363-.9863266 1.164551-1.2841797c.506187-.297853 1.099443-.4467773 1.779785-.4467773.693363 0 1.389971.1676415 2.089844.5029297l-.488281 1.2304687c-.266929-.1269538-.535481-.2376297-.805665-.3320313-.270183-.0944015-.53548-.1416015-.795898-.1416015zm7.189453 5.9814453-.288086-.7421875h-.039062c-.250653.3157568-.508625.5346674-.773926.6567383s-.611163.1831054-1.037598.1831054c-.524091 0-.936684-.149738-1.237793-.4492187-.301108-.2994807-.45166-.7259087-.45166-1.2792969 0-.57943.202635-1.0066718.60791-1.2817383.405276-.2750664 1.016435-.4272459 1.833496-.4565429l.947266-.0292969v-.2392578c0-.5533882-.2832-.8300781-.849609-.8300781-.4362 0-.948891.1318346-1.538086.3955078l-.493164-1.0058594c.628258-.3287777 1.324866-.4931641 2.089843-.4931641.732426 0 1.293944.1595037 1.684571.4785157s.585937.8040332.585937 1.4550781v3.6376953zm-.439453-2.5292969-.576172.0195313c-.432945.0130209-.755207.0911451-.966797.234375-.211589.1432299-.317383.3613266-.317383.6542968 0 .419924.240884.6298829.722657.6298829.345054 0 .62093-.0992829.827636-.2978516.206707-.1985687.310059-.4622379.310059-.7910156zm5.8125 1.4404297c.260418 0 .572915-.0569656.9375-.1708984v1.1083984c-.371096.1660165-.82682.2490234-1.367187.2490234-.595707 0-1.029459-.1505518-1.30127-.4516601s-.407715-.7527639-.407715-1.3549805v-2.6318359h-.71289v-.6298828l.820312-.4980469.429688-1.1523438h.952148v1.1621094h1.52832v1.1181641h-1.52832v2.6318359c0 .2115896.059407.3678381.178223.46875.118815.100912.275878.1513672.471191.1513672zm4.801758-3.4130859c-.315757 0-.56315.1000966-.742188.3002929-.179037.2001964-.281575.4842104-.307617.8520508h2.089844c-.006511-.3678404-.102538-.6518544-.288086-.8520508-.185548-.2001963-.436196-.3002929-.751953-.3002929zm.209961 4.5996093c-.878911 0-1.565753-.2425105-2.060547-.727539s-.742188-1.1718706-.742188-2.0605469c0-.9147181.228677-1.621905.686036-2.121582s1.089677-.7495117 1.896972-.7495117c.771488 0 1.372068.2197243 1.801758.6591796.42969.4394554.644531 1.0465457.644531 1.8212891v.7226563h-3.520507c.016276.4231792.1416.7535795.375976.9912109s.563149.3564453.986328.3564453c.328778 0 .639647-.0341793.932617-.102539.292971-.0683598.598957-.1774082.917969-.3271485v1.1523438c-.260418.1302089-.538735.2270504-.834961.2905273-.296225.0634769-.65755.0952148-1.083984.0952148zm8.688476-5.5566406v.756836l-.854492.2197265c.156251.2441419.234375.5175766.234375.8203125 0 .5859405-.204262 1.0424789-.612793 1.3696289-.40853.3271501-.975745.4907227-1.70166.4907227l-.268555-.0146484-.219726-.0244141c-.152996.1171881-.229492.2473951-.229492.390625 0 .2148448.273434.3222656.820312.3222656h.927734c.598962 0 1.0555.1285795 1.369629.3857422.31413.2571627.471192.6347631.471192 1.1328125 0 .638024-.266111 1.1328107-.79834 1.484375s-1.296382.5273438-2.292481.5273438c-.761722 0-1.343585-.1326485-1.745605-.3979493s-.603027-.6372046-.603027-1.1157226c0-.3287777.102538-.6038401.307617-.8251953.205079-.2213553.506183-.3792313.90332-.4736328-.152995-.0651045-.286458-.1717115-.40039-.3198243-.113933-.1481127-.170899-.3051749-.170899-.4711914 0-.2083343.060221-.3816725.180664-.5200195.120443-.1383471.294595-.2742506.522461-.4077148-.28646-.1236986-.513508-.3222643-.681152-.5957032-.167644-.2734388-.251465-.5957012-.251465-.9667968 0-.5957062.193683-1.0563135.581055-1.381836.387371-.3255224.940751-.4882812 1.660156-.4882812.152995 0 .334471.0138345.544433.0415039s.344238.0480142.402832.0610351zm-4.213867 6.2304688c0 .2050791.098469.3662103.29541.4833984s.472818.1757813.827637.1757813c.533857 0 .952147-.0732415 1.254883-.2197266s.454101-.3466784.454101-.6005859c0-.2050792-.089517-.3466793-.268554-.4248047-.179038-.0781254-.455728-.1171875-.830078-.1171875h-.771485c-.273439 0-.502115.0642897-.686035.1928711-.18392.1285813-.275879.2986643-.275879.5102539zm.541992-4.4433594c0 .2962254.067545.5305981.202637.703125s.340982.2587891.617676.2587891c.279949 0 .485025-.0862622.615234-.2587891s.195313-.4068996.195313-.703125c0-.6575554-.27018-.9863281-.810547-.9863281-.546878 0-.820313.3287727-.820313.9863281zm6.256836.9326172c0 .5403673.088704.9488918.266114 1.2255859.177409.2766941.466306.4150391.866699.4150391.397137 0 .682779-.1375312.856933-.4125977.174155-.2750664.261231-.6844048.261231-1.2280273 0-.5403673-.08789-.9456367-.263672-1.2158203-.175782-.2701837-.463865-.4052735-.864258-.4052735-.397137 0-.683593.134276-.859375.4028321-.175782.268556-.263672.6746392-.263672 1.2182617zm3.774414 0c0 .8886763-.234372 1.5836563-.703125 2.0849609-.468752.5013046-1.121415.7519531-1.958007.7519531-.524092 0-.986327-.1147449-1.386719-.3442382-.400393-.2294934-.708007-.5590799-.922852-.9887696-.214845-.4296896-.322265-.9309867-.322265-1.5039062 0-.8919316.232745-1.585284.698242-2.0800781.465497-.4947942 1.119787-.7421875 1.96289-.7421875.524092 0 .986327.1139311 1.386719.3417968.400393.2278658.708007.5550109.922852.9814454.214845.4264344.322265.9261039.322265 1.4990234zm4.777344-2.8222656c.201824 0 .369466.0146483.50293.0439453l-.112305 1.3964843c-.120443-.0325522-.266926-.0488281-.439453-.0488281-.475263 0-.845539.1220691-1.11084.366211-.265301.2441418-.397949.5859353-.397949 1.0253906v2.7783203h-1.489258v-5.4589844h1.12793l.219726.9179688h.073243c.169271-.3059911.397947-.5525707.686035-.7397461.288087-.1871754.601398-.2807617.939941-.2807617zm1.212891.102539h1.630859l1.030274 3.0712891c.087891.2669284.148111.5826805.180664.9472656h.029296c.035808-.3352881.105794-.6510402.209961-.9472656l1.010743-3.0712891h1.596679l-2.30957 6.1572266c-.21159.5696643-.513507.9960923-.905762 1.2792969-.392254.2832045-.85042.4248047-1.374511.4248047-.257163 0-.509439-.027669-.756836-.0830079v-1.1816406c.179037.0423179.374348.0634766.585937.0634766.263673 0 .493977-.0805656.690918-.2416992.196941-.1611337.350748-.4044581.461426-.7299805l.087891-.2685547zm6.759765 4.7607422c0-.2734389.073242-.4801425.219727-.6201172.146485-.1399746.359699-.2099609.639648-.2099609.270184 0 .479329.0716139.627442.2148437.148113.1432299.222168.348306.222168.6152344 0 .2571628-.074869.4597974-.22461.6079102-.14974.1481127-.358071.2221679-.625.2221679-.273438 0-.485025-.0724276-.634765-.2172851-.149741-.1448575-.22461-.3491198-.22461-.612793zm0-4.0332031c0-.2734389.073242-.4801425.219727-.6201172s.359699-.2099609.639648-.2099609c.270184 0 .479329.0716138.627442.2148437s.222168.348306.222168.6152344c0 .2636732-.075683.4679355-.227051.612793s-.358885.2172851-.622559.2172851c-.273438 0-.485025-.0716139-.634765-.2148437-.149741-.1432299-.22461-.348306-.22461-.6152344z" fill="#3f7dff" fill-rule="nonzero"/><path d="m319.75 9.65h1.5v20.7h-1.5z" fill="#a1c7ed"/><path d="m309.089355 20.4331055-1.933593-2.9379883h1.858398l1.165528 1.9121094 1.176269-1.9121094h1.858398l-1.955078 2.9379883 2.046387 3.0668945h-1.863769l-1.262207-2.0571289-1.267579 2.0571289h-1.858398z" fill="#3f7dff"/><path d="m391 11h122v18h-122z" fill="#f7f8fc"/><g fill="#d1d5ed" mask="url(#j)" transform="translate(389 9)"><path d="m0 0h126v22h-126z"/></g><path d="m417.898438 24v-7.1386719h1.513671v7.1386719zm8.581054 0h-1.489258v-3.1884766c0-.3938821-.065917-.6892893-.197754-.8862304-.131836-.1969411-.339354-.2954102-.622558-.2954102-.380861 0-.657551.1399726-.830078.4199219s-.258789.7405567-.258789 1.3818359v2.5683594h-1.489258v-5.4589844h1.137695l.200196.6982422h.083007c.146485-.2506523.358072-.4467766.634766-.5883789s.594074-.2124023.952148-.2124023c.817062 0 1.370442.2669244 1.660157.8007812h.131836c.146485-.2539075.36214-.4508456.646972-.5908203s.606281-.2099609.964356-.2099609c.618492 0 1.086424.1586898 1.403808.4760742.317385.3173844.476074.8260056.476074 1.5258789v3.5595703h-1.49414v-3.1884766c0-.3938821-.065917-.6892893-.197754-.8862304s-.339354-.2954102-.622559-.2954102c-.364585 0-.637206.130207-.817871.390625s-.270996.6738253-.270996 1.2402344zm8.898438 0-.288086-.7421875h-.039063c-.250652.3157568-.508625.5346674-.773926.6567383-.2653.1220709-.611163.1831054-1.037597.1831054-.524091 0-.936685-.149738-1.237793-.4492187s-.45166-.7259087-.45166-1.2792969c0-.57943.202634-1.0066718.60791-1.2817383.405275-.2750664 1.016435-.4272459 1.833496-.4565429l.947266-.0292969v-.2392578c0-.5533882-.283201-.8300781-.84961-.8300781-.4362 0-.94889.1318346-1.538086.3955078l-.493164-1.0058594c.628259-.3287777 1.324866-.4931641 2.089844-.4931641.732425 0 1.293943.1595037 1.68457.4785157s.585938.8040332.585938 1.4550781v3.6376953zm-.439453-2.5292969-.576172.0195313c-.432945.0130209-.755208.0911451-.966797.234375-.21159.1432299-.317383.3613266-.317383.6542968 0 .419924.240883.6298829.722656.6298829.345054 0 .62093-.0992829.827637-.2978516s.310059-.4622379.310059-.7910156zm8.263671-2.9296875v.756836l-.854492.2197265c.156251.2441419.234375.5175766.234375.8203125 0 .5859405-.204262 1.0424789-.612793 1.3696289-.40853.3271501-.975745.4907227-1.70166.4907227l-.268555-.0146484-.219726-.0244141c-.152996.1171881-.229492.2473951-.229492.390625 0 .2148448.273434.3222656.820312.3222656h.927735c.598961 0 1.055499.1285795 1.369628.3857422.31413.2571627.471192.6347631.471192 1.1328125 0 .638024-.266111 1.1328107-.79834 1.484375s-1.296382.5273438-2.29248.5273438c-.761723 0-1.343586-.1326485-1.745606-.3979493s-.603027-.6372046-.603027-1.1157226c0-.3287777.102538-.6038401.307617-.8251953.205079-.2213553.506183-.3792313.90332-.4736328-.152995-.0651045-.286458-.1717115-.40039-.3198243-.113933-.1481127-.170899-.3051749-.170899-.4711914 0-.2083343.060221-.3816725.180664-.5200195.120444-.1383471.294595-.2742506.522461-.4077148-.28646-.1236986-.513508-.3222643-.681152-.5957032-.167644-.2734388-.251465-.5957012-.251465-.9667968 0-.5957062.193683-1.0563135.581055-1.381836.387371-.3255224.940751-.4882812 1.660156-.4882812.152995 0 .334472.0138345.544434.0415039s.344238.0480142.402832.0610351zm-4.213867 6.2304688c0 .2050791.098469.3662103.29541.4833984s.472818.1757813.827637.1757813c.533857 0 .952147-.0732415 1.254883-.2197266s.454101-.3466784.454101-.6005859c0-.2050792-.089517-.3466793-.268554-.4248047-.179038-.0781254-.455727-.1171875-.830078-.1171875h-.771485c-.273439 0-.502115.0642897-.686035.1928711-.18392.1285813-.275879.2986643-.275879.5102539zm.541992-4.4433594c0 .2962254.067545.5305981.202637.703125s.340982.2587891.617676.2587891c.279949 0 .485025-.0862622.615234-.2587891s.195313-.4068996.195313-.703125c0-.6575554-.27018-.9863281-.810547-.9863281-.546878 0-.820313.3287727-.820313.9863281zm7.331055-.8300781c-.315757 0-.56315.1000966-.742187.3002929-.179038.2001964-.281576.4842104-.307618.8520508h2.089844c-.00651-.3678404-.102538-.6518544-.288086-.8520508-.185548-.2001963-.436196-.3002929-.751953-.3002929zm.209961 4.5996093c-.878911 0-1.565753-.2425105-2.060547-.727539s-.742187-1.1718706-.742187-2.0605469c0-.9147181.228676-1.621905.686035-2.121582s1.089677-.7495117 1.896972-.7495117c.771489 0 1.372069.2197243 1.801758.6591796.42969.4394554.644532 1.0465457.644532 1.8212891v.7226563h-3.520508c.016276.4231792.1416.7535795.375976.9912109s.563149.3564453.986328.3564453c.328778 0 .639647-.0341793.932618-.102539.29297-.0683598.598956-.1774082.917968-.3271485v1.1523438c-.260418.1302089-.538735.2270504-.834961.2905273-.296225.0634769-.65755.0952148-1.083984.0952148zm11.522461-.0976562-.517578-1.6992188h-2.602539l-.517578 1.6992188h-1.63086l2.519532-7.1679688h1.850585l2.529297 7.1679688zm-.878906-2.96875c-.478518-1.5397212-.747884-2.4104808-.808106-2.6123047-.060221-.2018239-.103352-.3613275-.129394-.4785156-.107423.4166687-.415037 1.4469319-.922852 3.0908203zm7.599609 1.3476562c0 .5598987-.194497.9863267-.583496 1.2792969s-.970862.4394531-1.745605.4394531c-.397138 0-.735676-.0268552-1.015625-.0805664-.27995-.0537112-.541991-.1326492-.786133-.2368164v-1.2304687c.276694.130209.588377.2392574.935058.3271484.346682.0878911.651854.131836.915528.131836.540367 0 .810547-.1562485.810547-.46875 0-.1171881-.035807-.212402-.107422-.2856446-.071615-.0732425-.195312-.1562495-.371094-.2490234s-.410155-.2010085-.703125-.324707c-.419924-.1757822-.728352-.338541-.925293-.4882813s-.340169-.3214508-.429688-.5151367c-.089518-.1936859-.134277-.4321275-.134277-.715332 0-.4850285.187987-.8601875.563965-1.1254883s.909013-.3979492 1.599121-.3979492c.657555 0 1.297197.1432277 1.918945.4296875l-.449218 1.0742187c-.273439-.1171881-.528971-.2132158-.766602-.2880859-.237631-.0748702-.480142-.1123047-.727539-.1123047-.439455 0-.65918.1188139-.65918.3564453 0 .1334642.0708.2490229.212403.3466797.141602.0976567.451657.242512.930175.4345703.426435.1725269.738932.3336581.9375.4833984.198569.1497404.345052.3222647.439454.5175782.094401.1953134.141601.4280585.141601.6982421zm5.470703 0c0 .5598987-.194497.9863267-.583496 1.2792969s-.970862.4394531-1.745605.4394531c-.397138 0-.735676-.0268552-1.015625-.0805664-.27995-.0537112-.541991-.1326492-.786133-.2368164v-1.2304687c.276694.130209.588377.2392574.935058.3271484.346682.0878911.651855.131836.915528.131836.540367 0 .810547-.1562485.810547-.46875 0-.1171881-.035807-.212402-.107422-.2856446-.071615-.0732425-.195312-.1562495-.371094-.2490234s-.410155-.2010085-.703125-.324707c-.419924-.1757822-.728352-.338541-.925293-.4882813s-.340169-.3214508-.429687-.5151367c-.089519-.1936859-.134278-.4321275-.134278-.715332 0-.4850285.187987-.8601875.563965-1.1254883.375979-.2653008.909014-.3979492 1.599121-.3979492.657556 0 1.297198.1432277 1.918945.4296875l-.449218 1.0742187c-.273439-.1171881-.52897-.2132158-.766602-.2880859-.237631-.0748702-.480142-.1123047-.727539-.1123047-.439455 0-.65918.1188139-.65918.3564453 0 .1334642.070801.2490229.212403.3466797.141602.0976567.451658.242512.930176.4345703.426434.1725269.738931.3336581.9375.4833984.198568.1497404.345051.3222647.439453.5175782.094401.1953134.141601.4280585.141601.6982421zm5.529297 1.6210938-.200195-.6982422h-.078125c-.159506.2539075-.385741.4500319-.678711.5883789-.29297.1383471-.626626.2075195-1.000977.2075195-.641279 0-1.124673-.1717105-1.450195-.5151367s-.488281-.8373991-.488281-1.4819336v-3.5595703h1.489258v3.1884766c0 .3938822.069986.6892894.209961.8862305.139974.196941.362954.2954101.668945.2954101.416669 0 .717772-.1391588.90332-.4174805s.27832-.7397428.27832-1.3842773v-2.5683594h1.489258v5.4589844zm6.251953-5.5615234c.201824 0 .369466.0146483.50293.0439453l-.112305 1.3964843c-.120443-.0325522-.266926-.0488281-.439453-.0488281-.475263 0-.845539.1220691-1.11084.366211-.265301.2441418-.397949.5859353-.397949 1.0253906v2.7783203h-1.489258v-5.4589844h1.12793l.219727.9179688h.073242c.169271-.3059911.397947-.5525707.686035-.7397461.288087-.1871754.601398-.2807617.939941-.2807617zm5.260742 5.5615234-.288086-.7421875h-.039062c-.250652.3157568-.508625.5346674-.773926.6567383s-.611163.1831054-1.037597.1831054c-.524092 0-.936685-.149738-1.237793-.4492187-.301109-.2994807-.451661-.7259087-.451661-1.2792969 0-.57943.202635-1.0066718.607911-1.2817383.405275-.2750664 1.016434-.4272459 1.833496-.4565429l.947265-.0292969v-.2392578c0-.5533882-.2832-.8300781-.849609-.8300781-.4362 0-.94889.1318346-1.538086.3955078l-.493164-1.0058594c.628258-.3287777 1.324866-.4931641 2.089844-.4931641.732425 0 1.293943.1595037 1.68457.4785157s.585938.8040332.585938 1.4550781v3.6376953zm-.439453-2.5292969-.576172.0195313c-.432944.0130209-.755207.0911451-.966796.234375-.21159.1432299-.317383.3613266-.317383.6542968 0 .419924.240883.6298829.722656.6298829.345054 0 .62093-.0992829.827637-.2978516.206706-.1985687.310058-.4622379.310058-.7910156zm8.551758 2.5292969h-1.489258v-3.1884766c0-.3938821-.069986-.6892893-.209961-.8862304-.139974-.1969411-.362954-.2954102-.668945-.2954102-.416669 0-.717772.1391588-.90332.4174805s-.278321.7397429-.278321 1.3842773v2.5683594h-1.489257v-5.4589844h1.137695l.200195.6982422h.083008c.166017-.2636732.394693-.4630527.686035-.5981445.291343-.1350918.622557-.2026367.993653-.2026367.634768 0 1.116534.1717105 1.445312.5151367s.493164.8390267.493164 1.4868164zm4.25.0976562c-1.699227 0-2.548828-.9326078-2.548828-2.7978515 0-.927739.231117-1.6365536.693359-2.1264649s1.124671-.7348632 1.987305-.7348632c.631514 0 1.197914.1236966 1.699219.3710937l-.439453 1.1523438c-.234376-.0944016-.452473-.171712-.654297-.2319336-.201824-.0602217-.403645-.0903321-.605469-.0903321-.774743 0-1.162109.5501247-1.162109 1.6503907 0 1.0677136.387366 1.6015625 1.162109 1.6015625.28646 0 .551757-.0382484.795899-.1147461.244141-.0764978.48828-.1961255.732421-.3588867v1.274414c-.240886.1529956-.484211.2587888-.72998.3173828-.24577.0585941-.555825.0878906-.930176.0878906zm5.685547-4.5996093c-.315757 0-.56315.1000966-.742188.3002929-.179037.2001964-.281575.4842104-.307617.8520508h2.089844c-.00651-.3678404-.102538-.6518544-.288086-.8520508-.185548-.2001963-.436196-.3002929-.751953-.3002929zm.209961 4.5996093c-.878911 0-1.565753-.2425105-2.060547-.727539s-.742187-1.1718706-.742187-2.0605469c0-.9147181.228676-1.621905.686035-2.121582s1.089677-.7495117 1.896972-.7495117c.771489 0 1.372069.2197243 1.801758.6591796.42969.4394554.644531 1.0465457.644531 1.8212891v.7226563h-3.520507c.016276.4231792.1416.7535795.375976.9912109s.563149.3564453.986328.3564453c.328778 0 .639647-.0341793.932618-.102539.29297-.0683598.598956-.1774082.917968-.3271485v1.1523438c-.260418.1302089-.538735.2270504-.834961.2905273-.296225.0634769-.65755.0952148-1.083984.0952148z" fill="#53587a" fill-rule="nonzero"/><path d="m409.75 9.65h1.5v20.7h-1.5z" fill="#d1d5ed"/><path d="m399.089355 20.4331055-1.933593-2.9379883h1.858398l1.165528 1.9121094 1.176269-1.9121094h1.858398l-1.955078 2.9379883 2.046387 3.0668945h-1.863769l-1.262207-2.0571289-1.267579 2.0571289h-1.858398z" fill="#53587a"/><path d="m5.506787 9h24.665158v23h-24.665158z" fill="#fff"/></g><path d="m0 0h588v112h-588z" fill="url(#a)"/></g><path d="m155.984375 195.396484c0 1.256517-.455725 2.236325-1.367187 2.939454-.911463.703128-2.14843 1.054687-3.710938 1.054687-1.692717 0-2.994787-.218097-3.90625-.654297v-1.601562c.58594.247397 1.223955.442707 1.914062.585937.690108.14323 1.373695.214844 2.050782.214844 1.106776 0 1.940101-.209959 2.5-.629883.559898-.419924.839844-1.004228.839844-1.75293 0-.494794-.099283-.900063-.297852-1.21582s-.530597-.607095-.996094-.874023c-.465497-.266929-1.173498-.56966-2.124023-.908203-1.328132-.475263-2.277016-1.038409-2.84668-1.689454s-.854492-1.500645-.854492-2.548828c0-1.100266.413407-1.975908 1.240234-2.626953s1.920566-.976562 3.28125-.976562c1.419278 0 2.724604.260414 3.916016.78125l-.517578 1.445312c-1.178392-.494794-2.324213-.742187-3.4375-.742187-.878911 0-1.565753.1888-2.060547.566406s-.742188.901689-.742188 1.572266c0 .494794.091145.900063.273438 1.21582.182292.315757.489907.605467.922851.86914.432945.263674 1.095374.555012 1.987305.874024 1.497403.533857 2.527667 1.106768 3.09082 1.71875.563154.611982.844727 1.406245.844727 2.382812zm7.397266 3.994141c-1.58204 0-2.830399-.481766-3.745118-1.445313-.914718-.963546-1.37207-2.301423-1.37207-4.013671 0-1.725269.424801-3.095698 1.274414-4.111329.849614-1.01563 1.990553-1.523437 3.422852-1.523437 1.341152 0 2.40234.441076 3.183594 1.323242.781253.882166 1.171875 2.045891 1.171875 3.491211v1.025391h-7.373047c.032552 1.256516.349932 2.210283.952148 2.861328.602217.651045 1.45019.976562 2.543945.976562 1.15235 0 2.291661-.240883 3.417969-.722656v1.445313c-.572919.247397-1.114906.424804-1.625976.532226-.511071.107423-1.127927.161133-1.850586.161133zm-.439453-9.736328c-.85938 0-1.544594.279945-2.055665.839844-.51107.559898-.812174 1.33463-.90332 2.324218h5.595703c0-1.02214-.227862-1.80501-.683593-2.348632-.455732-.543623-1.106767-.81543-1.953125-.81543zm13.920703 9.541015-.322266-1.523437h-.078125c-.533857.670576-1.066078 1.124673-1.59668 1.362305-.530601.237631-1.19303.356445-1.987304.356445-1.061204 0-1.892901-.273435-2.495118-.820313-.602216-.546877-.90332-1.324864-.90332-2.333984 0-2.161469 1.728498-3.29427 5.185547-3.398437l1.816406-.058594v-.664063c0-.839848-.180662-1.459959-.541992-1.860351-.36133-.400393-.939124-.600586-1.733398-.600586-.891932 0-1.901036.273435-3.027344.820312l-.498047-1.240234c.527346-.28646 1.10514-.511067 1.733398-.673828.628259-.162761 1.258135-.244141 1.889649-.244141 1.276048 0 2.221676.283201 2.836914.84961.615237.566409.922852 1.474603.922852 2.724609v7.304687zm-3.66211-1.142578c1.00912 0 1.801755-.27669 2.37793-.830078s.864258-1.32812.864258-2.324218v-.966797l-1.621094.068359c-1.289069.045573-2.218422.245766-2.788086.600586-.569664.354819-.854492.906572-.854492 1.655273 0 .585941.177407 1.0319.532226 1.337891.35482.305991.851234.458984 1.489258.458984zm13.285938-9.755859c.475263 0 .901691.039062 1.279297.117187l-.22461 1.503907c-.44271-.097657-.833331-.146485-1.171875-.146485-.865889 0-1.606442.351559-2.221679 1.054688-.615238.703128-.922852 1.578771-.922852 2.626953v5.742187h-1.621094v-10.703124h1.337891l.185547 1.982421h.078125c.397137-.696618.875648-1.233722 1.435547-1.611328.559898-.377606 1.175126-.566406 1.845703-.566406zm7.358203 11.09375c-1.549487 0-2.749019-.476883-3.598633-1.430664s-1.274414-2.303051-1.274414-4.047852c0-1.790373.431311-3.173823 1.293945-4.15039.862635-.976568 2.091464-1.464844 3.686524-1.464844.514325 0 1.028643.055338 1.542969.166016.514325.110677.917967.240884 1.210937.390625l-.498047 1.376953c-.358075-.14323-.748696-.262044-1.171875-.356446-.423179-.094401-.797524-.141601-1.123047-.141601-2.17449 0-3.261718 1.386705-3.261718 4.160156 0 1.315111.265296 2.324215.795898 3.027344.530602.703128 1.316727 1.054687 2.358398 1.054687.891932 0 1.806636-.192055 2.744141-.576171v1.435546c-.716149.371096-1.617833.556641-2.705078.556641zm12.768359-.195313v-6.923828c0-.8724-.198565-1.523435-.595703-1.953125-.397137-.429689-1.018876-.644531-1.865234-.644531-1.126308 0-1.94824.305987-2.465821.917969-.51758.611982-.776367 1.614576-.776367 3.007812v5.595703h-1.621093v-15.195312h1.621093v4.599609c0 .553389-.026041 1.012368-.078125 1.376953h.097657c.319012-.514325.773109-.919594 1.362304-1.21582.589196-.296225 1.26139-.444336 2.016602-.444336 1.3086 0 2.290036.31087 2.944336.932617.6543.621748.981445 1.609694.981445 2.963868v6.982421zm17.128516 0-.322266-1.523437h-.078125c-.533857.670576-1.066078 1.124673-1.596679 1.362305-.530602.237631-1.19303.356445-1.987305.356445-1.061203 0-1.892901-.273435-2.495117-.820313-.602217-.546877-.903321-1.324864-.903321-2.333984 0-2.161469 1.728499-3.29427 5.185547-3.398437l1.816407-.058594v-.664063c0-.839848-.180663-1.459959-.541993-1.860351-.36133-.400393-.939123-.600586-1.733398-.600586-.891932 0-1.901036.273435-3.027344.820312l-.498047-1.240234c.527347-.28646 1.10514-.511067 1.733399-.673828.628258-.162761 1.258135-.244141 1.889648-.244141 1.276048 0 2.221677.283201 2.836914.84961.615238.566409.922852 1.474603.922852 2.724609v7.304687zm-3.662109-1.142578c1.009119 0 1.801754-.27669 2.377929-.830078s.864258-1.32812.864258-2.324218v-.966797l-1.621094.068359c-1.289069.045573-2.218421.245766-2.788086.600586-.569664.354819-.854492.906572-.854492 1.655273 0 .585941.177407 1.0319.532227 1.337891.354819.305991.851233.458984 1.489258.458984zm10.024218 1.142578h-1.621093v-15.195312h1.621093zm5.258594 0h-1.621094v-15.195312h1.621094zm16.317969-1.435546h-.087891c-.748702 1.087245-1.868482 1.630859-3.359375 1.630859-1.399746 0-2.488603-.478511-3.266601-1.435547-.777999-.957036-1.166993-2.317699-1.166993-4.082031s.390622-3.134761 1.171875-4.111328c.781254-.976568 1.868483-1.464844 3.261719-1.464844 1.45183 0 2.5651.527338 3.339844 1.582031h.126953l-.068359-.771484-.039063-.751953v-4.355469h1.621094v15.195312h-1.318359zm-3.242188.273437c1.106777 0 1.909177-.301104 2.407227-.90332.498049-.602217.74707-1.573887.74707-2.915039v-.341797c0-1.516935-.252276-2.599281-.756836-3.24707-.50456-.64779-1.310216-.97168-2.416992-.97168-.950526 0-1.678057.369462-2.182617 1.108398s-.756836 1.78222-.756836 3.129883c0 1.367194.250648 2.399085.751953 3.095703s1.236974 1.044922 2.207031 1.044922zm14.994922 1.162109-.322265-1.523437h-.078125c-.533857.670576-1.066079 1.124673-1.59668 1.362305-.530602.237631-1.19303.356445-1.987305.356445-1.061203 0-1.8929-.273435-2.495117-.820313-.602217-.546877-.90332-1.324864-.90332-2.333984 0-2.161469 1.728498-3.29427 5.185547-3.398437l1.816406-.058594v-.664063c0-.839848-.180662-1.459959-.541992-1.860351-.36133-.400393-.939124-.600586-1.733399-.600586-.891931 0-1.901036.273435-3.027344.820312l-.498046-1.240234c.527346-.28646 1.10514-.511067 1.733398-.673828s1.258135-.244141 1.889648-.244141c1.276048 0 2.221677.283201 2.836914.84961.615238.566409.922852 1.474603.922852 2.724609v7.304687zm-3.662109-1.142578c1.009119 0 1.801755-.27669 2.377929-.830078.576175-.553388.864258-1.32812.864258-2.324218v-.966797l-1.621093.068359c-1.289069.045573-2.218422.245766-2.788086.600586-.569665.354819-.854493.906572-.854493 1.655273 0 .585941.177407 1.0319.532227 1.337891.354819.305991.851234.458984 1.489258.458984zm11.860156 0c.28646 0 .56315-.021158.830078-.063476.266929-.042318.478515-.086263.634766-.131836v1.240234c-.175782.084636-.434569.154622-.776367.209961-.341799.055339-.649413.083008-.922852.083008-2.070323 0-3.105469-1.090484-3.105469-3.271484v-6.367188h-1.533203v-.78125l1.533203-.673828.683594-2.285156h.9375v2.480469h3.105469v1.259765h-3.105469v6.298828c0 .644535.152993 1.139321.458984 1.484375.305992.345054.725909.517578 1.259766.517578zm10.385547 1.142578-.322266-1.523437h-.078125c-.533857.670576-1.066078 1.124673-1.596679 1.362305-.530602.237631-1.19303.356445-1.987305.356445-1.061203 0-1.892901-.273435-2.495117-.820313-.602217-.546877-.903321-1.324864-.903321-2.333984 0-2.161469 1.728499-3.29427 5.185547-3.398437l1.816407-.058594v-.664063c0-.839848-.180663-1.459959-.541993-1.860351-.36133-.400393-.939123-.600586-1.733398-.600586-.891932 0-1.901036.273435-3.027344.820312l-.498047-1.240234c.527347-.28646 1.10514-.511067 1.733399-.673828.628258-.162761 1.258135-.244141 1.889648-.244141 1.276048 0 2.221677.283201 2.836914.84961.615238.566409.922852 1.474603.922852 2.724609v7.304687zm-3.662109-1.142578c1.009119 0 1.801754-.27669 2.377929-.830078s.864258-1.32812.864258-2.324218v-.966797l-1.621094.068359c-1.289069.045573-2.218421.245766-2.788086.600586-.569664.354819-.854492.906572-.854492 1.655273 0 .585941.177407 1.0319.532227 1.337891.354819.305991.851234.458984 1.489258.458984zm20.380468 1.142578-.322265-1.523437h-.078125c-.533857.670576-1.066078 1.124673-1.59668 1.362305-.530602.237631-1.19303.356445-1.987305.356445-1.061203 0-1.8929-.273435-2.495117-.820313-.602216-.546877-.90332-1.324864-.90332-2.333984 0-2.161469 1.728498-3.29427 5.185547-3.398437l1.816406-.058594v-.664063c0-.839848-.180662-1.459959-.541992-1.860351-.36133-.400393-.939124-.600586-1.733399-.600586-.891931 0-1.901036.273435-3.027343.820312l-.498047-1.240234c.527346-.28646 1.10514-.511067 1.733398-.673828s1.258135-.244141 1.889649-.244141c1.276048 0 2.221676.283201 2.836914.84961.615237.566409.922851 1.474603.922851 2.724609v7.304687zm-3.662109-1.142578c1.00912 0 1.801755-.27669 2.37793-.830078.576174-.553388.864257-1.32812.864257-2.324218v-.966797l-1.621093.068359c-1.289069.045573-2.218422.245766-2.788086.600586-.569665.354819-.854492.906572-.854492 1.655273 0 .585941.177407 1.0319.532226 1.337891.35482.305991.851234.458984 1.489258.458984zm12.680469 1.337891c-1.549487 0-2.74902-.476883-3.598633-1.430664-.849614-.953781-1.274414-2.303051-1.274414-4.047852 0-1.790373.431311-3.173823 1.293945-4.15039.862635-.976568 2.091463-1.464844 3.686524-1.464844.514325 0 1.028643.055338 1.542968.166016.514326.110677.917968.240884 1.210938.390625l-.498047 1.376953c-.358075-.14323-.748696-.262044-1.171875-.356446-.423179-.094401-.797524-.141601-1.123047-.141601-2.17449 0-3.261719 1.386705-3.261719 4.160156 0 1.315111.265297 2.324215.795899 3.027344.530601.703128 1.316726 1.054687 2.358398 1.054687.891932 0 1.806636-.192055 2.744141-.576171v1.435546c-.71615.371096-1.617833.556641-2.705078.556641zm10.326953-11.09375c.475263 0 .901691.039062 1.279297.117187l-.22461 1.503907c-.44271-.097657-.833331-.146485-1.171875-.146485-.865889 0-1.606442.351559-2.221679 1.054688-.615238.703128-.922852 1.578771-.922852 2.626953v5.742187h-1.621094v-10.703124h1.337891l.185547 1.982421h.078125c.397137-.696618.875648-1.233722 1.435547-1.611328.559898-.377606 1.175127-.566406 1.845703-.566406zm12.31914 5.537109c0 1.744801-.439448 3.107092-1.318359 4.086914-.878911.979823-2.093091 1.469727-3.642578 1.469727-.957036 0-1.806637-.224607-2.548828-.673828s-1.315102-1.093746-1.71875-1.933594-.605469-1.822911-.605469-2.949219c0-1.7448.436194-3.103836 1.308594-4.077148s2.083325-1.459961 3.632812-1.459961c1.497404 0 2.68717.498042 3.569336 1.494141.882166.996098 1.323242 2.343741 1.323242 4.042968zm-8.154296 0c0 1.367195.273434 2.408851.820312 3.125.546878.71615 1.350906 1.074219 2.412109 1.074219 1.061204 0 1.86686-.356442 2.416993-1.069336s.825195-1.756178.825195-3.129883c0-1.360684-.275062-2.394202-.825195-3.100586-.550133-.706383-1.3623-1.05957-2.436524-1.05957-1.061203 0-1.861976.348304-2.402344 1.044922-.540367.696618-.810546 1.735019-.810546 3.115234zm18.10039 2.441407c0 .996098-.37109 1.76432-1.113281 2.304687s-1.783848.810547-3.125.810547c-1.419278 0-2.526038-.224607-3.320313-.673828v-1.503906c.514326.260418 1.066078.465494 1.655274.615234s1.157224.224609 1.704101.224609c.846359 0 1.497394-.135089 1.953125-.405273.455732-.270184.683594-.681963.683594-1.235352 0-.416668-.180662-.77311-.541992-1.069336-.36133-.296225-1.066075-.646156-2.114258-1.049804-.996099-.371096-1.704099-.694986-2.124023-.97168s-.732421-.590818-.9375-.942383c-.205079-.351564-.307617-.771482-.307617-1.259765 0-.872401.354814-1.56087 1.064453-2.06543s1.682936-.756836 2.919922-.756836c1.152349 0 2.27864.234373 3.378906.703125l-.576172 1.318359c-1.074224-.44271-2.047522-.664062-2.919922-.664062-.768233 0-1.347654.120441-1.738281.361328s-.585938.572915-.585938.996094c0 .28646.073242.530598.219727.732422s.382485.393879.708008.576171c.325522.182293.950516.445962 1.875.791016 1.269537.462242 2.127276.927732 2.573242 1.396484.445966.468753.668945 1.05794.668945 1.767579zm9.741016 0c0 .996098-.37109 1.76432-1.113281 2.304687-.742192.540367-1.783848.810547-3.125.810547-1.419278 0-2.526038-.224607-3.320313-.673828v-1.503906c.514326.260418 1.066078.465494 1.655274.615234.589195.14974 1.157223.224609 1.704101.224609.846358 0 1.497394-.135089 1.953125-.405273.455732-.270184.683594-.681963.683594-1.235352 0-.416668-.180662-.77311-.541992-1.069336-.36133-.296225-1.066076-.646156-2.114258-1.049804-.996099-.371096-1.7041-.694986-2.124024-.97168s-.73242-.590818-.9375-.942383c-.205079-.351564-.307617-.771482-.307617-1.259765 0-.872401.354814-1.56087 1.064453-2.06543s1.682937-.756836 2.919922-.756836c1.15235 0 2.278641.234373 3.378906.703125l-.576171 1.318359c-1.074225-.44271-2.047522-.664062-2.919922-.664062-.768233 0-1.347655.120441-1.738282.361328s-.585937.572915-.585937.996094c0 .28646.073241.530598.219727.732422.146485.201824.382485.393879.708007.576171.325523.182293.950517.445962 1.875.791016 1.269538.462242 2.127277.927732 2.573243 1.396484.445965.468753.668945 1.05794.668945 1.767579zm16.532812-.878907c0 1.256517-.455724 2.236325-1.367187 2.939454-.911463.703128-2.14843 1.054687-3.710938 1.054687-1.692716 0-2.994787-.218097-3.90625-.654297v-1.601562c.585941.247397 1.223955.442707 1.914063.585937.690107.14323 1.373694.214844 2.050781.214844 1.106776 0 1.940101-.209959 2.5-.629883s.839844-1.004228.839844-1.75293c0-.494794-.099283-.900063-.297852-1.21582-.198568-.315757-.530596-.607095-.996093-.874023-.465498-.266929-1.173498-.56966-2.124024-.908203-1.328132-.475263-2.277015-1.038409-2.84668-1.689454-.569664-.651045-.854492-1.500645-.854492-2.548828 0-1.100266.413408-1.975908 1.240235-2.626953s1.920566-.976562 3.28125-.976562c1.419277 0 2.724603.260414 3.916015.78125l-.517578 1.445312c-1.178391-.494794-2.324213-.742187-3.4375-.742187-.878911 0-1.565753.1888-2.060547.566406s-.742187.901689-.742187 1.572266c0 .494794.091145.900063.273437 1.21582.182293.315757.489907.605467.922852.86914.432945.263674 1.095373.555012 1.987304.874024 1.497404.533857 2.527667 1.106768 3.090821 1.71875s.844726 1.406245.844726 2.382812zm6.332813 2.65625c.28646 0 .56315-.021158.830078-.063476s.478515-.086263.634766-.131836v1.240234c-.175783.084636-.434569.154622-.776368.209961-.341798.055339-.649412.083008-.922851.083008-2.070323 0-3.105469-1.090484-3.105469-3.271484v-6.367188h-1.533203v-.78125l1.533203-.673828.683594-2.285156h.9375v2.480469h3.105469v1.259765h-3.105469v6.298828c0 .644535.152993 1.139321.458984 1.484375s.725909.517578 1.259766.517578zm10.385547 1.142578-.322266-1.523437h-.078125c-.533857.670576-1.066078 1.124673-1.59668 1.362305-.530601.237631-1.193029.356445-1.987304.356445-1.061204 0-1.892901-.273435-2.495117-.820313-.602217-.546877-.903321-1.324864-.903321-2.333984 0-2.161469 1.728499-3.29427 5.185547-3.398437l1.816406-.058594v-.664063c0-.839848-.180662-1.459959-.541992-1.860351-.36133-.400393-.939123-.600586-1.733398-.600586-.891932 0-1.901036.273435-3.027344.820312l-.498047-1.240234c.527346-.28646 1.10514-.511067 1.733399-.673828.628258-.162761 1.258134-.244141 1.889648-.244141 1.276048 0 2.221677.283201 2.836914.84961s.922852 1.474603.922852 2.724609v7.304687zm-3.66211-1.142578c1.00912 0 1.801755-.27669 2.37793-.830078s.864258-1.32812.864258-2.324218v-.966797l-1.621094.068359c-1.289069.045573-2.218422.245766-2.788086.600586-.569664.354819-.854492.906572-.854492 1.655273 0 .585941.177407 1.0319.532227 1.337891.354819.305991.851233.458984 1.489257.458984zm12.680469 1.337891c-1.549487 0-2.749019-.476883-3.598633-1.430664-.849613-.953781-1.274414-2.303051-1.274414-4.047852 0-1.790373.431311-3.173823 1.293946-4.15039.862634-.976568 2.091463-1.464844 3.686523-1.464844.514325 0 1.028643.055338 1.542969.166016.514325.110677.917967.240884 1.210937.390625l-.498047 1.376953c-.358074-.14323-.748695-.262044-1.171875-.356446-.423179-.094401-.797524-.141601-1.123047-.141601-2.17449 0-3.261718 1.386705-3.261718 4.160156 0 1.315111.265297 2.324215.795898 3.027344.530602.703128 1.316727 1.054687 2.358399 1.054687.891931 0 1.806636-.192055 2.74414-.576171v1.435546c-.716149.371096-1.617833.556641-2.705078.556641zm7.045703-5.673828c.27995-.397138.706378-.917966 1.279297-1.5625l3.457031-3.662109h1.923828l-4.335937 4.560546 4.638672 6.142578h-1.962891l-3.779297-5.058593-1.220703 1.054687v4.003906h-1.601562v-15.195312h1.601562v8.056641c0 .358074-.026041.911454-.078125 1.660156zm11.000781-.458985v5.9375h-1.660156v-14.277343h3.916016c1.751311 0 3.045243.335283 3.881836 1.005859.836592.670576 1.254883 1.679681 1.254883 3.027344 0 1.88803-.957022 3.164059-2.871094 3.828125l3.876953 6.416015h-1.962891l-3.457031-5.9375zm0-1.425781h2.275391c1.171881 0 2.031247-.232745 2.578125-.698242s.820313-1.163732.820313-2.094727c0-.944015-.278318-1.624346-.834961-2.041015-.556644-.416669-1.45019-.625-2.680664-.625h-2.158204zm19.897266 2.001953c0 1.744801-.439449 3.107092-1.318359 4.086914-.878911.979823-2.093091 1.469727-3.642578 1.469727-.957036 0-1.806637-.224607-2.548829-.673828-.742191-.449221-1.315102-1.093746-1.71875-1.933594-.403647-.839848-.605468-1.822911-.605468-2.949219 0-1.7448.436193-3.103836 1.308593-4.077148.872401-.973312 2.083326-1.459961 3.632813-1.459961 1.497403 0 2.68717.498042 3.569336 1.494141.882166.996098 1.323242 2.343741 1.323242 4.042968zm-8.154297 0c0 1.367195.273435 2.408851.820313 3.125.546877.71615 1.350906 1.074219 2.412109 1.074219s1.866859-.356442 2.416992-1.069336.825196-1.756178.825196-3.129883c0-1.360684-.275063-2.394202-.825196-3.100586-.550133-.706383-1.362299-1.05957-2.436523-1.05957-1.061203 0-1.861977.348304-2.402344 1.044922s-.810547 1.735019-.810547 3.115234zm13.373828-.117187-3.720703-5.224609h1.845703l2.822266 4.101562 2.8125-4.101562h1.826172l-3.720703 5.224609 3.916015 5.478515h-1.835937l-2.998047-4.335937-3.027344 4.335937h-1.835937z" fill="#434861" fill-rule="nonzero"/><g transform="translate(286 15)"><path d="m51.0403037 85h52.4386683c1.654864 0 2.996495-.6716 2.996495-1.5s-1.341631-1.5-2.996495-1.5h-52.4386683c-1.6548644 0-2.9964953.6716-2.9964953 1.5s1.3416309 1.5 2.9964953 1.5z" fill="#d4d7e9"/><path d="m155.91764 66h-104.8773363c-1.6548644 0-2.9964953.6716-2.9964953 1.5s1.3416309 1.5 2.9964953 1.5h104.8773363c1.654865 0 2.996496-.6716 2.996496-1.5s-1.341631-1.5-2.996496-1.5z" fill="#d4d7e9"/><path d="m51.0403037 37h52.4386683c1.654864 0 2.996495-.8954667 2.996495-2s-1.341631-2-2.996495-2h-52.4386683c-1.6548644 0-2.9964953.8954667-2.9964953 2s1.3416309 2 2.9964953 2z" fill="#b9daf8"/><path d="m51.0403037 21h104.8773363c1.654865 0 2.996496-.8954667 2.996496-2s-1.341631-2-2.996496-2h-104.8773363c-1.6548644 0-2.9964953.8954667-2.9964953 2s1.3416309 2 2.9964953 2z" fill="#b9daf8"/><path d="m167.903621 0h-164.8072425c-1.65486448 0-2.99649532 1.3432-2.99649532 3v48c0 1.6568 1.34163084 3 2.99649532 3h164.8072425c1.654865 0 2.996496-1.3432 2.996496-3v-48c0-1.6568-1.341631-3-2.996496-3zm-2.996495 48h-158.81425217v-42h158.81425217z" fill="#c8e5ff" fill-rule="nonzero"/><g fill="#d4d7e9"><path d="m39.0543224 60h-23.9719626c-1.6548645 0-2.9964953 1.3432-2.9964953 3v24c0 1.6568 1.3416308 3 2.9964953 3h23.9719626c1.6548645 0 2.9964954-1.3432 2.9964954-3v-24c0-1.6568-1.3416309-3-2.9964954-3zm-.9964953 26h-21.978972v-22h21.978972z" fill-rule="nonzero"/><path d="m39.0543224 96h-23.9719626c-1.6548645 0-2.9964953 1.3432-2.9964953 3v24c0 1.6568 1.3416308 3 2.9964953 3h23.9719626c1.6548645 0 2.9964954-1.3432 2.9964954-3v-24c0-1.6568-1.3416309-3-2.9964954-3zm-.9964953 26h-21.978972v-22h21.978972z" fill-rule="nonzero"/><path d="m103.478972 118h-52.4386683c-1.6548644 0-2.9964953.6716-2.9964953 1.5s1.3416309 1.5 2.9964953 1.5h52.4386683c1.654864 0 2.996495-.6716 2.996495-1.5s-1.341631-1.5-2.996495-1.5z"/><path d="m155.91764 102h-104.8773363c-1.6548644 0-2.9964953.6716-2.9964953 1.5s1.3416309 1.5 2.9964953 1.5h104.8773363c1.654865 0 2.996496-.6716 2.996496-1.5s-1.341631-1.5-2.996496-1.5z"/></g><path d="m15.0823598 42h23.9719626c1.6548645 0 2.9964954-1.3432 2.9964954-3v-24c0-1.6568-1.3416309-3-2.9964954-3h-23.9719626c-1.6548645 0-2.9964953 1.3432-2.9964953 3v24c0 1.6568 1.3416308 3 2.9964953 3zm2.9964953-24h17.978972v18h-17.978972z" fill="#b9daf8" fill-rule="nonzero"/></g><rect fill="url(#b)" height="122.306756" rx="15" transform="matrix(.12186934 .99254615 -.99254615 .12186934 270.501549 3.171067)" width="30" x="52.958655" y="19.271064"/><rect fill="url(#c)" height="122.306756" rx="14.5" transform="matrix(.66913061 .74314483 -.74314483 .66913061 201.378704 -17.839935)" width="29" x="40.723927" y="8.963233"/><rect fill="url(#d)" height="122.306756" rx="14.5" transform="matrix(.97029573 .2419219 -.2419219 .97029573 147.493817 -8.098137)" width="29" x="26.723927" y="1.963233"/><g transform="translate(153 39)"><path d="m69.8061913 59.8111074c2.7604194 2.7601007 2.7604194 7.2349832 0 9.9954027-2.7597819 2.7601006-7.2346645 2.7597818-9.9947651 0l-15.9702014-15.9702014c-2.7597818-2.7601006-2.7604194-7.2349832-.0003188-9.9950839 2.7604195-2.7604194 7.2353021-2.7601006 9.9957215 0z" stroke="#8f94b0" stroke-width="2"/><circle cx="32.101393" cy="32.101393" fill="#8f94b0" r="32.101393"/><g fill="#fff"><circle cx="32.101393" cy="32.101393" r="28.638999"/><path d="m59.3816946 74.4391946c-4.1583221-4.1576845-4.1583221-10.8998154 0-15.0578188 4.1580034-4.1583221 10.8994967-4.1580033 15.0578188 0l17.4060403 17.4063591c4.1583221 4.1580034 4.1583221 10.8994966 0 15.0578188-4.1576846 4.1580033-10.8994967 4.1580033-15.0578188 0z" stroke="#8f94b0" stroke-width="2"/></g></g></g></svg>