<svg height="117" viewBox="0 0 742 117" width="742" xmlns="http://www.w3.org/2000/svg" xmlns:xlink="http://www.w3.org/1999/xlink"><linearGradient id="a" x1="50%" x2="50%" y1=".693559%" y2="100%"><stop offset="0" stop-color="#e66679" stop-opacity=".745245"/><stop offset="1" stop-color="#735eaf" stop-opacity="0"/></linearGradient><linearGradient id="b" x1="50%" x2="50%" y1="3.800843%" y2="100%"><stop offset="0" stop-color="#5773ff"/><stop offset="1" stop-color="#735eaf" stop-opacity="0"/></linearGradient><linearGradient id="c" x1="50%" x2="50%" y1="5.136701%" y2="100%"><stop offset="0" stop-color="#57ddff"/><stop offset="1" stop-color="#735eaf" stop-opacity="0"/></linearGradient><linearGradient id="d" x1="50%" x2="50%" y1=".693559%" y2="100%"><stop offset="0" stop-color="#8c66e6" stop-opacity=".745245"/><stop offset="1" stop-color="#735eaf" stop-opacity="0"/></linearGradient><g fill="none" opacity=".23041168892" transform="matrix(-.17364818 .98480775 .98480775 .17364818 61.737285 -366.670759)"><path d="m44.475396 413.97082h269.200387v313.210336h-269.200387z" fill="url(#a)" transform="matrix(.94551858 -.32556815 .32556815 .94551858 -176.005078 89.387102)"/><path d="m281.810899 271.708319h62.310741v343.435882h-62.310741z" fill="url(#b)" opacity=".557971" transform="matrix(.99026807 -.1391731 .1391731 .99026807 -58.667241 47.87188)"/><path d="m221.873838 4.286502h137.937601v437.962666h-137.937601z" fill="url(#c)" opacity=".557971" transform="matrix(.99862953 .05233596 -.05233596 .99862953 12.083525 -14.915547)"/><path d="m167.254633 514.692357h145.091267v264.027767h-145.091267z" fill="url(#d)" transform="matrix(.5 -.8660254 .8660254 .5 -440.1639 531.026244)"/></g></svg>