<svg height="170" viewBox="0 0 185 170" width="185" xmlns="http://www.w3.org/2000/svg" xmlns:xlink="http://www.w3.org/1999/xlink"><mask id="a" fill="#fff"><path d="m0 .05479553h118.995645v101.69520447h-118.995645z" fill="#fff" fill-rule="evenodd"/></mask><mask id="b" fill="#fff"><path d="m.20733505.0162h34.17410825v16.73375h-34.17410825z" fill="#fff" fill-rule="evenodd"/></mask><mask id="c" fill="#fff"><path d="m-.00004983 0h2.49140894v.28509503h-2.49140894z" fill="#fff" fill-rule="evenodd"/></mask><g fill="none" fill-rule="evenodd" transform="translate(20 24)"><path d="m61.3521658 67.01905c-.0084708-.768-.1701632-1.54325.1028952-2.29875.2730584-.0085.3181529-.20575.3438144-.41875.5052578-1.23175 1.5713316-1.8905 2.6189691-2.559 1.6470704-1.0515 3.3018643-2.09475 4.5660052-3.624 1.504811-1.8195 1.4345532-3.637-.171409-5.36225-1.0117611-1.0865-2.2838745-1.766-3.6030756-2.39775-1.3832302-.662-2.765713-1.361-3.4107388-2.91025-.0094674-.2835-.132543-.501-.3752062-.6485-.2102749-.771-.0986598-1.5495-.0538144-2.32625.2735567-.14.413823-.36575.4292697-.672.5702835-1.40275 1.8316839-1.9925 3.0823712-2.5325 3.3220446-1.43475 6.5332216-3.0635 9.472835-5.19325.9791237-.7095 1.9089175-1.49275 2.5110911-2.56425.778067-1.385.7977491-2.803-.1440035-4.1165-.9038831-1.26075-2.2512371-1.30325-3.6045704-1.055-1.5421821.283-2.7450344 1.096-3.5450258 2.49525-.5971907 1.044-1.121134 2.13475-1.9081701 3.06525-1.7073625 2.019-5.1447594 1.527-5.8725-.913-.0042354-.5865-.0084708-1.17275-.0127062-1.75925.2919932-1.24025 1.1861598-1.96075 2.2345447-2.50175.6811512-.35175 1.2878093-.77275 1.6929124-1.416.744433-1.182 1.5715807-2.287 2.8147938-3.21075h-7.1852234v7.0645c-.0794759.107-.1589519.214-.2381787.321-.4666409-1.271-1.2917955-2.21275-2.5342611-2.76675-1.0468901-.46675-1.6022251-1.39775-2.2073884-2.29725-3.1974742-4.7515-9.9180498-4.82875-13.4994501-2.0595-2.5997852 2.01-2.6795103 4.89875-2.1346392 7.85925.5964433 3.23975 2.5245447 5.515 5.1918471 7.29975 2.9764862 1.9915 6.1575172 3.598 9.3410395 5.208.5072509.2565 1.1976203.41875 1.2202921 1.108.0251632.76975-.7023282.927-1.2514347 1.2045-3.1289605 1.58175-5.7653694 3.60775-6.6832045 7.2595-.5565807 2.21375-.0797251 4.099 1.5150258 5.7275 1.2581615 1.2845 2.7258505 2.30375 4.1427148 3.38875.461658.3535.939012.6865 1.3921993 1.0505 1.7225601 1.38275 1.718823 1.7745.0274055 3.201-1.598488 1.34775-2.9662715 2.89075-4.0702148 4.68325-1.4709278 2.388-1.4041581 4.698.1375258 7.01425 1.2080842 1.8145 2.6780154 3.3875 4.3044072 4.823.2177491.19225.4551804.36425.6607216.5685 1.1435567 1.13725 1.0997079 2.0435-.242414 2.95825-1.4106358.96175-2.3289691 2.1865-2.6266925 3.90425-.5050086 2.9145 1.1612457 4.8285 3.0303007 6.589 1.0847595 1.0215 2.3070447 1.8945 3.2056959 3.1095-.3261255.37225-.9325344-.05275-1.2192956.4315h-.9965635c-.1611942-.36175-.4918042-.22925-.7596306-.24925-2.6476203-.19975-5.280043-.53275-7.8798282-1.0645-25.3966752-5.196-44.66448453-25.6205-48.483067-51.33125-.21575602-1.452-.12656358-2.95575-.67816151-4.355v-2c.41706185-1.66675.41706185-3.3335 0-5v-2c.30719072-.12325.23170103-.40225.25188144-.637.52668385-6.13425 1.91963058-12.0575 4.19054983-17.78275.34356529-.866.80198453-1.31275 1.68668385-1.572 6.13036079-1.7965 11.88651199-4.3795 17.07910649-8.17675 3.352689-2.45175 6.7925774-4.7875 10.6517698-6.39575 1.8077663-.75325 3.6601289-1.36825 5.6714433-1.041 3.5273368.57425 5.9188402 2.65725 7.4839433 5.774.9691581 1.93 1.8082646 3.92575 2.7848969 5.8515 2.3857732 4.70375 6.5982474 6.52375 11.4988488 7.2175.0298969.07725.0824656.15325.086701.23175.127311 2.36175.1285567 2.3735 2.4774571 1.9595 1.8005412-.3175 3.5567354-.77925 5.2172594-1.585 2.1620447-1.0495 3.8686598-2.5595 4.9449485-4.736 1.0319416-2.0865 2.0471907-4.18125 3.0763917-6.26925.1651804-.33525.3749571-.648.546366-.98025 2.3635997-4.5815 6.1091839-5.241 10.7713574-3.35825 1.3538316.54675 2.5223024 1.44275 3.7049742 2.28425 4.9750945 3.53975 10.6338319 5.77675 16.0287289 8.517 3.36963 1.7115 6.788092 3.30325 10.469398 4.24225.154468.03925.32787.08675.372964.4445-6.033196 1.074-11.656804-.784-17.398256-2.31425 1.142311 2.37 3.386821 3.42625 5.438995 4.82375-5.203308.59075-9.7929811-1.70975-14.8811855-3.36775 1.4868728 2.0505 3.3875687 3.21725 4.8948711 5.03425-1.3132217.02825-2.3563746-.30325-3.4030155-.5805-2.4600172-.65175-4.7394072-1.7555-7.0168041-2.8615-.4105842-.1995-.8261512-.38875-1.2310052-.599-.843591-.43825-1.7096048-.61275-2.3481529.25225-.6634622.89875.0904382 1.56825.6054124 2.17875.4454639.528 1.0222251.94425 1.7880842 1.6315h-5.6677062c1.3179553 1.2985 2.2342955 2.58225 2.4418299 4.22425.5560825 4.39775-.7566409 8.042-4.3654467 10.737-2.50561 1.871-5.2498969 3.3405-8.0193471 4.7655-.8854468.4555-1.7833505.887-2.6687973 1.3425-.3724656.1915-.7810567.42225-.7683505.895.0124571.46325.4026117.68825.7932646.87275 1.9684622.92875 3.791177 2.06175 5.2254811 3.7455 1.0790292 1.2665 1.7404983 2.7275 2.0230241 4.359.3435653 1.98175-.182122 3.68475-1.5947509 5.146-1.6901718 1.748-3.7543041 3.017-5.6183763 4.5405-1.6936598 1.384-1.6986426 1.5995-.0759879 2.98325 1.6211598 1.38275 3.0482388 2.92975 4.1576632 4.77375 1.4355498 2.386 1.40939 4.70125-.1066323 7.03525-1.0287028 1.58375-2.2903522 2.9555-3.6484193 4.2485-.4212972.401-.8627749.78175-1.2746048 1.192-1.2195446 1.215-1.1893986 1.92775.2177492 2.90225 1.5274828 1.0575 2.4408333 2.4325 2.6269416 4.313.1195876 1.21-.0852062 2.32225-.7013317 3.3535-.6427835 1.07575-1.3921993 2.081-2.3399312 2.9025-1.0331873.89575-2.1849657 1.65525-2.9926804 2.798-.2189949.31-.5493557.5625-.9601891.3575-.3527835-.17625-.3355927-.5605-.3081872-.88775.0931787-1.0995.4501976-2.10625 1.1136598-2.998.645524-.86725 1.3159622-1.71825 1.9146477-2.6175 1.1313488-1.699 1.0247165-2.857-.408591-4.33625-.546366-.56425-1.1764433-1.05125-1.7955585-1.53875-1.2798367-1.00725-1.6642611-2.2775-1.186658-3.82525.2922422-.0315.3206443-.2465.3278694-.47575.5142268-1.38675 1.6077062-2.291 2.6782646-3.20675 1.0747938-.91925 2.1535739-1.83825 3.011366-2.97 1.3132216-1.73225 1.3401288-3.12375.106134-4.9195-1.1455498-1.66775-2.72311-2.898-4.2854725-4.13775-.6151289-.488-1.2830756-.93-1.5102921-1.75425.0134536-.33875-.132543-.5835-.4330069-.73675" fill="#4a62b3" mask="url(#a)" transform="translate(0 21.25)"/><path d="m.25267869 30.998425c2.39897767-4.563 5.54562715-8.5815 9.12777492-12.2395 10.05756869-10.27175 22.23881439-16.31625 36.46675259-18.20925 1.4096392-.1875 2.8573969-.0785 4.2301632-.54975h.7474227c.7681014.52675 1.630378.14125 2.4415808.25325.412079 1.78825.1213316 3.60275.1955756 5.40375.0391151.946.0199312 1.8945.0269072 2.842-.334098.04-.4322595.251-.4006186.5565-.7514089 2.372-1.5217526 4.73875-2.2410223 7.1205-.187354.621-.604665.5755-1.0630842.575-1.9906358-.00175-3.9810224-.00075-5.9716581-.00075h-2.045945c2.3558763 1.7175 4.3878694 3.227 6.4547423 4.6865.5717783.404.696847.767.4648969 1.448-.7890292 2.31675-1.4973368 4.66125-2.2365378 6.995-.0122079.095-.0241667.19-.0363746.285.0737457-.039.1474914-.07825.2212371-.11725.4447165-.2855.8971564-.55925 1.3326546-.85825 1.784098-1.22475 3.4231959-2.6575 5.3134279-3.73075.0246649.03675.0540636.069.0879467.09725.2219846 3.66175.04061 7.3275.0979124 10.99075.0084708.534.0012457 1.068.0012457 1.56575.5401375.32425.9821134.145 1.4054038.03525 3.7874398-.981 6.3453694-3.3805 7.6523625-7.02475.8822079-2.45925 1.511787-5.0095 2.2656873-7.51525.3610052-1.19975.8784708-2.33625 1.5060567-3.41625 1.6744759-2.8805 4.2194502-4.38225 7.4951546-4.687 4.1681272-.3875 7.9568128.739 11.4943643 2.8975 3.2331014 1.9725 6.127122 4.42625 9.2630584 6.534 7.7796737 5.22875 16.3720447 8.33875 25.5949917 9.74925 1.49634.22875 3.026563.1545 4.848032.0415-2.0589 1.98525-4.230163 3.066-6.717586 3.51725-3.90902.70975-7.569896-.4675-11.208599-1.6115-6.3075-1.9835-12.0708765-5.02825-17.3768301-9.00125-2.8252577-2.11575-5.8508247-3.9525-9.1484536-5.2715-5.2190034-2.08725-9.7229725-.4995-12.4410997 4.458-.9571993 1.7455-1.7248024 3.59675-2.564158 5.40625-2.4216495 5.22025-6.7377663 7.529-12.2323196 8.0345.1033935-1.65175.093677-1.6165-1.5252406-2.05875-3.8128522-1.042-6.3436254-3.52175-7.6359192-7.215-.7805584-2.23075-1.3476031-4.53675-2.0085739-6.80925-2.0788316-7.1465-6.7302921-9.84025-14.4284966-8.24225-3.8357732.79625-7.0143127 2.935-10.0680326 5.24225-4.9818213 3.76375-10.08646907 7.3-15.99957904 9.466-.44870275.1645-.86526632.53-1.4049055.34225z" fill="#4a62b3" transform="translate(7.972509)"/><g fill="#5169b6"><path d="m26.7597749 9.45995c-.8483247-2.1085-1.623402-4.03425-2.5237972-6.27175-.8443385 2.28525-1.5656014 4.23825-2.3165121 6.27175zm-15.4180842-.013c-.8296392-2.05725-1.61567867-4.0055-2.5260395-6.263-.84408934 2.2965-1.56136598 4.2475-2.30206185 6.263zm23.0398024 7.303c-1.6866838-.12675-3.3875687.10775-5.1532302-.1485.1729038-.48225.2473969-.87625.0361254-1.33-.6487629-1.394-1.250189-2.81175-1.8254553-4.23825-.2197423-.54475-.5339089-.76175-1.1198883-.747-1.327921.03325-2.6580842.03925-3.9855069-.00225-.6181186-.01925-.8936684.27125-1.0862543.79425-.4026117 1.092-.8443385 2.1695-1.248445 3.261-.5351547 1.44475-.473866 1.58425 1.0498797 2.28475h-7.1466065c.3570189-1.19075-.3936426-2.057-.7922681-3.00125-.4648969-1.10125-.6024226-2.62125-1.5875257-3.15175-.9111083-.49075-2.26768044-.1845-3.42718216-.1675-2.30131443.03375-1.74647766-.3975-2.62395189 1.77175-.31167526.77075-.61911512 1.544-.90189004 2.32575-.54885738 1.51675-.49728522 1.61175.98435567 2.19125h-5.34631443c2.40495705-.08925 2.72834193-2.098 3.41497423-3.72775 1.66251718-3.94525 3.28591924-7.907 4.94121134-11.85525.15097938-.36025.19707045-.8295.68439003-.98525.50226804.19075.55359107.6965.72848798 1.09175 1.76690717 3.99175 3.50615977 7.9955 5.27929557 11.98425.4676374 1.05175.8767268 2.16475 1.9587457 2.89775.8264003-.475 1.0802749-1.33775 1.4083934-2.119 1.7377578-4.139 3.446366-8.29 5.1788918-12.43125.2045447-.48875.3159106-1.0385.7556443-1.43125.6442784.091.6522509.69275.8348711 1.1035 1.7569416 3.9495 3.486976 7.911 5.2309622 11.86625.2346908.53225.4987801 1.052.7573884 1.573.6178694 1.24425 1.5591237 1.9165 3.000902 1.691z" mask="url(#b)" transform="translate(110.618557 66.75)"/><path d="m0 59c.41706186 1.66675.41706186 3.33325 0 5z"/><path d="m58.7972509 123c.2867611-.48425.8931701-.059 1.2192955-.4315.2720618.15425.5346563.1675.781555-.05275.0934278.17925.2586082.2205.4399828.23075.0169416.0845.033634.169.0505756.2535z"/><path d="m2.44153093.2528045c-.81095361-.1118361-1.67323024.27309975-2.44158076-.25287939h2.49140894c-.01669244.08437634-.03313574.16875268-.04982818.25287939" mask="url(#c)" transform="translate(58.797251)"/><path d="m61.7988754 65.051625c-.0154467.30625-.155713.53175-.4292697.672-.8904296-1.8515-2.5320189-2.744-4.3220962-3.496-3.1419159-1.32025-6.127122-2.937-8.8778866-4.96675-.8724915-.644-1.7006358-1.34875-2.2569674-2.29525-.7950086-1.35325-.8672595-2.7555-.0929296-4.1505.7170275-1.292 1.9345791-1.4285 3.2311083-1.359 1.9423024.104 3.352689 1.03875 4.3171134 2.721.6173711 1.07725 1.1301031 2.22675 2.0394673 3.1145 1.6049657 1.56725 4.0742011 1.316 5.2733162-.52125.4148196-.635.4407302-1.32325.4163144-2.03525.0792268-.10675.1587028-.21375.2381787-.32075.1474914.02125.295232.04275.4429725.064.0042354.58625.0084708 1.17275.0127062 1.75925-.4108333.082-.3348453.41975-.3353436.68925-.0067268 3.14575-.0064777 6.29175 0 9.43775.0004983.27275-.0645275.60675.3433161.687"/><path d="m61.4233204 68.049675c.2429124.1475.365988.365.3754554.6485-.528677.15975-.3390808.61-.3398282.941-.0132045 4.9905-.0132045 9.98125 0 14.97175.0007474.33075-.1890979.78125.3398282.9405-.0254124.21325-.0705069.41025-.3438145.41875-1.6665034-2.34725-4.3360481-3.449-6.4557388-5.2335-3.354433-2.82425-3.1825258-5.753.4865722-8.1405.2424141-.15775.4873196-.321.7514089-.434 2.1015034-.89975 4.0460481-1.99375 5.1861168-4.1125"/><path d="m61.0606959 9.0553c-.0316409-.30525.0667697-.51625.4006185-.5565.9576976 2.30375 1.6253952 4.707 2.3655928 7.08275.2675773.859.6564863 1.171 1.5720791 1.14575 2.475713-.068 4.9546649-.02325 7.5407474.21375-1.3154639.95775-2.6481186 1.8925-3.9406615 2.88-.98311.75125-2.5280327 1.224-2.8075688 2.3075-.2566151.99325.5593213 2.264.8991495 3.4135.4643986 1.571 1.1266151 3.08625 1.4950945 5.029-2.1901976-1.58575-4.1270189-2.99675-6.0757989-4.39075-.3580155-.25625-.6475172-.66725-1.1689691-.62475-.0338832-.028-.0632818-.0605-.0879468-.097.0214262-5.2955.0431014-10.591.063531-15.88675.0009965-.21275-.0378694-.4105-.2558677-.5165"/><path d="m92.0207122 67.099c-1.3924485.291-1.3690292 1.35225-1.3657904 2.4205.0109622 3.5805-.0164433 7.1615.0284021 10.7415.0166924 1.34225-.3497938 3.02625 1.888488 3.111h-5.2207475c1.6027234-.45575 1.3204468-1.81325 1.3505928-2.973.0473368-1.82475.0127062-3.65175.0127062-5.64375h-6.6184278c-2.7863918 0-2.7843987 0-2.7081615 2.86025.0256615.95675.0470876 1.9135.0558075 2.8705.0191839 2.14125.0151976 2.14125 1.9074227 2.86775h-5.2486512c1.2471993-.245 1.3137199-1.24325 1.3229381-2.1725.0413574-4.12125.0244158-8.24275.0520705-12.364.0077234-1.14775-.8587887-1.33125-1.6458248-1.72775h4.9449485c-1.6665034.3315-1.3077406 1.63625-1.3306615 2.75075-.0216753 1.04-.0179382 2.08125-.0642784 3.11975-.0281529.62875.1798798.8945.8448368.88775 2.5721306-.0265 5.1452577-.023 7.7176375-.00175.5932044.005.8059707-.2115.7885309-.8-.0306443-1.04.0037371-2.08175-.0107131-3.1225-.0166924-1.231.2904983-2.67525-1.6665034-2.8245z"/><path d="m61.7851229 105.99415c-.0072251.22925-.0356272.444-.3276203.4755-1.5815464-2.51925-4.1447079-4.1005-6.0179983-6.333-1.6263918-1.938-1.6032217-3.63-.0809708-5.657.9826117-1.30825 2.20689-2.37825 3.5071564-3.346 1.0481357-.78025 1.9517697-1.65225 2.4864261-2.8645.3004639.15325.4467096.39775.4330069.73675-.5157217.173-.3256272.6185-.3263746.95025-.0129553 5.02925-.0129553 10.0585 0 15.0875.0007474.332-.1893471.7775.3263746.9505"/><path d="m101.766755 67.083375c2.256718 0 4.525146-.144 6.766418.04075 2.21835.18275 3.451598 1.42925 3.715936 3.242.299467 2.05325-.874983 4.24425-2.759734 5.14375-.998556.47625-2.046692.60425-3.22463.48825.253127-.57625.724751-.39675 1.065575-.44875 2.290602-.349 3.459571-2.07075 3.0597-4.54925-.348548-2.15875-2.386272-3.6345-4.424244-3.24325-.479098.092-.610645.33675-.608901.76425.01744 4.4105.038368 8.82075.043102 13.23075.001246 1.31075 1.074046 1.207 1.869304 1.601h-5.238436c1.3628-.30725 1.363797-1.36475 1.367285-2.404.013204-3.9525-.017191-7.90575.044098-11.8575.019433-1.258-.632569-1.68275-1.675473-2.008"/><path d="m94.6434931 67.049075h4.6589347c-1.5269845.5095-1.3306615 1.82175-1.3264261 2.947.0134536 3.57575-.1332904 7.153.0906873 10.728.1268127 2.0215.0999055 2.02325 1.906177 2.611h-5.2072938c1.1517783-.27975 1.1928866-1.16925 1.2486941-2.10075.2371822-3.9495.0675172-7.90125.0889433-11.85175.005232-.99375.0062285-2.11975-1.7220618-1.983.0874484-.11675.1748969-.23375.2623453-.3505"/></g><path d="m61.2380593 122.746575c-.1813746-.01025-.346555-.0515-.4399828-.23075.2020532-1.40325-.2698196-2.61425-1.0728007-3.723-.6323196-.87325-1.3219416-1.707-1.9148969-2.6055-1.1243729-1.704-1.0249657-2.822.3841752-4.35275.4733677-.5145 1.0351804-.95725 1.600232-1.37375.5361512-.3955.9133505-.93075 1.3458591-1.4035.3126718.0845.2439089.32625.2441581.5095.0057302 4.155.0072251 8.31-.0014949 12.46525-.0004983.23825-.0946735.4765-.1452491.7145" fill="#4a62b3"/><path d="m8.2055799 30.983525c-.00149485.0365-.00298969.073-.00473368.10925.00822165-.0315.01619416-.06275.02441581-.09425z" fill="#4a62b3"/></g></svg>