<svg height="56" viewBox="0 0 56 56" width="56" xmlns="http://www.w3.org/2000/svg"><g fill="none" fill-rule="evenodd"><circle cx="28" cy="28" fill="#e9f0ff" r="28"/><g fill-rule="nonzero" transform="translate(17 14)"><path d="m16.8831461 16.1510204c2.8612359-.2020408 5.0983146-2.6265306 5.0983146-5.5285714 0-2.522449-1.7303371-4.75714288-4.097191-5.37551022-.5067416-3.01836735-3.1269663-5.24693878-6.2724719-5.24693878-2.28033713 0-4.39382027 1.2244898-5.51853937 3.15918367-.21629214-.04285714-.44494382-.06122449-.66741573-.06122449-1.92191012 0-3.48539326 1.5489796-3.48539326 3.45306123 0 .24489796.0247191.48367347.0741573.71632653-1.24213483.89387755-1.99606741 2.33877551-1.99606741 3.86938776 0 2.5836735 2.09494382 4.8857143 4.5730337 5.0204082h.03707866 12.21741571c.0061798 0 .0247191 0 .0370787-.0061225z" fill="#fff" stroke="#345394" stroke-width="2"/><path d="m4.64101124 14.944898c-1.84775281-.1102041-3.39887641-1.8489796-3.39887641-3.8081633 0-1.26734694.68595506-2.4489796 1.79213483-3.08571429.25955057-.14693878.37078652-.45918368.26573034-.73469388-.09269663-.23877551-.13595506-.49591837-.13595506-.76530612 0-1.2367347 1.01348315-2.24081633 2.26179776-2.24081633.26573033 0 .5252809.04285714.77247191.13469388.29662921.11020408.63033708-.0244898.76629213-.3122449.84044944-1.7755102 2.66966292-2.92040816 4.65337076-2.92040816 2.6634832 0 4.8634832 1.97755102 5.116854 4.59795918.0247191.27551021.2348314.49591837.5067415.53877551 2.008427.34285714 3.5224719 2.17959184 3.5224719 4.27346941 0 2.222449-1.7674157 4.1571428-3.9426966 4.322449z" fill="#fff"/><g fill="#7699e5"><path d="m11 18.2020408c-.3398876 0-.6117978.2693878-.6117978.6061225v7.1020408c-.84662917.2571428-1.47696624 1.0346939-1.49550557 1.9469388-.01235955.5571428.19157303 1.0897959.58089888 1.4938775.38932584.4040816.91460669.6367347 1.47696629.6489796h.0494382c1.1370787 0 2.0825843-.9183673 2.1073034-2.0387755.0123595-.5571429-.1915731-1.0897959-.5808989-1.4938776-.2533708-.2632653-.5685393-.4530612-.9146067-.5571428v-7.1020408c0-.3367347-.2719102-.6061225-.6117978-.6061225zm.6426966 9.1040816c.1606742.1714286.2533708.3918368.247191.6244898-.0123595.4714286-.4078651.8571429-.8837078.8571429h-.0247191c-.2348315-.0061224-.4573034-.1040816-.6179776-.2693878-.1606741-.1714285-.2533707-.3918367-.247191-.6244897.0123596-.4714286.4078652-.8571429.8837079-.8571429h.0247191c.2348315 0 .4511236.0979592.6179775.2693877z"/><path d="m7.06966292 18.8081633v3.3979591c0 .5877552-.48202247 1.0591837-1.06910112 1.0591837h-1.80449438c-.26573034-.8571428-1.06910113-1.4877551-2.02078652-1.4877551-1.16179775 0-2.11348315.9367347-2.11348315 2.0938776 0 1.1571428.94550562 2.0938775 2.11348315 2.0938775.95168539 0 1.75505618-.6244898 2.02078652-1.4877551h1.80449438c1.26685393 0 2.29269663-1.022449 2.29269663-2.2714286v-3.3979591c0-.3367347-.27191012-.6061225-.61179776-.6061225-.33370786 0-.61179775.2693878-.61179775.6061225zm-4.89438202 5.9448979c-.48820225 0-.88988764-.3918367-.88988764-.8816326s.39550562-.8816327.88988764-.8816327c.48820225 0 .88988764.3918368.88988764.8816327s-.39550562.8816326-.88988764.8816326z"/><path d="m15.9994382 24.4836735h1.8044944c.2657303.8571428 1.0691011 1.4877551 2.0207865 1.4877551 1.1617978 0 2.1134831-.9367347 2.1134831-2.0938776 0-1.1571428-.9455056-2.0938775-2.1134831-2.0938775-.9516854 0-1.7550562.6244898-2.0207865 1.4877551h-1.8044944c-.5932584 0-1.0691011-.477551-1.0691011-1.0591837v-3.3979592c0-.3367347-.2719101-.6061224-.6117978-.6061224-.3398876 0-.6117977.2693877-.6117977.6061224v3.3979592c0 1.2489796 1.0258427 2.2714286 2.2926966 2.2714286zm3.8252809-1.4877551c.4882022 0 .8898876.3918367.8898876.8816326s-.3955056.8816327-.8898876.8816327-.8898876-.3918368-.8898876-.8816327.3955056-.8816326.8898876-.8816326z"/></g></g></g></svg>