<svg id="Layer_1" data-name="Layer 1" xmlns="http://www.w3.org/2000/svg" viewBox="0 0 376 128"><defs><style>.cls-1{fill:#0f3659;}.cls-2{fill:#9e7bff;}</style></defs><title>ibm-ccr</title><g id="g12"><path id="path14" d="M131.83,62.16V60.3h2.48V45.48h-2.48V43.62h7.08v1.86h-2.48V60.3h2.48v1.86Z"/></g><g id="g18"><g id="g24"><path id="path26" d="M144.9,60.2h5.24a2.64,2.64,0,0,0,2.93-2.87v-.9a2.64,2.64,0,0,0-2.93-2.87H144.9Zm0-8.56h4.88a2.4,2.4,0,0,0,2.68-2.57v-.9a2.41,2.41,0,0,0-2.68-2.58H144.9Zm-2.12-8H150a4.43,4.43,0,0,1,4.71,4.78c0,2.77-1.7,3.75-2.86,3.94v.15a4,4,0,0,1,3.46,4.31c0,3.05-1.94,5.36-4.55,5.36h-8Z"/></g><g id="g28"><path id="path30" d="M159.29,43.62h2.83l5,10h.13l5.08-10h2.73V62.16H173V46.54h-.13l-1.49,3.11-4.22,8.08L163,49.65l-1.5-3.11h-.12V62.16h-2.07Z"/></g><g id="g32"><path id="path34" d="M184.74,53c0-6.25,3-9.73,7.61-9.73a6.43,6.43,0,0,1,6.45,4.28l-2.86,1.59a3.52,3.52,0,0,0-3.59-2.76c-2.48,0-4.07,1.89-4.07,5.05v2.92c0,3.19,1.59,5,4.07,5a4,4,0,0,0,3.82-2.94l2.7,1.67a6.77,6.77,0,0,1-6.52,4.38c-4.65,0-7.61-3.21-7.61-9.45"/></g><g id="g36"><path id="path38" d="M204.76,62.16c-2.2,0-3.23-1.22-3.23-3.34V42.51h3.23V59.45h1.75v2.71Z"/></g><g id="g40"><path id="path42" d="M217,56.51V53.93c0-2.07-1.06-3.21-2.76-3.21s-2.73,1.14-2.73,3.21v2.58c0,2.09,1.06,3.24,2.73,3.24S217,58.6,217,56.51m-8.88-1.31c0-4.43,2.35-7.22,6.12-7.22s6.15,2.79,6.15,7.22-2.36,7.28-6.15,7.28-6.12-2.81-6.12-7.28"/></g><g id="g44"><path id="path46" d="M231.08,59.85H231a3.59,3.59,0,0,1-3.69,2.63c-2.7,0-4.22-2-4.22-5.42V48.3h3.24v8.42c0,1.91.68,3,2.22,3a2.32,2.32,0,0,0,2.58-2.21V48.3h3.24V62.16h-3.24Z"/></g><g id="g48"><path id="path50" d="M246.25,57.41V53c0-1.36-1.19-2.23-2.73-2.23s-2.81,1.3-2.81,3.27v2.39c0,2,1.14,3.24,2.81,3.24s2.73-.83,2.73-2.26m0,2.44h-.13a3.72,3.72,0,0,1-3.64,2.63c-3.31,0-5.16-2.63-5.16-7.28S239.17,48,242.48,48a3.65,3.65,0,0,1,3.64,2.6h.13V42.51h3.23V62.16h-3.23Z"/></g><g id="g52"><path id="path54" d="M131.63,79.87c0-6.24,3-9.72,7.61-9.72a6.43,6.43,0,0,1,6.45,4.28L142.83,76a3.52,3.52,0,0,0-3.59-2.76c-2.48,0-4.07,1.88-4.07,5v2.93c0,3.18,1.59,5,4.07,5a4,4,0,0,0,3.82-3l2.7,1.67a6.76,6.76,0,0,1-6.52,4.39c-4.65,0-7.61-3.22-7.61-9.46"/></g><g id="g56"><path id="path58" d="M156.4,83.35V80.77c0-2.07-1.06-3.21-2.75-3.21s-2.73,1.14-2.73,3.21v2.58c0,2.1,1.06,3.24,2.73,3.24s2.75-1.14,2.75-3.24m-8.87-1.3c0-4.44,2.35-7.23,6.12-7.23s6.14,2.79,6.14,7.23-2.35,7.28-6.14,7.28-6.12-2.82-6.12-7.28"/></g><g id="g60"><path id="path62" d="M162.65,89V75.14h3.23v2.31H166a3.66,3.66,0,0,1,3.69-2.63c2.71,0,4.22,2,4.22,5.42V89h-3.23V80.59c0-2-.63-3-2.18-3a2.36,2.36,0,0,0-2.63,2.23V89Z"/></g><g id="g64"><path id="path66" d="M178.22,85.48V77.85h-1.95V75.14h1c1,0,1.27-.48,1.27-1.43V71.34h2.91v3.8h2.7v2.71h-2.7V86.3H184V89h-2.33c-2.22,0-3.41-1.28-3.41-3.53"/></g><g id="g68"><path id="path70" d="M193.92,84.86V83h-2.07c-1.7,0-2.53.61-2.53,1.7v.45c0,1.12.73,1.68,2,1.68,1.44,0,2.6-.69,2.6-2m-7.89.38c0-2.85,2.05-4.25,5.64-4.25h2.25V80a2.17,2.17,0,0,0-2.45-2.45,3.4,3.4,0,0,0-3,1.76l-1.92-1.81a5.48,5.48,0,0,1,5.15-2.66c3.57,0,5.47,1.78,5.47,4.94V86.3h1.31V89h-1.79a2.46,2.46,0,0,1-2.46-2.39h-.15a3.58,3.58,0,0,1-3.84,2.71,3.83,3.83,0,0,1-4.2-4.09"/></g><path id="path72" d="M201.1,75.14h3.23V89H201.1Zm-.28-3.72v-.53c0-1,.56-1.7,1.9-1.7s1.89.72,1.89,1.7v.53c0,1-.58,1.7-1.89,1.7s-1.9-.71-1.9-1.7"/><g id="g74"><path id="path76" d="M208.07,89V75.14h3.24v2.31h.13a3.66,3.66,0,0,1,3.69-2.63c2.7,0,4.22,2,4.22,5.42V89h-3.24V80.59c0-2-.63-3-2.17-3a2.36,2.36,0,0,0-2.63,2.23V89Z"/></g><g id="g78"><path id="path80" d="M225.42,80.61v.22h5.41v-.24c0-1.91-.94-3.22-2.61-3.22s-2.8,1.33-2.8,3.24m-3.37,1.44c0-4.38,2.25-7.23,6.12-7.23,4.12,0,6,3.19,6,7v1.11h-8.77v.35a3,3,0,0,0,3.21,3.35A4,4,0,0,0,232,84.73l1.74,2a6.41,6.41,0,0,1-5.46,2.55c-3.89,0-6.22-2.85-6.22-7.28"/></g><g id="g82"><path id="path84" d="M237,89V75.14h3.24V78h.13a3.43,3.43,0,0,1,3.49-2.87h.7v3.22h-1c-2.17,0-3.31.63-3.31,2.15V89Z"/></g><g id="g86"><path id="path88" d="M260.78,78.91a1.9,1.9,0,0,0,2.08-2.09V75.59a1.89,1.89,0,0,0-2.08-2.07h-4.3v5.39ZM256.48,89h-3.33V70.47h8c3.21,0,5.21,2.23,5.21,5.73,0,2.55-1.11,4.49-3.29,5.26L266.65,89h-3.72l-3.29-7.15h-3.16Z"/></g><g id="g90"><path id="path92" d="M271.83,80.61v.22h5.41v-.24c0-1.91-.94-3.22-2.61-3.22s-2.8,1.33-2.8,3.24m-3.36,1.44c0-4.38,2.25-7.23,6.11-7.23,4.13,0,6,3.19,6,7v1.11h-8.77v.35A3,3,0,0,0,275,86.62a4,4,0,0,0,3.36-1.89l1.75,2a6.43,6.43,0,0,1-5.46,2.55c-3.9,0-6.22-2.85-6.22-7.28"/></g><g id="g94"><path id="path96" d="M290.81,79.74v-.45c0-1.41-.83-2.13-2.37-2.13s-2.38.72-2.38,2.13v.45c0,1.38.83,2.12,2.38,2.12s2.37-.74,2.37-2.12m-.73,9.43h-4.5a1.72,1.72,0,0,0-.68,1.43c0,1.06.76,1.7,2.78,1.7h1.62c2.09,0,3-.56,3-1.73,0-.87-.61-1.4-2.25-1.4m-1.64,5.47c-4.45,0-6.15-1.22-6.15-3.27a2.5,2.5,0,0,1,2.35-2.65v-.3A2.26,2.26,0,0,1,283,86.11c0-1.43,1.16-2.15,2.43-2.44v-.11a4.2,4.2,0,0,1-2.4-4c0-2.82,1.89-4.71,5.46-4.71a7,7,0,0,1,2.3.35v-.45c0-1.36.65-2,1.87-2h2.05v2.6h-2.81v.37a4.21,4.21,0,0,1,2,3.86c0,2.78-1.87,4.64-5.46,4.64a7.8,7.8,0,0,1-2-.24,1.42,1.42,0,0,0-.93,1.25c0,.69.56,1,1.72,1h3.54c3.23,0,4.62,1.46,4.62,4,0,2.89-1.87,4.46-6.92,4.46"/></g><path id="path98" d="M297.23,75.14h3.24V89h-3.24ZM297,71.42v-.53c0-1,.55-1.7,1.89-1.7s1.9.72,1.9,1.7v.53c0,1-.58,1.7-1.9,1.7s-1.89-.71-1.89-1.7"/><g id="g100"><path id="path102" d="M303.07,86.78l2-2a4.55,4.55,0,0,0,3.61,1.88c1.54,0,2.2-.61,2.2-1.59,0-.8-.46-1.3-1.62-1.46l-1.31-.19c-2.83-.37-4.4-1.67-4.4-4.19,0-2.69,2-4.39,5-4.39A6.15,6.15,0,0,1,313.69,77l-1.89,2a4.29,4.29,0,0,0-3.17-1.48c-1.39,0-2,.58-2,1.43s.48,1.36,1.72,1.57l1.34.18c2.88.43,4.27,1.78,4.27,4.09,0,2.69-2.15,4.55-5.44,4.55a6.59,6.59,0,0,1-5.46-2.55"/></g><g id="g104"><path id="path106" d="M317.33,85.48V77.85h-1.95V75.14h1c1,0,1.26-.48,1.26-1.43V71.34h2.91v3.8h2.7v2.71h-2.7V86.3h2.5V89h-2.33c-2.22,0-3.41-1.28-3.41-3.53"/></g><g id="g108"><path id="path110" d="M326.08,89V75.14h3.23V78h.13a3.43,3.43,0,0,1,3.49-2.87h.71v3.22h-1c-2.18,0-3.32.63-3.32,2.15V89Z"/></g><g id="g112"><path id="path114" d="M344.3,75.14h3L342,91.48c-.66,2-1.59,2.84-3.77,2.84h-1.95V91.61h2.38l.61-1.94-4.73-14.53h3.21l2.3,7.33.86,3.51h.15l.91-3.51Z"/></g><g id="g116"><path id="path118" class="cls-1" d="M54,104.56a4.43,4.43,0,0,1-1.73-3.8L52.34,60a9.82,9.82,0,0,1,5.89-8.52l38.09-14.4a4.4,4.4,0,0,1,4.16.27l9.24,6.4a4.4,4.4,0,0,0-4.15-.28L67.48,57.91a9.85,9.85,0,0,0-5.9,8.53l0,40.72A4.43,4.43,0,0,0,63.25,111Z"/></g><g id="g120"><path id="path122" class="cls-2" d="M78.54,53.73V65.56a9.87,9.87,0,0,1-5.9,8.53L61.56,78.27l0,17.59L89.06,85.45A9.83,9.83,0,0,0,95,76.93l0-29.42Z"/></g><g id="g124"><path id="path126" class="cls-1" d="M93.29,32.42a4.42,4.42,0,0,0-4.16-.28L51,46.55a9.83,9.83,0,0,0-5.89,8.52l-.06,40.72a4.41,4.41,0,0,0,1.73,3.79L30.39,88.21a4.41,4.41,0,0,1-1.73-3.79l.05-40.72a9.87,9.87,0,0,1,5.9-8.53L72.7,20.77a4.42,4.42,0,0,1,4.16.28Z"/></g><g id="g128"><path id="path130" class="cls-2" d="M45.09,95.79A4.07,4.07,0,0,0,51,99.86l1.31-.5,0-17.59-7.2,2.72Z"/></g><g id="g132"><path id="path134" class="cls-2" d="M93.29,32.42h0l-.51-.29a3.81,3.81,0,0,0-1.12-.32l-.15,0-.28,0h-.49l-.27,0-.24,0-.35.07-.19.05-.56.18-10.56,4v7.69L95,37.61v-1.4a4.38,4.38,0,0,0-1.72-3.79"/></g><g id="g136"><path id="path138" class="cls-2" d="M109.72,43.79l0,0a3.9,3.9,0,0,0-2.37-.62l-.39,0-.17,0-.25.05a6.92,6.92,0,0,0-.93.27l-3.37,1.27,0,37.13a9.84,9.84,0,0,1-5.9,8.52L61.53,103.56v3.6A4.43,4.43,0,0,0,63.25,111h0a4.42,4.42,0,0,0,4.16.28L105.5,96.82a9.82,9.82,0,0,0,5.89-8.52l.06-40.72a4.41,4.41,0,0,0-1.73-3.79"/></g></g></svg>