<svg height="56" viewBox="0 0 56 56" width="56" xmlns="http://www.w3.org/2000/svg"><g fill="none" fill-rule="evenodd"><circle cx="28" cy="28" fill="#e9f0ff" r="28"/><g transform="translate(13 15)"><path d="m9.50441871 28.0068132h9.97849459v.9809725h-9.97849459z" fill="#99b9ff"/><path d="m22.9753865 8.38736289c0-4.61052294-3.7916332-8.33826638-8.4317793-8.38736289-4.68984376 0-8.48172042 3.72774344-8.5316616 8.28916988 0 1.37350517.34934472 2.74677092.99784946 3.97298652l7.48387094 13.243129 7.483871-13.243129c.6487483-1.1771191.9978495-2.50152775.9978495-3.87479351z" fill="#345394"/><path d="m20.4807628 8.38736289c0 3.25066891-2.6805024 5.88583511-5.9870968 5.88583511s-5.98709675-2.6351662-5.98709675-5.88583511c0-3.25066892 2.68050235-5.88583509 5.98709675-5.88583509s5.9870968 2.63516617 5.9870968 5.88583509z" fill="#fff"/><g fill="#99b9ff"><g transform="translate(16.963441 7.357294)"><path d="m11.5001176 3.48250032h-.9978494v-1.96194504c0-.29433964-.1995212-.49048625-.4989248-.49048625h-2.49462361v-.98097252h2.49462361c.8482695 0 1.4967742.63753637 1.4967742 1.47145877z"/><path d="m10.5022682 15.2541705h-3.49247314c-.84802592 0-1.4967742-.6377758-1.4967742-1.4714588v-1.4714587c0-.2943397-.19952118-.4904863-.49892473-.4904863h-1.49677419v-.9809725h1.49677419c.84826946 0 1.4967742.6375364 1.4967742 1.4714588v1.4714587c0 .2943397.19976472.4904863.49892473.4904863h3.49247314z"/><path d="m10.5022682 10.3493079h-.99784949v-2.45243126c0-.29433964-.19952118-.49048626-.49892473-.49048626h-2.49462365v-.98097252h2.49462365c.84826946 0 1.49677422.63753637 1.49677422 1.47145878z"/><path d="m9.00549398 19.1780606h-7.48387096c-.84802592 0-1.4967742-.6377758-1.4967742-1.4714588v-.9809725h.99784946v.9809725c0 .2943396.19976473.4904863.49892474.4904863h7.48387096z"/></g><path d="m27.465709 26.0448682c0 .5417383-.4465474.9809725-.9978494.9809725-.5510585 0-.9978495-.4392342-.9978495-.9809725 0-.5417382.446791-.9809725.9978495-.9809725.551302 0 .9978494.4392343.9978494.9809725z"/><path d="m28.9624832 22.1209781c0 .5417383-.4465474.9809725-.9978494.9809725-.5510585 0-.9978495-.4392342-.9978495-.9809725 0-.5417382.446791-.9809725.9978495-.9809725.551302 0 .9978494.4392343.9978494.9809725z"/><path d="m27.9646338 18.1970881c0 .5417382-.4465475.9809725-.9978495.9809725-.5510585 0-.9978495-.4392343-.9978495-.9809725 0-.5417383.446791-.9809726.9978495-.9809726.551302 0 .9978495.4392343.9978495.9809726z"/><path d="m26.9667843 5.9349316h-2.4946237v-.98097251h2.4946237c.2994036 0 .4989247-.19614662.4989247-.49048626v-2.94291755h.9978495v2.94291755c0 .83368299-.6485047 1.47145877-1.4967742 1.47145877z"/><path d="m28.9624832 1.03006903c0 .54173827-.4465474.98097251-.9978494.98097251-.5510585 0-.9978495-.43923424-.9978495-.98097251 0-.54173821.446791-.98097252.9978495-.98097252.551302 0 .9978494.43923431.9978494.98097252z"/><path d="m28.9624832 11.3302804c0 .5417383-.4465474.9809726-.9978494.9809726-.5510585 0-.9978495-.4392343-.9978495-.9809726 0-.5417382.446791-.9809725.9978495-.9809725.551302 0 .9978494.4392343.9978494.9809725z"/><path d="m1.52162302 10.3493079h-.99784947v-1.96194501c0-.8339224.64874828-1.47145877 1.4967742-1.47145877h2.49462365v.98097252h-2.49462365c-.29916001 0-.49892473.19614662-.49892473.49048625z"/><path d="m5.01409613 22.6114644h-3.49247311v-.9809725h3.49247311c.29940355 0 .49892473-.1961467.49892473-.4904863v-1.4714588c0-.8339224.64874828-1.4714587 1.4967742-1.4714587h1.49677419v.9809725h-1.49677419c-.29916001 0-.49892473.1961466-.49892473.4904862v1.4714588c0 .833683-.64850474 1.4714588-1.4967742 1.4714588z"/><path d="m2.51947248 17.7066018h-.99784946v-2.9429176c0-.8339224.64874827-1.4714587 1.49677419-1.4714587h2.49462365v.9809725h-2.49462365c-.29916001 0-.49892473.1961466-.49892473.4904862z"/><path d="m10.5022682 26.5353544h-7.48387099v-.9809725h7.48387099c.2994035 0 .4989247-.1961466.4989247-.4904862v-.9809726h.9978495v.9809726c0 .833683-.6485048 1.4714587-1.4967742 1.4714587z"/><path d="m3.51732194 26.0448682c0 .5417383-.44654743.9809725-.99784946.9809725-.5510585 0-.99784946-.4392342-.99784946-.9809725 0-.5417382.44679096-.9809725.99784946-.9809725.55130203 0 .99784946.4392343.99784946.9809725z"/><path d="m2.02054775 22.1209781c0 .5417383-.44654743.9809725-.99784947.9809725-.55105849 0-.99784946-.4392342-.99784946-.9809725 0-.5417382.44679097-.9809725.99784946-.9809725.55130204 0 .99784947.4392343.99784947.9809725z"/><path d="m3.01839721 18.1970881c0 .5417382-.44654743.9809725-.99784946.9809725-.5510585 0-.99784947-.4392343-.99784947-.9809725 0-.5417383.44679097-.9809726.99784947-.9809726.55130203 0 .99784946.4392343.99784946.9809726z"/><path d="m4.5151714 5.9349316h-2.49462365c-.84802592 0-1.4967742-.63777578-1.4967742-1.47145877v-2.94291755h.99784947v2.94291755c0 .29433964.19976472.49048626.49892473.49048626h2.49462365z"/><path d="m2.02054775 1.03006903c0 .54173827-.44654743.98097251-.99784947.98097251-.55105849 0-.99784946-.43923424-.99784946-.98097251 0-.54173821.44679097-.98097252.99784946-.98097252.55130204 0 .99784947.43923431.99784947.98097252z"/><path d="m2.02054775 10.8397942c0 .5417383-.44654743.9809725-.99784947.9809725-.55105849 0-.99784946-.4392342-.99784946-.9809725 0-.5417382.44679097-.98097253.99784946-.98097253.55130204 0 .99784947.43923433.99784947.98097253z"/></g></g></g></svg>