<svg height="128" viewBox="0 0 376 128" width="376" xmlns="http://www.w3.org/2000/svg" xmlns:xlink="http://www.w3.org/1999/xlink"><linearGradient id="a"><stop offset=".18" stop-color="#0052cc"/><stop offset="1" stop-color="#2684ff"/></linearGradient><linearGradient id="b" x1="91.866612%" x2="28.263522%" xlink:href="#a" y1="40.327696%" y2="81.65962%"/><linearGradient id="c" x1="8.709809%" x2="72.242572%" xlink:href="#a" y1="59.166447%" y2="17.989976%"/><g fill="none" transform="translate(45 49)"><g fill="#253858"><path d="m52.5816438 4.26315789h3.810822v19.04210531c0 5.0447368-2.2422261 8.5263157-7.4965411 8.5263157-1.5538153.0231472-3.1000819-.2172047-4.5710617-.7105263v-3.6473684c1.2547648.4789182 2.5901884.7199933 3.9359247.7105263 3.2189897 0 4.3304794-1.8947368 4.3304794-4.6278947z"/><path d="m63.3356678 2.79947368c.6877049-.04844641 1.3628931.19945666 1.8504174.67940184.4875242.47994519.739342 1.14463698.6901306 1.8216508 0 1.38129322-1.1374421 2.50105263-2.540548 2.50105263s-2.5405479-1.11975941-2.5405479-2.50105263c-.0492115-.67701382.2026063-1.34170561.6901306-1.8216508.4875242-.47994518 1.1627124-.72784825 1.8504173-.67940184zm-1.8621062 8.00526312h3.6424144v20.8421053h-3.6424144z"/><path d="m70.6156849 10.8h3.5558048v3.6663158c1.2269692-2.4584211 3.3681507-4.2110526 7.4965411-3.96v3.5005263c-4.6576712-.4736842-7.4965411.9189474-7.4965411 5.3336842v12.3157895h-3.5558048z"/><path d="m98.7301199 27.8905263c-1.3568836 2.7521053-3.8974315 4.1684211-7.1549144 4.1684211-5.6296233 0-8.4684932-4.7084211-8.4684932-10.8378948 0-5.878421 2.9639726-10.8378947 8.8919178-10.8378947 3.0890754 0 5.4612158 1.3736842 6.7363014 4.0831579v-3.6663158h3.6424145v20.8421053h-3.6424145zm-6.1829624.8336842c3.2622946 0 6.1829624-2.0415789 6.1829624-6.6694737v-1.6863157c0-4.6278948-2.6656507-6.6694737-5.7739726-6.6694737-4.1091439 0-6.2262672 2.6668421-6.2262672 7.5031579.0192466 5.0210526 2.0497603 7.5221052 5.8220891 7.5221052z"/><path d="m123.923887 32.0589474c-5.379418 0-7.876661-1.0421053-10.037089-2.1268421v-3.8321053c2.583853 1.3357895 6.563082 2.2926316 10.24399 2.2926316 4.190941 0 5.773972-1.6247369 5.773972-4.0452632s-1.525291-3.7089473-6.818099-4.9594737c-6.255137-1.5015789-9.060325-3.628421-9.060325-8.128421 0-4.26315791 3.300787-7.41789475 9.782072-7.41789475 4.022534 0 6.606387.94736842 8.511797 1.99894737v3.75157894c-2.648817-1.43688835-5.637504-2.15609891-8.660958-2.08421052-3.642415 0-5.802843 1.25052631-5.802843 3.75157896 0 2.25 1.780308 3.3773684 6.688185 4.5852631 5.88464 1.4589474 9.19024 3.3157895 9.19024 8.251579-.02887 4.7510526-2.906233 7.9626316-9.810942 7.9626316z"/><path d="m136.924949 21.1784211c0-6.2526316 3.724212-10.7952632 10.075582-10.7952632s9.993784 4.5426316 9.993784 10.7952632c0 6.2526315-3.685719 10.8947368-9.993784 10.8947368s-10.075582-4.6421053-10.075582-10.8947368zm3.555804 0c0 3.96 1.992021 7.5457894 6.519778 7.5457894s6.437979-3.5857894 6.437979-7.5457894-1.948715-7.441579-6.437979-7.441579-6.500531 3.481579-6.500531 7.441579z"/><path d="m166.266353 10.8h5.461215v3.3157895h-5.461215v17.5263158h-3.555805v-17.5263158h-3.445137v-3.3157895h3.430702v-2.27368421c0-3.87473684 2.203733-6.50368421 6.736301-6.50368421.829811-.00455444 1.656062.10708961 2.453939.33157895v3.31578947c-.753354-.14103347-1.518681-.2108248-2.285531-.20842105-2.242226 0-3.368151 1.29315789-3.368151 3.16894737z"/><path d="m184.050188 28.1415789c.769886-.0226141 1.535543-.1209988 2.285531-.2936842v3.4578948c-.797822.2247418-1.624111.3363908-2.453938.3315789-4.532569 0-6.736302-2.6242105-6.736302-6.5036842v-10.9989474h-3.445137v-3.3157894h3.430703v-4.43842108h3.555804v4.41947368h5.629624v3.3157895h-5.629624v10.9421052c.019247 1.8331579 1.121113 3.0836842 3.363339 3.0836842z"/><path d="m187.355788 10.8h4.022534l6.096353 17.6731579 6.17815-17.6731579h3.474007l6.182963 17.6731579 6.101164-17.6731579h4.022534l-7.790051 20.8421053h-4.657671l-3.642415-10.0847369-1.924657-6.418421-1.924658 6.418421-3.690531 10.0847369h-4.657671z"/><path d="m240.067346 27.8905263c-1.356884 2.7521053-3.897432 4.1684211-7.154914 4.1684211-5.629624 0-8.468494-4.7084211-8.468494-10.8378948 0-5.878421 2.963973-10.8378947 8.891918-10.8378947 3.089076 0 5.461216 1.3736842 6.736302 4.0831579v-3.6663158h3.642414v20.8421053h-3.642414zm-6.182962.8336842c3.262294 0 6.182962-2.0415789 6.182962-6.6694737v-1.6863157c0-4.6278948-2.665651-6.6694737-5.773973-6.6694737-4.089897.0378947-6.221455 2.6857894-6.221455 7.5221052 0 5.0021053 2.044948 7.5031579 5.817277 7.5031579z"/><path d="m249.214281 10.8h3.555805v3.6663158c1.226969-2.4584211 3.36815-4.2110526 7.496541-3.96v3.5005263c-4.657672-.4736842-7.496541.9189474-7.496541 5.3336842v12.3157895h-3.555805z"/><path d="m273.094469 32.0589474c-7.919966 0-11.389161-4.5-11.389161-10.8947369 0-6.2952631 3.555805-10.7952631 9.993784-10.7952631 6.519778 0 9.142124 4.4621052 9.142124 10.7952631v1.6247369h-15.450189c.510035 3.5431579 2.83887 5.8357894 7.833357 5.8357894 2.196475-.0019706 4.375545-.3835521 6.437979-1.1273684v3.3157895c-1.737003.9236842-4.407466 1.2457895-6.567894 1.2457895zm-7.746746-12.3157895h11.802962c-.211712-3.8747368-1.992021-6.0868421-5.629623-6.0868421-3.844504-.0189474-5.79322 2.4489474-6.173339 6.0631579z"/></g><path d="m34.8363014 16.9389474-15.6859589-15.44210529-1.5204795-1.49684211-11.80777396 11.6242105-5.39866438 5.3147369c-.5628726.5548122-.5628726 1.4536088 0 2.008421l10.78770544 10.62 6.4187329 6.3189474 11.807774-11.6242105.1828425-.18 5.2158219-5.1347369c.5628726-.5548122.5628726-1.4536088 0-2.008421zm-17.2064384 6.3094737-5.3890411-5.3052632 5.3890411-5.3052632 5.3890411 5.3052632z" fill="#2684ff"/><path d="m17.629863 12.6378947c-3.5283408-3.47389956-3.5455366-9.10052558-.0384931-12.59526312l-11.79333908 11.60526312 6.41873288 6.3189474z" fill="url(#b)"/><path d="m23.033339 17.9289474-5.403476 5.3194737c1.7030154 1.6755432 2.6598447 3.9486661 2.6598447 6.3189473s-.9568293 4.6434041-2.6598447 6.3189474l11.8222089-11.6384211z" fill="url(#c)"/></g></svg>