<?xml version="1.0" encoding="UTF-8"?>
<svg width="120px" height="120px" viewBox="0 0 120 120" version="1.1" xmlns="http://www.w3.org/2000/svg" xmlns:xlink="http://www.w3.org/1999/xlink">
    <!-- Generator: Sketch 48.1 (47250) - http://www.bohemiancoding.com/sketch -->
    <title>Artboard 2 Copy@2x</title>
    <desc>Created with Sketch.</desc>
    <defs>
        <linearGradient x1="91.8666124%" y1="40.3276956%" x2="28.2635218%" y2="81.6596195%" id="linearGradient-1">
            <stop stop-color="#0052CC" offset="18%"></stop>
            <stop stop-color="#2684FF" offset="100%"></stop>
        </linearGradient>
        <linearGradient x1="3878%" y1="2561.06905%" x2="5439%" y2="1905.36835%" id="linearGradient-2">
            <stop stop-color="#0052CC" offset="18%"></stop>
            <stop stop-color="#2684FF" offset="100%"></stop>
        </linearGradient>
    </defs>
    <g id="Page-1" stroke="none" stroke-width="1" fill="none" fill-rule="evenodd">
        <g id="Artboard-2-Copy" fill-rule="nonzero">
            <g id="Jira-Software-blue" transform="translate(0.000000, 13.000000)">
                <g id="Group-13" transform="translate(0.000000, 76.644660)" fill="#253858">
                    <path d="M4.21463415,1.20510471 L6.14634146,1.20510471 L6.14634146,10.8941466 C6.14634146,13.4610196 5.0097561,15.2325236 2.34634146,15.2325236 C1.55871182,15.2443013 0.774908611,15.122005 0.0292682927,14.8709921 L0.0292682927,13.0151309 C0.66530914,13.258815 1.34223594,13.3814793 2.02439024,13.3766623 C3.65609756,13.3766623 4.2195122,12.4125785 4.2195122,11.0218877 L4.21463415,1.20510471 Z" id="Shape"></path>
                    <path d="M9.66585366,0.46035 C10.0144516,0.435699398 10.3567048,0.561837932 10.603831,0.806044596 C10.8509573,1.05025126 10.9786038,1.38846106 10.9536585,1.73294058 C10.9536585,2.43577294 10.3770887,3.00553115 9.66585366,3.00553115 C8.95461866,3.00553115 8.37804878,2.43577294 8.37804878,1.73294058 C8.35310347,1.38846106 8.48075004,1.05025126 8.72787629,0.806044596 C8.97500253,0.561837932 9.31725576,0.435699398 9.66585366,0.46035 Z M8.72195122,4.53360393 L10.5682927,4.53360393 L10.5682927,15.1385254 L8.72195122,15.1385254 L8.72195122,4.53360393 Z" id="Shape"></path>
                    <path d="M13.3560976,4.53119372 L15.1585366,4.53119372 L15.1585366,6.39669581 C15.7804878,5.14579712 16.8658537,4.25401963 18.9585366,4.38176073 L18.9585366,6.1629055 C16.597561,5.92188455 15.1585366,6.63048613 15.1585366,8.87680131 L15.1585366,15.1433458 L13.3560976,15.1433458 L13.3560976,4.53119372 Z" id="Shape"></path>
                    <path d="M27.6073171,13.2272293 C26.9195122,14.627561 25.6317073,15.3482136 23.9804878,15.3482136 C21.1268293,15.3482136 19.6878049,12.9524654 19.6878049,9.83365445 C19.6878049,6.84258455 21.1902439,4.31909529 24.195122,4.31909529 C25.7609756,4.31909529 26.9634146,5.01805602 27.6097561,6.39669581 L27.6097561,4.53119372 L29.4560976,4.53119372 L29.4560976,15.1361152 L27.6097561,15.1361152 L27.6073171,13.2272293 Z M24.4731707,13.6514262 C26.1268293,13.6514262 27.6073171,12.6126259 27.6073171,10.2578513 L27.6073171,9.39981675 C27.6073171,7.04504215 26.2560976,6.00624188 24.6804878,6.00624188 C22.597561,6.00624188 21.5243902,7.36318979 21.5243902,9.82401361 C21.5341463,12.3788356 22.5634146,13.6514262 24.4756098,13.6514262 L24.4731707,13.6514262 Z" id="Shape"></path>
                    <path d="M40.3780488,15.3482136 C37.6512195,15.3482136 36.3853659,14.8179675 35.2902439,14.2660296 L35.2902439,12.3161702 C36.6,12.9958492 38.6170732,13.4827115 40.4829268,13.4827115 C42.6073171,13.4827115 43.4097561,12.6560097 43.4097561,11.4243927 C43.4097561,10.1927757 42.6365854,9.53719869 39.9536585,8.9009034 C36.7829268,8.13686702 35.3609756,7.05468298 35.3609756,4.76498403 C35.3609756,2.59579555 37.0341463,0.990596073 40.3195122,0.990596073 C42.3585366,0.990596073 43.6682927,1.47263796 44.6341463,2.00770445 L44.6341463,3.91659031 C43.2914594,3.18546992 41.7764926,2.81951977 40.2439024,2.85609817 C38.397561,2.85609817 37.302439,3.49239346 37.302439,4.76498403 C37.302439,5.90983351 38.204878,6.48346335 40.6926829,7.09806675 C43.6756098,7.84041126 45.3512195,8.78521335 45.3512195,11.2966516 C45.3365854,13.7140916 43.8780488,15.3482136 40.3780488,15.3482136 Z" id="Shape"></path>
                    <path d="M46.9682927,9.81196257 C46.9682927,6.63048613 48.8560976,4.31909529 52.0756098,4.31909529 C55.295122,4.31909529 57.1414634,6.63048613 57.1414634,9.81196257 C57.1414634,12.993439 55.2731707,15.3554442 52.0756098,15.3554442 C48.8780488,15.3554442 46.9682927,12.993439 46.9682927,9.81196257 Z M48.7707317,9.81196257 C48.7707317,11.8268976 49.7804878,13.6514262 52.0756098,13.6514262 C54.3707317,13.6514262 55.3390244,11.8268976 55.3390244,9.81196257 C55.3390244,7.79702749 54.3512195,6.02552356 52.0756098,6.02552356 C49.8,6.02552356 48.7804878,7.79702749 48.7804878,9.81196257 L48.7707317,9.81196257 Z" id="Shape"></path>
                    <path d="M61.8414634,4.53119372 L64.6097561,4.53119372 L64.6097561,6.21834031 L61.8414634,6.21834031 L61.8414634,15.1361152 L60.0390244,15.1361152 L60.0390244,6.21834031 L58.2926829,6.21834031 L58.2926829,4.53119372 L60.0317073,4.53119372 L60.0317073,3.37429319 C60.0317073,1.40274188 61.1487805,0.0650756533 63.4463415,0.0650756533 C63.8669727,0.0627582546 64.2857999,0.1195652 64.6902439,0.233790313 L64.6902439,1.92093691 C64.3083686,1.84917598 63.9204241,1.81366462 63.5317073,1.8148877 C62.395122,1.8148877 61.8243902,2.47287487 61.8243902,3.4273178 L61.8414634,4.53119372 Z" id="Shape"></path>
                    <path d="M70.8560976,13.3549704 C71.2463531,13.3434638 71.6344647,13.2934036 72.0146341,13.2055374 L72.0146341,14.9649903 C71.6102176,15.0793439 71.1913716,15.1361534 70.7707317,15.133705 C68.4731707,15.133705 67.3560976,13.798449 67.3560976,11.8244874 L67.3560976,6.22798115 L65.6097561,6.22798115 L65.6097561,4.54083455 L67.3487805,4.54083455 L67.3487805,2.28246832 L69.1512195,2.28246832 L69.1512195,4.53119372 L72.004878,4.53119372 L72.004878,6.21834031 L69.1512195,6.21834031 L69.1512195,11.7859241 C69.1609756,12.7186751 69.7195122,13.3549704 70.8560976,13.3549704 Z" id="Shape"></path>
                    <polygon id="Shape" points="72.5317073 4.53119372 74.5707317 4.53119372 77.6609756 13.5236851 80.7926829 4.53119372 82.5536585 4.53119372 85.6878049 13.5236851 88.7804878 4.53119372 90.8195122 4.53119372 86.8707317 15.1361152 84.5097561 15.1361152 82.6634146 10.0047793 81.6878049 6.73894555 80.7121951 10.0047793 78.8414634 15.1361152 76.4804878 15.1361152"></polygon>
                    <path d="M99.2512195,13.2272293 C98.5634146,14.627561 97.2756098,15.3482136 95.6243902,15.3482136 C92.7707317,15.3482136 91.3317073,12.9524654 91.3317073,9.83365445 C91.3317073,6.84258455 92.8341463,4.31909529 95.8390244,4.31909529 C97.404878,4.31909529 98.6073171,5.01805602 99.2536585,6.39669581 L99.2536585,4.53119372 L101.1,4.53119372 L101.1,15.1361152 L99.2536585,15.1361152 L99.2512195,13.2272293 Z M96.1170732,13.6514262 C97.7707317,13.6514262 99.2512195,12.6126259 99.2512195,10.2578513 L99.2512195,9.39981675 C99.2512195,7.04504215 97.9,6.00624188 96.3243902,6.00624188 C94.2512195,6.02552356 93.1707317,7.37283063 93.1707317,9.83365445 C93.1707317,12.3788356 94.2073171,13.6514262 96.1195122,13.6514262 L96.1170732,13.6514262 Z" id="Shape"></path>
                    <path d="M103.887805,4.53119372 L105.690244,4.53119372 L105.690244,6.39669581 C106.312195,5.14579712 107.397561,4.25401963 109.490244,4.38176073 L109.490244,6.1629055 C107.129268,5.92188455 105.690244,6.63048613 105.690244,8.87680131 L105.690244,15.1433458 L103.887805,15.1433458 L103.887805,4.53119372 Z" id="Shape"></path>
                    <path d="M115.992683,15.3482136 C111.978049,15.3482136 110.219512,13.0585147 110.219512,9.80473194 C110.219512,6.60156361 112.021951,4.31186466 115.285366,4.31186466 C118.590244,4.31186466 119.919512,6.58228194 119.919512,9.80473194 L119.919512,10.6314338 L112.087805,10.6314338 C112.346341,12.4342704 113.526829,13.6008118 116.058537,13.6008118 C117.171931,13.5998091 118.276502,13.405652 119.321951,13.0271819 L119.321951,14.7143285 C118.441463,15.1843194 117.087805,15.3482136 115.992683,15.3482136 Z M112.065854,9.08166911 L118.04878,9.08166911 C117.941463,7.1101178 117.039024,5.98455 115.195122,5.98455 C113.246341,5.97490916 112.258537,7.23062827 112.065854,9.06961806 L112.065854,9.08166911 Z" id="Shape"></path>
                </g>
                <g id="Group-11" transform="translate(30.731707, 0.000000)">
                    <path d="M60.1344759,29.2589276 L33.05735,2.58552045 L30.4326961,0 L10.0500989,20.0786936 L0.730916282,29.2589276 C-0.240715244,30.217264 -0.240715244,31.7697705 0.730916282,32.7281069 L19.3526697,51.0722108 L30.4326961,61.9870345 L50.8152933,41.9083409 L51.1309163,41.5974239 L60.1344759,32.7281069 C61.1061075,31.7697705 61.1061075,30.217264 60.1344759,29.2589276 Z M30.4326961,40.1573872 L21.1301252,30.9935172 L30.4326961,21.8296473 L39.735267,30.9935172 L30.4326961,40.1573872 Z" id="Shape" fill="#2684FF"></path>
                    <path d="M30.4326961,21.8296473 C24.342069,15.8291223 24.3123854,6.11015695 30.3662492,0.0736382393 L10.0085695,20.1196037 L21.0885959,31.0344274 L30.4326961,21.8296473 Z" id="Shape" fill="url(#linearGradient-1)"></path>
                    <path d="M39.7601846,30.9689712 L30.4326961,40.1573872 C33.3724438,43.0515812 35.024124,46.9779845 35.024124,51.0722108 C35.024124,55.1664372 33.3724438,59.0928405 30.4326961,61.9870345 L50.8402109,41.8837948 L39.7601846,30.9689712 Z" id="Shape" fill="url(#linearGradient-2)"></path>
                </g>
            </g>
        </g>
    </g>
</svg>