<?xml version="1.0" encoding="UTF-8"?>
<svg width="120px" height="120px" viewBox="0 0 120 120" version="1.1" xmlns="http://www.w3.org/2000/svg" xmlns:xlink="http://www.w3.org/1999/xlink">
    <!-- Generator: Sketch 48.1 (47250) - http://www.bohemiancoding.com/sketch -->
    <title>Artboard 2 Copy 6@2x</title>
    <desc>Created with Sketch.</desc>
    <defs></defs>
    <g id="Page-1" stroke="none" stroke-width="1" fill="none" fill-rule="evenodd">
        <g id="Artboard-2-Copy-6" fill-rule="nonzero">
            <g id="Group-20" transform="translate(24.000000, 9.000000)">
                <path d="M64.6206781,15.2611765 C64.2157737,13.9623529 63.2440029,12.9070588 62.0292895,12.2576471 L37.3301164,0.405882353 C36.6822692,0.0811764706 35.9534412,0 35.305594,0 C34.6577469,0 33.9289188,0 33.2810716,0.162352941 L8.58189856,12.0952941 C7.36718497,12.6635294 6.47639512,13.7188235 6.15247154,15.0988235 L0.0789044163,41.8058824 C-0.16403827,43.1858824 0.159885312,44.5658824 0.969694233,45.7023529 L18.0566633,66.8894118 C19.0284341,67.8635294 20.4051093,68.5129412 21.7817845,68.5941176 L48.9913653,68.5941176 C50.4490215,68.7564706 51.8256967,68.1070588 52.7164865,66.8894118 L69.8034554,45.7023529 C70.6132644,44.5658824 70.937188,43.1858824 70.7752262,41.8058824 L64.6206781,15.2611765 Z" id="path10349" fill="#326DE6"></path>
                <path d="M60.8145761,40.7505882 C60.7335952,40.7505882 60.6526143,40.7505882 60.6526143,40.6694118 C60.6526143,40.5882353 60.4906525,40.5882353 60.3286907,40.5882353 C60.0047671,40.5070588 59.6808435,40.5070588 59.3569199,40.5070588 C59.1949582,40.5070588 59.0329964,40.5070588 58.8710346,40.4258824 L58.7900537,40.4258824 C57.8992638,40.3447059 56.9274931,40.1823529 56.0367032,39.9388235 C55.7937605,39.8576471 55.5508179,39.6141176 55.469837,39.3705882 C55.5508179,39.3705882 55.469837,39.3705882 55.469837,39.3705882 L54.8219898,39.2082353 C55.1459134,36.8541176 54.9839516,34.4188235 54.4980662,32.0647059 C53.9312,29.7105882 52.9594292,27.4376471 51.6637349,25.4082353 L52.1496203,24.9211765 L52.1496203,24.84 C52.1496203,24.5964706 52.2306012,24.2717647 52.3925629,24.1094118 C53.121391,23.46 53.8502191,22.9729412 54.660028,22.4858824 C54.8219898,22.4047059 54.9839516,22.3235294 55.1459134,22.2423529 C55.469837,22.08 55.7127797,21.9176471 56.0367032,21.7552941 C56.1176841,21.6741176 56.198665,21.6741176 56.2796459,21.5929412 C56.3606268,21.5117647 56.2796459,21.5117647 56.2796459,21.4305882 C57.008474,20.8623529 57.1704358,19.8882353 56.6035695,19.1576471 C56.3606268,18.8329412 55.8747414,18.5894118 55.469837,18.5894118 C55.0649325,18.5894118 54.660028,18.7517647 54.3361044,18.9952941 L54.2551235,19.0764706 C54.1741426,19.1576471 54.0931617,19.2388235 54.0121808,19.2388235 C53.7692382,19.4823529 53.5262955,19.7258824 53.3643337,19.9694118 C53.2833528,20.1317647 53.121391,20.2129412 53.0404101,20.2941176 C52.4735438,20.9435294 51.7447158,21.5929412 51.0158877,22.08 C50.8539259,22.1611765 50.6919641,22.2423529 50.5300023,22.2423529 C50.4490215,22.2423529 50.2870597,22.2423529 50.2060788,22.1611765 L50.1250979,22.1611765 L49.4772507,22.5670588 C48.8294035,21.9176471 48.1005755,21.2682353 47.4527283,20.6188235 C44.4564352,18.2647059 40.731314,16.8035294 36.9252119,16.3976471 L36.844231,15.7482353 L36.844231,15.8294118 C36.6012883,15.6670588 36.5203075,15.4235294 36.4393266,15.18 C36.4393266,14.2870588 36.4393266,13.3941176 36.6012883,12.42 L36.6012883,12.3388235 C36.6012883,12.1764706 36.6822692,12.0141176 36.6822692,11.8517647 C36.7632501,11.5270588 36.7632501,11.2023529 36.844231,10.8776471 L36.844231,10.3905882 C36.9252119,9.57882353 36.2773648,8.76705882 35.4675558,8.68588235 C34.9816704,8.60470588 34.4957851,8.84823529 34.0908806,9.25411765 C33.766957,9.57882353 33.6049952,9.98470588 33.6049952,10.3905882 L33.6049952,10.7964706 C33.6049952,11.1211765 33.6859761,11.4458824 33.766957,11.7705882 C33.8479379,11.9329412 33.8479379,12.0952941 33.8479379,12.2576471 L33.8479379,12.3388235 C34.0098997,13.2317647 34.0098997,14.1247059 34.0098997,15.0988235 C33.9289188,15.3423529 33.8479379,15.5858824 33.6049952,15.7482353 L33.6049952,15.9105882 L33.5240143,16.56 C32.6332245,16.6411765 31.7424346,16.8035294 30.7706639,16.9658824 C26.9645618,17.7776471 23.4823833,19.8070588 20.8100138,22.6482353 L20.3241284,22.3235294 L20.2431475,22.3235294 C20.1621666,22.3235294 20.0811857,22.4047059 19.9192239,22.4047059 C19.7572621,22.4047059 19.5953003,22.3235294 19.4333385,22.2423529 C18.7045105,21.6741176 17.9756824,21.0247059 17.4088162,20.3752941 C17.3278353,20.2129412 17.1658735,20.1317647 17.0848926,20.0505882 C16.8419499,19.8070588 16.6799881,19.5635294 16.4370454,19.32 C16.3560645,19.2388235 16.2750836,19.2388235 16.1941027,19.1576471 C16.1131218,19.0764706 16.1131218,19.0764706 16.1131218,19.0764706 C15.7891982,18.8329412 15.3842938,18.6705882 14.9793893,18.6705882 C14.4935039,18.6705882 14.0885994,18.8329412 13.8456568,19.2388235 C13.3597714,19.9694118 13.5217332,20.9435294 14.1695803,21.5117647 C14.2505612,21.5117647 14.2505612,21.5929412 14.2505612,21.5929412 C14.2505612,21.5929412 14.412523,21.7552941 14.4935039,21.7552941 C14.7364466,21.9176471 15.0603702,22.08 15.3842938,22.2423529 C15.5462556,22.3235294 15.7082173,22.4047059 15.8701791,22.4858824 C16.6799881,22.9729412 17.489797,23.46 18.1376442,24.1094118 C18.299606,24.2717647 18.4615678,24.5964706 18.3805869,24.84 L18.3805869,24.7588235 L18.8664723,25.2458824 C18.7854914,25.4082353 18.7045105,25.4894118 18.6235296,25.6517647 C16.1131218,29.6294118 15.0603702,34.3376471 15.7891982,38.9647059 L15.1413511,39.1270588 C15.1413511,39.2082353 15.0603702,39.2082353 15.0603702,39.2082353 C14.9793893,39.4517647 14.7364466,39.6141176 14.4935039,39.7764706 C13.6027141,40.02 12.7119242,40.1823529 11.7401535,40.2635294 C11.5781917,40.2635294 11.4162299,40.2635294 11.2542681,40.3447059 C10.9303445,40.3447059 10.6064209,40.4258824 10.2824974,40.4258824 C10.2015165,40.4258824 10.1205356,40.5070588 9.95857378,40.5070588 C9.87759288,40.5070588 9.87759288,40.5070588 9.79661199,40.5882353 C8.90582214,40.7505882 8.33895587,41.5623529 8.50091766,42.4552941 C8.50091766,42.4552941 8.50091766,42.4552941 8.50091766,42.4552941 C8.66287945,43.1858824 9.39170751,43.6729412 10.1205356,43.5917647 C10.2824974,43.5917647 10.3634783,43.5917647 10.52544,43.5105882 C10.6064209,43.5105882 10.6064209,43.5105882 10.6064209,43.4294118 C10.6064209,43.3482353 10.8493636,43.4294118 10.9303445,43.4294118 C11.2542681,43.3482353 11.5781917,43.1858824 11.8211344,43.1047059 C11.9830962,43.0235294 12.145058,42.9423529 12.3070197,42.9423529 L12.3880006,42.9423529 C13.2787905,42.6176471 14.0885994,42.3741176 15.0603702,42.2117647 L15.1413511,42.2117647 C15.3842938,42.2117647 15.6272365,42.2929412 15.7891982,42.4552941 C15.8701791,42.4552941 15.8701791,42.5364706 15.8701791,42.5364706 L16.5990072,42.4552941 C17.8137206,46.1894118 20.0811857,49.5176471 23.2394406,51.9529412 C23.9682687,52.5211765 24.6161158,53.0082353 25.4259248,53.4141176 L25.0210203,53.9823529 C25.0210203,54.0635294 25.1020012,54.0635294 25.1020012,54.0635294 C25.263963,54.3070588 25.263963,54.6317647 25.1829821,54.8752941 C24.8590585,55.6870588 24.3731732,56.4988235 23.8872878,57.2294118 L23.8872878,57.3105882 C23.8063069,57.4729412 23.725326,57.5541176 23.5633642,57.7164706 C23.4014024,57.8788235 23.2394406,58.2035294 22.9964979,58.5282353 C22.915517,58.6094118 22.915517,58.6905882 22.8345361,58.7717647 C22.8345361,58.7717647 22.8345361,58.8529412 22.7535552,58.8529412 C22.3486508,59.6647059 22.6725743,60.6388235 23.4014024,61.0447059 C23.5633642,61.1258824 23.8063069,61.2070588 23.9682687,61.2070588 C24.6161158,61.2070588 25.1829821,60.8011765 25.5069057,60.2329412 C25.5069057,60.2329412 25.5069057,60.1517647 25.5878866,60.1517647 C25.5878866,60.0705882 25.6688675,59.9894118 25.7498484,59.9082353 C25.8308293,59.5835294 25.9927911,59.34 26.073772,59.0152941 L26.2357337,58.5282353 C26.4786764,57.6352941 26.8835809,56.8235294 27.2884854,56.0117647 C27.4504472,55.7682353 27.6933899,55.6058824 27.9363325,55.5247059 C28.0173134,55.5247059 28.0173134,55.5247059 28.0173134,55.4435294 L28.341237,54.7941176 C30.6087021,55.6870588 32.9571481,56.0929412 35.3865749,56.0929412 C36.844231,56.0929412 38.3018872,55.9305882 39.7595433,55.5247059 C40.6503331,55.3623529 41.541123,55.0376471 42.3509319,54.7941176 L42.6748555,55.3623529 C42.7558364,55.3623529 42.7558364,55.3623529 42.7558364,55.4435294 C42.9987791,55.5247059 43.2417218,55.6870588 43.4036836,55.9305882 C43.808588,56.7423529 44.2134925,57.5541176 44.4564352,58.4470588 L44.4564352,58.5282353 L44.618397,59.0152941 C44.6993779,59.34 44.7803588,59.6647059 44.9423206,59.9082353 C45.0233015,59.9894118 45.0233015,60.0705882 45.1042824,60.1517647 C45.1042824,60.1517647 45.1042824,60.2329412 45.1852633,60.2329412 C45.5091868,60.8011765 46.0760531,61.2070588 46.7239003,61.2070588 C46.966843,61.2070588 47.1288047,61.1258824 47.3717474,61.0447059 C47.695671,60.8823529 48.0195946,60.5576471 48.1005755,60.1517647 C48.1815564,59.7458824 48.1815564,59.34 48.0195946,58.9341176 C48.0195946,58.8529412 47.9386137,58.8529412 47.9386137,58.8529412 C47.9386137,58.7717647 47.8576328,58.6905882 47.7766519,58.6094118 C47.6146901,58.2847059 47.4527283,58.0411765 47.2097856,57.7976471 C47.1288047,57.6352941 47.0478238,57.5541176 46.8858621,57.3917647 L46.8858621,57.2294118 C46.3189958,56.4988235 45.9140913,55.6870588 45.5901677,54.8752941 C45.5091868,54.6317647 45.5091868,54.3070588 45.6711486,54.0635294 C45.6711486,53.9823529 45.7521295,53.9823529 45.7521295,53.9823529 L45.5091868,53.3329412 C49.6392125,50.8164706 52.7974674,46.92 54.2551235,42.2929412 L54.9029707,42.3741176 C54.9839516,42.3741176 54.9839516,42.2929412 54.9839516,42.2929412 C55.1459134,42.1305882 55.3888561,42.0494118 55.6317988,42.0494118 L55.7127797,42.0494118 C56.6035695,42.2117647 57.4943593,42.4552941 58.3041683,42.78 L58.3851492,42.78 C58.547111,42.8611765 58.7090728,42.9423529 58.8710346,42.9423529 C59.1949582,43.1047059 59.4379008,43.2670588 59.7618244,43.3482353 C59.8428053,43.3482353 59.9237862,43.4294118 60.085748,43.4294118 C60.1667289,43.4294118 60.1667289,43.4294118 60.2477098,43.5105882 C60.4096716,43.5917647 60.4906525,43.5917647 60.6526143,43.5917647 C61.3814423,43.5917647 62.0292895,43.1047059 62.2722322,42.4552941 C62.1912513,41.5623529 61.5434041,40.9129412 60.8145761,40.7505882 Z M37.4110973,38.2341176 L35.2246131,39.2894118 L33.038129,38.2341176 L32.4712627,35.88 L34.0098997,33.9317647 L36.4393266,33.9317647 L37.9779636,35.88 L37.4110973,38.2341176 Z M50.6109832,32.9576471 C51.0158877,34.6623529 51.0968686,36.3670588 50.9349068,38.0717647 L43.2417218,35.88 C42.5128937,35.7176471 42.1079892,34.9870588 42.269951,34.2564706 C42.3509319,34.0129412 42.4319128,33.8505882 42.5938746,33.6882353 L48.6674418,28.1682353 C49.5582316,29.6294118 50.2060788,31.2529412 50.6109832,32.9576471 Z M46.2380149,25.1647059 L39.5975815,29.8729412 C39.0307152,30.1976471 38.2209063,30.1164706 37.8160018,29.5482353 C37.65404,29.3858824 37.5730591,29.2235294 37.5730591,28.98 L37.0871737,20.7811765 C40.6503331,21.1870588 43.808588,22.7294118 46.2380149,25.1647059 Z M31.5804728,21.0247059 L33.2000907,20.7 L32.7951863,28.8176471 C32.7951863,29.5482353 32.1473391,30.1164706 31.418511,30.1164706 C31.1755684,30.1164706 31.0136066,30.0352941 30.7706639,29.9541176 L24.0492496,25.1647059 C26.1547528,23.1352941 28.7461415,21.6741176 31.5804728,21.0247059 Z M21.7008036,28.1682353 L27.6933899,33.5258824 C28.2602561,34.0129412 28.341237,34.8247059 27.8553517,35.3929412 C27.6933899,35.6364706 27.5314281,35.7176471 27.2075045,35.7988235 L19.3523576,38.0717647 C19.109415,34.6623529 19.9192239,31.1717647 21.7008036,28.1682353 Z M20.3241284,41.8870588 L28.341237,40.5070588 C28.9890842,40.5070588 29.6369313,40.9129412 29.7179122,41.5623529 C29.7988931,41.8058824 29.7988931,42.1305882 29.6369313,42.3741176 L26.5596573,49.8423529 C23.725326,47.9752941 21.4578609,45.1341176 20.3241284,41.8870588 Z M38.7067916,51.9529412 C37.5730591,52.1964706 36.4393266,52.3588235 35.2246131,52.3588235 C33.5240143,52.3588235 31.7424346,52.0341176 30.1228167,51.5470588 L34.0908806,44.3223529 C34.4957851,43.8352941 35.1436322,43.6729412 35.7104985,43.9976471 C35.9534412,44.16 36.115403,44.3223529 36.3583457,44.5658824 L40.2454286,51.6282353 C39.7595433,51.7094118 39.2736579,51.7905882 38.7067916,51.9529412 Z M48.5864609,44.8905882 C47.3717474,46.8388235 45.6711486,48.5435294 43.7276071,49.7611765 L40.5693522,42.1305882 C40.4073904,41.4811765 40.731314,40.8317647 41.2981803,40.5882353 C41.541123,40.5070588 41.7840657,40.4258824 42.0270083,40.4258824 L50.1250979,41.8058824 C49.7201934,42.9423529 49.234308,43.9976471 48.5864609,44.8905882 Z" id="path10351" fill="#FFFFFF"></path>
            </g>
            <g id="Kubernetes_logo" transform="translate(1.000000, 89.000000)" fill="#000000">
                <path d="M112.984735,15 C113.410206,15.03 113.866069,14.97 114.26115,14.82 C114.504276,14.7 114.656231,14.43 114.62584,14.16 C114.595449,13.86 114.413104,13.59 114.139586,13.5 C113.683724,13.23 113.16708,12.99 112.650436,12.84 C112.133792,12.66 111.677929,12.45 111.252457,12.24 C110.857377,12.06 110.523078,11.82 110.188778,11.52 C109.88487,11.22 109.672134,10.89 109.52018,10.5 C109.337835,10.05 109.277053,9.57 109.277053,9.09 C109.246663,8.1 109.702525,7.14 110.492687,6.54 C111.313239,5.91 112.407309,5.61 113.805287,5.61 C114.473886,5.61 115.172875,5.67 115.841473,5.82 C116.358117,5.91 116.874761,6.03 117.391405,6.21 L116.81398,8.76 C116.388508,8.61 115.993427,8.52 115.567955,8.4 C115.081702,8.28 114.565058,8.25 114.078805,8.25 C113.045517,8.25 112.528872,8.52 112.528872,9.09 C112.528872,9.21 112.559263,9.33 112.589654,9.45 C112.650436,9.57 112.741608,9.66 112.863172,9.75 C112.984735,9.84 113.16708,9.93 113.379816,10.05 C113.592551,10.17 113.89646,10.29 114.26115,10.41 C114.868966,10.62 115.476783,10.89 116.023818,11.19 C116.44929,11.4 116.81398,11.67 117.117888,12.03 C117.391405,12.3 117.57375,12.63 117.695314,13.02 C117.816877,13.44 117.877659,13.86 117.877659,14.28 C117.93844,15.3 117.452187,16.29 116.570853,16.86 C115.71991,17.43 114.504276,17.73 112.923953,17.73 C112.042619,17.76 111.191676,17.67 110.340733,17.46 C109.854479,17.34 109.398617,17.19 108.942754,17.04 L109.489789,14.4 C110.036824,14.61 110.61425,14.79 111.191676,14.91 C111.799492,14.94 112.376918,15 112.984735,15 M96.2393868,11.7 C96.208996,10.8 96.391341,9.9 96.6952493,9.06 C96.9687668,8.34 97.3942384,7.71 97.9412734,7.14 C98.4579175,6.63 99.0353433,6.24 99.7039416,6 C100.37254,5.73 101.071529,5.61 101.770518,5.61 C103.411623,5.61 104.718429,6.12 105.660545,7.11 C106.60266,8.1 107.088914,9.57 107.088914,11.49 C107.088914,11.67 107.088914,11.88 107.058523,12.12 C107.058523,12.36 107.028132,12.54 107.028132,12.72 L99.6127691,12.72 C99.6735508,13.35 100.00785,13.95 100.554885,14.31 C101.223483,14.73 102.013645,14.94 102.803806,14.91 C103.381232,14.91 103.989049,14.85 104.566475,14.76 C105.052728,14.67 105.538981,14.52 105.994844,14.31 L106.450706,16.95 C106.23797,17.07 105.994844,17.13 105.751717,17.22 C105.417418,17.31 105.083119,17.4 104.74882,17.43 C104.38413,17.49 104.01944,17.55 103.593968,17.61 C103.198887,17.64 102.773416,17.67 102.347944,17.67 C101.405828,17.7 100.494103,17.55 99.6127691,17.22 C98.8833891,16.95 98.2451817,16.53 97.6981467,15.99 C97.1815026,15.45 96.8168126,14.79 96.573686,14.1 C96.3609502,13.29 96.2393868,12.48 96.2393868,11.7 M103.928267,10.47 C103.928267,10.2 103.867485,9.93 103.776313,9.66 C103.715531,9.39 103.563577,9.18 103.411623,8.97 C103.229278,8.76 103.016542,8.58 102.773416,8.46 C102.469507,8.31 102.165599,8.25 101.8313,8.25 C101.497001,8.25 101.193092,8.31 100.889184,8.46 C100.646057,8.58 100.402931,8.73 100.220586,8.94 C100.038241,9.15 99.8862866,9.39 99.7951141,9.66 C99.7039416,9.93 99.6431599,10.2 99.6127691,10.47 L103.928267,10.47 M87.3348733,3.03 L90.617083,2.52 L90.617083,5.88 L94.5678911,5.88 L94.5678911,8.58 L90.617083,8.58 L90.617083,12.6 C90.5866922,13.17 90.7082555,13.74 90.981773,14.22 C91.2248997,14.61 91.711153,14.82 92.4709238,14.82 C92.8356137,14.82 93.2003037,14.79 93.5346028,14.73 C93.8992928,14.67 94.233592,14.58 94.5678911,14.46 L95.0237536,16.98 C94.5982819,17.16 94.1424195,17.28 93.686557,17.4 C93.1091312,17.52 92.5013146,17.58 91.893498,17.58 C91.1337272,17.61 90.3739564,17.49 89.6749673,17.22 C89.1279323,17.01 88.641679,16.65 88.276989,16.23 C87.9122991,15.78 87.6691724,15.24 87.5172183,14.67 C87.3652641,14.01 87.3044824,13.32 87.3348733,12.66 L87.3348733,3.03 M74.05408,11.7 C74.0236892,10.8 74.2060342,9.9 74.5099425,9.06 C74.78346,8.34 75.2089316,7.71 75.7559666,7.14 C76.2726107,6.63 76.8500365,6.24 77.5186348,6 C78.1872331,5.73 78.8862222,5.61 79.5852113,5.61 C81.2263162,5.61 82.5331219,6.12 83.4752377,7.11 C84.4173535,8.1 84.9036068,9.57 84.9036068,11.49 C84.9036068,11.67 84.9036068,11.88 84.8732159,12.12 C84.8428251,12.36 84.8428251,12.54 84.8428251,12.72 L77.3970715,12.72 C77.4578531,13.35 77.7921523,13.95 78.3391872,14.31 C79.0077855,14.73 79.7979471,14.94 80.5881087,14.91 C81.1655345,14.91 81.7733512,14.85 82.3507769,14.76 C82.8370302,14.67 83.3232835,14.52 83.8095368,14.31 L84.2653993,16.95 C84.0526635,17.07 83.8095368,17.13 83.5664102,17.22 C83.2321111,17.31 82.8978119,17.4 82.5635128,17.43 C82.1988228,17.49 81.8341328,17.55 81.4086612,17.61 C81.0135804,17.64 80.5881087,17.67 80.1626371,17.67 C79.2205213,17.7 78.3087964,17.55 77.4274623,17.22 C76.6980823,16.95 76.0598749,16.53 75.5128399,15.99 C74.9961958,15.45 74.6315058,14.79 74.3883792,14.1 C74.1452525,13.29 74.0236892,12.48 74.05408,11.7 M81.7429603,10.47 C81.7429603,10.2 81.6821787,9.93 81.5910062,9.66 C81.5302245,9.39 81.3782703,9.18 81.2263162,8.97 C81.0439712,8.76 80.8312354,8.58 80.5881087,8.46 C80.2842004,8.31 79.9802921,8.25 79.645993,8.25 C79.3116938,8.25 79.0077855,8.31 78.7038772,8.46 C78.4607506,8.58 78.2480147,8.73 78.0656697,8.94 C77.8833248,9.15 77.7313706,9.39 77.6401981,9.66 C77.5490256,9.93 77.488244,10.2 77.4578531,10.47 L81.7429603,10.47 M61.5938392,6.27 C62.2928283,6.09 63.0222083,5.94 63.7515882,5.82 C64.6633132,5.67 65.6054289,5.61 66.5171539,5.61 C67.3377063,5.58 68.1582588,5.73 68.9484204,6 C69.556237,6.21 70.103272,6.57 70.4983528,7.05 C70.8934336,7.53 71.1669511,8.1 71.3189052,8.7 C71.5012502,9.39 71.5620319,10.11 71.5620319,10.83 L71.5620319,17.28 L68.3102129,17.28 L68.3102129,11.25 C68.3102129,10.2 68.1582588,9.48 67.8847413,9.03 C67.6112238,8.61 67.0945797,8.37 66.3348089,8.37 C66.0916822,8.37 65.8485556,8.37 65.5750381,8.4 C65.3015206,8.4 65.0887848,8.43 64.876049,8.46 L64.876049,17.28 L61.5938392,17.28 L61.5938392,6.27 M59.284136,8.76 C58.9802277,8.7 58.6459286,8.61 58.2508478,8.55 C57.8253761,8.46 57.3999045,8.43 56.9744329,8.43 C56.7313062,8.43 56.4881796,8.46 56.2146621,8.49 C56.0019263,8.52 55.7891904,8.55 55.5764546,8.61 L55.5764546,17.34 L52.2942449,17.34 L52.2942449,6.48 C52.9628431,6.24 53.6618323,6.06 54.3608214,5.91 C55.2421555,5.7 56.1538804,5.61 57.0352145,5.64 C57.2479503,5.64 57.4606862,5.67 57.673422,5.67 C57.9165486,5.67 58.1596753,5.7 58.4331928,5.76 C58.6763194,5.79 58.9194461,5.82 59.1929635,5.88 C59.4056994,5.91 59.6184352,5.97 59.831171,6.06 L59.284136,8.76 M38.8918883,11.7 C38.8614974,10.8 39.0438424,9.9 39.3477507,9.06 C39.6212682,8.34 40.0467399,7.71 40.5937748,7.14 C41.110419,6.63 41.6878447,6.24 42.356443,6 C43.0250413,5.73 43.7240304,5.61 44.4230196,5.61 C46.0641244,5.61 47.3709302,6.12 48.313046,7.11 C49.2551617,8.1 49.741415,9.57 49.741415,11.46 C49.741415,11.64 49.741415,11.85 49.7110242,12.09 C49.6806334,12.33 49.6806334,12.51 49.6806334,12.69 L42.2348797,12.69 C42.2956614,13.32 42.6299605,13.92 43.1769955,14.28 C43.8455938,14.7 44.6357554,14.91 45.425917,14.88 C46.0033428,14.88 46.6111594,14.82 47.1885852,14.73 C47.6748385,14.64 48.1610918,14.49 48.6169543,14.31 L49.0728167,16.95 C48.8600809,17.07 48.6169543,17.13 48.3738276,17.22 C48.0395285,17.31 47.7052293,17.4 47.3709302,17.43 C47.0062402,17.49 46.6415502,17.55 46.2160786,17.61 C45.8209978,17.64 45.3955262,17.67 44.9700545,17.67 C44.0279388,17.7 43.1162138,17.55 42.2348797,17.22 C41.5054998,16.95 40.8672923,16.53 40.3202573,15.99 C39.8036132,15.45 39.4389232,14.79 39.1957966,14.1 C39.0134516,13.29 38.8918883,12.51 38.8918883,11.7 M46.6111594,10.47 C46.6111594,10.2 46.5503777,9.93 46.4592053,9.66 C46.3984236,9.39 46.2464694,9.18 46.0945153,8.97 C45.9121703,8.76 45.6994345,8.58 45.4563078,8.46 C45.1523995,8.31 44.8484912,8.25 44.5141921,8.25 C44.1798929,8.25 43.8759846,8.31 43.5720763,8.46 C43.3289496,8.58 43.085823,8.73 42.903478,8.94 C42.721133,9.15 42.5691789,9.39 42.4780064,9.66 C42.3868339,9.93 42.3260522,10.2 42.2956614,10.47 L46.6111594,10.47 M33.5734928,11.52 C33.5734928,9.42 32.7833312,8.4 31.2333988,8.4 C30.8990997,8.4 30.5648005,8.43 30.2305014,8.52 C29.9569839,8.58 29.6834664,8.7 29.4403398,8.85 L29.4403398,14.73 C29.5922939,14.76 29.8050297,14.79 30.0481564,14.82 C30.291283,14.85 30.5648005,14.85 30.8687088,14.85 C31.6588704,14.91 32.4186412,14.58 32.9048945,13.95 C33.360757,13.23 33.6038836,12.39 33.5734928,11.52 M36.9164842,11.64 C36.9164842,12.48 36.7949209,13.32 36.4910126,14.13 C36.247886,14.85 35.8528052,15.48 35.336161,16.02 C34.7891261,16.56 34.1509186,16.98 33.4519295,17.25 C32.631377,17.55 31.7804338,17.67 30.8990997,17.67 C30.5040189,17.67 30.0785472,17.64 29.6530756,17.61 C29.2276039,17.58 28.8021323,17.52 28.3766607,17.49 C27.9815799,17.43 27.5864991,17.37 27.1914182,17.28 C26.7963374,17.22 26.4620383,17.13 26.1885208,17.01 L26.1885208,0.96 L29.4707306,0.45 L29.4707306,6.15 C29.8354206,6 30.2305014,5.88 30.6255822,5.79 C31.0510538,5.7 31.4765255,5.67 31.9019971,5.67 C32.6617679,5.67 33.3911478,5.79 34.0901369,6.12 C34.6979536,6.39 35.2449885,6.81 35.6704602,7.32 C36.1263226,7.89 36.4606218,8.52 36.6429668,9.21 C36.8253118,9.96 36.9164842,10.8 36.9164842,11.64 M23.0582652,16.92 C22.3592761,17.1 21.6298961,17.25 20.9005162,17.34 C19.9887912,17.49 19.0466755,17.55 18.1349505,17.55 C17.2840073,17.58 16.4634548,17.43 15.6732932,17.16 C15.0654766,16.92 14.5488325,16.56 14.1233608,16.08 C13.72828,15.57 13.4547625,15 13.3028084,14.37 C13.1204634,13.68 13.0596817,12.93 13.0596817,12.21 L13.0596817,5.88 L16.3418915,5.88 L16.3418915,11.85 C16.3418915,12.9 16.4938457,13.65 16.7673631,14.1 C17.0408806,14.55 17.5575247,14.79 18.3172955,14.79 C18.5604222,14.79 18.8035488,14.79 19.0770663,14.76 C19.3505838,14.73 19.5633196,14.73 19.7760554,14.67 L19.7760554,5.88 L23.0582652,5.88 L23.0582652,16.92 M3.91204152,10.02 C4.24634066,9.66 4.55024897,9.3 4.91493895,8.94 C5.24923809,8.55 5.58353724,8.19 5.91783638,7.83 C6.25213552,7.44 6.55604383,7.11 6.82956132,6.78 C7.1030788,6.45 7.37659628,6.15 7.5893321,5.91 L11.4793585,5.91 C10.6891969,6.78 9.9294261,7.65 9.20004615,8.46 C8.44027537,9.27 7.65011376,10.11 6.76877965,10.95 C7.25503295,11.4 7.71089542,11.85 8.13636706,12.36 C8.59222953,12.9 9.048092,13.44 9.50395447,14.04 C9.9294261,14.61 10.3548977,15.21 10.7195877,15.78 C11.0842777,16.35 11.388186,16.89 11.6313127,17.37 L7.86284958,17.37 C7.61972293,16.98 7.34620545,16.59 7.04229713,16.14 C6.73838882,15.69 6.40408968,15.24 6.10018137,14.76 C5.76588222,14.31 5.40119225,13.86 5.00611144,13.44 C4.6718123,13.05 4.30712232,12.69 3.91204152,12.39 L3.91204152,17.4 L0.629831743,17.4 L0.629831743,0.96 L3.91204152,0.45 L3.91204152,10.02" id="path3003"></path>
            </g>
        </g>
    </g>
</svg>