<?xml version="1.0" encoding="UTF-8"?>
<svg width="25px" height="25px" viewBox="0 0 25 25" version="1.1" xmlns="http://www.w3.org/2000/svg" xmlns:xlink="http://www.w3.org/1999/xlink">
    <!-- Generator: Sketch 59 (86127) - https://sketch.com -->
    <title>kube</title>
    <desc>Created with Sketch.</desc>
    <g id="kube" stroke="none" stroke-width="1" fill="none" fill-rule="evenodd">
        <g transform="translate(0.000000, 0.500000)" fill="#9CA3CC" fill-rule="nonzero" id="Shape">
            <path d="M12.448481,0.758165654 C12.6724896,0.758165654 12.8964983,0.805551007 13.1045063,0.900321714 L21.2008192,4.7069451 C21.6168352,4.91228164 21.9368476,5.29136447 22.0328513,5.73362776 L24.0329285,14.3103767 C24.1449329,14.7684351 24.0329285,15.2422887 23.7289168,15.6055764 L18.1287004,22.4764526 C17.8406893,22.8397404 17.392672,23.0450769 16.928654,23.0450769 L7.95230725,23.0450769 C7.48828932,23.0450769 7.04027201,22.8397404 6.75226088,22.4764526 L1.15204451,15.6055764 C0.864033383,15.2422887 0.752029056,14.7684351 0.848032765,14.3103767 L2.84811004,5.73362776 C2.96011437,5.27556935 3.26412611,4.89648652 3.68014219,4.7069451 L11.776455,0.884526596 C11.984463,0.805551007 12.2244723,0.758165654 12.448481,0.758165654 L12.448481,0.758165654 Z M12.448481,0.0157951168 L12.448481,0.0157951168 C12.112468,0.0157951168 11.776455,0.0947707059 11.4564426,0.236926766 L3.36012983,4.05934527 C2.7201051,4.35945251 2.27208778,4.91228164 2.1120816,5.5914717 L0.112004327,14.1682206 C-0.0480018546,14.8474107 0.112004327,15.5423959 0.560021637,16.0952251 L6.16023801,22.9661013 C6.5922547,23.5031353 7.24828005,23.8032426 7.93630663,23.8032426 L16.9126535,23.8032426 C17.60068,23.8032426 18.2567053,23.5031353 18.6887221,22.9661013 L24.2889385,16.0952251 C24.7369558,15.558191 24.896962,14.8474107 24.7369558,14.1682206 L22.7368785,5.5914717 C22.5768723,4.91228164 22.128855,4.35945251 21.4888303,4.05934527 L13.4245187,0.236926766 C13.1205069,0.0947707059 12.7844939,0.0157951168 12.448481,0.0157951168 L12.448481,0.0157951168 L12.448481,0.0157951168 Z"></path>
            <path d="M20.5607944,13.6311867 L20.5607944,13.6311867 L20.5607944,13.6311867 C20.5447938,13.6311867 20.5447938,13.6311867 20.5607944,13.6311867 L20.5447938,13.6311867 C20.5287931,13.6311867 20.5127925,13.6311867 20.5127925,13.6153915 C20.4807913,13.6153915 20.4487901,13.5995964 20.4167888,13.5995964 C20.3047845,13.5838013 20.2087808,13.5680062 20.1127771,13.5680062 C20.0647752,13.5680062 20.0167734,13.5680062 19.9527709,13.5522111 L19.9367703,13.5522111 C19.6007573,13.5206209 19.3287468,13.4890306 19.0727369,13.410055 C18.9607326,13.3626697 18.9287313,13.2994891 18.8967301,13.2363087 C18.8967301,13.2205136 18.8807295,13.2205136 18.8807295,13.2047185 L18.8807295,13.2047185 L18.6727215,13.1415381 C18.7687252,12.4149626 18.7367239,11.6567969 18.5607171,10.9144264 C18.3847104,10.1720559 18.0806986,9.47707068 17.6646825,8.84526597 L17.8246886,8.70310991 L17.8246886,8.67151967 C17.8246886,8.59254408 17.8406893,8.5135685 17.9046918,8.4345929 C18.0966992,8.26084661 18.3367085,8.11869055 18.6247196,7.94494425 L18.6247196,7.94494425 C18.6727215,7.91335402 18.7207233,7.8975589 18.7687252,7.86596867 C18.8647288,7.81858331 18.944732,7.77119796 19.0407356,7.70801749 C19.0567363,7.69222237 19.0887375,7.67642725 19.1207388,7.64483701 C19.1367394,7.6290419 19.15274,7.6290419 19.15274,7.61324678 L19.15274,7.61324678 C19.3767487,7.42370537 19.4247505,7.10780301 19.2647444,6.90246648 C19.1847412,6.79190065 19.0407356,6.72872019 18.8967301,6.72872019 C18.7687252,6.72872019 18.6567209,6.77610553 18.5447165,6.85508113 L18.5447165,6.85508113 L18.5447165,6.85508113 C18.5287159,6.87087625 18.5287159,6.87087625 18.5127153,6.88667136 C18.480714,6.90246648 18.4647134,6.93405672 18.4327121,6.94985183 C18.3527091,7.02882742 18.2887066,7.0920079 18.2247042,7.17098348 C18.1927029,7.20257372 18.1607017,7.24995908 18.1126998,7.2815493 L18.1126998,7.2815493 C17.8886912,7.51847607 17.6806831,7.70801749 17.4726751,7.85017355 C17.4246732,7.88176379 17.3766713,7.8975589 17.3286695,7.8975589 C17.2966683,7.8975589 17.264667,7.8975589 17.2326658,7.88176379 L17.2006646,7.88176379 L17.2006646,7.88176379 L17.0086572,8.00812473 C16.8006491,7.78699307 16.5766405,7.59745166 16.3526318,7.40791025 C15.3925947,6.66553971 14.2245496,6.2074813 13.0085026,6.09691548 L12.992502,5.89157894 C12.9765013,5.87578382 12.9765013,5.87578382 12.9605007,5.8599887 C12.9124989,5.81260335 12.8484964,5.765218 12.8324958,5.65465217 C12.8164952,5.40193029 12.8484964,5.11761817 12.8804977,4.80171582 L12.8804977,4.7859207 C12.8804977,4.73853534 12.8964983,4.67535487 12.9124989,4.62796952 C12.9284996,4.53319881 12.9445001,4.4384281 12.9605007,4.32786227 L12.9605007,4.23309157 L12.9605007,4.18570621 L12.9605007,4.18570621 L12.9605007,4.18570621 C12.9605007,3.9013941 12.7364921,3.66446733 12.4644816,3.66446733 C12.3364767,3.66446733 12.2084717,3.7276478 12.112468,3.82241851 C12.0164643,3.91718922 11.9684624,4.04355016 11.9684624,4.18570621 L11.9684624,4.18570621 L11.9684624,4.18570621 L11.9684624,4.21729645 L11.9684624,4.31206716 C11.9684624,4.42263299 11.984463,4.51740369 12.0164643,4.6121744 C12.0324649,4.65955975 12.0324649,4.7069451 12.0484655,4.77012558 L12.0484655,4.7859207 C12.0804667,5.10182305 12.1284686,5.38613517 12.0964673,5.63885705 C12.0804667,5.74942288 12.0164643,5.79680823 11.9684624,5.84419359 C11.9524618,5.8599887 11.9524618,5.8599887 11.9364612,5.87578382 L11.9364612,5.87578382 L11.9204605,6.08112036 C11.6324494,6.11271059 11.3444383,6.14430082 11.0564272,6.2074813 C9.82437955,6.4759983 8.73633754,7.0920079 7.88830477,7.97653449 L7.72829859,7.86596867 L7.69629735,7.86596867 C7.66429612,7.86596867 7.63229489,7.88176379 7.60029365,7.88176379 C7.55229179,7.88176379 7.50428994,7.86596867 7.45628808,7.83437843 C7.24828005,7.69222237 7.04027201,7.48688584 6.81626336,7.24995908 L6.81626336,7.24995908 C6.78426212,7.21836884 6.75226088,7.17098348 6.70425902,7.13939324 C6.64025656,7.06041766 6.57625408,6.99723719 6.49625099,6.9182616 C6.48025038,6.90246648 6.44824914,6.88667136 6.4162479,6.85508113 C6.40024728,6.83928601 6.38424666,6.83928601 6.38424666,6.82349089 L6.38424666,6.82349089 C6.28824296,6.7445153 6.16023801,6.69712995 6.03223307,6.69712995 C5.8882275,6.69712995 5.74422193,6.76031042 5.66421885,6.87087625 C5.50421267,7.07621278 5.55221451,7.39211513 5.77622317,7.58165655 L5.77622317,7.58165655 L5.77622317,7.58165655 C5.79222379,7.58165655 5.79222379,7.59745166 5.80822441,7.59745166 C5.84022565,7.61324678 5.85622627,7.64483701 5.8882275,7.66063213 C5.98423121,7.72381261 6.0642343,7.77119796 6.16023801,7.81858331 C6.20823986,7.83437843 6.25624172,7.86596867 6.30424357,7.8975589 L6.30424357,7.8975589 C6.5922547,8.0713052 6.83226398,8.21346126 7.0242714,8.38720756 C7.10427448,8.46618314 7.10427448,8.54515873 7.10427448,8.62413432 L7.10427448,8.65572456 L7.10427448,8.65572456 L7.26428066,8.79788062 C7.23227943,8.84526597 7.20027819,8.87685621 7.18427758,8.92424156 C6.38424666,10.1720559 6.08023492,11.6410018 6.28824296,13.0941527 L6.08023492,13.1573331 C6.08023492,13.1731282 6.0642343,13.1731282 6.0642343,13.1889233 C6.03223307,13.2521039 5.98423121,13.3152843 5.8882275,13.3626697 C5.64821823,13.4416452 5.3602071,13.4732355 5.02419412,13.5048257 L5.0081935,13.5048257 C4.96019164,13.5048257 4.89618917,13.5048257 4.84818732,13.5206209 C4.7521836,13.5206209 4.6561799,13.536416 4.54417558,13.5522111 C4.51217434,13.5522111 4.4801731,13.5680062 4.44817186,13.5680062 C4.43217124,13.5680062 4.41617062,13.5680062 4.40017,13.5838013 L4.40017,13.5838013 L4.40017,13.5838013 C4.11215888,13.6469818 3.93615208,13.9154988 3.98415393,14.1682206 C4.03215579,14.3893523 4.24016382,14.5315084 4.49617372,14.5315084 C4.54417558,14.5315084 4.5761768,14.5315084 4.62417866,14.5157133 L4.62417866,14.5157133 L4.62417866,14.5157133 C4.64017928,14.5157133 4.6561799,14.5157133 4.6561799,14.4999182 C4.68818114,14.4999182 4.72018237,14.484123 4.7521836,14.484123 C4.86418794,14.4525328 4.94419102,14.4209425 5.04019474,14.3735572 C5.08819659,14.3577621 5.13619844,14.3261718 5.1842003,14.3103767 L5.20020092,14.3103767 C5.50421267,14.1998109 5.77622317,14.1050402 6.03223307,14.07345 L6.0642343,14.07345 C6.16023801,14.07345 6.22424048,14.1208354 6.27224234,14.1524255 C6.28824296,14.1524255 6.28824296,14.1682206 6.30424357,14.1682206 L6.30424357,14.1682206 L6.52825223,14.1366304 C6.91226706,15.3054691 7.6482955,16.3479469 8.62433321,17.1061125 C8.84834186,17.2798589 9.07235052,17.4220149 9.3123598,17.564171 L9.21635608,17.7695076 C9.21635608,17.7853027 9.2323567,17.7853027 9.2323567,17.8010977 C9.26435794,17.8642782 9.29635918,17.9432538 9.26435794,18.0538197 C9.16835424,18.2907464 9.02434866,18.5276732 8.84834186,18.7961901 L8.84834186,18.8119853 C8.81634063,18.8593707 8.7843394,18.8909609 8.75233816,18.9383462 C8.68833568,19.0173219 8.64033383,19.0962974 8.57633136,19.1910682 C8.56033074,19.2068632 8.54433012,19.2384535 8.5283295,19.2700437 C8.5283295,19.2858388 8.51232889,19.301634 8.51232889,19.301634 L8.51232889,19.301634 L8.51232889,19.301634 C8.38432394,19.570151 8.48032765,19.8702582 8.72033692,19.980824 C8.7843394,20.0124143 8.84834186,20.0282094 8.91234434,20.0282094 C9.10435176,20.0282094 9.29635918,19.9018484 9.39236288,19.7281022 L9.39236288,19.7281022 L9.39236288,19.7281022 C9.39236288,19.712307 9.4083635,19.6965119 9.4083635,19.6965119 C9.42436412,19.6649216 9.44036474,19.6333314 9.45636536,19.6175364 C9.50436722,19.5069705 9.52036783,19.4279949 9.55236907,19.3332242 C9.56836969,19.2858388 9.5843703,19.2384535 9.60037092,19.1910682 L9.60037092,19.1910682 C9.71237523,18.8751658 9.79237837,18.6224439 9.93638388,18.4013122 C10.0003863,18.3065415 10.0803895,18.2907464 10.1443919,18.2591562 C10.1603925,18.2591562 10.1603925,18.2591562 10.1763932,18.243361 L10.1763932,18.243361 L10.2883975,18.0380246 C10.9924247,18.3065415 11.7604543,18.4486976 12.528484,18.4486976 C12.992502,18.4486976 13.4725205,18.4013122 13.9205379,18.2907464 C14.208549,18.2275659 14.4805595,18.1485904 14.75257,18.0538197 L14.8485737,18.2275659 C14.8645743,18.2275659 14.8645743,18.2275659 14.8805749,18.243361 C14.960578,18.2591562 15.0245805,18.2907464 15.088583,18.3855171 C15.2165879,18.6066488 15.3125916,18.8751658 15.424596,19.175273 L15.424596,19.1910682 C15.4405966,19.2384535 15.4565971,19.2858388 15.4725978,19.3332242 C15.504599,19.4279949 15.5205997,19.5227656 15.5686015,19.6175364 C15.5846022,19.6491265 15.6006027,19.6649216 15.6166033,19.6965119 C15.6166033,19.712307 15.632604,19.7281022 15.632604,19.7281022 L15.632604,19.7281022 L15.632604,19.7281022 C15.7286077,19.9176435 15.9206151,20.0282094 16.1126225,20.0282094 C16.1766251,20.0282094 16.2406275,20.0124143 16.30463,19.980824 C16.4166343,19.9176435 16.512638,19.8228728 16.5446392,19.6965119 C16.5766405,19.570151 16.5766405,19.4279949 16.512638,19.301634 L16.512638,19.301634 L16.512638,19.301634 C16.512638,19.2858388 16.4966373,19.2858388 16.4966373,19.2700437 C16.4806367,19.2384535 16.4646362,19.2068632 16.4486355,19.1910682 C16.4006337,19.0962974 16.3366311,19.0173219 16.2726287,18.9383462 C16.2406275,18.8909609 16.2086262,18.8593707 16.1766251,18.8119853 L16.1766251,18.7961901 C16.0006182,18.5276732 15.840612,18.2907464 15.7606089,18.0538197 C15.7286077,17.9432538 15.7606089,17.8800734 15.7766095,17.8010977 C15.7766095,17.7853027 15.7926102,17.7853027 15.7926102,17.7695076 L15.7926102,17.7695076 L15.7126071,17.5799661 C16.5606398,17.0903175 17.2806677,16.3953322 17.8246886,15.5423959 C18.1126998,15.1001327 18.3367085,14.610484 18.4967147,14.1208354 L18.6887221,14.1524255 C18.7047226,14.1524255 18.7047226,14.1366304 18.7207233,14.1366304 C18.7847258,14.1050402 18.8327277,14.0576548 18.9287313,14.0576548 L18.9607326,14.0576548 C19.2167425,14.0892451 19.488753,14.1840158 19.7927647,14.2945816 L19.8087653,14.2945816 C19.8567672,14.3103767 19.904769,14.341967 19.9527709,14.3577621 C20.0487746,14.4051475 20.1287777,14.4367376 20.240782,14.4683279 C20.2727833,14.4683279 20.3047845,14.484123 20.3367857,14.484123 C20.3527863,14.484123 20.368787,14.484123 20.3847876,14.4999182 L20.3847876,14.4999182 C20.4327895,14.5157133 20.4647907,14.5157133 20.5127925,14.5157133 C20.7528019,14.5157133 20.9608098,14.3577621 21.0248123,14.1524255 C21.0248123,13.9628842 20.8488055,13.7101623 20.5607944,13.6311867 L20.5607944,13.6311867 Z M13.1525082,12.8572259 L12.448481,13.1889233 L11.7444538,12.8572259 L11.568447,12.1148554 L12.0484655,11.5146409 L12.8324958,11.5146409 L13.3125144,12.1148554 L13.1525082,12.8572259 L13.1525082,12.8572259 Z M17.3286695,11.2145336 C17.4566745,11.7515676 17.4886757,12.2886017 17.4406738,12.8098405 L14.9925793,12.1148554 C14.7685706,12.0516749 14.6405657,11.8305432 14.6885676,11.6094115 C14.7045681,11.5462311 14.7365693,11.4830506 14.7845712,11.4356653 L16.720646,9.71399749 C16.9926565,10.1562608 17.2006646,10.6617045 17.3286695,11.2145336 L17.3286695,11.2145336 Z M15.9526163,8.76629038 L13.8565353,10.2352363 C13.6805285,10.3458021 13.4405193,10.314212 13.2965137,10.1404656 C13.2485118,10.0930803 13.2325112,10.0298998 13.2165107,9.96671931 L13.0725051,7.39211513 C14.1765477,7.51847607 15.1845867,8.00812473 15.9526163,8.76629038 L15.9526163,8.76629038 Z M11.312437,7.47109072 C11.4884438,7.43950048 11.64845,7.40791025 11.8244569,7.37632002 L11.6804513,9.90353886 C11.6644507,10.1246705 11.4884438,10.314212 11.2484346,10.314212 C11.1844321,10.314212 11.104429,10.2984168 11.0564272,10.2668266 L8.92834496,8.76629038 C9.5843703,8.11869055 10.4004019,7.67642725 11.312437,7.47109072 L11.312437,7.47109072 Z M8.16031529,9.71399749 L10.0643889,11.3882799 C10.2403957,11.530436 10.2563963,11.798953 10.1123907,11.9726993 C10.0643889,12.0358797 10.0003863,12.0832651 9.92038329,12.0990602 L7.44028747,12.8098405 C7.34428376,11.7357726 7.58429303,10.6459094 8.16031529,9.71399749 L8.16031529,9.71399749 Z M7.72829859,13.9944744 L10.2723969,13.5680062 C10.4804049,13.5522111 10.6724124,13.6943672 10.7204142,13.8997036 C10.7364148,13.9944744 10.7364148,14.07345 10.7044136,14.1524255 L10.7044136,14.1524255 L9.72837592,16.4743079 C8.83234125,15.9056836 8.11231343,15.0369521 7.72829859,13.9944744 L7.72829859,13.9944744 Z M13.5685242,17.1377028 C13.2005101,17.2166784 12.8324958,17.2640637 12.448481,17.2640637 C11.8884594,17.2640637 11.3444383,17.1692931 10.8324186,17.0113419 L12.0964673,14.75264 C12.2244723,14.610484 12.4324804,14.5473035 12.6084872,14.6420742 C12.6884902,14.6894596 12.7524927,14.75264 12.8004945,14.8158205 L12.8004945,14.8158205 L14.0325422,17.0113419 C13.8885366,17.0587273 13.7285304,17.0903175 13.5685242,17.1377028 L13.5685242,17.1377028 Z M16.6886448,14.9421815 C16.2886294,15.5739861 15.7606089,16.07943 15.1525854,16.4743079 L14.1445465,14.0892451 C14.0965447,13.8997036 14.1765477,13.6943672 14.3685552,13.5995964 C14.4325576,13.5680062 14.5125607,13.5522111 14.5925638,13.5522111 L17.1526627,13.9786793 C17.056659,14.3261718 16.8966529,14.6420742 16.6886448,14.9421815 L16.6886448,14.9421815 Z"></path>
        </g>
    </g>
</svg>