<svg height="128" viewBox="0 0 376 128" width="376" xmlns="http://www.w3.org/2000/svg"><g fill="none" transform="translate(36 40)"><path d="m48.5792774 11.5011765c-.3043912-.9788236-1.0349301-1.77411768-1.9481038-2.26352944l-18.5678643-8.93176471c-.4870259-.24470588-1.0349301-.30588235-1.521956-.30588235-.487026 0-1.0349302 0-1.5219561.12235294l-18.56786431 8.99294118c-.91317377.42823529-1.58283445 1.22352938-1.82634742 2.26352938l-4.56586824 20.1270589c-.18263473 1.04.06087824 2.08.66966065 2.9364705l12.84530952 15.9670589c.7305389.7341176 1.765469 1.2235294 2.8003992 1.2847058h20.4550898c1.0958084.122353 2.1307385-.3670588 2.8003992-1.2847058l12.8453094-15.9670589c.6087824-.8564705.8522954-1.8964705.7305389-2.9364705z" fill="#326de6"/><path d="m45.718 30.7105882c-.0608783 0-.1217565 0-.1217565-.0611764 0-.0611765-.1217565-.0611765-.243513-.0611765-.243513-.0611765-.4870259-.0611765-.7305389-.0611765-.1217565 0-.243513 0-.3652695-.0611764h-.0608782c-.6696607-.0611765-1.4001996-.1835295-2.0698603-.3670589-.1826347-.0611764-.3652695-.2447059-.4261477-.4282353l-.487026-.1223529c.243513-1.7741177.1217565-3.6094118-.2435129-5.3835294-.4261477-1.7741177-1.1566867-3.4870588-2.1307386-5.0164706l.3652695-.3670588v-.0611765c0-.1835294.0608782-.4282353.1826347-.5505882.5479042-.4894118 1.0958084-.8564706 1.7045909-1.2235294.1217564-.0611765.2435129-.122353.3652694-.1835295.243513-.1223529.4261477-.2447058.6696607-.3670588.0608782-.0611765.1217565-.0611765.1826347-.1223529.0608783-.0611765 0-.0611765 0-.122353.5479042-.4282353.6696607-1.1623529.243513-1.7129411-.1826347-.2447059-.5479042-.4282353-.8522954-.4282353s-.6087824.1223529-.8522954.3058823l-.0608783.0611765c-.0608782.0611765-.1217565.1223529-.1826347.1223529-.1826347.1835294-.3652695.3670589-.4870259.5505883-.0608783.1223529-.1826348.1835294-.243513.2447058-.4261477.4894118-.9740519.9788236-1.5219561 1.3458824-.1217565.0611765-.243513.1223529-.3652695.1223529-.0608782 0-.1826347 0-.2435129-.0611764h-.0608783l-.4870259.3058823c-.487026-.4894117-1.0349302-.9788235-1.5219561-1.4682353-2.252495-1.7741176-5.0528942-2.8752941-7.9141717-3.1811764l-.0608782-.4894118v.0611765c-.1826348-.122353-.243513-.3058824-.3043912-.4894118 0-.6729412 0-1.3458824.1217564-2.08v-.06117647c0-.12235294.0608783-.24470588.0608783-.36705882.0608782-.24470589.0608782-.48941177.1217565-.73411765v-.36705882c.0608782-.61176471-.4261477-1.22352942-1.0349302-1.28470589-.3652694-.06117647-.7305389.12235294-1.0349301.4282353-.243513.24470588-.3652695.55058823-.3652695.85647059v.30588235c0 .24470588.0608783.48941176.1217565.73411765.0608783.12235294.0608783.24470588.0608783.36705882v.06117647c.1217565.67294118.1217565 1.34588237.1217565 2.07999997-.0608783.1835294-.1217565.3670589-.3043913.4894118v.1223529l-.0608782.4894118c-.6696607.0611765-1.3393214.1835294-2.0698603.3058824-2.8612774.6117647-5.4790419 2.1411764-7.4880239 4.2823529l-.3652695-.2447059h-.0608782c-.0608783 0-.1217565.0611765-.243513.0611765s-.243513-.0611765-.3652695-.122353c-.5479042-.4282353-1.0958084-.917647-1.5219561-1.4070588-.0608782-.1223529-.1826347-.1835294-.2435129-.2447059-.1826348-.1835294-.3043913-.3670588-.487026-.5505882-.0608782-.0611765-.1217565-.0611765-.1826347-.1223529-.0608783-.0611765-.0608783-.0611765-.0608783-.0611765-.2435129-.1835294-.5479042-.3058824-.8522954-.3058824-.3652694 0-.6696606.122353-.8522954.4282353-.3652694.5505883-.243513 1.2847059.243513 1.7129412.0608782 0 .0608782.0611765.0608782.0611765s.1217565.1223529.1826348.1223529c.1826347.122353.4261477.2447059.6696606.3670588l.3652695.1835295c.6087824.3670588 1.2175649.7341176 1.7045908 1.2235294.1217565.1223529.243513.3670588.1826348.5505882v-.0611765l.3652694.3670589c-.0608782.1223529-.1217565.1835294-.1826347.3058823-1.8872256 2.9976471-2.6786427 6.5458824-2.1307385 10.0329412l-.487026.1223529c0 .0611765-.0608782.0611765-.0608782.0611765-.0608783.1835294-.243513.3058823-.4261477.4282353-.6696607.1835294-1.33932139.3058823-2.06986031.3670588-.12175649 0-.24351297 0-.36526946.0611765-.24351297 0-.48702595.0611765-.73053892.0611765-.06087825 0-.12175649.0611764-.24351298.0611764-.06087824 0-.06087824 0-.12175648.0611765-.66966068.1223529-1.09580839.7341176-.9740519 1.4070588.12175649.5505883.66966068.9176471 1.21756487.8564706.12175649 0 .18263473 0 .30439122-.0611765.06087824 0 .06087824 0 .06087824-.0611764 0-.0611765.18263473 0 .24351298 0 .24351297-.0611765.48702594-.1835294.66966067-.2447059.12175649-.0611765.24351298-.122353.36526947-.122353h.06087824c.66966068-.2447058 1.27844316-.4282353 2.00898206-.5505882h.0608782c.1826347 0 .3652695.0611765.487026.1835294.0608782 0 .0608782.0611765.0608782.0611765l.5479042-.0611765c.9131737 2.8141177 2.6177645 5.322353 4.992016 7.1576471.5479042.4282353 1.0349301.7952941 1.6437125 1.1011764l-.3043912.4282353c0 .0611765.0608783.0611765.0608783.0611765.1217565.1835294.1217565.4282353.0608782.6117647-.243513.6117647-.6087824 1.2235294-.9740519 1.7741177v.0611764c-.0608782.122353-.1217565.1835294-.243513.3058824-.1217564.1223529-.2435129.3670588-.4261477.6117647-.0608782.0611765-.0608782.1223529-.1217564.1835294 0 0 0 .0611765-.0608783.0611765-.3043912.6117647-.0608782 1.3458823.487026 1.6517647.1217564.0611765.3043912.1223529.4261477.1223529.4870259 0 .9131736-.3058823 1.1566866-.7341176 0 0 0-.0611765.0608782-.0611765 0-.0611765.0608783-.1223529.1217565-.1835294.0608783-.2447059.1826347-.4282353.243513-.6729412l.1217565-.3670588c.1826347-.6729412.4870259-1.2847059.7914171-1.8964706.1217565-.1835294.3043913-.3058823.487026-.3670588.0608782 0 .0608782 0 .0608782-.0611765l.243513-.4894118c1.7045908.6729412 3.4700599.9788236 5.2964072.9788236 1.0958084 0 2.1916168-.122353 3.2874251-.4282353.6696607-.122353 1.3393214-.3670588 1.9481038-.5505883l.243513.4282353c.0608783 0 .0608783 0 .0608783.0611765.1826347.0611765.3652694.1835294.4870259.3670588.3043912.6117647.6087824 1.2235294.7914172 1.8964706v.0611765l.1217565.3670588c.0608782.2447059.1217564.4894118.2435129.6729412.0608783.0611765.0608783.1223529.1217565.1835294 0 0 0 .0611765.0608783.0611765.2435129.4282353.6696606.7341176 1.1566866.7341176.1826347 0 .3043912-.0611764.4870259-.1223529.243513-.122353.487026-.3670588.5479042-.6729412.0608783-.3058823.0608783-.6117647-.0608782-.9176471 0-.0611764-.0608783-.0611764-.0608783-.0611764 0-.0611765-.0608782-.122353-.1217564-.1835294-.1217565-.2447059-.243513-.4282353-.4261478-.6117647-.0608782-.122353-.1217564-.1835295-.2435129-.3058824v-.1223529c-.4261477-.5505883-.7305389-1.162353-.9740519-1.7741177-.0608783-.1835294-.0608783-.4282353.0608782-.6117647 0-.0611765.0608783-.0611765.0608783-.0611765l-.1826348-.4894117c3.1047905-1.8964706 5.479042-4.8329412 6.5748503-8.32l.487026.0611764c.0608782 0 .0608782-.0611764.0608782-.0611764.1217565-.122353.3043912-.1835294.487026-.1835294h.0608782c.6696607.1223529 1.3393214.3058823 1.9481038.5505882h.0608783c.1217564.0611765.2435129.1223529.3652694.1223529.243513.122353.4261477.2447059.6696607.3058824.0608782 0 .1217565.0611765.243513.0611765.0608782 0 .0608782 0 .1217565.0611764.1217564.0611765.1826347.0611765.3043912.0611765.5479042 0 1.0349301-.3670588 1.2175648-.8564706-.0608782-.6729412-.5479041-1.1623529-1.0958083-1.2847059zm-17.5938124-1.8964706-1.6437126.7952942-1.6437126-.7952942-.4261477-1.7741176 1.1566867-1.4682353h1.8263473l1.1566866 1.4682353zm9.9231537-3.9764705c.3043912 1.2847058.3652694 2.5694117.243513 3.8541176l-5.7834332-1.6517647c-.5479042-.1223529-.8522954-.6729412-.7305389-1.2235294.0608782-.1835294.1217565-.3058824.243513-.4282353l4.5658682-4.16c.6696607 1.1011765 1.1566867 2.3247059 1.4610779 3.6094118zm-3.2874252-5.8729412-4.9920159 3.5482353c-.4261477.2447059-1.0349302.1835294-1.3393214-.2447059-.1217565-.1223529-.1826347-.2447059-.1826347-.4282353l-.3652695-6.1788235c2.6786427.3058823 5.0528942 1.4682353 6.8792415 3.3035294zm-11.018962-3.12 1.2175648-.2447059-.3043912 6.1176471c0 .5505882-.4870259.9788235-1.0349301.9788235-.1826348 0-.3043913-.0611765-.487026-.122353l-5.0528942-3.6094117c1.5828343-1.5294118 3.5309381-2.6305883 5.6616767-3.12zm-7.4271458 5.3835294 4.5049901 4.0376471c.4261477.3670588.4870259.9788235.1217565 1.4070588-.1217565.1835294-.243513.2447059-.487026.3058823l-5.9051896 1.7129412c-.1826347-2.5694118.4261477-5.2 1.765469-7.4635294zm-1.0349301 10.3388235 6.0269461-1.04c.487026 0 .9740519.3058824 1.0349302.7952941.0608782.1835295.0608782.4282353-.0608783.6117647l-2.3133732 5.6282353c-2.1307386-1.4070588-3.8353294-3.5482353-4.6876248-5.9952941zm13.8193613 7.5858824c-.8522954.1835294-1.7045908.3058823-2.6177645.3058823-1.2784431 0-2.6177645-.2447059-3.8353293-.6117647l2.9830339-5.4447059c.3043912-.3670588.7914172-.4894117 1.2175649-.2447058.1826347.1223529.3043912.2447058.4870259.4282353l2.9221557 5.3223529c-.3652695.0611765-.7305389.1223529-1.1566866.2447059zm7.4271457-5.322353c-.9131737 1.4682353-2.1916168 2.7529412-3.6526946 3.6705883l-2.3742515-5.7505883c-.1217565-.4894117.1217565-.9788235.5479042-1.1623529.1826347-.0611765.3652694-.1223529.5479042-.1223529l6.0878243 1.04c-.3043912.8564705-.6696607 1.6517647-1.1566866 2.3247058z" fill="#fff"/><path d="m294.953531 38.2352941c.852296.0611765 1.765469-.0611765 2.556887-.3670588.487026-.2447059.791417-.7952941.730538-1.3458824-.060878-.6117647-.426147-1.1623529-.974051-1.3458823-.913174-.5505882-1.948104-1.04-2.983034-1.3458824-1.03493-.3670588-1.948104-.7952941-2.8004-1.2235294-.791417-.3670588-1.461077-.8564706-2.130738-1.4682353-.608783-.6117647-1.03493-1.2847059-1.339321-2.08-.36527-.917647-.487026-1.8964706-.487026-2.8752941-.060879-2.0188235.852295-3.9764706 2.435129-5.2 1.643713-1.2847059 3.83533-1.8964706 6.635729-1.8964706 1.339321 0 2.739521.122353 4.078842.4282353 1.03493.1835294 2.069861.4282353 3.104791.7952941l-1.156687 5.2c-.852295-.3058823-1.643713-.4894117-2.496008-.7341176-.974052-.2447059-2.008982-.3058824-2.983034-.3058824-2.06986 0-3.10479.5505883-3.10479 1.7129412 0 .2447059.060878.4894118.121756.7341177.121757.2447058.304391.4282353.547904.6117647s.608783.3670588 1.034931.6117647c.426147.2447059 1.03493.4894117 1.765469.7341176 1.217564.4282353 2.435129.9788235 3.530938 1.5905883.852295.4282352 1.582834.9788235 2.191616 1.7129411.547905.5505883.913174 1.2235294 1.156687 2.0188236.243513.8564705.36527 1.7129411.36527 2.5694117.121756 2.08-.852296 4.0988236-2.617765 5.2611765-1.704591 1.1623529-4.13972 1.7741176-7.305389 1.7741176-1.765469.0611765-3.47006-.1223529-5.174651-.5505882-.974052-.2447059-1.887225-.5505882-2.800399-.8564706l1.095808-5.3835294c1.095809.4282353 2.252495.7952941 3.409182 1.04 1.217565.0611765 2.374251.1835294 3.591816.1835294m-33.543912-6.7294117c-.060878-1.8352942.304391-3.6705883.913174-5.3835295.547904-1.4682353 1.400199-2.7529411 2.496008-3.9152941 1.03493-1.04 2.191617-1.8352941 3.530938-2.3247059 1.339321-.5505882 2.739521-.7952941 4.13972-.7952941 3.287426 0 5.90519 1.04 7.792416 3.0588236 1.887225 2.0188235 2.861277 5.0164705 2.861277 8.9317647 0 .3670588 0 .7952941-.060878 1.2847058 0 .4894118-.060878.8564706-.060878 1.2235295h-14.854292c.121757 1.2847058.791417 2.5082352 1.887226 3.2423529 1.339321.8564706 2.922155 1.2847059 4.50499 1.2235294 1.156686 0 2.374251-.1223529 3.530938-.3058823.974052-.1835295 1.948104-.4894118 2.861277-.9176471l.913174 5.3835294c-.426148.2447059-.913174.3670588-1.4002.5505882-.66966.1835295-1.339321.3670589-2.008982.4282353-.730539.122353-1.461077.2447059-2.313373.3670589-.791417.0611764-1.643712.1223529-2.496008.1223529-1.887225.0611765-3.713573-.2447059-5.479042-.9176471-1.461078-.5505882-2.739521-1.4070588-3.835329-2.5082353-1.03493-1.1011764-1.765469-2.4470588-2.252495-3.8541176-.426148-1.6517647-.669661-3.3035294-.669661-4.8941176m15.402196-2.5082353c0-.5505883-.121757-1.1011765-.304391-1.6517647-.121757-.5505883-.426148-.9788236-.730539-1.4070589-.36527-.4282353-.791418-.7952941-1.278443-1.04-.608783-.3058823-1.217565-.4282353-1.887226-.4282353s-1.278443.122353-1.887226.4282353c-.487026.2447059-.974051.5505883-1.339321.9788236-.365269.4282353-.669661.917647-.852295 1.4682353-.182635.5505882-.304392 1.1011764-.36527 1.6517647zm-33.239521-15.1717647 6.57485-1.04v6.8517647h7.914172v5.5058823h-7.914172v8.1976471c-.060878 1.1623529.182635 2.3247059.730539 3.3035294.487026.7952941 1.461078 1.2235294 2.983034 1.2235294.730539 0 1.461078-.0611765 2.130738-.1835294.730539-.122353 1.4002-.3058824 2.069861-.5505883l.913173 5.1388236c-.852295.3670588-1.765469.6117647-2.678642.8564706-1.156687.2447058-2.374252.3670588-3.591817.3670588-1.521956.0611765-3.043912-.1835294-4.444111-.7341177-1.095809-.4282353-2.069861-1.1623529-2.8004-2.0188235-.730539-.917647-1.217565-2.0188235-1.521956-3.1811765-.304391-1.3458823-.426147-2.7529411-.365269-4.0988235zm-26.603793 17.68c-.060878-1.8352942.304392-3.6705883.913174-5.3835295.547904-1.4682353 1.4002-2.7529411 2.496008-3.9152941 1.03493-1.04 2.191617-1.8352941 3.530938-2.3247059 1.339322-.5505882 2.739521-.7952941 4.139721-.7952941 3.287425 0 5.905189 1.04 7.792415 3.0588236 1.887225 2.0188235 2.861277 5.0164705 2.861277 8.9317647 0 .3670588 0 .7952941-.060878 1.2847058-.060878.4894118-.060878.8564706-.060878 1.2235295h-14.91517c.121757 1.2847058.791417 2.5082352 1.887226 3.2423529 1.339321.8564706 2.922155 1.2847059 4.50499 1.2235294 1.156686 0 2.374251-.1223529 3.530938-.3058823.974052-.1835295 1.948104-.4894118 2.922156-.9176471l.913173 5.3835294c-.426147.2447059-.913173.3670588-1.400199.5505882-.669661.1835295-1.339322.3670589-2.008982.4282353-.730539.122353-1.461078.2447059-2.313374.3670589-.791417.0611764-1.643712.1223529-2.496008.1223529-1.887225.0611765-3.713573-.2447059-5.479042-.9176471-1.461077-.5505882-2.739521-1.4070588-3.835329-2.5082353-1.03493-1.1011764-1.765469-2.4470588-2.252495-3.8541176-.487026-1.6517647-.730539-3.3035294-.669661-4.8941176m15.402196-2.5082353c0-.5505883-.121756-1.1011765-.304391-1.6517647-.121757-.5505883-.426148-.9788236-.730539-1.4070589-.36527-.4282353-.791417-.7952941-1.278443-1.04-.608783-.3058823-1.217565-.4282353-1.887226-.4282353-.66966 0-1.278443.122353-1.887225.4282353-.487026.2447059-.913174.5505883-1.278443.9788236-.36527.4282353-.669661.917647-.852296 1.4682353-.182635.5505882-.304391 1.1011764-.365269 1.6517647zm-40.362275-8.5647059c1.400199-.3670588 2.861277-.6729412 4.322355-.9176471 1.826347-.3058823 3.713573-.4282353 5.53992-.4282353 1.643713-.0611764 3.287425.2447059 4.870259.7952941 1.217565.4282353 2.313374 1.162353 3.104791 2.1411765s1.339321 2.1411765 1.643712 3.3647059c.36527 1.4070588.487026 2.8752941.487026 4.3435294v13.1529412h-6.513972v-12.2964706c0-2.1411765-.304391-3.6094118-.852295-4.5270588-.547904-.8564706-1.582834-1.3458824-3.10479-1.3458824-.487026 0-.974052 0-1.521957.0611765-.547904 0-.974051.0611765-1.400199.1223529v17.9858824h-6.57485zm-4.626747 5.077647c-.608782-.1223529-1.278443-.3058823-2.06986-.4282353-.852296-.1835294-1.704591-.2447058-2.556886-.2447058-.487026 0-.974052.0611764-1.521957.1223529-.426147.0611765-.852295.1223529-1.278443.2447059v17.8023529h-6.57485v-22.1458823c1.339321-.4894118 2.739521-.8564706 4.139721-1.162353 1.765469-.4282353 3.591816-.6117647 5.357285-.5505882.426148 0 .852295.0611765 1.278443.0611765.487026 0 .974052.0611764 1.521956.1835294.487026.0611764.974052.1223529 1.521956.2447059.426148.0611764.852296.1835294 1.278443.3670588zm-40.849301 5.9952942c-.060879-1.8352942.304391-3.6705883.913173-5.3835295.547904-1.4682353 1.4002-2.7529411 2.496008-3.9152941 1.03493-1.04 2.191617-1.8352941 3.530938-2.3247059 1.339322-.5505882 2.739521-.7952941 4.139721-.7952941 3.287425 0 5.90519 1.04 7.792415 3.0588236 1.887226 2.0188235 2.861278 5.0164705 2.861278 8.8705882 0 .3670588 0 .7952941-.060879 1.2847059-.060878.4894117-.060878.8564706-.060878 1.2235294h-14.91517c.121757 1.2847059.791418 2.5082353 1.887226 3.2423529 1.339321.8564706 2.922156 1.2847059 4.50499 1.2235294 1.156687 0 2.374252-.1223529 3.530938-.3058823.974052-.1835294 1.948104-.4894118 2.861278-.8564706l.913173 5.3835294c-.426147.2447059-.913173.3670588-1.400199.5505882-.669661.1835295-1.339322.3670589-2.008982.4282353-.730539.122353-1.461078.2447059-2.313374.3670589-.791417.0611764-1.643712.1223529-2.496008.1223529-1.887225.0611765-3.713572-.2447059-5.479042-.9176471-1.461077-.5505882-2.739521-1.4070588-3.835329-2.5082353-1.03493-1.1011764-1.765469-2.4470588-2.252495-3.8541176-.365269-1.6517647-.608782-3.2423529-.608782-4.8941176m15.463074-2.5082353c0-.5505883-.121757-1.1011765-.304392-1.6517647-.121756-.5505883-.426147-.9788236-.730539-1.4070589-.365269-.4282353-.791417-.7952941-1.278443-1.04-.608782-.3058823-1.217565-.4282353-1.887225-.4282353-.669661 0-1.278443.122353-1.887226.4282353-.487026.2447059-.974052.5505883-1.339321.9788236-.36527.4282353-.669661.917647-.852296 1.4682353-.182634.5505882-.304391 1.1011764-.365269 1.6517647zm-26.116767 2.1411764c0-4.2823529-1.582834-6.3623529-4.687625-6.3623529-.66966 0-1.339321.0611765-2.008982.2447059-.547904.1223529-1.095808.3670588-1.582834.6729411v11.9905883c.304391.0611765.730539.1223529 1.217565.1835294s1.03493.0611765 1.643712.0611765c1.582835.1223529 3.104791-.5505883 4.078843-1.8352942.913173-1.4682352 1.400199-3.1811764 1.339321-4.9552941m6.696607.2447059c0 1.7129412-.243513 3.4258824-.852296 5.0776471-.487026 1.4682353-1.278443 2.7529411-2.313373 3.8541176-1.095808 1.1011765-2.374251 1.9576471-3.774451 2.5082353-1.643713.6117647-3.348303.8564706-5.113772.8564706-.791418 0-1.643713-.0611765-2.496008-.1223529-.852296-.0611765-1.704591-.1835295-2.556887-.2447059-.791417-.122353-1.582834-.2447059-2.374251-.4282353-.791417-.122353-1.461078-.3058824-2.008982-.5505883v-32.72941172l6.57485-1.04v11.62352942c.730539-.3058824 1.521956-.5505882 2.313373-.7341177.852296-.1835294 1.704591-.2447058 2.556887-.2447058 1.521956 0 2.983034.2447058 4.383233.917647 1.217565.5505883 2.313373 1.4070588 3.165669 2.4470588.913173 1.162353 1.582834 2.4470589 1.948104 3.8541177.365269 1.5294118.547904 3.2423529.547904 4.9552941m-27.760479 10.7670588c-1.4002.3670589-2.861278.6729412-4.322356.8564706-1.826347.3058824-3.713572.4282353-5.53992.4282353-1.70459.0611765-3.348303-.2447059-4.931137-.7952941-1.2175653-.4894118-2.2524954-1.2235294-3.1047908-2.2023529-.7914172-1.04-1.3393214-2.202353-1.6437126-3.4870589-.3652694-1.4070588-.4870259-2.9364706-.4870259-4.4047058v-12.9082353h6.5748503v12.1741176c0 2.1411765.304391 3.6705882.852295 4.5882353.547905.9176471 1.582835 1.4070588 3.104791 1.4070588.487026 0 .974052 0 1.521956-.0611764.547904-.0611765.974052-.0611765 1.400199-.1835295v-17.9247058h6.574851zm-38.3532936-14.0705882c.6696606-.7341176 1.2784431-1.4682353 2.008982-2.2023529.6696607-.7952942 1.3393214-1.5294118 2.008982-2.2635295.6696607-.7952941 1.2784432-1.4682352 1.8263473-2.1411764.5479042-.6729412 1.0958084-1.2847059 1.5219561-1.7741177h7.7924152c-1.5828343 1.7741177-3.1047904 3.5482353-4.5658683 5.2-1.521956 1.6517647-3.1047904 3.3647059-4.8702594 5.0776471.9740519.917647 1.8872255 1.8352941 2.7395209 2.8752941.9131737 1.1011765 1.8263473 2.2023529 2.739521 3.4258824.8522954 1.1623529 1.7045908 2.3858823 2.4351297 3.5482353.7305389 1.1623529 1.3393214 2.2635294 1.8263473 3.2423529h-7.5489022c-.4870259-.7952941-1.0349301-1.5905882-1.6437125-2.5082353-.6087825-.9176471-1.2784432-1.8352941-1.8872256-2.8141176-.6696607-.9176471-1.4001996-1.8352942-2.1916168-2.6917648-.6696606-.7952941-1.4001996-1.5294117-2.1916167-2.1411764v10.2164706h-6.5748503v-33.52470592l6.5748503-1.04z" fill="#393a40"/></g></svg>