<svg height="128" viewBox="0 0 376 128" width="376" xmlns="http://www.w3.org/2000/svg" xmlns:xlink="http://www.w3.org/1999/xlink"><mask id="a" fill="#fff"><path d="m0 17.1761275v-.0668679c.00546478-.4268944.11559774-.8525624.33039889-1.2261596l3.19870637-5.4757 5.07239335-8.8706c.44167314-.8755 1.32330748-1.3141 2.20579779-1.3141h16.5421994c.9929086 0 1.7641247.5474 2.2057978 1.20445l3.1978504 5.4757 5.0732494 8.8706c.4408171.87635.4408171 1.7527 0 2.5194l-8.2710998 14.3463c-.4416731.8755-1.3233075 1.31325-2.2057978 1.31325h-16.5421994c-.88249031 0-1.76412465-.5474-2.20579779-1.31325l-8.27109972-14.2375c-.21480115-.373183-.32493411-.7986386-.33039889-1.2255225m18.9679778 4.9493725c2.8674516 0 5.0732493-2.3001 5.0732493-5.03795s-2.316216-5.0371-5.0732493-5.0371c-2.7570332 0-5.0723933 2.29925-5.0723933 5.0371" fill="#fff" fill-rule="evenodd"/></mask><g fill="none" fill-rule="evenodd" transform="translate(34 49)"><path d="m13.2339307 7.0125h19.5192133l-3.1978504-5.4757c-.4416731-.7667-1.2128892-1.3141-2.2057978-1.3141h-16.5421994c-.88249031 0-1.76412465.4386-2.20579779 1.3141l-5.07239335 8.8706 9.70482544 16.7552z" fill="#5273aa" mask="url(#a)"/><path d="m13.2339307 27.1626-9.70482544-16.7552-3.19870637 5.4757c-.44081717.7667-.44081717 1.7527 0 2.51855l8.27109972 14.2375c.44167314.76585 1.32330748 1.31325 2.20579779 1.31325h10.2560609l9.8152438-16.86485z" fill="#fbbe0f" mask="url(#a)"/><path d="m19.9138089.2125h-19.51921333l17.53425203 10.07505-9.81524372 16.86485h6.39655682c.8824903 0 1.7641246-.43775 2.2057977-1.31325l8.2710998-14.3463c.4408171-.7667.4408171-1.7527 0-2.5194z" fill="#ea4638" transform="translate(12.839335 6.8)"/><g transform="translate(3.423823)"><path d="m21.4998947 7.0125 5.8444654 10.07505-5.8444654 10.07505h-11.68978667l-5.84532133-10.07505 5.84532133-10.07505z" fill="#f0efeb"/><path d="m9.81010803 7.0125h19.51921327l-3.1978504-5.4757c-.4416731-.7667-1.2128892-1.3141-2.2057978-1.3141h-16.54219942c-.8824903 0-1.76412465.4386-2.20579778 1.3141l-5.07239335 8.8706 9.70482548 16.7552z" fill="#4c8bf4"/></g><path d="m18.076072.2125 5.8444654 10.07505-5.8444654 10.07505h-11.68978668l-5.84532133-10.07505 5.84532133-10.07505z" fill="#f0efeb" transform="translate(6.847645 6.8)"/><g transform="translate(6.847645 6.8)"><path d="m18.076072.2125 5.8444654 10.07505-5.8444654 10.07505h-11.68978668l-5.84532133-10.07505 5.84532133-10.07505z" fill="#e1e1e1"/><ellipse cx="11.98338" cy="10.4227" fill="#fff" rx="5.135734" ry="5.1"/></g><g fill="#757575"><path d="m288.818277 14.0216h2.426634v1.8615h.110419c.772072-1.3141 2.536196-2.3001 4.08034-2.3001 2.09538 0 3.529106.986 4.190759 2.5194.992053-1.5334 2.536197-2.5194 4.631577-2.5194 3.308268 0 4.741994 2.3001 4.741994 5.58535v8.1039h-2.536197v-7.6653c0-2.73785-1.103327-3.6142-2.977869-3.6142-1.984962 0-3.418687 2.0808-3.418687 4.05195v7.3372h-2.536197v-7.66615c0-2.73785-1.103327-3.61335-2.97787-3.61335-1.984961 0-3.418687 2.0808-3.418687 4.05195v7.3372h-2.536197v-13.46995zm-9.593551 13.141v-13.141h2.425778v2.19045h.110418c.551236-1.5334 2.425779-2.5194 3.859505-2.5194.772072 0 1.323307.10965 1.874543.32895l-.992053 2.3001c-.331255-.10965-.772072-.2193-1.323308-.2193-1.76498 0-3.418687 1.42375-3.418687 3.83265v7.22755zm-4.522014-6.5705c0-3.06595-2.09538-4.81865-4.301177-4.81865-2.204942 0-4.300322 1.7527-4.300322 4.81865 0 3.0668 2.09538 4.81865 4.300322 4.81865 2.205797-.10965 4.301177-1.8615 4.301177-4.81865zm2.536197 0c0 4.05195-2.866596 7.0091-6.837374 7.0091-3.969923 0-6.837374-3.0668-6.837374-7.0091 0-4.05195 2.867451-7.0091 6.837374-7.0091 3.970778 0 6.837374 2.95715 6.837374 7.0091zm-13.674748-12.48395-.881635 2.07995c-.331255-.1088-.661653-.21845-1.103327-.21845-1.212889 0-2.204941.7667-2.204941 2.29925v1.64305h3.418687v2.3001h-3.418687v10.95055h-2.537053v-10.95055h-2.425778v-2.3001h2.536196v-1.64305c0-2.73785 1.874543-4.4897 4.741995-4.4897.772072 0 1.323307.10965 1.874543.32895zm-16.210945 15.11215v-6.8986h-2.31536v-2.3001h2.31536v-4.05195h2.536197v4.05195h3.309124v2.3001h-3.309124v6.78895c0 1.5334.661653 2.19045 1.76498 2.19045.440818 0 .772072 0 1.102471-.21845l.882491 2.07995c-.551236.2193-1.21289.32895-1.984962.32895-2.757033-.10965-4.301177-1.64305-4.301177-4.27125zm-5.954884-1.75185s-1.103326-.87635-3.19785-.87635c-2.647471 0-3.639524 1.42375-3.639524 2.6282 0 1.42375 1.433726 2.0808 2.757034 2.0808 1.984961 0 4.08034-1.6422 4.08034-3.83265zm-9.483989 1.75185c0-2.9563 2.757034-4.59935 5.844466-4.59935 1.76498 0 3.088288.5474 3.639523.7667v-.32895c0-1.97115-1.654562-3.1756-3.418687-3.1756-1.433725 0-2.757033.65705-3.19785 1.8615l-2.316216-.98515c.440817-1.20445 2.095379-3.17645 5.403648-3.17645s5.954884 1.972 5.954884 5.695v7.99425h-2.425779v-1.8615h-.110418c-.772072 1.09565-2.095379 2.3001-4.411595 2.3001-2.646615-.10965-4.961976-1.7527-4.961976-4.49055zm-4.632432 3.94315h2.537053v-19.2746h-2.537053zm-7.719008-10.18555c2.205798 0 3.418687-1.8615 3.418687-3.3949 0-1.53255-1.212889-3.3949-3.418687-3.3949h-4.190759v6.7898zm-6.726956 10.1847v-19.27375h6.616538c3.19785 0 6.065302 2.4089 6.065302 5.69415 0 3.2861-2.867452 5.695-6.065302 5.695h-4.080341v7.7758h-2.536197zm-9.15359-6.5705c0-3.06595-1.984961-4.81865-4.190759-4.81865-2.205797 0-4.190759 1.7527-4.190759 4.81865 0 2.95715 1.984962 4.81865 4.190759 4.81865 2.09538-.10965 4.190759-1.8615 4.190759-4.81865zm-11.028133 0c0-4.05195 2.97787-7.0091 6.286139-7.0091 2.095379 0 3.749086 1.09565 4.521158 2.3001h.110418l-.110418-1.8615v-6.13275h2.537052v19.27375h-2.316216v-1.8615h-.110418c-.772072 1.2053-2.425778 2.3001-4.521158 2.3001-3.418687 0-6.396557-2.95715-6.396557-7.0091zm-4.410739 6.5705v-1.8615h-.110419c-.772072 1.2053-2.426634 2.3001-4.190759 2.3001-3.418687 0-5.073249-2.3001-5.073249-5.58535v-8.1039h2.537053v7.66615c0 2.73785 1.43287 3.723 3.308269 3.723 2.205797 0 3.529105-2.0808 3.529105-4.05195v-7.22755h2.536196v13.25065h-2.536196zm-13.785166-6.5705c0-3.06595-2.09538-4.81865-4.301178-4.81865s-4.301177 1.7527-4.301177 4.81865c0 3.0668 2.095379 4.81865 4.301177 4.81865 2.205798-.10965 4.301178-1.8615 4.301178-4.81865zm2.536196 0c0 4.05195-2.867451 7.0091-6.837374 7.0091-3.969922 0-6.837374-3.0668-6.837374-7.0091 0-4.05195 2.867452-7.0091 6.837374-7.0091 3.969923 0 6.837374 2.95715 6.837374 7.0091zm-18.085487 6.57135h2.536196v-19.2746h-2.536196zm-19.740906-9.6373c0-5.695 4.411595-10.07505 10.146498-10.07505 2.977014 0 5.403649 1.20445 7.167773 3.1756l-1.764124 1.6422c-1.323308-1.6422-3.198707-2.4089-5.403649-2.4089-4.08034 0-7.499027 2.95715-7.499027 7.66615s3.418687 7.6653 7.499027 7.6653c2.425779 0 4.521158-1.0948 5.954884-2.84665l1.764125 1.75185c-1.653707 1.97115-4.41074 3.3949-7.719009 3.3949-5.734903.10965-10.146498-4.1616-10.146498-9.9654z"/><path d="m106.370468 24.80215c-2.162144 0-3.985329-1.8105-3.985329-4.2942 0-2.50495 1.823185-4.33585 3.985329-4.33585 2.140745 0 3.814995 1.8309 3.814995 4.33585.021398 2.50495-1.67425 4.2942-3.814995 4.2942zm3.602718-10.9871v1.15685h-.105283c-.700172-.8415-2.056005-1.59885-3.773053-1.59885-3.582174 0-6.867332 3.1144-6.867332 7.1349 0 3.978 3.285158 7.09325 6.867332 7.09325 1.717048 0 3.072881-.75735 3.773053-1.62095h.105283v1.0319c0 2.7149-1.461973 4.16755-3.814995 4.16755-1.928468 0-3.115679-1.3685-3.603573-2.5262l-2.7339227 1.13645c.7840557 1.89465 2.8828587 4.21005 6.3588947 4.21005 3.688313 0 6.803992-2.1471 6.803992-7.40945v-12.7755zm-19.2453079 10.9871c-2.162144 0-4.0486703-1.768-4.0486703-4.31545 0-2.56785 1.8651274-4.3146 4.0486703-4.3146 2.182687 0 4.0478144 1.74675 4.0478144 4.3146 0 2.54745-1.8856703 4.31545-4.0478144 4.31545zm0-11.4087c-3.9639307 0-7.1857479 2.98945-7.1857479 7.1145 0 4.10465 3.2218172 7.1145 7.1857479 7.1145 3.9630748 0 7.184892-3.00985 7.184892-7.1145 0-4.12505-3.2218172-7.1145-7.184892-7.1145zm-15.6853878 11.4087c-2.1612881 0-4.0478144-1.768-4.0478144-4.31545 0-2.56785 1.8651274-4.3146 4.0478144-4.3146 2.162144 0 4.0486704 1.74675 4.0486704 4.3146 0 2.54745-1.8865264 4.31545-4.0486704 4.31545zm0-11.4087c-3.9630748 0-7.184892 2.98945-7.184892 7.1145 0 4.10465 3.2218172 7.1145 7.184892 7.1145 3.9639308 0 7.1857479-3.00985 7.1857479-7.1145 0-4.12505-3.2218171-7.1145-7.1857479-7.1145zm-29.9498892 3.17815c0-6.10385 5.1511413-11.05 11.297759-11.05 3.3912964 0 5.8076593 1.326 7.6308449 3.05235l-2.1621441 2.12585c-1.293349-1.22145-3.0523379-2.16835-5.4687008-2.16835-4.4723684 0-7.9698033 3.5785-7.9698033 8.01975s3.4974349 8.0189 7.9698033 8.0189c2.9034017 0 4.557108-1.1577 5.6167812-2.21.868795-.86275 1.4414293-2.1046 1.6537063-3.78845h-7.2704875v-3.00985h10.2372299c.1061385.5474.1703352 1.17895.1703352 1.8938 0 2.27375-.6154321 5.0728-2.6286399 7.0516-1.9712659 2.02045-4.4723684 3.094-7.7789252 3.094-6.1466177 0-11.297759-4.94615-11.297759-11.0296z"/><path d="m115.14487 27.1796h3.137077v-20.90065h-3.137077z"/><path d="m126.675449 16.1296c1.250551 0 2.31108.61115 2.650039 1.51555l-6.401693 2.6316c-.08474-2.737 2.140745-4.14715 3.751654-4.14715zm.233676 8.67255c-1.610909 0-2.734779-.73695-3.476036-2.1471l9.580712-3.93635-.318416-.79985c-.593177-1.5997-2.416363-4.5254-6.125219-4.5254-3.688313 0-6.76205 2.88405-6.76205 7.1145 0 3.978 3.030939 7.1145 7.101009 7.1145 3.285158 0 5.171684-2.00005 5.977138-3.15775l-2.437762-1.6201c-.826853 1.1781-1.928468 1.95755-3.539376 1.95755z"/></g></g></svg>