<svg height="140" viewBox="0 0 1506 140" width="1506" xmlns="http://www.w3.org/2000/svg" xmlns:xlink="http://www.w3.org/1999/xlink"><linearGradient id="a" x1="98.988212%" x2="1.600913%" y1="1.752168%" y2="1.752168%"><stop offset="0" stop-color="#8eb1f8"/><stop offset="1" stop-color="#8a60ff"/></linearGradient><linearGradient id="b" x1="103.978323%" x2="0%" y1="50%" y2="50%"><stop offset="0" stop-color="#6785ff" stop-opacity=".63587"/><stop offset="1" stop-color="#51fff2"/></linearGradient><linearGradient id="c" x1="98.773934%" x2="-31.9683%" y1="50%" y2="50%"><stop offset="0" stop-color="#a677f9" stop-opacity=".63587"/><stop offset="1" stop-color="#53cbff"/></linearGradient><g fill="none"><path d="m112 139.451254c55.820668-55.9845814 94.940349-83.9768719 117.359042-83.9768719 33.62804 0 110.086705 73.0914159 193.911611 73.0914159s181.756269-79.6010687 226.047622-79.6010687 106.080137 79.6010687 159.553207 79.6010687 133.437482-52.0419717 172.345009-52.0419717c36.831209 0 50.551619 52.0419717 163.851919 52.0419717 113.30031 0 194.71345-112.565798 226.79513-112.565798 15.07804 0 53.48946 41.1504179 115.23428 123.451254z" fill="url(#a)" opacity=".266183"/><path d="m0 139.10715c61.4723684-15.783272 101.793825-23.674908 120.96437-23.674908 28.755817 0 19.631816 13.167897 136.565987 13.167897s136.691105-44.4527763 160.593319-44.4527763c20.795795 0 20.795795 31.2848793 64.561923 31.2848793 49.061313 0 86.608541-113.432242 122.66503-113.432242 45.725586 0 45.725586 99.065636 86.850381 99.065636 27.378819 0 88.185252-31.5884753 146.026445-31.4340549 45.46489.121379 84.832426 39.5431429 111.562102 45.8006609 28.202549 6.602324 95.990953-45.8006609 121.108113-45.8006609 16.74477 0 51.46053 23.1585229 104.14727 69.4755689z" fill="url(#b)" opacity=".55106"/><path d="m558 139.314467c49.581297-16.037371 82.103065-24.056056 97.565305-24.056056 23.193359 0 15.834283 13.37989 110.148981 13.37989s110.249898-45.1684305 129.528523-45.1684305c16.773105 0 16.773105 31.7885405 52.073216 31.7885405 39.571007 0 69.855185-115.258411 98.936995-115.258411 36.88053 0 36.88053 100.660514 70.05024 100.660514 22.08273 0 71.12691-32.0970243 117.77943-31.9401178 36.67027.1233331 68.42264 40.1797558 89.98179 46.5380148 22.74712 6.708616 77.4227-46.5380148 97.68125-46.5380148 13.5057 0 41.50612 23.5313568 84.00127 70.5940708z" fill="url(#c)" opacity=".55106"/></g></svg>