<svg height="140" viewBox="0 0 1506 140" width="1506" xmlns="http://www.w3.org/2000/svg" xmlns:xlink="http://www.w3.org/1999/xlink"><linearGradient id="a" x1="98.988212%" x2="1.600913%" y1="1.752168%" y2="1.752168%"><stop offset="0" stop-color="#8eb1f8"/><stop offset="1" stop-color="#8a60ff"/></linearGradient><linearGradient id="b" x1="103.978323%" x2="0%" y1="50%" y2="50%"><stop offset="0" stop-color="#67d0ff" stop-opacity=".63587"/><stop offset="1" stop-color="#53ffb3"/></linearGradient><linearGradient id="c" x1="98.773934%" x2="-31.9683%" y1="50%" y2="50%"><stop offset="0" stop-color="#a677f9" stop-opacity=".63587"/><stop offset="1" stop-color="#53cbff"/></linearGradient><g fill="none" fill-rule="evenodd"><path d="m112 138.378083c55.820668-55.9845811 94.940349-83.9768716 117.359042-83.9768716 33.62804 0 110.086705 73.0914156 193.911611 73.0914156s181.756269-79.6010684 226.047622-79.6010684 106.080137 79.6010684 159.553207 79.6010684 133.437482-52.0419714 172.345009-52.0419714c36.831209 0 50.551619 52.0419714 163.851919 52.0419714 113.30031 0 194.71345-112.5657977 226.79513-112.5657977 15.07804 0 53.48946 41.1504179 115.23428 123.4512537z" fill="url(#a)" opacity=".266183"/><path d="m.03013708 138.241296c61.47236842-15.783272 101.79382492-23.674908 120.96436992-23.674908 28.755817 0 19.631816 13.167897 136.565987 13.167897s136.691105-44.452776 160.593319-44.452776c20.795795 0 20.795795 31.284879 64.561923 31.284879 49.061313 0 86.608541-113.43224166 122.66503-113.43224166 45.725586 0 45.725586 99.06563566 86.850381 99.06563566 27.378819 0 88.185252-31.588475 146.026445-31.4340546 45.46489.121379 84.832426 39.5431426 111.562102 45.8006606 28.202549 6.602324 95.990956-45.8006606 121.108116-45.8006606 16.74477 0 51.46053 23.1585229 104.14727 69.4755686z" fill="url(#b)" opacity=".55106"/><path d="m558.24277 139.399833c49.581297-16.037371 82.103065-24.056056 97.565305-24.056056 23.193359 0 15.834283 13.37989 110.148981 13.37989s110.249898-45.1684307 129.528523-45.1684307c16.773105 0 16.773105 31.7885407 52.073216 31.7885407 39.571007 0 69.855185-115.25841115 98.936995-115.25841115 36.88053 0 36.88053 100.66051415 70.05024 100.66051415 22.08273 0 71.12691-32.0970244 117.77943-31.9401179 36.67027.1233331 68.42264 40.1797559 89.98179 46.5380149 22.74712 6.708616 77.4227-46.5380149 97.68125-46.5380149 13.5057 0 41.50612 23.5313568 84.00127 70.5940709z" fill="url(#c)" opacity=".55106"/></g></svg>