<?xml version="1.0" encoding="UTF-8"?>
<svg width="160px" height="143px" viewBox="0 0 160 143" version="1.1" xmlns="http://www.w3.org/2000/svg" xmlns:xlink="http://www.w3.org/1999/xlink">
    <title>StackRox Platform</title>
    <defs>
        <polygon id="path-1" points="0.369670766 0.966289655 51.615 0.966289655 51.615 58.5464276 0.369670766 58.5464276"></polygon>
        <polygon id="path-3" points="0 0.16704 12.769 0.16704 12.769 20.8551724 0 20.8551724"></polygon>
        <polygon id="path-5" points="0.1946 0.389395862 13.69 0.389395862 13.69 13.4030234 0.1946 13.4030234"></polygon>
    </defs>
    <g id="Page-1" stroke="none" stroke-width="1" fill="none" fill-rule="evenodd">
        <g id="logo-platform" transform="translate(0.000000, -1.000000)">
            <path d="M0.810346462,114.835025 L159.375809,114.835025" id="Line-2" stroke="#D1D5ED" stroke-width="1.21000005" stroke-linecap="square"></path>
            <g id="PLATFORM" transform="translate(26.000000, 132.082759)" fill="#39457D" fill-rule="nonzero">
                <path d="M0.5749998,0.37737931 L4.0399998,0.37737931 C4.6500029,0.37737931 5.1999974,0.431999007 5.6899998,0.541241379 C6.1800023,0.650483752 6.5999981,0.829240386 6.9499998,1.07751724 C7.3000016,1.3257941 7.5699989,1.64358422 7.7599998,2.03089655 C7.9500008,2.41820888 8.0449998,2.88496254 8.0449998,3.43117241 C8.0449998,4.01710643 7.9350009,4.50868767 7.7149998,4.90593103 C7.4949987,5.3031744 7.1975017,5.62344728 6.8224998,5.86675862 C6.4474979,6.11006996 6.0100023,6.28634383 5.5099998,6.39558621 C5.0099973,6.50482858 4.4800026,6.55944828 3.9199998,6.55944828 L2.4649998,6.55944828 L2.4649998,10.9241379 L0.5749998,10.9241379 L0.5749998,0.37737931 Z M3.7849998,4.98041379 C4.0950014,4.98041379 4.3899984,4.95806897 4.6699998,4.91337931 C4.9500012,4.86868966 5.1999987,4.78924237 5.4199998,4.67503448 C5.6400009,4.56082659 5.8149992,4.40441479 5.9449998,4.2057931 C6.0750005,4.00717142 6.1399998,3.7489675 6.1399998,3.43117241 C6.1399998,3.12330836 6.0750005,2.87255272 5.9449998,2.67889655 C5.8149992,2.48524039 5.6425009,2.3337941 5.4274998,2.22455172 C5.2124987,2.11530935 4.9675012,2.04331034 4.6924998,2.00855172 C4.4174984,1.9737931 4.1350013,1.95641379 3.8449998,1.95641379 L2.4649998,1.95641379 L2.4649998,4.98041379 L3.7849998,4.98041379 Z M13.4249999,0.37737931 L15.3149999,0.37737931 L15.3149999,9.25572414 L19.8299999,9.25572414 L19.8299999,10.9241379 L13.4249999,10.9241379 L13.4249999,0.37737931 Z M28.1199999,0.37737931 L29.7549999,0.37737931 L34.3299999,10.9241379 L32.1699999,10.9241379 L31.1799999,8.51089655 L26.5749999,8.51089655 L25.6149999,10.9241379 L23.4999999,10.9241379 L28.1199999,0.37737931 Z M30.5199999,6.90206897 L28.8849999,2.61186207 L27.2199999,6.90206897 L30.5199999,6.90206897 Z M40.325,2.016 L37.07,2.016 L37.07,0.37737931 L45.47,0.37737931 L45.47,2.016 L42.215,2.016 L42.215,10.9241379 L40.325,10.9241379 L40.325,2.016 Z M50.4,0.37737931 L57.255,0.37737931 L57.255,2.016 L52.29,2.016 L52.29,4.90593103 L56.97,4.90593103 L56.97,6.48496552 L52.29,6.48496552 L52.29,10.9241379 L50.4,10.9241379 L50.4,0.37737931 Z M62.185,5.62096552 C62.185,4.77682361 62.3274986,4.01462367 62.6125,3.33434483 C62.8975015,2.65406599 63.2924975,2.07558819 63.7975,1.59889655 C64.3025026,1.12220491 64.9024966,0.754759614 65.5975,0.496551724 C66.2925035,0.238343834 67.0499959,0.109241379 67.87,0.109241379 C68.7000042,0.109241379 69.4649965,0.238343834 70.165,0.496551724 C70.8650035,0.754759614 71.4699975,1.12220491 71.98,1.59889655 C72.4900026,2.07558819 72.8874986,2.65406599 73.1725,3.33434483 C73.4575015,4.01462367 73.6,4.77682361 73.6,5.62096552 C73.6,6.44524535 73.4575015,7.19751426 73.1725,7.8777931 C72.8874986,8.55807194 72.4900026,9.14399801 71.98,9.63558621 C71.4699975,10.1271744 70.8650035,10.5095162 70.165,10.7826207 C69.4649965,11.0557251 68.7000042,11.1922759 67.87,11.1922759 C67.0499959,11.1922759 66.2925035,11.0557251 65.5975,10.7826207 C64.9024966,10.5095162 64.3025026,10.1271744 63.7975,9.63558621 C63.2924975,9.14399801 62.8975015,8.55807194 62.6125,7.8777931 C62.3274986,7.19751426 62.185,6.44524535 62.185,5.62096552 Z M64.24,5.62096552 C64.24,6.18703746 64.3274992,6.70592905 64.5025,7.17765517 C64.6775009,7.6493813 64.9274984,8.0590325 65.2525,8.40662069 C65.5775017,8.75420888 65.9624978,9.02482659 66.4075,9.21848276 C66.8525023,9.41213892 67.3449973,9.50896552 67.885,9.50896552 C68.4250027,9.50896552 68.9199978,9.41213892 69.37,9.21848276 C69.8200023,9.02482659 70.2074984,8.75420888 70.5325,8.40662069 C70.8575017,8.0590325 71.1074992,7.6493813 71.2825,7.17765517 C71.4575009,6.70592905 71.545,6.18703746 71.545,5.62096552 C71.545,5.07475564 71.4575009,4.56827785 71.2825,4.10151724 C71.1074992,3.63475663 70.8600016,3.22758819 70.54,2.88 C70.2199984,2.53241181 69.8350023,2.25931134 69.385,2.06068966 C68.9349978,1.86206797 68.4350028,1.76275862 67.885,1.76275862 C67.3349973,1.76275862 66.8375023,1.86206797 66.3925,2.06068966 C65.9474978,2.25931134 65.5650016,2.53241181 65.245,2.88 C64.9249984,3.22758819 64.6775009,3.63475663 64.5025,4.10151724 C64.3274992,4.56827785 64.24,5.07475564 64.24,5.62096552 Z M79.13,0.37737931 L82.82,0.37737931 C83.320003,0.37737931 83.804998,0.429516248 84.275,0.533793103 C84.745002,0.638069959 85.162498,0.809378317 85.5275,1.04772414 C85.892502,1.28606996 86.184999,1.59889457 86.405,1.9862069 C86.625001,2.37351923 86.735,2.8452384 86.735,3.40137931 C86.735,4.16607294 86.517502,4.78923939 86.0825,5.27089655 C85.647498,5.75255371 85.055004,6.07779211 84.305,6.24662069 L87.14,10.9241379 L84.86,10.9241379 L82.4,6.45517241 L81.02,6.45517241 L81.02,10.9241379 L79.13,10.9241379 L79.13,0.37737931 Z M82.565,4.92082759 C82.835001,4.92082759 83.104999,4.90096552 83.375,4.86124138 C83.645001,4.82151724 83.887499,4.74703548 84.1025,4.6377931 C84.317501,4.52855073 84.494999,4.37213892 84.635,4.16855172 C84.775001,3.96496452 84.845,3.70427785 84.845,3.38648276 C84.845,3.09848177 84.780001,2.86262168 84.65,2.67889655 C84.519999,2.49517142 84.355001,2.34869065 84.155,2.23944828 C83.954999,2.1302059 83.727501,2.05572414 83.4725,2.016 C83.217499,1.97627586 82.970001,1.95641379 82.73,1.95641379 L81.02,1.95641379 L81.02,4.92082759 L82.565,4.92082759 Z M92.265,0.37737931 L95.22,0.37737931 L97.98,7.87034483 L98.025,7.87034483 L100.755,0.37737931 L103.725,0.37737931 L103.725,10.9241379 L101.85,10.9241379 L101.85,2.448 L101.82,2.448 L98.595,10.9241379 L97.275,10.9241379 L94.095,2.448 L94.065,2.448 L94.065,10.9241379 L92.265,10.9241379 L92.265,0.37737931 Z" id="path-1"></path>
                <path d="M0.5749998,0.37737931 L4.0399998,0.37737931 C4.6500029,0.37737931 5.1999974,0.431999007 5.6899998,0.541241379 C6.1800023,0.650483752 6.5999981,0.829240386 6.9499998,1.07751724 C7.3000016,1.3257941 7.5699989,1.64358422 7.7599998,2.03089655 C7.9500008,2.41820888 8.0449998,2.88496254 8.0449998,3.43117241 C8.0449998,4.01710643 7.9350009,4.50868767 7.7149998,4.90593103 C7.4949987,5.3031744 7.1975017,5.62344728 6.8224998,5.86675862 C6.4474979,6.11006996 6.0100023,6.28634383 5.5099998,6.39558621 C5.0099973,6.50482858 4.4800026,6.55944828 3.9199998,6.55944828 L2.4649998,6.55944828 L2.4649998,10.9241379 L0.5749998,10.9241379 L0.5749998,0.37737931 Z M3.7849998,4.98041379 C4.0950014,4.98041379 4.3899984,4.95806897 4.6699998,4.91337931 C4.9500012,4.86868966 5.1999987,4.78924237 5.4199998,4.67503448 C5.6400009,4.56082659 5.8149992,4.40441479 5.9449998,4.2057931 C6.0750005,4.00717142 6.1399998,3.7489675 6.1399998,3.43117241 C6.1399998,3.12330836 6.0750005,2.87255272 5.9449998,2.67889655 C5.8149992,2.48524039 5.6425009,2.3337941 5.4274998,2.22455172 C5.2124987,2.11530935 4.9675012,2.04331034 4.6924998,2.00855172 C4.4174984,1.9737931 4.1350013,1.95641379 3.8449998,1.95641379 L2.4649998,1.95641379 L2.4649998,4.98041379 L3.7849998,4.98041379 Z M13.4249999,0.37737931 L15.3149999,0.37737931 L15.3149999,9.25572414 L19.8299999,9.25572414 L19.8299999,10.9241379 L13.4249999,10.9241379 L13.4249999,0.37737931 Z M28.1199999,0.37737931 L29.7549999,0.37737931 L34.3299999,10.9241379 L32.1699999,10.9241379 L31.1799999,8.51089655 L26.5749999,8.51089655 L25.6149999,10.9241379 L23.4999999,10.9241379 L28.1199999,0.37737931 Z M30.5199999,6.90206897 L28.8849999,2.61186207 L27.2199999,6.90206897 L30.5199999,6.90206897 Z M40.325,2.016 L37.07,2.016 L37.07,0.37737931 L45.47,0.37737931 L45.47,2.016 L42.215,2.016 L42.215,10.9241379 L40.325,10.9241379 L40.325,2.016 Z M50.4,0.37737931 L57.255,0.37737931 L57.255,2.016 L52.29,2.016 L52.29,4.90593103 L56.97,4.90593103 L56.97,6.48496552 L52.29,6.48496552 L52.29,10.9241379 L50.4,10.9241379 L50.4,0.37737931 Z M62.185,5.62096552 C62.185,4.77682361 62.3274986,4.01462367 62.6125,3.33434483 C62.8975015,2.65406599 63.2924975,2.07558819 63.7975,1.59889655 C64.3025026,1.12220491 64.9024966,0.754759614 65.5975,0.496551724 C66.2925035,0.238343834 67.0499959,0.109241379 67.87,0.109241379 C68.7000042,0.109241379 69.4649965,0.238343834 70.165,0.496551724 C70.8650035,0.754759614 71.4699975,1.12220491 71.98,1.59889655 C72.4900026,2.07558819 72.8874986,2.65406599 73.1725,3.33434483 C73.4575015,4.01462367 73.6,4.77682361 73.6,5.62096552 C73.6,6.44524535 73.4575015,7.19751426 73.1725,7.8777931 C72.8874986,8.55807194 72.4900026,9.14399801 71.98,9.63558621 C71.4699975,10.1271744 70.8650035,10.5095162 70.165,10.7826207 C69.4649965,11.0557251 68.7000042,11.1922759 67.87,11.1922759 C67.0499959,11.1922759 66.2925035,11.0557251 65.5975,10.7826207 C64.9024966,10.5095162 64.3025026,10.1271744 63.7975,9.63558621 C63.2924975,9.14399801 62.8975015,8.55807194 62.6125,7.8777931 C62.3274986,7.19751426 62.185,6.44524535 62.185,5.62096552 Z M64.24,5.62096552 C64.24,6.18703746 64.3274992,6.70592905 64.5025,7.17765517 C64.6775009,7.6493813 64.9274984,8.0590325 65.2525,8.40662069 C65.5775017,8.75420888 65.9624978,9.02482659 66.4075,9.21848276 C66.8525023,9.41213892 67.3449973,9.50896552 67.885,9.50896552 C68.4250027,9.50896552 68.9199978,9.41213892 69.37,9.21848276 C69.8200023,9.02482659 70.2074984,8.75420888 70.5325,8.40662069 C70.8575017,8.0590325 71.1074992,7.6493813 71.2825,7.17765517 C71.4575009,6.70592905 71.545,6.18703746 71.545,5.62096552 C71.545,5.07475564 71.4575009,4.56827785 71.2825,4.10151724 C71.1074992,3.63475663 70.8600016,3.22758819 70.54,2.88 C70.2199984,2.53241181 69.8350023,2.25931134 69.385,2.06068966 C68.9349978,1.86206797 68.4350028,1.76275862 67.885,1.76275862 C67.3349973,1.76275862 66.8375023,1.86206797 66.3925,2.06068966 C65.9474978,2.25931134 65.5650016,2.53241181 65.245,2.88 C64.9249984,3.22758819 64.6775009,3.63475663 64.5025,4.10151724 C64.3274992,4.56827785 64.24,5.07475564 64.24,5.62096552 Z M79.13,0.37737931 L82.82,0.37737931 C83.320003,0.37737931 83.804998,0.429516248 84.275,0.533793103 C84.745002,0.638069959 85.162498,0.809378317 85.5275,1.04772414 C85.892502,1.28606996 86.184999,1.59889457 86.405,1.9862069 C86.625001,2.37351923 86.735,2.8452384 86.735,3.40137931 C86.735,4.16607294 86.517502,4.78923939 86.0825,5.27089655 C85.647498,5.75255371 85.055004,6.07779211 84.305,6.24662069 L87.14,10.9241379 L84.86,10.9241379 L82.4,6.45517241 L81.02,6.45517241 L81.02,10.9241379 L79.13,10.9241379 L79.13,0.37737931 Z M82.565,4.92082759 C82.835001,4.92082759 83.104999,4.90096552 83.375,4.86124138 C83.645001,4.82151724 83.887499,4.74703548 84.1025,4.6377931 C84.317501,4.52855073 84.494999,4.37213892 84.635,4.16855172 C84.775001,3.96496452 84.845,3.70427785 84.845,3.38648276 C84.845,3.09848177 84.780001,2.86262168 84.65,2.67889655 C84.519999,2.49517142 84.355001,2.34869065 84.155,2.23944828 C83.954999,2.1302059 83.727501,2.05572414 83.4725,2.016 C83.217499,1.97627586 82.970001,1.95641379 82.73,1.95641379 L81.02,1.95641379 L81.02,4.92082759 L82.565,4.92082759 Z M92.265,0.37737931 L95.22,0.37737931 L97.98,7.87034483 L98.025,7.87034483 L100.755,0.37737931 L103.725,0.37737931 L103.725,10.9241379 L101.85,10.9241379 L101.85,2.448 L101.82,2.448 L98.595,10.9241379 L97.275,10.9241379 L94.095,2.448 L94.065,2.448 L94.065,10.9241379 L92.265,10.9241379 L92.265,0.37737931 Z" id="path-1"></path>
            </g>
            <g id="Page-1" transform="translate(24.000000, 0.000000)">
                <path d="M105.666,56.7637076 C106.044,56.6207007 106.239,56.2026041 106.102,55.8282041 L94.149,21.6277076 C94.012,21.2543007 93.594,21.0685903 93.215,21.2115972 L62.196,37.2581628 C61.817,37.4021628 61.622,37.8212524 61.761,38.1946593 L69.279,58.5731421 L101.726,58.5731421 L105.666,56.7637076 Z" id="Fill-1" fill="#39457D"></path>
                <path d="M56.4053,36.3886014 C56.2673,36.0151945 56.4633,35.5961048 56.8413,35.4530979 L86.4273,20.1463945 L83.3873,11.4468083 C83.2113,10.9691255 82.6763,10.7307807 82.1923,10.9145048 L42.5533,31.422091 C42.0703,31.6048221 41.8203,32.1410979 41.9973,32.6177876 L51.5733,58.5735393 L64.5903,58.5735393 L56.4053,36.3886014 Z" id="Fill-3" fill="#39457D"></path>
                <g id="Group-7" transform="translate(22.000000, 0.026814)">
                    <g id="Fill-5-Clipped">
                        <g>
                            <mask id="mask-2" fill="white">
                                <use xlink:href="#path-1"></use>
                            </mask>
                            <g id="path-2"></g>
                            <path d="M14.54,30.7842207 C14.364,30.307531 14.613,29.7712552 15.098,29.5885241 L51.615,10.6957241 L48.456,1.65550345 C48.252,1.10135172 47.631,0.825268966 47.069,1.0377931 L1.082,24.8305655 C0.52,25.0430897 0.23,25.6637793 0.436,26.2169379 L12.363,58.5464276 L24.783,58.5464276 L14.54,30.7842207 Z" id="Fill-5" fill="#39457D" mask="url(#mask-2)"></path>
                        </g>
                    </g>
                </g>
                <path d="M18.4053,27.6029131 L29.8183,58.5738372 L10.9453,58.5817821 C10.7873,58.5817821 10.6463,58.4824717 10.5953,58.3335062 L6.1663,45.4658648 C6.1303,45.361589 6.1423,45.246389 6.2023,45.1520441 L17.7453,27.534389 C17.9083,27.2761821 18.2993,27.3168993 18.4053,27.6029131" id="Fill-8" fill="#39457D"></path>
                <g id="Group-12" transform="translate(0.000000, 77.488883)">
                    <g id="Fill-10-Clipped">
                        <g>
                            <mask id="mask-4" fill="white">
                                <use xlink:href="#path-3"></use>
                            </mask>
                            <g id="path-4"></g>
                            <path d="M10.668,3.92097103 C9.791,2.64185379 8.513,2.00229517 6.832,2.00229517 C6.31,2.00229517 5.796,2.07181241 5.292,2.2108469 C4.788,2.34988138 4.336,2.56339862 3.935,2.85040552 C3.533,3.13840552 3.211,3.5088331 2.969,3.96268138 C2.726,4.41752276 2.605,4.94982621 2.605,5.56157793 C2.605,6.45139862 2.856,7.14259862 3.36,7.63319172 C3.864,8.12378483 4.489,8.52797793 5.236,8.84279172 C5.982,9.15760552 6.8,9.44064 7.687,9.69189517 C8.572,9.94116414 9.39,10.2748469 10.137,10.6919503 C10.883,11.1090538 11.509,11.6612193 12.013,12.3464607 C12.517,13.0326952 12.769,13.9691917 12.769,15.1559503 C12.769,16.0447779 12.577,16.8472055 12.194,17.5602538 C11.812,18.2742952 11.308,18.8721434 10.683,19.3537986 C10.057,19.8354538 9.356,20.2058814 8.582,20.4660745 C7.808,20.7252745 7.028,20.855371 6.244,20.855371 C5.03,20.855371 3.878,20.6279503 2.786,20.1741021 C1.694,19.7202538 0.766,18.9744331 0,17.9356469 L1.849,16.6287228 C2.276,17.3517021 2.872,17.9306814 3.635,18.3666538 C4.397,18.8026262 5.3,19.0201159 6.342,19.0201159 C6.844,19.0201159 7.347,18.9416607 7.849,18.7837572 C8.352,18.6268469 8.803,18.3944607 9.203,18.0885848 C9.603,17.782709 9.933,17.4073159 10.193,16.9624055 C10.454,16.5184883 10.584,16.0080331 10.584,15.4330262 C10.584,14.7467917 10.439,14.1777434 10.15,13.7229021 C9.86,13.2690538 9.479,12.8886952 9.002,12.5828193 C8.526,12.2769434 7.984,12.022709 7.378,11.8181297 C6.772,11.6145434 6.147,11.4109572 5.502,11.2063779 C4.858,11.0027917 4.232,10.7704055 3.626,10.5112055 C3.02,10.2520055 2.479,9.92328828 2.002,9.52505379 C1.526,9.12582621 1.144,8.62530207 0.855,8.02248828 C0.564,7.41967448 0.42,6.66491586 0.42,5.75622621 C0.42,4.81079172 0.603,3.98552276 0.967,3.28141241 C1.33,2.57630897 1.815,1.99335724 2.422,1.52957793 C3.028,1.06679172 3.715,0.723177931 4.481,0.500722759 C5.245,0.278267586 6.029,0.16704 6.832,0.16704 C7.952,0.16704 8.97,0.34281931 9.885,0.695371034 C10.799,1.04692966 11.648,1.66861241 12.433,2.5584331 L10.668,3.92097103 Z" id="Fill-10" fill="#39457D" mask="url(#mask-4)"></path>
                        </g>
                    </g>
                </g>
                <path d="M22.96,86.4986152 L19.181,86.4986152 L19.181,94.1743117 C19.181,94.6559669 19.227,95.0492359 19.32,95.3551117 C19.413,95.6609876 19.544,95.8973462 19.712,96.0641876 C19.88,96.231029 20.081,96.3472221 20.314,96.4117738 C20.548,96.4773186 20.805,96.5090979 21.084,96.5090979 C21.401,96.5090979 21.729,96.4634152 22.064,96.3700634 C22.4,96.2777048 22.708,96.1575393 22.988,96.0085738 L23.072,97.7047945 C22.382,98.0206014 21.551,98.1775117 20.58,98.1775117 C20.226,98.1775117 19.856,98.1308359 19.475,98.0384772 C19.092,97.9451255 18.741,97.7703393 18.424,97.5101462 C18.106,97.2509462 17.846,96.8983945 17.641,96.4534841 C17.435,96.0085738 17.332,95.424629 17.332,94.7016497 L17.332,86.4986152 L14.561,86.4986152 L14.561,84.8302014 L17.332,84.8302014 L17.332,81.159691 L19.181,81.159691 L19.181,84.8302014 L22.96,84.8302014 L22.96,86.4986152 Z" id="Fill-13" fill="#39457D"></path>
                <path d="M32.9277,91.3652193 C32.4607,91.3652193 31.8777,91.3880607 31.1777,91.4337434 C30.4787,91.4804193 29.8057,91.59264 29.1617,91.7674262 C28.5187,91.9441986 27.9677,92.2173021 27.5097,92.5877297 C27.0527,92.9591503 26.8237,93.4686124 26.8237,94.117109 C26.8237,94.5441434 26.9117,94.9096055 27.0897,95.2164745 C27.2677,95.5223503 27.5047,95.7716193 27.8037,95.9672607 C28.1027,96.161909 28.4347,96.3009434 28.7977,96.3843641 C29.1617,96.4677848 29.5307,96.5094952 29.9047,96.5094952 C30.5757,96.5094952 31.1587,96.3972745 31.6547,96.1758124 C32.1487,95.9533572 32.5647,95.6514538 32.9007,95.2720883 C33.2367,94.8927228 33.4837,94.4478124 33.6427,93.9373572 C33.8007,93.4269021 33.8797,92.8846676 33.8797,92.3106538 L33.8797,91.3652193 L32.9277,91.3652193 Z M33.8797,89.8626538 L33.8797,89.528971 C33.8797,87.2875366 32.7597,86.1653297 30.5207,86.1653297 C28.9897,86.1653297 27.6547,86.6747917 26.5157,87.694709 L25.3967,86.3867917 C26.6277,85.1275366 28.4767,84.4969159 30.9407,84.4969159 C31.5737,84.4969159 32.1867,84.5902676 32.7747,84.7739917 C33.3627,84.9606952 33.8697,85.2427366 34.2997,85.6230952 C34.7297,86.0034538 35.0737,86.4801434 35.3357,87.0551503 C35.5977,87.6291641 35.7287,88.3163917 35.7287,89.1118676 L35.7287,94.9245021 C35.7287,95.4250262 35.7507,95.9483917 35.7977,96.4955917 C35.8447,97.0427917 35.8967,97.4916745 35.9517,97.8432331 L34.1597,97.8432331 C34.1047,97.5284193 34.0627,97.1857986 34.0337,96.8143779 C34.0057,96.4439503 33.9917,96.0834538 33.9917,95.7309021 L33.9367,95.7309021 C33.3947,96.6018538 32.7547,97.227509 32.0187,97.6078676 C31.2807,97.9872331 30.3797,98.1769159 29.3167,98.1769159 C28.7377,98.1769159 28.1777,98.0984607 27.6357,97.9415503 C27.0947,97.7836469 26.6147,97.5433159 26.1947,97.218571 C25.7747,96.8938262 25.4387,96.4955917 25.1867,96.0218814 C24.9347,95.5501572 24.8087,94.9979917 24.8087,94.367371 C24.8087,93.3117021 25.0827,92.4814676 25.6337,91.8796469 C26.1847,91.2768331 26.8747,90.8269572 27.7057,90.5310124 C28.5357,90.2340745 29.4227,90.0493572 30.3657,89.9748745 C31.3087,89.9003917 32.1717,89.8626538 32.9557,89.8626538 L33.8797,89.8626538 Z" id="Fill-15" fill="#39457D" fill-rule="nonzero"></path>
                <path d="M49.5596,87.8893572 C49.2426,87.4077021 48.7986,86.9995366 48.2296,86.6658538 C47.6606,86.332171 47.0116,86.1653297 46.2846,86.1653297 C45.5186,86.1464607 44.8316,86.2666262 44.2256,86.5268193 C43.6196,86.7870124 43.1006,87.147509 42.6716,87.6112883 C42.2426,88.0750676 41.9156,88.6252469 41.6916,89.2657986 C41.4676,89.9043641 41.3556,90.5965572 41.3556,91.3374124 C41.3556,92.0792607 41.4676,92.7694676 41.6916,93.4090262 C41.9156,94.0485848 42.2426,94.5997572 42.6716,95.0635366 C43.1006,95.5263228 43.6196,95.8888055 44.2256,96.1470124 C44.8316,96.4072055 45.5186,96.527371 46.2846,96.5094952 C47.0116,96.5094952 47.6606,96.3426538 48.2296,96.008971 C48.7986,95.6752883 49.2426,95.2681159 49.5596,94.7844745 L51.0726,95.9255503 C50.4176,96.6852745 49.6806,97.2463779 48.8596,97.6078676 C48.0386,97.9683641 47.1796,98.15904 46.2846,98.1769159 C45.2196,98.1957848 44.2576,98.033909 43.3996,97.6912883 C42.5406,97.3476745 41.8086,96.8709848 41.2026,96.2592331 C40.5946,95.6474814 40.1326,94.9195366 39.8156,94.0753986 C39.4976,93.2332469 39.3396,92.3195917 39.3396,91.3374124 C39.3396,90.35424 39.4976,89.4415779 39.8156,88.5984331 C40.1326,87.7542952 40.5946,87.0273434 41.2026,86.4155917 C41.8086,85.8028469 42.5406,85.3261572 43.3996,84.9825434 C44.2576,84.6409159 45.2196,84.4780469 46.2846,84.4969159 C47.1796,84.5157848 48.0386,84.7054676 48.8596,85.0659641 C49.6806,85.4274538 50.4176,85.9895503 51.0726,86.7492745 L49.5596,87.8893572 Z" id="Fill-17" fill="#39457D"></path>
                <polygon id="Fill-19" fill="#39457D" points="55.3555 90.6979531 61.5425 84.8306979 64.3155 84.8306979 57.7915 90.7813738 65.0155 97.8433324 62.1595 97.8433324 55.3555 91.003829 55.3555 97.8433324 53.5075 97.8433324 53.5075 76.8213186 55.3555 76.8213186"></polygon>
                <path d="M69.6914,86.8603034 L73.2754,86.8603034 C74.1714,86.8603034 74.9314,86.7669517 75.5574,86.5822345 C76.1824,86.3965241 76.6814,86.1512276 77.0554,85.8453517 C77.4284,85.5394759 77.6994,85.1779862 77.8674,84.7608828 C78.0354,84.3437793 78.1194,83.8948966 78.1194,83.4112552 C78.1194,82.9494621 78.0354,82.5085241 77.8674,82.0914207 C77.6994,81.6733241 77.4284,81.3078621 77.0554,80.9930483 C76.6814,80.6772414 76.1824,80.4319448 75.5574,80.2561655 C74.9314,80.0803862 74.1714,79.992 73.2754,79.992 L69.6914,79.992 L69.6914,86.8603034 Z M69.6914,97.8440276 L67.6754,97.8440276 L67.6754,78.1557517 L73.7794,78.1557517 C75.7954,78.1557517 77.3864,78.5927172 78.5534,79.463669 C79.7194,80.3356138 80.3034,81.6514759 80.3034,83.4112552 C80.3034,84.7837241 79.8694,85.9377103 79.0024,86.8742069 C78.1334,87.8107034 76.8784,88.3529379 75.2354,88.4999172 L80.9474,97.8440276 L78.4834,97.8440276 L73.0514,88.6955586 L69.6914,88.6955586 L69.6914,97.8440276 Z" id="Fill-21" fill="#39457D" fill-rule="nonzero"></path>
                <path d="M94.835,91.3370152 C94.835,90.6140359 94.718,89.9377324 94.485,89.3071117 C94.251,88.676491 93.92,88.1302841 93.491,87.6665048 C93.062,87.2037186 92.543,86.8372634 91.938,86.5681324 C91.33,86.2999945 90.645,86.1649324 89.879,86.1649324 C89.113,86.1649324 88.428,86.2999945 87.821,86.5681324 C87.214,86.8372634 86.701,87.2037186 86.281,87.6665048 C85.861,88.1302841 85.534,88.676491 85.301,89.3071117 C85.067,89.9377324 84.951,90.6140359 84.951,91.3370152 C84.951,92.0599945 85.067,92.7362979 85.301,93.3669186 C85.534,93.9975393 85.861,94.5437462 86.281,95.0075255 C86.701,95.4713048 87.214,95.8367669 87.821,96.1058979 C88.428,96.375029 89.113,96.5090979 89.879,96.5090979 C90.645,96.5090979 91.33,96.375029 91.938,96.1058979 C92.543,95.8367669 93.062,95.4713048 93.491,95.0075255 C93.92,94.5437462 94.251,93.9975393 94.485,93.3669186 C94.718,92.7362979 94.835,92.0599945 94.835,91.3370152 M96.851,91.3370152 C96.851,92.3191945 96.679,93.2278841 96.333,94.062091 C95.987,94.8962979 95.507,95.6192772 94.891,96.231029 C94.275,96.8427807 93.542,97.3194703 92.693,97.6630841 C91.844,98.0057048 90.905,98.1775117 89.879,98.1775117 C88.871,98.1775117 87.942,98.0057048 87.093,97.6630841 C86.243,97.3194703 85.511,96.8427807 84.896,96.231029 C84.279,95.6192772 83.798,94.8962979 83.453,94.062091 C83.107,93.2278841 82.936,92.3191945 82.936,91.3370152 C82.936,90.3548359 83.107,89.4461462 83.453,88.6119393 C83.798,87.7777324 84.279,87.0547531 84.896,86.4430014 C85.511,85.8312497 86.243,85.35456 87.093,85.0109462 C87.942,84.6683255 88.871,84.4965186 89.879,84.4965186 C90.905,84.4965186 91.844,84.6683255 92.693,85.0109462 C93.542,85.35456 94.275,85.8312497 94.891,86.4430014 C95.507,87.0547531 95.987,87.7777324 96.333,88.6119393 C96.679,89.4461462 96.851,90.3548359 96.851,91.3370152" id="Fill-23" fill="#39457D" fill-rule="nonzero"></path>
                <g id="Group-27" transform="translate(98.000000, 84.440607)">
                    <g id="Fill-25-Clipped">
                        <g>
                            <mask id="mask-6" fill="white">
                                <use xlink:href="#path-5"></use>
                            </mask>
                            <g id="path-6"></g>
                            <polygon id="Fill-25" fill="#39457D" mask="url(#mask-6)" points="5.5986 6.45129931 0.8386 0.389395862 3.3586 0.389395862 6.9986 5.25560276 10.4706 0.389395862 12.7666 0.389395862 8.2026 6.45129931 13.6906 13.4030234 11.1706 13.4030234 6.7746 7.70260966 2.5466 13.4030234 0.1946 13.4030234"></polygon>
                        </g>
                    </g>
                </g>
            </g>
        </g>
    </g>
</svg>