<svg id="Layer_1" data-name="Layer 1" xmlns="http://www.w3.org/2000/svg" viewBox="0 0 166 140"><defs><style>.cls-1{fill:#1c355e;}</style></defs><title>StackRox_Logo_Tall_DkBlue</title><path class="cls-1" d="M142.88,83.89a.89.89,0,0,0,.52-1.13L129,41.37a.88.88,0,0,0-1.13-.51L90.63,60.28a.9.9,0,0,0-.52,1.14l9,24.66h39Z"/><path class="cls-1" d="M83.67,59.23a.89.89,0,0,1,.53-1.13l35.55-18.52L116.1,29.05a1.11,1.11,0,0,0-1.44-.65L67,53.22a1.13,1.13,0,0,0-.67,1.45L77.87,86.08H93.51Z"/><path class="cls-1" d="M59.8,52.48A1.15,1.15,0,0,1,60.47,51l43.89-22.86-3.8-10.94a1.29,1.29,0,0,0-1.67-.75L43.62,45.28A1.31,1.31,0,0,0,42.85,47L57.18,86.08H72.11Z"/><path class="cls-1" d="M38,48.6,51.72,86.08H29a.44.44,0,0,1-.42-.3L23.29,70.22a.46.46,0,0,1,.05-.38L37.21,48.52A.44.44,0,0,1,38,48.6Z"/><path class="cls-1" d="M28.7,103.72a5.22,5.22,0,0,0-4.61-2.33,6.83,6.83,0,0,0-1.85.26,4.9,4.9,0,0,0-1.63.77,3.9,3.9,0,0,0-1.16,1.35A4.07,4.07,0,0,0,19,105.7a3.35,3.35,0,0,0,.91,2.51,7.28,7.28,0,0,0,2.26,1.46,24,24,0,0,0,2.94,1,13.33,13.33,0,0,1,2.94,1.21,7,7,0,0,1,2.26,2,5.71,5.71,0,0,1,.91,3.4,6.07,6.07,0,0,1-.69,2.91,6.62,6.62,0,0,1-1.82,2.17,8.49,8.49,0,0,1-2.52,1.35,8.86,8.86,0,0,1-2.81.47,10.83,10.83,0,0,1-4.16-.82,8,8,0,0,1-3.35-2.71l2.22-1.59a5.81,5.81,0,0,0,2.15,2.11,6.39,6.39,0,0,0,3.25.79,6.07,6.07,0,0,0,1.82-.29,5.2,5.2,0,0,0,1.62-.84,4.58,4.58,0,0,0,1.19-1.36,3.56,3.56,0,0,0,.47-1.85,3.79,3.79,0,0,0-.52-2.07,4.54,4.54,0,0,0-1.38-1.38,8.8,8.8,0,0,0-1.95-.93l-2.25-.74a21,21,0,0,1-2.26-.84,7.66,7.66,0,0,1-1.95-1.19,5.49,5.49,0,0,1-1.38-1.82,6.32,6.32,0,0,1-.52-2.74,6.57,6.57,0,0,1,.65-3,6.25,6.25,0,0,1,1.75-2.12,7.51,7.51,0,0,1,2.48-1.24,10,10,0,0,1,2.82-.41,10.2,10.2,0,0,1,3.67.64,7.9,7.9,0,0,1,3.06,2.26Z"/><path class="cls-1" d="M43.48,109.87H38.93v9.29a5.08,5.08,0,0,0,.17,1.43,2,2,0,0,0,.47.86,1.73,1.73,0,0,0,.73.42,3.36,3.36,0,0,0,.92.12,4.49,4.49,0,0,0,1.18-.17,5.47,5.47,0,0,0,1.11-.44l.1,2.06a7.15,7.15,0,0,1-3,.57,5.71,5.71,0,0,1-1.33-.17A3.14,3.14,0,0,1,38,123.2a3.43,3.43,0,0,1-1-1.28,5.24,5.24,0,0,1-.37-2.12v-9.93H33.38v-2h3.33v-4.45h2.22v4.45h4.55Z"/><path class="cls-1" d="M56.6,114v-.41q0-4.07-4-4.07a7,7,0,0,0-4.81,1.85l-1.35-1.58q2.24-2.3,6.67-2.29a7.07,7.07,0,0,1,2.2.34,4.94,4.94,0,0,1,1.84,1,5.09,5.09,0,0,1,1.24,1.74,6,6,0,0,1,.47,2.49v7c0,.61,0,1.24.09,1.9s.11,1.21.18,1.63H56.94a10.8,10.8,0,0,1-.15-1.24c0-.45-.06-.89-.06-1.31h-.06a6,6,0,0,1-2.31,2.27,7,7,0,0,1-3.24.69,7.15,7.15,0,0,1-2-.29,5.27,5.27,0,0,1-1.74-.87,4.58,4.58,0,0,1-1.21-1.45,4.24,4.24,0,0,1-.45-2,4.3,4.3,0,0,1,1-3,6.06,6.06,0,0,1,2.49-1.64,12.21,12.21,0,0,1,3.2-.67c1.13-.09,2.17-.13,3.11-.13Zm-1.14,1.81c-.56,0-1.26,0-2.11.09a11.88,11.88,0,0,0-2.42.4,5.35,5.35,0,0,0-2,1,2.24,2.24,0,0,0-.83,1.85,2.64,2.64,0,0,0,.32,1.33,2.59,2.59,0,0,0,.86.91,3.6,3.6,0,0,0,1.19.51,6,6,0,0,0,1.33.15,5.09,5.09,0,0,0,2.11-.41,4.2,4.2,0,0,0,1.49-1.09,4.3,4.3,0,0,0,.89-1.61,6.7,6.7,0,0,0,.29-2v-1.15Z"/><path class="cls-1" d="M75.45,111.56a4.77,4.77,0,0,0-1.6-1.48,4.49,4.49,0,0,0-2.34-.61,5.73,5.73,0,0,0-2.47.44,5.31,5.31,0,0,0-1.87,1.31,5.64,5.64,0,0,0-1.18,2,8.08,8.08,0,0,0,0,5,5.64,5.64,0,0,0,1.18,2A5.31,5.31,0,0,0,69,121.55a5.73,5.73,0,0,0,2.47.44,4.49,4.49,0,0,0,2.34-.61,4.77,4.77,0,0,0,1.6-1.48l1.81,1.38a7.45,7.45,0,0,1-2.66,2,8,8,0,0,1-3.09.69,8.94,8.94,0,0,1-3.47-.59,7.76,7.76,0,0,1-2.64-1.73A7.57,7.57,0,0,1,63.73,119a9.39,9.39,0,0,1-.57-3.31,9.49,9.49,0,0,1,.57-3.32,7.52,7.52,0,0,1,1.67-2.64A7.76,7.76,0,0,1,68,108a8.94,8.94,0,0,1,3.47-.59,7.82,7.82,0,0,1,3.09.69,7.45,7.45,0,0,1,2.66,2Z"/><path class="cls-1" d="M82.41,115l7.44-7.1h3.33l-7.84,7.2L94,123.6H90.59l-8.18-8.27v8.27H80.19V98.16h2.22Z"/><path class="cls-1" d="M99.64,123.6H97.22V99.78h7.33a9.36,9.36,0,0,1,5.74,1.58,5.61,5.61,0,0,1,2.1,4.78,6,6,0,0,1-1.56,4.19,6.73,6.73,0,0,1-4.53,2l6.87,11.3h-3l-6.53-11.07h-4Zm0-13.29H104a9.49,9.49,0,0,0,2.74-.34,5,5,0,0,0,1.8-.89,3.19,3.19,0,0,0,1-1.31,4.5,4.5,0,0,0,0-3.23,3.32,3.32,0,0,0-1-1.33,4.74,4.74,0,0,0-1.8-.89A10.31,10.31,0,0,0,104,102H99.64Z"/><path class="cls-1" d="M132.28,115.73a8.69,8.69,0,0,1-.62,3.3,7.82,7.82,0,0,1-4.38,4.36,9.44,9.44,0,0,1-6.73,0,8,8,0,0,1-2.64-1.74,7.83,7.83,0,0,1-1.73-2.62,9.09,9.09,0,0,1,0-6.6,7.83,7.83,0,0,1,1.73-2.62,8,8,0,0,1,2.64-1.74,9.44,9.44,0,0,1,6.73,0,7.82,7.82,0,0,1,4.38,4.36A8.69,8.69,0,0,1,132.28,115.73Zm-2.42,0a7.14,7.14,0,0,0-.42-2.46,5.84,5.84,0,0,0-1.2-2,5.55,5.55,0,0,0-1.86-1.33,6.5,6.5,0,0,0-4.95,0,5.32,5.32,0,0,0-1.85,1.33,6,6,0,0,0-1.18,2,7.41,7.41,0,0,0,0,4.92,6,6,0,0,0,1.18,2,5.32,5.32,0,0,0,1.85,1.33,6.5,6.5,0,0,0,4.95,0,5.55,5.55,0,0,0,1.86-1.33,5.84,5.84,0,0,0,1.2-2A7.14,7.14,0,0,0,129.86,115.73Z"/><path class="cls-1" d="M140.39,115.19l-5.72-7.33h3l4.37,5.88,4.18-5.88H149l-5.49,7.33,6.6,8.41h-3l-5.28-6.9-5.09,6.9H133.9Z"/></svg>