<?xml version="1.0" encoding="UTF-8"?>
<svg width="160px" height="143px" viewBox="0 0 160 143" version="1.1" xmlns="http://www.w3.org/2000/svg" xmlns:xlink="http://www.w3.org/1999/xlink">
    <!-- Generator: Sketch 49.1 (51147) - http://www.bohemiancoding.com/sketch -->
    <title>Group 5@2x</title>
    <desc>Created with Sketch.</desc>
    <defs>
        <polygon id="path-1" points="0.369670766 0.973 51.615 0.973 51.615 58.953 0.369670766 58.953"></polygon>
        <polygon id="path-3" points="0 0.1682 12.769 0.1682 12.769 21 0 21"></polygon>
        <polygon id="path-5" points="0.1946 0.3921 13.69 0.3921 13.69 13.4961 0.1946 13.4961"></polygon>
    </defs>
    <g id="Login" stroke="none" stroke-width="1" fill="none" fill-rule="evenodd">
        <g id="sign-on" transform="translate(-393.000000, -193.000000)">
            <g id="Group-6" transform="translate(130.000000, 168.000000)">
                <g id="Group-5" transform="translate(263.000000, 24.000000)">
                    <path d="M0.810346462,115.63249 L159.375809,115.63249" id="Line-2" stroke="#D1D5ED" stroke-width="1.21000005" stroke-linecap="square"></path>
                    <path d="M35.1749434,133.636122 L38.5498534,133.636122 C39.1439963,133.636122 39.6796909,133.689692 40.1569533,133.796832 C40.6342157,133.903973 41.0432916,134.079291 41.3841933,134.322792 C41.725095,134.566293 41.9880723,134.87797 42.1731333,135.257832 C42.3581942,135.637694 42.4507233,136.095469 42.4507233,136.631172 C42.4507233,137.205835 42.3435843,137.68796 42.1293033,138.077562 C41.9150222,138.467164 41.6252601,138.781276 41.2600083,139.019907 C40.8947565,139.258538 40.4686357,139.431422 39.9816333,139.538562 C39.4946309,139.645703 38.9784161,139.699272 38.4329734,139.699272 L37.0158034,139.699272 L37.0158034,143.980002 L35.1749434,143.980002 L35.1749434,133.636122 Z M38.3014834,138.150612 C38.6034249,138.150612 38.890752,138.128697 39.1634733,138.084867 C39.4361947,138.041037 39.6796923,137.963118 39.8939733,137.851107 C40.1082544,137.739097 40.2787027,137.585693 40.4053233,137.390892 C40.5319439,137.196091 40.5952533,136.942854 40.5952533,136.631172 C40.5952533,136.329231 40.5319439,136.083298 40.4053233,135.893367 C40.2787027,135.703436 40.1106894,135.554903 39.9012783,135.447762 C39.6918673,135.340622 39.4532397,135.270007 39.1853883,135.235917 C38.917537,135.201827 38.6423848,135.184782 38.3599234,135.184782 L37.0158034,135.184782 L37.0158034,138.150612 L38.3014834,138.150612 Z M48.0539967,133.636122 L51.6480567,133.636122 C52.1350591,133.636122 52.6074443,133.687257 53.0652266,133.789527 C53.5230089,133.891798 53.9296498,134.059811 54.2851616,134.293572 C54.6406734,134.527333 54.9255655,134.83414 55.1398466,135.214002 C55.3541276,135.593864 55.4612666,136.056509 55.4612666,136.601952 C55.4612666,137.351936 55.2494237,137.963115 54.8257316,138.435507 C54.4020395,138.907899 53.8249503,139.226881 53.0944466,139.392462 L55.8557366,143.980002 L53.6350166,143.980002 L51.2389767,139.597002 L49.8948567,139.597002 L49.8948567,143.980002 L48.0539967,143.980002 L48.0539967,133.636122 Z M51.3996867,138.092172 C51.662668,138.092172 51.9256453,138.072692 52.1886266,138.033732 C52.451608,137.994772 52.6878006,137.921723 52.8972116,137.814582 C53.1066227,137.707442 53.2795059,137.554038 53.4158666,137.354367 C53.5522273,137.154696 53.6204066,136.899024 53.6204066,136.587342 C53.6204066,136.304881 53.5570972,136.073558 53.4304766,135.893367 C53.303856,135.713176 53.1431476,135.569513 52.9483466,135.462372 C52.7535457,135.355232 52.5319629,135.282182 52.2835916,135.243222 C52.0352204,135.204262 51.7941578,135.184782 51.5603967,135.184782 L49.8948567,135.184782 L49.8948567,138.092172 L51.3996867,138.092172 Z M61.21064,133.636122 L68.0627299,133.636122 L68.0627299,135.243222 L63.0515,135.243222 L63.0515,137.873022 L67.7997499,137.873022 L67.7997499,139.421682 L63.0515,139.421682 L63.0515,142.343682 L68.3257099,142.343682 L68.3257099,143.980002 L61.21064,143.980002 L61.21064,133.636122 Z M72.8040134,133.636122 L74.8640233,133.636122 L77.7129733,141.598572 L77.7714133,141.598572 L80.6495832,133.636122 L82.6365431,133.636122 L78.4873032,143.980002 L76.8948133,143.980002 L72.8040134,133.636122 Z M87.5969766,133.636122 L94.4490665,133.636122 L94.4490665,135.243222 L89.4378366,135.243222 L89.4378366,137.873022 L94.1860865,137.873022 L94.1860865,139.421682 L89.4378366,139.421682 L89.4378366,142.343682 L94.7120465,142.343682 L94.7120465,143.980002 L87.5969766,143.980002 L87.5969766,133.636122 Z M100.47603,133.636122 L102.9159,133.636122 L107.72259,141.379422 L107.75181,141.379422 L107.75181,133.636122 L109.59267,133.636122 L109.59267,143.980002 L107.25507,143.980002 L102.34611,135.988332 L102.31689,135.988332 L102.31689,143.980002 L100.47603,143.980002 L100.47603,133.636122 Z M117.928013,135.243222 L114.757643,135.243222 L114.757643,133.636122 L122.939243,133.636122 L122.939243,135.243222 L119.768873,135.243222 L119.768873,143.980002 L117.928013,143.980002 L117.928013,135.243222 Z" id="PREVENT" fill="#39457D"></path>
                    <g id="Page-1" transform="translate(24.000000, 0.000000)">
                        <path d="M105.666,57.1579 C106.044,57.0139 106.239,56.5929 106.102,56.2159 L94.149,21.7779 C94.012,21.4019 93.594,21.2149 93.215,21.3589 L62.196,37.5169 C61.817,37.6619 61.622,38.0839 61.761,38.4599 L69.279,58.9799 L101.726,58.9799 L105.666,57.1579 Z" id="Fill-1" fill="#39457D"></path>
                        <path d="M56.4053,36.6413 C56.2673,36.2653 56.4633,35.8433 56.8413,35.6993 L86.4273,20.2863 L83.3873,11.5263 C83.2113,11.0453 82.6763,10.8053 82.1923,10.9903 L42.5533,31.6403 C42.0703,31.8243 41.8203,32.3643 41.9973,32.8443 L51.5733,58.9803 L64.5903,58.9803 L56.4053,36.6413 Z" id="Fill-3" fill="#39457D"></path>
                        <g id="Group-7" transform="translate(22.000000, 0.027000)">
                            <mask id="mask-2" fill="white">
                                <use xlink:href="#path-1"></use>
                            </mask>
                            <g id="Clip-6"></g>
                            <path d="M14.54,30.998 C14.364,30.518 14.613,29.978 15.098,29.794 L51.615,10.77 L48.456,1.667 C48.252,1.109 47.631,0.831 47.069,1.045 L1.082,25.003 C0.52,25.217 0.23,25.842 0.436,26.399 L12.363,58.953 L24.783,58.953 L14.54,30.998 Z" id="Fill-5" fill="#39457D" mask="url(#mask-2)"></path>
                        </g>
                        <path d="M18.4053,27.7946 L29.8183,58.9806 L10.9453,58.9886 C10.7873,58.9886 10.6463,58.8886 10.5953,58.7386 L6.1663,45.7816 C6.1303,45.6766 6.1423,45.5606 6.2023,45.4656 L17.7453,27.7256 C17.9083,27.4656 18.2993,27.5066 18.4053,27.7946" id="Fill-8" fill="#39457D"></path>
                        <g id="Group-12" transform="translate(0.000000, 78.027000)">
                            <mask id="mask-4" fill="white">
                                <use xlink:href="#path-3"></use>
                            </mask>
                            <g id="Clip-11"></g>
                            <path d="M10.668,3.9482 C9.791,2.6602 8.513,2.0162 6.832,2.0162 C6.31,2.0162 5.796,2.0862 5.292,2.2262 C4.788,2.3662 4.336,2.5812 3.935,2.8702 C3.533,3.1602 3.211,3.5332 2.969,3.9902 C2.726,4.4482 2.605,4.9842 2.605,5.6002 C2.605,6.4962 2.856,7.1922 3.36,7.6862 C3.864,8.1802 4.489,8.5872 5.236,8.9042 C5.982,9.2212 6.8,9.5062 7.687,9.7592 C8.572,10.0102 9.39,10.3462 10.137,10.7662 C10.883,11.1862 11.509,11.7422 12.013,12.4322 C12.517,13.1232 12.769,14.0662 12.769,15.2612 C12.769,16.1562 12.577,16.9642 12.194,17.6822 C11.812,18.4012 11.308,19.0032 10.683,19.4882 C10.057,19.9732 9.356,20.3462 8.582,20.6082 C7.808,20.8692 7.028,21.0002 6.244,21.0002 C5.03,21.0002 3.878,20.7712 2.786,20.3142 C1.694,19.8572 0.766,19.1062 0,18.0602 L1.849,16.7442 C2.276,17.4722 2.872,18.0552 3.635,18.4942 C4.397,18.9332 5.3,19.1522 6.342,19.1522 C6.844,19.1522 7.347,19.0732 7.849,18.9142 C8.352,18.7562 8.803,18.5222 9.203,18.2142 C9.603,17.9062 9.933,17.5282 10.193,17.0802 C10.454,16.6332 10.584,16.1192 10.584,15.5402 C10.584,14.8492 10.439,14.2762 10.15,13.8182 C9.86,13.3612 9.479,12.9782 9.002,12.6702 C8.526,12.3622 7.984,12.1062 7.378,11.9002 C6.772,11.6952 6.147,11.4902 5.502,11.2842 C4.858,11.0792 4.232,10.8452 3.626,10.5842 C3.02,10.3232 2.479,9.9922 2.002,9.5912 C1.526,9.1892 1.144,8.6852 0.855,8.0782 C0.564,7.4712 0.42,6.7112 0.42,5.7962 C0.42,4.8442 0.603,4.0132 0.967,3.3042 C1.33,2.5942 1.815,2.0072 2.422,1.5402 C3.028,1.0742 3.715,0.7282 4.481,0.5042 C5.245,0.2802 6.029,0.1682 6.832,0.1682 C7.952,0.1682 8.97,0.3452 9.885,0.7002 C10.799,1.0542 11.648,1.6802 12.433,2.5762 L10.668,3.9482 Z" id="Fill-10" fill="#39457D" mask="url(#mask-4)"></path>
                        </g>
                        <path d="M22.96,87.0993 L19.181,87.0993 L19.181,94.8283 C19.181,95.3133 19.227,95.7093 19.32,96.0173 C19.413,96.3253 19.544,96.5633 19.712,96.7313 C19.88,96.8993 20.081,97.0163 20.314,97.0813 C20.548,97.1473 20.805,97.1793 21.084,97.1793 C21.401,97.1793 21.729,97.1333 22.064,97.0393 C22.4,96.9463 22.708,96.8253 22.988,96.6753 L23.072,98.3833 C22.382,98.7013 21.551,98.8593 20.58,98.8593 C20.226,98.8593 19.856,98.8123 19.475,98.7193 C19.092,98.6253 18.741,98.4493 18.424,98.1873 C18.106,97.9263 17.846,97.5713 17.641,97.1233 C17.435,96.6753 17.332,96.0873 17.332,95.3593 L17.332,87.0993 L14.561,87.0993 L14.561,85.4193 L17.332,85.4193 L17.332,81.7233 L19.181,81.7233 L19.181,85.4193 L22.96,85.4193 L22.96,87.0993 Z" id="Fill-13" fill="#39457D"></path>
                        <path d="M32.9277,91.9997 C32.4607,91.9997 31.8777,92.0227 31.1777,92.0687 C30.4787,92.1157 29.8057,92.2287 29.1617,92.4047 C28.5187,92.5827 27.9677,92.8577 27.5097,93.2307 C27.0527,93.6047 26.8237,94.1177 26.8237,94.7707 C26.8237,95.2007 26.9117,95.5687 27.0897,95.8777 C27.2677,96.1857 27.5047,96.4367 27.8037,96.6337 C28.1027,96.8297 28.4347,96.9697 28.7977,97.0537 C29.1617,97.1377 29.5307,97.1797 29.9047,97.1797 C30.5757,97.1797 31.1587,97.0667 31.6547,96.8437 C32.1487,96.6197 32.5647,96.3157 32.9007,95.9337 C33.2367,95.5517 33.4837,95.1037 33.6427,94.5897 C33.8007,94.0757 33.8797,93.5297 33.8797,92.9517 L33.8797,91.9997 L32.9277,91.9997 Z M33.8797,90.4867 L33.8797,90.1507 C33.8797,87.8937 32.7597,86.7637 30.5207,86.7637 C28.9897,86.7637 27.6547,87.2767 26.5157,88.3037 L25.3967,86.9867 C26.6277,85.7187 28.4767,85.0837 30.9407,85.0837 C31.5737,85.0837 32.1867,85.1777 32.7747,85.3627 C33.3627,85.5507 33.8697,85.8347 34.2997,86.2177 C34.7297,86.6007 35.0737,87.0807 35.3357,87.6597 C35.5977,88.2377 35.7287,88.9297 35.7287,89.7307 L35.7287,95.5837 C35.7287,96.0877 35.7507,96.6147 35.7977,97.1657 C35.8447,97.7167 35.8967,98.1687 35.9517,98.5227 L34.1597,98.5227 C34.1047,98.2057 34.0627,97.8607 34.0337,97.4867 C34.0057,97.1137 33.9917,96.7507 33.9917,96.3957 L33.9367,96.3957 C33.3947,97.2727 32.7547,97.9027 32.0187,98.2857 C31.2807,98.6677 30.3797,98.8587 29.3167,98.8587 C28.7377,98.8587 28.1777,98.7797 27.6357,98.6217 C27.0947,98.4627 26.6147,98.2207 26.1947,97.8937 C25.7747,97.5667 25.4387,97.1657 25.1867,96.6887 C24.9347,96.2137 24.8087,95.6577 24.8087,95.0227 C24.8087,93.9597 25.0827,93.1237 25.6337,92.5177 C26.1847,91.9107 26.8747,91.4577 27.7057,91.1597 C28.5357,90.8607 29.4227,90.6747 30.3657,90.5997 C31.3087,90.5247 32.1717,90.4867 32.9557,90.4867 L33.8797,90.4867 Z" id="Fill-15" fill="#39457D"></path>
                        <path d="M49.5596,88.4997 C49.2426,88.0147 48.7986,87.6037 48.2296,87.2677 C47.6606,86.9317 47.0116,86.7637 46.2846,86.7637 C45.5186,86.7447 44.8316,86.8657 44.2256,87.1277 C43.6196,87.3897 43.1006,87.7527 42.6716,88.2197 C42.2426,88.6867 41.9156,89.2407 41.6916,89.8857 C41.4676,90.5287 41.3556,91.2257 41.3556,91.9717 C41.3556,92.7187 41.4676,93.4137 41.6916,94.0577 C41.9156,94.7017 42.2426,95.2567 42.6716,95.7237 C43.1006,96.1897 43.6196,96.5547 44.2256,96.8147 C44.8316,97.0767 45.5186,97.1977 46.2846,97.1797 C47.0116,97.1797 47.6606,97.0117 48.2296,96.6757 C48.7986,96.3397 49.2426,95.9297 49.5596,95.4427 L51.0726,96.5917 C50.4176,97.3567 49.6806,97.9217 48.8596,98.2857 C48.0386,98.6487 47.1796,98.8407 46.2846,98.8587 C45.2196,98.8777 44.2576,98.7147 43.3996,98.3697 C42.5406,98.0237 41.8086,97.5437 41.2026,96.9277 C40.5946,96.3117 40.1326,95.5787 39.8156,94.7287 C39.4976,93.8807 39.3396,92.9607 39.3396,91.9717 C39.3396,90.9817 39.4976,90.0627 39.8156,89.2137 C40.1326,88.3637 40.5946,87.6317 41.2026,87.0157 C41.8086,86.3987 42.5406,85.9187 43.3996,85.5727 C44.2576,85.2287 45.2196,85.0647 46.2846,85.0837 C47.1796,85.1027 48.0386,85.2937 48.8596,85.6567 C49.6806,86.0207 50.4176,86.5867 51.0726,87.3517 L49.5596,88.4997 Z" id="Fill-17" fill="#39457D"></path>
                        <polygon id="Fill-19" fill="#39457D" points="55.3555 91.3278 61.5425 85.4198 64.3155 85.4198 57.7915 91.4118 65.0155 98.5228 62.1595 98.5228 55.3555 91.6358 55.3555 98.5228 53.5075 98.5228 53.5075 77.3548 55.3555 77.3548"></polygon>
                        <path d="M69.6914,87.4635 L73.2754,87.4635 C74.1714,87.4635 74.9314,87.3695 75.5574,87.1835 C76.1824,86.9965 76.6814,86.7495 77.0554,86.4415 C77.4284,86.1335 77.6994,85.7695 77.8674,85.3495 C78.0354,84.9295 78.1194,84.4775 78.1194,83.9905 C78.1194,83.5255 78.0354,83.0815 77.8674,82.6615 C77.6994,82.2405 77.4284,81.8725 77.0554,81.5555 C76.6814,81.2375 76.1824,80.9905 75.5574,80.8135 C74.9314,80.6365 74.1714,80.5475 73.2754,80.5475 L69.6914,80.5475 L69.6914,87.4635 Z M69.6914,98.5235 L67.6754,98.5235 L67.6754,78.6985 L73.7794,78.6985 C75.7954,78.6985 77.3864,79.1385 78.5534,80.0155 C79.7194,80.8935 80.3034,82.2185 80.3034,83.9905 C80.3034,85.3725 79.8694,86.5345 79.0024,87.4775 C78.1334,88.4205 76.8784,88.9665 75.2354,89.1145 L80.9474,98.5235 L78.4834,98.5235 L73.0514,89.3115 L69.6914,89.3115 L69.6914,98.5235 Z" id="Fill-21" fill="#39457D"></path>
                        <path d="M94.835,91.9713 C94.835,91.2433 94.718,90.5623 94.485,89.9273 C94.251,89.2923 93.92,88.7423 93.491,88.2753 C93.062,87.8093 92.543,87.4403 91.938,87.1693 C91.33,86.8993 90.645,86.7633 89.879,86.7633 C89.113,86.7633 88.428,86.8993 87.821,87.1693 C87.214,87.4403 86.701,87.8093 86.281,88.2753 C85.861,88.7423 85.534,89.2923 85.301,89.9273 C85.067,90.5623 84.951,91.2433 84.951,91.9713 C84.951,92.6993 85.067,93.3803 85.301,94.0153 C85.534,94.6503 85.861,95.2003 86.281,95.6673 C86.701,96.1343 87.214,96.5023 87.821,96.7733 C88.428,97.0443 89.113,97.1793 89.879,97.1793 C90.645,97.1793 91.33,97.0443 91.938,96.7733 C92.543,96.5023 93.062,96.1343 93.491,95.6673 C93.92,95.2003 94.251,94.6503 94.485,94.0153 C94.718,93.3803 94.835,92.6993 94.835,91.9713 M96.851,91.9713 C96.851,92.9603 96.679,93.8753 96.333,94.7153 C95.987,95.5553 95.507,96.2833 94.891,96.8993 C94.275,97.5153 93.542,97.9953 92.693,98.3413 C91.844,98.6863 90.905,98.8593 89.879,98.8593 C88.871,98.8593 87.942,98.6863 87.093,98.3413 C86.243,97.9953 85.511,97.5153 84.896,96.8993 C84.279,96.2833 83.798,95.5553 83.453,94.7153 C83.107,93.8753 82.936,92.9603 82.936,91.9713 C82.936,90.9823 83.107,90.0673 83.453,89.2273 C83.798,88.3873 84.279,87.6593 84.896,87.0433 C85.511,86.4273 86.243,85.9473 87.093,85.6013 C87.942,85.2563 88.871,85.0833 89.879,85.0833 C90.905,85.0833 91.844,85.2563 92.693,85.6013 C93.542,85.9473 94.275,86.4273 94.891,87.0433 C95.507,87.6593 95.987,88.3873 96.333,89.2273 C96.679,90.0673 96.851,90.9823 96.851,91.9713" id="Fill-23" fill="#39457D"></path>
                        <g id="Group-27" transform="translate(98.000000, 85.027000)">
                            <mask id="mask-6" fill="white">
                                <use xlink:href="#path-5"></use>
                            </mask>
                            <g id="Clip-26"></g>
                            <polygon id="Fill-25" fill="#39457D" mask="url(#mask-6)" points="5.5986 6.4961 0.8386 0.3921 3.3586 0.3921 6.9986 5.2921 10.4706 0.3921 12.7666 0.3921 8.2026 6.4961 13.6906 13.4961 11.1706 13.4961 6.7746 7.7561 2.5466 13.4961 0.1946 13.4961"></polygon>
                        </g>
                    </g>
                </g>
            </g>
        </g>
    </g>
</svg>