<svg id="Layer_1" data-name="Layer 1" xmlns="http://www.w3.org/2000/svg" viewBox="0 0 376 128"><defs><style>.cls-1{fill:#000301;}.cls-2{fill:#2e5e8a;}</style></defs><title>nexus</title><path class="cls-1" d="M177,41.08V86.33h-2.88l-34.4-39.55V86.33h-3.5V41.08h3l34.32,39.55V41.08Z"/><path class="cls-1" d="M211.64,70.33H188.16a11.67,11.67,0,0,0-.1,1.56,11.36,11.36,0,0,0,3.56,8.45A11.68,11.68,0,0,0,200,83.81q5.67,0,11.08-4.44V83a18.31,18.31,0,0,1-11.47,4A14,14,0,0,1,189,82.45a15.91,15.91,0,0,1-4.21-11.37,15.54,15.54,0,0,1,3.88-10.84,13.29,13.29,0,0,1,19.15-.42q3.81,3.87,3.82,10.51Zm-23.06-2.56h19.3q-1.68-8.71-9.42-8.71a9.46,9.46,0,0,0-6.34,2.28,11.2,11.2,0,0,0-3.54,6.43Z"/><path class="cls-1" d="M230.11,73.25,218.39,86.33H214.3l13.63-15.25L214.3,56.53h4.09L230.11,68.9l11.67-12.37h4.1L232.2,71.08l13.68,15.25h-4.1Z"/><path class="cls-1" d="M270.82,86.33V81.41h-.13a13.86,13.86,0,0,1-4.26,4.24,12.09,12.09,0,0,1-13.49-1.84c-2.1-2.07-3.14-5-3.14-8.81V56.53H253v18.4a9,9,0,0,0,2.27,6.51,7.77,7.77,0,0,0,5.89,2.37,9.49,9.49,0,0,0,5.3-1.43,15.86,15.86,0,0,0,4.39-4.92V56.53H274v29.8Z"/><path class="cls-1" d="M298.71,58.48v3.43q-4.54-3-8.17-3A7.09,7.09,0,0,0,286,60.32a4.41,4.41,0,0,0-1.85,3.59,4.14,4.14,0,0,0,1.13,2.79q1.13,1.27,6.18,3.23T298.09,74a7.72,7.72,0,0,1,1.56,4.7,7.38,7.38,0,0,1-2.82,5.85,10.47,10.47,0,0,1-7,2.38,17,17,0,0,1-8.94-2.72V81.09a21,21,0,0,0,9.36,2.72,6.86,6.86,0,0,0,4.52-1.46,4.6,4.6,0,0,0,1.77-3.72,4.26,4.26,0,0,0-1.15-2.87q-1.16-1.31-6.22-3.32t-6.58-4a7,7,0,0,1-1.5-4.36,7.33,7.33,0,0,1,2.8-5.78A10.16,10.16,0,0,1,290.74,56a15.91,15.91,0,0,1,8,2.53Z"/><path class="cls-2" d="M72.35,41.14H91.24v4.12H72.35Z"/><path class="cls-2" d="M98.36,41.14h18.8v4.12H98.36Z"/><path class="cls-2" d="M72.35,57.47H91.24v4.12H72.35Z"/><path class="cls-1" d="M72.35,65.78H91.24v4.11H72.35Z"/><path class="cls-1" d="M72.35,74H91.24v4.12H72.35Z"/><path class="cls-1" d="M72.42,82.3H91.31v4.12H72.42Z"/><path class="cls-2" d="M72.49,49.5h44.6v4.11H72.49Z"/><path class="cls-2" d="M98.13,57.47h19v4.12h-19Z"/><path class="cls-1" d="M98.13,65.78h19v4.11h-19Z"/><path class="cls-1" d="M98.13,74h19v4.12h-19Z"/><path class="cls-1" d="M98.2,82.3h18.89v4.12H98.2Z"/></svg>