<svg height="170" viewBox="0 0 185 170" width="185" xmlns="http://www.w3.org/2000/svg"><g fill="#606c85" fill-rule="evenodd" transform="translate(21 66)"><path d="m7.85454545 39h-7.85454545v-30.03s0-5.72 5.76-7.54c5.2363636-1.69 8.64 1.69 8.64 1.69l25.7890909 27.69c1.3090909.78 1.8327273 0 1.8327273-.78v-28.6h7.9854545v29.77c0 2.47-2.0945454 5.72-5.2363636 6.89s-6.4145455 1.17-10.3418182-2.21l-24.2181818-26c-.65454546-.65-2.35636365-.78-2.35636365.52z"/><path d="m54.9818182 1.43h7.9854545v26.91c0 2.86 2.4872728 2.86 4.7127273 2.86h35.083636c1.44 0 3.141819-1.69 3.141819-3.51s-1.701819-3.64-3.272728-3.64h-22.7781815c-3.9272728.13-12.0436364-3.51-12.0436364-11.05 0-9.23 7.7236364-11.44 11.2581818-11.7h64.6690911v7.93h-16.101818v29.77h-7.854546v-29.77h-39.5345453c-3.7963636-.26-6.4145454 6.11-.2618182 7.02h24.3490905c3.665455 0 9.687273 3.12 9.818182 10.92 0 7.93-4.712727 11.7-9.818182 11.7h-36.2618177c-5.8909091 0-8.1163637-1.43-10.2109091-3.25-1.9636364-1.95-2.2254546-2.99-2.88-6.89z"/></g></svg>