<?xml version="1.0" encoding="UTF-8"?>
<svg width="56px" height="56px" viewBox="0 0 56 56" version="1.1" xmlns="http://www.w3.org/2000/svg" xmlns:xlink="http://www.w3.org/1999/xlink">
    <!-- Generator: Sketch 53.2 (72643) - https://sketchapp.com -->
    <title>Group 4</title>
    <desc>Created with Sketch.</desc>
    <g id="network-graph" stroke="none" stroke-width="1" fill="none" fill-rule="evenodd">
        <g id="Artboard-(1)" transform="translate(-123.000000, -464.000000)">
            <g id="Group-8" transform="translate(57.000000, 411.000000)">
                <g id="Group-3">
                    <g id="Group-4" transform="translate(66.000000, 53.000000)">
                        <circle id="Oval" fill="#E9F0FF" cx="28" cy="28" r="28"></circle>
                        <rect id="Rectangle" stroke="#AAC2F5" stroke-width="2" fill="#F7F9FF" x="17" y="18" width="22" height="22" rx="4"></rect>
                        <path d="M28.8099607,33 L26.7322264,33 L23.3783202,27.1675783 L23.3308593,27.1675783 C23.3976565,28.1976615 23.4310546,28.9324198 23.4310546,29.3718751 L23.4310546,33 L21.9703125,33 L21.9703125,25.2902346 L24.0322265,25.2902346 L27.3808592,31.0646485 L27.4177733,31.0646485 C27.3650386,30.0626904 27.3386717,29.354299 27.3386717,28.9394532 L27.3386717,25.2902346 L28.8099607,25.2902346 L28.8099607,33 Z M35.3015621,30.8589844 C35.3015621,31.5550816 35.0510764,32.1035136 34.5500973,32.5042969 C34.0491182,32.9050801 33.3521526,33.1054687 32.4591794,33.1054687 C31.636519,33.1054687 30.908792,32.9507828 30.2759763,32.6414063 L30.2759763,31.1226563 C30.7962914,31.3546887 31.236619,31.5181636 31.5969724,31.613086 C31.9573257,31.7080083 32.2869123,31.7554688 32.5857419,31.7554688 C32.9443374,31.7554688 33.2194323,31.6869148 33.4110348,31.5498047 C33.6026373,31.4126947 33.6984372,31.2087905 33.6984372,30.938086 C33.6984372,30.7869134 33.6562501,30.6524421 33.5718747,30.534668 C33.4874992,30.416894 33.3635747,30.3035162 33.2000973,30.1945313 C33.03662,30.0855464 32.7035178,29.9115247 32.200781,29.672461 C31.7296849,29.4509755 31.3763681,29.2382824 31.14082,29.0343751 C30.905272,28.8304678 30.7171879,28.5931655 30.5765622,28.3224611 C30.4359365,28.0517566 30.3656248,27.7353535 30.3656248,27.3732423 C30.3656248,26.6912077 30.5967748,26.1550803 31.0590818,25.7648439 C31.5213888,25.3746076 32.1603472,25.1794924 32.9759762,25.1794924 C33.3767595,25.1794924 33.7590799,25.2269529 34.1229489,25.3218752 C34.4868179,25.4167976 34.8673805,25.55039 35.2646481,25.7226564 L34.7373043,26.9935548 C34.3259742,26.824804 33.9858408,26.7070318 33.7168942,26.6402345 C33.4479475,26.5734373 33.1833994,26.5400392 32.9232419,26.5400392 C32.6138653,26.5400392 32.376563,26.6121088 32.2113278,26.7562502 C32.0460926,26.9003915 31.9634763,27.0884756 31.9634763,27.320508 C31.9634763,27.4646493 31.9968744,27.5903316 32.0636716,27.6975587 C32.1304688,27.8047858 32.2368154,27.9084957 32.3827145,28.0086915 C32.5286137,28.1088873 32.8740204,28.2890613 33.418945,28.5492189 C34.1396517,28.8937518 34.6335921,29.2391585 34.9007809,29.5854493 C35.1679697,29.9317401 35.3015621,30.3562476 35.3015621,30.8589844 Z" id="NS" fill="#6A6E88" fill-rule="nonzero"></path>
                    </g>
                </g>
            </g>
        </g>
    </g>
</svg>