<svg height="128" viewBox="0 0 376 128" width="376" xmlns="http://www.w3.org/2000/svg"><g fill="none" transform="translate(65 34)"><path d="m20.0620863 28.7882569-11.08834529 4.0044037c.14641727 1.7590022.43963489 3.5029517.87664268 5.2139449l10.53748201-3.8047706c-.3501363-1.7822407-.4596892-3.6027146-.3257794-5.413578" fill="#a30000"/><path d="m69.0889209 16.6341284c-.7752655-1.5919278-1.6847555-3.1161193-2.718777-4.5563302l-11.0883453 4.0044036c1.2759048 1.3005327 2.3714603 2.7636614 3.2577937 4.3508257z" fill="#a30000"/><path d="m44.6850839 13.5163303c2.2375443 1.0412735 4.2664074 2.4755386 5.9884173 4.2333945l11.0942686-3.9985321c-8.2732081-11.50267531-23.2728124-16.11904571-36.6632506-11.28370734s-21.88001877 17.93374314-20.75092208 32.01618434l11.07649878-4.0278899c.4985314-6.6880876 4.2853539-12.7046705 10.1262192-16.088749 5.8408653-3.3840786 12.9876552-3.7022084 19.110999-.8507005" fill="#c00"/><path d="m10.5434053 37.7541284-10.51378899 3.8047707c.9716687 3.8216251 2.65074292 7.4311829 4.95184652 10.6451376l11.04095927-3.986789c-2.8191143-2.8801154-4.7258614-6.5154016-5.4849401-10.4572477" fill="#c00"/><path d="m56.5138369 33.6088073c-.1820584 2.4412821-.8123671 4.8290797-1.859904 7.0458716-4.8119292 10.2174504-17.0606783 14.6438873-27.3773142 9.893578-2.2441339-1.0364421-4.2793317-2.4689391-6.006187-4.227523l-11.0824221 4.0161468c3.1552202 4.4033417 7.4110807 7.9179241 12.35 10.1988991 15.8816858 7.3164616 34.7410625.5114427 42.1617746-15.213211 2.3128308-4.9004489 3.2968617-10.3139482 2.855012-15.706422z" fill="#c00"/><path d="m59.2622302 20.186422-10.537482 3.8047707c1.9774008 3.5011554 2.8753168 7.500384 2.582542 11.5023853l11.0705755-3.986789c-.3189641-3.9327462-1.3756007-7.7719354-3.1156355-11.320367" fill="#c00"/><path d="m20.0206235 31.0018349c-.0270607-.7360988-.0132188-1.4731162.0414628-2.2077065l-11.08834529 3.9985322c.05330935.7045871.14808153 1.4033027.25470024 2.1020183z" fill="#820000"/><path d="m67.4777938 13.7394495c-.3494725-.5871559-.7107914-1.1155963-1.0958034-1.6557798l-11.0883453 3.9985321c.4828833.493201.9377033 1.0126586 1.3623501 1.5559633z" fill="#820000"/><path d="m10.1880096 50.3368807c.8583869 1.195386 1.8005362 2.3294385 2.8194724 3.3937615l12.0479137-4.3566972c-1.3857036-.857168-2.6624397-1.876344-3.8027338-3.0355964zm57.3667866-20.7207339-11.0646523 3.986789c-.1221396 1.5971064-.4363243 3.1740294-.9358753 4.6972477l12.0479137-4.3566973c.0888779-1.4514091.075023-2.9072086-.0414629-4.3566972z" fill="#a30000"/><g fill="#4c4c4c"><path d="m89.690024 25.7878899-2.333765-4.773578h-1.5933573v4.773578h-3.873813v-14.1504587h6.3971223c.7656828-.0072341 1.5294283.077543 2.2745324.2524771.640874.1438285 1.2454859.4155268 1.7769784.7985321.4948044.3710526.8845108.8625294 1.1313429 1.426789.2817762.6749599.4169967 1.4011774.3968586 2.1313761.0406942.9185125-.200977 1.8276185-.6930216 2.6069725-.4799468.6848368-1.1480796 1.2187533-1.92506 1.5383486l2.8609353 5.4018349h-4.4365228zm-.1836211-10.533578c-.370157-.3187734-.8567426-.4717618-1.3445804-.4227523h-2.3693045v3.094312h2.3396882c.4994147.0488026.9984437-.0964419 1.3919665-.4051377.2923225-.3196709.4399944-.7439693.408705-1.1743119.0086506-.4055348-.1446267-.7980448-.4264748-1.0921101z"/><path d="m97.1059472 25.7878899v-14.1504587h10.9343408v3.2939449h-7.019065v1.9023854h4.223285v3.2352293h-4.223285v2.4249542h7.161223v3.2939449z"/><path d="m123.180144 22.0007339c-.286333.848971-.792945 1.6083299-1.468969 2.2018349-.699991.5848157-1.527202 1.0008401-2.416691 1.2154129-1.090923.265501-2.21159.3917829-3.334796.3757798h-4.63199v-14.1563303h4.999232c1.023433-.0095423 2.044107.1068205 3.038634.346422.855105.2036098 1.649002.6061509 2.315995 1.1743119.661039.5875535 1.165608 1.3277177 1.468969 2.1548624.37695 1.0709981.553592 2.2011893.521247 3.3350459.027062 1.1369819-.139137 2.2703691-.491631 3.3526605zm-3.743501-4.9849541c-.088773-.430864-.281889-.8338744-.56271-1.1743119-.273312-.3065532-.625426-.5338354-1.018801-.6576147-.502399-.1530263-1.026478-.2244086-1.551895-.2113761h-.977338v7.4627523h.858873c.529858.0097902 1.058412-.0554552 1.569664-.1937615.407495-.1108991.777654-.3278124 1.072111-.6282569.297989-.3331229.502274-.7381277.592326-1.1743119.132702-.5776576.194358-1.1691176.183621-1.7614679.010089-.5583924-.045571-1.1160452-.165851-1.6616514z"/><path d="m142.495899 25.7878899v-5.5779816h-4.454292v5.5838532h-4.027818v-14.1563303h4.027818v5.1552294h4.448369v-5.1552294h4.039664v14.1504587h-4.039664z"/><path d="m159.264652 25.7878899-.770024-2.4601835h-4.282518l-.770024 2.4601835h-4.241055l5.182854-14.1563303h3.998201l5.182854 14.1563303h-4.282518zm-1.996139-6.5291743c-.122414-.4579817-.231007-.849419-.325779-1.1743119l-.2547-.9100918c-.075028-.2700917-.140184-.5166972-.195468-.7398165s-.10267-.4697248-.142158-.7398165c-.039489.2426911-.086875.4795107-.142159.7104587-.055283.230948-.120439.4795107-.195467.7456881l-.2547.9100917-.32578 1.174312-.266547.9277064h2.369305z"/><path d="m171.632422 15.0546789v10.733211h-3.974508v-10.733211h-3.998202v-3.4172477h11.953142v3.4172477h-3.998202z"/><path d="m180.931942 14.0858716c-.180482.437091-.530475.7840289-.971414.9629357-.467789.184956-.989334.184956-1.457123 0-.44094-.1789068-.790932-.5258447-.971415-.9629357-.185981-.4638199-.185981-.9805839 0-1.4444037.180483-.4370911.530475-.784029.971415-.9629358.467789-.1849559.989334-.1849559 1.457123 0 .440939.1789068.790932.5258447.971414.9629358.187192.4635894.187192.9808143 0 1.4444037zm-.27247-1.3269725c-.151049-.3683356-.445831-.6605438-.81741-.8102752-.391838-.1542941-.828353-.1542941-1.220191 0-.371201.1502969-.66579.4423151-.817411.8102752-.156255.3883041-.156255.8212372 0 1.2095413.152186.3675875.446586.6594182.817411.8102752.391838.1542941.828353.1542941 1.220191 0 .3712-.150297.66579-.4423152.81741-.8102752.156256-.3883041.156256-.8212372 0-1.2095413zm-.710791.5871559c-.080227.098319-.190332.1683358-.313933.1996331l.414628.8044036h-.402781l-.390936-.7691743h-.385012v.7691743h-.343549v-2.0198181l.876643.0000016c.084202-.0001611.167988.0117039.248777.0352294.075951.0230322.146454.060971.207314.1115596.061154.0511263.109768.1153789.142158.1878899.037502.0850765.055701.1772783.05331.2700918.010118.1356175-.027566.2705116-.106619.3816513zm-.313933-.5871559c-.06656-.0490764-.148128-.0739554-.231007-.0704587h-.533094v.5871559h.533094c.082755.0025678.164022-.0222192.231007-.0704587.065798-.0557763.10368-.1372993.10368-.2231193 0-.0858199-.037882-.1673429-.10368-.2231192z"/><path d="m98.1069784 44.8352294c-.3824456 1.2608154-.9991748 2.4396976-1.8184412 3.4759633-.765256.9530968-1.7316285 1.7286653-2.831319 2.2722935-2.299522 1.0826282-4.9683196 1.0826282-7.2678417 0-1.0928342-.5361202-2.0502843-1.3086377-2.8017026-2.2605504-.8026061-1.034167-1.4050888-2.2067164-1.7769785-3.4583486-.4315891-1.4262088-.6432677-2.9088825-.6278657-4.3977982-.016326-1.4956067.1994322-2.9848102.6397123-4.4154129.3735284-1.2563789.9757672-2.4344237 1.7769784-3.4759633.7570953-.9540641 1.7179522-1.7300765 2.8135491-2.2722935 2.2997125-1.0817907 4.9681293-1.0817907 7.2678418 0 1.0925055.5366267 2.0498507 1.3090595 2.8017026 2.2605504.7984016 1.0367944 1.4004725 2.2085425 1.7769784 3.4583486.4405974 1.4244935.6563832 2.9079458.6397123 4.3977982.031504 1.4931703-.1682616 2.9822947-.5923262 4.4154129zm-2.2508393-8.0029358c-.2972483-1.0026729-.7682645-1.9464169-1.3919664-2.7889908-.553021-.7323975-1.2631121-1.3340154-2.0790648-1.7614679-.8020166-.416098-1.695119-.6298623-2.6003117-.6223854-.8900468-.0070547-1.76771.2069135-2.5529257.6223854-.8030884.429369-1.4992483 1.0311859-2.0376019 1.7614679-.6081837.8344796-1.0633309 1.7686293-1.3445804 2.759633-.3403176 1.177545-.5059303 2.3979199-.4916306 3.6227523-.015741 1.2257388.1539706 2.446892.5034772 3.6227523.2974613 1.0004016.7641344 1.9434698 1.3801199 2.7889908.5456228.734752 1.252476 1.3370586 2.0672182 1.7614679.8019301.416326 1.695091.6301043 2.6003118.6223853.8955277.0055479 1.7785748-.2082447 2.5706954-.6223853.8085364-.4262616 1.5092055-1.0284754 2.0494484-1.7614679.6074419-.834918 1.0625234-1.7689328 1.3445804-2.759633.3399059-1.1776304.5055105-2.3979454.4916307-3.6227523.0137294-1.2260292-.1579778-2.4471753-.5094005-3.6227523z"/><path d="m118.684388 38.9812844c-.335476.787648-.843289 1.4915787-1.486738 2.0609174-.666073.5745182-1.447302 1.0027447-2.292302 1.2565138-.958965.2929974-1.958232.4356358-2.961631.4227523h-5.17693v8.3434862h-2.369305v-21.2315596h8.020096c.916493-.0077807 1.828972.1208701 2.70693.3816514.793676.2375508 1.528205.6376153 2.156068 1.1743119.625825.5443885 1.118101 1.2231414 1.439352 1.9845872.691152 1.8086119.678483 3.8074787-.03554 5.6073394zm-3.01494-5.8715596c-.930872-.7936399-2.139425-1.1922716-3.364412-1.1097248h-5.538249v8.5724771h5.21247c3.222254 0 4.833381-1.436575 4.833381-4.3097248.080961-1.1668115-.333467-2.314103-1.14319-3.1647706z"/><path d="m124.210791 51.0708257v-21.2374312h12.942327v2.1548624h-10.555252v6.6759633h6.112805v2.1548624h-6.112805v8.0968807h11.017266v2.1548624z"/><path d="m156.279329 51.0708257-9.35283-14.5321101c-.122414-.1800612-.2547-.3973089-.396859-.6517431l-.426475-.7574312c-.142158-.2544343-.280367-.4912538-.414628-.7104587-.108006-.1759157-.204937-.3582819-.29024-.5460551v17.1977982h-2.327841v-21.2374312h2.327841l9.269904 14.8022018c.122415.1839756.254701.4012233.396859.6517431l.426475.7574312c.142158.2544343.280367.4912539.414628.7104588.108085.175871.205019.3582421.29024.546055v-17.4678899h2.327842v21.2315596h-2.262686z"/><path d="m177.727458 47.8238532c-.313546.7232302-.78965 1.3658837-1.391966 1.8788991-.657738.5519014-1.415638.9743742-2.23307 1.2447706-.966095.318122-1.979278.4729411-2.99717.4579817-1.397321.0155086-2.781478-.2689216-4.057434-.8337615-1.16418-.5095306-2.225748-1.2236637-3.133406-2.1078899l1.593358-1.7614679c.778941.7427713 1.665346 1.3661509 2.629928 1.8495413.950989.4688047 2.000274.708215 3.062326.6987156 1.205541.0660471 2.397994-.2755246 3.382182-.9688073.823732-.6400442 1.284828-1.6351051 1.237962-2.6715597.005737-.4555847-.076702-.9080343-.242854-1.332844-.186229-.4349099-.474605-.8194101-.841103-1.1214679-.482824-.3991664-1.011716-.7401425-1.575587-1.0157798-.791919-.3917588-1.609143-.7310948-2.446307-1.0157798-1.002772-.3366252-1.978861-.7468116-2.920168-1.227156-.694361-.3496915-1.33302-.7987854-1.895444-1.332844-.462271-.4471726-.818374-.9907042-1.042494-1.5911927-.224551-.6537025-.33278-1.3411179-.319856-2.0315596-.012941-.7846713.155218-1.5618941.491631-2.2722936.322768-.6630089.787718-1.248141 1.36235-1.7144954.624412-.4960791 1.343753-.8615983 2.114604-1.0744954.889743-.2513209 1.811441-.3739323 2.736547-.3640367 1.244849-.0371756 2.485374.1621271 3.654652.5871559 1.02969.4163478 1.99329.9779912 2.860935 1.667523l-1.528201 1.8495413c-.711885-.6047159-1.510348-1.1013779-2.369305-1.4737615-.890397-.3519277-1.843406-.5216923-2.801702-.4990826-.641555-.0126499-1.281142.0745257-1.895444.2583486-.474834.1410828-.917433.3724162-1.303117.681101-.322692.2641602-.574922.6029082-.734485.986422-.151903.3732352-.230317.7718474-.231007 1.1743119-.00356.3987265.05846.795363.183621 1.1743119.153382.4001489.405982.7555488.734484 1.0333945.473396.4239597 1.006061.7779477 1.581511 1.0510092.852353.4016199 1.72637.7564077 2.618082 1.0627523 1.016705.3538885 2.00646.779693 2.96163 1.2741284.709211.3610922 1.355202.8329308 1.913214 1.3974312.460331.4749854.810104 1.0441676 1.024724 1.667523.215353.6778328.31935 1.3855823.30801 2.0961468-.002143.7982819-.169469 1.5876417-.491631 2.319266z"/><path d="m197.132062 51.0708257v-9.9816514h-10.66187v9.9816514h-2.369305v-21.2374312h2.369305v9.0715596h10.66187v-9.0715596h2.369305v21.2315596h-2.369305z"/><path d="m206.218345 51.0708257v-21.2374312h2.369305v21.2315596h-2.369305z"/><path d="m217.697626 31.9882569v7.0458715h5.875875v2.1548624h-5.875875v9.8877064h-2.369305v-21.2433027h12.575084v2.1548624h-10.188009z"/><path d="m240.371871 31.9882569v19.0825688h-2.369305v-19.0825688h-6.32012v-2.1548624h14.991775v2.1548624z"/></g></g></svg>