<?xml version="1.0" encoding="utf-8"?>
<!-- Generator: Adobe Illustrator 23.0.1, SVG Export Plug-In . SVG Version: 6.00 Build 0)  -->
<svg version="1.1" id="Layer_1" xmlns="http://www.w3.org/2000/svg" xmlns:xlink="http://www.w3.org/1999/xlink" x="0px" y="0px"
	 viewBox="0 0 376 128" style="enable-background:new 0 0 376 128;" xml:space="preserve">
<style type="text/css">
	.st0{fill:#25C151;}
</style>
<g id="XMLID_34_" transform="matrix(.13515007 0 0 .13515007 7.278633 19.118392)">
	<path id="XMLID_51_" class="st0" d="M807.8,261.7c-7.4-14.6-20.4-25.5-36-30.2c-6.6-2.1-13.5-3.2-20.4-3.2H642.4v43.2h108.9
		c5.2-0.2,10.2,1.7,13.9,5.3c3.8,3.7,5.8,8.9,5.5,14.2v19h-83.7c-10.1-0.3-20.1,1.8-29.2,6.3c-7.5,3.8-14.2,9.1-19.5,15.7
		c-4.9,6.1-8.5,13-10.8,20.4c-2.1,6.6-3.2,13.5-3.3,20.5c-0.3,10.1,1.9,20.1,6.3,29.1c3.8,7.5,9.1,14.2,15.7,19.5
		c6,4.8,12.9,8.5,20.3,10.8c6.6,2.1,13.5,3.2,20.4,3.3h64.2c10.1,0.3,20.1-1.8,29.2-6.3c7.5-3.8,14.2-9.1,19.5-15.7
		c4.8-6,8.5-12.9,10.8-20.3c2.2-6.6,3.3-13.6,3.4-20.5v-81.9C814.5,280.8,812.3,270.7,807.8,261.7z M770.9,372.4
		c0.2,5.1-1.7,10.2-5.1,14c-3.7,3.9-9,5.9-14.4,5.6h-63.8c-5.1,0.1-10-1.6-13.9-4.9c-4-3.5-6.1-8.6-5.9-13.9
		c-0.2-5.2,1.6-10.2,5.1-14.1c3.7-3.9,9-6.1,14.4-5.8h83.7V372.4z"/>
	<path id="XMLID_48_" class="st0" d="M1179.7,354.2c10.1,0.3,20.2-1.9,29.3-6.3c14.6-7.4,25.6-20.5,30.4-36.2
		c2.1-6.6,3.3-13.5,3.3-20.5c0.3-10.1-1.9-20.2-6.3-29.3c-3.8-7.5-9.2-14.2-15.8-19.5c-6.1-4.9-13-8.6-20.5-10.9
		c-6.6-2.1-13.5-3.2-20.4-3.2h-64.6c-10.1-0.3-20.2,1.9-29.3,6.3c-7.5,3.8-14.2,9.2-19.5,15.8c-4.9,6.1-8.5,13-10.8,20.4
		c-2.1,6.6-3.2,13.6-3.3,20.5v82.2c-0.3,10.1,1.9,20.2,6.4,29.3c7.4,14.7,20.5,25.7,36.2,30.4c6.6,2.1,13.5,3.3,20.5,3.4h121.1
		v-43.7h-120.8c-5.2,0.2-10.3-1.7-14.2-5.1c-3.9-3.7-6-8.9-5.7-14.2v-19.3L1179.7,354.2z M1095.6,291.6c-0.2-5.2,1.7-10.3,5.1-14.2
		c3.7-4,9-6,14.4-5.7h64.6c5.1-0.1,10,1.7,13.8,5.1c3.9,3.6,6,8.8,5.7,14.1c0.2,5.2-1.7,10.3-5.1,14.2c-3.7,3.9-9,6-14.4,5.7h-84.2
		L1095.6,291.6z"/>
	<path id="XMLID_45_" class="st0" d="M1556.4,435.9h-69.3c-24.6,0-39-10-46.7-18.4c-15.4-16.7-15.5-38.4-15.2-44.1v-83.1
		c0-24,9.8-38.2,18-45.8c16.8-15.8,38.8-16,44.2-15.8h86.3v-74.8h44v220.5c0,22.6-9.3,36.4-17.1,44
		C1583.7,434.9,1561,435.9,1556.4,435.9z M1469.1,375.6c0,2.3,0.5,8.6,3.8,12.2c3.3,3.6,9.5,4.1,14.2,4.1h69.3
		c17.3-0.2,17.3-13.2,17.3-17.5V272.5h-88.3c-2.4,0-8.8,0.7-12.2,4.1c-2.6,2.4-4,7.1-4,13.7L1469.1,375.6z"/>
	<path id="XMLID_42_" class="st0" d="M454.1,510.4h-44V289.3c0-22.6,9.3-36.4,17.1-44.1c17.2-17,40.6-17.4,44.6-17.4h69.2
		c24.6,0,39.1,10,46.7,18.4c15.4,16.8,15.5,38.4,15.2,44.2v83.2c0,24-9.8,38.2-18,45.9c-16.8,15.8-38.9,16-44.2,15.9h-86.6
		L454.1,510.4z M542.4,391.5c2.3,0,8.9-0.7,12.5-4.1c2.6-2.4,4-7.2,4-13.7v-85.5c0-2.3-0.5-8.7-3.8-12.2c-3.3-3.5-9.5-4.1-14.3-4.1
		h-69.4c-17.4,0.2-17.4,13.3-17.4,17.6v102.1H542.4z"/>
	<path id="XMLID_41_" class="st0" d="M1304.5,435.9h-44V289.6c0-22.5,9.3-36.3,17.1-44c17.3-17.1,40.9-17.6,44.7-17.6h85.5v44h-85.8
		c-17.5,0.3-17.5,13.3-17.5,17.6L1304.5,435.9z"/>
	<path id="XMLID_40_" class="st0" d="M1702.2,435.9c-3.3,0-27.2-0.7-44.6-17.9c-7.7-7.6-16.9-21.4-16.9-43.8V228h44v146.3
		c0,9.6,3.3,12.8,6.9,14.7c3.4,1.7,7.1,2.8,10.9,3h86V228h44v207.9H1702.2z"/>
	<path id="XMLID_37_" class="st0" d="M964.7,508.4H860.2v-44h104.4c11,0,14.9-4.3,17.1-8.5c2-3.9,3.3-8.2,3.6-12.6v-8.4h-83.1
		c-5.5,0.2-28.8,0-46.6-16.6c-8.6-8.1-18.9-23-18.9-48.4v-76.6c-0.2-5.3,0.1-28.9,17.1-46.8c8.1-8.5,23-18.8,48.1-18.8h62.4
		c26.1,0,64.9,17.3,64.9,64.9v151C1029.2,469.8,1011.7,508.4,964.7,508.4z M880.9,291.7v0.8v0.3v77c0,7.7,1.7,13.2,4.9,16.3
		c5.2,4.9,14.7,4.9,14.7,4.9h1.4h83.4v-98.4c0-11.7-4.7-15.6-9.3-17.9c-3.7-1.7-7.6-2.8-11.6-3.1H902c-7.5,0-12.8,1.6-16,4.9
		C881.7,281.1,880.9,288.9,880.9,291.7z"/>
	<path id="XMLID_36_" class="st0" d="M2199.7,509h-104.3v-44h104.3c10.9,0,14.8-4.3,17.1-8.4c2-3.9,3.2-8.2,3.5-12.5V436h-83.2
		c-25.3,0-40.3-10.3-48.4-18.9c-16.7-17.8-17-41.3-16.8-46.8V228.2h44v143.9c0,2.9,0.8,10.6,5,15c3.2,3.2,8.6,4.9,16.2,4.9h83.2
		V227.9h44v216.5C2264.1,470.5,2246.8,509,2199.7,509z"/>
	<path id="XMLID_35_" class="st0" d="M1973.8,436.1h-44v-164H1855v-44h74.8v-56.5h44v56.5h75.1v44h-75.1V436.1z"/>
</g>
</svg>
