<svg height="128" viewBox="0 0 376 128" width="376" xmlns="http://www.w3.org/2000/svg"><g fill="none" transform="translate(91 43)"><path d="m101.159971 49.6006954c-.896331.3901191-1.8423254.6707654-2.8148134.8350655-1.3193084.2370539-2.6605521.3499933-4.0037822.3371383-4.1106973 0-7.5799045-.8886619-10.4076218-2.6659857-2.7686536-1.7149747-4.960743-4.1325173-6.3208883-6.9709819-1.9911621-.3787991-3.8904392-1.099783-5.601977-2.1265645-1.6940393-1.0302382-3.155842-2.3625129-4.3024069-3.9211774-1.2344576-1.6883404-2.1579152-3.5590968-2.7318625-5.5342543-.6585662-2.2748867-.9786545-4.6242446-.9511748-6.9813554-.0465453-2.6895937.3832702-5.367778 1.2719198-7.9253426.7604902-2.1610151 1.9921616-4.1499398 3.6166762-5.84027216 1.5343018-1.57902988 3.4230577-2.81907273 5.530086-3.63071978 4.598886-1.66936024 9.6963862-1.66936024 14.2952722 0 2.1094456.80749359 3.9991177 2.04813796 5.5300859 3.63071978 1.6115544 1.70850306 2.8329887 3.70844836 3.5890258 5.87657926.887261 2.5383578 1.3189491 5.1972852 1.2774499 7.8682885 0 4.896285-1.1060172 8.9194683-3.3180516 12.0695499-2.060495 3.0422561-5.2505061 5.2598877-8.9532092 6.2240911.8796336 1.2382829 2.1733548 2.1670346 3.6775072 2.6400519 1.5449617.5051054 3.169511.7628522 4.8056447.7624512.7864287.0030297 1.571435-.0629566 2.3447564-.1970962.6552891-.1106675 1.3005271-.2684644 1.93-.4719936zm-28.203438-27.0229287c0 3.8935148.7723686 6.9156567 2.317106 9.066426 1.3723044 2.0106943 3.7423047 3.2270552 6.2877077 3.2270552s4.9154033-1.2163609 6.2877077-3.2270552c1.5410507-2.1507693 2.311576-5.1729112 2.311576-9.066426 0-3.6341776-.7723687-6.4713258-2.317106-8.5114445-1.4394906-1.9198584-3.7852848-3.0623474-6.2877078-3.0623474s-4.8482172 1.142489-6.2877077 3.0623474c-1.522617 2.0366609-2.2839255 4.8720802-2.2839255 8.5062578zm30.089198-17.97724967h8.776246v20.30091037c0 3.5615632.573286 6.0460129 1.719857 7.453349 1.146571 1.4073362 2.805597 2.1110042 4.977077 2.1110042 2.175167 0 3.85447-.705397 5.037908-2.1161909 1.183439-1.410794 1.775158-3.8952437 1.775158-7.4533491v-20.30609705h8.422321v19.47103155c0 6.0823201-1.290353 10.5135271-3.87106 13.2936211s-6.366972 4.1632254-11.358797 4.1493941c-5.021318 0-8.857354-1.3831314-11.508109-4.1493941-2.650754-2.7662627-3.976131-7.1974697-3.976131-13.2936211v-19.46065807zm53.979169 27.62977757h-11.795674l-2.377937 8.6255529h-8.897908l12.088768-36.27089069h10.507163l12.110889 36.26570389h-9.262894zm-1.786218-6.3952536-.890344-3.3350754c-.553008-1.8153599-1.087583-3.7430992-1.603725-5.783218-.516141-2.0401187-1.030439-4.007623-1.542894-5.902513h-.237793l-1.448883 5.92326c-.494021 2.0193718-1.017536 3.9384665-1.570544 5.7572842l-.945645 3.3402622zm18.863123 2.1058175-11.690602-23.34034147h9.362436l3.445244 8.34028207c.553008 1.3831313 1.076523 2.7092085 1.570544 3.9782315s1.021222 2.598558 1.581605 3.988605h.237793c.553009-1.4073361 1.096801-2.7524314 1.631376-4.0352857s1.078366-2.6089315 1.631375-3.9782315l3.495014-8.34546879h9.135702l-11.668481 23.39220889v12.9046155h-8.726476v-12.9046155z" fill="#003764"/><path d="m41.5475358 0 11.5357593 23.8608163-11.5357593 23.8554082h-9.8159026l11.5302293-23.8554082-11.5302293-23.8608163z" fill="#40b4e5"/><path d="m31.7316332 47.7162245-11.5357593-23.8554082 11.5357593-23.8608163h9.8159026l-11.5302292 23.8608163 11.5302292 23.8554082z" fill="#003764"/><path d="m26.5388825 10.7352041-5.1872206-10.7352041h-9.8159026l10.097937 20.8917347zm-4.9051862 16.0892857-10.097937 20.8917347h9.8159026l5.1872206-10.7352041z" fill="#40b4e5"/><path d="m11.5357593 47.7162245-11.5357593-23.8554082 11.5357593-23.8608163h9.8159026l-11.53575932 23.8608163 11.53575932 23.8554082z" fill="#003764"/></g></svg>