<svg id="Layer_1" data-name="Layer 1" xmlns="http://www.w3.org/2000/svg" viewBox="0 0 376 128"><defs><style>.cls-1{fill:#fff;}.cls-2{fill:#e93442;}</style></defs><title>redhat</title><path class="cls-1" d="M135.9,86.19A22.17,22.17,0,0,0,131,85.6a20.14,20.14,0,0,0-7.46,1.31.67.67,0,0,0-.37.59.55.55,0,0,0,.06.26c.23.67-.15,1.38-2,1.8-2.79.61-4.54,3.48-5.55,4.43-1.18,1.12-4.51,1.81-4,1.14a24.75,24.75,0,0,0,2.8-3.91c.82-1.57,1.55-2,2.55-3.52a12.44,12.44,0,0,0,1.76-3.21,21.22,21.22,0,0,0,.39-3.31,27.7,27.7,0,0,0,1.11-3.91c0-.62-2.57.88-3.81.88s-2.45-.74-3.56-.79c-1.37-.07-2.25,1-3.49.85-.71-.11-1.31-.73-2.54-.78-1.77-.06-3.92,1-8,.85s-7.66-5-8.16-5.8-1.31-.91-2.09-.19a1.34,1.34,0,0,1-2-.33c-.52-.92-1.92-3.58-4.08-4.14a3.29,3.29,0,0,0-4.3,3.58c.2,2,1.47,2.51,2.06,3.56s.88,1.71,2,2.17c.79.33,1.08.81.85,1.45s-1,.69-1.56.72A4.18,4.18,0,0,1,79,78.67a5.47,5.47,0,0,1-1.81-2,3.35,3.35,0,0,0-3-1.61,3.63,3.63,0,0,0-1.65.41,14.75,14.75,0,0,1-6.83,1.63H62.88a40.88,40.88,0,0,0,73,9.13"/><path d="M135.9,86.2a21.6,21.6,0,0,0-4.93-.59,19.94,19.94,0,0,0-7.46,1.31.64.64,0,0,0-.37.58.55.55,0,0,0,.06.26c.23.67-.15,1.39-2,1.8-2.79.62-4.54,3.48-5.55,4.43-1.18,1.13-4.51,1.82-4,1.15a25.48,25.48,0,0,0,2.8-3.92c.82-1.56,1.55-2,2.55-3.52a12.52,12.52,0,0,0,1.76-3.2,21.45,21.45,0,0,0,.39-3.32,27.7,27.7,0,0,0,1.11-3.91c0-.62-2.57.88-3.81.88s-2.45-.74-3.56-.79c-1.37-.07-2.25,1-3.49.85-.71-.11-1.31-.73-2.54-.78-1.77-.06-3.92,1-8,.85s-7.66-5-8.16-5.8-1.31-.91-2.09-.19a1.34,1.34,0,0,1-2-.33c-.52-.92-1.92-3.58-4.08-4.14a3.29,3.29,0,0,0-4.3,3.58c.2,2,1.47,2.51,2.06,3.56s.88,1.71,2,2.18c.79.32,1.08.8.85,1.45s-1,.68-1.56.71A4.18,4.18,0,0,1,79,78.67a5.47,5.47,0,0,1-1.81-2,3.35,3.35,0,0,0-3-1.61,3.63,3.63,0,0,0-1.65.41,14.75,14.75,0,0,1-6.83,1.64H62.88a40.86,40.86,0,1,1,73,9.14"/><path d="M110.6,82.45a1.55,1.55,0,0,1,.13,1.77,3.5,3.5,0,0,1-1,1.17,2.58,2.58,0,0,1-3.24,0c-.83-.53-.88-.7-2-.55-.82.1-1.14-.73-.85-1.41s1.5-1.24,3-.36c.68.4,1.73,1.24,2.65.49a6.77,6.77,0,0,0,1.14-1.12.15.15,0,0,1,.1,0,.19.19,0,0,1,.08,0"/><path class="cls-2" d="M98.42,42.61c-4.71.34-5.21.85-6.09,1.79-1.24,1.33-2.89-1.72-2.89-1.72a2.51,2.51,0,0,1-1.53-3.27c.63-1.47,1.81-1,2.17-.58a3.5,3.5,0,0,0,2.64,1.44c1.24,0,2.67-.3,4.66-.3s3.38.76,3.45,1.41-.16,1.07-2.41,1.23m5-7.79h0a.13.13,0,0,1-.13-.12.14.14,0,0,1,.07-.12,11.09,11.09,0,0,1,3.84-1,13,13,0,0,1,1.37-.08h.24c2.62.06,4.71,1.1,4.68,2.33s-2.18,2.16-4.8,2.11a9.59,9.59,0,0,1-2.32-.34.18.18,0,0,1-.15-.18.18.18,0,0,1,.15-.17c1.63-.37,2.73-1,2.66-1.58-.11-.77-2.24-1.19-4.78-.94l-.81.11m21.28,18.32a6.41,6.41,0,0,1-3.53,4.4c-.38.19-.52-.12-.35-.41a20.13,20.13,0,0,0,1.42-2.7c.39-1,.6-2.3-.18-5.1C120.48,43.8,117.27,36.41,115,34s-6.33-3-10-2a14.86,14.86,0,0,1-8.93.61C87.5,30.7,86.24,35,85.75,36.81S84.08,44,84.08,44c-.39,2.15-.9,5.89,12.32,8.41,6.16,1.17,6.47,2.76,6.75,3.9.49,2.05,1.27,3.23,2.15,3.81s0,1.08-1,1.17c-2.62.28-12.32-2.5-18-5.76-4.7-2.87-4.77-5.45-3.7-7.64-7.09-.76-12.41.67-13.37,4-1.66,5.76,12.66,15.59,29,20.53,17.11,5.17,34.71,1.56,36.67-9.19.88-4.88-3.23-8.5-10.17-10.06"/><g id="g3880"><path d="M142.05,84h.36l.56.91h.36l-.6-.93a.55.55,0,0,0,.55-.58c0-.42-.25-.6-.75-.6h-.8v2.11h.32Zm0-.27v-.66h.43c.22,0,.46,0,.46.31s-.24.35-.51.35Z"/><path d="M144.49,83.88a2.07,2.07,0,1,1-2.06-2.07,2.06,2.06,0,0,1,2.06,2.07m-2.06-1.7a1.7,1.7,0,1,0,1.69,1.7,1.7,1.7,0,0,0-1.69-1.7"/></g><path d="M163.29,66.58c0-3.75-.08-6.5-.23-9h6.12l.27,5.31h.2A8.34,8.34,0,0,1,177.31,57a6.59,6.59,0,0,1,1.66.16v6.66a10.35,10.35,0,0,0-2.13-.2,6.24,6.24,0,0,0-6.35,5.35,12.54,12.54,0,0,0-.18,2.13V85.56h-7.08Z"/><path d="M187.52,73.48c.18,5.07,4.11,7.29,8.64,7.29a21.38,21.38,0,0,0,7.72-1.3l1.05,4.87a25.44,25.44,0,0,1-9.78,1.77c-9.09,0-14.41-5.61-14.41-14.18,0-7.72,4.68-15,13.68-15s12.07,7.47,12.07,13.6a16.24,16.24,0,0,1-.25,3Zm12.3-4.93c0-2.59-1.09-6.82-5.83-6.82-4.36,0-6.17,4-6.49,6.82Z"/><path d="M229.91,73.43a8.48,8.48,0,0,1-.22,2.07,6.26,6.26,0,0,1-6.11,5c-4.45,0-7-3.76-7-8.89s2.52-9.21,7.08-9.21a6.22,6.22,0,0,1,6.09,5,9.6,9.6,0,0,1,.16,1.84ZM237,46.81l-7.07-2V60.6h-.12c-1.25-2.07-4-3.64-7.84-3.64-6.74,0-12.6,5.56-12.55,14.93,0,8.6,5.29,14.3,12,14.3a10,10,0,0,0,9.09-5.06h.12l.32,4.43h6.31c-.13-1.9-.24-5-.24-7.84Z"/><path d="M255.7,56.92a10.65,10.65,0,0,0-5.65,1.61,10.22,10.22,0,0,0-3.83,4h-.11V49.48l-2.77-.82v36.9h2.77V68.44a7.91,7.91,0,0,1,.38-2.76,9.19,9.19,0,0,1,8.45-6.34c5.73,0,7.72,4.6,7.72,9.64V85.56h2.77V68.68c0-10.43-7.08-11.76-9.73-11.76"/><path d="M290.29,78.91a45.68,45.68,0,0,0,.41,6.65h-2.55l-.41-4h-.13a10.58,10.58,0,0,1-8.93,4.65c-5.64,0-8.26-4-8.26-7.69,0-6.46,5.71-10.36,17.1-10.24v-.75c0-2.77-.54-8.29-7.17-8.25a12.31,12.31,0,0,0-7,2.09l-.88-2a15,15,0,0,1,8.22-2.43c8.08,0,9.63,6.07,9.63,11.07Zm-2.77-8.31c-6.1-.18-14.15.75-14.15,7.47,0,4,2.65,5.83,5.57,5.83a8.45,8.45,0,0,0,8.29-5.61,5.49,5.49,0,0,0,.29-1.68Z"/><path d="M301.32,51.4v6.16h8v2.25h-8V78c0,3.56,1.11,5.79,4.12,5.79a9.74,9.74,0,0,0,3.18-.44L309,85.5a10,10,0,0,1-3.87.67,6,6,0,0,1-4.84-2c-1.26-1.47-1.7-3.82-1.7-6.68V59.81h-4.72V57.56h4.72V52.42Z"/><g id="use3884"><path d="M312.81,84.07h.37l.55.92h.36l-.6-.93a.56.56,0,0,0,.55-.58c0-.42-.25-.6-.74-.6h-.81V85h.32Zm0-.27v-.65h.43c.22,0,.46,0,.46.31s-.24.34-.51.34Z"/><path d="M315.25,83.94a2.07,2.07,0,1,1-2.06-2.07,2.06,2.06,0,0,1,2.06,2.07m-2.06-1.7a1.7,1.7,0,1,0,1.69,1.7,1.69,1.69,0,0,0-1.69-1.7"/></g></svg>