<svg height="128" viewBox="0 0 376 128" width="376" xmlns="http://www.w3.org/2000/svg"><g fill="#c1272d" fill-rule="evenodd" transform="translate(87 39)"><path d="m44.9306667.17857143v8.75h-28.2395556s-5.5937778.44642857-5.5937778 5.98214287 3.8795556 5.5357143 3.8795556 5.5357143h23.2773333s9.6537778 1.9642857 9.4733334 13.6607143c-.1804445 11.6964285-10.1048889 15.2678571-10.1048889 15.2678571h-35.54755559v-8.75l29.14177779-.1785714s5.1426667-.2678572 5.1426667-5.9821429-4.6915556-5.1785714-4.6915556-5.1785714h-22.01422222s-9.65377778-1.6071429-9.65377778-14.4642857c0-12.85714289 12.18-14.64285717 12.18-14.64285717z"/><path d="m80.0271111.08928571h-11.1875555l-21.0217778 49.19642859h11.7288889l3.7893333-11.6964286 21.8337778.2678572 4.7817778 11.4285714h11.5484444zm-13.0822222 28.48214289 7.7591111-18.125 7.1275556 18.125z" fill-rule="nonzero"/><path d="m105.740444 49.2857143c0-.7142857 0-49.2857143 0-49.2857143l15.608445.17857143 12.450667 37.32142857 12.631111-37.32142857h15.067111v49.28571427h-9.653778l.451111-39.0178571-12.450667 38.8392857-11.548444.0892857-12.450667-38.125v38.125z"/><path d="m168.896.17857143h9.744v33.66071427s2.436 8.0357143 7.939556 7.4107143h16.420444v8.125h-22.284889s-10.104889-.4464286-11.909333-14.4642857z"/></g></svg>