<?xml version="1.0" encoding="UTF-8"?>
<svg width="120px" height="120px" viewBox="0 0 120 120" version="1.1" xmlns="http://www.w3.org/2000/svg" xmlns:xlink="http://www.w3.org/1999/xlink">
    <!-- Generator: Sketch 48.1 (47250) - http://www.bohemiancoding.com/sketch -->
    <title>Artboard 2 Copy 13@2x</title>
    <desc>Created with Sketch.</desc>
    <defs></defs>
    <g id="Page-1" stroke="none" stroke-width="1" fill="none" fill-rule="evenodd">
        <g id="Artboard-2-Copy-13">
            <g id="servicenow" transform="translate(0.000000, 104.000000)" fill-rule="nonzero">
                <path d="M114.51205,9.31 C114.24,9.02263158 114.225839,8.76252632 114.152795,8.53115789 C113.598261,6.77378947 113.058634,5.012 112.500373,3.25536842 C112.229068,2.40063158 111.759503,2.11621053 110.702609,2.11694737 C109.642733,2.11768421 109.144845,2.41978947 108.878758,3.24357895 C108.550062,4.26042105 108.233292,5.28094737 107.906832,6.29852632 C107.581118,7.31315789 107.248696,8.32631579 106.861863,9.51557895 C106.760497,9.14347368 106.706087,8.97031579 106.665839,8.79494737 C106.132174,6.44442105 105.61118,4.09168421 105.063354,1.74484211 C104.713043,0.243894737 103.587578,-0.196 102.254907,0.583578947 C101.798758,0.850315789 101.686211,1.15389474 101.830062,1.65494737 C102.834037,5.15052632 103.815652,8.652 104.806957,12.1505263 C105.07528,13.0966316 105.419627,13.3537895 106.430311,13.3876842 C107.750311,13.4318947 108.148323,13.2255789 108.485217,12.2463158 C108.952547,10.8912632 109.391553,9.52736842 109.846957,8.16863158 C110.085466,7.45757895 110.332174,6.75021053 110.597516,5.97505263 C110.856149,6.26315789 110.885217,6.51589474 110.961242,6.74873684 C111.557516,8.58642105 112.147081,10.4255789 112.752298,12.2603158 C113.035528,13.1194737 113.360497,13.356 114.254907,13.384 C114.599255,13.3943158 114.945839,13.3766316 115.288696,13.342 C115.853665,13.2852632 116.206957,12.9713684 116.358261,12.4275789 C117.370435,8.792 118.381863,5.15568421 119.4,1.52157895 C119.508075,1.13547368 119.391056,0.876842105 119.067578,0.645473684 C117.803478,-0.257894737 116.543851,0.216631579 116.211429,1.72126316 C115.656894,4.22726316 115.089689,6.73105263 114.51205,9.31 Z M78.4479503,1.81852632 C77.912795,0.636631579 77.3031056,0.230631579 76.352795,0.368421053 C75.7572671,0.454631579 75.449441,0.677894737 75.4576398,1.38231579 C75.4993789,4.844 75.4747826,8.30715789 75.477764,11.7695789 C75.477764,12.0186316 75.4904348,12.2721053 75.5373913,12.516 C75.6119255,12.9013684 75.8623602,13.1776842 76.2238509,13.3132632 C77.5408696,13.8054737 78.4867081,13.1673684 78.4926708,11.7806316 C78.5016149,9.73073684 78.5381366,7.67936842 78.475528,5.63094737 C78.4457143,4.65831579 78.8929193,4.02905263 79.6129193,3.51694737 C80.9075776,2.59589474 82.7209938,2.69315789 83.5826087,3.71663158 C84.0760248,4.30242105 84.2414907,5.00757895 84.2437267,5.75326316 C84.2496894,7.826 84.235528,9.89947368 84.2534161,11.9722105 C84.2623602,12.9905263 84.7110559,13.3862105 85.7634783,13.384 C86.8479503,13.3817895 87.2832298,13.0052632 87.2891925,11.9957895 C87.3018634,9.71821053 87.3204969,7.43915789 87.2847205,5.16231579 C87.2459627,2.72631579 85.9192547,0.886421053 83.8308075,0.375052632 C81.8109317,-0.119368421 79.9937888,0.274842105 78.4479503,1.81852632 Z M68.9746584,7.46863158 C68.9746584,7.46863158 68.9746584,7.46642105 68.9746584,7.46494737 C70.4496894,7.46494737 71.9247205,7.45831579 73.3997516,7.46863158 C73.9654658,7.47231579 74.275528,7.22326316 74.282236,6.66252632 C74.3403727,1.92463158 70.8432298,-0.553368421 66.8213665,0.307263158 C62.4670807,1.23936842 60.7326708,6.13568421 62.4886957,9.88031579 C64.6039752,14.392 70.7075776,14.0854737 73.1284472,11.7843158 C73.4146584,11.5124211 73.6561491,11.2081053 73.797764,10.8418947 C74.007205,10.3017895 73.7776398,9.74547368 73.2797516,9.42863158 C72.7073292,9.06389474 72.4486957,9.39473684 72.1214907,9.81621053 C70.8857143,11.4048421 69.176646,11.6708421 67.3363975,11.2862105 C65.5632298,10.9155789 64.5354037,9.73736842 64.1045963,8.01536842 C64.0002484,7.59757895 64.0881988,7.45242105 64.5495652,7.46052632 C66.0245963,7.48410526 67.4996273,7.46863158 68.9746584,7.46863158 Z M18.8474534,7.46789474 C20.2986335,7.46789474 21.750559,7.46863158 23.2017391,7.46789474 C23.6452174,7.46789474 24.058882,7.40231579 24.1006211,6.84894737 C24.2608696,4.72094737 23.4722981,2.01452632 20.9746584,0.766315789 C18.3264596,-0.556315789 14.9232298,0.211473684 13.1254658,2.51852632 C11.1659627,5.03410526 11.2196273,8.98578947 13.2447205,11.2574737 C15.2780124,13.5387368 19.143354,14.1046316 21.9249689,12.5351579 C22.616646,12.1446316 23.2412422,11.6848421 23.6064596,10.9671579 C23.908323,10.3732632 23.6921739,9.78526316 23.1473292,9.43084211 C22.5249689,9.02705263 22.2819876,9.43747368 21.9473292,9.85968421 C20.7145342,11.4144211 19.0203727,11.6561053 17.2099379,11.2913684 C15.4606211,10.9384211 14.4387578,9.77421053 13.9796273,8.09642105 C13.8559006,7.644 13.9565217,7.44431579 14.493913,7.45610526 C15.9436025,7.48926316 17.395528,7.46789474 18.8474534,7.46789474 Z M94.6829814,13.3876842 C96.3078261,13.3913684 97.5286957,13.1084211 98.456646,12.5882105 C101.62882,10.8109474 102.771429,6.61021053 100.946832,3.43294737 C100.683727,2.97389474 100.387826,2.54063158 99.9055901,2.27684211 C99.2973913,1.94452632 98.5654658,2.14347368 97.9721739,2.71084211 C97.4221118,3.23547368 97.7701863,3.62968421 98.0690683,4.07621053 C98.696646,5.01568421 98.9850932,6.04947368 98.9098137,7.182 C98.7913043,8.96294737 97.5890683,10.4123158 95.9262112,10.7556842 C94.1731677,11.1174737 92.493913,10.3511579 91.7306832,8.74926316 C90.9279503,7.06484211 91.1008696,5.418 92.2240994,3.92515789 C92.6414907,3.37105263 92.5513043,2.99305263 92.0877019,2.58631579 C91.1582609,1.77063158 90.0685714,1.98873684 89.3597516,3.23252632 C88.0360248,5.55578947 88.0531677,7.94242105 89.3306832,10.2627368 C90.536646,12.4548421 92.5706832,13.3125263 94.6829814,13.3876842 Z M5.65267081,13.4031579 C7.00173913,13.4024211 8.13689441,13.244 9.15875776,12.6434737 C10.4385093,11.8911579 11.0735404,10.7601053 11.0176398,9.29084211 C10.9617391,7.83705263 10.0770186,6.97642105 8.79055901,6.45178947 C8.43055901,6.30515789 8.05937888,6.17694737 7.68298137,6.07821053 C6.57242236,5.78715789 5.44621118,5.54989474 4.34534161,5.22568421 C3.44347826,4.95968421 3.04546584,4.47189474 3.0447205,3.82789474 C3.0447205,3.08957895 3.51950311,2.48242105 4.43180124,2.25178947 C6.24670807,1.79273684 7.92149068,1.97915789 9.1773913,3.54126316 C9.44571429,3.87505263 9.70136646,3.84778947 10.0159006,3.69747368 C10.8096894,3.31726316 10.9185093,2.43010526 10.2648447,1.68663158 C8.49242236,-0.329368421 3.75950311,-0.401578947 1.93192547,1.55915789 C0.190062112,3.42778947 0.763975155,6.05831579 3.12819876,7.04715789 C3.72372671,7.29621053 4.34832298,7.44947368 4.97515528,7.59610526 C6.00298137,7.83631579 7.06956522,7.95052632 8.02807453,8.42284211 C9.11925466,8.96 9.18708075,10.2877895 8.18161491,10.9782105 C7.91180124,11.1631579 7.6173913,11.2987368 7.3021118,11.3598947 C5.29937888,11.7445263 3.49639752,11.4431579 2.09217391,9.83094737 C1.93714286,9.65263158 1.81118012,9.49568421 1.51975155,9.57010526 C0.847453416,9.74105263 0.455403727,10.3791579 0.659627329,11.0430526 C0.814658385,11.5463158 1.17242236,11.9044211 1.58832298,12.1991579 C2.85763975,13.0973684 4.30881988,13.3803158 5.65267081,13.4031579 Z M48.9495652,7.51136842 C48.9808696,9.07494737 49.8573913,10.9870526 51.8347826,12.3332632 C54.3704348,14.0589474 58.3289441,13.6735789 60.272795,11.522 C60.6946584,11.0548421 61.023354,10.5316842 61.0598758,9.88915789 C61.0956522,9.26578947 60.7229814,8.96073684 60.1542857,8.77284211 C59.613913,8.59452632 59.4782609,8.93863158 59.2859627,9.29084211 C58.2216149,11.2412632 55.8313043,12.0061053 53.7547826,11.0695789 C51.8959006,10.2303158 50.9135404,8.29536842 51.1878261,6.01042105 C51.4255901,4.02831579 52.8096894,2.54063158 54.7572671,2.17368421 C56.7309317,1.80231579 58.3557764,2.56789474 59.3418634,4.39747368 C59.6653416,4.998 60.0693168,4.83884211 60.4919255,4.63842105 C61.053913,4.37168421 61.2178882,3.82421053 60.9421118,3.10578947 C60.5463354,2.07421053 59.7726708,1.35652632 58.797764,0.884947368 C54.3428571,-1.27105263 48.9532919,1.33957895 48.9495652,7.51136842 Z M39.0700621,10.6296842 C38.8114286,10.4211579 38.7875776,10.1861053 38.7093168,9.98126316 C37.6501863,7.21810526 36.5947826,4.45273684 35.5356522,1.68957895 C35.3888199,1.30715789 35.2479503,0.919578947 34.9595031,0.610105263 C34.5383851,0.158421053 33.8631056,0.0729473684 33.3175155,0.383157895 C32.701118,0.733157895 32.9843478,1.16863158 33.1654658,1.61663158 C34.6181366,5.20652632 36.0775155,8.79421053 37.501118,12.3958947 C37.7865839,13.1187368 38.2218634,13.4355789 39.0029814,13.4142105 C39.7557764,13.3935789 40.2432298,13.1305263 40.529441,12.3973684 C41.9373913,8.78978947 43.3759006,5.19326316 44.8129193,1.596 C44.9970186,1.13621053 45.2183851,0.704421053 44.6206211,0.366947368 C44.1048447,0.0751578947 43.4496894,0.167263158 43.049441,0.617473684 C42.8176398,0.878315789 42.6857143,1.19368421 42.5634783,1.51421053 C41.4067081,4.53378947 40.2491925,7.55336842 39.0700621,10.6296842 Z M27.3674534,1.64463158 C27.2109317,1.29536842 27.1356522,1.02568421 26.9836025,0.807578947 C26.6332919,0.305052632 26.1152795,0.259368421 25.564472,0.393473684 C25.053913,0.518 25.1664596,0.934315789 25.1657143,1.28505263 C25.1634783,4.886 25.1634783,8.48694737 25.1649689,12.0878947 C25.1657143,13.0708421 25.4288199,13.3898947 26.2382609,13.4031579 C27.0670807,13.4171579 27.3495652,13.0782105 27.3510559,12.0598947 C27.3532919,10.4417895 27.3376398,8.82368421 27.3570186,7.20557895 C27.3726708,5.85715789 27.4591304,4.51315789 28.2059627,3.32021053 C28.8849689,2.23484211 30.1639752,1.88631579 31.2618634,2.53547368 C31.7731677,2.83757895 32.0213665,2.66957895 32.2308075,2.22747368 C32.6549068,1.33221053 32.1257143,0.388315789 31.049441,0.205578947 C29.5759006,-0.0449473684 28.3110559,0.327157895 27.3674534,1.64463158 Z M45.807205,6.77378947 L45.809441,6.77378947 C45.809441,8.57094737 45.8057143,10.3681053 45.8109317,12.1652632 C45.813913,13.0826316 46.1008696,13.4053684 46.8849689,13.4038947 C47.696646,13.4024211 47.9947826,13.0929474 47.995528,12.2035789 C48,8.60926316 48,5.01494737 47.9947826,1.42063158 C47.9932919,0.556315789 47.644472,0.186421053 46.8819876,0.197473684 C46.1053416,0.208526316 45.809441,0.548210526 45.8079503,1.45010526 C45.8049689,3.22515789 45.807205,4.99947368 45.807205,6.77378947 Z M96.4345342,4.31347368 C96.4345342,3.40273684 96.4524224,2.492 96.4300621,1.582 C96.4039752,0.530526316 95.9962733,0.132631579 95.0258385,0.151789474 C94.1821118,0.168736842 93.7863354,0.616736842 93.7818634,1.60189474 C93.7736646,3.40052632 93.7744099,5.19915789 93.7818634,6.99778947 C93.7855901,7.92842105 94.2342857,8.40515789 95.0787578,8.41105263 C95.9426087,8.41694737 96.4047205,7.97189474 96.4293168,7.04642105 C96.453913,6.13494737 96.4352795,5.22421053 96.4345342,4.31347368 Z" id="Shape" fill="#FFFFFF"></path>
                <path d="M114.51205,9.31 C115.089689,6.73178947 115.656894,4.228 116.209938,1.72126316 C116.54236,0.216631579 117.801988,-0.257894737 119.066087,0.645473684 C119.390311,0.876842105 119.506584,1.13547368 119.398509,1.52157895 C118.380373,5.15568421 117.368944,8.79126316 116.35677,12.4275789 C116.205466,12.9706316 115.852174,13.2852632 115.287205,13.342 C114.944348,13.3766316 114.597019,13.3943158 114.253416,13.384 C113.359006,13.356 113.034037,13.1194737 112.750807,12.2603158 C112.14559,10.4255789 111.556025,8.58568421 110.959752,6.74873684 C110.884472,6.51589474 110.854658,6.26315789 110.596025,5.97505263 C110.330683,6.74947368 110.083975,7.45757895 109.845466,8.16863158 C109.390062,9.52736842 108.950311,10.8912632 108.483727,12.2463158 C108.146087,13.2248421 107.74882,13.4318947 106.42882,13.3876842 C105.418882,13.3537895 105.073789,13.0966316 104.805466,12.1505263 C103.813416,8.652 102.832547,5.15052632 101.828571,1.65494737 C101.68472,1.15389474 101.797267,0.851052632 102.253416,0.583578947 C103.586087,-0.196 104.711553,0.244631579 105.061863,1.74484211 C105.609689,4.09168421 106.130683,6.44515789 106.664348,8.79494737 C106.704596,8.97105263 106.758261,9.14347368 106.860373,9.51557895 C107.247205,8.32557895 107.578882,7.31315789 107.905342,6.29852632 C108.231801,5.28094737 108.548571,4.26042105 108.877267,3.24357895 C109.143354,2.41978947 109.641242,2.11768421 110.701118,2.11694737 C111.758012,2.11621053 112.227578,2.40063158 112.498882,3.25536842 C113.056398,5.012 113.59677,6.77378947 114.151304,8.53115789 C114.225093,8.76252632 114.239255,9.02263158 114.51205,9.31 Z" id="Shape" fill="#D02429"></path>
                <path d="M78.4479503,1.81852632 C79.9945342,0.274842105 81.8109317,-0.119368421 83.8308075,0.374315789 C85.9192547,0.885684211 87.2459627,2.72557895 87.2847205,5.16157895 C87.3204969,7.43915789 87.3018634,9.71747368 87.2891925,11.9950526 C87.2832298,13.0045263 86.8486957,13.3810526 85.7634783,13.3832632 C84.7110559,13.3854737 84.2623602,12.9897895 84.2534161,11.9714737 C84.235528,9.89873684 84.2496894,7.826 84.2437267,5.75252632 C84.2414907,5.00757895 84.0760248,4.30242105 83.5826087,3.71589474 C82.7209938,2.69242105 80.9075776,2.59589474 79.6129193,3.51621053 C78.8929193,4.02831579 78.4464596,4.65757895 78.475528,5.63021053 C78.5381366,7.67863158 78.5016149,9.73 78.4926708,11.7798947 C78.4867081,13.1658947 77.5401242,13.804 76.2238509,13.3125263 C75.8623602,13.1776842 75.6119255,12.9006316 75.5373913,12.5152632 C75.4904348,12.2713684 75.477764,12.0178947 75.477764,11.7688421 C75.4747826,8.30642105 75.4986335,4.84326316 75.4576398,1.38157895 C75.449441,0.677157895 75.7572671,0.453894737 76.352795,0.367684211 C77.3023602,0.230631579 77.9120497,0.636631579 78.4479503,1.81852632 Z" id="Shape" fill="#D02328"></path>
                <path d="M68.9746584,7.46863158 C67.4996273,7.46863158 66.0245963,7.48410526 64.5495652,7.45978947 C64.0881988,7.45242105 64.0002484,7.59684211 64.1045963,8.01463158 C64.5354037,9.73663158 65.5632298,10.9148421 67.3363975,11.2854737 C69.1759006,11.6701053 70.8857143,11.4041053 72.1214907,9.81547368 C72.4486957,9.394 72.7073292,9.06315789 73.2797516,9.42789474 C73.7776398,9.74547368 74.007205,10.3010526 73.797764,10.8411579 C73.6554037,11.2073684 73.4146584,11.5116842 73.1284472,11.7835789 C70.7075776,14.0854737 64.6039752,14.3912632 62.4886957,9.87957895 C60.7326708,6.13494737 62.4670807,1.23863158 66.8213665,0.306526316 C70.8432298,-0.554105263 74.3403727,1.92463158 74.282236,6.66178947 C74.275528,7.22326316 73.9654658,7.47157895 73.3997516,7.46789474 C71.9247205,7.45831579 70.4496894,7.46421053 68.9746584,7.46421053 C68.9746584,7.46642105 68.9746584,7.46715789 68.9746584,7.46863158 Z M68.0526708,5.56463158 C69.2057143,5.56463158 70.3587578,5.55726316 71.5110559,5.56978947 C71.8285714,5.57347368 71.9992547,5.50421053 71.9187578,5.15126316 C71.6064596,3.77705263 70.922236,2.70347368 69.4874534,2.26063158 C67.2760248,1.57757895 64.8819876,2.88105263 64.2432298,5.07831579 C64.1142857,5.52263158 64.2819876,5.57642105 64.6628571,5.57126316 C65.7935404,5.55578947 66.9234783,5.56536842 68.0526708,5.56463158 Z" id="Shape" fill="#6E6E6D"></path>
                <path d="M18.8474534,7.46789474 C17.3962733,7.46789474 15.9443478,7.48926316 14.4931677,7.45684211 C13.9557764,7.44505263 13.8551553,7.64473684 13.978882,8.09715789 C14.4372671,9.77494737 15.4598758,10.9398947 17.2091925,11.2921053 C19.018882,11.6568421 20.7137888,11.4151579 21.9465839,9.86042105 C22.2812422,9.43821053 22.5242236,9.02778947 23.1465839,9.43157895 C23.6914286,9.78526316 23.9075776,10.374 23.6057143,10.9678947 C23.2412422,11.6855789 22.6159006,12.1453684 21.9242236,12.5358947 C19.143354,14.1053684 15.2780124,13.5402105 13.2439752,11.2582105 C11.218882,8.98652632 11.1652174,5.03484211 13.1247205,2.51926316 C14.9217391,0.212210526 18.3257143,-0.556315789 20.973913,0.767052632 C23.4715528,2.01526316 24.2601242,4.72094737 24.0998758,6.84968421 C24.0581366,7.40305263 23.644472,7.46789474 23.2009938,7.46863158 C21.7498137,7.46863158 20.2986335,7.46789474 18.8474534,7.46789474 Z M17.9008696,5.56536842 C19.0293168,5.56536842 20.1585093,5.54694737 21.2869565,5.57421053 C21.7796273,5.586 21.844472,5.44157895 21.7393789,4.98473684 C21.3249689,3.18536842 19.9975155,2.09042105 18.1595031,2.09263158 C16.2335404,2.09484211 14.5036025,3.39389474 14.1063354,5.10705263 C14.013913,5.50568421 14.1637267,5.57347368 14.5147826,5.56978947 C15.6432298,5.55652632 16.771677,5.56463158 17.9008696,5.56536842 Z" id="Shape" fill="#6E6E6D"></path>
                <path d="M94.6829814,13.3876842 C92.5699379,13.3125263 90.536646,12.4548421 89.3299379,10.2634737 C88.0524224,7.94315789 88.0352795,5.55578947 89.3590062,3.23326316 C90.0678261,1.99021053 91.1575155,1.77210526 92.0869565,2.58705263 C92.550559,2.99378947 92.6407453,3.37178947 92.223354,3.92589474 C91.1001242,5.418 90.9279503,7.06557895 91.7299379,8.75 C92.4931677,10.3511579 94.1724224,11.1182105 95.9254658,10.7564211 C97.588323,10.4130526 98.790559,8.96368421 98.9090683,7.18273684 C98.9843478,6.05021053 98.6959006,5.01642105 98.068323,4.07694737 C97.7701863,3.63042105 97.4221118,3.23621053 97.9714286,2.71157895 C98.5654658,2.14421053 99.296646,1.94526316 99.9048447,2.27757895 C100.387081,2.54136842 100.682981,2.97536842 100.946087,3.43368421 C102.771429,6.61168421 101.628075,10.8116842 98.4559006,12.5889474 C97.5286957,13.1076842 96.3085714,13.3913684 94.6829814,13.3876842 Z" id="Shape" fill="#D02429"></path>
                <path d="M5.65267081,13.4031579 C4.30881988,13.3803158 2.85689441,13.0966316 1.58906832,12.1976842 C1.1731677,11.9029474 0.814658385,11.5448421 0.660372671,11.0415789 C0.456149068,10.3784211 0.848198758,9.73957895 1.52049689,9.56863158 C1.81118012,9.49494737 1.9378882,9.65189474 2.09291925,9.82947368 C3.49714286,11.4416842 5.30012422,11.7437895 7.30285714,11.3584211 C7.61888199,11.298 7.91329193,11.1616842 8.18236025,10.9767368 C9.18782609,10.2863158 9.12,8.95926316 8.02881988,8.42136842 C7.07031056,7.94905263 6.00298137,7.83557895 4.97590062,7.59463158 C4.34832298,7.448 3.72447205,7.29473684 3.1289441,7.04568421 C0.764720497,6.05684211 0.190807453,3.42557895 1.93267081,1.55768421 C3.76024845,-0.403052632 8.4931677,-0.330842105 10.2655901,1.68515789 C10.9192547,2.42863158 10.8104348,3.31652632 10.016646,3.696 C9.7021118,3.84631579 9.44645963,3.87357895 9.17813665,3.53978947 C7.92149068,1.97768421 6.24670807,1.792 4.43254658,2.25031579 C3.52024845,2.48094737 3.0447205,3.08810526 3.04546584,3.82642105 C3.04546584,4.46968421 3.44347826,4.95747368 4.34608696,5.22421053 C5.44621118,5.54842105 6.57242236,5.78568421 7.68372671,6.07673684 C8.06012422,6.17547368 8.43130435,6.30368421 8.79130435,6.45031579 C10.0785093,6.97494737 10.9624845,7.83557895 11.0183851,9.28936842 C11.0750311,10.7586316 10.4392547,11.8896842 9.15950311,12.642 C8.13689441,13.244 7.00173913,13.4031579 5.65267081,13.4031579 Z" id="Shape" fill="#6E6E6D"></path>
                <path d="M48.9495652,7.51136842 C48.9532919,1.34031579 54.3428571,-1.27105263 58.7970186,0.884210526 C59.7719255,1.35578947 60.5455901,2.07347368 60.9413665,3.10505263 C61.2171429,3.82347368 61.0531677,4.37094737 60.4911801,4.63768421 C60.0693168,4.83810526 59.6645963,4.99652632 59.341118,4.39673684 C58.3557764,2.56715789 56.7301863,1.80157895 54.7565217,2.17294737 C52.8089441,2.53989474 51.4248447,4.02757895 51.1870807,6.00968421 C50.912795,8.29463158 51.8951553,10.2303158 53.7540373,11.0688421 C55.830559,12.0061053 58.2208696,11.2412632 59.2852174,9.29010526 C59.4775155,8.93789474 59.6131677,8.59378947 60.1535404,8.77210526 C60.722236,8.95926316 61.0949068,9.26431579 61.0591304,9.88842105 C61.0226087,10.5309474 60.693913,11.0541053 60.2720497,11.5212632 C58.3281988,13.6728421 54.3696894,14.0582105 51.8340373,12.3325263 C49.8573913,10.9870526 48.9801242,9.07494737 48.9495652,7.51136842 Z" id="Shape" fill="#6E6E6D"></path>
                <path d="M39.0700621,10.6296842 C40.2491925,7.55336842 41.4067081,4.53378947 42.5627329,1.51421053 C42.6857143,1.19368421 42.8168944,0.878315789 43.0486957,0.617473684 C43.4489441,0.168 44.1040994,0.0758947368 44.6198758,0.366947368 C45.2176398,0.704421053 44.995528,1.13621053 44.8121739,1.596 C43.3759006,5.19326316 41.9373913,8.78978947 40.5286957,12.3973684 C40.2424845,13.1297895 39.7550311,13.3928421 39.002236,13.4142105 C38.221118,13.4355789 37.7865839,13.1187368 37.5003727,12.3958947 C36.0767702,8.79421053 34.6173913,5.20652632 33.1647205,1.61663158 C32.9836025,1.16936842 32.701118,0.733157895 33.3167702,0.383157895 C33.8631056,0.0729473684 34.5376398,0.158421053 34.9587578,0.610105263 C35.247205,0.919578947 35.3888199,1.30642105 35.5349068,1.68957895 C36.5940373,4.45347368 37.649441,7.21810526 38.7085714,9.98126316 C38.7875776,10.1861053 38.8114286,10.4211579 39.0700621,10.6296842 Z" id="Shape" fill="#6F6F6D"></path>
                <path d="M27.3674534,1.64463158 C28.3110559,0.327157895 29.5759006,-0.0449473684 31.049441,0.205578947 C32.1257143,0.388315789 32.6549068,1.33221053 32.2308075,2.22747368 C32.0213665,2.66957895 31.7731677,2.83757895 31.2618634,2.53547368 C30.1639752,1.88631579 28.8857143,2.23484211 28.2059627,3.32021053 C27.4591304,4.51315789 27.3734161,5.85715789 27.3570186,7.20557895 C27.3376398,8.82368421 27.3532919,10.4417895 27.3510559,12.0598947 C27.3495652,13.0774737 27.0670807,13.4164211 26.2382609,13.4031579 C25.4295652,13.3898947 25.1657143,13.0708421 25.1649689,12.0878947 C25.1634783,8.48694737 25.1634783,4.886 25.1657143,1.28505263 C25.1657143,0.934315789 25.053913,0.518 25.564472,0.393473684 C26.1152795,0.259368421 26.6332919,0.304315789 26.9836025,0.807578947 C27.1356522,1.02568421 27.2109317,1.29536842 27.3674534,1.64463158 Z" id="Shape" fill="#6E6E6D"></path>
                <path d="M45.807205,6.77378947 C45.807205,4.99947368 45.8049689,3.22515789 45.8079503,1.45084211 C45.809441,0.548947368 46.1053416,0.209263158 46.8819876,0.198210526 C47.644472,0.187157895 47.9940373,0.557052632 47.9947826,1.42136842 C48,5.01568421 48,8.61 47.995528,12.2043158 C47.9947826,13.0936842 47.696646,13.4031579 46.8849689,13.4046316 C46.1008696,13.4061053 45.8131677,13.0833684 45.8109317,12.166 C45.8057143,10.3688421 45.809441,8.57168421 45.809441,6.77452632 L45.807205,6.77452632 L45.807205,6.77378947 Z" id="Shape" fill="#6F6F6D"></path>
                <path d="M96.4352795,4.31347368 C96.4352795,5.22421053 96.4546584,6.13494737 96.4300621,7.04494737 C96.4054658,7.97042105 95.943354,8.41621053 95.0795031,8.40957895 C94.2350311,8.40368421 93.7863354,7.92694737 93.7826087,6.99631579 C93.7751553,5.19768421 93.7744099,3.39905263 93.7826087,1.60042105 C93.7870807,0.615263158 94.1828571,0.167263158 95.0265839,0.150315789 C95.9962733,0.131157895 96.4047205,0.529052632 96.4308075,1.58052632 C96.4524224,2.492 96.4345342,3.40273684 96.4352795,4.31347368 Z" id="Shape" fill="#D02328"></path>
                <path d="M68.0526708,5.56536842 C66.9227329,5.56536842 65.792795,5.55578947 64.6636025,5.57126316 C64.2827329,5.57642105 64.1150311,5.52263158 64.2439752,5.07831579 C64.8819876,2.88105263 67.2767702,1.57757895 69.4881988,2.26063158 C70.922236,2.70347368 71.607205,3.77705263 71.9195031,5.15126316 C72,5.50494737 71.8285714,5.57347368 71.5118012,5.56978947 C70.3587578,5.55726316 69.2057143,5.56463158 68.0526708,5.56536842 Z" id="Shape" fill="#FAFBFB"></path>
                <path d="M17.9008696,5.56536842 C16.7724224,5.56536842 15.6432298,5.55726316 14.5147826,5.56978947 C14.1629814,5.57347368 14.013913,5.50568421 14.1063354,5.10705263 C14.5036025,3.39315789 16.2335404,2.09484211 18.1595031,2.09263158 C19.9975155,2.09042105 21.3257143,3.18536842 21.7393789,4.98473684 C21.844472,5.44157895 21.7796273,5.586 21.2869565,5.57421053 C20.1585093,5.54694737 19.0293168,5.56536842 17.9008696,5.56536842 Z" id="Shape" fill="#FAFBFB"></path>
            </g>
            <g id="Page-1" transform="translate(20.000000, 10.000000)">
                <path d="M38.8120599,37.0156805 C38.8111281,37.0156805 38.8101963,37.0156805 38.8092646,37.0156805 C38.8092646,35.8431015 38.8282995,34.6701231 38.8028752,33.4980765 C38.7853045,32.6896905 38.3103627,32.2444326 37.5042396,32.1970449 C36.3324592,32.1282263 35.7588819,32.6381764 35.7394476,33.8927521 C35.7064359,35.9937837 35.7264027,38.0958802 35.7337238,40.1974443 C35.7343894,40.4152146 35.7771181,40.6391082 35.8383494,40.8488918 C36.074223,41.6559468 36.7363195,42.0455641 37.639614,41.9265624 C38.3195474,41.8368453 38.7995474,41.2575441 38.808599,40.466995 C38.8219101,39.3166456 38.8120599,38.1661631 38.8120599,37.0156805 M37.9669351,47.9085923 C41.0990483,47.9599734 43.9932912,45.7304892 44.9635408,42.0076273 C45.5247388,39.8546822 45.0601797,37.7740166 43.8910616,35.8920865 C43.572792,35.3794742 43.3190815,34.7290915 42.5556872,34.6043661 C41.8463361,34.488426 41.054589,34.8045657 40.598416,35.4476273 C40.1727255,36.0476938 40.6119933,36.4462296 40.8530582,36.9412712 C41.2076672,37.6696572 41.5685324,38.4342496 41.7045724,39.2218702 C42.0410782,41.1698236 41.3354542,43.6882928 39.0131913,44.5769451 C37.3811115,45.201371 35.6105957,44.9252978 34.3278003,43.732619 C33.2113943,42.6948819 32.764406,41.4142163 32.8064692,39.9216373 C32.840812,38.709391 33.3588819,37.666995 33.8800133,36.6108885 C34.0392146,36.2882263 34.1441065,35.800772 34.0152546,35.4992745 C33.5846389,34.4914875 32.0219101,34.2967454 31.2438735,35.0797072 C30.1933577,36.1366123 29.7467687,37.4505557 29.5707953,38.8889584 C29.3178835,40.9563128 29.5883661,42.929025 30.7976839,44.6659967 C32.3626755,46.913584 34.6042729,47.8801065 37.9669351,47.9085923 M17.4037404,33.5015374 L17.404406,33.502203 C17.1488319,32.8037671 15.2425424,32.2096905 14.6624426,32.6530849 C14.5594143,32.7317537 14.440812,32.8327854 14.403807,32.9475275 C14.283208,33.3215707 14.1310616,33.7033344 14.1110948,34.0882928 C14.0663694,34.9499235 14.092193,35.8152812 14.0923261,36.6791747 C14.0928586,39.8247321 14.0888652,42.9700233 14.100579,46.1154476 C14.1032413,46.8193411 14.1937571,47.5840666 14.9504958,47.8450982 C16.4424093,48.3598403 18.0076672,48.0767121 18.003807,45.9401398 C17.9995474,43.6142829 18.0947221,41.2850982 17.9974176,38.9635008 C17.8857371,36.2988752 20.6275674,35.0654642 22.7451048,35.8018369 C23.1255374,35.9341498 23.4432745,36.2466955 23.79003,36.4759135 L23.8000133,36.5026689 C24.2233078,37.4670616 24.4115275,38.4661963 24.393025,39.528426 C24.3582829,41.5224359 24.3469684,43.518975 24.413391,45.5116539 C24.43602,46.1922529 24.5477005,46.9906556 24.9269351,47.5103228 C25.4967854,48.2912879 26.4626423,48.1640333 27.314822,47.9112546 C28.0179168,47.7026689 28.2388819,47.0956805 28.234223,46.4437005 C28.2126589,43.430589 28.1688652,40.4176106 28.1174842,37.4047654 C28.0927255,35.9503894 27.6318935,34.6446988 26.5094975,33.6849651 C24.5603461,32.0182762 22.3281997,31.7177105 19.9502962,32.573218 C19.4387488,32.7573111 19.0159867,33.1883261 18.5523594,33.5056639 C18.5242729,33.5357471 18.4937903,33.5631681 18.4609118,33.5877937 C18.1084326,33.5590416 17.7560865,33.5302895 17.4037404,33.5015374 M63.4515275,42.655614 C63.5319268,42.3537171 63.6124592,42.0516872 63.6929917,41.7497903 C64.105371,40.2843661 64.5185491,38.8193411 64.9297304,37.3536506 C65.2400133,36.2473611 65.5529584,35.1417371 65.8543228,34.0330516 C66.0036739,33.4837005 65.8669684,32.9843993 65.3753877,32.6976772 C63.8883993,31.8300566 62.5056373,32.1757471 62.0755541,33.9943161 C61.5160865,36.3585092 61.0383494,38.7421364 60.5122928,41.1144493 C60.4117937,41.5684925 60.250995,42.0090915 60.083807,42.5702895 C59.9096972,42.3626356 59.7909617,42.2803727 59.7572845,42.1717537 C59.2334908,40.4837671 58.7180832,38.7932512 58.2065358,37.1015374 C57.9275341,36.1790749 57.7680666,35.1864626 56.7416439,34.7266955 C55.2985824,34.0868286 53.6908619,34.6741165 53.2267022,36.4229351 C52.8131248,37.9807388 52.315421,39.5169784 51.8316938,41.0553478 C51.6662363,41.5806057 51.4303627,42.0836339 51.2267022,42.5969118 L51.0383494,42.5670948 C50.9366522,42.2357804 50.8123261,41.9096572 50.7367188,41.5724859 C50.1902962,39.1372113 49.6967188,36.689025 49.0866689,34.2701231 C48.911228,33.5739501 48.7722596,32.7635674 47.8702962,32.4214709 C47.0121265,32.0960133 46.2644393,32.3157804 45.6215108,32.7660965 C44.9791148,33.2161464 45.1963527,33.9960466 45.3534243,34.6236672 C45.7503627,36.2098236 46.2265025,37.7761464 46.6635075,39.3524526 C47.2654376,41.5237671 47.8451381,43.7014709 48.4687654,45.866396 C48.6303627,46.4277271 48.8072679,47.0517537 49.1773178,47.4701231 C49.7217438,48.0857637 51.5195474,48.156579 52.253391,47.6864293 C52.5281331,47.5101897 52.7786489,47.2170782 52.9146889,46.9198403 C53.1801131,46.3400067 53.3667354,45.7229018 53.5690649,45.1156473 C54.0923261,43.5466622 54.6028087,41.9736839 55.1289983,40.4057637 C55.1866356,40.2340499 55.3140233,40.0854975 55.5327255,39.7187754 C55.8094642,40.3699567 56.0413444,40.8283927 56.2025424,41.3103894 C56.7565524,42.9646988 57.2589151,44.6367121 57.8327587,46.2840998 C58.3276672,47.705198 58.9242729,48.0532845 60.4490649,47.9503894 C60.62597,47.9385424 60.8035408,47.9262962 60.9784493,47.8990083 C61.5903627,47.8034343 62.0694309,47.4942163 62.2750882,46.9038669 C62.4992479,46.2597404 62.6597804,45.5925857 62.8302962,44.9307554 C62.9543561,44.4494243 63.0495308,43.9606389 63.1576173,43.4751814 C63.1642729,43.3991747 63.1711947,43.3231681 63.1779834,43.2470283 C63.2055374,43.1799401 63.2329584,43.1127188 63.2603794,43.0454975 C63.2806123,42.9867953 63.3008453,42.9280932 63.3212113,42.8684592 C63.3646057,42.7976439 63.408,42.7265624 63.4515275,42.655614 M0.0949883527,58.930223 L0.0949883527,20.9934509 C0.146502496,20.7840666 0.223574043,20.5773444 0.245803661,20.3648985 C0.444938436,18.4554143 0.597084859,16.5402063 0.842941764,14.6368453 C0.963540765,13.7030682 1.16839933,12.7611714 1.48214309,11.8749151 C2.26896506,9.65248586 3.41572047,7.62879201 5.0798802,5.92589684 C5.57012978,5.42406656 6.04041265,4.90306822 6.52001331,4.39085524 C6.62317471,4.29980699 6.72646922,4.20875874 6.82976373,4.11771048 C7.14909817,3.87864226 7.46856572,3.63957404 7.78803328,3.40063894 C7.91249251,3.32636273 8.03695175,3.25208652 8.16141098,3.17781032 C8.27468885,3.12935774 8.38783361,3.08090516 8.50111148,3.03245258 C8.6230416,2.95085524 8.74497171,2.86939101 8.86690183,2.78779368 L9.52473877,2.3393411 L10.0236406,2.11185358 C10.6704293,1.84749418 11.317218,1.58326789 11.9640067,1.3190416 C12.0019434,1.31518136 12.0385491,1.30573045 12.0736905,1.29095507 C12.1630083,1.29108819 12.2523261,1.29135441 12.341777,1.29148752 C12.4489318,1.25554742 12.5560865,1.21974043 12.6632413,1.18380033 C12.6917271,1.15225291 12.720213,1.12057238 12.7486988,1.08902496 C12.9188153,1.06067221 13.0889318,1.03231947 13.2590483,1.00396672 C13.4411448,1.01088852 13.6232413,1.01781032 13.8053378,1.02473211 C14.0290982,0.961371048 14.2529917,0.898009983 14.4767521,0.834515807 C14.7407121,0.805630616 15.0045391,0.776479201 15.2684992,0.74759401 C15.693391,0.98306822 16.0473344,0.877643927 16.3493644,0.522768719 C16.5214775,0.507860233 16.6934576,0.493084859 16.8655707,0.478309484 C17.3572845,0.44463228 17.8489983,0.410821963 18.340579,0.377144759 C18.4263028,0.371021631 18.5120266,0.364765391 18.5977504,0.358642263 C19.2197804,0.376612313 19.8448719,0.438775374 20.4630416,0.397643927 C20.9108286,0.367826955 21.3494309,0.200772047 21.7921597,0.0949484193 L58.2647055,0.0949484193 C58.409797,0.171487521 58.5495641,0.301936772 58.7007787,0.316712146 C60.6262363,0.505198003 62.5528918,0.681836938 64.480213,0.847161398 C64.7128918,0.86712812 64.9528918,0.802169717 65.1894309,0.776612313 C65.3093644,0.789124792 65.4292978,0.801637271 65.5490982,0.81414975 C65.8277005,0.88696173 66.1061697,0.959640599 66.384772,1.03231947 C66.5630083,1.02885857 66.7415108,1.02539767 66.9200133,1.02193677 C67.0054709,1.0349817 67.0906622,1.04815973 67.1761198,1.06133777 C67.1459035,1.09701165 67.15003,1.12829285 67.1879667,1.15544759 C67.3643394,1.2112213 67.5408453,1.26699501 67.7173511,1.32263561 C67.8061364,1.31185358 67.8949218,1.30107155 67.9837072,1.29028952 L67.9662696,1.31850915 C68.211594,1.48050582 68.4450715,1.66526456 68.7041065,1.80077205 C69.8947887,2.42333444 71.1661364,2.9237005 72.2694975,3.6727188 C73.7277338,4.66266889 74.9676672,5.91045591 76.0473344,7.34353411 C77.7212113,9.56503161 78.7443062,12.0375774 79.15003,14.74999 C79.4138569,16.514782 79.4435408,18.3137837 79.6128586,20.0941498 C79.6673012,20.6678602 79.8323594,21.2310549 79.9468353,21.7990416 C79.9506955,22.0429018 79.9576173,22.2867621 79.9576173,22.5306223 C79.957218,34.74999 79.9564193,46.9694908 79.9554875,59.1888586 C79.9128918,59.3584426 79.8516606,59.5253644 79.8302296,59.6974775 C79.5526922,61.9302895 79.3013777,64.1665624 79.0016106,66.3963128 C78.7063694,68.5910549 77.7198802,70.5182429 76.4866023,72.3084592 C75.1325923,74.2737171 73.4085324,75.8766456 71.3510283,77.105797 C71.0173178,77.3244992 70.6837404,77.5432013 70.3502962,77.7619035 C70.2728253,77.7933178 70.1952213,77.824599 70.1177504,77.8558802 C69.8040067,77.9799401 69.4902629,78.1041331 69.176386,78.2280599 C69.1030416,78.2602729 69.0294309,78.2922196 68.9559534,78.3242995 C68.6238403,78.4522196 68.291594,78.5802729 67.9594809,78.7083261 C67.8786822,78.7219035 67.7980166,78.7357471 67.717218,78.7493245 C67.489198,78.8295907 67.2610449,78.9098569 67.0328918,78.9901231 C66.9953544,79.0064958 66.9586156,79.0247321 66.9229418,79.0448319 C66.7878336,79.037777 66.6525923,79.0308552 66.5174842,79.0236672 C66.2398136,79.0947488 65.9622762,79.1656972 65.6846057,79.2369118 L65.3210782,79.2844326 C65.0640399,79.2590083 64.8018103,79.189391 64.5504958,79.2173444 C64.0711614,79.2707221 63.6011448,79.4215374 63.1215441,79.4577438 C61.6510616,79.5686256 60.1775175,79.6387754 58.7062363,79.7416705 C58.5524925,79.7524526 58.4064692,79.8751814 58.256985,79.9461298 C55.1080998,79.951188 51.9592146,79.9614376 48.8101963,79.9605058 C39.806802,79.9581098 30.8032745,79.951188 21.7998802,79.9461298 C21.5841065,79.8739834 21.3725923,79.7581764 21.1518935,79.7363461 C19.3150882,79.5557138 17.477218,79.3859967 15.6382829,79.22999 C15.341178,79.2048319 15.0368852,79.2644659 14.7359201,79.2848319 C14.6145225,79.2688586 14.4932579,79.2530183 14.3718602,79.2370449 C14.0943228,79.1659634 13.8167854,79.095015 13.5392479,79.0239334 C13.4040067,79.0309884 13.2688985,79.0379101 13.1336572,79.0449651 C13.0982496,79.0248652 13.061777,79.006629 13.0243727,78.9902562 C12.7525591,78.5443328 12.3622762,78.5866622 11.9476339,78.7289584 C11.9078336,78.7244326 11.8718935,78.7100566 11.8398136,78.6859634 C11.7535574,78.2512213 11.4613777,78.2239334 11.1087654,78.3164459 L10.887401,78.2218037 C10.7837072,78.1656306 10.6798802,78.1094576 10.5760532,78.0531514 C10.3219434,77.9787421 10.0678336,77.9044659 9.81372379,77.8299235 C9.77711814,77.8095574 9.74171048,77.7870616 9.70776705,77.7624359 C9.37618636,77.5414709 9.04460566,77.3205058 8.71289185,77.0995408 C8.36174376,76.8713877 7.99848253,76.6594742 7.66144426,76.4121531 C6.17685191,75.3218369 4.87661897,74.0542163 3.77765058,72.5625691 C2.73099501,71.1421364 1.89944759,69.6033677 1.41864892,67.9325524 C0.77785025,65.705198 0.44347421,63.4076938 0.378249584,61.0769118 C0.35814975,60.3591747 0.193357737,59.6456972 0.0949883527,58.930223" id="Fill-1" fill="#DF2126"></path>
                <path d="M8.77560067,77.3626223 C8.39796339,77.152173 8.00515141,76.9648852 7.64521797,76.7275474 C5.50651581,75.3173644 3.8438203,73.4520732 2.56328785,71.252406 C1.17693178,68.8706423 0.487547421,66.2684459 0.264851913,63.5323394 C0.248079867,63.3261498 0.153437604,63.1263494 0.0950016639,62.9234875 L0.0950016639,58.9301431 C0.193371048,59.6456173 0.358163062,60.359228 0.378262895,61.0768319 C0.443487521,63.4077471 0.777863561,65.7052512 1.41866223,67.9324725 C1.8994609,69.603421 2.73100832,71.1421897 3.77766389,72.5624892 C4.87663228,74.0542696 6.17686522,75.3218902 7.66145757,76.4120732 C7.99849584,76.6595275 8.36175707,76.8714409 8.71303827,77.0993278 L8.77560067,77.3626223 Z" id="Fill-3" fill="#EFA38A"></path>
                <path d="M0.0949484193,17.1331913 C0.152851913,16.9066356 0.240439268,16.6832745 0.263866889,16.4532579 C0.50493178,14.0887987 1.03378369,11.8288319 2.12290183,9.67242596 C3.04789351,7.84094509 4.26346755,6.28021298 5.69960732,4.86084526 C5.91631281,4.64666889 6.24376705,4.54470549 6.51997338,4.39082862 C6.04050582,4.9030416 5.57008985,5.42417304 5.07984027,5.92587022 C3.41581364,7.62876539 2.26892512,9.65245923 1.48210316,11.8748885 C1.1683594,12.7611448 0.963500832,13.7030416 0.84290183,14.6369517 C0.597044925,16.5401797 0.444898502,18.4555208 0.245763727,20.3648719 C0.22353411,20.5773178 0.146595674,20.7840399 0.0949484193,20.9934243 L0.0949484193,17.1331913 Z" id="Fill-5" fill="#F0A68D"></path>
                <path d="M62.9624359,0.318762063 C63.215614,0.33287188 63.4690582,0.347114809 63.7222363,0.361224626 C63.855614,0.400758735 63.9889917,0.440159734 64.1223694,0.479693844 C64.4780433,0.578595674 64.8337171,0.677630616 65.189391,0.776532446 C64.9528519,0.80208985 64.7128519,0.867048253 64.480173,0.847081531 C62.5528519,0.681890183 60.6261963,0.505118136 58.7007388,0.31663228 C58.5496572,0.301856905 58.4097571,0.171540765 58.2646656,0.0948685524 L61.4593411,0.0948685524 C61.9603727,0.169544093 62.4612712,0.244086522 62.9624359,0.318762063" id="Fill-7" fill="#E87357"></path>
                <path d="M37.9669884,47.9085923 C34.6043261,47.8801065 32.3627288,46.913584 30.7977371,44.6659967 C29.5884193,42.929025 29.3178037,40.9563128 29.5708486,38.8889584 C29.746822,37.4505557 30.193411,36.1366123 31.2437937,35.0797072 C32.0219634,34.2967454 33.5845591,34.4914875 34.0153078,35.4992745 C34.1440266,35.800772 34.0391348,36.2882263 33.8799334,36.6108885 C33.3589351,37.666995 32.8407321,38.709391 32.8065225,39.9216373 C32.7644592,41.4142163 33.2114476,42.6948819 34.3277205,43.732619 C35.6105158,44.9252978 37.3811647,45.201371 39.0131115,44.5769451 C41.3355075,43.6882928 42.0409983,41.1698236 41.7046256,39.2218702 C41.5685857,38.4342496 41.2077205,37.6696572 40.8531115,36.9412712 C40.6120466,36.4462296 40.1726456,36.0476938 40.5984692,35.4476273 C41.0545092,34.8045657 41.8463894,34.488426 42.5557404,34.6043661 C43.3191348,34.7290915 43.5727121,35.3794742 43.8911148,35.8920865 C45.0602329,37.7740166 45.5246589,39.8546822 44.963594,42.0076273 C43.9932113,45.7304892 41.0989684,47.9599734 37.9669884,47.9085923" id="Fill-15" fill="#FDEFED"></path>
                <path d="M38.8120599,37.0156805 C38.8120599,38.1661631 38.8219101,39.3166456 38.808599,40.466995 C38.7995474,41.2575441 38.3195474,41.8368453 37.639614,41.9265624 C36.7363195,42.0455641 36.074223,41.6559468 35.8383494,40.8488918 C35.7771181,40.6391082 35.7343894,40.4152146 35.7337238,40.1974443 C35.7264027,38.0958802 35.7064359,35.9937837 35.7394476,33.8927521 C35.7588819,32.6381764 36.3324592,32.1282263 37.5042396,32.1970449 C38.3103627,32.2444326 38.7853045,32.6896905 38.8028752,33.4980765 C38.8282995,34.6701231 38.8092646,35.8431015 38.8092646,37.0156805 C38.8101963,37.0156805 38.8111281,37.0156805 38.8120599,37.0156805" id="Fill-17" fill="#FDEEED"></path>
                <path d="M56.6644659,34.8507288 C56.3109218,34.8287654 55.9573777,34.79003 55.6035674,34.7881664 C54.5055308,34.7821764 53.9757471,35.1461032 53.6372446,36.1955541 C53.2725191,37.3267354 52.9602396,38.4745557 52.6045657,39.6087987 C52.2751148,40.6591814 51.9308885,41.7057038 51.5620366,42.7427754 C51.4981431,42.9219434 51.278376,43.045604 51.1306223,43.1949551 C51.0274609,43.0460033 50.8689251,42.9104958 50.8297903,42.7462363 C50.4155474,41.0078003 50.0287255,39.2627088 49.6171448,37.5236073 C49.3072612,36.2151215 49.0146822,34.8997138 48.6271947,33.6135907 C48.4729185,33.1016439 48.13202,32.6179168 47.4676606,32.5614775 C46.7254309,32.4986489 46.0080932,32.5738569 45.5777438,33.2407454 C45.4130849,33.4960532 45.4101564,33.9450383 45.4981431,34.2597138 C46.0446988,36.2128586 46.6606057,38.1465691 47.2088918,40.0993145 C47.6843661,41.7926256 48.0990083,43.502975 48.5446656,45.2045391 C48.6728519,45.6935907 48.773218,46.1955541 48.9591747,46.6625092 C49.4346489,47.8561198 50.4775774,47.8095308 51.4904226,47.7182163 C52.5386755,47.623574 52.7615042,46.7455707 53.0341165,45.9474343 C53.7884592,43.7400466 54.5346822,41.5298636 55.2887587,39.3223428 C55.3068619,39.2693644 55.379807,39.2350216 55.529025,39.0995141 C55.699807,39.4349551 55.8885591,39.7203461 55.9977105,40.0335574 C56.7539168,42.2018103 57.499208,44.3739235 58.2354476,46.5492313 C58.5096572,47.3594809 59.0326522,47.7264692 60.0111547,47.7388486 C61.3244326,47.7556206 61.7617038,47.5246722 62.0674609,46.607401 C62.3955807,45.6233078 62.7014709,44.6317604 63.0172113,43.6432745 C63.0687255,43.59003 63.1202396,43.5371847 63.1717537,43.4842063 L63.1573777,43.4751547 C63.0495574,43.9606123 62.9543827,44.4493977 62.8303228,44.9308619 C62.659807,45.5925591 62.4992745,46.2597138 62.2749817,46.9038403 C62.0693245,47.4941897 61.5903894,47.8034077 60.9784759,47.8989817 C60.8035674,47.9262696 60.6259967,47.9385158 60.4490915,47.9504958 C58.9242995,48.0532579 58.3276938,47.7051714 57.8326522,46.2840732 C57.2589418,44.6368186 56.7564459,42.9648053 56.2025691,41.3103627 C56.0412379,40.8283661 55.8094908,40.3699301 55.5327521,39.7187488 C55.3139168,40.085604 55.1865291,40.2340233 55.129025,40.4057371 C54.6028353,41.9736572 54.0923527,43.5467687 53.5690915,45.1156206 C53.3667621,45.7228752 53.1801398,46.33998 52.9147155,46.9198136 C52.7786755,47.2170516 52.5281597,47.5101631 52.2532845,47.6864027 C51.519574,48.1565524 49.7217704,48.0857371 49.1773444,47.4700965 C48.8072945,47.0518602 48.6303894,46.4278336 48.468792,45.8663694 C47.8451647,43.7014443 47.2654642,41.5237404 46.6635341,39.352426 C46.2265291,37.7761198 45.7503894,36.209797 45.3533178,34.6236406 C45.1963794,33.99602 44.9791414,33.2161198 45.6215374,32.7660699 C46.2644659,32.3157537 47.01202,32.0959867 47.8703228,32.4214443 C48.7722862,32.7635408 48.9112546,33.5739235 49.0866955,34.2700965 C49.6966123,36.6891314 50.1901897,39.1373178 50.7367454,41.5724592 C50.8123527,41.9096306 50.9366789,42.2357537 51.0382429,42.5670682 L51.2265957,42.5968852 C51.4303894,42.0836073 51.6662629,41.580579 51.8315874,41.0553211 C52.3154476,39.5169517 52.8130183,37.9808453 53.2267288,36.4229085 C53.6908885,34.6740899 55.298609,34.086802 56.7416705,34.7266689 L56.6644659,34.8507288 Z" id="Fill-19" fill="#F49B9F"></path>
                <path d="M23.8000399,36.5026689 C24.5760799,37.1157804 24.6997404,38.0057637 24.7186423,38.8876273 C24.7623028,40.9262296 24.7415374,42.9662962 24.746995,45.0058303 C24.7477937,45.3161131 24.7564459,45.6266622 24.7495241,45.936812 C24.712386,47.6028353 25.1833344,47.9231015 27.0188087,47.7419368 C27.4835008,47.6960133 27.8434343,47.4156805 27.9129185,46.8964126 C27.9597737,46.5465957 28.0320532,46.1945158 28.0271281,45.8444326 C27.9882596,43.1187088 27.9095907,40.3933844 27.8894908,37.6675275 C27.8626023,33.9892579 24.9171115,32.1078602 21.5730849,32.4334509 C20.6996073,32.518376 19.8864293,32.7593078 19.1539168,33.2615374 C18.9799401,33.3809384 18.7548486,33.4260632 18.5527854,33.5053977 C19.0160133,33.1883261 19.4387754,32.7573111 19.9503228,32.573218 C22.3282263,31.7177105 24.5603727,32.0182762 26.509391,33.6849651 C27.6319201,34.6446988 28.0927521,35.9503894 28.1175108,37.4047654 C28.1688918,40.4176106 28.2125524,43.430589 28.2342496,46.4437005 C28.2389085,47.0956805 28.0179434,47.7026689 27.3148486,47.9112546 C26.4625358,48.1640333 25.496812,48.2912879 24.9269617,47.5103228 C24.5477271,46.9906556 24.4360466,46.1922529 24.4132845,45.5116539 C24.3468619,43.518975 24.3583095,41.5224359 24.3930516,39.528426 C24.4115541,38.4661963 24.2233344,37.4670616 23.8000399,36.5026689" id="Fill-21" fill="#ED676C"></path>
                <path d="M17.4043794,33.502203 C16.8784559,33.2892246 16.3694376,32.9974443 15.8228819,32.8804393 C14.786609,32.6585424 14.3824825,33.019807 14.3613178,34.0767121 C14.3426822,35.0080932 14.3404193,35.9397404 14.3397537,36.8712546 C14.3374908,39.7770782 14.3348286,42.6827687 14.3445458,45.5884592 C14.3458769,46.0073611 14.3927321,46.4293245 14.4562263,46.8439667 C14.5423494,47.4060965 14.9446123,47.6664626 15.462416,47.7533844 C15.7221165,47.7969118 15.9936639,47.7829351 16.2592213,47.7752146 C17.1924659,47.7479268 17.5417504,47.4826356 17.5718336,46.5623028 C17.63799,44.5459301 17.6280067,42.5272945 17.6650116,40.5098569 C17.6792546,39.7354143 17.6595541,38.9485923 17.7890715,38.1902562 C18.2038469,35.7623028 21.365777,34.4914875 23.3841464,35.9204393 C23.5613178,36.0459634 23.6564925,36.2875607 23.7898702,36.4755141 C23.443381,36.2466955 23.1255108,35.9342829 22.7450782,35.8018369 C20.6275408,35.0654642 17.8857105,36.2988752 17.997391,38.9635008 C18.0946955,41.2850982 17.9996539,43.6142829 18.0037804,45.9401398 C18.0076406,48.0767121 16.4423827,48.3598403 14.9504692,47.8450982 C14.1937304,47.5840666 14.1032146,46.8193411 14.1006855,46.1154476 C14.0888386,42.9700233 14.0929651,39.8247321 14.0922995,36.6791747 C14.0921664,35.8152812 14.0663428,34.9499235 14.1110682,34.0882928 C14.1310349,33.7033344 14.2831814,33.3215707 14.4037804,32.9475275 C14.4407854,32.8327854 14.5593877,32.7317537 14.662416,32.6530849 C15.2425158,32.2096905 17.1488053,32.8037671 17.4043794,33.502203" id="Fill-23" fill="#ED676C"></path>
                <path d="M56.6644659,34.8507288 L56.7416705,34.7266689 C57.7680932,35.1864359 57.9275607,36.1790483 58.2065624,37.1015108 C58.7181098,38.7932246 59.2335175,40.4837404 59.757178,42.1718602 C59.7908552,42.2803461 59.9097238,42.362609 60.0837005,42.570396 C60.2508885,42.0090649 60.4116872,41.5684659 60.5123195,41.1144226 C61.0382429,38.7421098 61.5161131,36.3586156 62.0754476,33.9942895 C62.5056639,32.1757205 63.888426,31.8301631 65.3752812,32.6976506 C65.866995,32.9843727 66.0037005,33.4836739 65.8543494,34.033025 C65.5528519,35.1418436 65.2400399,36.2473344 64.9297571,37.353624 C64.5185757,38.8193145 64.1052646,40.2843394 63.6930183,41.7497637 C63.6525524,41.6973178 63.6120865,41.6447388 63.5717537,41.5922928 C63.98999,40.0167854 64.4118203,38.4422097 64.8251314,36.865371 C65.0764459,35.9061697 65.3195075,34.9448386 65.5560466,33.9819101 C65.6682596,33.5257371 65.5182429,33.1832413 65.1307554,32.8883993 C64.1864626,32.1705291 62.8966123,32.4571181 62.530822,33.5772512 C62.1542496,34.7306622 61.9014709,35.925604 61.6170116,37.1077671 C61.3181764,38.3496972 61.0446323,39.5976173 60.7631015,40.8435408 C60.6417038,41.3807787 60.540406,41.9230749 60.4027687,42.4560532 C60.3593744,42.6243062 60.2279933,42.7699301 60.1366789,42.9259368 C59.9633677,42.7809784 59.7011381,42.6695641 59.6316539,42.4853378 C59.2813045,41.5579501 58.9658303,40.6165857 58.6676606,39.6706955 C58.3024027,38.511827 58.0151481,37.3256705 57.5949151,36.1879667 C57.4126855,35.6949218 56.982203,35.2937238 56.6644659,34.8507288" id="Fill-25" fill="#F49A9E"></path>
                <path d="M67.966203,1.31853577 C68.2031414,1.34861897 68.4589817,1.33091514 68.6743561,1.41570715 C72.5127587,2.92838602 75.4871348,5.46389351 77.5474343,9.03767055 C78.8166522,11.2392013 79.4257704,13.6684859 79.6744226,16.1695175 C79.8601131,18.0365391 79.8627754,19.9219301 79.9469018,21.7990682 C79.832426,21.2310815 79.6672346,20.6678869 79.612792,20.0941764 C79.4436073,18.3138103 79.4139235,16.5148087 79.1500965,14.7500166 C78.7443727,12.0374709 77.7211448,9.56505824 76.047401,7.34356073 C74.9677338,5.91048253 73.7276672,4.66269551 72.2694309,3.67274542 C71.1660699,2.92372712 69.8947221,2.42336106 68.704173,1.80079867 C68.4451381,1.66529118 68.2116606,1.48053245 67.966203,1.31853577" id="Fill-27" fill="#E87357"></path>
                <path d="M79.9554609,59.1888852 C80.0919002,61.6522463 79.8939634,64.0964393 79.3713677,66.4993677 C78.855827,68.8699501 77.8352612,71.0364725 76.3739634,72.9814975 C75.0878403,74.6934443 73.5051448,76.0883195 71.7150616,77.2517138 C71.5933977,77.330782 71.4248785,77.3378369 71.2781897,77.3783028 C71.302416,77.2876539 71.3267754,77.1966057 71.3510017,77.1058236 C73.4085058,75.8766722 75.1326988,74.2737438 76.4865757,72.3084859 C77.7198536,70.5182696 78.7063428,68.5910815 79.001584,66.3962063 C79.3013511,64.166589 79.5527987,61.9303161 79.8303361,59.6975042 C79.8516339,59.525391 79.9128652,59.3583361 79.9554609,59.1888852" id="Fill-29" fill="#F1AD96"></path>
                <path d="M21.7999201,79.9460765 C20.4818502,79.9302363 19.1637804,79.9142629 17.8455774,79.8985557 C17.5989218,79.8493045 17.3522662,79.8000532 17.1054775,79.7509351 C16.7599201,79.7297704 16.4142296,79.7086057 16.0685391,79.6873078 C15.6243461,79.5531314 15.1801531,79.4189551 14.7359601,79.2847787 C15.0369251,79.2644126 15.341218,79.2049118 15.6381897,79.2299368 C17.4772579,79.3859434 19.3151281,79.5556606 21.1518003,79.736426 C21.3726323,79.7581231 21.5841464,79.8739301 21.7999201,79.9460765" id="Fill-31" fill="#E8765A"></path>
                <path d="M62.2116073,79.8979834 C60.8934043,79.9139567 59.5752013,79.9300632 58.2569983,79.9460366 C58.4064825,79.8752213 58.5525058,79.7523594 58.7062496,79.7415774 C60.1775308,79.6388153 61.6510749,79.5685324 63.1215574,79.4576506 C63.601025,79.4215774 64.0711747,79.2707621 64.5505092,79.2173844 C64.8018236,79.1894309 65.0640532,79.2589151 65.3210915,79.2844725 C64.8325724,79.422376 64.3441864,79.5604126 63.8555341,79.6983161 C63.5541697,79.7158869 63.2528053,79.7333245 62.951574,79.7507621 C62.7047854,79.7997471 62.4582629,79.8488652 62.2116073,79.8979834" id="Fill-33" fill="#E8765A"></path>
                <path d="M13.2590083,1.00904183 C13.2785757,0.947785758 13.2900233,0.837363636 13.3191747,0.832393297 C14.1025358,0.698328481 14.8878935,0.57487601 15.6728519,0.449677205 C15.5381431,0.549889983 15.4033012,0.650102761 15.2685923,0.750315539 C15.0046323,0.779600238 14.7406722,0.808884937 14.4767121,0.838169637 C14.2529517,0.902112374 14.0290582,0.966055112 13.8052978,1.02999785 C13.6232013,1.02301251 13.4411048,1.01602717 13.2590083,1.00904183" id="Fill-35" fill="#F0A68D"></path>
                <path d="M63.8554809,79.6983161 C64.3441331,79.5604126 64.8326522,79.422376 65.3211714,79.2844725 C65.4423028,79.2684992 65.5634343,79.2526589 65.6846988,79.2368186 C65.9622363,79.1658702 66.2397737,79.0947887 66.5174443,79.0237072 C66.6526855,79.0307621 66.7877937,79.037817 66.9229018,79.0448719 C66.8946822,79.1026423 66.874183,79.2055374 66.837178,79.2117937 C65.8442995,79.3800466 64.8498236,79.5384493 63.8554809,79.6983161" id="Fill-37" fill="#F4BEA9"></path>
                <path d="M14.7359068,79.2848186 C15.1800998,79.418995 15.6242928,79.5531714 16.068619,79.6872146 C15.0401997,79.7023894 14.0191015,79.6834875 13.1336439,79.0449517 C13.2688852,79.03803 13.4039933,79.030975 13.5392346,79.0239201 C13.816772,79.0950017 14.0943095,79.1659501 14.3718469,79.2371647 C14.4932446,79.253005 14.6145092,79.2688453 14.7359068,79.2848186" id="Fill-39" fill="#F4BEAA"></path>
                <path d="M65.1894443,0.776599002 C64.8336373,0.67756406 64.4779634,0.57866223 64.1222895,0.479760399 C64.1220233,0.439427621 64.1220233,0.39896173 64.1221564,0.35849584 C64.9257504,0.473104825 65.7314742,0.575201331 66.5309418,0.713903494 C66.6740366,0.738795341 66.7909085,0.915301165 66.9200266,1.02192346 C66.7415241,1.02538436 66.5630216,1.02884526 66.3846522,1.03230616 C66.106183,0.959627288 65.8277138,0.886948419 65.5491115,0.814136439 C65.4293111,0.80162396 65.3092446,0.789111481 65.1894443,0.776599002" id="Fill-41" fill="#F0A78F"></path>
                <path d="M11.5656705,78.6954276 C10.9817105,78.406975 10.3977504,78.1185225 9.81365724,77.8299368 C10.0679002,77.9044792 10.32201,77.9787554 10.5761198,78.0530316 C10.6799468,78.1092047 10.7836406,78.1655108 10.8874676,78.2216839 C10.9612113,78.2533644 11.0349551,78.2849118 11.1088319,78.3163261 C11.2611115,78.4426489 11.413391,78.5691048 11.5656705,78.6954276" id="Fill-43" fill="#EFA38A"></path>
                <path d="M10.0235874,2.11180033 C10.0731048,2.05442928 10.1224892,1.99719135 10.1721398,1.93995341 C10.364619,1.84078536 10.5569651,1.7416173 10.7493111,1.64244925 C10.8633877,1.60650915 10.9774642,1.57070216 11.0916739,1.53489517 C11.1994942,1.48085191 11.3070483,1.42680865 11.4146023,1.37263228 L11.9640865,1.31898835 C11.3171647,1.58334775 10.670376,1.84757404 10.0235874,2.11180033" id="Fill-45" fill="#EE9A80"></path>
                <path d="M70.1172978,77.9703428 C69.4984626,78.2462829 68.8796273,78.522223 68.260792,78.7984293 C68.2509418,78.7746023 68.2432213,78.7499767 68.2372313,78.7248186 L68.9559002,78.3242862 C69.0293777,78.2922063 69.1029884,78.2602596 69.1764659,78.2281797 C69.4900765,78.1421897 69.8036872,78.0563328 70.1172978,77.9703428" id="Fill-47" fill="#F1AD96"></path>
                <path d="M18.4608852,33.5880765 C18.2364592,33.7686333 18.0121664,33.9490565 17.7878735,34.1296133 C17.6598203,33.9202101 17.5319002,33.7109406 17.4038469,33.5015374 C17.756193,33.5303838 18.1085391,33.5592301 18.4608852,33.5880765" id="Fill-49" fill="#ED676C"></path>
                <path d="M71.3510549,77.1057571 C71.3266955,77.1966722 71.3024692,77.2875874 71.2781098,77.3783694 C71.1593744,77.4446589 71.0403727,77.5109484 70.9215042,77.577371 C70.816213,77.6339434 70.7109218,77.6906489 70.6056306,77.7472213 C70.5205724,77.7521464 70.435381,77.7570715 70.3501897,77.7619967 C70.6837671,77.5431614 71.0173444,77.3245923 71.3510549,77.1057571" id="Fill-53" fill="#E8765A"></path>
                <path d="M8.77560067,77.3626223 L8.71303827,77.0993278 C9.04461897,77.3205591 9.37619967,77.5415241 9.70764725,77.7624892 C9.6200599,77.7537038 9.53247255,77.7449185 9.44475208,77.7361331 C9.34318802,77.6812912 9.24149085,77.6260499 9.13992679,77.5710749 C9.01852912,77.5015907 8.89699834,77.4321065 8.77560067,77.3626223" id="Fill-55" fill="#E8765A"></path>
                <path d="M6.82975042,4.11764393 C7.14908486,3.87857571 7.46855241,3.6396406 7.78801997,3.40057238 C7.46855241,3.6396406 7.14908486,3.87857571 6.82975042,4.11764393" id="Fill-61" fill="#EE9A80"></path>
            </g>
        </g>
    </g>
</svg>