<?xml version="1.0" encoding="UTF-8"?>
<svg width="120px" height="120px" viewBox="0 0 120 120" version="1.1" xmlns="http://www.w3.org/2000/svg" xmlns:xlink="http://www.w3.org/1999/xlink">
    <!-- Generator: Sketch 48.1 (47250) - http://www.bohemiancoding.com/sketch -->
    <title>Artboard 2 Copy 11@2x</title>
    <desc>Created with Sketch.</desc>
    <defs></defs>
    <g id="Page-1" stroke="none" stroke-width="1" fill="none" fill-rule="evenodd">
        <g id="Artboard-2-Copy-11" fill-rule="nonzero">
            <g id="Group-2" transform="translate(19.000000, 2.000000)">
                <g id="slack-(1)" transform="translate(0.000000, 86.806452)" fill="#443642">
                    <path d="M0.711163866,14.8418903 C0.711163866,11.1134903 3.44255896,8.51005161 8.40629567,8.51005161 C11.4349992,8.51005161 13.9133282,9.47247097 15.2560197,10.4152645 C15.4481579,10.5498774 15.7909727,10.876471 15.5854355,11.4838645 C15.322004,12.1380581 14.8388778,13.1218645 14.4922707,13.7609613 C14.2905257,14.1333484 13.7752921,14.0842839 13.511355,13.9511806 C12.5549622,13.4688387 10.9862556,12.6528581 9.54521967,12.5023935 C9.18031678,12.462854 8.8132105,12.4470527 8.44624017,12.4550903 C7.17711731,12.483271 6.11681825,12.9218323 5.74341298,13.8855097 C5.67023882,14.0678465 5.62943534,14.2614451 5.62282103,14.4576774 C5.58793279,15.7275677 7.36369354,16.1867613 9.51488207,16.5546194 C13.514136,17.2364903 16.5398058,18.403471 16.5398058,22.5002323 C16.5398058,25.9792839 13.7616402,29.1234387 8.31831663,29.027071 C4.72988438,28.9548581 2.18405426,27.7481226 0.819873593,26.5771161 C0.773355943,26.5373613 0.254077386,26.0109871 0.53242485,25.377929 C0.850969632,24.5629548 1.38870356,23.6289677 1.81064899,23.1330387 C2.04525975,22.8144968 2.66439957,22.7639226 2.98623092,22.9624452 C4.11074457,23.6579032 5.96133806,24.7730516 8.09457685,24.8470258 C8.26295052,24.8528129 8.42980731,24.8538194 8.59363034,24.8495419 C10.5124834,24.8032452 11.6734022,24.0791032 11.6491321,22.8592839 C11.6284014,21.7846452 10.1069709,21.156871 7.68426083,20.7024581 C3.82026206,19.9780645 0.711669493,18.7104387 0.711669493,14.8418903 L0.711163866,14.8418903 Z M35.8150516,20.150671 C33.0902297,20.1861484 30.5919285,20.9274 30.5198767,23.0467355 C30.5191182,24.7285161 31.8898721,25.5545613 33.8137814,25.4463677 C35.6593186,25.2694839 37.0667304,24.4728774 37.6868815,23.4158516 C37.9161831,23.0240903 37.9510714,21.5581935 37.9371666,20.9316774 C37.9336273,20.7983226 37.6686789,20.5459548 37.5526376,20.4973935 C36.9736951,20.2545871 36.5451765,20.1796065 35.8147988,20.1501677 L35.8150516,20.150671 Z M26.7484076,11.610929 C28.0225867,10.4761548 30.5489502,8.70983226 34.5752551,8.80292903 C39.8886326,8.91288387 42.6956189,11.3920258 42.9570279,17.3225419 C43.0647264,19.7682194 42.8862402,26.5899484 42.8437675,28.2895935 C42.8374472,28.5334065 42.7545244,28.7019871 42.4243502,28.7082774 C41.5493633,28.7432516 39.527868,28.7294129 38.5990319,28.7173355 C38.130316,28.6946903 38.0759612,28.4632065 38.0698936,28.2209032 C38.0658486,28.0623871 38.0521967,27.5923742 38.042337,27.2091677 C38.0370279,27.0058645 37.8451426,27.0116516 37.7960968,27.0637355 C36.5497271,28.3882258 34.5085124,29.0278258 32.3378573,29.0278258 C29.0386434,29.0278258 25.7495422,27.0961935 25.7596547,23.2709226 C25.7697672,19.3533097 28.5608263,17.4209226 31.6269462,16.9652516 C33.5902944,16.6743871 35.8034222,16.9330452 37.4793217,17.5957935 C37.5865146,17.6385677 37.8054509,17.576671 37.8072206,17.4254516 C37.8140466,16.9262516 37.7897765,15.9749032 37.6934546,15.5240129 C37.4474672,14.3751484 36.4845013,13.4507226 34.4614891,13.2016258 C34.0448528,13.1505484 33.6254355,13.1336903 33.2055126,13.1669032 C31.597367,13.2927097 29.6620811,14.5407097 28.8606629,15.0079548 C28.6720641,15.1176581 28.3767782,15.0373935 28.2812147,14.9148581 C27.8135101,14.3135032 26.6379282,12.554729 26.5453985,12.2736774 C26.4528688,11.9933806 26.5833205,11.7573677 26.747902,11.6099226 L26.7484076,11.610929 Z M44.7090242,18.9036774 C44.6774225,13.4399032 48.5024881,8.83060645 54.7136057,8.79009677 C58.5892339,8.76493548 61.4048158,10.5136452 61.9013411,11.3384323 C62.0022137,11.5321742 61.9503869,11.6939613 61.8806105,11.8889613 C61.5524588,12.5783806 60.7237367,13.9104194 60.1331648,14.6652581 C59.8816155,14.9868194 59.6085772,14.7113032 59.2912964,14.5012065 C58.4107476,13.9174645 56.7376291,13.2036387 55.091056,13.2036387 C52.1038138,13.2041419 49.8793094,15.2427097 49.9040851,18.9932516 C49.9273439,22.5923226 52.0580546,24.5702516 55.1014213,24.6419613 C56.6923755,24.6817161 58.2337783,23.7716323 59.063006,23.0261032 C59.3234037,22.7999032 59.5929027,22.913129 59.890464,23.1446129 C60.4744628,23.738671 61.3120333,24.6558 61.7764514,25.2870968 C62.0805858,25.6378452 61.8530538,25.9810452 61.7435856,26.118929 C60.4835641,27.7058516 58.049983,29.0414129 54.8293942,29.059529 C48.0858517,29.1065806 44.7406259,24.3875806 44.7095298,18.9044323 L44.7090242,18.9036774 Z M76.8989857,28.8132 C77.2155079,28.7895484 80.5933467,28.3255742 81.6301341,28.0893097 C81.8874981,28.0309355 81.9790165,27.8155548 81.8351657,27.6021871 C81.2562232,26.7381484 79.7340342,24.2844194 78.1397934,22.0878387 C76.6734762,20.0681419 75.1280284,18.2917548 74.6282164,17.6083742 C74.5063604,17.4423097 74.5129336,17.2787613 74.6456606,17.1499355 C75.5964914,16.224 79.5737506,12.342871 81.0691414,10.7400968 C81.6480839,10.1166 81.3004655,9.84838065 80.8087436,9.70269677 C79.858924,9.42089032 78.3225775,9.06963871 77.4488546,8.8862129 C77.0805056,8.80871613 76.6368183,8.83589032 76.3147341,9.16550323 C74.8195961,10.5531484 70.2565685,15.1111161 68.8944104,16.4736 C68.6491814,16.7194258 68.5063419,16.6648258 68.5050778,16.3135742 C68.4939541,13.6867355 68.4418745,2.44014194 68.3475752,0.590283871 C68.341002,0.345716129 68.0454632,0.160025806 67.8788593,0.151219355 C67.0223277,0.106683871 64.8584985,0.0938516129 64.0057592,0.143670968 C63.7668506,0.170593548 63.5385602,0.412896774 63.5178295,0.617709677 C63.3211407,3.57567097 63.6012579,25.2893613 63.7180577,28.3268323 C63.7264005,28.5464903 63.8907292,28.7168323 64.1003114,28.7291613 C64.9510282,28.7782258 67.0551935,28.7749548 68.037626,28.7565871 C68.5210051,28.7565871 68.5801634,28.4184194 68.5801634,28.4184194 L68.6529736,22.5918194 C68.6529736,22.5918194 68.7027779,22.3326581 68.7834253,22.2471097 C69.1297796,21.8759806 70.087942,20.853929 70.4964884,20.4588968 C70.5945799,20.3640387 70.7493017,20.3708323 70.8494158,20.5049419 C71.3348173,21.1566194 72.7189702,23.2752 74.0019978,25.167329 C75.1808663,26.905471 76.2813627,28.4481097 76.358218,28.5570581 C76.5356929,28.808671 76.7429998,28.8187355 76.8992385,28.8139548 L76.8992385,28.8132 L76.8989857,28.8132 Z M19.4514568,28.793071 C19.7485124,28.8028839 22.0023431,28.8003677 23.0009558,28.7991097 C23.3371975,28.8056516 23.5118915,28.5522774 23.5230153,28.3285935 C23.7351256,24.0697935 23.6443657,3.79331613 23.5103746,0.591541936 C23.4992508,0.314767742 23.3801757,0.210851613 23.1903129,0.185690323 C22.3332758,0.0714580646 19.8976723,0.0981290324 19.1169847,0.301432258 C18.9642855,0.340935484 18.874284,0.456425807 18.8694805,0.604877419 C18.6783536,8.85778065 18.8072884,27.8847484 18.8477386,28.2450581 C18.8879359,28.605871 19.0775459,28.7804903 19.4519624,28.793071 L19.4514568,28.793071 Z" id="Shape"></path>
                </g>
                <g id="Group" transform="translate(5.046154, 0.000000)">
                    <path d="M6.3525751,39.2955613 C3.66725944,39.3159923 1.39251261,37.7233497 0.553779148,35.2375819 C0.522664229,35.1437035 0.493656522,35.0491463 0.466777658,34.9539806 C-0.447226761,31.7706413 1.32506202,28.4403935 4.50159396,27.3740916 L55.4512307,10.3857419 C56.056189,10.2115612 56.6822449,10.1205619 57.3119873,10.1152748 C60.0686637,10.093871 62.4059734,11.7215381 63.2652353,14.2598426 L63.3414838,14.5050142 C64.29459,17.8206684 61.9264876,20.78024 59.0891638,21.7288206 C59.0872087,21.73028 58.571065,21.9039432 8.42203751,38.9448297 C7.75546304,39.1709826 7.05678915,39.2893935 6.3525751,39.2955613 Z" id="Shape" fill="#70CADB"></path>
                    <path d="M14.8449958,64.2335032 C12.138663,64.2529613 9.85609578,62.6826955 9.02713776,60.2324387 C8.9956711,60.1392291 8.96633718,60.0453197 8.93915873,59.9507832 C8.01244623,56.7295006 9.78277992,53.3642284 12.9700648,52.2964671 L63.9216566,35.1524529 C64.5800331,34.9335497 65.2599155,34.8216658 65.9437081,34.8153419 C68.6573726,34.794911 71.0416044,36.4449548 71.8827818,38.9229394 L71.9609854,39.1807587 C72.4531792,40.8935548 72.1623596,42.8184439 71.1838372,44.3376323 C70.4545888,45.4671729 68.1544258,46.46148 68.1544258,46.46148 L17.0092801,63.8662323 C16.3117381,64.1012534 15.5813702,64.2255225 14.8449958,64.2344761 L14.8449958,64.2335032 Z" id="Shape" fill="#E01765"></path>
                    <path d="M57.2587111,64.3419819 C54.5494252,64.3678758 52.1313813,62.6549061 51.2688051,60.0986645 L34.2644127,9.82875484 L34.1793663,9.5466129 C33.2580303,6.34089677 35.0298303,2.99702839 38.2053847,1.93169935 C38.8407889,1.71912 39.497699,1.60820903 40.1590081,1.60237161 C41.1414406,1.59507484 42.092103,1.81543742 42.987534,2.25567613 C44.4772863,2.98890703 45.6117647,4.28309918 46.1396274,5.85152645 L63.1425534,56.1170581 L63.1919194,56.27856 C64.1469807,59.6068619 62.3790909,62.9526761 59.2035365,64.0180052 C58.576277,64.2265686 57.9200217,64.3358903 57.2587111,64.3419819 Z" id="Shape" fill="#E8A723"></path>
                    <path d="M31.9828231,72.8091587 C29.2719745,72.8348588 26.8527878,71.1204037 25.9904733,68.5624361 L8.99047983,18.2944723 C8.45848656,16.7282175 8.57438055,15.0156742 9.31259995,13.5345649 C10.0508194,12.0534556 11.3507177,10.9254568 12.9255866,10.3993626 C13.5537762,10.190363 14.2110149,10.0807141 14.8733446,10.0744129 C17.5830861,10.0477882 20.0018004,11.7609533 20.8642281,14.3177303 L37.8647103,64.58764 C38.3969585,66.1546517 38.2806839,67.8680589 37.5415552,69.3496103 C36.8024266,70.8311617 35.5012255,71.9590234 33.9252047,72.484209 C33.2982358,72.6933194 32.6420795,72.8028161 31.980868,72.8086723 L31.9828231,72.8086723 L31.9828231,72.8091587 Z" id="Shape" fill="#3EB890"></path>
                    <polygon id="Shape" fill="#CC2027" points="48.8757753 53.02128 60.7324166 48.9866503 56.8564514 37.5307148 44.9861245 41.5230232 48.8757753 53.02128"></polygon>
                    <polygon id="Shape" fill="#361238" points="23.6389892 61.6090968 35.4946529 57.5749535 31.5893613 46.0314568 19.721967 50.0252245 23.6389892 61.6090968"></polygon>
                    <polygon id="Shape" fill="#65863A" points="40.4346757 28.0682581 52.2922945 24.0389794 48.4617851 12.7168181 36.5821715 16.6779935"></polygon>
                    <polygon id="Shape" fill="#1A937D" points="15.1949569 36.6444 27.0525757 32.6151213 23.1751441 21.1484839 11.2955305 25.1091729 15.1949569 36.6444"></polygon>
                </g>
            </g>
        </g>
    </g>
</svg>