<svg height="128" viewBox="0 0 376 128" width="376" xmlns="http://www.w3.org/2000/svg"><g fill="none" fill-rule="evenodd" transform="translate(97 43)"><g fill="#000"><path d="m16.9261623 18.3324167s-1.5014032-1.524875-4.5133983-1.524875c-1.7901523 0-3.56606238.8657916-3.52747062 2.679875.08131836 3.8167708 10.88838952 6.8756875 10.88080902 13.1016875-.0013783 1.1671458.678342 8.4457083-10.61847693 8.987-.21524095.0103125-4.49525094.2436041-8.91814232-3.1670834l2.36075905-3.898125c4.28713108 3.4377292 5.7432809 2.7110417 6.08716105 2.6979792 3.79876155-.144375 3.75281895-2.7875833 3.73536075-3.5147292-.1084244-4.543-10.88057923-6.7083958-10.64535326-13.6292291.18009488-5.3026875 5.28201747-7.4341667 9.43821226-7.4341667 4.4904269 0 7.9636854 2.1644792 7.9636854 2.1644792z"/><path d="m40.4425568 12.63075c-7.9581723-.2562083-10.166402 4.7994375-10.166402 4.7994375l.0362946-4.2228542h-7.2357253v41.5788542h7.2357253l-.0723595-17.6492708s2.9304469 4.4462916 8.3029713 4.4462916c10.2566791 0 13.5128589-9.4808541 13.5128589-14.78675 0-5.8652916-2.6773034-13.877875-11.6133633-14.1657083zm-3.1686592 24.6143333c-4.8632509 0-7.0395505-4.5326875-7.0395505-10.124125s2.3210187-10.124125 7.0395505-10.124125c5.1582023 0 7.0395506 4.5326875 7.0395506 10.124125.0002297 5.1431875-2.279211 10.124125-7.0395506 10.124125z" fill-rule="nonzero"/><path d="m55.203446.213813h7.452804v40.712604h-7.452804z"/><path d="m74.6677054 30.4596875s-.5065169 6.0997292 5.4990961 6.0635208c.5281099-.0032083 6.0779725.3969167 6.2695531-7.3628958l-.0107965-15.9529792h7.2720199v27.7193125h-7.2612234l-.0107965-3.7175416c-3.9797753 4.6197708-8.9670712 4.3672291-9.2254982 4.3672291-9.9130287.0036667-9.9130287-8.9510208-9.9130287-8.9510208v-19.4179792h7.3804445z"/><path d="m117.865208 23.6765833s.506517-6.0997291-5.499096-6.0635208c-.52811.0032083-6.077972-.3969167-6.269553 7.3628958l.010797 15.9529792h-7.2720202v-27.7193125h7.2612232l.010797 3.7175417c3.979775-4.6197709 8.967071-4.3672292 9.225498-4.3672292 9.913029-.0036667 9.913029 8.9510208 9.913029 8.9510208v19.4179792h-7.380445z"/><path d="m137.582612 40.9289375h-7.27202v-40.715125h7.27202v23.9474583l.75966.0002292 9.913029-11.3513125 5.499096 2.3821875-9.370217 10.0338333 11.106846 13.89575-6.837633 2.2737917-10.84015-15.0596875-.230631-.0091667z"/></g><path d="m184 29.1962917-22.105268 10.8278958v-4.7281667l17.257408-8.4997916-17.257408-8.2832292v-4.9447292l22.105268 11.0442292z" fill="#6ab361"/></g></svg>