<?xml version="1.0" encoding="UTF-8"?>
<svg width="120px" height="120px" viewBox="0 0 120 120" version="1.1" xmlns="http://www.w3.org/2000/svg" xmlns:xlink="http://www.w3.org/1999/xlink">
    <!-- Generator: Sketch 48.1 (47250) - http://www.bohemiancoding.com/sketch -->
    <title>Artboard 2 Copy 9@2x</title>
    <desc>Created with Sketch.</desc>
    <defs></defs>
    <g id="Page-1" stroke="none" stroke-width="1" fill="none" fill-rule="evenodd">
        <g id="Artboard-2-Copy-9" fill-rule="nonzero">
            <g id="tenable" transform="translate(0.000000, 6.000000)">
                <g id="Group-16">
                    <g id="Group" transform="translate(29.189189, 0.000000)" fill="#00A6B5">
                        <path d="M52.3921348,9.59405403 C52.5606742,10.2128083 53.1707865,12.4826949 53.7404494,14.6382465 L58.3146067,31.6674402 C58.894382,33.8229917 59.5044944,36.0928783 59.6629213,36.7116326 C59.8746286,37.6446355 59.6124193,38.6218164 58.9617978,39.3245243 L55.2539326,43.0235988 L42.758427,55.4928425 L39.0505618,59.191917 C38.3465928,59.8392243 37.3684381,60.099531 36.4348315,59.8880155 L31.3786517,58.5428975 L14.3325843,53.959408 L9.27640449,52.61429 C8.82229032,52.4829224 8.41078075,52.2347465 8.08314607,51.8946519 C7.7421151,51.565973 7.49240547,51.1546392 7.35842697,50.7008597 C7.19325843,50.0854682 6.57977528,47.8122188 6.01011236,45.6566672 L1.43932584,28.6140223 C0.862921348,26.4618336 0.252808989,24.191947 0.091011236,23.5698299 L0.74494382,23.3916018 L1.40224719,23.2167364 C1.56741573,23.8388535 2.17752809,26.1087401 2.7505618,28.2609289 L7.3247191,45.2968482 C7.90449438,47.4456741 8.51460674,49.7189235 8.67303371,50.3410406 C8.74889544,50.5632029 8.87722639,50.7638934 9.04719101,50.9261669 C9.20831675,51.0952007 9.40855156,51.2222158 9.63033708,51.2960744 L14.6865169,52.6411924 L31.7629213,57.2045051 L36.8191011,58.5496231 C37.2823113,58.6334555 37.7590794,58.5105517 38.1235955,58.2133436 L41.8314607,54.5142692 L54.3269663,42.0450254 L58.0348315,38.345951 C58.3310977,37.9814678 58.4540963,37.506592 58.3719101,37.0445493 C58.2033708,36.4224323 57.5966292,34.1491829 57.0235955,32.0003569 L52.4393258,14.9846144 C51.8629213,12.8357884 51.252809,10.562539 51.0910112,9.94042191 C51.0198643,9.71763417 50.8934871,9.51637268 50.7235955,9.35529559 C50.56319,9.1837734 50.3611914,9.05637591 50.1370787,8.98538814 L45.0808989,7.64027016 L27.9977528,3.06350621 L22.941573,1.71838823 C22.4773418,1.63537656 21.9998872,1.75814013 21.6337079,2.05466772 L17.9258427,5.75374218 L5.43707865,18.2263487 L1.72921348,21.9254232 C1.43212702,22.2894932 1.30903051,22.7647472 1.39213483,23.2268248 L0.734831461,23.4016902 L0.091011236,23.5731927 C-0.131473976,22.645644 0.12099751,21.6683771 0.765168539,20.9636638 L4.47303371,17.2645893 L16.9752809,4.80207121 L20.6831461,1.10299675 C21.3844231,0.450779766 22.3646322,0.188666199 23.2988764,0.403535396 L28.3550562,1.74865338 L45.4280899,6.31532894 L50.4842697,7.66044693 C50.9352791,7.80233585 51.3417445,8.0583812 51.6640449,8.40362461 C52.0049478,8.73048254 52.2537135,9.14101648 52.3853933,9.59405403 L52.3921348,9.59405403 Z" id="Shape"></path>
                        <path d="M30.994382,5.07109481 L34.7325843,7.22328358 L47.3460674,14.4869207 L51.0842697,16.6391095 C51.7536242,17.0589699 52.1723339,17.7811674 52.2033708,18.5693538 L52.2033708,22.8737313 L52.2033708,41.7053831 C52.1712407,42.4923615 51.7526656,43.2130689 51.0842697,43.6322647 L47.3494382,45.7844534 L34.7292135,53.0514533 L30.9910112,55.2036421 C30.6495045,55.390889 30.2649115,55.4859399 29.8752809,55.4793913 C29.4846356,55.4854426 29.0990802,55.3904408 28.7561798,55.2036421 L25.0348315,53.0615417 L12.4044944,45.791179 L8.66966292,43.6389902 L8.94606742,43.1581106 L9.2258427,42.6738681 L12.9606742,44.8294197 L25.5808989,52.0997824 L29.3191011,54.2519711 C29.4927573,54.3380637 29.6847845,54.3807635 29.8786517,54.3763946 C30.071493,54.3813093 30.2625592,54.3385657 30.4348315,54.2519711 L34.1730337,52.0997824 L46.7932584,44.8294197 L50.5314607,42.6738681 C50.8482956,42.4488028 51.0522734,42.0982043 51.0910112,41.7121087 L51.0910112,37.4043684 L51.0910112,18.5727166 C51.0540212,18.185977 50.85123,17.8340794 50.5348315,17.6075944 C50.0730337,17.3452964 48.3910112,16.3734487 46.7966292,15.4554057 L34.1696629,8.18504294 L30.4280899,6.03285416 C30.256059,5.94558868 30.0648203,5.90280653 29.8719101,5.90843075 C29.6788597,5.90131929 29.4872514,5.94418413 29.3157303,6.03285416 L25.5808989,8.18504294 L12.9606742,15.4486801 L9.2258427,17.6008688 C8.90817075,17.8266844 8.70409237,18.1786822 8.66629213,18.565991 L8.66629213,22.8703685 L8.66629213,41.7020203 C8.70502994,42.0881159 8.90900779,42.4387145 9.2258427,42.6637797 L8.94606742,43.1480222 L8.66966292,43.6289019 C7.99993211,43.2114507 7.58181799,42.4893619 7.55393258,41.7020203 C7.55393258,41.1706987 7.55393258,39.2337288 7.55393258,37.39428 L7.55393258,18.5626282 C7.58130348,17.7742484 7.99940615,17.0509192 8.66966292,16.6323839 L12.4078652,14.4801951 L25.0348315,7.21992079 L28.7426966,5.07109481 C29.0856531,4.88443973 29.47117,4.78944745 29.8617978,4.79534562 C30.2514816,4.78832708 30.6361941,4.88340755 30.9775281,5.07109481 L30.994382,5.07109481 Z" id="Shape"></path>
                        <path d="M14.7640449,13.498259 L18.4719101,12.4894205 L30.9977528,9.12662553 L34.705618,8.11778704 C35.391346,7.96303272 36.1095285,8.15409399 36.6269663,8.62893188 L39.3438202,11.3393446 L48.5157303,20.4861469 L51.2325843,23.1965597 C51.7101321,23.7119031 51.9018704,24.4292173 51.7449438,25.1133528 C51.6235955,25.5706929 51.1752809,27.2352764 50.7539326,28.8124272 L47.3831461,41.3119361 C46.958427,42.8924498 46.5134831,44.5570333 46.3719101,45.0110106 C46.2750107,45.3435329 46.0925607,45.6449631 45.8426966,45.8853373 C45.601171,46.1346214 45.2993324,46.3176115 44.9662921,46.4166589 L41.258427,47.4086834 L28.7292135,50.7714784 L25.0213483,51.7635029 L24.9168539,51.3263395 L24.788764,50.8454599 L28.4966292,49.8567981 L41.0292135,46.4940032 L44.7370787,45.4851647 C44.8994116,45.4295287 45.046148,45.3361628 45.1651685,45.2127783 C45.2885525,45.0944326 45.3811186,44.9478323 45.4348315,44.7857033 L46.4460674,41.0866289 L49.8168539,28.5837572 C50.241573,27.0032436 50.6865169,25.3386601 50.811236,24.8846827 C50.8704985,24.5442568 50.7768261,24.1950474 50.5550562,23.929649 L47.8382022,21.2192362 L38.6696629,12.0724339 L35.952809,9.36202118 C35.6859304,9.14241735 35.3366554,9.04917098 34.9955056,9.10644876 L31.2876404,10.1152873 L18.7617978,13.4780822 L15.0539326,14.4869207 C14.8906915,14.5389588 14.7433845,14.6315306 14.6258427,14.7559443 C14.4994232,14.8737619 14.4054153,15.0219653 14.352809,15.1863821 C14.2280899,15.6403594 13.7797753,17.3083057 13.341573,18.8854565 L9.97078652,31.3816026 C9.54606742,32.9621162 9.1011236,34.6300625 8.97977528,35.0806771 C8.9208791,35.4221314 9.01445633,35.772214 9.23595506,36.0390736 L11.952809,38.7494864 L21.1213483,47.8962887 L23.8382022,50.6067014 C24.1050808,50.8263052 24.4543559,50.9195516 24.7955056,50.8622738 L24.9235955,51.3431535 L25.0550562,51.8206704 C24.3703177,51.9784698 23.6517199,51.7869621 23.1370787,51.3095256 L20.4168539,48.5991128 L11.2483146,39.4489477 L8.51797753,36.7149954 C8.03873947,36.2019183 7.8455692,35.4852301 8.00224719,34.8015651 C8.12696629,34.344225 8.5752809,32.6830043 9.01348315,31.1024906 L12.3842697,18.6063445 L13.3786517,14.9072701 C13.4779345,14.5750194 13.6613595,14.2738964 13.911236,14.0329434 C14.1519835,13.7834244 14.4542006,13.6013644 14.7876404,13.5049846 L14.7640449,13.498259 Z" id="Shape"></path>
                        <path d="M11.4606742,48.5150429 C4.01093017,41.0838154 1.78199033,29.9072632 5.81325122,20.1972227 C9.84451212,10.4871823 19.3420429,4.15598354 29.8769663,4.15598354 C40.4118897,4.15598354 49.9094205,10.4871823 53.9406814,20.1972227 C57.9719423,29.9072632 55.7430024,41.0838154 48.2932584,48.5150429 C43.4091977,53.3882255 36.7845681,56.1260099 29.8769663,56.1260099 C22.9693645,56.1260099 16.3447348,53.3882255 11.4606742,48.5150429 Z M47.4337079,47.7113349 C57.0819366,38.0272767 57.0421105,22.3763035 47.3447215,12.7412398 C37.6473324,3.10617612 21.9591332,3.13020837 12.2914496,12.7949368 C2.623766,22.4596652 2.63211857,38.1106866 12.3101124,47.7651397 C16.9753623,52.4042461 23.2968092,55.0044526 29.8837782,54.9937315 C36.4707472,54.9830105 42.7836559,52.3622403 47.4337079,47.7079722 L47.4337079,47.7113349 Z" id="Shape"></path>
                        <path d="M30.7044944,11.3292562 L33.4617978,12.923221 L42.805618,18.303693 L45.5966292,19.8976578 C46.0926552,20.2082057 46.4029818,20.743068 46.4258427,21.3268457 C46.4258427,21.7202927 46.4258427,23.1528433 46.4258427,24.5147753 L46.4258427,38.4670116 C46.4024677,39.0497495 46.0921304,39.5833716 45.5966292,39.8928367 L42.8292135,41.4901643 L33.4820225,46.8706362 L30.7146067,48.464601 C30.461018,48.6043437 30.1750471,48.6750871 29.8853933,48.6697315 C29.5959166,48.6735381 29.3103372,48.6028916 29.0561798,48.464601 L26.288764,46.8706362 L16.9449438,41.4901643 L14.1674157,39.8928367 L14.3730337,39.5363804 L14.5820225,39.1799241 L17.3494382,40.7738889 L26.6966292,46.1543609 L29.4640449,47.7483257 C29.5915021,47.8120129 29.7327891,47.8432072 29.8752809,47.8391212 C30.0178263,47.8437776 30.1592524,47.8125526 30.2865169,47.7483257 L33.0539326,46.1543609 L42.3977528,40.7738889 L45.1651685,39.1799241 C45.4009864,39.0155106 45.5525637,38.7561042 45.5797753,38.4703744 L45.5797753,35.2824448 L45.5797753,21.3268457 C45.5529941,21.0409003 45.4029027,20.7807041 45.1685393,20.6139331 L42.3977528,19.0199683 L33.0539326,13.6394964 L30.2865169,12.0455316 C30.1593117,11.9808132 30.0180432,11.9484678 29.8752809,11.9513733 C29.7323573,11.9468603 29.5906927,11.9792964 29.4640449,12.0455316 L26.6932584,13.6361336 L17.3460674,19.0166055 L14.5853933,20.6139331 C14.3497556,20.7800297 14.1983749,21.0403275 14.1707865,21.3268457 L14.1707865,24.5147753 L14.1707865,38.4670116 C14.1974904,38.7538124 14.3490707,39.0144533 14.5853933,39.1799241 L14.3764045,39.5363804 L14.1674157,39.8928367 C13.6714476,39.5842814 13.3618612,39.0497775 13.341573,38.4670116 C13.341573,38.0735646 13.341573,36.6376511 13.341573,35.279082 L13.341573,21.3268457 C13.361937,20.7432104 13.6713634,20.2077228 14.1674157,19.8976578 L16.9449438,18.303693 L26.2921348,12.923221 L29.0595506,11.3292562 C29.3140234,11.192135 29.5995848,11.122651 29.888764,11.1274885 C30.1781316,11.1209461 30.4641243,11.1905351 30.7179775,11.3292562 L30.7044944,11.3292562 Z" id="Shape"></path>
                        <path d="M16.2370787,43.5044784 C8.70597814,35.9896171 8.70685344,23.807064 16.2390337,16.2932798 C23.771214,8.77949557 35.9827186,8.77949557 43.5148989,16.2932798 C51.0470791,23.807064 51.0479544,35.9896171 43.5168539,43.5044784 C39.8996005,47.113932 34.9930852,49.1417672 29.8769663,49.1417672 C24.7608474,49.1417672 19.854332,47.113932 16.2370787,43.5044784 Z M42.8662921,42.9092637 C50.0097669,35.7375089 49.979255,24.1483484 42.7981154,17.0141288 C35.6169759,9.87990915 24.0002481,9.89793043 16.8413835,17.054396 C9.68251887,24.2108616 9.68813512,35.8000607 16.8539326,42.9496173 C20.3080693,46.3907876 24.9916423,48.3211007 29.8731411,48.315424 C34.75464,48.3097474 39.4336894,46.3685467 42.8797753,42.9193521 L42.8662921,42.9092637 Z" id="Shape"></path>
                    </g>
                    <g id="Group" transform="translate(0.000000, 81.343284)" fill="#435363">
                        <g id="Shape">
                            <path d="M3.18311819,21.0827249 L3.18311819,11.4051463 L0.170209762,11.4051463 L0.170209762,7.12421746 L3.18311819,7.12421746 L3.18311819,2.0354907 L7.97442517,2.0354907 L7.97442517,7.12421746 L11.6701291,7.12421746 L11.6701291,11.4031468 L7.97833804,11.4031468 L7.97833804,19.7710531 C7.97833804,20.9707529 8.58287616,21.8525323 9.63739411,21.8525323 C10.3554054,21.8525323 11.0323316,21.5825998 11.2964502,21.2746769 L12.3157523,25.0137413 C11.5996975,25.6695773 10.3162767,26.2134412 8.31680113,26.2134412 C4.96151674,26.2114417 3.18311819,24.4378854 3.18311819,21.0827249 Z"></path>
                            <path d="M12.769645,16.4178921 C12.769645,11.0192429 16.6922953,6.66433253 22.1996571,6.66433253 C27.6776724,6.66433253 31.3303348,10.8272909 31.3303348,16.881776 L31.3303348,18.0374869 L17.7878983,18.0374869 C18.1263614,20.3129175 19.9399758,22.2024448 23.033098,22.2024448 C24.5786809,22.2024448 26.6916297,21.5466089 27.8615772,20.3888985 L30.0136547,23.6280881 C28.2019968,25.3236638 25.3358209,26.2114417 22.5048608,26.2114417 C16.9583703,26.2114417 12.769645,22.3943967 12.769645,16.4178921 Z M22.1996571,10.6733294 C19.2200081,10.6733294 17.9365873,12.7927991 17.7487697,14.6443359 L26.7288019,14.6443359 C26.5781565,12.8707796 25.3710367,10.6733294 22.2016136,10.6733294 L22.1996571,10.6733294 Z"></path>
                            <path d="M45.4264421,25.7495572 L45.4264421,14.4903744 C45.4264421,11.9070208 44.1058491,11.0212424 42.0692013,11.0212424 C40.1812424,11.0212424 38.7432634,12.1009722 37.9196047,13.1807021 L37.9196047,25.7495572 L33.1263413,25.7495572 L33.1263413,7.12421746 L37.9176482,7.12421746 L37.9176482,9.52361711 C39.0915087,8.13596431 41.35119,6.67033103 44.2936668,6.67033103 C48.3297902,6.67033103 50.2549213,8.98375219 50.2549213,12.6088452 L50.2549213,25.7555557 L45.4264421,25.7495572 Z"></path>
                            <path d="M63.9049617,25.7495572 L63.9049617,23.784049 C62.6587132,25.3196648 60.5066357,26.2114417 58.1334812,26.2114417 C55.2281767,26.2114417 51.8318072,24.211942 51.8318072,20.0429851 C51.8318072,15.6440857 55.2281767,14.02849 58.1334812,14.02849 C60.5848931,14.02849 62.6978419,14.8382873 63.9049617,16.3039206 L63.9049617,13.9505095 C63.9049617,12.0609822 62.3202501,10.8272909 59.9079669,10.8272909 C57.9847923,10.8272909 56.1731343,11.5990978 54.6627672,13.0267406 L52.7767648,9.5935996 C55.0031868,7.5501109 57.8634933,6.66433253 60.737495,6.66433253 C64.9242638,6.66433253 68.7353973,8.35990828 68.7353973,13.720567 L68.7353973,25.7495572 L63.9049617,25.7495572 Z M63.9049617,21.2766764 L63.9049617,18.9632552 C63.1223881,17.8835254 61.6041952,17.30567 60.0586123,17.30567 C58.1726099,17.30567 56.6250706,18.3454098 56.6250706,20.1209656 C56.6250706,21.8965213 58.1726099,22.8982707 60.0586123,22.8982707 C61.6041952,22.8962712 63.1145623,22.3564062 63.9049617,21.2766764 Z"></path>
                            <path d="M70.7876967,25.7495572 L70.7876967,0.0319919953 L75.5711779,0.0319919953 L75.5711779,9.52361711 C76.8903401,7.70335604 78.9835844,6.64001585 81.1998386,6.66433253 C85.8405002,6.66433253 89.274042,10.3654065 89.274042,16.4178921 C89.274042,22.6643292 85.803328,26.2154407 81.1998386,26.2154407 C79.0125454,26.2154407 77.0130698,25.2156908 75.5790036,23.3621546 L75.5790036,25.7615542 L70.7876967,25.7495572 Z M79.7286002,21.8545318 C82.4813029,21.8545318 84.3301331,19.6550821 84.3301331,16.4178921 C84.3301331,13.2186926 82.4813029,11.0192429 79.7286002,11.0192429 C78.1419322,11.0192429 76.4026624,11.9450113 75.5770472,13.1787026 L75.5770472,19.7770516 C76.4085317,20.9687534 78.1438887,21.8545318 79.7286002,21.8545318 Z"></path>
                            <polygon points="90.8900565 25.7495572 90.8900565 0.0319919953 95.6813635 0.0319919953 95.6813635 25.7495572"></polygon>
                            <path d="M97.4832392,16.4178921 C97.4832392,11.0192429 101.405889,6.66433253 106.913251,6.66433253 C112.391267,6.66433253 116.043929,10.8272909 116.043929,16.881776 L116.043929,18.0374869 L102.49758,18.0374869 C102.837999,20.3129175 104.649657,22.2024448 107.740823,22.2024448 C109.288362,22.2024448 111.401311,21.5466089 112.571259,20.3888985 L114.723336,23.6280881 C112.913635,25.3236638 110.045502,26.2114417 107.216499,26.2114417 C101.668052,26.2114417 97.4832392,22.3943967 97.4832392,16.4178921 Z M106.913251,10.6733294 C103.933602,10.6733294 102.650182,12.7927991 102.462364,14.6443359 L111.44044,14.6443359 C111.287838,12.8707796 110.078762,10.6733294 106.909338,10.6733294 L106.913251,10.6733294 Z"></path>
                        </g>
                        <path d="M116.579992,4.85678479 L116.579992,6.79629951 L116.306091,6.79629951 L116.306091,4.85678479 L115.699597,4.85678479 L115.699597,4.59684983 L117.186486,4.59684983 L117.186486,4.85678479 L116.579992,4.85678479 Z M119.358128,6.79629951 L119.358128,4.97675477 L118.624466,6.79629951 L118.546208,6.79629951 L117.812545,4.97675477 L117.812545,6.79629951 L117.538645,6.79629951 L117.538645,4.59684983 L117.959278,4.59684983 L118.585337,6.1964496 L119.211396,4.59684983 L119.632029,4.59684983 L119.632029,6.79629951 L119.358128,6.79629951 Z" id="Shape"></path>
                    </g>
                </g>
            </g>
        </g>
    </g>
</svg>