<svg height="128" viewBox="0 0 376 128" width="376" xmlns="http://www.w3.org/2000/svg"><g fill="none" transform="translate(76 40)"><g fill="#445464"><path d="m58.3767485 34.2876712v-13.5547945h-4.3368712v-5.9931507h4.3095092v-7.13013696h6.8404908v7.13013696h5.2876994v5.9931507h-5.2534969v11.7191781c0 1.6712329.8687423 2.9109589 2.3736503 2.9109589.8648639.041139 1.7131244-.2476906 2.3736503-.8082192l1.4570245 5.239726c-1.0260736.9178083-2.8593251 1.6712329-5.7186503 1.6712329-4.795184 0-7.3330061-2.4863013-7.3330061-7.1780822z"/><path d="m72.0782515 27.7534247c0-7.5342466 5.602362-13.6986302 13.4757669-13.6986302s13.0516564 5.8356165 13.0516564 14.3082192v1.6232877h-19.3585889c.4856748 3.1849315 3.0713804 5.8287671 7.5245399 5.8287671 2.2094785 0 5.2261349-.9178082 6.9020552-2.5342466l3.0713803 4.5342466c-2.5857055 2.3767123-6.6831595 3.6164383-10.73273 3.6164383-7.9486503.0342466-13.9340798-5.3082191-13.9340798-13.6780821zm13.4757669-8.0479452c-4.2547853 0-6.0880368 2.9726027-6.3616564 5.5616438h12.8327607c-.2120552-2.4794521-1.9358589-5.5616438-6.4711043-5.5616438z"/><path d="m118.75092 40.8150685v-15.7534247c0-3.6164383-1.887975-4.8630137-4.788343-4.8630137-2.335863.0454585-4.521815 1.1613032-5.930706 3.0273973v17.5890411h-6.840491v-26.0753425h6.840491v3.3493151c2.330307-2.5708685 5.644256-4.0257056 9.111534-4 5.773374 0 8.523251 3.239726 8.523251 8.3150685v18.4109589z"/><path d="m145.162055 40.8150685v-2.739726c-1.778527 2.1643835-4.849908 3.4246575-8.249632 3.4246575-4.152178 0-9.002086-2.8082192-9.002086-8.6369863 0-6.1643836 4.849908-8.4246575 9.002086-8.4246575 3.509172 0 6.525829 1.1369863 8.249632 3.1849315v-3.3287672c0-2.6438356-2.264202-4.369863-5.71181-4.369863-2.809421.0201093-5.503532 1.1212151-7.524539 3.0753425l-2.695154-4.7945205c3.152649-2.7334225 7.20635-4.1978592 11.375736-4.1095891 5.98543 0 11.43046 2.3767123 11.43046 9.8835617v16.8356164zm0-6.260274v-3.239726c-1.128681-1.5136986-3.283435-2.3219178-5.472392-2.3219178-2.695154 0-4.904632 1.4589041-4.904632 3.9452055 0 2.4863013 2.209478 3.8835616 4.904632 3.8835616 2.188957 0 4.343711-.7534246 5.472392-2.2671233z"/><path d="m154.998681 40.8150685v-36.02054795h6.840491v13.28767125c1.886777-2.5429102 4.873908-4.0294931 8.037576-4 6.635277 0 11.539908 5.1849315 11.539908 13.6986301 0 8.7465754-4.959355 13.6986302-11.539908 13.6986302-3.153901-.0057429-6.125219-1.4819241-8.037576-3.9931507v3.3424657zm12.784877-5.4794521c3.933282 0 6.573712-3.0753424 6.573712-7.609589s-2.64043-7.5342466-6.573712-7.5342466c-2.336764.0494356-4.523175 1.1642288-5.937546 3.0273973v9.2328767c1.44526 1.810039 3.623353 2.8778773 5.937546 2.9109589z"/><path d="m183.735583 40.8150685v-36.02054795h6.840491v36.02054795z"/><path d="m193.154939 27.7534247c0-7.5342466 5.602362-13.6986302 13.475767-13.6986302 7.873404 0 13.051656 5.8356165 13.051656 14.3082192v1.6232877h-19.358589c.485675 3.1849315 3.07138 5.8287671 7.52454 5.8287671 2.209478 0 5.226135-.9178082 6.902055-2.5342466l3.07138 4.5342466c-2.585705 2.3767123-6.683159 3.6164383-10.73273 3.6164383-7.94865.0342466-13.934079-5.3082191-13.934079-13.6780821zm13.475767-8.0479452c-4.254786 0-6.088037 2.9726027-6.361657 5.5616438h12.832761c-.212055-2.4794521-1.935859-5.5616438-6.471104-5.5616438z"/><path d="m221.789233 11.4520548c.342575.197965.625999.4841192.820859.8287671.197517.350941.298985.7478824.294141 1.1506849.004938.4006437-.096575.7954011-.294141 1.1438357-.193091.3442189-.477083.6285778-.820859.8219178-.348541.2032961-.745883.3074961-1.149202.3013698-.802595.0041507-1.545112-.4251801-1.9427-1.1232876-.199647-.3478926-.30351-.7426064-.300981-1.1438357-.00276-.4034252.101077-.8004067.300981-1.1506849.192172-.3443743.473338-.6306351.814019-.8287671.340639-.2049969.731265-.3116687 1.128681-.3082192.403918-.0037046.801213.1028508 1.149202.3082192zm-.232577 3.5753425c.273084-.1627278.493858-.4004259.636166-.6849315.301032-.5940916.301032-1.2963194 0-1.890411-.141989-.2847274-.362838-.5225065-.636166-.6849315-.277042-.1644016-.594677-.2474729-.916625-.239726-.317545-.0070184-.63059.076093-.902945.239726-.269514.1629463-.485812.4009434-.622485.6849315-.301032.5940916-.301032 1.2963194 0 1.890411.137002.2837652.353224.5216776.622485.6849315.273617.1606203.585794.2435012.902945.239726.321568.0045419.638349-.0783062.916625-.239726zm-.109447-1.6780822c-.114702.1193861-.258529.2067384-.41727.2534246l.684049 1.020548h-.595123l-.567761-.9246576h-.212055v.9452055h-.513037v-2.479452h.684049c.725092 0 1.080798.2534246 1.080798.7534246.010236.1571006-.041323.3119759-.14365.4315069zm-1.10816-.0616439h.259939c.321503 0 .485675-.1232876.485675-.369863.010585-.1067586-.03631-.2111026-.123129-.2739726-.114961-.0629055-.245545-.0914333-.376227-.0821918h-.246258z"/></g><path d="m43.4644785 7.70547945c.1368098.52054795.6430062 2.40410955 1.1218405 4.19863015l3.7964724 14.1849315c.4788344 1.7945205.9850307 3.6780822 1.128681 4.1986301.1731986.7754186-.044031 1.5866021-.5814417 2.1712329l-3.0987424 3.0753425-10.342822 10.3561644c-1.2860123 1.369863-2.6541105 2.739726-3.0713804 3.1027397-.5838776.538104-1.3940161.7556138-2.1684356.5821918l-4.1932209-1.1232877-14.1666564-3.8013699-4.19322085-1.130137c-.37595126-.1107167-.71738754-.3158428-.99187117-.5958904-.27968682-.2748377-.48454858-.6167144-.5951227-.9931507-.1436503-.5136986-.64984662-2.4109589-1.12868098-4.1986301l-3.79647239-14.1849315-1.12184049-4.1986301.54039877-.1712329.54723926-.1438356c.13680982.5205479.64300614 2.4109589 1.12184049 4.1986301l3.7964724 14.2054795c.47883435 1.7945205.98503067 3.6849315 1.12184049 4.2054794.06283804.1841544.16832152.3507986.30782208.4863014.13532822.1396805.30175771.2453001.48567485.3082192l4.19322084 1.1232876 14.1666565 3.8013699 4.2000613 1.1232877c.3847438.0626577.7779117-.0419901 1.0807976-.2876713l3.0713803-3.0753424 10.3701841-10.3835617 3.0713803-3.0753424c.2453646-.3032766.3498776-.6969518.2873007-1.0821918-.1436504-.520548-.6430062-2.4109589-1.1218405-4.2054795l-3.8033129-14.1780822c-.4719939-1.7945205-.9850307-3.68493147-1.1218405-4.1986301-.0656744-.17678444-.1709836-.33612365-.3078221-.46575342-.1304469-.14557262-.2985197-.25223503-.4856748-.30821918l-4.1932209-1.15068493-14.132454-3.80136987-4.2274233-1.12328767c-.3847437-.06265771-.7779117.04199011-1.0807975.28767123l-3.0713804 3.07534247-10.37018406 10.38356167-3.07138037 3.0753424c-.25116053.3002964-.35638645.6966569-.28730062 1.0821918l-.54723926.1232877-.54039877.1506849c-.17809662-.775514.03974229-1.588973.58144172-2.1712329l3.07138036-3.0821917 10.3701841-10.35616442 3.0713803-3.07534246c.5809052-.54348972 1.3938987-.76176606 2.1684356-.58219178l4.1932209 1.12328767 14.1598159 3.80821917 4.1932209 1.12328768c.3771672.11153334.7189447.3192245.9918711.60273972.2859735.26826545.494.60911158.6019632.98630137z" fill="#00a6b4"/><path d="m25.7134049 3.93835616 3.0987423 1.79452055 10.465951 6.04794519 3.1329447 1.7945206c.5536039.3484449.8993136.9484481.9234663 1.6027397v3.5821918 15.6917808c-.0241527.6542915-.3698624 1.2542948-.9234663 1.6027397l-3.0987423 1.7945206-10.5001534 6.0479452-3.0987423 1.7945205c-.2849901.1555986-.6057891.23354-.9303067.2260274-.3222458.0066306-.6406144-.0712932-.9234663-.2260274l-3.0987423-1.7876712-10.5001534-6.0547945-3.09874233-1.7945206.23257668-.3972603.23257669-.4041095 3.09874236 1.7945205 10.4796319 6.0479452 3.1055828 1.7945206c.1416872.0723601.2993373.1077004.4583129.1027397.1612183.0055265.3212186-.0298132.4651534-.1027397l3.0987423-1.7945206 10.4727914-6.0479452 3.0987423-1.7945205c.2785796-.1792298.4638499-.4725349.5061963-.8013699v-3.5890411-15.6849315c-.0392566-.3245585-.2194622-.6152643-.4925153-.7945206l-3.0987423-1.7945205-10.4727914-6.05479452-3.0987424-1.78767124c-.1427137-.07629395-.3036279-.11183552-.4651533-.10273972-.1593238-.00889412-.3179857.02667303-.4583129.10273972l-3.1192638 1.78767124-10.4659509 6.04794522-3.0850614 1.8013698c-.26438795.1863816-.43428973.4790897-.46515337.8013699v3.5821918 15.6849315c.03262547.3217103.20213201.6137375.46515337.8013699l-.23257668.4041095-.23257669.3972603c-.5553933-.3467166-.90170358-.9477621-.92346626-1.6027397 0-.4452055 0-2.0547945 0-3.5890411v-15.6849315c.02176268-.6549776.36807296-1.2560231.92346626-1.6027397l3.07138037-1.7945206 10.5001534-6.04794519 3.0987423-1.79452055c.2840659-.15157461.601599-.22929394.9234663-.22602739.3242442-.00501977.6444186.07276983.9303067.22602739z" fill="#00a6b4"/><path d="m12.2444785 10.9589041 3.0782209-.8287671 10.3907055-2.78767125 3.0782209-.82876712c.5698601-.1292082 1.1666492.03236354 1.5938343.43150685l2.257362 2.25342466 7.6066258 7.61643836 2.2505214 2.260274c.3994719.4272197.5586988 1.0263769.4241105 1.5958904-.0957669.3767123-.4719939 1.7671233-.8208589 3.0821918l-2.7840798 10.4041095c-.3557055 1.3150685-.725092 2.7397261-.8276994 3.0821918-.0802899.2760564-.2312014.526326-.4377914.7260274-.1994441.2068565-.4493913.3579627-.725092.4383562l-3.0782209.8287671-10.397546 2.7876712-3.0782208.8287672-.1026074-.3835617-.1094479-.4041096 3.0782209-.8219178 10.397546-2.7876712 3.0782209-.8287671c.1343775-.0468939.2561136-.1242491.3557055-.2260274.1016472-.0997204.1789027-.2216135.2257362-.3561644l.8208589-3.0821918 2.7840797-10.4109589c.3557056-1.3150685.7250921-2.6986301.8276994-3.0821918.0491612-.2831655-.0283712-.5736612-.2120552-.7945205l-2.243681-2.2671233-7.6203067-7.61643837-2.2505215-2.25342465c-.2205748-.18392093-.5106962-.2615534-.7934969-.21232877l-3.0850614.82191781-10.3907055 2.81506848-3.0713804.8287671c-.1390647.0410702-.2643752.1191944-.362546.2260274-.1050693.0956602-.1809584.2191389-.2188957.3561644-.1026073.3767123-.4788343 1.7671233-.8276994 3.0821918l-2.79092022 10.3767123c-.34886503 1.3150685-.71825153 2.7054795-.82085889 3.0821918-.05208351.2832886.02577722.5750142.21205521.7945206l2.25052147 2.2602739 7.60662573 7.6164384 2.257362 2.2534246c.2205748.183921.5106962.2615534.7934969.2123288l.1094479.4041096.1026074.3972603c-.5677461.129277-1.1625338-.0324469-1.5869939-.4315069l-2.257362-2.2534246-7.60662574-7.6164384-2.25052148-2.260274c-.3985458-.4250076-.56006143-1.0205626-.43095092-1.5890411.10260737-.3835616.47883436-1.7671233.82769939-3.0821917l2.79092025-10.4109589.8276994-3.0753425c.0800821-.278132.2309375-.5306687.4377914-.7328767.1984956-.2046444.4456337-.3554753.7182515-.4383562z" fill="#00a6b4"/><path d="m9.50828221 40.1164384c-6.18116644-6.1877533-8.03083787-15.4945873-4.68644194-23.5803703 3.34439593-8.08578296 11.22416813-13.35799012 19.96467813-13.35799012s16.6202822 5.27220716 19.9646781 13.35799012c3.344396 8.085783 1.4947245 17.392617-4.6864419 23.5803703-4.0514653 4.0583518-9.5474266 6.3384497-15.2782362 6.3384497s-11.2267709-2.2800979-15.27823619-6.3384497zm29.84506139-.6849316c8.0073436-8.0632083 7.9766583-21.0974477-.068561-29.1227675-8.0452192-8.02531973-21.0626893-8.00696161-29.0852993.0410181-8.02260998 8.0479797-8.01662632 21.082254.0133695 29.1228453 3.8676524 3.8660851 9.1108572 6.035202 14.5759129 6.0300639 5.4650558-.0051382 10.7041831-2.1841103 14.5645779-6.0574611z" fill="#00a6b4"/><path d="m25.4739877 9.15753425 2.2915644 1.32191785 7.7502761 4.479452 2.2984049 1.3287671c.4096759.260644.6653746.7061336.6840491 1.1917809v2.6506849 11.6438356c-.0197194.4835256-.2754377.926489-.6840491 1.1849315l-2.2915644 1.2876712-7.7571166 4.5-2.2915644 1.3287672c-.210268.113094-.4453663.1719444-.684049.1712328-.2387179.0010013-.4738863-.0578667-.6840491-.1712328l-2.2984049-1.3287672-7.7571166-4.5-2.2984049-1.3287671.1710123-.3013698.1710122-.2945206 2.271043 1.3493151 7.7571165 4.4863013 2.2915645 1.3219179c.1044582.0573696.2231647.0835187.3420245.0753424.1189459.0093807.2379929-.0168435.3420245-.0753424l2.2984049-1.3219179 7.7502761-4.4863013 2.2984049-1.3287671c.1958463-.1356237.3212083-.3515245.3420246-.5890411v-2.6575343-11.6438356c-.0188364-.2399852-.1444181-.4587792-.3420246-.5958904l-2.2984049-1.3287671-7.7229141-4.4520548-2.2984049-1.32876716c-.1064176-.05194671-.2236594-.07777318-.3420245-.07534246-.1182886-.00166303-.2353548.02412477-.3420246.07534246l-2.2984049 1.32876716-7.777638 4.479452-2.2984049 1.3287671c-.1927661.1415062-.3169589.3578804-.3420246.5958905v2.6506849 11.6438356c.026906.2355388.1509078.4490969.3420246.5890411l-.1710123.2945205-.1710123.3013699c-.4112803-.2558635-.6678937-.7003774-.6840491-1.1849315v-2.6780822-11.6438356c.0138946-.4870109.2707901-.9345857.6840491-1.1917808l2.2984049-1.3287672 7.7776381-4.4520547 2.2984049-1.32191785c.2091578-.11594207.4450073-.17498052.6840491-.17123288.2390417-.00374764.4748912.05529081.684049.17123288z" fill="#00a6b4"/><path d="m13.4689264 35.9452055c-6.24792338-6.2565676-6.24760798-16.3999455.0007045-22.6561235 6.2483124-6.256178 16.3786221-6.256178 22.6269346 0 6.2483124 6.256178 6.2486278 16.3995559.0007044 22.6561235-6.2500371 6.2533379-16.3783063 6.2533379-22.6283435 0zm22.1016257-.5c5.9337292-5.9623656 5.9224065-15.6105214-.0253008-21.5589073-5.9477072-5.94838584-15.5834395-5.94838584-21.5311468 0-5.94770725 5.9483859-5.95903001 15.5965417-.0253008 21.5589073 2.8602047 2.8688394 6.7424402 4.480953 10.7908742 4.480953s7.9306695-1.6121136 10.7908742-4.480953z" fill="#00a6b4"/></g></svg>