<?xml version="1.0" encoding="UTF-8"?>
<svg width="87px" height="68px" viewBox="0 0 87 68" version="1.1" xmlns="http://www.w3.org/2000/svg" xmlns:xlink="http://www.w3.org/1999/xlink">
    <!-- Generator: Sketch 48.1 (47250) - http://www.bohemiancoding.com/sketch -->
    <title>twistlock@2x</title>
    <desc>Created with Sketch.</desc>
    <defs></defs>
    <g id="Artboard" stroke="none" stroke-width="1" fill="none" fill-rule="evenodd" transform="translate(-1119.000000, -27.000000)">
        <g id="twistlock" transform="translate(1119.000000, 27.000000)" fill-rule="nonzero">
            <g id="Group" transform="translate(24.216495, 0.000000)" fill="#0000CE">
                <path d="M29.1853608,27.8015928 C29.0149485,27.7162396 28.8445361,27.4601801 28.8445361,27.2894737 L28.8445361,14.3157895 L23.9877835,17.1324446 L23.9877835,30.7889543 C23.9877835,31.0450139 23.9025773,31.2157202 23.6469588,31.3010734 L17.9381443,34.6298476 L17.9381443,40.2631579 L34.9793814,30.4475416 L34.9793814,24.8142313 L29.7818041,27.8015928 C29.6113918,27.886946 29.3557732,27.886946 29.1853608,27.8015928 Z" id="Shape"></path>
                <polygon id="Shape" points="34.9793814 16.1052632 34.9793814 10.7368421 30.4948454 13.4210526 30.4948454 18.7894737"></polygon>
                <path d="M17.7221209,6.30576441 C17.7221209,6.47619048 17.6373523,6.73182957 17.4678149,6.81704261 L6.27835052,13.2932331 L11.1101647,16.1052632 L22.9777785,9.20300752 C23.1473158,9.11779449 23.4016218,9.11779449 23.5711592,9.20300752 L29.25066,12.6115288 L34.0824742,9.79949875 L17.1287403,0 L12.2969261,2.81203008 L17.4678149,5.70927318 C17.6373523,5.87969925 17.7221209,6.05012531 17.7221209,6.30576441 Z" id="Shape"></path>
                <polygon id="Shape" points="30.4948454 20.5789474 30.4948454 25.0526316 34.9793814 22.8157895"></polygon>
                <polygon id="Shape" points="23.8967279 9.84210526 18.8350515 12.5663786 23.8109368 15.2105263 24.1541013 14.9701493 28.7010309 12.5663786"></polygon>
                <polygon id="Shape" points="17.9381443 32.2105263 22.4226804 29.5263158 22.4226804 24.1578947 17.9381443 26.8421053"></polygon>
                <polygon id="Shape" points="22.4226804 17 17.9381443 14.3157895 17.9381443 19.6842105 22.4226804 22.3684211"></polygon>
                <polygon id="Shape" points="21.2216047 22.6124402 17.4467952 20.5789474 12.556701 23.2631579 17.4467952 25.9473684 22.4226804 23.2631579"></polygon>
                <polygon id="Shape" points="11.6597938 36.6842105 16.1443299 39.3684211 16.1443299 34 11.6597938 31.3157895"></polygon>
                <path d="M4.85675258,20.1775065 L4.85675258,13.5435261 L0,10.7368421 L0,30.2985791 L4.85675258,33.1052632 L4.85675258,27.151691 C4.85675258,26.981589 4.94195876,26.7264359 5.19757732,26.6413848 C5.45319588,26.5563338 5.62360825,26.5563338 5.79402062,26.6413848 L17.0412371,33.1052632 L17.0412371,27.4918951 L5.19757732,20.6878127 C4.94195876,20.6027617 4.85675258,20.3476086 4.85675258,20.1775065 Z" id="Shape"></path>
                <polygon id="Shape" points="16.1443299 14.3157895 11.6597938 17 11.6597938 22.3684211 16.1443299 19.6842105"></polygon>
                <polygon id="Shape" points="11.6597938 3.57894737 11.6597938 8.05263158 16.1443299 5.85503232"></polygon>
                <polygon id="Shape" points="10.7628866 17 6.27835052 14.3157895 6.27835052 19.6842105 10.7628866 22.3684211"></polygon>
                <polygon id="Shape" points="5.82989691 7.15789474 0.896907216 9.84210526 5.82989691 12.5263158 10.7628866 9.84210526"></polygon>
                <polygon id="Shape" points="6.27835052 27.7368421 6.27835052 32.2105263 10.7628866 29.9736842"></polygon>
            </g>
            <g id="Group" transform="translate(0.472754, 52.118421)" fill="#464646">
                <polygon id="Shape" points="4.46774669 14.7631579 7.40854197 14.7631579 7.40854197 3.74671053 11.8197349 3.74671053 11.8197349 1.00657895 0.113107511 1.00657895 0.113107511 3.74671053 4.46774669 3.74671053"></polygon>
                <path d="M26.5802651,14.7631579 L29.4079529,14.7631579 L29.4079529,5.14473684 L26.5802651,5.14473684 L26.5802651,14.7631579 Z M27.9375552,0.391447368 C27.0326951,0.391447368 26.2974963,1.11842105 26.2974963,2.06907895 C26.2974963,2.96381579 27.0326951,3.74671053 27.9375552,3.74671053 C28.8424153,3.74671053 29.6341679,3.01973684 29.6341679,2.06907895 C29.6341679,1.17434211 28.8989691,0.391447368 27.9375552,0.391447368 Z" id="Shape"></path>
                <path d="M30.6521355,12.1907895 C30.765243,13.2532895 31.7832106,15.0986842 34.7240059,15.0986842 C36.5902798,15.0986842 38.5696613,14.0921053 38.5696613,11.9111842 C38.5696613,10.4013158 37.4951399,9.33881579 35.5723122,8.94736842 L34.2715758,8.66776316 C33.7060383,8.55592105 33.4232695,8.27631579 33.4232695,7.82894737 C33.4232695,7.26973684 33.9322533,6.87828947 34.6108984,6.87828947 C35.402651,6.87828947 35.9681885,7.32565789 36.1378498,8.05263158 L38.4565538,7.66118421 C38.3434462,6.59868421 37.3820324,4.92105263 34.6108984,4.92105263 C32.5184094,4.92105263 30.8783505,6.26315789 30.8783505,8.05263158 C30.8783505,9.11513158 31.3873343,10.4572368 33.762592,10.9605263 L34.8936672,11.2401316 C35.628866,11.4078947 35.9681885,11.6875 35.9681885,12.1348684 C35.9681885,12.5822368 35.5723122,13.0855263 34.7240059,13.0855263 C33.6494845,13.0855263 33.1405007,12.4144737 33.083947,11.7993421 L30.6521355,12.1907895 Z" id="Shape"></path>
                <path d="M38.9089838,7.60526316 L40.6621502,7.60526316 L40.6621502,11.9111842 C40.6621502,13.8125 41.8497791,14.9868421 43.8857143,14.9868421 C44.6774669,14.9868421 45.1864507,14.8190789 45.3561119,14.7631579 L45.3561119,12.4703947 C45.1864507,12.5263158 44.9036819,12.5263158 44.6774669,12.5263158 C44.1684831,12.5263158 43.489838,12.4144737 43.489838,11.4078947 L43.489838,7.60526316 L45.4126657,7.60526316 L45.4126657,5.20065789 L43.489838,5.20065789 L43.489838,2.34868421 L40.718704,2.34868421 L40.718704,5.20065789 L38.9655376,5.20065789 L38.9089838,7.60526316 Z" id="Shape"></path>
                <rect id="Rectangle-path" x="46.8265096" y="1.00657895" width="2.82768778" height="13.8125"></rect>
                <path d="M56.1578792,4.86513158 C53.2170839,4.86513158 51.0114875,7.04605263 51.0114875,9.95394737 C51.0114875,12.8618421 53.2170839,15.0427632 56.1578792,15.0427632 C59.0986745,15.0427632 61.304271,12.8618421 61.304271,9.95394737 C61.304271,6.99013158 59.1552283,4.86513158 56.1578792,4.86513158 M56.1578792,12.5263158 C55.0268041,12.5263158 53.8391753,11.7434211 53.8391753,9.95394737 C53.8391753,8.22039474 55.0268041,7.4375 56.1578792,7.4375 C57.3455081,7.4375 58.4765832,8.22039474 58.4765832,9.95394737 C58.4765832,11.7434211 57.3455081,12.5263158 56.1578792,12.5263158" id="Shape"></path>
                <path d="M67.4686303,4.86513158 C64.5278351,4.86513158 62.3222386,7.04605263 62.3222386,9.95394737 C62.3222386,12.8618421 64.5843888,15.0427632 67.5251841,15.0427632 C70.0701031,15.0427632 71.6536082,13.4210526 72.1060383,11.7993421 L69.617673,11.0723684 C69.391458,11.7993421 68.712813,12.5263158 67.4686303,12.5263158 C66.0547865,12.5263158 65.0368189,11.4638158 65.0368189,10.0098684 C65.0368189,8.5 65.9982327,7.4375 67.4120766,7.4375 C68.8259205,7.4375 69.3349043,8.38815789 69.5045655,8.89144737 L72.0494845,8.16447368 C71.4273932,5.70394737 69.2217968,4.86513158 67.4686303,4.86513158" id="Shape"></path>
                <polygon id="Shape" points="79.5145803 14.7631579 82.9643594 14.7631579 79.118704 9.17105263 82.8512518 5.14473684 79.2318115 5.14473684 76.0648012 8.61184211 76.0648012 1.00657895 73.2371134 1.00657895 73.2371134 14.7631579 76.0648012 14.7631579 76.0648012 12.4144737 77.1393225 11.2401316"></polygon>
                <path d="M84.887187,12.0230263 C84.0954345,12.0230263 83.4167894,12.6381579 83.4167894,13.4769737 C83.4167894,14.2598684 84.0388807,14.9309211 84.887187,14.9309211 C85.6789396,14.9309211 86.3575847,14.3157895 86.3575847,13.4769737 C86.3575847,12.6940789 85.7354934,12.0230263 84.887187,12.0230263 Z M84.887187,14.6513158 C84.2650957,14.6513158 83.7561119,14.1480263 83.7561119,13.4769737 C83.7561119,12.8059211 84.2650957,12.3026316 84.887187,12.3026316 C85.5092784,12.3026316 86.0182622,12.8059211 86.0182622,13.4769737 C86.0748159,14.1480263 85.5658321,14.6513158 84.887187,14.6513158 Z M85.1699558,14.2039474 L85.5658321,14.2039474 L85.2830633,13.6447368 L85.3396171,13.6447368 C85.5092784,13.5888158 85.6223859,13.4210526 85.6223859,13.1973684 C85.6223859,12.9177632 85.3961708,12.6940789 85.1134021,12.6940789 L84.4913108,12.6940789 L84.4913108,14.2039474 L84.8306333,14.2039474 L84.8306333,13.7006579 L85.0002946,13.7006579 L85.1699558,14.2039474 Z M84.9437408,13.4210526 L84.7175258,13.4210526 L84.7175258,12.9736842 L84.9437408,12.9736842 C85.1134021,12.9736842 85.1699558,13.0855263 85.1699558,13.1973684 C85.1699558,13.3651316 85.1134021,13.4210526 84.9437408,13.4210526 Z" id="Shape"></path>
                <polygon id="Shape" points="15.3260677 14.7631579 17.3620029 8.55592105 19.5110457 14.7631579 22.4518409 14.7631579 25.44919 5.14473684 22.5083947 5.14473684 20.9248895 10.8486842 19.0020619 5.14473684 15.8916053 5.14473684 13.9687776 10.8486842 12.3287187 5.14473684 9.21826215 5.14473684 12.2721649 14.7631579"></polygon>
            </g>
        </g>
    </g>
</svg>