<svg id="Layer_1" data-name="Layer 1" xmlns="http://www.w3.org/2000/svg" xmlns:xlink="http://www.w3.org/1999/xlink" viewBox="0 0 1263.04 218"><defs><style>.cls-1{fill:#fff;}.cls-1,.cls-3,.cls-5,.cls-7{fill-rule:evenodd;}.cls-2{mask:url(#mask);}.cls-3{opacity:0.27;fill:url(#linear-gradient);}.cls-3,.cls-5,.cls-7{isolation:isolate;}.cls-4{mask:url(#mask-2);}.cls-5,.cls-7{opacity:0.29;}.cls-5{fill:url(#linear-gradient-2);}.cls-6{mask:url(#mask-3);}.cls-7{fill:url(#linear-gradient-3);}</style><mask id="mask" x="-4.37" y="0.13" width="1296.51" height="261.87" maskUnits="userSpaceOnUse"><g id="f"><path id="b" class="cls-1" d="M-3,.13H1268.12V186.64q-97.93,19-129.37,19c-31.44,0-116.3-28.4-151.6-21.8-33.46,6.26-82.74,21.68-139.65,21.8-72.41.15-148.52-7.43-182.79-7.43-51.48,0-51.48,19.06-108.72,19.06-45.14,0-92.14-33.43-153.55-33.43-54.79,0-62.79,14.28-88.82,14.28-29.92,0-46.65-11.45-193-11.45q-29.2,0-123.47,7.17Z"/></g></mask><linearGradient id="linear-gradient" x1="-49" y1="492.25" x2="-49.98" y2="492.25" gradientTransform="translate(-63523.44 108177.47) rotate(180) scale(1296.51 219.45)" gradientUnits="userSpaceOnUse"><stop offset="0" stop-color="#8eb1f8"/><stop offset="1" stop-color="#8a60ff"/></linearGradient><mask id="mask-2" x="-2.96" y="0.13" width="1534.05" height="217.97" maskUnits="userSpaceOnUse"><g id="f-2" data-name="f"><path id="b-2" data-name="b" class="cls-1" d="M-3,.13H1268.12V186.64q-97.93,19-129.37,19c-31.44,0-116.3-28.4-151.6-21.8-33.46,6.26-82.74,21.68-139.65,21.8-72.41.15-148.52-7.43-182.79-7.43-51.48,0-51.48,19.06-108.72,19.06-45.14,0-92.14-33.43-153.55-33.43-54.79,0-62.79,14.28-88.82,14.28-29.92,0-46.65-11.45-193-11.45q-29.2,0-123.47,7.17Z"/></g></mask><linearGradient id="linear-gradient-2" x1="-48.89" y1="491.25" x2="-49.92" y2="491.25" gradientTransform="matrix(1495.04, 0, 0, -121.64, 74677.71, 59911.46)" gradientUnits="userSpaceOnUse"><stop offset="0" stop-color="#67d0ff" stop-opacity="0.64"/><stop offset="1" stop-color="#53c7ff"/></linearGradient><mask id="mask-3" x="-108.74" y="0.13" width="1376.86" height="260.27" maskUnits="userSpaceOnUse"><g id="f-3" data-name="f"><path id="b-3" data-name="b" class="cls-1" d="M-3,.13H1268.12V186.64q-97.93,19-129.37,19c-31.44,0-116.3-28.4-151.6-21.8-33.46,6.26-82.74,21.68-139.65,21.8-72.41.15-148.52-7.43-182.79-7.43-51.48,0-51.48,19.06-108.72,19.06-45.14,0-92.14-33.43-153.55-33.43-54.79,0-62.79,14.28-88.82,14.28-29.92,0-46.65-11.45-193-11.45q-29.2,0-123.47,7.17Z"/></g></mask><linearGradient id="linear-gradient-3" x1="-48.94" y1="492.15" x2="-50.24" y2="492.15" gradientTransform="matrix(1375.85, 0, 0, -202.99, 68578.54, 100058.81)" gradientUnits="userSpaceOnUse"><stop offset="0" stop-color="#a677f9" stop-opacity="0.64"/><stop offset="1" stop-color="#53cbff"/></linearGradient></defs><title>wave-bg-2</title><g class="cls-2"><path class="cls-3" d="M1292.14,262Q1206,97.38,1171.37,97.37c-34.61,0-113.29,101.51-199.55,101.51S784.77,88.33,739.19,88.33,630,198.88,575,198.88s-137.32-72.27-177.36-72.27c-37.9,0-52,72.27-168.62,72.27q-116.6,0-233.39-156.33L-3,262Z"/></g><g class="cls-4"><path class="cls-5" d="M36,218.11Q153.37,147,190,147c36.59,0,25,14.51,173.76,14.51s173.91-49,204.32-49c26.46,0,26.46,34.5,82.15,34.5,62.42,0,110.19-20,156.07-20,58.18,0,58.18,4.14,110.5,4.14,34.84,0,112.2-34.83,185.8-34.66,57.84.13,107.93,43.6,141.94,50.5,35.88,7.28,122.13-50.5,154.09-50.5q32,0,132.51,121.64Z"/></g><g class="cls-6"><path class="cls-7" d="M-108.74,260.4q299-203,494.38-203c195.42,0,303.14,75,376.28,75,82,0,144.75-70.43,205-70.43,76.42,0,76.42,58.06,145.15,58.06q45.75,0,155-27.07L1267,250.4Z"/></g></svg>