<?xml version="1.0" encoding="UTF-8"?>
<svg width="29px" height="29px" viewBox="0 0 29 29" version="1.1" xmlns="http://www.w3.org/2000/svg" xmlns:xlink="http://www.w3.org/1999/xlink">
    <!-- Generator: Sketch 54.1 (76490) - https://sketchapp.com -->
    <title>Artboard</title>
    <desc>Created with Sketch.</desc>
    <g id="Artboard" stroke="none" stroke-width="1" fill="none" fill-rule="evenodd">
        <g id="download-(3)" transform="translate(1.000000, 1.000000)">
            <path d="M25.1926,0 C26.1908,0 27,0.84422 27,1.88561 L27,25.1144 C27,26.1558 26.1908,27 25.1926,27 L1.80744,27 C0.80922,27 0,26.1558 0,25.1144 L0,1.88561 C0,0.84422 0.80922,0 1.80744,0 L25.1926,0 Z" id="Path" stroke="#1D3DE8" stroke-width="1.45048" fill-opacity="0.194848" fill="#8C9CF0" stroke-dasharray="0.9"></path>
            <g id="002-shield" transform="translate(5.000000, 4.000000)" fill="#1C40FF" fill-opacity="0.194848" fill-rule="nonzero" stroke="#4B5CB7" stroke-width="1.49883451">
                <path d="M16.9801899,5.15518541 L16.9795806,5.14039965 C16.970899,4.95789725 16.9651112,5.76481293 16.9616082,5.54998483 C16.9497436,4.78730323 15.2688253,2.59317652 14.9694031,2.57724843 C12.6741027,2.45533854 10.8984814,1.74301387 9.38132896,0.335614525 L9.36838268,0.323872881 C8.87352993,-0.107957627 8.1270623,-0.107957627 7.63205721,0.323872881 L7.61911093,0.335614525 C6.10195848,1.74301387 4.3263372,2.45533854 2.03103679,2.57739338 C0.930297814,2.63581155 0.0551288317,3.50237177 0.038831771,4.55012978 C0.035480948,4.76350828 0.0295408774,4.95659263 0.0208592598,5.14039965 L0.0199454237,5.17475474 C-0.0246811774,7.40232771 -0.0801217841,10.1746537 0.89435283,12.6909834 C1.4301768,14.0747546 2.24168049,15.2776179 3.30616985,16.2663779 C4.51855149,17.3924134 6.10652774,18.2863707 8.02592895,18.9233171 C8.08837573,18.9440461 8.15325949,18.9608613 8.21936168,18.9734726 C8.31257495,18.9911576 8.40639744,19 8.50021994,19 C8.59404244,19 8.68801724,18.9911576 8.7810782,18.9734726 C8.84718044,18.9608613 8.9125211,18.9439012 8.97527251,18.9230272 C10.8923891,18.2849211 12.4786899,17.3905289 13.6900054,16.2646384 C14.7540378,15.2755885 15.5655415,14.0724352 16.1018224,12.6883742 C17.0799524,10.1645066 17.0246642,7.38696216 16.9801899,5.15518541 Z" id="Shape"></path>
            </g>
            <polyline id="Path-2" stroke="#4B5CB7" stroke-width="1.5" stroke-linejoin="round" points="8.35083008 6.71020508 12.2038574 12.84375 15.4035645 11.0136719 19.8974609 18.4082031"></polyline>
        </g>
    </g>
</svg>