<svg width="35" height="31" viewBox="0 0 35 31" fill="none" xmlns="http://www.w3.org/2000/svg">
<path fill-rule="evenodd" clip-rule="evenodd" d="M2.8 1H24.0889C25.083 1 25.8889 1.80589 25.8889 2.8V19.9742C25.8889 20.9683 25.083 21.7742 24.0889 21.7742H2.8C1.80589 21.7742 1 20.9683 1 19.9742V2.8C1 1.80589 1.80589 1 2.8 1V1Z" fill="#8C9CF0" fill-opacity="0.194848" stroke="#5771F7" stroke-width="1.61165" stroke-dasharray="1 1"/>
<path fill-rule="evenodd" clip-rule="evenodd" d="M9.91111 8.2258H31.2C32.1941 8.2258 33 9.03169 33 10.0258V27.2C33 28.1941 32.1941 29 31.2 29H9.91111C8.917 29 8.11111 28.1941 8.11111 27.2V10.0258C8.11111 9.03169 8.917 8.2258 9.91111 8.2258Z" fill="#8C9CF0" fill-opacity="0.194848" stroke="#5771F7" stroke-width="1.61165" stroke-dasharray="1 1"/>
<path d="M25.8889 8H8V21.7742H25.8889V8Z" fill="#1C40FF" fill-opacity="0.194848" stroke="#4B5CB7" stroke-width="1.61165"/>
</svg>
