<svg width="31" height="31" viewBox="0 0 31 31" fill="none" xmlns="http://www.w3.org/2000/svg">
<path d="M28.9676 8.84587L28.9685 8.86844C29.0392 12.2748 29.127 16.5142 27.5735 20.3665C26.7217 22.479 25.4329 24.3154 23.743 25.825C21.8191 27.5434 19.2997 28.9086 16.2548 29.8825C16.1552 29.9144 16.0514 29.9403 15.9464 29.9595C15.7986 29.9865 15.6494 30 15.5003 30C15.3513 30 15.2023 29.9865 15.0543 29.9595C14.9493 29.9403 14.8462 29.9146 14.7471 29.883C11.6986 28.9108 9.17652 27.5463 7.25098 25.8276C5.56032 24.3185 4.27146 22.4825 3.42044 20.3704C1.87275 16.5297 1.9608 12.2983 2.03168 8.89831L2.03313 8.84587C2.04692 8.56533 2.05635 8.27062 2.06167 7.94493C2.08756 6.34573 3.47753 5.02308 5.22576 4.93392C8.87124 4.74762 11.6913 3.66039 14.1009 1.51225L14.1215 1.49433C14.9077 0.835223 16.0933 0.835223 16.8792 1.49433L16.8998 1.51225C19.3094 3.66039 22.1295 4.74762 25.7749 4.93369C27.5234 5.02308 28.9131 6.34573 28.939 7.94471C28.9446 8.27261 28.9538 8.56732 28.9676 8.84587Z" fill="#8C9CF0" fill-opacity="0.2" stroke="#5771F7" stroke-width="1.6" stroke-dasharray="1 1"/>
<path d="M12 12.5C12 9.5 12.5 7 15.5 7C18.5 7 19 9.5 19 12.5" stroke="#4B5CB7" stroke-width="2"/>
<mask id="path-3-inside-1" fill="white">
<rect x="9" y="12.5" width="13" height="11" rx="1"/>
</mask>
<rect x="9" y="12.5" width="13" height="11" rx="1" fill="#A4B7FC" stroke="#4B5CB7" stroke-width="3" mask="url(#path-3-inside-1)"/>
<circle cx="15.5" cy="17" r="1.5" fill="#4B5CB7"/>
<line x1="15.5" y1="18" x2="15.5" y2="20" stroke="#4B5CB7" stroke-linecap="round"/>
</svg>
