<svg height="238" viewBox="0 0 553 238" width="553" xmlns="http://www.w3.org/2000/svg" xmlns:xlink="http://www.w3.org/1999/xlink"><mask id="a" fill="#fff"><path d="m93.7684314 4.36070175-80.2080392 46.26956145c-7.97254906 4.6332456-12.944902 13.2078947-12.944902 22.4324561v92.5391227c0 9.245526 4.97235294 17.820176 12.944902 22.453421l80.2080392 46.269562c7.9935296 4.591315 17.9382356 4.591315 25.9317646 0l80.208039-46.269562c7.99353-4.633245 12.965883-13.207895 12.965883-22.453421v-92.5391227c0-9.2245614-4.972353-17.7992105-12.965883-22.4324561l-80.208039-46.26956145c-3.986274-2.30614035-8.476078-3.45921052-12.965882-3.45921052-4.468824 0-8.9586277 1.15307017-12.9658826 3.45921052" fill="#fff" fill-rule="evenodd"/></mask><mask id="b" fill="#fff"><path d="m207.566078 67.5699123-84.404117 48.7224557c-6.713726 3.857544-10.867843 11.048509-10.867843 18.805527v97.382017c0 2.410965 2.119019 3.54307 3.566666 3.54307.587451 0 1.174902-.167719 1.741373-.503157l84.404118-48.680527c6.692745-3.857544 10.867843-11.069473 10.867843-18.784561v-97.4029826c0-2.4109649-2.11902-3.5640351-3.545687-3.5640351-.629411 0-1.195882.1677193-1.762353.482193" fill="#fff" fill-rule="evenodd"/></mask><g fill="none" fill-rule="evenodd"><path d="m347.372797 139.632001c0 3.4272-2.8224 5.6448-6.047999 5.6448h-17.5392v34.675199c0 3.4272-2.8224 6.048-6.048 6.048h-2.8224c-3.4272 0-6.048-2.6208-6.048-6.048v-34.675199h-45.158398c-6.048 0-8.4672-4.2336-8.4672-9.2736 0-2.016.4032-2.8224 1.4112-4.6368l44.351999-76.6079975c1.4112-2.6208 4.032-5.0399999 7.459199-5.0399999h7.8624c3.024 0 7.4592 2.016 7.4592 7.4591998v74.5919976h17.5392c3.225599 0 6.047999 2.2176 6.047999 5.6448zm-38.505599-7.8624v-63.5039979l-36.691199 63.5039979zm134.063997 32.0544c0 12.297599-10.2816 22.175999-22.5792 22.175999h-32.457599c-12.499199 0-22.982399-9.8784-22.982399-22.175999v-91.929598c0-12.2975997 10.4832-22.1759994 22.982399-22.1759994h32.457599c12.2976 0 22.5792 9.8783997 22.5792 22.1759994zm-14.9184-4.6368v-82.6559981c0-7.4591998-4.6368-13.3055996-12.095999-13.3055996h-24.3936c-7.4592 0-11.692799 5.8463998-11.692799 13.3055996v82.6559981c0 7.4592 4.233599 13.305599 11.692799 13.305599h24.3936c7.459199 0 12.095999-5.846399 12.095999-13.305599zm124.588797-19.5552c0 3.4272-2.8224 5.6448-6.048 5.6448h-17.539199v34.675199c0 3.4272-2.8224 6.048-6.048 6.048h-2.8224c-3.4272 0-6.048-2.6208-6.048-6.048v-34.675199h-45.158399c-6.048 0-8.4672-4.2336-8.4672-9.2736 0-2.016.4032-2.8224 1.4112-4.6368l44.351999-76.6079975c1.4112-2.6208 4.032-5.0399999 7.4592-5.0399999h7.8624c3.024 0 7.4592 2.016 7.4592 7.4591998v74.5919976h17.539199c3.2256 0 6.048 2.2176 6.048 5.6448zm-38.505599-7.8624v-63.5039979l-36.691199 63.5039979z" fill="#bc4a77" fill-rule="nonzero"/><path d="m93.7684314 4.36070175-80.2080392 46.26956145c-7.97254906 4.6332456-12.944902 13.2078947-12.944902 22.4324561v92.5391227c0 9.245526 4.97235294 17.820176 12.944902 22.453421l80.2080392 46.269562c7.9935296 4.591315 17.9382356 4.591315 25.9317646 0l80.208039-46.269562c7.99353-4.633245 12.965883-13.207895 12.965883-22.453421v-92.5391227c0-9.2245614-4.972353-17.7992105-12.965883-22.4324561l-80.208039-46.26956145c-3.986274-2.30614035-8.476078-3.45921052-12.965882-3.45921052-4.468824 0-8.9586277 1.15307017-12.9658826 3.45921052" fill="#4b4949" mask="url(#a)"/><path d="m11.4791373 51.8567105 84.4041176-48.7014912c3.2939216-1.88684211 7.0284311-2.8931579 10.8678431-2.8931579 3.818431 0 7.573922 1.00631579 10.867843 2.8931579l84.383137 48.7014912c1.132942.6289474 1.762353 1.7610527 1.762353 3.0608772 0 1.2998246-.629411 2.4109649-1.762353 3.0608772l-84.383137 48.6805261c-6.44098 3.71079-15.315686 3.71079-21.7356861 0l-84.4041176-48.6805261c-1.1329412-.6499123-1.76235299-1.7610526-1.76235299-3.0608772 0-1.2998245.62941179-2.4319298 1.76235299-3.0608772" fill="#e38697" mask="url(#a)"/><path d="m101.178706 232.475719c0 2.410965-2.1190197 3.54307-3.5456864 3.54307-.6084314 0-1.1958823-.167719-1.7413725-.482193l-84.4041177-48.701491c-6.71372548-3.857544-10.86784313-11.069473-10.86784313-18.784561v-97.4029826c0-2.4109649 2.11901961-3.5640351 3.54568628-3.5640351.60843137 0 1.19588235.1677193 1.76235294.5031579l84.38313721 48.7014908c6.7137255 3.857544 10.8678433 11.048509 10.8678433 18.784562z" fill="#eab3a2" mask="url(#a)"/><path d="m207.566078 67.5699123-84.404117 48.7224557c-6.713726 3.857544-10.867843 11.048509-10.867843 18.805527v97.382017c0 2.410965 2.119019 3.54307 3.566666 3.54307.587451 0 1.174902-.167719 1.741373-.503157l84.404118-48.680527c6.692745-3.857544 10.867843-11.069473 10.867843-18.784561v-97.4029826c0-2.4109649-2.11902-3.5640351-3.545687-3.5640351-.629411 0-1.195882.1677193-1.762353.482193" fill="#f58181" mask="url(#b)"/></g></svg>