<svg width="1460" height="512" viewBox="0 0 1460 512" fill="none" xmlns="http://www.w3.org/2000/svg">
<g clip-path="url(#clip0_10_19)">
<path d="M48 64C21.5 64 0 85.5 0 112C0 127.1 7.1 141.3 19.2 150.4L236.8 313.6C248.2 322.1 263.8 322.1 275.2 313.6L332.6 270.6C356.5 210.8 412.3 167.3 478.9 160.8L492.8 150.4C504.9 141.3 512 127.1 512 112C512 85.5 490.5 64 464 64H48ZM294.4 339.2C271.6 356.3 240.4 356.3 217.6 339.2L0 176V384C0 419.3 28.7 448 64 448H360.2C335.1 417.6 320 378.5 320 336C320 330.4 320.3 324.9 320.8 319.4L294.4 339.2ZM640 336C640 297.809 624.829 261.182 597.823 234.177C570.818 207.171 534.191 192 496 192C457.809 192 421.182 207.171 394.177 234.177C367.171 261.182 352 297.809 352 336C352 374.191 367.171 410.818 394.177 437.823C421.182 464.829 457.809 480 496 480C534.191 480 570.818 464.829 597.823 437.823C624.829 410.818 640 374.191 640 336Z" fill="url(#paint0_linear_10_19)"/>
<path d="M597.823 234.177C624.829 261.182 640 297.809 640 336C640 374.191 624.829 410.818 597.823 437.823C570.818 464.829 534.191 480 496 480C457.809 480 421.182 464.829 394.177 437.823C367.171 410.818 352 374.191 352 336C352 297.809 367.171 261.182 394.177 234.177C421.182 207.171 457.809 192 496 192C534.191 192 570.818 207.171 597.823 234.177Z" fill="black"/>
<path d="M559.316 270.333L497.094 257.11C496.426 256.965 495.746 256.962 495.073 257.11L432.851 270.333C430.606 270.812 429 272.794 429 275.088L429.004 347.857C429.968 378.387 446.789 401.902 474 410.759C481.17 413.095 488.575 414.218 495.909 414.218C512.44 414.218 528.509 408.421 540.654 398.017V403.577C540.654 406.262 542.834 408.438 545.515 408.438C548.196 408.438 550.376 406.262 550.376 403.577V386.069C550.376 383.384 548.196 381.208 545.515 381.208H528.584C525.903 381.208 523.723 383.384 523.723 386.069C523.723 388.754 525.903 390.93 528.584 390.93H533.967C518.976 403.572 496.989 408.01 477.008 401.514C453.519 393.866 439.561 374.197 438.722 347.704V279.025L496.083 266.834L553.444 279.025V347.548C553.255 353.526 552.396 359.223 550.9 364.475C550.164 367.057 551.66 369.746 554.235 370.483C556.817 371.201 559.506 369.723 560.243 367.141C561.96 361.126 562.947 354.639 563.167 347.704V275.088C563.167 272.794 561.564 270.812 559.316 270.333Z" fill="white"/>
<path d="M496.084 376.093C495.244 376.093 494.405 375.876 493.653 375.439L478.098 366.457C476.593 365.592 475.667 363.985 475.667 362.25V344.29C475.667 342.555 476.593 340.948 478.098 340.082L493.653 331.1C495.16 330.223 497.01 330.231 498.514 331.1L514.07 340.082C515.574 340.948 516.5 342.555 516.5 344.29V362.25C516.5 363.985 515.574 365.592 514.07 366.457L498.514 375.439C497.762 375.876 496.927 376.093 496.084 376.093ZM485.389 359.443L496.084 365.618L506.778 359.443V347.097L496.084 340.922L485.389 347.097V359.443Z" fill="#EE0000"/>
<path d="M527.194 351.081C525.28 351.081 523.465 349.941 522.698 348.058C521.68 345.574 522.873 342.733 525.357 341.72C528.243 340.538 530.111 337.762 530.111 334.64C530.111 330.759 527.172 327.52 523.275 327.109C520.685 326.835 518.779 324.576 518.931 321.982L518.999 320.751C518.999 310.414 510.59 302.002 500.253 302.002C492.786 302.002 486.034 306.434 483.053 313.289C482.149 315.375 479.89 316.551 477.694 316.13C476.9 315.978 476.088 315.89 475.248 315.89C467.972 315.89 462.055 321.811 462.055 329.088C462.055 333.41 464.181 337.469 467.74 339.942C469.947 341.472 470.494 344.499 468.959 346.705C467.436 348.916 464.402 349.462 462.196 347.924C456.021 343.636 452.333 336.596 452.333 329.087C452.333 316.266 462.894 305.75 475.795 306.175C480.888 297.63 490.139 292.279 500.252 292.279C515.177 292.279 527.459 303.829 528.629 318.465C535.244 320.952 539.832 327.291 539.832 334.639C539.832 341.726 535.594 348.038 529.031 350.719C528.431 350.966 527.81 351.081 527.194 351.081Z" fill="#EE0000"/>
<path d="M1419.77 359V156L1459.5 149.33V359H1419.77Z" fill="#151515"/>
<path d="M1348.97 359V207.91H1388.7V359H1348.97ZM1368.69 189.93C1362.5 189.93 1357.19 187.707 1352.74 183.26C1348.29 178.813 1346.07 173.497 1346.07 167.31C1346.07 160.93 1348.29 155.613 1352.74 151.36C1357.19 146.913 1362.5 144.69 1368.69 144.69C1375.07 144.69 1380.39 146.913 1384.64 151.36C1389.09 155.613 1391.31 160.93 1391.31 167.31C1391.31 173.497 1389.09 178.813 1384.64 183.26C1380.39 187.707 1375.07 189.93 1368.69 189.93Z" fill="#151515"/>
<path d="M1236.25 361.61C1225.42 361.61 1215.85 359.677 1207.54 355.81C1199.23 351.75 1192.75 346.24 1188.11 339.28C1183.47 332.32 1181.15 324.297 1181.15 315.21C1181.15 300.71 1186.56 289.497 1197.39 281.57C1208.41 273.45 1223.49 269.39 1242.63 269.39C1255.78 269.39 1268.15 271.42 1279.75 275.48V264.46C1279.75 246.867 1269.12 238.07 1247.85 238.07C1241.47 238.07 1234.61 239.133 1227.26 241.26C1219.91 243.193 1211.41 246.287 1201.74 250.54L1187.24 221.25C1199.23 215.837 1210.63 211.777 1221.46 209.07C1232.48 206.363 1243.5 205.01 1254.52 205.01C1274.82 205.01 1290.58 209.94 1301.79 219.8C1313.2 229.467 1318.9 243.193 1318.9 260.98V359H1279.75V348.27C1273.56 352.91 1266.89 356.293 1259.74 358.42C1252.59 360.547 1244.76 361.61 1236.25 361.61ZM1218.85 314.34C1218.85 320.14 1221.36 324.78 1226.39 328.26C1231.42 331.547 1238.09 333.19 1246.4 333.19C1259.74 333.19 1270.86 329.903 1279.75 323.33V301.29C1270.08 297.423 1259.45 295.49 1247.85 295.49C1238.76 295.49 1231.61 297.23 1226.39 300.71C1221.36 303.997 1218.85 308.54 1218.85 314.34Z" fill="#151515"/>
<path d="M925.582 359V207.91H965.312V219.51C976.139 209.843 989.285 205.01 1004.75 205.01C1014.61 205.01 1023.41 207.04 1031.14 211.1C1038.88 214.967 1045.26 220.477 1050.28 227.63C1062.85 212.55 1079.48 205.01 1100.16 205.01C1111.57 205.01 1121.53 207.62 1130.03 212.84C1138.73 217.867 1145.5 224.923 1150.33 234.01C1155.36 242.903 1157.87 253.343 1157.87 265.33V359H1118.43V271.13C1118.43 261.27 1115.82 253.537 1110.6 247.93C1105.38 242.13 1098.42 239.23 1089.72 239.23C1077.54 239.23 1067.88 244.257 1060.72 254.31C1060.92 256.05 1061.11 257.79 1061.3 259.53C1061.5 261.27 1061.59 263.203 1061.59 265.33V359H1021.86V271.13C1021.86 261.27 1019.25 253.537 1014.03 247.93C1009.01 242.13 1002.14 239.23 993.442 239.23C981.262 239.23 971.885 243.87 965.312 253.15V359H925.582Z" fill="#151515"/>
<path d="M829.61 361.9C814.53 361.9 800.804 358.42 788.43 351.46C776.25 344.5 766.584 335.123 759.43 323.33C752.277 311.537 748.7 298.293 748.7 283.6C748.7 268.907 752.084 255.663 758.85 243.87C765.81 232.077 775.187 222.7 786.98 215.74C798.774 208.78 811.92 205.3 826.42 205.3C840.92 205.3 853.777 208.877 864.99 216.03C876.204 223.183 885 232.85 891.38 245.03C897.954 257.21 901.24 271.033 901.24 286.5V296.94H789.3C791.04 302.933 793.844 308.347 797.71 313.18C801.77 318.013 806.7 321.783 812.5 324.49C818.494 327.197 824.874 328.55 831.64 328.55C838.407 328.55 844.594 327.487 850.2 325.36C856 323.233 860.93 320.237 864.99 316.37L891.09 340.15C881.81 347.69 872.24 353.2 862.38 356.68C852.714 360.16 841.79 361.9 829.61 361.9ZM788.72 268.52H862.09C860.737 262.527 858.224 257.307 854.55 252.86C851.07 248.22 846.817 244.643 841.79 242.13C836.957 239.423 831.544 238.07 825.55 238.07C816.464 238.07 808.634 240.873 802.06 246.48C795.487 251.893 791.04 259.24 788.72 268.52Z" fill="#151515"/>
</g>
<defs>
<linearGradient id="paint0_linear_10_19" x1="320" y1="64" x2="320" y2="480" gradientUnits="userSpaceOnUse">
<stop/>
<stop offset="0.6" stop-color="#333333"/>
<stop offset="1" stop-color="#565656"/>
</linearGradient>
<clipPath id="clip0_10_19">
<rect width="1460" height="512" fill="white"/>
</clipPath>
</defs>
</svg>
