<svg viewBox="0 0 283 74" xmlns="http://www.w3.org/2000/svg" fill-rule="evenodd" clip-rule="evenodd" stroke-linejoin="round" stroke-miterlimit="2"><path d="M126.069 62.323v-58.5c0-2.9 1.1-4 4-3.8 2.3.1 3.2 1.1 3.2 3.4v20.8c3-1.5 5.8-2.5 8.9-2.9 11.6-1.3 20.2 6.4 20.2 18.1v26.3c0 .7.3 1.6-.5 1.9-.6.3-1.1-.4-1.6-.8-3.2-2.5-5.3-5.5-5.2-9.9.2-6.3.2-12.6-.1-18.8-.4-6.7-4.9-10.7-11.1-10.5-6.1.2-10.3 4.7-10.5 11.3-.1 3.9-.3 7.9 0 11.8.4 5.7-2.7 8.8-7.3 11.6zM84.069 45.723c.1-3.3-.4-7.3.4-11.1 1.8-8.2 9.7-13.9 18.3-13.3 8.6.6 15 5.3 17 12.4.6 2.3 0 3.5-2.1 4.2-2.4.8-4.4.1-4.9-2.1-1.4-5.6-7-8.7-12.2-8-5.6.9-9.1 4.9-9.2 11-.1 5.2-.2 10.3 0 15.5.2 5.8 4 9.9 9.4 10.5 5.4.6 10.2-2.5 11.9-7.8.7-2.3 2.5-3.1 5-2.3 2 .7 2.7 1.9 2 4.2-2.1 7.9-10.3 13.1-19.3 12.3-10.1-.9-16.4-7.8-16.4-17.9.1-2.3.1-4.6.1-7.6zM78.069 62.023c-4.5-1.7-7.4-5.7-7.4-10.2 0-4.5.1-8.9-.1-13.4-.3-7.6-6.5-12-13.8-10.2-4.8 1.2-7.8 5.3-7.8 10.9-.1 6-.2 11.9 0 17.9.2 5.3-2.8 8.3-6.7 11-.7-.5-.6-1.2-.6-1.8 0-9.6-.1-19.3.2-28.9.2-9.6 8.4-16.6 18.9-15.9 11.2.7 17.3 7.5 17.3 18.7v21.9zM211.269 51.623c0-4.3-.1-8.6 0-12.9.2-7.3 3.3-12.8 10.1-15.8 6.6-2.9 15.6-1.4 20.5 3.2 2.2 2.1 2.7 3.9 1.4 5.5-1.7 2.1-3.9 2.1-5.8.1-3.6-3.8-7.9-4.8-12.3-3.1-4.1 1.6-6.5 5.5-6.6 10.7v19.1c0 4.3-2.8 7-6.1 9.2-1.4.9-1.1-.5-1.1-1.1-.1-5-.1-9.9-.1-14.9zM35.869 37.323c0-3.2-.9-6.2-2.8-8.8-3.6-5-8.7-6.8-14.6-7.2-7.3-.5-14.7 4-17.2 10.4-.8 2.2-.3 3.5 1.8 4.2 2.5 1.1 3.9.4 5.2-2.2 2.2-4.6 7.2-6.9 12.2-5.8 5.3 1.2 8.1 4.9 8.4 10.2.2 2.7-1 3.7-3.4 4.3-5.7 1.5-11.5 2.8-17 4.7-8.4 2.9-11.1 12.4-5.6 19.5 4.7 6.2 11.4 7.6 18.7 6.5 8.8-1.4 13.5-6.8 14-15.6.2-3.4 0-6.9 0-10.3h.3v-9.9zm-7.8 21.8c-.9 6.7-8.7 10-15.5 6.9-1.2-.6-2.3-1.2-3.3-2.2-3.6-4-2.3-9.5 2.7-11.3l1.8-.6c4.9-1.3 9.8-2.6 14.9-3.9-.2 3.8-.1 7.5-.6 11.1zM258.869 51.823c.3-.1.6-.1.9-.2 5-1.5 10.2-2.3 15.1-4.2 3.8-1.4 6.6-3.8 7.5-8 1.4-6.2-1.2-12.2-6.8-15.4-5-2.9-10.4-3.4-15.9-2.1-6.9 1.7-11.1 6.1-12.2 13.2-.6 4.1 0 8.2-.5 13.4v6.2c0 2.1-.1 4.1.4 6.1 1.6 7 8 12 15.8 12.4 8.6.5 15.9-3.7 18.5-10.5.7-1.9.1-3.1-1.5-3.9-2.5-1.4-4.3-.8-5.6 2-2 4.1-6 6.4-10.5 6-5-.4-8.4-3.1-9.6-7.3-1.3-4.9-.5-6.4 4.4-7.7zm-4.4-14.9c.3-4.6 2.8-7.6 7-8.7 5.1-1.3 10.3.3 12.7 3.8 2.8 4.1 1.3 8.8-3.5 10.3-5.3 1.7-10.8 3-16.2 4.5 0-3.4-.2-6.7 0-9.9zM204.669 46.323c0-3.6.5-7.3 0-10.7-1.2-8.3-7.8-13.8-17.3-14.1-9.9-.3-17.4 5.8-18.4 14.8-.7 5.7-.3 11.4-.3 17.1-.1 9.4 5.4 15.8 14.6 17.6 10 1.9 19.3-3.9 21.3-13.4.7-3.7.1-7.5.1-11.3zm-7.4 9.8c-.8 5.6-5.5 9-11.1 8.6-5.7-.4-9.7-4.2-10.1-9.9-.2-2.9 0-5.9 0-8.9 0-2.6-.1-5.2 0-7.8.3-5.8 4.2-9.9 9.9-10.3 5.7-.5 10.5 2.9 11.3 8.6 1 6.5.9 13.2 0 19.7z" fill-rule="nonzero"/></svg>