<?xml version="1.0" encoding="utf-8"?>
<!-- Generator: Adobe Illustrator 23.0.3, SVG Export Plug-In . SVG Version: 6.00 Build 0)  -->
<svg version="1.1" id="Layer_1" xmlns="http://www.w3.org/2000/svg" xmlns:xlink="http://www.w3.org/1999/xlink" x="0px" y="0px"
	 viewBox="0 0 496 164" style="enable-background:new 0 0 496 164;" xml:space="preserve">
<title>Anchore logo</title>
<path id="XMLID_10_" d="M228.6,106.6V48.1c0-2.9,1.1-4,4-3.8c2.3,0.1,3.2,1.1,3.2,3.4v20.8c3-1.5,5.8-2.5,8.9-2.9
	c11.6-1.3,20.2,6.4,20.2,18.1V110c0,0.7,0.3,1.6-0.5,1.9c-0.6,0.3-1.1-0.4-1.6-0.8c-3.2-2.5-5.3-5.5-5.2-9.9
	c0.2-6.3,0.2-12.6-0.1-18.8c-0.4-6.7-4.9-10.7-11.1-10.5c-6.1,0.2-10.3,4.7-10.5,11.3c-0.1,3.9-0.3,7.9,0,11.8
	C236.3,100.7,233.2,103.8,228.6,106.6L228.6,106.6z"/>
<path id="XMLID_8_" d="M186.6,90c0.1-3.3-0.4-7.3,0.4-11.1c1.8-8.2,9.7-13.9,18.3-13.3c8.6,0.6,15,5.3,17,12.4
	c0.6,2.3,0,3.5-2.1,4.2c-2.4,0.8-4.4,0.1-4.9-2.1c-1.4-5.6-7-8.7-12.2-8c-5.6,0.9-9.1,4.9-9.2,11c-0.1,5.2-0.2,10.3,0,15.5
	c0.2,5.8,4,9.9,9.4,10.5c5.4,0.6,10.2-2.5,11.9-7.8c0.7-2.3,2.5-3.1,5-2.3c2,0.7,2.7,1.9,2,4.2c-2.1,7.9-10.3,13.1-19.3,12.3
	c-10.1-0.9-16.4-7.8-16.4-17.9C186.6,95.3,186.6,93,186.6,90z"/>
<path id="XMLID_7_" d="M180.6,106.3c-4.5-1.7-7.4-5.7-7.4-10.2s0.1-8.9-0.1-13.4c-0.3-7.6-6.5-12-13.8-10.2
	c-4.8,1.2-7.8,5.3-7.8,10.9c-0.1,6-0.2,11.9,0,17.9c0.2,5.3-2.8,8.3-6.7,11c-0.7-0.5-0.6-1.2-0.6-1.8c0-9.6-0.1-19.3,0.2-28.9
	c0.2-9.6,8.4-16.6,18.9-15.9c11.2,0.7,17.3,7.5,17.3,18.7C180.6,84.4,180.6,106.3,180.6,106.3z"/>
<path id="XMLID_6_" d="M313.8,95.9c0-4.3-0.1-8.6,0-12.9c0.2-7.3,3.3-12.8,10.1-15.8c6.6-2.9,15.6-1.4,20.5,3.2
	c2.2,2.1,2.7,3.9,1.4,5.5c-1.7,2.1-3.9,2.1-5.8,0.1c-3.6-3.8-7.9-4.8-12.3-3.1c-4.1,1.6-6.5,5.5-6.6,10.7v19.1c0,4.3-2.8,7-6.1,9.2
	c-1.4,0.9-1.1-0.5-1.1-1.1C313.8,105.8,313.8,100.9,313.8,95.9L313.8,95.9z"/>
<path id="XMLID_15_" d="M138.4,81.6c0-3.2-0.9-6.2-2.8-8.8c-3.6-5-8.7-6.8-14.6-7.2c-7.3-0.5-14.7,4-17.2,10.4
	c-0.8,2.2-0.3,3.5,1.8,4.2c2.5,1.1,3.9,0.4,5.2-2.2c2.2-4.6,7.2-6.9,12.2-5.8c5.3,1.2,8.1,4.9,8.4,10.2c0.2,2.7-1,3.7-3.4,4.3
	c-5.7,1.5-11.5,2.8-17,4.7c-8.4,2.9-11.1,12.4-5.6,19.5c4.7,6.2,11.4,7.6,18.7,6.5c8.8-1.4,13.5-6.8,14-15.6c0.2-3.4,0-6.9,0-10.3
	h0.3V81.6z M130.6,103.4c-0.9,6.7-8.7,10-15.5,6.9c-1.2-0.6-2.3-1.2-3.3-2.2c-3.6-4-2.3-9.5,2.7-11.3l1.8-0.6
	c4.9-1.3,9.8-2.6,14.9-3.9C131,96.1,131.1,99.8,130.6,103.4z"/>
<path id="XMLID_21_" d="M361.4,96.1c0.3-0.1,0.6-0.1,0.9-0.2c5-1.5,10.2-2.3,15.1-4.2c3.8-1.4,6.6-3.8,7.5-8
	c1.4-6.2-1.2-12.2-6.8-15.4c-5-2.9-10.4-3.4-15.9-2.1c-6.9,1.7-11.1,6.1-12.2,13.2c-0.6,4.1,0,8.2-0.5,13.4V99
	c0,2.1-0.1,4.1,0.4,6.1c1.6,7,8,12,15.8,12.4c8.6,0.5,15.9-3.7,18.5-10.5c0.7-1.9,0.1-3.1-1.5-3.9c-2.5-1.4-4.3-0.8-5.6,2
	c-2,4.1-6,6.4-10.5,6c-5-0.4-8.4-3.1-9.6-7.3C355.7,98.9,356.5,97.4,361.4,96.1z M357,81.2c0.3-4.6,2.8-7.6,7-8.7
	c5.1-1.3,10.3,0.3,12.7,3.8c2.8,4.1,1.3,8.8-3.5,10.3c-5.3,1.7-10.8,3-16.2,4.5C357,87.7,356.8,84.4,357,81.2z"/>
<path id="XMLID_18_" d="M307.2,90.6c0-3.6,0.5-7.3,0-10.7c-1.2-8.3-7.8-13.8-17.3-14.1c-9.9-0.3-17.4,5.8-18.4,14.8
	c-0.7,5.7-0.3,11.4-0.3,17.1c-0.1,9.4,5.4,15.8,14.6,17.6c10,1.9,19.3-3.9,21.3-13.4C307.8,98.2,307.2,94.4,307.2,90.6z
	 M299.8,100.4c-0.8,5.6-5.5,9-11.1,8.6c-5.7-0.4-9.7-4.2-10.1-9.9c-0.2-2.9,0-5.9,0-8.9h0c0-2.6-0.1-5.2,0-7.8
	c0.3-5.8,4.2-9.9,9.9-10.3c5.7-0.5,10.5,2.9,11.3,8.6C300.8,87.2,300.7,93.9,299.8,100.4z"/>
</svg>
