<svg viewBox="0 0 237 61" xmlns="http://www.w3.org/2000/svg" fill-rule="evenodd" clip-rule="evenodd" stroke-linejoin="round" stroke-miterlimit="2"><path d="M26.49 4.428c-10.02-.033-18.297 8.176-18.33 18.18-.03 9.936 8.11 18.267 17.735 18.457 9.902.196 18.599-7.61 18.752-17.973.154-10.35-7.993-18.63-18.156-18.664m.01 40.996c-12.634 0-22.722-10.12-22.715-22.784C3.792 10.193 14.022-.022 26.46 0c12.582.023 22.595 10.244 22.587 23.058-.008 12.238-10.218 22.366-22.546 22.366" fill="#43bf49"/><g fill="#393a40"><path d="M95.066 39.455c0 1.266-.009 2.533.007 3.799.003.271-.132.594.317.741 2.038.669 3.971-.605 4.081-2.742.046-.88.034-1.764.033-2.647-.005-3.148-.556-3.664-3.68-3.594-.581.014-.797.137-.772.759.048 1.226.014 2.456.014 3.684m6.223 6.315c2.445 1.31 2.85 3.544 2.902 5.93.046 2.114.029 4.23.09 6.343.019.682.2 1.359.321 2.133-1.381 0-2.754-.009-4.128.003-.747.006-.702-.584-.77-1.04-.309-2.064-.173-4.145-.198-6.219-.006-.501.008-1.001-.002-1.501-.053-2.521-1.536-3.687-4.024-3.236-.665.121-.4.566-.402.873-.02 3.347-.041 6.695.008 10.043.012.842-.17 1.175-1.064 1.096-.951-.084-1.916-.052-2.872-.007-.608.029-.805-.183-.785-.784.037-1.115.011-2.232.011-3.348 0-8.042.016-16.084-.022-24.126-.004-.948.23-1.252 1.194-1.208 2.409.111 4.825-.088 7.234.122 3.202.28 5.133 2.208 5.286 5.428.092 1.916.215 3.847-.123 5.755-.282 1.594-1.096 2.851-2.656 3.743M210.611 39.529c0 1.038.108 2.091-.027 3.111-.171 1.283.409 1.436 1.464 1.37 2.18-.136 2.852-.707 3.055-2.887.074-.801.065-1.611.062-2.417-.013-3.223-.662-3.82-3.865-3.694-.548.021-.718.157-.701.711.039 1.268.012 2.537.012 3.806m6.298 6.244c2.198 1.169 2.775 3.12 2.879 5.278.072 1.497.028 3.001.025 4.502-.002 1.531-.074 3.067.499 4.623-1.447 0-2.786-.021-4.124.01-.551.014-.699-.245-.807-.73-.312-1.41-.159-2.835-.215-4.253-.064-1.649.186-3.312-.179-4.947-.357-1.595-2.673-2.73-4.141-2.046-.44.205-.222.608-.224.91-.017 3.349-.035 6.698.007 10.046.011.784-.157 1.099-.993 1.028a17.622 17.622 0 00-2.757-.002c-.722.053-.901-.187-.892-.895.039-2.963.017-5.928.017-8.891 0-6.198.016-12.395-.02-18.592-.005-.837.155-1.13 1.052-1.094 2.295.092 4.602-.032 6.893.118 3.755.245 5.412 1.842 5.787 5.545.17 1.677.161 3.38-.056 5.067-.233 1.811-.975 3.302-2.751 4.323M194.245 45.426c0 2.77-.043 5.542.014 8.312.041 1.997 1.506 2.991 3.264 2.308 1.056-.41 1.344-1.313 1.357-2.322.03-2.5.027-5.002.026-7.503-.002-3.04.029-6.08-.041-9.119-.043-1.866-1.252-2.746-2.985-2.331-1.056.252-1.612 1.024-1.628 2.458-.031 2.732-.009 5.464-.007 8.197m9.273.026c0 2.695.02 5.39-.006 8.085-.026 2.663-.818 5.026-3.398 6.18-2.732 1.221-5.548 1.196-8.081-.6-1.965-1.393-2.453-3.575-2.465-5.823-.028-5.503-.067-11.009.095-16.508.122-4.152 2.896-6.497 7.135-6.384 4.153.111 6.66 2.604 6.713 6.736.035 2.771.007 5.543.007 8.314M148.941 37.003l-.211-.05c-.665 4.433-1.324 8.866-2.005 13.296-.069.448.101.527.473.524 1.071-.008 2.143-.012 3.215.002.425.006.597-.067.517-.582-.683-4.394-1.331-8.792-1.989-13.19m.194-6.181c1.066 0 2.366-.375 3.131.107.746.47.491 1.906.655 2.921 1.361 8.412 2.702 16.828 4.07 25.239.13.801.057 1.224-.92 1.103-1.2-.149-2.78.503-3.522-.262-.674-.693-.476-2.249-.646-3.426-.237-1.641-.231-1.642-1.924-1.642h-1.954c-1.979 0-1.979 0-2.265 1.923-.011.076-.017.153-.026.229-.435 3.41-.666 3.563-4.169 3.178-.899-.098-.464-.67-.415-.999.532-3.533 1.105-7.059 1.668-10.587.891-5.577 1.811-11.149 2.645-16.734.142-.949.475-1.233 1.374-1.144.759.074 1.532.015 2.298.015v.079M80.248 37.093l-.234.006c-.135.921-.266 1.843-.405 2.763-.501 3.305-.986 6.613-1.518 9.913-.13.803.07 1.093.902 1.011a10.46 10.46 0 012.181.001c.947.107 1.151-.235 1-1.134-.42-2.501-.764-5.014-1.145-7.522-.255-1.68-.52-3.359-.781-5.038m5.789 23.083c-2.345 0-2.335-.001-2.659-2.287-.138-.983.083-2.279-.582-2.854-.666-.575-1.911-.157-2.901-.166-2.517-.022-2.519-.007-2.913 2.501-.141.902.063 2.077-.543 2.626-.618.56-1.759.152-2.67.172-1.44.031-1.461.005-1.235-1.421 1.433-9.03 2.885-18.057 4.293-27.091.113-.725.339-.952 1.059-.929 1.648.051 3.299.046 4.946.002.699-.019.957.162 1.075.916a5114.797 5114.797 0 004.436 27.793c.088.542.033.792-.581.747-.573-.042-1.15-.009-1.725-.009M158.574 45.406c0-3.039-.157-6.089.039-9.116.25-3.857 2.933-6 6.964-5.888 3.926.109 6.346 2.399 6.594 6.24.012.191.025.385.011.576-.077 1.135.504 2.733-.237 3.283-.776.576-2.277.144-3.458.202-.588.029-.707-.22-.689-.743.032-.923.037-1.849 0-2.771-.065-1.612-.866-2.477-2.258-2.503-1.482-.027-2.297.684-2.348 2.356a284.27 284.27 0 00-.002 16.85c.045 1.592.845 2.275 2.304 2.267 1.412-.008 2.22-.776 2.294-2.317.062-1.306.056-2.618.004-3.925-.027-.672.197-.848.834-.813 1.142.063 2.642-.382 3.334.188.722.596.173 2.16.217 3.299.038.96.014 1.916-.194 2.871-.617 2.838-2.453 4.601-5.334 4.935-1.253.146-2.526.129-3.765-.223-2.761-.783-4.357-3.179-4.394-6.684-.028-2.694-.006-5.389-.006-8.084h.09"/></g><path d="M26.408 60.576c-8.393 0-16.786-.017-25.179.024-.982.005-1.271-.284-1.175-1.224.093-.91-.278-2.123.183-2.675.545-.653 1.793-.213 2.732-.214 16.25-.016 32.499 0 48.749-.037 1.067-.003 1.326.29 1.3 1.328-.07 2.797-.022 2.798-2.811 2.798H26.408z" fill="#43bf49"/><path d="M229.221 43.56c1.003-3.816 2.055-7.62 2.977-11.455.267-1.115.727-1.533 1.83-1.372.965.141 2.295-.436 2.803.273.345.48-.388 1.751-.656 2.662-1.471 5.002-2.925 10.008-4.434 14.998-.372 1.231-.568 2.45-.544 3.735.043 2.308-.005 4.617.023 6.925.008.624-.136.904-.824.865a26.092 26.092 0 00-2.986 0c-.683.038-.85-.231-.828-.861.039-1.114-.056-2.236.023-3.346.263-3.695-.368-7.23-1.512-10.743-1.448-4.444-2.672-8.961-4.04-13.432-.263-.858-.182-1.198.785-1.078.529.066 1.072.012 1.608.012 2.223 0 2.215.002 2.785 2.204.912 3.522 1.835 7.041 2.753 10.561l.237.052M129.188 45.394c0-4.54.017-9.079-.016-13.618-.006-.769.146-1.065.989-1.053 3.448.048 6.896.039 10.343.004.691-.007.956.145.903.883-.081 1.108.336 2.54-.212 3.234-.425.537-2.003.168-3.068.181-1.188.013-2.376.034-3.562-.011-.573-.021-.704.178-.698.72.026 2.462.03 4.924-.002 7.386-.008.582.19.705.724.693 1.493-.032 2.988.01 4.481-.022.527-.011.755.106.722.687-.064 1.143.332 2.573-.215 3.346-.452.639-2 .167-3.062.176-2.637.022-2.637.007-2.637 2.607 0 2.847-.025 5.694.017 8.54.011.773-.146 1.133-.995 1.041-1.204-.131-2.824.514-3.511-.265-.598-.678-.194-2.265-.197-3.451-.011-3.692-.004-7.385-.004-11.078M115.24 47.622c0 3.847-.021 7.695.018 11.542.008.797-.192 1.096-1.014 1.029a15.632 15.632 0 00-2.641 0c-.851.075-.998-.275-.995-1.047.026-7.656-.005-15.313.042-22.969.006-.98-.248-1.257-1.193-1.169-.95.089-1.915-.007-2.872.03-.561.022-.846-.081-.807-.744.056-.958.032-1.923.007-2.884-.013-.494.159-.676.662-.674 4.329.013 8.659.014 12.988-.001.523-.002.685.22.638.693-.004.038 0 .076-.001.115-.022 1.111.366 2.544-.179 3.245-.577.74-2.07.193-3.161.228-1.491.047-1.492.012-1.492 1.525v11.081zM183.193 47.623c0 3.849-.023 7.697.019 11.545.008.805-.199 1.091-1.017 1.024a14.838 14.838 0 00-2.641.003c-.895.088-1.074-.251-1.07-1.092.034-6.618.019-13.237.019-19.856 0-1.155-.03-2.31.012-3.463.021-.597-.154-.799-.765-.77-1.071.05-2.146-.01-3.218.024-.55.017-.843-.064-.796-.732.08-1.144-.344-2.611.218-3.35.533-.703 2.075-.193 3.171-.203 3.295-.029 6.591.014 9.886-.028.77-.01 1.01.22.953.977-.081 1.067.326 2.476-.212 3.118-.56.669-2.01.176-3.069.199-1.489.033-1.49.009-1.49 1.522v11.082zM126.589 45.552c0 4.538-.02 9.076.018 13.614.007.8-.191 1.092-1.012 1.027a17.97 17.97 0 00-2.755 0c-.748.055-.876-.243-.875-.919.02-9.192.022-18.383-.002-27.574-.002-.74.163-1.031.943-.973a19.65 19.65 0 002.756.002c.771-.053.95.234.944.979-.034 4.614-.017 9.229-.017 13.844" fill="#393a40"/><path d="M119.754 12.739c.004-1.358-.54-2.008-1.66-1.983-1.055.024-1.594.683-1.594 1.95 0 1.318.578 2.001 1.68 1.984 1.059-.017 1.57-.65 1.574-1.951m-1.895 10.535c.97.022 1.921-.078 2.734-.662.728-.522.766-1.518.025-1.771-1.471-.503-2.998-.559-4.484.004-.498.188-.79.615-.766 1.173.021.518.368.802.806 1.022.542.271 1.115.222 1.685.234m-3.024-3.819c-1.285-1.439-1.232-1.955.333-3.513-.933-.691-1.576-1.559-1.659-2.767-.199-2.869 1.654-4.608 4.838-4.367 1.645.124 3.284.212 4.932.208.356 0 .855-.125.802.499-.04.47.315 1.145-.56 1.263-.792.106-1.049.357-.85 1.325.563 2.74-1.368 4.572-4.597 4.575-.594 0-1.531-.366-1.477.659.04.776.929.592 1.516.62 1.031.049 2.064-.059 3.096.13 1.166.213 2.182.656 2.527 1.873.37 1.305.298 2.596-.689 3.68-.53.582-1.189.958-1.92 1.221-1.743.627-3.548.62-5.339.393-1.803-.229-2.918-1.228-3.14-2.588-.22-1.342.347-2.193 2.187-3.211M108.481 14.696c-.013-.614-.043-1.218-.224-1.819-.328-1.09-1.096-1.54-2.153-1.523-1.038.017-1.723.581-1.994 1.587-.326 1.21-.323 2.432.054 3.633.297.944.958 1.461 1.956 1.476 1.02.015 1.764-.402 2.107-1.423.212-.63.251-1.276.254-1.931m3.224-.052c-.031 4.29-2.82 6.618-6.855 5.827-1.614-.316-2.818-1.217-3.499-2.711-.925-2.029-.919-4.12-.039-6.153.945-2.182 3.276-3.163 6.133-2.697 2.296.374 3.945 2.211 4.203 4.693.04.382.043.768.057 1.041M80.868 12.917c0-2.154.028-4.309-.016-6.463-.015-.742.18-1.005.955-.988 2.221.049 4.445.041 6.666.003.683-.011 1.009.162.919.894a4.858 4.858 0 00-.001 1.037c.054.593-.168.817-.779.799-1.263-.038-2.529.017-3.792-.023-.608-.02-.76.19-.779.786-.096 2.956-.115 2.956 2.853 2.956.306 0 .62.044.918-.008 1.094-.192 1.278.314 1.314 1.32.04 1.136-.386 1.338-1.373 1.289-1.177-.059-2.753-.418-3.439.181-.788.689-.223 2.309-.246 3.523-.042 2.252-.012 2.208-2.228 2.233-.861.01-1.002-.321-.987-1.075.042-2.154.015-4.309.015-6.464M74.027 13.082c0-2.229.022-4.458-.013-6.686-.011-.684.17-.925.895-.932 2.377-.023 2.397-.054 2.373 2.312-.045 4.225.188 8.456-.115 12.674-.234 3.259-2.688 4.933-5.89 4.221-.48-.107-.65-.295-.626-.757a7.624 7.624 0 00-.003-1.151c-.067-.686.064-.929.869-.777 1.664.315 2.447-.358 2.49-2.103.056-2.266.013-4.534.013-6.801h.007zM94.983 10.767c.903-1.304 2.058-2.007 3.606-1.99.633.007.919.253.776.904-.016.074-.044.151-.04.226.056 1.182-.049 1.962-1.678 1.944-1.676-.018-2.473 1.121-2.503 2.837-.028 1.652-.025 3.304.003 4.956.011.587-.169.782-.777.806-2.397.093-2.396.116-2.396-2.291 0-2.689-.007-5.378.008-8.068.003-.446-.22-1.152.609-1.057.719.082 1.778-.575 2.02.788.052.297.047.619.372.945" fill="#43bf49"/></svg>