<svg height="128" viewBox="0 0 376 128" width="376" xmlns="http://www.w3.org/2000/svg"><g fill="none"><path d="m103.93571.04714286c-3.392061 0-6.2609091 1.63114285-8.2966494 4.71642857-2.0235628 3.06685714-3.0930822 7.34785717-3.0930822 12.37928567 0 5.0314286 1.0695194 9.3124286 3.0930822 12.3788572 2.0357403 3.0857143 4.9045884 4.7164286 8.2966494 4.7164286s6.260909-1.6307143 8.296649-4.7164286c2.023143-3.0664286 3.092663-7.3474286 3.092663-12.3788572 0-5.0314285-1.06952-9.31242853-3.092663-12.37928567-2.03574-3.08528572-4.904588-4.71642857-8.296649-4.71642857zm0 29.95500004c-1.621706 0-2.902862-.9364286-3.917792-2.8632858-1.2257275-2.3275714-1.9009483-5.8774285-1.9009483-9.996 0-4.1185714.6752208-7.6688571 1.9009483-9.99599996 1.01493-1.92685714 2.296086-2.86371428 3.917792-2.86371428 1.621286 0 2.902861.93685714 3.917792 2.86371428 1.225727 2.32714286 1.900528 5.87699996 1.900528 9.99599996s-.674801 7.6692858-1.900528 9.996c-1.014931 1.9268572-2.296506 2.8632858-3.917792 2.8632858zm-73.5129827-17.4998572v14.7051429c0 3.8768571 3.0905627 7.0307143 6.8890995 7.0307143 3.3131169 0 5.8162208-1.6774286 6.7379308-2.3991429.0512294-.0402857.1184156-.0522857.1801428-.0321429.0617273.0201429.1095974.0698572.1284935.1332858l.5559654 1.857h4.1050736v-21.2948572h-5.2749524v15.9231429c0 .075-.0415714.144-.106658.1787143-.9918355.522-2.948632 1.3984285-4.9087879 1.3984285-1.6708355 0-3.0313549-1.3877143-3.0313549-3.0938571v-14.4064286zm52.8196493 21.2944286h5.2753723v-14.7051429c0-3.8768571-3.0905628-7.0311428-6.8890995-7.0311428-2.7962035 0-5.039381 1.227-6.1273767 1.9581428-.0608874.0407143-.1381515.0441429-.2015584.009-.0634069-.0351428-.1037186-.1028571-.1037186-.177v-13.3615714h-5.2749524v33.3077143h5.2749524v-15.9235714c0-.075.0415714-.144.1070779-.1782858.9914156-.5224285 2.948632-1.3984285 4.908368-1.3984285.809593 0 1.5708961.3218571 2.1432381.906.5723419.5841428.887277 1.3615714.887277 2.1874285v14.4068572zm-30.4206277-17.0588572h3.210658c.1087576 0 .1969394.09.1969394.201v11.7145715c0 3.0792857 2.4548139 5.5842857 5.4718918 5.5842857 1.0938745 0 2.1730519-.1611429 3.2110779-.4791429v-3.846c-.6055151.0544286-1.3017316.0895715-1.7938701.0895715-.8902165 0-1.6141472-.7392858-1.6141472-1.6474286v-11.4162857c0-.111.0881818-.201.1969394-.201h3.2110779v-4.2355715h-3.2110779c-.1087576 0-.1969394-.09-.1969394-.201v-7.03157139h-5.2749524v7.03157139c0 .111-.0881818.201-.1969394.201h-3.210658zm-30.8346623 17.0588572h5.4874286l-8.3453594-29.70385716c-.668922-2.382-2.8318961-4.04571428-5.2598355-4.04571428-2.4279393 0-4.59091337 1.66371428-5.26025536 4.04571428l-8.34535931 29.70385716h5.48784848l2.41534199-8.5975714c.02435498-.0861429.10161905-.1452858.18938096-.1452858h11.02608654c.0877619 0 .1654459.0591429.189381.1452858zm-3.9072944-12.9784286h-8.42010389c-.06172727 0-.12009524-.0295714-.15746753-.0805714-.03695238-.0497143-.04870996-.1152857-.03191342-.1757143l4.21005194-14.98542857c.024355-.08614286.1016191-.14528572.189381-.14528572s.1650259.05914286.188961.14528572l4.2104719 14.98542857c.0167965.0608571.0050389.126-.0323334.1757143-.0369524.051-.0953203.0805714-.1570476.0805714z" fill="#16214d" transform="translate(162.52381 48.857143)"/><path d="m42.8710064 49.3476041-6.0605016-18.8485127 15.8644868-11.6458543h-19.6101285l-6.0608612-18.84778577-.0017984-.00508791h19.6130059l6.0622999 18.85105658.0003597-.0003634.0050354-.0029074c3.5204861 10.9360914-.1053843 23.3745688-9.811898 30.4994549zm-31.7354477 0-.0050355.0036342 15.8684432 11.6487617 15.87204-11.6520325-15.8670045-11.6491251zm-9.8079417-30.4990914c-3.70607762 11.5281056.5959793 23.743442 9.8047046 30.5012719l.0014387-.0058147 6.0612209-18.8474224-15.86089007-11.6436738h19.60545277l6.0612209-18.84778579.0014387-.00508791h-19.61408494z" fill="#eb5424" transform="translate(99 39)"/></g></svg>