<svg id="Layer_1" data-name="Layer 1" xmlns="http://www.w3.org/2000/svg" viewBox="0 0 376 128"><defs><style>.cls-1{fill:#f69339;}.cls-2{fill:#f37c42;}.cls-3{fill:#201c1d;}</style></defs><path class="cls-1" d="M49.88,45.89a28.86,28.86,0,0,1,7.55-2.49c.66-1.95.23-3.95.31-5.9s0-3.78,0-5.55c-6.31-3.28-8.29-6.65-7-11.72a8.79,8.79,0,0,1,8.35-6.5,8.53,8.53,0,0,1,8.31,6.49c1.16,5.32-.74,8.67-6.71,11.6V43.4c5.5.81,10.48,2.84,14,7.73l8-4.62c-.35-7.31,1.23-10.21,7.11-11.69,3.59-.9,7.57,1.26,9.2,4.63a9.07,9.07,0,0,1-1.92,10.2c-3.29,3-7.45,2.85-12.57-.52-3,1-4.63,2-7.78,5C79.89,59.9,80.22,66,77.83,72.43L84.31,77c7.43-3,10.76-2.8,13.61.81A9.55,9.55,0,0,1,98.11,89a8.67,8.67,0,0,1-9.61,3.07c-4.55-1.56-6-4.72-5.57-12.74l-6.42-4.13c-4.24,5.23-9.25,8.92-15.85,10.27v9c6.9,3.38,7.74,7,6.49,11.73-1,3.81-4.65,6-8.79,5.74a8.55,8.55,0,0,1-7.75-6.79c-.84-4.69,1.26-7.86,7-10.47V85.14a14.62,14.62,0,0,1-7.69-2.75c0-.84,0-1.67,0-2.51,4.85,2.36,9.62,3.26,15,1.08,6.86-2.78,12.24-10,11.78-17.08-.57-8.72-6.48-15.74-14.22-17.43-4.25-.93-8,.51-12,1.42Zm35.45,37.7a5.92,5.92,0,1,0,11.83-.12,5.92,5.92,0,1,0-11.83.12Zm-20.43-61c0-3.6-2.56-6.21-5.94-6.13s-5.77,2.84-5.72,6.4a5.61,5.61,0,0,0,5.82,5.88C62.57,28.77,64.93,26.29,64.9,22.62Zm0,80.8a5.88,5.88,0,0,0-5.82-5.93,5.91,5.91,0,1,0,0,11.81A5.71,5.71,0,0,0,64.9,103.42Zm32.26-60.3a5.92,5.92,0,0,0-11.83.25,5.92,5.92,0,1,0,11.83-.25Z"/><path class="cls-2" d="M49.88,45.89c.22.66.44,1.32.67,2a3.36,3.36,0,0,1-.59.65c-10.32,6.09-12.15,23.47,0,31.36,0,.84,0,1.67,0,2.51-3.9-1.66-6.45-4.74-8.67-8.57l-7.46,4.81c.61,7.91-1.83,11-6.88,12.27a8.26,8.26,0,0,1-9.42-4.69A9.22,9.22,0,0,1,19.67,75.3c3.48-2.94,7.22-2.71,12.51.93L40,71.76C38.46,66,38.4,60.33,41,54.82c-2.64-1.55-4.35-4-7.19-5-6.35,3.15-10.31,3-13.32-.58a8.61,8.61,0,0,1,9.68-13.6c4.25,1.64,5.92,5.18,5.2,11.14a7.06,7.06,0,0,0,3.38,2.69,33.88,33.88,0,0,1,3.8,2.4A20.05,20.05,0,0,1,49.88,45.89ZM25.27,76a6,6,0,0,0-6,5.83c-.1,3.73,2.4,6.53,5.85,6.54s5.84-2.52,6-6.11A6.18,6.18,0,0,0,25.27,76Zm1.91-26.46a5.87,5.87,0,0,0,5.91-5.89,6.22,6.22,0,0,0-6-5.93c-3-.07-6,3-5.92,6A5.92,5.92,0,0,0,27.18,49.52Z"/><path class="cls-1" d="M47.54,54.45A50.5,50.5,0,0,1,59,48.86a43.55,43.55,0,0,1,11.56,5.45c0,4.8.43,9.81-.11,14.7-.73,6.64-5.3,10.36-11.49,10.25-6.38-.11-10.75-4.19-11.31-11.17C47.24,63.55,47.54,59,47.54,54.45ZM50,56.14c.23,4.38-.41,8.73.41,13.07.86,4.56,3.67,7.15,8,7.33,4.9.21,7.78-1.73,9-6.47s.34-9.45.48-14.14l-9.19-4.17C56.39,53.86,53.09,54.25,50,56.14Z"/><path class="cls-1" d="M51.17,57.64c5.2-3.89,10.22-4.1,15.54-.14,0,3.35.33,7-.08,10.64a7.75,7.75,0,0,1-8.42,7.15c-3.62-.33-7-4.49-7-8.7C51.15,63.52,51.17,60.46,51.17,57.64Zm9.38.19V72.55c5.34-3.88,3.3-8.94,3.66-13.29A6,6,0,0,0,60.55,57.83ZM57.6,72.45V57.67c-1.47.38-2.69.64-3.72,1.78C54.23,63.83,52.5,68.76,57.6,72.45Z"/><path class="cls-3" d="M132.86,74.57l-1.5-4.51H123.9l-1.41,4.51h-5.06l8.08-22.95H130l8,22.95Zm-5.17-16.83-2.45,7.88h4.84Z"/><path class="cls-3" d="M159.73,74.57h-4.6L151.32,59h-.09l-3.81,15.53H142.8l-5.48-22.95h5l3,15.27h.08l3.43-15.27h4.85l3.46,15.27h.08l3.1-15.27h4.85Z"/><path class="cls-3" d="M177.39,57.58a4.49,4.49,0,0,0-1.56-1.44A3.85,3.85,0,0,0,174,55.6a5.09,5.09,0,0,0-.94.1,2.28,2.28,0,0,0-1.49,1.09,2.09,2.09,0,0,0-.26,1.12,2.15,2.15,0,0,0,.2,1,2,2,0,0,0,.6.68,5.16,5.16,0,0,0,.94.53c.36.17.77.33,1.23.51.65.26,1.33.54,2,.86a7.4,7.4,0,0,1,1.93,1.24,6,6,0,0,1,2,4.8,8.67,8.67,0,0,1-.61,3.42A6.78,6.78,0,0,1,178,73.3a6.62,6.62,0,0,1-2.37,1.4,8.57,8.57,0,0,1-2.75.45,9.6,9.6,0,0,1-4-.86,8.59,8.59,0,0,1-3.22-2.44l3.05-3.7a5.87,5.87,0,0,0,1.87,1.73,4.39,4.39,0,0,0,2.3.7,3.71,3.71,0,0,0,1-.13,2.23,2.23,0,0,0,.86-.42,2,2,0,0,0,.59-.78,2.91,2.91,0,0,0,.22-1.17,2.14,2.14,0,0,0-.28-1.1,3,3,0,0,0-.77-.82,5.7,5.7,0,0,0-1.26-.68c-.49-.21-1.06-.43-1.7-.67A16.4,16.4,0,0,1,169.7,64a6.31,6.31,0,0,1-1.58-1.25A5.84,5.84,0,0,1,167,60.87a7.31,7.31,0,0,1-.42-2.64,7.42,7.42,0,0,1,.65-3.27A6.48,6.48,0,0,1,169,52.72a6.82,6.82,0,0,1,2.39-1.28,9.26,9.26,0,0,1,2.7-.41,8.85,8.85,0,0,1,6.31,2.82Z"/><path class="cls-3" d="M200.29,57.58a4.44,4.44,0,0,0-1.57-1.44,3.79,3.79,0,0,0-1.86-.54,5.09,5.09,0,0,0-.94.1,2.16,2.16,0,0,0-.86.38,2.31,2.31,0,0,0-.64.71,2.18,2.18,0,0,0-.26,1.12,2,2,0,0,0,.21,1,1.9,1.9,0,0,0,.59.68,5.52,5.52,0,0,0,.94.53c.37.17.78.33,1.23.51.65.26,1.33.54,2,.86a7.4,7.4,0,0,1,1.93,1.24,6,6,0,0,1,2,4.8,8.67,8.67,0,0,1-.62,3.42,6.53,6.53,0,0,1-1.64,2.38,6.62,6.62,0,0,1-2.37,1.4,8.57,8.57,0,0,1-2.75.45,9.63,9.63,0,0,1-4-.86,8.48,8.48,0,0,1-3.21-2.44l3.05-3.7a5.84,5.84,0,0,0,1.86,1.73,4.39,4.39,0,0,0,2.3.7,3.83,3.83,0,0,0,1-.13,2.38,2.38,0,0,0,.86-.42,2,2,0,0,0,.58-.78,2.75,2.75,0,0,0,.22-1.17,2.14,2.14,0,0,0-.27-1.1,2.86,2.86,0,0,0-.78-.82,5.61,5.61,0,0,0-1.25-.68c-.5-.21-1.07-.43-1.7-.67A15.59,15.59,0,0,1,192.6,64,6.14,6.14,0,0,1,191,62.72a5.86,5.86,0,0,1-1.12-1.85,7.31,7.31,0,0,1-.42-2.64,7.57,7.57,0,0,1,.65-3.27,6.48,6.48,0,0,1,1.72-2.24,6.91,6.91,0,0,1,2.39-1.28,9.26,9.26,0,0,1,2.7-.41,8.48,8.48,0,0,1,3.33.72,8.38,8.38,0,0,1,3,2.1Z"/><path class="cls-3" d="M219.4,66.69v.65a6.13,6.13,0,0,1,0,.62h-9.83a3.3,3.3,0,0,0,.34,1.23,3.43,3.43,0,0,0,.74,1,3.63,3.63,0,0,0,1,.64,3.1,3.1,0,0,0,1.16.22,3.22,3.22,0,0,0,1.8-.47,3.85,3.85,0,0,0,1.2-1.21l3.1,2.33a6.85,6.85,0,0,1-2.52,2.55,7.23,7.23,0,0,1-3.63.89,7.41,7.41,0,0,1-2.89-.57,6.89,6.89,0,0,1-2.38-1.65,7.86,7.86,0,0,1-1.61-2.68,10.47,10.47,0,0,1-.58-3.63,10.63,10.63,0,0,1,.57-3.58,8.27,8.27,0,0,1,1.55-2.72,6.77,6.77,0,0,1,5.2-2.35,6.29,6.29,0,0,1,2.75.6,6.06,6.06,0,0,1,2.15,1.73,8.34,8.34,0,0,1,1.4,2.76A12.28,12.28,0,0,1,219.4,66.69Zm-4.11-2a3.59,3.59,0,0,0-.67-2.17,2.32,2.32,0,0,0-2-.91,2.92,2.92,0,0,0-1.2.24,3,3,0,0,0-.95.67,3.43,3.43,0,0,0-.66,1,3.39,3.39,0,0,0-.27,1.18Z"/><path class="cls-3" d="M231.54,63.64a2.87,2.87,0,0,0-1-.94,2.81,2.81,0,0,0-1.33-.35,2.43,2.43,0,0,0-1.28.34,3.14,3.14,0,0,0-1,.91,4.32,4.32,0,0,0-.64,1.31A5.14,5.14,0,0,0,226,66.5a5.75,5.75,0,0,0,.21,1.58,4.27,4.27,0,0,0,.64,1.32,3.28,3.28,0,0,0,1,.89,2.63,2.63,0,0,0,1.32.32,3.27,3.27,0,0,0,1.35-.3,2.78,2.78,0,0,0,1.08-.9l2.47,3.6a5.72,5.72,0,0,1-2.18,1.53,7.47,7.47,0,0,1-2.83.55,7.6,7.6,0,0,1-3-.59,6.73,6.73,0,0,1-2.42-1.7,8,8,0,0,1-1.62-2.71,11.16,11.16,0,0,1,0-7.16,8,8,0,0,1,1.62-2.71,7,7,0,0,1,2.42-1.71,7.37,7.37,0,0,1,3-.6,6.44,6.44,0,0,1,1.45.16,8,8,0,0,1,1.39.44,5.87,5.87,0,0,1,1.23.68,5.12,5.12,0,0,1,1,.89Z"/><path class="cls-3" d="M244.79,74.57V72.33h0a4.7,4.7,0,0,1-.64,1,4.4,4.4,0,0,1-.93.84,4.91,4.91,0,0,1-1.17.58,3.74,3.74,0,0,1-1.34.23,4.31,4.31,0,0,1-2.31-.58,4.77,4.77,0,0,1-1.52-1.51,6.39,6.39,0,0,1-.84-2.11,10.72,10.72,0,0,1-.26-2.41v-10h4.49v8.75a10.64,10.64,0,0,0,.08,1.29,4.11,4.11,0,0,0,.31,1.11,2,2,0,0,0,.62.76,1.69,1.69,0,0,0,1,.27,2,2,0,0,0,1.79-1,4.82,4.82,0,0,0,.61-2.43V58.43h4.46V74.57Z"/><path class="cls-3" d="M261.37,62.8a3.2,3.2,0,0,0-.58-.13l-.56,0a2.73,2.73,0,0,0-1.51.39,3.24,3.24,0,0,0-1,.93,3.58,3.58,0,0,0-.53,1.2,4.7,4.7,0,0,0-.17,1.13v8.28h-4.46V58.44h4.3v2.34h.05a5.27,5.27,0,0,1,1.47-2,3.39,3.39,0,0,1,2.21-.78,4.58,4.58,0,0,1,.53,0,2.61,2.61,0,0,1,.42.1Z"/><path class="cls-3" d="M268.2,53.27a3.31,3.31,0,0,1-.2,1.15,3.05,3.05,0,0,1-.55.93,2.47,2.47,0,0,1-.81.61,2.33,2.33,0,0,1-2.82-.63,3.06,3.06,0,0,1-.74-2.06,3.26,3.26,0,0,1,.2-1.12,2.57,2.57,0,0,1,.54-.92,3,3,0,0,1,.82-.63,2,2,0,0,1,1-.25,2.32,2.32,0,0,1,1,.23,2.37,2.37,0,0,1,.81.62,3,3,0,0,1,.55.92A3.35,3.35,0,0,1,268.2,53.27Zm-4.79,21.3V58.43h4.47V74.57Z"/><path class="cls-3" d="M276.26,62.38v6.18a3.15,3.15,0,0,0,.37,1.71,1.44,1.44,0,0,0,1.32.57,4.2,4.2,0,0,0,.69-.06,2.08,2.08,0,0,0,.61-.2l.06,3.89a6.7,6.7,0,0,1-1.17.34,6.85,6.85,0,0,1-1.42.15,5.67,5.67,0,0,1-2.28-.41A3.55,3.55,0,0,1,273,73.38a4.88,4.88,0,0,1-.8-1.82,10.59,10.59,0,0,1-.25-2.35V62.38h-2.17v-4h2.15V54.18h4.38v4.25h3.19v4Z"/><path class="cls-3" d="M289.19,77a15.94,15.94,0,0,1-.91,2.25,6.92,6.92,0,0,1-1.2,1.69,4.66,4.66,0,0,1-1.63,1,6.23,6.23,0,0,1-2.22.36,8.19,8.19,0,0,1-1.29-.1,6.26,6.26,0,0,1-1.16-.26l.49-4.47a6.17,6.17,0,0,0,.72.21,3.86,3.86,0,0,0,.72.08,1.83,1.83,0,0,0,1.5-.57,4.86,4.86,0,0,0,.79-1.6l.43-1.33-5.66-15.88h5l3,10.37h.08l2.69-10.37h4.74Z"/><path class="cls-3" d="M316.19,74.57V65h-7.51v9.6H304V51.62h4.65v8.69h7.51V51.62h4.66V74.57Z"/><path class="cls-3" d="M333.51,74.57V72.33h-.06a4.7,4.7,0,0,1-.64,1,4.34,4.34,0,0,1-.92.84,5.32,5.32,0,0,1-1.17.58,3.83,3.83,0,0,1-1.35.23,4.25,4.25,0,0,1-2.3-.58,4.7,4.7,0,0,1-1.53-1.51,6.39,6.39,0,0,1-.84-2.11,11.33,11.33,0,0,1-.26-2.41v-10h4.49v8.75a10.64,10.64,0,0,0,.08,1.29,3.78,3.78,0,0,0,.32,1.11,1.94,1.94,0,0,0,.61.76,1.7,1.7,0,0,0,1,.27,2,2,0,0,0,1.78-1,4.72,4.72,0,0,0,.61-2.43V58.43h4.47V74.57Z"/><path class="cls-3" d="M356.4,66.43a11.9,11.9,0,0,1-.44,3.24,9,9,0,0,1-1.26,2.74,6.67,6.67,0,0,1-2,1.9,5.47,5.47,0,0,1-5.3,0,4.6,4.6,0,0,1-1.86-1.9h-.05v2.11h-4.12V50.06h4.47V60.14h.05a6,6,0,0,1,1.61-1.49A4.53,4.53,0,0,1,350,58a5.29,5.29,0,0,1,2.66.68,6.43,6.43,0,0,1,2,1.85A9.05,9.05,0,0,1,356,63.21,11.39,11.39,0,0,1,356.4,66.43Zm-4.3,0a5.58,5.58,0,0,0-.21-1.52,3.86,3.86,0,0,0-.61-1.31,3.32,3.32,0,0,0-1-.93,2.64,2.64,0,0,0-1.39-.36,2.61,2.61,0,0,0-1.36.36,3.38,3.38,0,0,0-1,.94,4.45,4.45,0,0,0-.65,1.33,5.17,5.17,0,0,0,0,3,4.45,4.45,0,0,0,.65,1.33,3.38,3.38,0,0,0,1,.94,2.6,2.6,0,0,0,1.36.35,2.64,2.64,0,0,0,1.39-.35,3.24,3.24,0,0,0,1-.94,4.16,4.16,0,0,0,.61-1.35A5.78,5.78,0,0,0,352.1,66.43Z"/></svg>