<svg viewBox="0 0 340 99" xmlns="http://www.w3.org/2000/svg" fill-rule="evenodd" clip-rule="evenodd" stroke-linejoin="round" stroke-miterlimit="2"><path d="M33.284 32.16a28.89 28.89 0 017.55-2.49c.66-1.95.23-3.95.31-5.9.08-1.95 0-3.78 0-5.55-6.31-3.28-8.29-6.65-7-11.72a8.81 8.81 0 018.35-6.5 8.553 8.553 0 018.31 6.49c1.16 5.32-.74 8.67-6.71 11.6v11.58c5.5.81 10.48 2.84 14 7.73l8-4.62c-.35-7.31 1.23-10.21 7.11-11.69 3.59-.9 7.57 1.26 9.2 4.63a9.088 9.088 0 01-1.92 10.2c-3.29 3-7.45 2.85-12.57-.52-3 1-4.63 2-7.78 5 3.16 5.77 3.49 11.87 1.1 18.3l6.48 4.57c7.43-3 10.76-2.8 13.61.81a9.57 9.57 0 01.19 11.19 8.687 8.687 0 01-9.61 3.07c-4.55-1.56-6-4.72-5.57-12.74l-6.42-4.13c-4.24 5.23-9.25 8.92-15.85 10.27v9c6.9 3.38 7.74 7 6.49 11.73-1 3.81-4.65 6-8.79 5.74a8.57 8.57 0 01-7.75-6.79c-.84-4.69 1.26-7.86 7-10.47v-9.54a14.63 14.63 0 01-7.69-2.75v-2.51c4.85 2.36 9.62 3.26 15 1.08 6.86-2.78 12.24-10 11.78-17.08-.57-8.72-6.48-15.74-14.22-17.43-4.25-.93-8 .51-12 1.42l-.6-1.98zm35.45 37.7a5.165 5.165 0 00-.003.176c0 3.247 2.673 5.92 5.92 5.92 3.248 0 5.92-2.673 5.92-5.92 0-.099-.002-.197-.007-.296.002-.059.003-.117.003-.176 0-3.247-2.673-5.92-5.92-5.92-3.248 0-5.92 2.673-5.92 5.92 0 .099.002.197.007.296zm-20.43-61c0-3.6-2.56-6.21-5.94-6.13-3.38.08-5.77 2.84-5.72 6.4a6.263 6.263 0 00-.007.274c0 3.078 2.533 5.61 5.61 5.61.073 0 .145-.001.217-.004 3.51.03 5.87-2.45 5.84-6.12v-.03zm0 80.8c.028-3.222-2.598-5.897-5.82-5.93a6.566 6.566 0 00-.243-.005c-3.242 0-5.91 2.668-5.91 5.91s2.668 5.91 5.91 5.91c.081 0 .162-.002.243-.005l.112.001c3.132 0 5.71-2.577 5.71-5.71 0-.047 0-.094-.002-.141v-.03zm32.26-60.3c-.176-3.117-2.789-5.586-5.91-5.586-3.217 0-5.875 2.62-5.92 5.836v.084c0 3.247 2.672 5.92 5.92 5.92 3.247 0 5.92-2.673 5.92-5.92 0-.112-.004-.223-.01-.334z" fill="#f69339" fill-rule="nonzero"/><path d="M33.284 32.16c.22.66.44 1.32.67 2-.167.242-.366.46-.59.65-10.32 6.09-12.15 23.47 0 31.36v2.51c-3.9-1.66-6.45-4.74-8.67-8.57l-7.46 4.81c.61 7.91-1.83 11-6.88 12.27a8.285 8.285 0 01-9.42-4.69 9.242 9.242 0 012.14-10.93c3.48-2.94 7.22-2.71 12.51.93l7.82-4.47c-1.54-5.76-1.6-11.43 1-16.94-2.64-1.55-4.35-4-7.19-5-6.35 3.15-10.31 3-13.32-.58a8.612 8.612 0 01-2.048-5.574c0-4.724 3.886-8.61 8.61-8.61 1.066 0 2.124.198 3.118.584 4.25 1.64 5.92 5.18 5.2 11.14a7.056 7.056 0 003.38 2.69 33.933 33.933 0 013.8 2.4 20.053 20.053 0 017.33-5.98zM8.674 62.27c-3.228-.001-5.909 2.603-6 5.83-.1 3.73 2.4 6.53 5.85 6.54 3.45.01 5.84-2.52 6-6.11.047-3.299-2.555-6.084-5.85-6.26zm1.91-26.46h.04c3.22 0 5.87-2.65 5.87-5.87v-.02c-.148-3.221-2.778-5.819-6-5.93-3-.07-6 3-5.92 6 .065 3.236 2.773 5.85 6.01 5.8v.02z" fill="#f37c42" fill-rule="nonzero"/><path d="M30.944 40.72a50.503 50.503 0 0111.46-5.59 43.55 43.55 0 0111.56 5.45c0 4.8.43 9.81-.11 14.7-.73 6.64-5.3 10.36-11.49 10.25-6.38-.11-10.75-4.19-11.31-11.17-.41-4.54-.11-9.09-.11-13.64zm2.46 1.69c.23 4.38-.41 8.73.41 13.07.86 4.56 3.67 7.15 8 7.33 4.9.21 7.78-1.73 9-6.47 1.22-4.74.34-9.45.48-14.14l-9.19-4.17c-2.31 2.1-5.61 2.49-8.7 4.38z" fill="#f69339" fill-rule="nonzero"/><path d="M34.574 43.91c5.2-3.89 10.22-4.1 15.54-.14 0 3.35.33 7-.08 10.64-.296 4.026-3.692 7.181-7.729 7.181a7.59 7.59 0 01-.69-.031c-3.62-.33-7-4.49-7-8.7-.06-3.07-.04-6.13-.04-8.95zm9.38.19v14.72c5.34-3.88 3.3-8.94 3.66-13.29a5.998 5.998 0 00-3.66-1.43zm-2.95 14.62V43.94c-1.47.38-2.69.64-3.72 1.78.35 4.38-1.38 9.31 3.72 13z" fill="#f69339" fill-rule="nonzero"/><path d="M116.264 60.84l-1.5-4.51h-7.46l-1.41 4.51h-5.06l8.08-22.95h4.49l8 22.95h-5.14zm-5.17-16.83l-2.45 7.88h4.84l-2.39-7.88zM143.134 60.84h-4.6l-3.81-15.57h-.09l-3.81 15.53h-4.62l-5.48-22.95h5l3 15.27h.08l3.43-15.27h4.85l3.46 15.27h.08l3.1-15.27h4.85l-5.44 22.99zM160.794 43.85a4.478 4.478 0 00-1.56-1.44 3.85 3.85 0 00-1.83-.54 5.12 5.12 0 00-.94.1 2.281 2.281 0 00-1.49 1.09c-.19.342-.28.73-.26 1.12-.014.345.054.688.2 1a2 2 0 00.6.68c.294.209.61.387.94.53.36.17.77.33 1.23.51.65.26 1.33.54 2 .86a7.39 7.39 0 011.93 1.24 6.005 6.005 0 012 4.8 8.68 8.68 0 01-.61 3.42 6.774 6.774 0 01-1.6 2.35 6.609 6.609 0 01-2.37 1.4 8.572 8.572 0 01-2.75.45 9.596 9.596 0 01-4-.86 8.59 8.59 0 01-3.22-2.44l3.05-3.7a5.87 5.87 0 001.87 1.73 4.391 4.391 0 002.3.7 3.71 3.71 0 001-.13c.314-.076.607-.219.86-.42.258-.207.461-.475.59-.78.153-.371.228-.769.22-1.17a2.141 2.141 0 00-.28-1.1 3.008 3.008 0 00-.77-.82 5.7 5.7 0 00-1.26-.68c-.49-.21-1.06-.43-1.7-.67a16.457 16.457 0 01-1.84-.81 6.29 6.29 0 01-1.58-1.25 5.847 5.847 0 01-1.12-1.88 7.324 7.324 0 01-.42-2.64 7.423 7.423 0 01.65-3.27 6.482 6.482 0 011.77-2.24 6.821 6.821 0 012.39-1.28 9.259 9.259 0 012.7-.41 8.851 8.851 0 016.31 2.82l-3.01 3.73zM183.694 43.85a4.444 4.444 0 00-1.57-1.44 3.794 3.794 0 00-1.86-.54 5.12 5.12 0 00-.94.1 2.163 2.163 0 00-.86.38c-.26.189-.479.431-.64.71-.185.343-.275.73-.26 1.12-.018.346.055.69.21 1 .14.271.342.504.59.68.295.207.61.384.94.53.37.17.78.33 1.23.51.65.26 1.33.54 2 .86a7.39 7.39 0 011.93 1.24 6.005 6.005 0 012 4.8 8.682 8.682 0 01-.62 3.42 6.525 6.525 0 01-1.64 2.38 6.609 6.609 0 01-2.37 1.4 8.572 8.572 0 01-2.75.45 9.631 9.631 0 01-4-.86 8.467 8.467 0 01-3.21-2.44l3.05-3.7a5.848 5.848 0 001.86 1.73 4.391 4.391 0 002.3.7c.338.001.674-.043 1-.13a2.37 2.37 0 00.86-.42c.255-.208.454-.476.58-.78.158-.369.233-.769.22-1.17a2.147 2.147 0 00-.27-1.1 2.862 2.862 0 00-.78-.82 5.609 5.609 0 00-1.25-.68c-.5-.21-1.07-.43-1.7-.67a15.56 15.56 0 01-1.74-.84 6.151 6.151 0 01-1.6-1.28 5.851 5.851 0 01-1.12-1.85 7.324 7.324 0 01-.42-2.64 7.57 7.57 0 01.65-3.27 6.484 6.484 0 011.72-2.24 6.921 6.921 0 012.39-1.28 9.259 9.259 0 012.7-.41 8.474 8.474 0 013.33.72 8.369 8.369 0 013 2.1l-2.96 3.73zM202.804 52.96v.65c.01.207.01.413 0 .62h-9.83c.032.428.148.846.34 1.23.184.376.434.715.74 1 .296.267.634.483 1 .64.37.147.763.222 1.16.22a3.223 3.223 0 001.8-.47 3.861 3.861 0 001.2-1.21l3.1 2.33a6.851 6.851 0 01-2.52 2.55 7.223 7.223 0 01-3.63.89 7.422 7.422 0 01-2.89-.57 6.891 6.891 0 01-2.38-1.65 7.855 7.855 0 01-1.61-2.68 10.472 10.472 0 01-.58-3.63 10.63 10.63 0 01.57-3.58 8.28 8.28 0 011.55-2.72 6.775 6.775 0 015.2-2.35c.95-.01 1.89.195 2.75.6.84.404 1.576.996 2.15 1.73a8.335 8.335 0 011.4 2.76 12.27 12.27 0 01.48 3.64zm-4.11-2a3.594 3.594 0 00-.67-2.17 2.322 2.322 0 00-2-.91 2.915 2.915 0 00-1.2.24c-.357.159-.68.387-.95.67a3.383 3.383 0 00-.93 2.18l5.75-.01zM214.944 49.91a2.868 2.868 0 00-1-.94 2.814 2.814 0 00-1.33-.35 2.43 2.43 0 00-1.28.34 3.144 3.144 0 00-1 .91c-.286.397-.502.84-.64 1.31a5.129 5.129 0 00-.29 1.59 5.736 5.736 0 00.21 1.58c.136.474.352.92.64 1.32a3.29 3.29 0 001 .89c.404.22.86.331 1.32.32a3.277 3.277 0 001.35-.3 2.782 2.782 0 001.08-.9l2.47 3.6a5.719 5.719 0 01-2.18 1.53 7.482 7.482 0 01-2.83.55 7.59 7.59 0 01-3-.59 6.73 6.73 0 01-2.42-1.7 8.003 8.003 0 01-1.62-2.71 11.165 11.165 0 010-7.16 8.003 8.003 0 011.62-2.71 7.006 7.006 0 012.42-1.71 7.365 7.365 0 013-.6c.488-.002.974.052 1.45.16.476.104.941.251 1.39.44a5.88 5.88 0 011.23.68c.371.252.707.551 1 .89l-2.59 3.56zM228.194 60.84V58.6c-.17.359-.385.695-.64 1a4.397 4.397 0 01-.93.84c-.362.245-.756.44-1.17.58a3.735 3.735 0 01-1.34.23 4.318 4.318 0 01-2.31-.58 4.775 4.775 0 01-1.52-1.51 6.392 6.392 0 01-.84-2.11 10.674 10.674 0 01-.26-2.41v-10h4.49v8.75c.001.431.027.862.08 1.29.051.383.155.756.31 1.11.14.301.353.562.62.76.297.192.647.287 1 .27a2.003 2.003 0 001.79-1c.414-.742.624-1.58.61-2.43V44.7h4.46v16.14h-4.35zM244.774 49.07a3.2 3.2 0 00-.58-.13h-.56a2.729 2.729 0 00-1.51.39 3.22 3.22 0 00-1 .93 3.579 3.579 0 00-.53 1.2c-.102.368-.16.748-.17 1.13v8.28h-4.46V44.71h4.3v2.34h.05a5.276 5.276 0 011.47-2 3.392 3.392 0 012.21-.78c.177-.01.353-.01.53 0 .143.022.283.055.42.1l-.17 4.7zM251.604 39.54c.002.392-.066.782-.2 1.15a3.07 3.07 0 01-.55.93 2.474 2.474 0 01-.81.61 2.336 2.336 0 01-2.82-.63 3.06 3.06 0 01-.74-2.06c.001-.382.068-.761.2-1.12.114-.341.298-.654.54-.92.235-.256.512-.469.82-.63a2.01 2.01 0 011-.25c.346.001.688.08 1 .23.312.145.588.357.81.62.237.271.423.583.55.92.133.369.201.758.2 1.15zm-4.79 21.3V44.7h4.47v16.14h-4.47zM259.664 48.65v6.18a3.151 3.151 0 00.37 1.71c.306.411.81.629 1.32.57.231-.001.462-.021.69-.06a2.09 2.09 0 00.61-.2l.06 3.89c-.379.149-.77.262-1.17.34-.467.099-.943.15-1.42.15a5.668 5.668 0 01-2.28-.41 3.547 3.547 0 01-1.44-1.17 4.875 4.875 0 01-.8-1.82 10.556 10.556 0 01-.25-2.35v-6.83h-2.17v-4h2.15v-4.2h4.38v4.25h3.19v4l-3.24-.05zM272.594 63.27c-.246.772-.55 1.524-.91 2.25a6.921 6.921 0 01-1.2 1.69 4.659 4.659 0 01-1.63 1 6.214 6.214 0 01-2.22.36 8.197 8.197 0 01-1.29-.1 6.317 6.317 0 01-1.16-.26l.49-4.47c.236.085.476.155.72.21.237.049.478.076.72.08a1.832 1.832 0 001.5-.57c.36-.48.628-1.022.79-1.6l.43-1.33-5.66-15.88h5l3 10.37h.08l2.69-10.37h4.74l-6.09 18.62zM299.594 60.84v-9.57h-7.51v9.6h-4.68V37.89h4.65v8.69h7.51v-8.69h4.66v22.95h-4.63zM316.914 60.84V58.6h-.06c-.17.359-.385.695-.64 1a4.346 4.346 0 01-.92.84 5.338 5.338 0 01-1.17.58c-.433.157-.89.235-1.35.23a4.246 4.246 0 01-2.3-.58 4.687 4.687 0 01-1.53-1.51 6.392 6.392 0 01-.84-2.11c-.173-.792-.26-1.6-.26-2.41v-10h4.49v8.75c.001.431.027.862.08 1.29.05.384.157.759.32 1.11.135.301.345.563.61.76a1.7 1.7 0 001 .27 2.003 2.003 0 001.78-1c.418-.74.63-1.58.61-2.43V44.7h4.47v16.14h-4.29zM339.804 52.7a11.909 11.909 0 01-.44 3.24 9.003 9.003 0 01-1.26 2.74 6.664 6.664 0 01-2 1.9 5.475 5.475 0 01-5.3 0 4.596 4.596 0 01-1.86-1.9h-.05v2.11h-4.12V36.33h4.47v10.08h.05a6 6 0 011.61-1.49 4.524 4.524 0 012.5-.65 5.291 5.291 0 012.66.68 6.442 6.442 0 012 1.85 9.069 9.069 0 011.34 2.68c.286 1.049.421 2.133.4 3.22zm-4.3 0c0-.514-.07-1.025-.21-1.52a3.857 3.857 0 00-.61-1.31 3.314 3.314 0 00-1-.93 2.637 2.637 0 00-1.39-.36 2.61 2.61 0 00-1.36.36 3.397 3.397 0 00-1 .94 4.457 4.457 0 00-.65 1.33 5.179 5.179 0 000 3c.141.477.361.926.65 1.33.266.378.606.698 1 .94.413.239.883.36 1.36.35.487.014.968-.107 1.39-.35a3.23 3.23 0 001-.94c.282-.41.49-.867.61-1.35a5.77 5.77 0 00.21-1.49z" fill="#201c1d" fill-rule="nonzero"/></svg>