<svg viewBox="0 0 108 65" xmlns="http://www.w3.org/2000/svg" fill-rule="evenodd" clip-rule="evenodd" stroke-linejoin="round" stroke-miterlimit="2"><path d="M30.301 23.539c0 1.334.143 2.415.394 3.208.286.793.643 1.659 1.144 2.596.18.288.25.577.25.829 0 .36-.214.721-.679 1.081l-2.253 1.514c-.322.217-.644.325-.93.325-.357 0-.715-.18-1.073-.505-.5-.541-.929-1.117-1.287-1.694a28.124 28.124 0 01-1.109-2.127c-2.789 3.316-6.294 4.975-10.514 4.975-3.004 0-5.4-.865-7.152-2.596-1.752-1.73-2.646-4.037-2.646-6.921 0-3.064 1.073-5.551 3.254-7.426 2.182-1.874 5.078-2.811 8.762-2.811 1.216 0 2.467.108 3.79.288 1.324.18 2.683.469 4.113.793v-2.632c0-2.739-.572-4.65-1.68-5.767-1.145-1.118-3.076-1.658-5.83-1.658-1.252 0-2.539.144-3.862.468a28.341 28.341 0 00-3.862 1.226 10.52 10.52 0 01-1.252.469c-.25.072-.429.108-.572.108-.5 0-.75-.361-.75-1.118V4.398c0-.577.07-1.009.25-1.262.178-.252.5-.504 1-.757C9.06 1.73 10.561 1.19 12.313.757c1.753-.469 3.612-.685 5.58-.685 4.255 0 7.366.973 9.37 2.92 1.966 1.947 2.967 4.902 2.967 8.868v11.679h.071zm-14.519 5.479c1.18 0 2.396-.216 3.684-.648 1.287-.433 2.431-1.226 3.397-2.307.572-.685 1.001-1.442 1.216-2.308.214-.865.357-1.91.357-3.136v-1.514a29.655 29.655 0 00-3.29-.612 26.58 26.58 0 00-3.36-.217c-2.397 0-4.15.469-5.33 1.442-1.18.973-1.752 2.343-1.752 4.146 0 1.694.43 2.956 1.323 3.821.86.901 2.11 1.333 3.755 1.333zM44.5 32.912c-.644 0-1.073-.109-1.359-.361-.286-.216-.537-.721-.75-1.406L33.984 3.28c-.215-.721-.322-1.189-.322-1.442 0-.576.286-.901.858-.901h3.505c.68 0 1.144.108 1.395.361.286.216.5.721.715 1.406l6.008 23.863 5.58-23.863c.177-.721.392-1.19.678-1.406.286-.217.787-.361 1.431-.361h2.86c.68 0 1.145.108 1.431.361.286.216.536.721.68 1.406l5.65 24.152L70.64 2.704c.215-.721.465-1.19.716-1.406.286-.217.751-.361 1.394-.361h3.326c.572 0 .894.289.894.901 0 .181-.035.361-.07.577a5.171 5.171 0 01-.252.901L68.03 31.181c-.215.721-.465 1.19-.75 1.406-.287.216-.752.361-1.36.361h-3.076c-.679 0-1.144-.109-1.43-.361-.286-.252-.536-.721-.679-1.442L55.191 7.894l-5.507 23.215c-.179.721-.393 1.19-.679 1.442-.286.252-.787.361-1.43.361h-3.076zm45.953.973c-1.859 0-3.719-.216-5.507-.649-1.788-.433-3.183-.901-4.112-1.442-.573-.324-.966-.685-1.109-1.009a2.566 2.566 0 01-.215-1.01v-1.838c0-.757.286-1.117.823-1.117.214 0 .43.036.644.108.214.072.536.216.894.36 1.216.541 2.54.973 3.933 1.262a21.35 21.35 0 004.256.432c2.253 0 4.005-.396 5.221-1.189 1.216-.793 1.86-1.947 1.86-3.425 0-1.009-.322-1.838-.966-2.523-.643-.685-1.859-1.298-3.612-1.875l-5.185-1.622c-2.61-.829-4.542-2.054-5.722-3.677-1.18-1.586-1.788-3.352-1.788-5.226 0-1.514.322-2.848.966-4.002a9.25 9.25 0 012.574-2.956c1.073-.829 2.29-1.442 3.72-1.874C88.557.18 90.06 0 91.633 0c.786 0 1.61.036 2.396.144.822.108 1.573.253 2.324.397.715.18 1.395.36 2.038.577.644.216 1.145.432 1.502.648.501.289.86.577 1.073.902.215.288.322.684.322 1.189v1.694c0 .757-.286 1.154-.822 1.154-.286 0-.75-.144-1.359-.433-2.039-.937-4.327-1.406-6.867-1.406-2.038 0-3.647.325-4.756 1.01-1.108.685-1.68 1.73-1.68 3.208 0 1.009.357 1.875 1.072 2.559.715.685 2.04 1.37 3.934 1.983l5.078 1.622c2.575.829 4.435 1.983 5.543 3.461 1.11 1.478 1.645 3.172 1.645 5.046 0 1.551-.322 2.956-.93 4.182-.643 1.226-1.502 2.307-2.61 3.172-1.109.901-2.432 1.55-3.97 2.019-1.609.505-3.29.757-5.114.757z" fill="#252f3e" fill-rule="nonzero"/><g fill="#f90"><path d="M97.211 51.404c-11.765 8.76-28.859 13.41-43.557 13.41-20.599 0-39.159-7.679-53.178-20.44-1.108-1.009-.107-2.379 1.216-1.586 15.163 8.868 33.866 14.24 53.213 14.24 13.053 0 27.394-2.74 40.59-8.364 1.967-.9 3.647 1.298 1.716 2.74z"/><path d="M102.111 45.78c-1.502-1.946-9.942-.937-13.769-.468-1.144.144-1.323-.866-.286-1.623 6.724-4.758 17.774-3.388 19.061-1.802 1.288 1.622-.357 12.761-6.65 18.096-.967.83-1.897.397-1.468-.685 1.431-3.569 4.614-11.607 3.112-13.518z"/></g></svg>