<?xml version="1.0" encoding="utf-8"?>
<!-- Generator: Adobe Illustrator 23.0.2, SVG Export Plug-In . SVG Version: 6.00 Build 0)  -->
<svg version="1.1" id="Layer_1" xmlns="http://www.w3.org/2000/svg" xmlns:xlink="http://www.w3.org/1999/xlink" x="0px" y="0px"
	 viewBox="0 0 376 128" style="enable-background:new 0 0 376 128;" xml:space="preserve">
<style type="text/css">
	.st0{fill:#0089D6;}
</style>
<g id="XMLID_19_" transform="translate(677.9313,-313.85407)">
	<g id="XMLID_20_" transform="matrix(0.03978217,0,0,0.03978217,-658.51488,317.36166)">
		<path id="XMLID_21_" class="st0" d="M2310.3,2076.7c262.5-46.4,479.4-84.8,481.9-85.3l4.5-1l-247.9-294.8
			c-136.3-162.2-247.9-295.5-247.9-296.2c0-1.5,255.9-706.3,257.4-708.8c0.5-0.8,174.7,299.9,422.2,728.9
			c231.8,401.7,422.9,732.9,424.6,736l3.2,5.6l-787.7-0.1L1833,2161L2310.3,2076.7L2310.3,2076.7z M5331.2,2005.4
			c-119.9-7.7-189.6-76-208.1-203.8c-4.9-34-4.9-34.9-5.4-255.6l-0.5-213.6h53.1h53.1l0.4,206.6c0.4,186.2,0.6,208.1,2.4,221.2
			c7.2,53.2,21.6,88.9,46.1,114.6c19.6,20.5,42.5,32.6,74.3,38.9c15,3,57.6,3,71.3,0c32.2-7.1,58-21.1,80.8-43.9
			c25.9-25.9,45.1-62.7,54.4-104.4l3.1-14l0.3-208.4l0.3-208.4h54.2h54.2v327.6v327.6h-53.6h-53.6v-52c0-35.3-0.4-51.8-1.2-51.6
			c-0.7,0.2-3.4,4.4-6.1,9.4c-18.5,33.7-49.3,64.5-83,83.1C5427.2,2001,5386.6,2008.9,5331.2,2005.4L5331.2,2005.4z M6548.3,2004.8
			c-42.3-3.2-86.9-17.7-123.3-40.3c-76.8-47.5-122.2-125.8-135.5-233.5c-4.6-37.3-5.2-87.4-1.3-119c8.6-70.8,36.4-140.3,76-189.9
			c10.2-12.7,33.2-35.8,45.9-45.9c34.3-27.4,74.5-46.6,117.2-55.9c24.8-5.4,68.6-8,95-5.5c66.3,6.1,127.1,37.4,168.4,86.5
			c42,49.9,65,119.7,68,205.6c0.5,13.5,0.6,37.1,0.2,52.5l-0.6,28l-232.3,0.3l-232.3,0.3v10.4c0,31.6,7.7,67.5,20.9,98.1
			c11.4,26.4,31.1,55.2,47.2,69.1c33,28.6,73.5,45.7,117.8,49.8c16.4,1.5,58.2-0.1,76.9-3c53.4-8.2,104.1-29.1,145-59.8
			c4.8-3.6,9.4-7,10.2-7.5c1.2-0.8,1.5,8.7,1.4,48.4l0,49.3l-11,6.8c-46.3,28.7-99.4,47.1-155.6,54
			C6629.9,2005.4,6568.4,2006.3,6548.3,2004.8L6548.3,2004.8z M6750.5,1589c0-52.9-22.3-111.6-53.8-141.8
			c-22.5-21.6-49.7-34.8-82-39.8c-15.3-2.4-47.5-1.5-63.6,1.8c-34.1,6.9-62.3,21.9-86.9,46.2c-25.9,25.6-45.3,56.6-57.5,92
			c-4.4,12.7-9.5,33.6-11.1,45.2l-0.8,5.5h177.8h177.8V1589z M3599.8,1988.4c0.3-0.8,79.1-208,175.3-460.4l174.8-459l56.2,0l56.2,0
			l4.7,11.9c14.2,36.5,349.9,908,349.9,908.4c0,0.3-26.9,0.5-59.7,0.5l-59.7,0l-48.4-128.8l-48.4-128.8l-194.8,0l-194.8,0l-1.7,4.4
			c-0.9,2.4-21.6,60.4-45.9,128.8l-44.2,124.4l-59.9,0C3611.8,1989.8,3599.4,1989.5,3599.8,1988.4L3599.8,1988.4z M4164.9,1633.9
			c0-0.2-32.6-88.5-72.3-196.1c-74.4-201.4-78.6-213.5-84.5-245.9c-2.8-15.2-4.2-15.6-5.8-1.7c-1.2,9.9-6.2,32-10.2,44.3
			c-1.9,6.1-35.5,98.1-74.5,204.5c-39,106.4-71,193.8-71,194.4c0,0.5,71.6,1,159.1,1S4164.9,1634.1,4164.9,1633.9L4164.9,1633.9z
			 M4452.9,1973.1v-16.8l194.1-266.8l194.1-266.8l-175.7-0.6l-175.7-0.6l-0.3-44.6l-0.3-44.6h254.1h254.1v15.1v15.1l-194.1,268.2
			c-106.7,147.5-194.1,268.5-194.1,268.8c0,0.3,86.3,0.6,191.8,0.6h191.8v44.9v44.9h-269.9h-269.9V1973.1z M5877,1989
			c-0.4-0.4-0.8-148.4-0.8-328.7v-327.9h53h53v67.6c0,37.2,0.5,67.6,1,67.6s3.1-6.1,5.7-13.5c11.9-34.1,32.6-65.9,59.2-91.3
			c24-22.8,51.4-36.4,83.8-41.7c9.1-1.5,16.8-1.7,35-1.3c22.8,0.6,34.8,2.3,48.7,6.8l4.4,1.4v55.1v55.1l-12.5-6.3
			c-22.1-11.1-44-15.5-70.2-14.1c-17.1,0.9-28.3,3.1-42,8.2c-28.1,10.5-50.9,29.2-66.8,54.6c-23.1,36.8-39.5,84.1-44.4,127.6
			c-0.9,7.8-1.4,71.3-1.6,196.6l-0.3,185.1H5930C5901.2,1989.8,5877.4,1989.5,5877,1989z M1364.9,1986.7
			c0-0.4,116.8-203.2,259.5-450.5l259.5-449.8l302.5-253.8c166.4-139.6,302.9-254,303.5-254.2c0.5-0.2-1.6,5.3-4.9,12.2
			s-151,323.9-328.4,704.5l-322.6,691.8l-234.6,0.3C1470.5,1987.4,1364.9,1987.2,1364.9,1986.7L1364.9,1986.7z"/>
	</g>
</g>
</svg>
