<svg viewBox="0 0 219 63" xmlns="http://www.w3.org/2000/svg" fill-rule="evenodd" clip-rule="evenodd" stroke-linejoin="round" stroke-miterlimit="2"><path d="M37.61 59.606a22109.93 22109.93 0 0019.171-3.394l.18-.04-9.863-11.727c-5.422-6.453-9.862-11.756-9.862-11.784 0-.06 10.18-28.098 10.24-28.197.02-.032 6.95 11.93 16.796 28.997 9.222 15.98 16.824 29.156 16.892 29.28l.127.223-31.336-.004H18.622l18.988-3.354zm120.178-2.837c-4.77-.306-7.543-3.023-8.279-8.107-.194-1.353-.194-1.389-.214-10.169l-.02-8.497h4.225l.016 8.219c.015 7.407.023 8.279.095 8.8.286 2.116.86 3.536 1.834 4.559.78.815 1.69 1.297 2.956 1.547.597.12 2.291.12 2.836 0 1.281-.282 2.308-.839 3.215-1.746 1.03-1.03 1.794-2.494 2.164-4.153l.123-.557.024-16.581h4.312v26.065h-4.264V54.08c0-1.404-.016-2.06-.048-2.053-.028.008-.135.175-.243.374a8.698 8.698 0 01-3.302 3.306c-1.61.887-3.226 1.202-5.43 1.062zm48.42-.023a11.158 11.158 0 01-4.906-1.604c-3.055-1.89-4.861-5.004-5.39-9.289-.184-1.484-.207-3.477-.052-4.734.342-2.816 1.448-5.581 3.023-7.555.406-.505 1.32-1.424 1.826-1.826a11.354 11.354 0 014.663-2.223c.986-.215 2.729-.319 3.779-.22 2.638.244 5.056 1.489 6.7 3.442 1.67 1.985 2.585 4.762 2.704 8.18.02.536.024 1.475.008 2.088l-.023 1.114-18.483.024v.413c0 1.257.306 2.686.831 3.903.454 1.05 1.237 2.196 1.878 2.749a8.244 8.244 0 004.686 1.981c.653.06 2.316-.004 3.06-.12 2.124-.326 4.14-1.157 5.768-2.378.19-.144.374-.279.406-.299.047-.031.06.346.055 1.926v1.961l-.437.27c-1.842 1.142-3.955 1.874-6.19 2.149-.66.071-3.107.107-3.907.048zm8.043-16.542c0-2.104-.887-4.44-2.14-5.641-.895-.86-1.977-1.384-3.262-1.583-.609-.096-1.89-.06-2.53.071a6.627 6.627 0 00-3.458 1.838 9.41 9.41 0 00-2.287 3.66 11.701 11.701 0 00-.442 1.798l-.031.22h14.146v-.363h.004zM88.909 56.094c.012-.033 3.147-8.276 6.974-18.317l6.954-18.26h4.472l.187.474c.564 1.452 13.92 36.122 13.92 36.138 0 .012-1.07.02-2.376.02h-2.375l-3.85-10.248h-15.5l-.067.175c-.036.095-.86 2.403-1.826 5.124l-1.759 4.949H91.28c-1.893 0-2.387-.012-2.37-.056zM111.39 41.99c0-.008-1.297-3.52-2.876-7.801-2.96-8.012-3.127-8.493-3.362-9.782-.111-.605-.167-.621-.23-.068a12.499 12.499 0 01-.406 1.762c-.076.243-1.412 3.903-2.964 8.136-1.551 4.233-2.824 7.71-2.824 7.733 0 .02 2.848.04 6.329.04 3.48 0 6.333-.012 6.333-.02zm11.457 14.163v-1.337l15.444-21.228-13.98-.047-.023-3.549h20.217v1.201l-7.722 10.67a3669.35 3669.35 0 00-7.722 10.693c0 .012 3.434.024 7.63.024h7.63v3.573h-21.474zm56.654-.036c-.016-.016-.032-5.904-.032-13.076V29.996h4.217v2.69c0 1.48.02 2.689.04 2.689s.123-.243.227-.538a9.327 9.327 0 012.355-3.632 6.13 6.13 0 013.334-1.659c.362-.06.668-.067 1.392-.051.907.024 1.385.091 1.938.27l.175.056v4.384l-.498-.25c-.879-.442-1.75-.617-2.792-.562-.68.036-1.126.124-1.671.327a5.27 5.27 0 00-2.658 2.172c-.919 1.464-1.571 3.345-1.766 5.076-.036.31-.056 2.836-.064 7.821l-.012 7.364h-2.076c-1.146-.004-2.093-.016-2.109-.036zM0 56.025c0-.015 4.647-8.083 10.324-17.921L20.647 20.21l12.034-10.097C39.301 4.559 44.731.008 44.755 0c.02-.008-.064.211-.195.486-.131.274-6.007 12.885-13.064 28.026L18.662 56.033l-9.333.012c-5.128.008-9.329 0-9.329-.02z" fill="#0089d6" fill-rule="nonzero"/></svg>