<svg height="170" viewBox="0 0 185 170" width="185" xmlns="http://www.w3.org/2000/svg" xmlns:xlink="http://www.w3.org/1999/xlink"><mask id="a" fill="#fff"><path d="m0 .18262976h56.4770136v144.56650524h-56.4770136z" fill="#fff" fill-rule="evenodd"/></mask><g fill="none" fill-rule="evenodd" transform="translate(27 14)"><path d="m0 67.9883927c.5516549-1.6669982.46431373-3.4235553.69722353-5.134455 2.11425882-15.5185121 8.4352-29.0905623 18.92065887-40.6933218 9.3334588-10.3281142 20.7284705-17.45719721 34.073098-21.4577422.2396863-.07199827.4816314-.13772491.7233255-.20269896 2.099451-.56394464 2.0389647-.56043253 2.0625568 1.55862457.0102902.92569204-.5069803 1.14093425-1.1650509 1.33159169-4.0094118 1.16150519-7.8940863 2.65615917-11.5940393 4.57954153-20.4079686 10.60858127-33.79174897 26.93312287-38.63014897 49.47259517-5.26456471 24.5250692 1.11887059 46.1852593 17.93455687 64.7808823 2.7537569 3.045 5.8011608 5.818815 9.0769569 8.24192 6.0192627 4.452604 12.5450039 8.074343 19.6555294 10.552137.3910274.13622.7612235.376549 1.1607843.436756 1.1602823.174101 1.4238117.840649 1.3369725 1.92263-.1081725 1.342379-.4176313 1.621843-1.7174588 1.175052-4.8198274-1.656713-9.5580863-3.511609-13.9735843-6.08699-21.1912784-12.361626-33.73929413-30.679541-37.74318432-54.8544029-.29941961-1.808737-.38901961-3.6520934-.57098039-5.480147-.01731765-.174853-.04191373-.3231142-.24721569-.3582353z" fill="#0589c4" mask="url(#a)" transform="translate(0 .068235)"/><path d="m107.741415 52.260333c2.596392-.0782699 5.170196.1929153 7.742745.5044897.568722.0689879.762227.2423356.754447.8544463-.02811 2.1709862.012298 4.3432267.051953 6.5149654.006525.3637544.070275.7074395-.4352.6790917-.366431-.0205709-.851576.2257786-.969286-.4470415-.408094-2.3342993-1.698636-3.9839879-3.978541-4.7019637-2.91062-.9166609-5.863153-1.0962802-8.646777.3682699-2.9974587 1.5769377-3.5654274 6.1479499-1.198431 8.8181575 1.09578 1.2365138 2.482196 2.0944723 3.866604 2.9559429 2.337631 1.4550173 4.732988 2.8154585 6.987796 4.405692 4.568094 3.221609 5.999937 7.6802336 4.921725 12.9591869-1.053114 5.1547751-4.799749 7.6461159-9.609788 8.6628719-5.016847 1.0609083-10.0469961.7099481-15.04-.394109-.7792942-.1723442-.9845961-.499974-.9833412-1.2633564.0037647-2.1288408-.0908549-4.2574308-.1377883-6.3862716-.0065254-.3078114-.1322666-.7262543.4156236-.7099481.3822431.0110381.7328627-.1259342.9489568.4866782 1.549553 4.3949049 4.7259608 6.3366004 9.5784161 5.9181575.74516-.0642215 1.498102-.1658218 2.220172-.3547232 4.997271-1.3072578 6.585224-7.3129672 2.928188-11.0036938-1.518682-1.5325346-3.42538-2.5174308-5.196298-3.689974-2.017882-1.3361073-4.1080467-2.5663495-5.9289094-4.1796627-5.1212549-4.537647-5.4472785-12.293391-.6600785-16.6318512 2.5697883-2.3290311 5.7652709-3.0909083 9.1095839-3.3520588 1.079718-.0845415 2.171734-.0132959 3.258228-.0132959" fill="#033d60"/><path d="m52.8048941 52.2528573c2.8398432-.0494204 5.6704.1575432 8.4936784.4859256.5160157.0599567.7162981.1841349.7082667.7420588-.0316235 2.2136332-.0198274 4.4282699-.0062745 6.6426557.0022588.4106661.0240941.7423097-.5516549.7096972-.4005647-.0225778-.6901961-.0077768-.7569569-.5549135-.3054431-2.4958564-1.9975529-3.7973442-4.2026666-4.4413148-3.6211451-1.057898-7.2791843-1.0180104-10.828549.3080622-3.379702 1.2626039-5.4113883 3.9160035-6.4198275 7.2387111-1.9345569 6.3742301-2.099702 12.840026-.0973804 19.2298097 1.6451765 5.2496021 5.6892235 8.2253633 11.1698824 8.5171194 1.9619137.1043598 3.9283451.1633131 5.8378039-.4638495 2.3439059-.7694031 3.8826667-2.2319464 4.1170823-4.7977941.0496942-.5423703.2005334-.8228374.8249726-.8117993.8375216.014801.5237961.5792474.5162667.9640744-.0384 2.0036591-.1207216 4.0065657-.1473255 6.009974-.0075294.5544118-.0602353.963071-.7060079 1.1030537-7.4405647 1.6128114-14.848 1.9607612-22.0172549-1.1035554-6.0054588-2.5666004-9.2318117-7.3558651-10.1348392-13.7338581-.7612235-5.3750346-.3134745-10.618616 2.4794353-15.4028634 3.968251-6.7974394 10.1704784-9.991955 17.8409412-10.6261418 1.2850196-.1063668 2.5866039-.0150519 3.8804078-.0150519" fill="#033d60"/><path d="m76.103429 10.3817993c3.085051.223019 6.7546353.3931055 10.4287373 1.1166004 3.4211137.6738235 6.7727059 1.4823615 10.0299294 2.6611764 4.5844083 1.6587197 8.9261173 3.8261938 12.9696623 6.5776817.886965.6035813.822714.7969983-.06927 1.3732353-1.336471.8629758-2.339639.6816003-3.675357-.1138928-8.4341961-5.0218166-17.5764079-7.8922145-27.4012863-8.2120674-20.7334902-.6745762-37.3910588 7.4037802-50.1413647 23.6866782-2.6538667 3.3891868-4.8090353 7.1175432-6.5784471 10.9876384-1.8974117 4.1495588-3.2795607 8.5459688-4.1399215 13.0673097-.1367843.7189792-2.2924549 2.3282785-2.9926902 2.1945674-.691451-.131955-.4028236-.7716609-.3340549-1.1216176.3927843-1.998391.8081568-3.9957786 1.3156392-5.9678287 6.0973176-23.688936 25.9674353-41.563071 50.1205333-45.4572492 3.2617412-.5258131 6.5530981-.7746712 10.4678902-.7922318" fill="#0589c4"/><path d="m76.4992753 94.0231176c-2.5057882-.0005017-5.0113255.0095329-7.5166118-.0120415-.3493647-.0030104-.8611137.2704326-.9748078-.4249654-.1074196-.6577681.2753255-.7051816.7639843-.8276038 2.0879059-.5230536 3.0569412-1.6308737 3.2655059-3.7414014.114949-1.1602508.1909961-2.3297837.1932549-3.4953027.0158117-8.4827509.0138039-16.9657526.0012549-25.4487544-.0015059-.9575519-.0662588-1.9186159-.1656471-2.8714013-.217851-2.0856921-.9680313-2.9436506-3.0305882-3.4220502-.5067294-.1176557-.8593569-.1906575-.818949-.8271021.0474353-.7488322.5719843-.453564.9178353-.4437803 5.0537411.1439966 10.1072313.1512717 15.1609725-.001756.3619137-.0110381.8801883-.275199.9195922.4538149.0298666.5514013-.2642824.6886245-.7388863.7904757-1.8933961.4058997-2.9708549 1.5992647-3.2077804 3.5171281-.1124392.9096366-.2213647 1.8275519-.2221176 2.741955-.0067765 9.2764879.0112941 18.5529758.0170666 27.8294636.0015059 2.4700173.6154039 4.5037803 3.4775843 4.9555883.5288157.083538.5461334.429481.4909177.8228374-.0820706.5850173-.5576784.395865-.8899765.3978719-2.5472.0140485-5.0949019.0077768-7.6426039.0070242" fill="#033d60"/><path d="m123.547307 90.3277751c.292392-.0745069.643262-.1143945.669866-.5438754.019828-.3243686-.218855-.4001298-.477113-.4269724-.292142-.0303546-.605616-.0664792-.626196.3587371-.014055.2905017-.002761.5912889.433443.6121107m-1.884863-2.2665658c-1.381647.8318686-1.704157 2.1331056-1.401977 3.5733218.287624 1.3712284 1.206714 2.2359602 2.599404 2.5889274 1.111342.2817214 2.025914.0107872 2.851389-.7964966-.895498.0208218-1.360565-.3665138-1.600251-1.1642647-.103906-.3451903-.180706-.966583-.746667-.8090398-.448.12468-.223122.6525-.224627.9936765-.002761.5453806-.113444.8752682-.76273.8469204-.61691-.0270934-.621678-.4023875-.617663-.8504325.012298-1.4206488.010291-2.8407958.014055-4.2611938.832.016808 1.679059-.0597059 2.492487.0709948 1.30836.2107267 1.745066 1.1858391 1.027513 2.2740917-.224627.3404239-.262525.5047405-.075294.8416523.321757.5792474.574243 1.1968771.863373 1.8145069 1.308862-1.427673 1.361819-3.3046453.162635-4.6425086-1.228298-1.3707267-3.038118-1.5603807-4.581647-.4801558m2.016878-1.4881314c2.317804-.0110381 4.199404 1.8704498 4.214965 4.2147837.016314 2.4238581-1.838933 4.3151297-4.242322 4.3251644-2.369756.0097837-4.304313-1.9138495-4.313349-4.2890398-.008784-2.3533651 1.916989-4.2393686 4.340706-4.2509083" fill="#0589c4"/></g></svg>