<svg viewBox="0 0 180 57" xmlns="http://www.w3.org/2000/svg" fill-rule="evenodd" clip-rule="evenodd" stroke-linejoin="round" stroke-miterlimit="2"><path d="M82.682 15.018c4.565 0 7.725 1.884 10.083 4.065l-2.91 3.717c-2.057-1.735-4.214-3.023-6.973-3.023-6.271 0-10.785 5.353-10.785 13.184 0 7.782 4.314 13.036 10.635 13.036 3.26 0 6.02-1.636 8.076-3.42l2.609 3.766c-3.11 2.727-7.124 4.412-11.237 4.412-9.18 0-16.204-6.543-16.204-17.844.1-11.35 7.826-17.893 16.706-17.893zM98.032 0h5.819v43.518c0 1.834.803 2.528 1.656 2.528.35 0 .652 0 1.254-.149l.803 4.362c-.803.347-1.756.545-3.361.545-4.415 0-6.171-2.726-6.171-7.732V0zm34.614 28.351c0-4.361-1.505-8.574-7.123-8.574-4.064 0-7.575 1.833-10.284 3.667l-2.358-4.014c3.21-2.033 8.027-4.412 13.545-4.412 8.428 0 11.989 5.552 11.989 14.027v20.917H133.6l-.502-4.065h-.151c-3.361 2.677-7.173 4.907-11.437 4.907-5.82 0-10.134-3.568-10.134-9.665.05-7.484 6.572-11.202 21.27-12.788zm-9.431 17.794c3.36 0 6.12-1.635 9.43-4.56v-9.467c-11.587 1.388-15.5 4.213-15.5 8.575.05 3.866 2.659 5.452 6.07 5.452zm22.274-41.04c0-2.23 1.756-3.717 4.063-3.717 2.258 0 4.064 1.487 4.064 3.717 0 2.181-1.756 3.718-4.064 3.718-2.257 0-4.063-1.537-4.063-3.718zm1.103 10.756h5.82v34.101h-5.82V15.861zm13.846 0h4.866l.502 6.196h.2c2.358-4.263 5.87-7.039 9.783-7.039 1.505 0 2.558.199 3.712.694l-1.154 5.056c-1.154-.347-1.906-.545-3.361-.545-2.91 0-6.371 2.081-8.73 7.88v21.908h-5.818v-34.15z" fill="#393a40" fill-rule="nonzero"/><g fill-rule="nonzero"><path d="M26.289 5.502C11.992 5.303.203 16.604.003 30.73-.198 44.856 11.24 56.504 25.587 56.702h21.52c3.162 0 4.817-1.586 4.817-4.51V31.275C51.974 17.25 40.587 5.7 26.289 5.502zm-.702 45.253C14.65 50.606 5.922 41.735 6.073 30.93c.15-10.806 9.13-19.43 20.066-19.28 10.936.147 19.665 9.02 19.514 19.825-.15 10.805-9.13 19.43-20.066 19.281z" fill="#56a3d9"/><path d="M18.915 27.905c.652-1.388 1.756-2.577 3.21-3.37 1.405-.744 2.96-1.04 4.415-.893l2.107-7.633c-3.411-.594-7.073-.148-10.334 1.686-3.411 1.883-5.82 4.807-7.073 8.128l7.675 2.082zm3.612 10.21a7.585 7.585 0 01-3.461-3.172c-.753-1.388-1.054-2.924-.903-4.36L10.437 28.5c-.652 3.37-.15 6.99 1.706 10.26 1.906 3.321 4.916 5.7 8.277 6.94l2.107-7.585z" fill="#56a3d9"/><path d="M32.81 34.497a7.573 7.573 0 01-3.21 3.42c-1.404.744-2.91 1.041-4.364.892l-2.157 7.633c3.41.595 7.073.1 10.334-1.685 3.41-1.883 5.819-4.808 7.073-8.178l-7.675-2.082z" fill="#f1626e"/></g></svg>