<svg height="56" viewBox="0 0 56 56" width="56" xmlns="http://www.w3.org/2000/svg"><g fill="none" fill-rule="evenodd"><circle cx="28" cy="28" fill="#e9f0ff" r="28"/><circle cx="28" cy="28" fill="#3b73eb" r="3.555556"/><circle cx="20" cy="28" fill="#fff" r="3.555556"/><circle cx="24.444444" cy="20.888889" fill="#99b9ff" r="3.555556"/><circle cx="32.444444" cy="20.888889" fill="#345394" r="3.555556"/><circle cx="32.444444" cy="35.111111" fill="#345394" r="3.555556"/><circle cx="24.444444" cy="35.111111" fill="#3b73eb" r="3.555556"/><circle cx="16.444444" cy="35.111111" fill="#3b73eb" r="2.666667"/><circle cx="39.555556" cy="35.111111" fill="#fff" r="2.666667"/><circle cx="39.555556" cy="20.888889" fill="#6390f0" r="2.666667"/><circle cx="16.444444" cy="20.888889" fill="#3b73eb" r="2.666667"/><circle cx="28" cy="14.666667" fill="#3b73eb" r="2.666667"/><circle cx="28" cy="41.333333" fill="#99b9ff" r="2.666667"/><g fill="#3b73eb"><circle cx="20.444444" cy="41.333333" r="2.222222"/><circle cx="35.555556" cy="41.333333" r="2.222222"/><circle cx="35.555556" cy="14.666667" r="2.222222"/><circle cx="20.444444" cy="14.666667" r="2.222222"/><circle cx="36" cy="28" r="3.555556"/><circle cx="42.222222" cy="28" r="1.777778"/><circle cx="13.777778" cy="28" r="1.777778"/></g></g></svg>