<?xml version="1.0" encoding="UTF-8"?>
<svg width="166px" height="29px" viewBox="0 0 166 29" version="1.1" xmlns="http://www.w3.org/2000/svg" xmlns:xlink="http://www.w3.org/1999/xlink">
    <!-- Generator: Sketch 54.1 (76490) - https://sketchapp.com -->
    <title>Artboard</title>
    <desc>Created with Sketch.</desc>
    <g id="Artboard" stroke="none" stroke-width="1" fill="none" fill-rule="evenodd">
        <g id="Group-56" transform="translate(-14.200000, -16.000000)">
            <rect id="Rectangle" fill="#E6ECFF" x="50.5533597" y="16" width="13.4624506" height="13"></rect>
            <rect id="Rectangle-Copy-80" fill="#E6ECFF" x="83.6916996" y="16" width="13.4624506" height="13"></rect>
            <rect id="Rectangle-Copy-83" fill="#E6ECFF" x="50.5533597" y="32" width="13.4624506" height="13"></rect>
            <rect id="Rectangle-Copy-85" fill="#E6ECFF" x="33.9841897" y="32" width="13.4624506" height="13"></rect>
            <rect id="Rectangle-Copy-93" fill="#CFD9F6" x="17.4150198" y="32" width="13.4624506" height="13"></rect>
            <rect id="Rectangle-Copy-94" fill="#CFD9F6" x="0.41502" y="32" width="13.862451" height="13.3862599"></rect>
            <rect id="Rectangle-Copy-82" fill="#CFD9F6" x="67.1225296" y="32" width="13.4624506" height="13"></rect>
            <rect id="Rectangle-Copy-81" fill="#E6ECFF" x="83.6916996" y="32" width="13.4624506" height="13"></rect>
            <rect id="Rectangle-Copy-86" fill="#E6ECFF" x="100.26087" y="32" width="13.4624506" height="13"></rect>
            <rect id="Rectangle-Copy-84" fill="#E6ECFF" x="133.399209" y="32" width="13.4624506" height="13"></rect>
            <rect id="Rectangle-Copy-87" fill="#E6ECFF" x="149.968379" y="32" width="13.4624506" height="13"></rect>
            <rect id="Rectangle-Copy-88" fill="#E6ECFF" x="166.537549" y="32" width="13.4624506" height="13"></rect>
            <rect id="Rectangle-Copy-89" fill="#CFD9F6" x="166.537549" y="16" width="13.4624506" height="13"></rect>
            <rect id="Rectangle-Copy-90" fill="#FFF3E2" x="149.968379" y="16" width="13.4624506" height="13" rx="2"></rect>
        </g>
    </g>
</svg>