<svg viewBox="0 0 242 60" xmlns="http://www.w3.org/2000/svg" fill-rule="evenodd" clip-rule="evenodd" stroke-linejoin="round" stroke-miterlimit="2"><path fill="#099cec" d="M6.777 20.8h8.928v8H6.777zM17.33 20.8h8.927v8H17.33zM27.88 20.8h8.928v8H27.88zM38.431 20.8h8.928v8h-8.928zM48.983 20.8h8.928v8h-8.928zM17.33 11.2h8.927v8H17.33zM27.88 11.2h8.928v8H27.88zM38.431 11.2h8.928v8h-8.928zM38.431 1.6h8.928v8h-8.928z"/><path d="M84.504 23.27c-1.833-1.217-6.648-1.735-10.147-.806-.19-3.437-1.986-6.333-5.276-8.859l-1.217-.805-.812 1.208c-1.595 2.385-2.267 5.565-2.03 8.456.188 1.781.817 3.782 2.03 5.235-.93.712-3.817 2.086-7.711 2.014H1.309c-1.033 6.04.734 28.993 27.596 28.993 19.94 0 36.326-8.839 43.828-27.383 2.469.04 8.985.436 12.175-5.638.077-.102.812-1.61.812-1.61l-1.216-.806z" fill="#099cec"/><path d="M22.75 47.801c-6.621 2.264-13.752 2.591-15.242 2.525 4.967 4.083 13.818 11.787 28.408 7.388-2.665-.713-8.95-3.1-13.166-9.913M28.186 39.746c1.558 0 2.822 1.255 2.822 2.8 0 1.547-1.264 2.8-2.822 2.8s-2.822-1.253-2.822-2.8c0-1.545 1.264-2.8 2.822-2.8" fill="#fff"/><path d="M28.61 41.76a.79.79 0 01.318-.623 1.62 1.62 0 00-.734-.183c-.89 0-1.613.717-1.613 1.6 0 .885.722 1.6 1.613 1.6.89 0 1.612-.715 1.612-1.6l-.01-.09a.792.792 0 01-.374.101.809.809 0 01-.812-.805" fill="#4d5c64"/><path d="M84.263 23.123c-1.254-.7-3.537-1.134-5.895-1.134-1.375 0-2.776.147-4.012.475a15.795 15.795 0 00-.014-.217c1.114-.29 2.392-.42 3.67-.42 2.536 0 5.061.513 6.251 1.296" fill="#f3f3f3"/><path d="M32.941 58.465a32.642 32.642 0 002.974-.75c-1.247-.335-3.29-1.036-5.542-2.388 18.551-.445 32.137-9.83 42.996-31.982l.745-1.036.228-.062.014.217c1.236-.328 2.637-.475 4.012-.475 2.358 0 4.641.433 5.895 1.134a.016.016 0 00.007.004l1.225.82-.617 1.287c-2.814 5.623-8.926 6.047-11.788 6.047-.233 0-.445-.004-.63-.006-7.015 17.122-21.586 25.951-39.519 27.19" fill="#f3f3f3"/><path d="M32.941 58.465a32.642 32.642 0 002.974-.75c-1.247-.335-3.29-1.036-5.542-2.388 18.551-.445 32.137-9.83 42.996-31.982l.745-1.036.228-.062.014.217c1.236-.328 2.637-.475 4.012-.475 2.358 0 4.641.433 5.895 1.134a.016.016 0 00.007.004l1.225.82-.617 1.287c-2.814 5.623-8.926 6.047-11.788 6.047-.233 0-.445-.004-.63-.006-7.015 17.122-21.586 25.951-39.519 27.19" fill="#0994e0"/><path d="M18.924 57.517C1.017 52.967-.109 35.597.254 30.363h.962c-.666 5.754.983 21.72 16.751 26.782.314.13.633.254.957.372" fill="#f3f3f3"/><path d="M17.967 57.145C2.2 52.083.55 36.117 1.217 30.363H3.5c.822 8.27 2.851 15.272 8.291 19.736-1.727.177-3.096.234-3.87.234-.166 0-.305-.002-.414-.007 2.46 2.022 5.871 4.931 10.46 6.82" fill="#f3f3f3"/><path d="M17.967 57.145C2.2 52.083.55 36.117 1.217 30.363H3.5c.822 8.27 2.851 15.272 8.291 19.736-1.727.177-3.096.234-3.87.234-.166 0-.305-.002-.414-.007 2.46 2.022 5.871 4.931 10.46 6.82" fill="#0994e0"/><path d="M28.47 58.617c-3.619 0-6.782-.397-9.546-1.1a23.734 23.734 0 01-.957-.372c-4.588-1.888-8-4.797-10.459-6.819.11.005.248.007.414.007.774 0 2.143-.057 3.87-.234 4.013 3.294 9.882 5.207 18.493 5.23.03 0 .06 0 .088-.002 2.252 1.352 4.295 2.053 5.542 2.387-1.019.308-2.01.556-2.974.751a65.212 65.212 0 01-4.472.152" fill="#f3f3f3"/><g><path d="M28.47 58.617c-3.619 0-6.782-.397-9.546-1.1a23.734 23.734 0 01-.957-.372c-4.588-1.888-8-4.797-10.459-6.819.11.005.248.007.414.007.774 0 2.143-.057 3.87-.234 4.013 3.294 9.882 5.207 18.493 5.23.03 0 .06 0 .088-.002 2.252 1.352 4.295 2.053 5.542 2.387-1.019.308-2.01.556-2.974.751a65.212 65.212 0 01-4.472.152" fill="#f2f2f2"/></g><g fill="#066da5"><path d="M84.3 24.427c-.102.202-.187.372-.253.5-.035.07-.064.124-.143.262-1.205 2.295-2.974 3.732-5.218 4.508-1.777.616-3.387.754-5.8.705l-.423-.009-.559-.008-.208.514c-7.1 17.55-22.605 26.877-43.075 26.877-8.966 0-15.536-2.57-20.018-7.123a23.676 23.676 0 0014.198-2.852 19.347 19.347 0 01-.79-1.41c-3.187 1.792-6.88 2.798-10.796 2.798-1.457 0-2.88-.143-4.258-.41a23.122 23.122 0 01-1.887-2.823c-1.624-2.876-2.659-6.103-3.143-9.406-.336-2.29-.38-4.513-.196-6.157h3.423v.007h54.38v-.016c3.215-.036 6.221-1.016 7.73-2.17l.666-.51-.537-.643c-1.005-1.204-1.653-2.968-1.847-4.804-.23-2.804.46-5.775 1.898-7.928l.361-.536.518.342c3.15 2.426 4.768 5.122 4.94 8.25l.054.99.965-.257c3.161-.839 7.79-.429 9.486.697l.628.415-.097.197zM6.776 28.783h8.928V20.8H6.777v7.983zM17.33 19.2h8.928v-8H17.33v8zm10.551 0h8.928v-8H27.88v8zm10.551-9.6h8.928v-8h-8.928v8zm0 9.6h8.928v-8h-8.928v8zm10.552 9.583h8.928V20.8h-8.928v7.983zm-31.654 0h8.928V20.8H17.33v7.983zm10.551 0h8.928V20.8H27.88v7.983zm10.551 0h8.928V20.8h-8.928v7.983zm36.361-7.43c-.449-3.236-2.289-6.045-5.52-8.527l-1.917-1.267-1.262 1.878c-1.65 2.47-2.424 5.8-2.163 8.968.191 1.818.761 3.572 1.676 4.96-1.38.76-3.648 1.38-6.072 1.412V19.2h-10.55V0H36.807v9.6H15.705v9.6H5.155v9.583H.338l-.114.67c-.317 1.851-.312 4.55.096 7.33.512 3.49 1.605 6.902 3.334 9.962 4.502 7.964 12.681 12.642 24.966 12.642 20.903 0 36.915-9.512 44.37-27.372 2.52.045 4.26-.114 6.23-.797 2.611-.905 4.705-2.599 6.108-5.256.08-.129.194-.355.437-.848.09-.177.183-.369.276-.559l.125-.254.306-.63-1.802-1.195c-1.95-1.294-6.395-1.782-9.879-1.123z"/><path d="M8.401 22.4h.812v4.8h-.812zM10.835 22.4h.812v4.8h-.812zM13.27 22.4h.812v4.8h-.812zM18.952 22.4h.812v4.8h-.812zM21.387 22.4h.812v4.8h-.812zM23.822 22.4h.812v4.8h-.812zM29.503 22.4h.812v4.8h-.812zM31.938 22.4h.812v4.8h-.812zM34.373 22.4h.812v4.8h-.812zM40.055 22.4h.812v4.8h-.812zM42.49 22.4h.812v4.8h-.812zM44.924 22.4h.812v4.8h-.812zM50.606 22.4h.812v4.8h-.812zM53.041 22.4h.812v4.8h-.812zM55.476 22.4h.812v4.8h-.812zM21.387 12.8h.812v4.8h-.812zM23.822 12.8h.812v4.8h-.812zM29.503 12.8h.812v4.8h-.812zM31.938 12.8h.812v4.8h-.812zM34.373 12.8h.812v4.8h-.812zM40.055 12.8h.812v4.8h-.812zM42.49 12.8h.812v4.8h-.812zM44.924 12.8h.812v4.8h-.812zM42.49 3.2h.812V8h-.812zM40.055 3.2h.812V8h-.812zM44.924 3.2h.812V8h-.812zM18.952 12.8h.812v4.8h-.812zM200.968 37.71a7.027 7.027 0 011.068-2.18 7.564 7.564 0 011.701-1.693 7.992 7.992 0 012.158-1.095 7.615 7.615 0 012.42-.39c.828 0 1.631.13 2.408.39.778.26 1.49.626 2.137 1.095a7.905 7.905 0 011.7 1.692 7.29 7.29 0 011.101 2.18h-14.693zm15.98-6.335c-2.413-2.372-5.29-3.558-8.634-3.558-3.37 0-6.249 1.186-8.632 3.558-2.384 2.372-3.576 5.236-3.576 8.591 0 3.355 1.192 6.22 3.576 8.591 2.383 2.372 5.261 3.558 8.632 3.558 3.067 0 5.726-.983 7.98-2.95.435-.448.653-.99.653-1.627 0-.65-.214-1.19-.644-1.617-.427-.426-.969-.64-1.623-.64a2.394 2.394 0 00-1.504.564 7.205 7.205 0 01-2.225 1.302c-.798.29-1.677.434-2.637.434a7.59 7.59 0 01-2.43-.39 7.827 7.827 0 01-2.136-1.096 7.646 7.646 0 01-1.69-1.692 7.433 7.433 0 01-1.09-2.18h17.265c.64 0 1.181-.214 1.625-.64.443-.427.664-.966.664-1.617 0-1.677-.298-3.236-.893-4.675-.596-1.439-1.49-2.745-2.682-3.916zM240.862 29.336c-.407-.39-.92-.698-1.537-.923a9.045 9.045 0 00-2.028-.466 17.75 17.75 0 00-2.06-.13 11.97 11.97 0 00-4.097.694 12.5 12.5 0 00-3.554 1.997v-.435a2.17 2.17 0 00-.665-1.594 2.19 2.19 0 00-1.602-.662c-.639 0-1.18.221-1.624.662a2.17 2.17 0 00-.666 1.594V49.86c0 .622.223 1.153.666 1.594.443.442.985.662 1.624.662.625 0 1.158-.22 1.602-.662.443-.44.665-.972.665-1.594v-9.893c0-1.055.2-2.046.6-2.972a7.66 7.66 0 011.635-2.419 7.67 7.67 0 012.43-1.627 7.51 7.51 0 012.986-.596c1.077 0 2.072.18 2.987.542.363.16.684.24.96.24.32 0 .616-.059.893-.175.276-.116.516-.278.72-.488.203-.21.366-.452.49-.726.124-.276.185-.572.185-.89 0-.622-.203-1.129-.61-1.519M193.642 30.073c0-.303-.06-.592-.185-.867a2.518 2.518 0 00-.49-.727 2.157 2.157 0 00-.719-.488 2.292 2.292 0 00-.895-.174c-.45 0-.857.116-1.22.348l-13.036 8.44V19.68c0-.636-.222-1.174-.666-1.616a2.192 2.192 0 00-1.602-.66c-.639 0-1.18.22-1.623.66-.444.442-.666.98-.666 1.616v30.156c0 .622.222 1.157.666 1.606.443.448.984.672 1.623.672.625 0 1.16-.224 1.602-.672.444-.449.666-.984.666-1.606v-7.83l2.66-1.737 10.071 11.26c.406.39.915.585 1.525.585.32 0 .618-.058.895-.173.275-.116.514-.278.718-.489.204-.208.367-.45.491-.726.124-.275.185-.564.185-.868 0-.593-.21-1.12-.632-1.584l-9.374-10.499 9.135-5.902c.581-.39.871-.99.871-1.8M114.3 42.906a7.75 7.75 0 01-4.066 4.068 7.395 7.395 0 01-2.986.607 7.445 7.445 0 01-3.008-.607 7.725 7.725 0 01-2.42-1.638 7.763 7.763 0 01-1.624-2.419 7.36 7.36 0 01-.6-2.95c0-1.042.2-2.025.6-2.95a7.751 7.751 0 011.623-2.42 7.709 7.709 0 012.421-1.638 7.445 7.445 0 013.008-.607c1.061 0 2.056.202 2.986.607a7.734 7.734 0 014.066 4.068c.4.918.6 1.898.6 2.94 0 1.041-.2 2.02-.6 2.94zm2.867-25.502c-.654 0-1.196.213-1.624.64-.43.426-.643.965-.643 1.616v10.825c-2.209-1.778-4.76-2.668-7.652-2.668-3.372 0-6.249 1.186-8.633 3.558-2.383 2.372-3.574 5.236-3.574 8.591 0 3.355 1.191 6.22 3.574 8.591 2.384 2.372 5.261 3.558 8.633 3.558 3.342 0 6.22-1.186 8.633-3.558 2.383-2.343 3.575-5.207 3.575-8.59V19.66c0-.65-.22-1.19-.665-1.616-.443-.427-.985-.64-1.624-.64zM141.311 42.906a7.758 7.758 0 01-4.066 4.068 7.403 7.403 0 01-2.987.607 7.455 7.455 0 01-3.008-.607 7.705 7.705 0 01-2.419-1.638 7.731 7.731 0 01-1.624-2.419 7.36 7.36 0 01-.6-2.95c0-1.042.2-2.025.6-2.95a7.72 7.72 0 011.624-2.42 7.688 7.688 0 012.42-1.638 7.455 7.455 0 013.007-.607c1.061 0 2.056.202 2.987.607a7.741 7.741 0 014.066 4.068c.4.918.6 1.898.6 2.94 0 1.041-.2 2.02-.6 2.94zm1.58-11.53c-2.413-2.373-5.29-3.559-8.633-3.559-3.37 0-6.249 1.186-8.63 3.558-2.385 2.372-3.578 5.236-3.578 8.591 0 3.355 1.193 6.22 3.577 8.591 2.382 2.372 5.26 3.558 8.631 3.558 3.343 0 6.22-1.186 8.633-3.558 2.384-2.343 3.575-5.207 3.575-8.59-.014-1.678-.315-3.233-.905-4.665-.588-1.432-1.478-2.74-2.67-3.927zM155.797 34.575a7.827 7.827 0 012.442-1.627 7.507 7.507 0 012.986-.596c.96 0 1.846.16 2.66.477a8.364 8.364 0 012.333 1.41c.435.347.93.52 1.482.52.654 0 1.195-.217 1.624-.65.43-.434.643-.976.643-1.628 0-.679-.262-1.25-.784-1.713-2.239-1.967-4.89-2.95-7.958-2.95-3.37 0-6.249 1.185-8.632 3.557s-3.575 5.236-3.575 8.591c0 3.355 1.192 6.22 3.575 8.591 2.383 2.372 5.261 3.558 8.632 3.558 3.053 0 5.704-.983 7.958-2.95.478-.478.72-1.034.72-1.67 0-.652-.216-1.19-.645-1.617-.429-.427-.97-.64-1.624-.64-.55.015-1.03.174-1.438.477a7.865 7.865 0 01-2.31 1.4 7.39 7.39 0 01-2.66.466 7.524 7.524 0 01-2.987-.596 7.83 7.83 0 01-2.442-1.628 7.557 7.557 0 01-1.645-2.418c-.4-.926-.6-1.917-.6-2.973 0-1.055.2-2.046.6-2.972a7.573 7.573 0 011.645-2.419"/></g></svg>