<svg viewBox="0 0 200 65" xmlns="http://www.w3.org/2000/svg" fill-rule="evenodd" clip-rule="evenodd" stroke-linejoin="round" stroke-miterlimit="2"><path d="M110.48 53.9h2.61v7.77l7.52-7.77h3.45l-8.25 8.57 8.77 9.88h-3.34l-8.15-9.22v9.22h-2.61V53.9" fill="url(#_Linear1)" fill-rule="nonzero" transform="translate(-88.24 -31.852)"/><path d="M118.66 46.57l12.86 7.5a.72.72 0 01.36.62v15a.719.719 0 00.35.62L143.71 77a.71.71 0 001.07-.612V47.17a.73.73 0 00-.36-.62l-25-14.6a.71.71 0 00-1.07.612V46a.72.72 0 00.36.62" fill="url(#_Linear2)" fill-rule="nonzero" transform="translate(-88.24 -31.852)"/><path d="M129.73 73.44l-12.87 7.5a.7.7 0 01-.71 0L101.5 72.4a.73.73 0 01-.36-.62V54.69a.72.72 0 01.36-.62l12.86-7.5a.711.711 0 00.35-.62V32.57v-.002a.713.713 0 00-1.06-.618L88.6 46.55a.73.73 0 00-.36.62V79.3a.73.73 0 00.36.62L116.15 96a.7.7 0 00.71 0l25.06-14.6a.721.721 0 000-1.24l-11.48-6.7a.75.75 0 00-.71 0" fill="url(#_Linear3)" fill-rule="nonzero" transform="translate(-88.24 -31.852)"/><g><path d="M69.76 33.358h5.62l-2.82-7.92-2.8 7.92zm7.81 6.51l-1.48-4.31h-7.07l-1.43 4.31h-3.11l6.47-17.16h3.36l6.38 17.16h-3.12m21.09 0v-8.54a2.429 2.429 0 00-.46-1.64 2.003 2.003 0 00-1.51-.49 6.095 6.095 0 00-1.68.26 6.324 6.324 0 00-1.56.66v9.75h-3v-8.54a2.429 2.429 0 00-.46-1.64 2.003 2.003 0 00-1.51-.49c-.538.01-1.073.09-1.59.24a6.235 6.235 0 00-1.62.68v9.75h-3v-12.6h2.49l.28 1.27c.744-.514 1.55-.93 2.4-1.24a7.171 7.171 0 012.29-.4 3.296 3.296 0 013.24 1.71 8.888 8.888 0 014.9-1.71 3.884 3.884 0 012.81 1 3.609 3.609 0 011 2.76v9.26h-3m10.19-1.77a4.131 4.131 0 001.52-.31 6.084 6.084 0 001.54-.9v-2.37a11.842 11.842 0 00-2.32-.27c-1.72 0-2.59.67-2.59 2a1.83 1.83 0 00.5 1.35 1.92 1.92 0 001.39.48l-.04.02zm3.44 1.71l-.23-1.22a7.165 7.165 0 01-2 1.17 5.907 5.907 0 01-2.15.42 4.088 4.088 0 01-2.9-1 3.8 3.8 0 01.28-5.62 5.744 5.744 0 013.66-1.09c1.011.005 2.018.13 3 .37v-1.49a2.25 2.25 0 00-.56-1.76 3 3 0 00-2-.49 15.493 15.493 0 00-4.57.81v-2.05a9.181 9.181 0 012.35-.74c.919-.18 1.853-.27 2.79-.27a5.84 5.84 0 013.75 1 3.74 3.74 0 011.21 3.09v8.89h-2.63m4.57 0v-2.17l7.25-8.22h-7v-2.24h10.23v2.15l-7.24 8.22h7.32v2.24h-10.53m18.09-1.92c2.14 0 3.21-1.463 3.21-4.39 0-2.927-1.07-4.377-3.21-4.35-2.14 0-3.22 1.45-3.22 4.35 0 2.9 1.08 4.39 3.22 4.39zm0 2.3a6.004 6.004 0 01-4.62-1.77 6.88 6.88 0 01-1.62-4.92 6.874 6.874 0 011.66-4.9 6.105 6.105 0 014.62-1.75 6.004 6.004 0 014.62 1.75 6.865 6.865 0 011.66 4.9 6.915 6.915 0 01-1.66 4.92 6.004 6.004 0 01-4.62 1.77m17.38-.37v-8.34a2.56 2.56 0 00-.51-1.77 2.083 2.083 0 00-1.63-.56 6.518 6.518 0 00-3.52 1.09v9.58h-3v-12.6h2.5l.31 1.38a8.351 8.351 0 015-1.76 3.893 3.893 0 012.84 1 3.723 3.723 0 011 2.76v9.26h-3m9.05 0v-17.2h10.44v1.31h-8.93v6.3h7.65v1.31h-7.65v6.9h8.93v1.32h-10.46m13.45 0v-17.14h1.51v7.95l8.11-7.95h1.95l-8.58 8.37 9.27 8.76h-2.07l-8.71-8.22v8.22h-1.5m17.18-8.63a7.457 7.457 0 01-2.89-1.77 3.692 3.692 0 01-.92-2.54 4.183 4.183 0 011.52-3.33 5.942 5.942 0 014-1.28c.793.006 1.584.093 2.36.26.801.17 1.585.414 2.34.73v1.27a14.42 14.42 0 00-4.62-.9 4.689 4.689 0 00-3 .84 2.833 2.833 0 00-1.08 2.36c-.02.487.091.97.32 1.4.26.416.622.76 1.05 1 .661.378 1.358.69 2.08.93l2.73 1a6.378 6.378 0 012.68 1.69 3.74 3.74 0 01.84 2.52 4.353 4.353 0 01-1.7 3.54 6.735 6.735 0 01-4.4 1.36 11.667 11.667 0 01-5.05-1v-1.3c1.578.59 3.245.908 4.93.94a5.49 5.49 0 003.38-1 3.142 3.142 0 001.26-2.63 2.371 2.371 0 00-.69-1.73 6.007 6.007 0 00-2.22-1.29l-3-1.11" fill="#232a3a" fill-rule="nonzero"/></g><defs><linearGradient id="_Linear1" x1="0" y1="0" x2="1" y2="0" gradientUnits="userSpaceOnUse" gradientTransform="scale(-19.7405) rotate(70.818 -.442 -6.16)"><stop offset="0" stop-color="#4f66b9"/><stop offset="1" stop-color="#484fab"/></linearGradient><linearGradient id="_Linear2" x1="0" y1="0" x2="1" y2="0" gradientUnits="userSpaceOnUse" gradientTransform="scale(-2019.242) rotate(83.435 0 -1.87)"><stop offset="0" stop-color="#4f66b9"/><stop offset="1" stop-color="#484fab"/></linearGradient><linearGradient id="_Linear3" x1="0" y1="0" x2="1" y2="0" gradientUnits="userSpaceOnUse" gradientTransform="scale(-53.1373) rotate(68.528 .116 -2.512)"><stop offset="0" stop-color="#4c68bb"/><stop offset="1" stop-color="#5180c9"/></linearGradient></defs></svg>