<svg viewBox="0 0 196 58" xmlns="http://www.w3.org/2000/svg" fill-rule="evenodd" clip-rule="evenodd" stroke-linejoin="round" stroke-miterlimit="2"><path d="M29.396.694L.043 20.79v3.745h61.914V20.79L32.604.694c-.936-.641-2.272-.641-3.208 0z" fill="url(#_Linear1)" fill-rule="nonzero" transform="translate(-.043 -.213)"/><path d="M56.855 53.73H5.145c-1.409 0-2.551-1.046-2.551-2.337V7.126c0-1.291 1.142-2.337 2.551-2.337h51.71c1.409 0 2.551 1.046 2.551 2.337v44.267c0 1.291-1.142 2.337-2.551 2.337z" fill="url(#_Linear2)" fill-rule="nonzero" transform="translate(-.043 -.213)"/><path d="M59.406 45.518v.989a2.974 2.974 0 01-2.98 2.966H5.574a2.974 2.974 0 01-2.98-2.966v-.989h56.812z" fill="url(#_Linear3)" fill-rule="nonzero" transform="translate(-.043 -.213)"/><g fill="#c2cece" fill-rule="nonzero"><path d="M14.543 4.106h32.83v1.863h-32.83zM14.543 11.556h32.83v1.863h-32.83zM14.543 19.177h32.83v1.863h-32.83zM14.543 26.797h32.83v1.863h-32.83z"/></g><path d="M51.497 21.422c-2.546 0-4.878-.905-6.691-2.41l-.709.124 15.309 15.241V17.819a10.452 10.452 0 01-7.909 3.603z" fill="url(#_Linear4)" fill-rule="nonzero" transform="translate(-.043 -.213)"/><path d="M61.957 20.723V55.46A2.547 2.547 0 0159.406 58H2.594a2.547 2.547 0 01-2.551-2.54V20.723L31.34 45.3l30.617-24.577z" fill="url(#_Linear5)" fill-rule="nonzero" transform="translate(-.043 -.213)"/><path d="M61.613 56.73L32.942 33.715a2.561 2.561 0 00-3.203 0L.63 57.081A2.552 2.552 0 002.594 58h56.812a2.55 2.55 0 002.207-1.27z" fill="url(#_Linear6)" fill-rule="nonzero" transform="translate(-.043 -.213)"/><g transform="translate(42.716 6.704)"><ellipse cx="8.7" cy="8.632" rx="8.369" ry="8.332" fill="url(#_Linear7)"/><path d="M6.813 5.295c0-.27.11-.483.329-.639l1.629-1.56a.578.578 0 01.423-.171c.188 0 .358.049.509.148a.454.454 0 01.228.398v10.323c0 .166-.084.299-.251.398-.167.098-.36.148-.58.148-.229 0-.425-.05-.587-.148-.162-.099-.243-.232-.243-.398v-8.67l-.548.686a.479.479 0 01-.345.156.491.491 0 01-.399-.211.728.728 0 01-.165-.46z" fill="#fff" fill-rule="nonzero"/></g><path d="M3.389 56.239V8.121a2.546 2.546 0 012.552-2.54H57.65c.501 0 .966.146 1.36.394a2.548 2.548 0 00-2.155-1.186H5.145a2.545 2.545 0 00-2.551 2.54v48.118c0 .904.476 1.696 1.191 2.146a2.518 2.518 0 01-.396-1.354z" fill="url(#_Linear8)" fill-rule="nonzero" transform="translate(-.043 -.213)"/><g><path d="M102.87 34.885H91.45c.013 1.326.28 2.495.801 3.507.52 1.013 1.212 1.775 2.074 2.289.863.513 1.815.77 2.855.77.7 0 1.337-.082 1.914-.246a6.228 6.228 0 001.68-.77 12.87 12.87 0 001.496-1.123 68.182 68.182 0 001.775-1.625c.3-.257.728-.385 1.284-.385.6 0 1.083.164 1.454.492.371.327.556.79.556 1.39 0 .527-.207 1.144-.62 1.85-.414.705-1.037 1.383-1.872 2.03-.834.65-1.882 1.188-3.143 1.616-1.262.428-2.713.642-4.353.642-3.749 0-6.665-1.07-8.747-3.208-2.08-2.14-3.122-5.04-3.122-8.705 0-1.725.256-3.325.77-4.801.513-1.476 1.262-2.741 2.245-3.796.984-1.055 2.196-1.864 3.636-2.428 1.44-.563 3.037-.844 4.791-.844 2.281 0 4.238.48 5.87 1.443 1.633.963 2.855 2.207 3.668 3.732.813 1.526 1.22 3.08 1.22 4.663 0 1.468-.42 2.42-1.263 2.855-.84.435-2.024.652-3.55.652zM91.45 31.57h10.585c-.142-1.996-.68-3.49-1.615-4.481-.933-.99-2.163-1.486-3.689-1.486-1.454 0-2.648.503-3.582 1.508-.934 1.005-1.5 2.49-1.7 4.459zm40.57 2.31v7.763c0 1.226-.279 2.146-.835 2.759-.556.613-1.29.92-2.203.92-.884 0-1.6-.307-2.149-.92-.549-.613-.823-1.533-.823-2.76V32.34c0-1.47-.05-2.61-.15-3.422-.1-.813-.37-1.48-.813-2-.442-.52-1.14-.78-2.096-.78-1.91 0-3.168.656-3.774 1.967-.606 1.312-.909 3.194-.909 5.646v7.892c0 1.212-.275 2.128-.824 2.748-.549.62-1.272.93-2.17.93-.884 0-1.608-.31-2.17-.93-.564-.62-.846-1.536-.846-2.748V24.94c0-1.098.253-1.932.76-2.502.505-.57 1.172-.856 2-.856.797 0 1.464.268 2 .802.533.535.801 1.273.801 2.214v.556c1.012-1.212 2.095-2.103 3.25-2.673 1.155-.571 2.438-.856 3.85-.856 1.468 0 2.73.292 3.785.877 1.055.585 1.925 1.469 2.61 2.652.983-1.198 2.038-2.085 3.165-2.663 1.126-.577 2.374-.866 3.742-.866 1.597 0 2.973.314 4.128.94a5.99 5.99 0 012.588 2.696c.5 1.055.748 2.716.748 4.983v11.399c0 1.226-.278 2.146-.834 2.759-.556.613-1.29.92-2.203.92-.883 0-1.607-.31-2.17-.931-.563-.62-.845-1.536-.845-2.748v-9.816c0-1.255-.053-2.26-.16-3.016-.107-.756-.396-1.39-.867-1.903-.47-.514-1.183-.77-2.138-.77-.77 0-1.5.228-2.192.684a4.642 4.642 0 00-1.615 1.839c-.428.984-.642 2.724-.642 5.219zm34.09 8.148c-1.412 1.098-2.777 1.92-4.096 2.47-1.319.549-2.798.824-4.438.824-1.497 0-2.812-.296-3.945-.888-1.134-.592-2.007-1.394-2.62-2.406a6.242 6.242 0 01-.92-3.293c0-1.597.506-2.96 1.52-4.085 1.011-1.127 2.401-1.882 4.17-2.267.37-.086 1.29-.278 2.758-.578 1.468-.3 2.727-.574 3.775-.823a73.28 73.28 0 003.411-.91c-.072-1.54-.382-2.67-.93-3.39-.549-.72-1.687-1.08-3.412-1.08-1.483 0-2.598.208-3.347.62-.748.415-1.39 1.035-1.925 1.862-.534.827-.912 1.372-1.133 1.636-.22.264-.695.396-1.422.396a2.493 2.493 0 01-1.7-.631c-.478-.421-.717-.96-.717-1.615 0-1.026.364-2.024 1.091-2.994.727-.97 1.86-1.768 3.4-2.395 1.54-.628 3.458-.941 5.753-.941 2.567 0 4.584.303 6.053.909 1.468.606 2.506 1.564 3.111 2.876.606 1.312.91 3.05.91 5.218a490.822 490.822 0 01-.043 6.673c0 1.098.181 2.242.545 3.433.364 1.19.545 1.957.545 2.299 0 .599-.28 1.144-.844 1.636s-1.202.738-1.915.738c-.598 0-1.19-.282-1.775-.845-.584-.563-1.204-1.38-1.86-2.45zm-.385-8.448c-.856.314-2.1.646-3.732.995-1.633.349-2.763.606-3.39.77-.627.164-1.226.485-1.796.962-.57.478-.856 1.144-.856 2 0 .884.335 1.636 1.005 2.256.67.62 1.547.93 2.631.93 1.155 0 2.22-.253 3.197-.76.977-.505 1.693-1.157 2.15-1.956.527-.884.791-2.338.791-4.363v-.834zm17.494-8.683V41.77c0 1.17-.278 2.054-.834 2.652-.556.599-1.262.899-2.117.899-.856 0-1.55-.307-2.085-.92-.535-.613-.802-1.49-.802-2.631V25.068c0-1.154.267-2.024.802-2.61.534-.583 1.23-.876 2.085-.876s1.561.293 2.117.877c.556.585.834 1.398.834 2.438zm-2.887-6.031c-.813 0-1.508-.25-2.085-.748-.578-.5-.866-1.205-.866-2.118 0-.826.295-1.507.887-2.042a2.983 2.983 0 012.064-.802c.756 0 1.426.242 2.01.727.585.485.877 1.19.877 2.117 0 .899-.285 1.6-.855 2.107a2.962 2.962 0 01-2.032.759zm8.918 22.905V16.45c0-1.17.26-2.054.781-2.652.52-.6 1.222-.9 2.106-.9.884 0 1.597.297 2.14.889.541.592.812 1.479.812 2.663v25.32c0 1.185-.275 2.072-.824 2.664-.549.592-1.258.888-2.128.888-.855 0-1.55-.307-2.085-.92-.535-.613-.802-1.49-.802-2.631z" fill="#393a40"/></g><defs><linearGradient id="_Linear1" x1="0" y1="0" x2="1" y2="0" gradientUnits="userSpaceOnUse" gradientTransform="scale(67.7627) rotate(21.255 -.008 .003)"><stop offset="0" stop-color="#8075e1"/><stop offset="1" stop-color="#c86dd7"/></linearGradient><linearGradient id="_Linear2" x1="0" y1="0" x2="1" y2="0" gradientUnits="userSpaceOnUse" gradientTransform="rotate(42.487 -6.761 14.965) scale(80.6819)"><stop offset="0" stop-color="#fff"/><stop offset="1" stop-color="#e8efee"/></linearGradient><linearGradient id="_Linear3" x1="0" y1="0" x2="1" y2="0" gradientUnits="userSpaceOnUse" gradientTransform="rotate(175.418 29.05 23.73) scale(60.21678)"><stop offset="0" stop-color="#c2cece" stop-opacity="0"/><stop offset=".18" stop-color="#afbcbc" stop-opacity=".18"/><stop offset="1" stop-color="#5b6a6a"/></linearGradient><linearGradient id="_Linear4" x1="0" y1="0" x2="1" y2="0" gradientUnits="userSpaceOnUse" gradientTransform="scale(-19.687) rotate(44.873 .118 -4.37)"><stop offset="0" stop-color="#c2cece" stop-opacity="0"/><stop offset=".18" stop-color="#afbcbc" stop-opacity=".18"/><stop offset="1" stop-color="#5b6a6a"/></linearGradient><linearGradient id="_Linear5" x1="0" y1="0" x2="1" y2="0" gradientUnits="userSpaceOnUse" gradientTransform="scale(73.5245) rotate(30.802 -.511 .142)"><stop offset="0" stop-color="#5c53b8"/><stop offset="1" stop-color="#bf75cb"/></linearGradient><linearGradient id="_Linear6" x1="0" y1="0" x2="1" y2="0" gradientUnits="userSpaceOnUse" gradientTransform="rotate(21.972 -85.074 18.198) scale(67.075)"><stop offset="0" stop-color="#463e8e"/><stop offset="1" stop-color="#9a50b6"/></linearGradient><linearGradient id="_Linear7" x1="0" y1="0" x2="1" y2="0" gradientUnits="userSpaceOnUse" gradientTransform="rotate(90 4.2 4.5) scale(16.6632)"><stop offset="0" stop-color="#f5515f"/><stop offset="1" stop-color="#9f041b"/></linearGradient><linearGradient id="_Linear8" x1="0" y1="0" x2="1" y2="0" gradientUnits="userSpaceOnUse" gradientTransform="rotate(-135.128 11.805 5.092) scale(61.4422)"><stop offset="0" stop-color="#c2cece" stop-opacity="0"/><stop offset=".18" stop-color="#afbcbc" stop-opacity=".18"/><stop offset="1" stop-color="#5b6a6a"/></linearGradient></defs></svg>