<svg height="51" viewBox="0 0 51 51" width="51" xmlns="http://www.w3.org/2000/svg"><g fill="none" fill-rule="evenodd"><circle cx="25.5" cy="25.5" fill="#fff" r="25.5"/><g fill="#3b56d7" fill-rule="nonzero" transform="translate(12.277778 12.277778)"><path d="m2.203704 11.9h1v3.525926h-1z"/><path d="m4.407407 11.9h1v3.525926h-1z"/><path d="m6.611111 11.9h1v3.525926h-1z"/><path d="m8.814815 11.9h1v3.525926h-1z"/><path d="m11.018519 11.9h1v3.525926h-1z"/><path d="m13.6631833 19.3925926c-.0000551 0-.0001652 0-.0002203 0h-13.22222226c-.24334398-.0000551-.44068565.1971764-.44074074.4405204v.0002203 6.1703704c-.00005509.243344.19717639.4406857.44052037.4407407h.00022037 13.22222226c.2433439.0000551.4406856-.1971763.4407407-.4405203 0-.0000551 0-.0001653 0-.0002204v-6.1703704c.0000551-.2433439-.1971764-.4406856-.4405204-.4407407zm-.4409611 6.1703704h-12.34074072v-5.2888889h12.34074072z"/><path d="m2.203704 21.155556h1v3.525926h-1z"/><path d="m4.407407 21.155556h1v3.525926h-1z"/><path d="m6.611111 21.155556h1v3.525926h-1z"/><path d="m8.814815 21.155556h1v3.525926h-1z"/><path d="m11.018519 21.155556h1v3.525926h-1z"/><path d="m26.0039241 11.4592593c-.0000551 0-.0001653 0-.0002204 0h-1.762963v-7.39370143c.971007-.72788333 1.1680732-2.10508796.4401899-3.07609491-.7278834-.97100694-2.105088-1.16807315-3.076095-.44018981-.5113694.38333426-.8305208.97029074-.8742092 1.60787731l-11.91581159-1.23264166v-.48376806c.0000551-.24334398-.19717639-.44068565-.44052037-.44074074-.00005509 0-.00016527 0-.00022037 0h-2.64444444c-.24334398-.00005509-.44068565.19717639-.44074074.44052037v.00022037 2.2037037c-.00005509.24334398.19717639.44068565.44052037.44074074h.00022037.88148148v1.32222223c-.00005509.24334398.19717639.44068564.44052037.44074074h.00022037.22037037c.60855278 0 1.10185185.49329907 1.10185185 1.10185185s-.49329907 1.10185185-1.10185185 1.10185185-1.10185185-.49329907-1.10185185-1.10185185h-.88148148c.00209352.60640417.28295555 1.17815509.76165509 1.55047083l-5.27324259 2.63656617h-.33656065c-.24334398-.0000551-.44068565.1971764-.44074074.4405204v.0002204 6.1703703c-.00005509.243344.19717639.4406857.44052037.4407408h.00022037 13.22222226c.2433439.0000551.4406856-.1971764.4407407-.4405204 0-.0000551 0-.0001653 0-.0002204v-6.1703703c.0000551-.243344-.1971764-.4406857-.4405204-.4407408-.0000551 0-.0001652 0-.0002203 0h-.7700292l-4.61703473-2.4861083c.94274445-.55076065 1.26046343-1.76142037.70970278-2.70416481-.3161213-.54106435-.87002222-.90026806-1.49300926-.96808704v-.89349167h.88148148c.24334398.0000551.44068565-.19717638.44074074-.44052037 0-.00005509 0-.00016527 0-.00022037v-.83333055l12.03789679 1.24531296c.1448384.40134954.4031676.7519588.7435847 1.00918611v7.39364634h-3.9666667c-.243344-.0000551-.4406856.1971763-.4407407.4405203v.0002204 6.1703704h-.8814815c-.243344-.0000551-.4406856.1971764-.4407407.4405203v.0002204 7.4925926c-.0000551.243344.1971764.4406857.4405203.4407407h.0002204 9.6962963c.243344.0000551.4406857-.1971763.4407407-.4405203 0-.0000551 0-.0001653 0-.0002204v-14.1037037c.0000551-.243344-.1971763-.4406856-.4405203-.4407407zm-12.7817019-.4407408v5.2888889h-12.34074072v-5.2888889zm-2.1892143-.8814815h-8.28432827l4.29567963-2.14772959zm-3.09967457-7.9333333h-1.76296296v-1.32222222h1.76296296zm14.98518517-1.21203703c.7302523 0 1.3222222.5919699 1.3222222 1.32222222 0 .73025231-.5919699 1.32222222-1.3222222 1.32222222s-1.3222222-.59196991-1.3222222-1.32222222c.0007713-.72992176.5923005-1.32145093 1.3222222-1.32222222zm.8814815 13.17164723 1.4681074 1.2234412-1.4681074.9786648zm1.4681074 5.1901079-1.4681074.9786648v-2.202051zm0 3.9666666-1.4681074.9786648v-2.2020509zm-2.3495889 2.2428746h-6.1703704v-6.6111111h6.1703704zm0-7.4925926h-4.8481481v-5.7296297h4.8481481zm.4407408-6.6111111h-.8814815v-6.98623662c.2908338.05938982.5906477.05938982.8814815 0zm2.2037037 14.1037037h-1.762963v-.2048894l1.762963-1.1752903zm0-3.1448505-1.4681074-1.2234412 1.4681074-.9786097zm0-3.9666667-1.4681074-1.2234412 1.4681074-.9786097zm0-3.9666666-1.762963-1.4691542v-.6748843h1.762963z"/><path d="m22.9185185 1.65277778c-.3650986 0-.6611111.2960125-.6611111.66111111.0003857.36493333.2961778.66072546.6611111.66111111.3650986 0 .6611111-.2960125.6611111-.66111111s-.2960125-.66111111-.6611111-.66111111zm0 .88148148c-.1216995 0-.2203704-.09867083-.2203704-.22037037.0001653-.12164445.098726-.22020509.2203704-.22037037.1216996 0 .2203704.09867083.2203704.22037037s-.0986708.22037037-.2203704.22037037z"/></g></g></svg>