<svg height="51" viewBox="0 0 51 51" width="51" xmlns="http://www.w3.org/2000/svg"><g fill="none" fill-rule="evenodd"><circle cx="25.5" cy="25.5" fill="#fff" r="25.5"/><g fill="#3b56d7" fill-rule="nonzero" transform="translate(12 13)"><path d="m23.9036327 24.3382404c-.6667662 0-1.3195265.2701443-1.7910588.7416766l-.5093059.509518c-.3100399.3098278-.7384934.4872359-1.1764964.4872359-.4382153 0-.8666688-.1774081-1.1764965-.4872359l-.5095181-.509518c-.4715323-.4715323-1.1242926-.7416766-1.7908466-.7416766-.6667662 0-1.3195265.2701443-1.7910589.7416766l-.5093058.509518c-.3100399.3098278-.7384935.4872359-1.1764965.4872359-.4382152 0-.8666687-.1774081-1.1764965-.4872359l-.509518-.509518c-.4715323-.4715323-1.1242926-.7416766-1.79084665-.7416766-.66676619 0-1.3195265.2701443-1.79105885.7416766l-.50930584.509518c-.31003991.3098278-.73849346.4872359-1.17649647.4872359-.43821522 0-.86666877-.1774081-1.17649648-.4872359l-.50951804-.509518c-.47153234-.4715323-1.1242926-.7416766-1.79084665-.7416766-.6667662 0-1.31952651.2701443-1.79105885.7416766l-1.12386821 1.1240804.61456237.6143502 1.12386821-1.1238682c.30982772-.3098277.73828126-.4870237 1.17649648-.4870237.43800302 0 .86645656.177196 1.17649648.4870237l.50930583.509518c.47153235.4715324 1.12429266.7418888 1.79105886.7418888.66655405 0 1.31931431-.2703564 1.79084665-.7418888l.50951803-.509518c.30982772-.3098277.73828127-.4870237 1.17649648-.4870237.43800305 0 .86645655.177196 1.17649645.4870237l.5093059.509518c.4715323.4715324 1.1242926.7418888 1.7910588.7418888.6665541 0 1.3193143-.2703564 1.7908467-.7418888l.509518-.509518c.3098277-.3098277.7382813-.4870237 1.1764965-.4870237.438003 0 .8664566.177196 1.1764965.4870237l.5093058.509518c.4715323.4715324 1.1242927.7418888 1.7910589.7418888.666554 0 1.3193143-.2703564 1.7908466-.7418888l.509518-.509518c.3098278-.3098277.7382813-.4870237 1.1764965-.4870237.438003 0 .8664566.177196 1.1764965.4870237l1.1238682 1.1238682.6145624-.6143502-1.1240804-1.1240804c-.4715324-.4715323-1.1242926-.7416766-1.7908467-.7416766z"/><path d="m20.8613792 5.21550395h4.3460765c.9587682 0 1.7384305-.77987452 1.7384305-1.73843059 0-.97319854-.7911217-1.76495691-1.7823582-1.73800613-.2011757-.9910243-1.0795161-1.73885502-2.1291106-1.73885502-1.0495944 0-1.9279348.74783072-2.1293228 1.73885502-.993783-.03013396-1.782146.76480759-1.782146 1.73800613 0 .95855607.7796624 1.73843059 1.7384306 1.73843059zm0-2.60764588c.0937972 0 .190353.01825016.2953974.05644809.136876.0494451.2907288.02652633.4080813-.0609045.1173525-.08785523.1820769-.22855098.1729518-.37455199-.0004245-.0114594-.0055175-.04392764-.0072152-.05559924 0-.71897007.5848529-1.30382294 1.3038229-1.30382294.7187579 0 1.303823.58485287 1.303823 1.2893926-.0019099.01167161-.007003.05857018-.0078518.07045398-.0091251.146001.0560236.28669675.1729518.37455204.1173525.08785523.2707809.1103496.4080813.06090445.1056809-.03862233.2020246-.05687249.296034-.05687249.4793841 0 .8692152.38983122.8692152.86921529 0 .47917194-.3898311.8692153-.8692152.8692153h-4.3460765c-.4793841 0-.8692153-.39004336-.8692153-.8692153 0-.47938407.3898312-.86921529.8692153-.86921529z"/><path d="m1.73864278 5.21550395h4.34607646c.95876826 0 1.73843058-.77987452 1.73843058-1.73843059-.00042439-.97319854-.7887874-1.76495691-1.78235822-1.73800613-.20117575-.9910243-1.07951612-1.73885502-2.12911059-1.73885502-1.04959441 0-1.92793478.74783072-2.12932278 1.73885502-.01506698-.00042445-.02949731-.00042445-.04371545-.00042445-.95876821 0-1.73843057.77966238-1.73843057 1.73843058 0 .95855607.77966236 1.73843059 1.73843057 1.73843059zm0-2.60764588c.09379719 0 .19035304.01825016.29539738.05644809.13687599.0494451.29072878.02610194.40808132-.0609045.11735254-.08785523.18207686-.22855098.17295179-.37455199-.00042445-.0114594-.00551751-.04392764-.0072152-.05559924 0-.71897007.58485287-1.30382294 1.30382294-1.30382294.71875787 0 1.30382294.58485287 1.30382294 1.2893926-.00190989.01167161-.00700294.05857018-.00785179.07045398-.00912507.146001.05602364.28669675.17295179.37455204.11735254.08785523.27078094.1103496.40808131.06090445.10568094-.03862233.20202465-.05687249.29603398-.05687249.47938413 0 .86921529.38983122.86921529.86921529 0 .47917194-.38983116.8692153-.86921529.8692153h-4.34607646c-.47938408 0-.86921529-.39004336-.86921529-.8692153 0-.47938407.38983121-.86921529.86921529-.86921529z"/><path d="m6.51932689 16.9499104c-.24043479 0-.43460765.1941728-.43460765.4346076v1.7384306c0 .2402226.19417286.4346077.43460765.4346077h1.73843058c.24022258 0 .43460764-.1943851.43460764-.4346077v-1.7384306c0-.2404348-.19438506-.4346076-.43460764-.4346076zm1.30382293 1.7384306h-.86921529v-.8692153h.86921529z"/><path d="m9.99618805 16.9499104c-.24043478 0-.43460764.1941728-.43460764.4346076v1.7384306c0 .2402226.19417286.4346077.43460764.4346077h1.73843055c.2402226 0 .4346077-.1943851.4346077-.4346077v-1.7384306c0-.2404348-.1943851-.4346076-.4346077-.4346076zm1.30382295 1.7384306h-.8692153v-.8692153h.8692153z"/><path d="m13.4730492 16.9499104c-.2404348 0-.4346076.1941728-.4346076.4346076v1.7384306c0 .2402226.1941728.4346077.4346076.4346077h1.7384306c.2402226 0 .4346076-.1943851.4346076-.4346077v-1.7384306c0-.2404348-.194385-.4346076-.4346076-.4346076zm1.303823 1.7384306h-.8692153v-.8692153h.8692153z"/><path d="m20.4267716 16.9499104c-.2404348 0-.4346077.1941728-.4346077.4346076v1.7384306c0 .2402226.1941729.4346077.4346077.4346077h1.7384305c.2402226 0 .4346077-.1943851.4346077-.4346077v-1.7384306c0-.2404348-.1943851-.4346076-.4346077-.4346076zm1.3038229 1.7384306h-.8692153v-.8692153h.8692153z"/><path d="m23.9036327 16.9499104c-.2404348 0-.4346076.1941728-.4346076.4346076v1.7384306c0 .2402226.1941728.4346077.4346076.4346077h1.7384306c.2402226 0 .4346076-.1943851.4346076-.4346077v-1.7384306c0-.2404348-.194385-.4346076-.4346076-.4346076zm1.303823 1.7384306h-.8692153v-.8692153h.8692153z"/><path d="m11.3995379 8.34370287 1.842626 1.15166778c.0708784.04392764.1508819.06620976.2308853.06620976.0797913 0 .1597947-.02228212.2302487-.06620976l1.8428383-1.15166778c1.1512434-.71960672 1.8383818-1.95955423 1.8383818-3.31685428v-3.28820581c0-.24001033-.194385-.43460765-.4346076-.43460765h-.3724299c-1.0449258 0-2.0270372-.40680802-2.7659551-1.14572593l-.0307705-.03077054c-.1699809-.16998081-.4445816-.16998081-.6145624 0l-.0309828.03077054c-.7395545.73891791-1.7214537 1.14572593-2.7665917 1.14572593h-.37242995c-.24043478 0-.43460764.19459732-.43460764.43460765v3.28820581c0 1.35730005.68713849 2.59724756 1.83795749 3.31685428zm-.9687422-6.17108903c1.1281124-.01421814 2.1929861-.41635755 3.0422535-1.14381605.8490553.72703405 1.9139289 1.12959791 3.0422535 1.14381605v2.85423475c0 1.05596077-.5341344 2.02003428-1.4298761 2.57984625l-1.6123774 1.00778891-1.6123773-1.00778891c-.8957417-.55981197-1.4298762-1.52388548-1.4298762-2.57984625z"/><path d="m13.4730492 6.95393453c.0303462 0 .0615412-.00318317.0920995-.00976167.1443033-.03119499.2629291-.13369281.315133-.27205422l1.3038229-3.47686117-.8140405-.30494686-1.0665713 2.84489749-.8265609-.82656089-.6145624.61435012 1.303823 1.30382294c.0817011.08191338.1924752.12711426.3068567.12711426z"/><path d="m26.0766709 6.95393453c0-.24001033-.194385-.43460764-.4346076-.43460764h-1.7384306c-.2404348 0-.4346076.19459731-.4346076.43460764v3.04225352h-.8692153v-3.04225352c0-.24001033-.1943851-.43460764-.4346077-.43460764h-1.7384305c-.2404348 0-.4346077.19459731-.4346077.43460764v3.04225352h-1.7384306c-.1035588 0-.2043589.03692475-.2826647.10461995l-5.9622737 5.1106718h-1.5779992v-3.9114688c0-.2400103-.1943851-.4346077-.43460765-.4346077h-8.69215292c-.24043478 0-.43460764.1945974-.43460764.4346077v3.9114688h-.43460765c-.17571051 0-.33465636.1054687-.40171496.2680222-.0672708.1625535-.02992172.3495112.09443378.4736544l7.26312565 7.2633379c-.26123146.1602191-.56278295.2525308-.87133742.2525308-.43821522 0-.86666877-.1774082-1.17649648-.4872359l-.50951804-.5095181c-.47153234-.4715323-1.1242926-.7416766-1.79084665-.7416766-.6667662 0-1.31952651.2701443-1.79105885.7416766l-1.12386821 1.1240804.61456237.6143502 1.12386821-1.1238682c.30982772-.3098277.73828126-.4870237 1.17649648-.4870237.43800302 0 .86645656.177196 1.17649648.4870237l.50930583.509518c.47153235.4715324 1.12429266.7418889 1.79105886.7418889.66655405 0 1.31931431-.2703565 1.79084665-.7418889l.50951803-.509518c.30982772-.3098277.73828127-.4870237 1.17649648-.4870237.43800305 0 .86645655.177196 1.17649645.4870237l.5093059.509518c.4715323.4715324 1.1242926.7418889 1.7910588.7418889.6665541 0 1.3193143-.2703565 1.7908467-.7418889l.509518-.509518c.3098277-.3098277.7382813-.4870237 1.1764965-.4870237.438003 0 .8664566.177196 1.1764965.4870237l.5093058.509518c.4715323.4715324 1.1242927.7418889 1.7910589.7418889.666554 0 1.3193143-.2703565 1.7908466-.7418889l.509518-.509518c.3098278-.3098277.7382813-.4870237 1.1764965-.4870237.438003 0 .8664566.177196 1.1764965.4870237l1.1238682 1.1238682.6145624-.6143502-1.1240804-1.1240804c-.4715324-.4715323-1.1242926-.7416766-1.7908467-.7416766-.6667662 0-1.3195265.2701443-1.7910588.7416766l-.5093059.5095181c-.3100399.3098277-.7384934.4872359-1.1764964.4872359-.4382153 0-.8666688-.1774082-1.1764965-.4872359l-.5095181-.5095181c-.4715323-.4715323-1.1242926-.7416766-1.7908466-.7416766-.6667662 0-1.3195265.2701443-1.7910589.7416766l-.5093058.5095181c-.3100399.3098277-.7384935.4872359-1.1764965.4872359-.4382152 0-.8666687-.1774082-1.1764965-.4872359l-.509518-.5095181c-.4715323-.4715323-1.1242926-.7416766-1.79084665-.7416766-.66676619 0-1.3195265.2701443-1.79105885.7416766l-.16467555.1648878-6.55646379-6.5564638h25.46189634v-.8692153h-13.6024977l5.0709884-4.3460765h1.2722035l-2.1505439 1.8430506c-.1381492.1182014-.1880187.3102521-.1245677.4806573.0630266.1704052.2255801.283938.4076569.283938h9.1267605v-.8692153h-.8692153v-1.7384306h.8692153v-.86921525h-.8692153zm-24.33802812 4.78068407h1.30382294v1.7384306h.86921529v-1.7384306h1.30382294v3.4768612h-3.47686117zm4.34607646 3.4768612v-3.4768612h1.30382294v1.7384306h.86921529v-1.7384306h1.30382294v3.4768612zm18.25352116-7.82293762h.8692153v2.60764587h-.8692153zm-3.4768612 0h.8692153v2.60764587h-.8692153zm.1606436 3.47686112h1.577787v1.7384306h-3.6060975zm4.1854329 1.7384306h-1.7384306v-1.7384306h1.7384306z"/></g></g></svg>