<svg height="51" viewBox="0 0 51 51" width="51" xmlns="http://www.w3.org/2000/svg"><g fill="none" fill-rule="evenodd"><circle cx="25.5" cy="25.5" fill="#fff" r="25.5"/><g fill="#3b56d7" fill-rule="nonzero" transform="translate(11.333333 11.333333)"><path d="m28.2433264 18.5476126c.0566078-.1476161.035343-.3138461-.0565489-.4424948-.0887699-.1323597-.2410395-.2076992-.4000831-.197921l-.4547471.0160222v-1.4297436c0-.2602426-.2109979-.4712405-.4712404-.4712405h-.942481v-9.4248094h.942481v-.94248094h-.942481v-3.2986833h-.9424809v1.41372141h-.942481v.94248095h.942481v11.30977128h-.942481c-.2602425 0-.4712404.2109979-.4712404.4712405v1.559806l-.942481.0325156v-7.7184477c0-.2602426-.2109979-.4712405-.4712405-.4712405h-5.6548856c-.2602426 0-.4712405.2109979-.4712405.4712405v4.2411642h-5.1836452c-.2602425 0-.4712404.2109979-.4712404.4712405v3.4287457l-.4712405.0160221v-7.4927235l7.0686071-7.06860703v1.69175329c-.7807866 0-1.4137214.63293486-1.4137214 1.41372141 0 .78078656.6329348 1.41372142 1.4137214 1.41372142h1.8849618v-.94248095h-1.8849618c-.2602426 0-.4712405-.21099792-.4712405-.47124047s.2109979-.47124047.4712405-.47124047h.4712404c.2602426 0 .4712405-.21099792.4712405-.47124047v-5.65488565c0-.26024255-.210939-.47124047-.4712405-.47124047-.0961919 0-.1901455.02945252-.2690783.08435204l-9.36260566 6.51301455h-5.91925156c-.26024255 0-.47124047.21099792-.47124047.47124047v11.74849623l-.95897435.0325156c-.26006584.009248-.46346501.2275502-.45421691.4876749.00217948.0615558.01643451.1221102.04188149.1781878l2.05319474 4.5177824h-2.09560638v.942481h28.2745458l-.0001175-.942481h-2.1413167zm-3.7388219-1.5828967h1.8849619v.989605l-1.8849619.0650311zm-7.5398475-6.1261262h4.7124047v3.7699238h-4.7124047zm0 4.7124048h4.7124047v2.567318l-.8100624.0278032-3.9023423.1343036zm-5.6548857 0h4.7124047v2.7619404l-4.7124047.1625779zm5.6548857-14.17774086v1.25915454l-7.0686071 7.06860707v-2.63234928c-.00076577-.25011088-.1978621-.45545391-.44767845-.46652806zm-14.60845464 6.1666528h6.59736659v11.01713096l-6.59736659.2271379zm.77471933 16.49341646-1.93915454-4.2656687 25.91822595-.8953569-1.9867499 5.1610256z"/><path d="m3.298683 8.482387h1v1.884962h-1z"/><path d="m5.183645 8.482387h1v1.884962h-1z"/><path d="m7.068607 8.482387h1v1.884962h-1z"/><path d="m2.827443 12.252311h5.654886v1h-5.654886z"/><path d="m2.827443 14.137273h5.654886v1h-5.654886z"/><path d="m22.148302 19.792159h1v1h-1z"/><path d="m24.033264 19.792159h1v1h-1z"/><path d="m20.26334 19.792159h1v1h-1z"/><path d="m21.205821 25.447044h6.126126v1h-6.126126z"/><path d="m16.493416 27.332006h2.827443v1h-2.827443z"/><path d="m12.252252 26.389525h1.884962v1h-1.884962z"/><path d="m0 25.918285h3.298683v1h-3.298683z"/><path d="m4.241164 25.918285h1v1h-1z"/></g></g></svg>