<?xml version="1.0" encoding="utf-8"?>
<!-- Generator: Adobe Illustrator 26.3.1, SVG Export Plug-In . SVG Version: 6.00 Build 0)  -->
<svg version="1.1" xmlns="http://www.w3.org/2000/svg" xmlns:xlink="http://www.w3.org/1999/xlink" x="0px" y="0px"
	 viewBox="0 0 627 1080" style="enable-background:new 0 0 627 1080;" xml:space="preserve">
<style type="text/css">
	.st0{fill:#F5F5F5;}
	.st1{fill:#EE0000;}
	.st2{fill:#FFFFFF;}
	.st3{fill:none;}
	.st4{fill:none;stroke:#EE0000;stroke-width:2;stroke-linecap:round;stroke-miterlimit:10;}
	.st5{fill:#DEDEDE;}
	.st6{fill:none;stroke:#EE0000;stroke-width:2;stroke-miterlimit:10;}
	.st7{fill:#AAAAAA;}
	.st8{fill:none;stroke:#EE0000;stroke-width:9;stroke-miterlimit:10;}
	.st9{fill:#F56D6D;}
	.st10{fill:#FFFFFF;stroke:#DEDEDE;stroke-width:2.4363;stroke-miterlimit:10;}
	.st11{fill:none;stroke:#EE0000;stroke-width:1.8269;stroke-linecap:round;stroke-miterlimit:10;}
	.st12{clip-path:url(#SVGID_00000006708115112344082280000015676319740623644035_);fill:#C9C9C9;}
	.st13{fill:#FAB6B6;}
	.st14{fill:none;stroke:#DEDEDE;stroke-width:2.4363;stroke-miterlimit:10;}
	.st15{clip-path:url(#SVGID_00000089550960143504709990000006872349005933077158_);}
	.st16{clip-path:url(#SVGID_00000049917554778345275620000007266228223859393450_);fill:#EE0000;}
	.st17{clip-path:url(#SVGID_00000049917554778345275620000007266228223859393450_);}
	.st18{fill:none;stroke:#DEDEDE;stroke-miterlimit:10;}
	.st19{fill:none;stroke:#000000;stroke-width:1.05;stroke-linecap:round;stroke-linejoin:round;stroke-miterlimit:10;}
	.st20{fill:#4D4D4D;}
	.st21{clip-path:url(#SVGID_00000109739521277973935990000005446138732564482186_);fill:#F56D6D;}
	.st22{fill:none;stroke:#F56D6D;stroke-linecap:round;stroke-linejoin:round;stroke-miterlimit:10;}
	.st23{clip-path:url(#SVGID_00000098912303722433873210000006740478188654000817_);fill:#F56D6D;}
	.st24{clip-path:url(#SVGID_00000050648154256307375430000000221889288154094482_);}
	.st25{fill:#8F0000;}
	.st26{fill:#5F0000;}
	.st27{fill:none;stroke:#5F0000;stroke-width:2.1583;stroke-linecap:round;stroke-linejoin:round;stroke-miterlimit:10;}
	.st28{fill:#8B8B8B;}
	.st29{fill:none;stroke:#000000;stroke-width:2;stroke-linecap:round;stroke-linejoin:round;stroke-miterlimit:10;}
	.st30{fill:none;stroke:#EE0000;stroke-width:4;stroke-linecap:round;stroke-linejoin:round;stroke-miterlimit:10;}
	.st31{fill:#C9C9C9;}
	.st32{fill:none;stroke:#5F0000;stroke-width:2.1583;stroke-linecap:round;stroke-miterlimit:10;}
	.st33{fill:none;stroke:#F3F3F3;stroke-width:1.5723;stroke-linecap:round;stroke-linejoin:round;stroke-miterlimit:10;}
	.st34{clip-path:url(#SVGID_00000073710463406131195850000015792772397650804912_);fill:#5F0000;}
	.st35{fill:none;stroke:#EE0000;stroke-width:3.0844;stroke-linecap:round;stroke-miterlimit:10;}
	.st36{fill:none;stroke:#EE0000;stroke-width:3.0844;stroke-miterlimit:10;}
	.st37{fill:none;stroke:#EE0000;stroke-width:13.8799;stroke-miterlimit:10;}
	.st38{fill:#FFFFFF;stroke:#DEDEDE;stroke-width:3.7572;stroke-miterlimit:10;}
	.st39{fill:none;stroke:#EE0000;stroke-width:2.8175;stroke-linecap:round;stroke-miterlimit:10;}
	.st40{clip-path:url(#SVGID_00000166640534823149311240000003323603682097089678_);fill:#C9C9C9;}
	.st41{fill:none;stroke:#DEDEDE;stroke-width:3.7572;stroke-miterlimit:10;}
	.st42{clip-path:url(#SVGID_00000163056657646014874400000012007078979449275058_);}
	.st43{clip-path:url(#SVGID_00000044146432087832930890000007102219783589702309_);fill:#EE0000;}
	.st44{clip-path:url(#SVGID_00000044146432087832930890000007102219783589702309_);}
	.st45{fill:none;stroke:#DEDEDE;stroke-width:1.5422;stroke-miterlimit:10;}
	.st46{fill:none;stroke:#000000;stroke-width:1.6194;stroke-linecap:round;stroke-linejoin:round;stroke-miterlimit:10;}
	.st47{clip-path:url(#SVGID_00000091736783555419402230000013485446496879320977_);fill:#F56D6D;}
	.st48{fill:none;stroke:#F56D6D;stroke-width:1.5422;stroke-linecap:round;stroke-linejoin:round;stroke-miterlimit:10;}
	.st49{clip-path:url(#SVGID_00000135665242292760675720000014394939948769625515_);fill:#F56D6D;}
	.st50{clip-path:url(#SVGID_00000183956834382274756430000002692159795553697973_);}
	.st51{fill:none;stroke:#5F0000;stroke-width:3.3285;stroke-linecap:round;stroke-linejoin:round;stroke-miterlimit:10;}
	.st52{fill:none;stroke:#000000;stroke-width:3.0844;stroke-linecap:round;stroke-linejoin:round;stroke-miterlimit:10;}
	.st53{fill:none;stroke:#EE0000;stroke-width:6.1689;stroke-linecap:round;stroke-linejoin:round;stroke-miterlimit:10;}
	.st54{fill:none;stroke:#5F0000;stroke-width:3.3285;stroke-linecap:round;stroke-miterlimit:10;}
	.st55{fill:none;stroke:#F3F3F3;stroke-width:2.4249;stroke-linecap:round;stroke-linejoin:round;stroke-miterlimit:10;}
	.st56{clip-path:url(#SVGID_00000078750127377637257870000011636197965346789269_);fill:#5F0000;}
	.st57{fill:none;stroke:#EE0000;stroke-width:1.071;stroke-linecap:round;stroke-miterlimit:10;}
	.st58{fill:none;stroke:#EE0000;stroke-width:1.071;stroke-miterlimit:10;}
	.st59{fill:none;stroke:#EE0000;stroke-width:4.8194;stroke-miterlimit:10;}
	.st60{fill:#FFFFFF;stroke:#DEDEDE;stroke-width:1.3046;stroke-miterlimit:10;}
	.st61{fill:none;stroke:#EE0000;stroke-width:0.9783;stroke-linecap:round;stroke-miterlimit:10;}
	.st62{clip-path:url(#SVGID_00000078764508886898884370000011178292867063652244_);fill:#C9C9C9;}
	.st63{fill:none;stroke:#DEDEDE;stroke-width:1.3046;stroke-miterlimit:10;}
	.st64{clip-path:url(#SVGID_00000025415398135347721680000001928825862555566994_);}
	.st65{clip-path:url(#SVGID_00000067234523078145239350000016432767384618365315_);fill:#EE0000;}
	.st66{clip-path:url(#SVGID_00000067234523078145239350000016432767384618365315_);}
	.st67{fill:none;stroke:#DEDEDE;stroke-width:0.5355;stroke-miterlimit:10;}
	.st68{fill:none;stroke:#000000;stroke-width:0.5623;stroke-linecap:round;stroke-linejoin:round;stroke-miterlimit:10;}
	.st69{clip-path:url(#SVGID_00000114777613506260806570000003873718088348024468_);fill:#F56D6D;}
	.st70{fill:none;stroke:#F56D6D;stroke-width:0.5355;stroke-linecap:round;stroke-linejoin:round;stroke-miterlimit:10;}
	.st71{clip-path:url(#SVGID_00000157283891915667419350000011643576673149798826_);fill:#F56D6D;}
	.st72{clip-path:url(#SVGID_00000137838271739867383990000000844840008565815454_);}
	.st73{fill:none;stroke:#5F0000;stroke-width:1.1557;stroke-linecap:round;stroke-linejoin:round;stroke-miterlimit:10;}
	.st74{fill:none;stroke:#000000;stroke-width:1.071;stroke-linecap:round;stroke-linejoin:round;stroke-miterlimit:10;}
	.st75{fill:none;stroke:#EE0000;stroke-width:2.1419;stroke-linecap:round;stroke-linejoin:round;stroke-miterlimit:10;}
	.st76{fill:none;stroke:#5F0000;stroke-width:1.1557;stroke-linecap:round;stroke-miterlimit:10;}
	.st77{fill:none;stroke:#F3F3F3;stroke-width:0.842;stroke-linecap:round;stroke-linejoin:round;stroke-miterlimit:10;}
	.st78{clip-path:url(#SVGID_00000075870309040546232460000017446829817087706284_);fill:#5F0000;}
	.st79{fill:none;stroke:#EE0000;stroke-width:2.1932;stroke-linecap:round;stroke-miterlimit:10;}
	.st80{fill:none;stroke:#EE0000;stroke-width:2.1932;stroke-miterlimit:10;}
	.st81{fill:none;stroke:#EE0000;stroke-width:9.8696;stroke-miterlimit:10;}
	.st82{fill:#FFFFFF;stroke:#DEDEDE;stroke-width:2.6716;stroke-miterlimit:10;}
	.st83{fill:none;stroke:#EE0000;stroke-width:2.0034;stroke-linecap:round;stroke-miterlimit:10;}
	.st84{clip-path:url(#SVGID_00000014605712171222924180000001252509896969434003_);fill:#C9C9C9;}
	.st85{fill:none;stroke:#DEDEDE;stroke-width:2.6716;stroke-miterlimit:10;}
	.st86{clip-path:url(#SVGID_00000052069686170060349110000010558511540841722244_);}
	.st87{clip-path:url(#SVGID_00000168828406074164671250000004629291926362034601_);fill:#EE0000;}
	.st88{clip-path:url(#SVGID_00000168828406074164671250000004629291926362034601_);}
	.st89{fill:none;stroke:#DEDEDE;stroke-width:1.0966;stroke-miterlimit:10;}
	.st90{fill:none;stroke:#000000;stroke-width:1.1515;stroke-linecap:round;stroke-linejoin:round;stroke-miterlimit:10;}
	.st91{clip-path:url(#SVGID_00000027590383559149524600000002658658000206395062_);fill:#F56D6D;}
	.st92{fill:none;stroke:#F56D6D;stroke-width:1.0966;stroke-linecap:round;stroke-linejoin:round;stroke-miterlimit:10;}
	.st93{clip-path:url(#SVGID_00000121244254495607397800000004157032463484945051_);fill:#F56D6D;}
	.st94{clip-path:url(#SVGID_00000147206420076767377590000018114159783982054016_);}
	.st95{fill:none;stroke:#5F0000;stroke-width:2.3668;stroke-linecap:round;stroke-linejoin:round;stroke-miterlimit:10;}
	.st96{fill:none;stroke:#000000;stroke-width:2.1932;stroke-linecap:round;stroke-linejoin:round;stroke-miterlimit:10;}
	.st97{fill:none;stroke:#EE0000;stroke-width:4.3865;stroke-linecap:round;stroke-linejoin:round;stroke-miterlimit:10;}
	.st98{fill:none;stroke:#5F0000;stroke-width:2.3668;stroke-linecap:round;stroke-miterlimit:10;}
	.st99{fill:none;stroke:#F3F3F3;stroke-width:1.7242;stroke-linecap:round;stroke-linejoin:round;stroke-miterlimit:10;}
	.st100{clip-path:url(#SVGID_00000000198478802910157520000016005328533812647845_);fill:#5F0000;}
	.st101{fill:none;stroke:#EE0000;stroke-width:2.5957;stroke-linecap:round;stroke-miterlimit:10;}
	.st102{fill:none;stroke:#EE0000;stroke-width:2.5957;stroke-miterlimit:10;}
	.st103{fill:none;stroke:#EE0000;stroke-width:11.6806;stroke-miterlimit:10;}
	.st104{fill:#FFFFFF;stroke:#DEDEDE;stroke-width:3.1619;stroke-miterlimit:10;}
	.st105{fill:none;stroke:#EE0000;stroke-width:2.371;stroke-linecap:round;stroke-miterlimit:10;}
	.st106{clip-path:url(#SVGID_00000008864991715029096570000017135687964293412483_);fill:#C9C9C9;}
	.st107{fill:none;stroke:#DEDEDE;stroke-width:3.1619;stroke-miterlimit:10;}
	.st108{clip-path:url(#SVGID_00000155128589710759560260000017586195763219504799_);}
	.st109{clip-path:url(#SVGID_00000011731168176994482810000004869014155340885658_);fill:#EE0000;}
	.st110{clip-path:url(#SVGID_00000011731168176994482810000004869014155340885658_);}
	.st111{fill:none;stroke:#DEDEDE;stroke-width:1.2978;stroke-miterlimit:10;}
	.st112{fill:none;stroke:#000000;stroke-width:1.3628;stroke-linecap:round;stroke-linejoin:round;stroke-miterlimit:10;}
	.st113{clip-path:url(#SVGID_00000181797222044963275140000007323840534319895703_);fill:#F56D6D;}
	.st114{fill:none;stroke:#F56D6D;stroke-width:1.2978;stroke-linecap:round;stroke-linejoin:round;stroke-miterlimit:10;}
	.st115{clip-path:url(#SVGID_00000036227324985480594550000002359428645886480007_);fill:#F56D6D;}
	.st116{clip-path:url(#SVGID_00000070796947189942177730000012260740732188180905_);}
	.st117{fill:none;stroke:#5F0000;stroke-width:2.8011;stroke-linecap:round;stroke-linejoin:round;stroke-miterlimit:10;}
	.st118{fill:none;stroke:#000000;stroke-width:2.5957;stroke-linecap:round;stroke-linejoin:round;stroke-miterlimit:10;}
	.st119{fill:none;stroke:#EE0000;stroke-width:5.1914;stroke-linecap:round;stroke-linejoin:round;stroke-miterlimit:10;}
	.st120{fill:none;stroke:#5F0000;stroke-width:2.8011;stroke-linecap:round;stroke-miterlimit:10;}
	.st121{fill:none;stroke:#F3F3F3;stroke-width:2.0406;stroke-linecap:round;stroke-linejoin:round;stroke-miterlimit:10;}
	.st122{clip-path:url(#SVGID_00000037665627892968617850000012928015356655310517_);fill:#5F0000;}
	.st123{fill:none;stroke:#EE0000;stroke-width:1.5354;stroke-linecap:round;stroke-miterlimit:10;}
	.st124{fill:#2E2E2E;}
	.st125{fill:none;stroke:#EE0000;stroke-width:1.5354;stroke-miterlimit:10;}
	.st126{fill:none;stroke:#EE0000;stroke-width:6.9095;stroke-miterlimit:10;}
	.st127{fill:#FFFFFF;stroke:#DEDEDE;stroke-width:1.8704;stroke-miterlimit:10;}
	.st128{fill:none;stroke:#EE0000;stroke-width:1.4025;stroke-linecap:round;stroke-miterlimit:10;}
	.st129{clip-path:url(#SVGID_00000174566254552292606640000016359272541058496935_);fill:#C9C9C9;}
	.st130{fill:none;stroke:#DEDEDE;stroke-width:1.8704;stroke-miterlimit:10;}
	.st131{clip-path:url(#SVGID_00000026882444298494810640000006477025923400810642_);}
	.st132{clip-path:url(#SVGID_00000111163231907425820710000017462925419646612872_);fill:#EE0000;}
	.st133{clip-path:url(#SVGID_00000111163231907425820710000017462925419646612872_);}
	.st134{fill:none;stroke:#DEDEDE;stroke-width:0.7677;stroke-miterlimit:10;}
	.st135{fill:none;stroke:#000000;stroke-width:0.8061;stroke-linecap:round;stroke-linejoin:round;stroke-miterlimit:10;}
	.st136{clip-path:url(#SVGID_00000012446783136329012280000014905043656953640632_);fill:#F56D6D;}
	.st137{fill:none;stroke:#F56D6D;stroke-width:0.7677;stroke-linecap:round;stroke-linejoin:round;stroke-miterlimit:10;}
	.st138{clip-path:url(#SVGID_00000173122830956378347500000013993213955844337542_);fill:#F56D6D;}
	.st139{clip-path:url(#SVGID_00000080899059377733137340000007340890177540968332_);}
	.st140{fill:none;stroke:#5F0000;stroke-width:1.6569;stroke-linecap:round;stroke-linejoin:round;stroke-miterlimit:10;}
	.st141{fill:none;stroke:#000000;stroke-width:1.5354;stroke-linecap:round;stroke-linejoin:round;stroke-miterlimit:10;}
	.st142{fill:none;stroke:#EE0000;stroke-width:3.0709;stroke-linecap:round;stroke-linejoin:round;stroke-miterlimit:10;}
	.st143{fill:none;stroke:#5F0000;stroke-width:1.6569;stroke-linecap:round;stroke-miterlimit:10;}
	.st144{fill:none;stroke:#F3F3F3;stroke-width:1.2071;stroke-linecap:round;stroke-linejoin:round;stroke-miterlimit:10;}
	.st145{clip-path:url(#SVGID_00000068641291138106409800000011620504687806063524_);fill:#5F0000;}
	.st146{fill:none;stroke:#EE0000;stroke-width:1.334;stroke-linecap:round;stroke-miterlimit:10;}
	.st147{fill:none;stroke:#EE0000;stroke-width:1.334;stroke-miterlimit:10;}
	.st148{fill:none;stroke:#EE0000;stroke-width:6.0028;stroke-miterlimit:10;}
	.st149{fill:#FFFFFF;stroke:#DEDEDE;stroke-width:1.6249;stroke-miterlimit:10;}
	.st150{fill:none;stroke:#EE0000;stroke-width:1.2185;stroke-linecap:round;stroke-miterlimit:10;}
	.st151{clip-path:url(#SVGID_00000150096592059499158860000010900178948281710470_);fill:#C9C9C9;}
	.st152{fill:none;stroke:#DEDEDE;stroke-width:1.6249;stroke-miterlimit:10;}
	.st153{clip-path:url(#SVGID_00000137834980472026085670000002753745244574823072_);}
	.st154{clip-path:url(#SVGID_00000165924632876083039310000009529279545505905051_);fill:#EE0000;}
	.st155{clip-path:url(#SVGID_00000165924632876083039310000009529279545505905051_);}
	.st156{fill:none;stroke:#DEDEDE;stroke-width:0.667;stroke-miterlimit:10;}
	.st157{fill:none;stroke:#000000;stroke-width:0.7003;stroke-linecap:round;stroke-linejoin:round;stroke-miterlimit:10;}
	.st158{clip-path:url(#SVGID_00000116212318332953135240000007611814934741604261_);fill:#F56D6D;}
	.st159{fill:none;stroke:#F56D6D;stroke-width:0.667;stroke-linecap:round;stroke-linejoin:round;stroke-miterlimit:10;}
	.st160{clip-path:url(#SVGID_00000083059793431339903430000005578127512728447667_);fill:#F56D6D;}
	.st161{clip-path:url(#SVGID_00000150818466296814771810000014277308594035853237_);}
	.st162{fill:none;stroke:#5F0000;stroke-width:1.4395;stroke-linecap:round;stroke-linejoin:round;stroke-miterlimit:10;}
	.st163{fill:none;stroke:#000000;stroke-width:1.334;stroke-linecap:round;stroke-linejoin:round;stroke-miterlimit:10;}
	.st164{fill:none;stroke:#EE0000;stroke-width:2.6679;stroke-linecap:round;stroke-linejoin:round;stroke-miterlimit:10;}
	.st165{fill:none;stroke:#5F0000;stroke-width:1.4395;stroke-linecap:round;stroke-miterlimit:10;}
	.st166{fill:none;stroke:#F3F3F3;stroke-width:1.0487;stroke-linecap:round;stroke-linejoin:round;stroke-miterlimit:10;}
	.st167{clip-path:url(#SVGID_00000166638570600685955120000010424802414485368979_);fill:#5F0000;}
	.st168{clip-path:url(#SVGID_00000124872981973017353780000006374056794333574037_);}
	.st169{clip-path:url(#SVGID_00000072987508624033663720000013749633848115108498_);fill:#C9C9C9;}
	.st170{clip-path:url(#SVGID_00000075156294089137249400000014363128133458251141_);}
	.st171{clip-path:url(#SVGID_00000125567235255620526170000017093376311056768175_);fill:#EE0000;}
	.st172{clip-path:url(#SVGID_00000125567235255620526170000017093376311056768175_);}
	.st173{clip-path:url(#SVGID_00000050633586613344266130000001428914092805440132_);fill:#F56D6D;}
	.st174{clip-path:url(#SVGID_00000146469417322526492750000015543559239464545419_);fill:#F56D6D;}
	.st175{clip-path:url(#SVGID_00000076561343087716053130000004699866100645341879_);}
	.st176{clip-path:url(#SVGID_00000118399179700397791620000016299840000906329783_);fill:#5F0000;}
	.st177{display:none;}
	.st178{display:inline;}
</style>
<g id="Art">
	<rect class="st0" width="627" height="1080"/>
	<g>
		<defs>
			<rect id="SVGID_00000030478150072949898910000000573185149040828305_" width="627" height="1080"/>
		</defs>
		<clipPath id="SVGID_00000091701908906138057560000011345483664930876597_">
			<use xlink:href="#SVGID_00000030478150072949898910000000573185149040828305_"  style="overflow:visible;"/>
		</clipPath>
		<g style="clip-path:url(#SVGID_00000091701908906138057560000011345483664930876597_);">
			<path class="st79" d="M412.6,761.1h-11.5v-30.8h11.5c4.4,0,8,3.6,8,8v14.8C420.6,757.5,417,761.1,412.6,761.1z"/>
			<path class="st5" d="M461.2,207.2c-4.6,0-8.8,0.5-12.6,1.5c0-0.4,0-0.8,0-1.2c0-19.9-16.1-36-36-36c-17.6,0-32.2,12.6-35.4,29.2
				c-2.5-0.6-5-1-7.7-1c-16.7,0-30.2,13.5-30.2,30.2s13.5,30.2,30.2,30.2h93.3c14.6,0,26.4-11.8,26.4-26.4
				C489.1,219,477,207.2,461.2,207.2z"/>
			<path class="st5" d="M-126.5,255.6c-54.1,49.7-48.3,133.4-10.3,180.9S-20.5,520.2,8.8,651.5s69.8,226.1,197.3,232.2
				s175.8-87.9,175.8-165.5c0-32.1,7.2-64.7,22.4-93.1c9.3-17.3,22.3-32,37.5-44.3c14.9-12,33-20.3,46.8-33.5
				c26.7-25.6,38.5-63.9,33.4-100.3c-1.9-13.4-6-26.6-12.2-38.6c-15-29.2-43.8-50.3-75.3-58.5c-24.1-6.2-50.1-5.5-74.8-5.3
				c-30.7,0.2-61.4,1.4-92.1,0.2c-27.1-1-55.6-3.1-81-13.3c-1.5-0.6-3-1.2-4.5-1.9c-66.4-30.2-116.3-78.4-170.6-94.8
				S-94.6,226.3-126.5,255.6z"/>
			<polygon class="st1" points="211.1,224.3 211.1,286.6 211.1,348.9 211.1,411.1 211.1,473.4 399.5,473.4 399.5,411.1 399.5,348.9 
				399.5,286.6 399.5,224.3 			"/>
			<polygon class="st80" points="211.1,224.3 211.1,286.6 211.1,348.9 211.1,411.1 211.1,473.4 399.5,473.4 399.5,411.1 
				399.5,348.9 399.5,286.6 399.5,224.3 			"/>
			<g>
				<g>
					<rect x="197.4" y="224.3" class="st2" width="188.4" height="62.3"/>
					<g>
						<circle class="st1" cx="356.3" cy="245.9" r="4.3"/>
						<circle class="st7" cx="356.3" cy="265" r="4.3"/>
					</g>
					<line class="st81" x1="218.4" y1="255.4" x2="317.8" y2="255.4"/>
				</g>
				<rect x="197.4" y="286.6" class="st2" width="188.4" height="62.3"/>
				<g>
					<line class="st81" x1="361.9" y1="302.9" x2="361.9" y2="332.5"/>
					<line class="st81" x1="344.2" y1="302.9" x2="344.2" y2="332.5"/>
				</g>
				<g>
					<circle class="st7" cx="283.8" cy="317.7" r="4.3"/>
					<circle class="st7" cx="258.4" cy="317.7" r="4.3"/>
					<circle class="st1" cx="233" cy="317.7" r="4.3"/>
				</g>
			</g>
			<g>
				<g>
					<rect x="197.4" y="348.9" class="st2" width="188.4" height="62.3"/>
					<g>
						<circle class="st1" cx="356.3" cy="370.4" r="4.3"/>
						<circle class="st7" cx="356.3" cy="389.6" r="4.3"/>
					</g>
					<line class="st81" x1="218.4" y1="380" x2="317.8" y2="380"/>
				</g>
				<rect x="197.4" y="411.1" class="st2" width="188.4" height="62.3"/>
				<g>
					<line class="st81" x1="361.9" y1="427.5" x2="361.9" y2="457.1"/>
					<line class="st81" x1="344.2" y1="427.5" x2="344.2" y2="457.1"/>
				</g>
				<g>
					<circle class="st1" cx="283.8" cy="442.3" r="4.3"/>
					<circle class="st7" cx="258.4" cy="442.3" r="4.3"/>
					<circle class="st7" cx="233" cy="442.3" r="4.3"/>
				</g>
			</g>
			<path class="st1" d="M395.4,783.8h-27.3c-4.4,0-8-3.6-8-8v-45.5h43.2v45.5C403.4,780.3,399.8,783.8,395.4,783.8z"/>
			<path class="st9" d="M395.4,783.8h-13.6v-53.5h21.6v45.5C403.4,780.3,399.8,783.8,395.4,783.8z"/>
			<g>
				<rect x="197.4" y="224.3" class="st80" width="188.4" height="62.3"/>
				<rect x="197.4" y="286.6" class="st80" width="188.4" height="62.3"/>
				<rect x="197.4" y="348.9" class="st80" width="188.4" height="62.3"/>
				<rect x="197.4" y="411.1" class="st80" width="188.4" height="62.3"/>
			</g>
			<path class="st82" d="M162.9,453.1c0,30.7-23,56-52.7,59.6c-2,0.3-4,0.5-6,0.5h-218.9c-26.4,0-47.9-21.4-47.9-47.9
				c0-26.4,21.4-47.9,47.9-47.9c8.6,0,16.7,2.3,23.7,6.3c4.2-39.3,39.5-77.3,91.3-77.3c32.6,0,65,20.5,76.4,49.4
				c8.1-1.9,16.9-2.8,26.2-2.8C136,393,162.9,419.9,162.9,453.1z"/>
			<polyline class="st80" points="-67.2,513 -67.2,784.6 426.6,784.6 			"/>
			<line class="st83" x1="356.9" y1="730.3" x2="406.7" y2="730.3"/>
			<g>
				<g>
					<rect x="288.2" y="528" class="st1" width="162.8" height="15.3"/>
					<rect x="330.1" y="556.3" class="st1" width="70.3" height="15.3"/>
					<g>
						<defs>
							<rect id="SVGID_00000098198498282565201720000006500919177504849079_" x="420.5" y="556.3" width="155.7" height="15.3"/>
						</defs>
						<use xlink:href="#SVGID_00000098198498282565201720000006500919177504849079_"  style="overflow:visible;fill:#FAB6B6;"/>
						<clipPath id="SVGID_00000122692942108225823270000004227092211703644576_">
							<use xlink:href="#SVGID_00000098198498282565201720000006500919177504849079_"  style="overflow:visible;"/>
						</clipPath>
						<path style="clip-path:url(#SVGID_00000122692942108225823270000004227092211703644576_);fill:#C9C9C9;" d="M-126.5,255.6
							c-54.1,49.7-48.3,133.4-10.3,180.9S-20.5,520.2,8.8,651.5s69.8,226.1,197.3,232.2s175.8-87.9,175.8-165.5
							c0-32.1,7.2-64.7,22.4-93.1c9.3-17.3,22.3-32,37.5-44.3c14.9-12,33-20.3,46.8-33.5c26.7-25.6,38.5-63.9,33.4-100.3
							c-1.9-13.4-6-26.6-12.2-38.6c-15-29.2-43.8-50.3-75.3-58.5c-24.1-6.2-50.1-5.5-74.8-5.3c-30.7,0.2-61.4,1.4-92.1,0.2
							c-27.1-1-55.6-3.1-81-13.3c-1.5-0.6-3-1.2-4.5-1.9c-66.4-30.2-116.3-78.4-170.6-94.8S-94.6,226.3-126.5,255.6z"/>
					</g>
				</g>
				
					<rect x="471.1" y="528" transform="matrix(-1 -1.224647e-16 1.224647e-16 -1 998.9557 1071.3041)" class="st13" width="56.9" height="15.3"/>
			</g>
			<path class="st85" d="M162.9,453.1c0,30.7-23,56-52.7,59.6c-2,0.3-4,0.5-6,0.5h-218.9c-26.4,0-47.9-21.4-47.9-47.9
				c0-26.4,21.4-47.9,47.9-47.9c8.6,0,16.7,2.3,23.7,6.3c4.2-39.3,39.5-77.3,91.3-77.3c32.6,0,65,20.5,76.4,49.4
				c8.1-1.9,16.9-2.8,26.2-2.8C136,393,162.9,419.9,162.9,453.1z"/>
			<path class="st85" d="M-66.2,397.8c3.6-5.9,8.1-11.3,13.3-16c10-9.1,27.3-19.9,53.1-19.9c6.6,0,13.3,1.1,19.6,3"/>
			<g>
				<defs>
					<path id="SVGID_00000131332644888028706030000004590838571574609547_" d="M-126.5,255.6c-54.1,49.7-48.3,133.4-10.3,180.9
						S-20.5,520.2,8.8,651.5s69.8,226.1,197.3,232.2s175.8-87.9,175.8-165.5c0-32.1,7.2-64.7,22.4-93.1c9.3-17.3,22.3-32,37.5-44.3
						c14.9-12,33-20.3,46.8-33.5c26.7-25.6,38.5-63.9,33.4-100.3c-1.9-13.4-6-26.6-12.2-38.6c-15-29.2-43.8-50.3-75.3-58.5
						c-24.1-6.2-50.1-5.5-74.8-5.3c-30.7,0.2-61.4,1.4-92.1,0.2c-27.1-1-55.6-3.1-81-13.3c-1.5-0.6-3-1.2-4.5-1.9
						c-66.4-30.2-116.3-78.4-170.6-94.8S-94.6,226.3-126.5,255.6z"/>
				</defs>
				<clipPath id="SVGID_00000181074001035392061590000015592144580685155736_">
					<use xlink:href="#SVGID_00000131332644888028706030000004590838571574609547_"  style="overflow:visible;"/>
				</clipPath>
				<g style="clip-path:url(#SVGID_00000181074001035392061590000015592144580685155736_);">
					<rect x="420.5" y="556.3" class="st1" width="155.7" height="15.3"/>
					
						<rect x="471.1" y="528" transform="matrix(-1 -1.224647e-16 1.224647e-16 -1 998.9557 1071.3041)" class="st1" width="56.9" height="15.3"/>
				</g>
			</g>
			<g>
				<g>
					<rect x="5.7" y="193.6" width="166.6" height="187.4"/>
				</g>
				<rect x="-1.9" y="186" class="st2" width="166.6" height="187.4"/>
				<g>
					<defs>
						<rect id="SVGID_00000114066785860905654030000015037738350416964267_" x="-1.9" y="186" width="166.6" height="187.4"/>
					</defs>
					<clipPath id="SVGID_00000011015769419845100900000018157497980372406161_">
						<use xlink:href="#SVGID_00000114066785860905654030000015037738350416964267_"  style="overflow:visible;"/>
					</clipPath>
					<path style="clip-path:url(#SVGID_00000011015769419845100900000018157497980372406161_);fill:#EE0000;" d="M-9.6,300
						c3.3-0.8,16.1-3.5,23.5-1.4s9.4,5.6,11.1,11.4l1.4,46.2l-46.6-0.9L-9.6,300z"/>
					<polygon style="clip-path:url(#SVGID_00000011015769419845100900000018157497980372406161_);" points="125.3,368.8 
						150.1,308.1 181.5,308.1 158.9,368.9 					"/>
				</g>
			</g>
			<path class="st13" d="M41.9,281.6c-2,3.8-6,7.2-9.6,9.3c-3.5,2.1-5.8,3.8-5.8,3.8s6.7-0.2,11.5,2.5s13,22.5,17.5,28.3
				s14,9.4,18.1,8.1c1.9-0.6,2.3,0.2,2.3,0.2s-6.2-7.9-10.8-16.3c-4.6-8.4-5.8-12.1-4.5-16.9c1.3-4.8-11.4-18.6-11.4-18.6
				L41.9,281.6z"/>
			<path class="st89" d="M94,279.1c0,0-1.7,1.2-2,1.7c-0.3,0.5-4.1-2.9-4.6-6.1c-0.5-3.1,3-2.3,3-2.3L94,279.1z"/>
			<path class="st13" d="M108,238.9c0.4,1.9,0.1,8.8-0.8,12.2c-1.6,6-3.4,7.4-4.6,10s-0.3,6.8,2,12.4c0.9,2.3-0.3,3.4-2.7,3.1
				s-4.4-1.4-4.4-1.4s-1.4,1.5-0.7,2.8c0.7,1.3-2.2,1.5-2.7,1.6c0,0-2.2-1.2-3.9-3.3c-1.7-2-2.9-1.8-2.2,2c0.7,3.8,2.1,4.7,2.1,4.7
				s0,1.6-0.7,2.5c-0.7,0.9-1.8-0.5-3.1,1.7s-2.3,4-4.6,3.9c-2.3-0.1-6.2-2.1-8.9-6.7c0,0-1.3-1.3-4.6,1.7c-3.3,3-6.2,9.6-7.4,14.3
				c0,0-2.9,2.3-9.6-1.3s-9.4-17.7-9.4-17.7s13.9-33.9,23.1-42.5c9.3-8.7,23.1-13.4,31.9-11.3C105.7,230,108,238.9,108,238.9z"/>
			<path class="st90" d="M92.9,258c0,0-0.2,1.2,1.2,1.1c1.4-0.1,3.4-0.3,4.2,0.2c0.8,0.8,0.2,1.6,0.2,1.6s0.1,0.8,1.5,0.8"/>
			<path d="M98.6,260.6c0,0-1,1.4-2.5,1.8c0,0-0.7-0.9-0.9-1.1c0,0,1-1.6,1.9-1.9c0.9-0.2,1.4,0.2,1.6,0.4
				C98.8,260.2,98.6,260.6,98.6,260.6z"/>
			<path d="M90.6,252.3c0,0,3-0.5,5.2,0s4.2,2.2,5,3c0.8,0.9,1.7,1.4,1.7,1.4s1.4,0,2-1c0,0-3.8-4.1-7.1-4.7S90.6,252.3,90.6,252.3z
				"/>
			<path class="st20" d="M26.6,294.7c0,0,3.5-1.9,7.8-1.3s9.3,3.9,13.5,12.6s7.6,19.4,13.1,23.6c4.5,3.4,9.2,3.4,13.4,1.8
				c0,0,6.3,7.2,8.6,11.1c2.3,3.8,2,12.2-4.9,17.3c-2.2,1.6-3.8,12.2-3.9,12.8H20.9c0,0-5.2-27.8-4.6-41.8c0.6-14-1.2-20.1-0.2-23.9
				S23.1,297.2,26.6,294.7z"/>
			<path d="M40.8,325.8c0,0-5.7,19.3-7.8,28.5c-2.1,9.2,0.5,20,0.5,20l8.5,0.2c0,0-2.1-13.3-2.1-27.4
				C40,333.1,40.8,325.8,40.8,325.8z"/>
			<path class="st13" d="M9,347.7c0,0,0.1,16.3,3.7,26.1h22.7c0,0-1.5-13.5,0.4-25.3c1.9-11.8-14.3-11.5-16-11.5
				C18,337,9.4,337.2,9,347.7z"/>
			<path class="st20" d="M15.6,307.6c1.4-3.3,6-8.6,8-9.5s7.3-2,12.7,4.7c5.4,6.7,5.4,16.5,4.5,23c-0.9,6.5-4.2,16.4-5.1,22.7
				c0,0-0.7-1.6-12.1-2.5C12.2,345.2,9,347.7,9,347.7s0.1-9.5,1.1-19.2C11,318.8,13,313.7,15.6,307.6z"/>
			<g>
				<path class="st13" d="M106.8,358c2.2,1.5,6.1,3.5,6.9,3.9c0.8,0.4,6,5.6,6.5,6s0.2,1-0.9,1.1c-1.1,0.1-2.1-0.9-2.1-0.9l-6.4-4"
					/>
				<path class="st13" d="M118.3,369.3c-1.1,0.2-2.5-0.5-3.2-1c-0.7-0.5-3.4-2.3-3.4-2.3c-0.7-0.4-3.4-2-3.6-2.1
					c0.1,0.2,1.7,1.8,2.4,2.6c0.9,1.1,2.3,3.4,2.3,3.4s-1,0.4-1.7,0c-0.7-0.4-3.1-2.4-4.3-3.3c-1.2-0.8-4.8-1.5-4.8-1.5
					c-1.4-0.2-5.2,0.1-7.7,0.3c-2.6,0.3-4.4-0.3-5.9-1c-1.2-0.5-2.1-0.7-4-0.3c-1.9,0.3-4.8,1.9-8.7,4.8l-6.5,4.3
					c-3.4,0-20.9,0.9-20.9,0.9s23.4-14,28.5-16.4c5.2-2.3,10.5-3.5,14.4-3c3.9,0.5,8.1,0.8,10,0.9c1.9,0.1,2.3-0.1,4.1,1.1
					c0.8,0.5,3.7,3.5,6.6,5.1c1.5,0.8,4.1,4.4,5.5,5.2C118.6,367.8,118.9,369.2,118.3,369.3z"/>
			</g>
			<polygon points="121.4,368.8 155.2,368.8 155.2,373 64.3,373 64.3,368.9 			"/>
			<rect x="-1.9" y="186" class="st80" width="166.6" height="187.4"/>
			<g>
				<defs>
					<path id="SVGID_00000124151004977291594090000009204928939703776907_" d="M108,238.9c0.4,1.9,0.1,8.8-0.8,12.2
						c-1.6,6-3.4,7.4-4.6,10s-0.3,6.8,2,12.4c0.9,2.3-0.3,3.4-2.7,3.1s-4.4-1.4-4.4-1.4s-1.4,1.5-0.7,2.8c0.7,1.3-2.2,1.5-2.7,1.6
						c0,0-2.2-1.2-3.9-3.3c-1.7-2-2.9-1.8-2.2,2c0.7,3.8,2.1,4.7,2.1,4.7s0,1.6-0.7,2.5c-0.7,0.9-1.8-0.5-3.1,1.7s-2.3,4-4.6,3.9
						c-2.3-0.1-6.2-2.1-8.9-6.7c0,0-1.3-1.3-4.6,1.7c-3.3,3-6.2,9.6-7.4,14.3c0,0-2.9,2.3-9.6-1.3s-9.4-17.7-9.4-17.7
						s13.9-33.9,23.1-42.5c9.3-8.7,23.1-13.4,31.9-11.3C105.7,230,108,238.9,108,238.9z"/>
				</defs>
				<clipPath id="SVGID_00000143608525723932860630000016065321821723656112_">
					<use xlink:href="#SVGID_00000124151004977291594090000009204928939703776907_"  style="overflow:visible;"/>
				</clipPath>
				<path style="clip-path:url(#SVGID_00000143608525723932860630000016065321821723656112_);fill:#F56D6D;" d="M72.8,284.6
					c-3.7-8.1-3.2-15.2-3.2-15.2l-7.1,28.1"/>
			</g>
			<path d="M93.8,221.8c0,0-9.3-5.5-19.6-4c-10.3,1.4-17,6.3-21,13.8c-4,7.4-4.9,17.5-5.9,21.1c-1,3.6-3.5,5-7.2,5.8
				c-3.8,0.8-8.8,2.5-9.8,7.1S27.7,278,25,278.3s-7,0.4-9,4.2c-2.1,3.8-1.4,11.3,2.9,13.1c4.4,1.9,9.4,0.5,11.9-1.4
				c0,0,8,5.5,18.3,3.3c10.3-2.1,14-13.5,14.6-18.6c0.5-5.1,1.5-22.2,5.7-26.9c4.3-4.7,9.2-3.6,9.2-3.6s0.8,1.4,3.1,1.3
				c2.3-0.2,8.7-1.9,13.8-6.4c5.1-4.6,10.5-3.3,12.6-0.9c0,0,4.7,0.1,8.4-3.4s5.3-14.2-2.2-18.7c-7.5-4.5-13.9-0.7-14.7,1.7
				c-0.7,2.4-0.2,3.5-0.2,3.5S96.3,223.1,93.8,221.8z"/>
			<path class="st13" d="M78.6,248.5c0,0-0.4-2.9-3.4-4c-2.9-1.1-5.6,2.3-6,6.2s0.2,8.5,2.7,9.5c2.5,1,3.5-0.7,3.5-0.7"/>
			<path class="st92" d="M78.6,248.5c0,0-0.4-2.9-3.4-4c-2.9-1.1-5.6,2.3-6,6.2s0.2,8.5,2.7,9.5c2.5,1,3.5-0.7,3.5-0.7"/>
			<g>
				<defs>
					<path id="SVGID_00000109747587975565709820000008243379611192448689_" d="M108,238.9c0.4,1.9,0.1,8.8-0.8,12.2
						c-1.6,6-3.4,7.4-4.6,10s-0.3,6.8,2,12.4c0.9,2.3-0.3,3.4-2.7,3.1s-4.4-1.4-4.4-1.4s-1.4,1.5-0.7,2.8c0.7,1.3-2.2,1.5-2.7,1.6
						c0,0-2.2-1.2-3.9-3.3c-1.7-2-2.9-1.8-2.2,2c0.7,3.8,2.1,4.7,2.1,4.7s0,1.6-0.7,2.5c-0.7,0.9-1.8-0.5-3.1,1.7s-2.3,4-4.6,3.9
						c-2.3-0.1-6.2-2.1-8.9-6.7c0,0-1.3-1.3-4.6,1.7c-3.3,3-6.2,9.6-7.4,14.3c0,0-2.9,2.3-9.6-1.3s-9.4-17.7-9.4-17.7
						s13.9-33.9,23.1-42.5c9.3-8.7,23.1-13.4,31.9-11.3C105.7,230,108,238.9,108,238.9z"/>
				</defs>
				<clipPath id="SVGID_00000098916397546184520180000007468261681619521937_">
					<use xlink:href="#SVGID_00000109747587975565709820000008243379611192448689_"  style="overflow:visible;"/>
				</clipPath>
				<path style="clip-path:url(#SVGID_00000098916397546184520180000007468261681619521937_);fill:#F56D6D;" d="M88.5,275.2
					c0.8-0.2,2,0.5,2.9,1.1c1.1,0.7,2.3,1.4,3.4,2.2c0.7,0.5,1.7,0.7,2.5,0.9l-6.8,6.1l-0.7,0.1c0,0-1.1-0.7-1.8-3.6
					C87.3,279.3,87,275.8,88.5,275.2z"/>
			</g>
			<path d="M70.2,218.7c4.3-1.6,11.8-2.8,22,0c10.2,2.8,14.1,7.8,14.1,7.8l-4.4,4.9"/>
			<path class="st1" d="M223.3,682l11.2,102.5H57c0.8-10.5,3.1-32.3,1.1-40.9c-3.5-14.6-6.1-38.5-7.9-59.9l-0.1,0h-9.8l-42-6.7
				l-16-5.1c0,0,4-20.5,9.7-37.9c5.7-17.4,18-51,34.6-65.9c16.6-14.9,43.9-18,59.5-20.8c0.6-0.1,1.1-0.3,1.7-0.4
				c6.7-1.7,8.3-2.7,16.1-8.9c8.5-6.7,21.7-31.5,24-39.3c2.3-7.8,3.5-16.9,3.1-20.1c-0.1-1.1-0.4-3-0.7-5l9.4-3.4
				c0,0,27.5,61.9,25.9,66.5c-1.6,4.5-3.4,9.1-3.4,9.1c-0.5,1.3,4.3,6.6,7.8,9.3c1.5,1.2,2.8,2,3.2,2.3c4.2,2.7,8.9,4.8,13.7,6.1
				c20.5,5.5,51.2,14.4,53.4,43.9c1.6,21.7,12.6,61.9,12.6,61.9L223.3,682z"/>
			<g>
				<g>
					<defs>
						<path id="SVGID_00000165206872934833681660000008342438903769357482_" d="M223.3,682l11.2,102.5H57
							c0.8-10.5,3.1-32.3,1.1-40.9c-3.5-14.6-6.1-38.5-7.9-59.9l-0.1,0h-9.8l-42-6.7l-16-5.1c0,0,4-20.5,9.7-37.9
							c5.7-17.4,18-51,34.6-65.9c16.6-14.9,43.9-18,59.5-20.8c0.6-0.1,1.1-0.3,1.7-0.4c6.7-1.7,8.3-2.7,16.1-8.9
							c8.5-6.7,21.7-31.5,24-39.3c2.3-7.8,3.5-16.9,3.1-20.1c-0.1-1.1-0.4-3-0.7-5l9.4-3.4c0,0,27.5,61.9,25.9,66.5
							c-1.6,4.5-3.4,9.1-3.4,9.1c-0.5,1.3,4.3,6.6,7.8,9.3c1.5,1.2,2.8,2,3.2,2.3c4.2,2.7,8.9,4.8,13.7,6.1
							c20.5,5.5,51.2,14.4,53.4,43.9c1.6,21.7,12.6,61.9,12.6,61.9L223.3,682z"/>
					</defs>
					<clipPath id="SVGID_00000133495410729533208770000013054651250329891469_">
						<use xlink:href="#SVGID_00000165206872934833681660000008342438903769357482_"  style="overflow:visible;"/>
					</clipPath>
					<g style="clip-path:url(#SVGID_00000133495410729533208770000013054651250329891469_);">
						<path d="M97.6,548c-14.1,2.6-55.6,7.9-69.3,27.8S0.5,648.6-2.7,673c-3.2,24.4-25.1,0.4-25.1,0.4L0.3,571.7l45-33l29.1-3.6
							l19.3,4.1L97.6,548z"/>
					</g>
					<path style="clip-path:url(#SVGID_00000133495410729533208770000013054651250329891469_);" d="M68.8,620.1c0,0-7.8,20.8-3,54.3
						c3.2,22.6,13.1,66.6,5.7,115c-7.9,52-21.5,3.4-21.5,2.5c0-0.9-1.8-108.4-1.8-108.4l4.5-0.4c0,0,7.6-44.5,10.3-52.1
						C65.7,623.4,68.8,620.1,68.8,620.1z"/>
				</g>
			</g>
			<path class="st25" d="M170.1,555.2c-1.6,5.9-2.7,16.1-25.1,13.7c-20.1-2.2-45.2-18.7-51.1-23.9c2.8-1.3,5.2-3.1,10.1-6.9
				c8.5-6.7,21.7-31.5,24-39.3c2.3-7.8,3.5-16.9,3.1-20.1c-0.1-1.1-0.4-3-0.7-5l9.4-3.4c0,0,27.5,61.9,25.9,66.5
				c-1.6,4.5-3.4,9.1-3.4,9.1C163.8,549.6,167.3,553,170.1,555.2z"/>
			<path class="st26" d="M137.6,471.1c0,2.9-0.2,6.2-0.7,9.9c-3.6,29.6-15.4,45.6-22.8,55c-5.3,6.8-11.6,10.1-16.6,12.1
				c-1.6-1.2-2.9-2.2-3.7-2.9c2.8-1.3,5.2-3.1,10.1-6.9c8.5-6.7,21.7-31.5,24-39.3c2.3-7.8,3.5-16.9,3.1-20.1c-0.1-1.1-0.4-3-0.7-5
				L137.6,471.1z"/>
			<path class="st26" d="M170.1,555.2c1.5,8.7-5.3,12.1-13,13.6c-4.7-8.3-12.9-35.2-14.2-41.8c-1.6-7.7-0.3-17.4-0.3-17.4l6,3.7
				l16.5,19.6c0.2,0.8,0.4,1.6,0.5,2.2c0,0.1,0,0.2,0.1,0.3c0,0.2,0.1,0.4,0.1,0.5c0,0.1,0,0.1,0,0.2c0,0.2,0,0.4,0,0.5
				c0,0,0,0.1,0,0.1c0,0,0,0.1,0,0.1c-1.6,4.5-3.4,9.1-3.4,9.1C164.1,549.5,167.3,553,170.1,555.2z"/>
			<path d="M213.6,612.1c0,0-4,7.5-4.7,12.5c-0.6,5.1-9,54.1-2.5,76.8l8.5-17.5c0,0-5.6-33.4-3.8-56.3
				C211.5,622,213.6,612.1,213.6,612.1z"/>
			<path class="st25" d="M224.6,455.4c1.6,8-3.4,22.4-4.2,25.6c-1.5,6.4-5.8,7.1-7.5,8.8c-1.7,1.7-2,8-4.9,16.4
				c-2.9,8.5-5.9,7.9-16.8,20.9c-10.9,12.9-16.4,17.8-20,16.8c-3.6-1-11-4.8-17.6-12.1c-6.6-7.2-10.4-15.2-12.6-26.6
				c-2.2-11.4,0.3-30.7,6.2-45.9c5.9-15.2,30.2-38.8,48-31.7S224.6,455.4,224.6,455.4z"/>
			<path class="st26" d="M131.9,492.1c0,0,13.7-2.8,16.2-25.2l-12.7,9.5"/>
			<path d="M147.3,465.5c2.5,3.2,5.9,1.2,7.3-1.8c1.4-2.9,6.8-12.8,11.1-15.2c4.3-2.4,8.5-0.5,8.5-0.5c1.7-4.8,6.2-14.2,11.7-11.8
				c5.2,2.2,31.4,23.7,39.1,21.1c0,0,1.7-3.5,1.6-5c-0.1-2.4-1-5.4-2.3-8.6c-2.2-5.4-7.5-15.9-16.7-23.9c-4.4-3.9-10-6.7-16-9.1
				c-18.6-7.2-42.6-0.2-52.5,12.9c-16.6,22-8.3,43.8-8.3,43.8L147.3,465.5z"/>
			<path d="M218.6,482.4c-0.7-1.5-3.5-3.5-6.8-3.3c-3.3,0.2-5.4,0.9-5.6,0.6c-0.2-0.3,1.5-3.3,5.3-3.6c3.8-0.3,5.4,0.5,6.6,1.4
				c1.2,0.8,1.9,2.4,2,3.7c0.1,1.4-1.1,3.5-1.1,3.3C219,484.3,219.4,484.1,218.6,482.4z"/>
			<path d="M195.4,473c0.5-0.6,0.9-1.7,0.1-3.7s-9.1-8.7-14.7-8.8c-5.6-0.1-9.5,3.3-10.5,4.1c-1,0.8-2.4,3.5-2.4,3.5
				s6.8-2.9,13.9-2.4C188.9,466.4,195.4,473,195.4,473z"/>
			<ellipse transform="matrix(0.3194 -0.9476 0.9476 0.3194 -331.1777 500.8143)" cx="183.1" cy="481" rx="4.9" ry="4"/>
			<path class="st25" d="M174.3,473c0,0,1.9,0.7,2.9,0.8c0,0,2.6,2.5,6.8,3.8c4.2,1.3,5.2,1,5.8,1.7c0.6,0.7,1,1.6,1,1.6l2.1-5.1
				l-2.5-4.6l-10.3-2.6"/>
			<ellipse transform="matrix(0.3883 -0.9215 0.9215 0.3883 -324.0901 492.4334)" cx="208.9" cy="490.3" rx="4.2" ry="2.3"/>
			<path class="st25" d="M205.8,492c0,0,2,1.5,4.4,1.7c0,0-1.9,1.4-3.2,0.6C205.8,493.5,205.8,492,205.8,492z"/>
			<path d="M170.4,504c0,0-2.1,4.1,0,10.6c1.3,4,6.6,9.2,12.4,9.9c2.5,0.3,4.4-0.9,7.4-5.1c1.4-1.9,2.9-2.2,2.9-2.2s-6.9-0.7-14.4-5
				C171.1,507.9,170.4,504,170.4,504z"/>
			<path class="st2" d="M191,516.9c0,0,0,0.1-0.1,0.1c-0.4,0.7-1.6,3-2.1,3.6c0,0-1.5,0.4-4.1,0c-2.4-0.4-5.7-1.6-7.9-3.1
				c-4.8-3.5-7.1-7.2-7.5-8c-0.1-3.4,0.9-5.4,0.9-5.4s0.7,3.9,8.2,8.2C183.7,515.1,188.4,516.3,191,516.9z"/>
			<path class="st95" d="M170.4,504c0,0-2.1,4.1,0,10.6c1.3,4,6.6,9.2,12.4,9.9c2.5,0.3,4.4-0.9,7.4-5.1c1.4-1.9,2.9-2.2,2.9-2.2
				s-6.9-0.7-14.4-5C171.1,507.9,170.4,504,170.4,504z"/>
			<path class="st26" d="M169.3,523c0,0,2.9,2.6,5.3,4.1c2.5,1.5,3.6,1.5,3.9,2.1s-3.3,2.7-6.6,0.6S169.3,523,169.3,523z"/>
			<rect x="170.9" y="776.7" class="st28" width="144.2" height="7.6"/>
			<polygon points="170.9,784.2 86.2,784.2 83.4,776.7 170.9,776.7 			"/>
			<path class="st96" d="M174.5,474.4c0,0,1.9,0.7,2.9,0.8c0,0,3,1.2,7.2,2.5c4.2,1.3,4.6,0.8,5.3,1.6c0.6,0.7,1,1.6,1,1.6"/>
			<path class="st25" d="M178.5,482.4c0,0,3.6,2.5,6.9,2.7c0,0-3.5,1.9-5.2,1.3C178.6,485.7,178.5,482.4,178.5,482.4z"/>
			<path class="st25" d="M212.8,487.6c0,0-0.1,0.6-0.8,0.4c-3.1-0.8-4.6-2.6-5.4-2.6s-2.2,0.7-2.2,0.7l5.7-6.2l5.3,0.9L212.8,487.6z
				"/>
			<path class="st96" d="M204.4,486.1c0,0,1.1-0.4,2-0.4s1.8,1.3,4.3,2.1c1.4,0.4,1.4,2,1.4,2s0.7,0.7,2,0.6"/>
			<path class="st1" d="M180.9,407c-10.6-0.8-15.8,0.7-22.6,3.5c-1.5,0.6-3.8,1.9-5.1,2.9c-1.2,1-2.1,4.8-2.1,4.8l9-2.1
				c2.4-0.7,4.2-1.5,4.2-1.5s4-2.3,15.1-3.2c5.4-0.4,12.7,0.7,18.5,3c5.4,2.1,9.5,5.4,9.5,5.4s-0.4-1.5-2.2-3.1
				c-1.8-1.6-7.5-5.1-9-5.8C192.1,408.5,187.7,407.5,180.9,407z"/>
			
				<ellipse transform="matrix(0.1941 -0.981 0.981 0.1941 -346.8104 507.8661)" class="st20" cx="135.7" cy="465" rx="20.7" ry="12.5"/>
			<path d="M137.8,465.6c-1.5,8.4-5.7,15.8-11.6,15c-0.2,0-0.4-0.1-0.6-0.1c0,0,0,0,0,0c-2.5-4.2-3.4-10.5-2.2-17.3
				c1.4-8.1,5.5-14.6,10.3-17.3c0,0-1.4,3.4-1.4,3.4C136.7,450.8,139.2,457.8,137.8,465.6z"/>
			<path class="st97" d="M129.9,473.7c0,0,8.7,21.2,11.3,25.2s9.7,9.4,9.7,9.4"/>
			<path class="st31" d="M134,453.3c1.5-8.3,8.7-21.7,16.6-30.1c3-3.1,7.4-6.5,10.4-8.6c0.9-0.6,0.3-2-0.7-1.8
				c-2.3,0.4-5.1,1.1-7.2,2.3c0,0-19.8,14.3-24.4,36.7L134,453.3z"/>
			
				<ellipse transform="matrix(0.1941 -0.981 0.981 0.1941 -350.3379 498.3344)" class="st1" cx="128.1" cy="462.4" rx="14.7" ry="8.9"/>
			<path class="st98" d="M185.1,508c0,0,2.7,0.2,3.7,0.6c1,0.4,3.8,2.6,5.5,2.9c1.7,0.4,3,0.2,3.8-1.1s0.4-5.2,0.1-7.9
				c-0.4-2.8-0.3-12.9,1.5-16.7c1.8-3.8,3.5-4.5,3.5-4.5"/>
			<path class="st98" d="M181.1,504.8c0,0-2.1-1.7-0.4-4.4"/>
			<path class="st98" d="M196.9,517.6c0,0-2,0.5-3.9-0.4c0,0-6.9-0.7-14.4-5c-7.5-4.3-8.2-8.2-8.2-8.2s-2.2-1.7-2.4-3.4"/>
			<g>
				<path class="st99" d="M131.2,452.1c0.4,0.3,0.7,0.7,1,1.1"/>
				<path class="st99" d="M120.9,466.7c-0.2-1.6-0.2-3.4,0.2-5.3c0.9-5.4,3.9-9.6,6.9-10.2"/>
			</g>
			<ellipse transform="matrix(0.1547 -0.988 0.988 0.1547 -654.6464 590.0183)" cx="17.5" cy="677.6" rx="4.9" ry="35.6"/>
			<path class="st3" d="M47,638.5c0,0,1,21,3.1,45.3c1.8,21.3,4.5,45.3,7.9,59.9c2.4,10.1-1.3,40.9-1.3,40.9h177.7L223.3,682
				l29.8-12.5c0,0-10.1-29.8-12.6-61.9c-1.7-21.7-20.3-32.5-26.5-34.7c-6.2-2.2-11.4-5.9-23.2-8.3c-7.9-1.6-14.8-4.8-20.7-9.4"/>
			<g>
				<defs>
					<path id="SVGID_00000030460306218417437520000012087255028741197485_" d="M192.1,738.9L180,758.4c0,0-1.4,1.1-2.6,0.1
						c-1.3-1-1.4-5.9-1.7-7.2c-0.3-1.3-1.3-2.3-1.3-2.3c-1.9,0.6-14.9,12.5-18.7,14.7c-3.8,2.2-7.2,3.1-10.5,1.9
						c-3.3-1.1-8.9-2.8-13.4-2.8c-4.6,0-52.4,0.5-76.5-1.3c-32.6-2.4-53.4-11.2-56.3-12.7s-3.5-3.1-3.9-10.8
						c-0.3-7.7-0.8-39,3.1-67.6c0,0,0,0,0-0.1c5.8,0.4,12.8,1.1,20.3,2.3c12.3,1.9,23,4.5,29,6.8l-0.1,0.4
						c-2.9,16.4-5.2,31.5-5.6,34.2c11.4,4.2,32.4,12.6,53.6,17c25.3,5.2,40,5.7,40,5.7c3.8,0,19.6-7.7,22.1-8.9
						c2.5-1.1,2.7-1.1,4.3-1.1c1.6,0,3.4,1.2,3.4,1.2s4.9-0.8,6.7-0.5c1.8,0.3,3.7,2.3,3.7,2.3s3.7,0.3,5.5,0.7
						C183,731,192.1,738.9,192.1,738.9z"/>
				</defs>
				<use xlink:href="#SVGID_00000030460306218417437520000012087255028741197485_"  style="overflow:visible;fill:#8F0000;"/>
				<clipPath id="SVGID_00000030483204087296490950000010242438878764063123_">
					<use xlink:href="#SVGID_00000030460306218417437520000012087255028741197485_"  style="overflow:visible;"/>
				</clipPath>
				<path style="clip-path:url(#SVGID_00000030483204087296490950000010242438878764063123_);fill:#5F0000;" d="M174.4,749.1
					c-1.6-1.7-5.7-5.6-7.3-6.1s-6-3-7.1-3c0,0-6.9,3.2-11.9,8.5c-5,5.3-10.4,13.5-16.3,14.3l8.1,6.1c0,0,7.5,3.3,13.2,2.7
					S167,764,167,764L174.4,749.1z"/>
				<path style="clip-path:url(#SVGID_00000030483204087296490950000010242438878764063123_);fill:#5F0000;" d="M47.5,679.6
					c0,0-35.5-4.1-51,8.1l-3.8-23.6l25.9-7.3h31.2l2.7,5.1"/>
			</g>
			<polygon points="358.8,668.3 208.9,668.3 170.9,776.7 319.6,776.7 362.1,670.7 			"/>
			<path class="st98" d="M41.9,714.2c-11.7-4.6-20.5-2.3-20.5-2.3"/>
			<g>
				<polygon class="st28" points="358.8,668.3 208.9,668.3 212.4,670.7 362.1,670.7 				"/>
			</g>
			<line class="st80" x1="-67.2" y1="784.6" x2="426.6" y2="784.6"/>
		</g>
	</g>
</g>
<g id="Artboard_labels" class="st177">
</g>
</svg>
