<svg height="58" viewBox="0 0 298 58" width="298" xmlns="http://www.w3.org/2000/svg" xmlns:xlink="http://www.w3.org/1999/xlink"><defs><path id="a" d="m19.4057872 6.63324806-5.8460556-5.87752667c-.3776095-.37964222-.988124-.37964222-1.3643553 0-.1888047.18982111-.282518.43783555-.282518.68585 0 .24801444.0937133.49602889.282518.68585l4.1978042 4.22178778h-14.66337392c-.53196074 0-.96469565.43367889-.96469565.96988889s.43273491.96988888.96469565.96988888h14.66337392l-4.1991824 4.22317336c-.1888047.1884355-.282518.4378355-.282518.68585 0 .2480144.0937133.4960289.282518.68585.1888048.1898211.4354912.2840389.6821777.2840389.2466864 0 .494751-.0942178.6821776-.2840389l5.8474338-5.87891224c.1888047-.18843556.282518-.43783556.282518-.68585 0-.24801445-.0937133-.49602889-.282518-.68585"/><filter id="b" height="129.2%" width="121.1%" x="-10.6%" y="-7.3%"><feOffset dx="0" dy="1" in="SourceAlpha" result="shadowOffsetOuter1"/><feGaussianBlur in="shadowOffsetOuter1" result="shadowBlurOuter1" stdDeviation=".5"/><feColorMatrix in="shadowBlurOuter1" type="matrix" values="0 0 0 0 0   0 0 0 0 0   0 0 0 0 0  0 0 0 0.05 0"/></filter><path id="c" d="m19.4057872 6.63324806-5.8460556-5.87752667c-.3776095-.37964222-.988124-.37964222-1.3643553 0-.1888047.18982111-.282518.43783555-.282518.68585 0 .24801444.0937133.49602889.282518.68585l4.1978042 4.22178778h-14.66337392c-.53196074 0-.96469565.43367889-.96469565.96988889s.43273491.96988888.96469565.96988888h14.66337392l-4.1991824 4.22317336c-.1888047.1884355-.282518.4378355-.282518.68585 0 .2480144.0937133.4960289.282518.68585.1888048.1898211.4354912.2840389.6821777.2840389.2466864 0 .494751-.0942178.6821776-.2840389l5.8474338-5.87891224c.1888047-.18843556.282518-.43783556.282518-.68585 0-.24801445-.0937133-.49602889-.282518-.68585"/><filter id="d" height="129.2%" width="121.1%" x="-10.6%" y="-7.3%"><feOffset dx="0" dy="1" in="SourceAlpha" result="shadowOffsetOuter1"/><feGaussianBlur in="shadowOffsetOuter1" result="shadowBlurOuter1" stdDeviation=".5"/><feColorMatrix in="shadowBlurOuter1" type="matrix" values="0 0 0 0 0   0 0 0 0 0   0 0 0 0 0  0 0 0 0.05 0"/></filter><mask id="e" fill="#fff"><use fill="none" xlink:href="#a"/></mask></defs><g fill="none" fill-rule="evenodd"><ellipse cx="28.844721" cy="29" fill="#faecd2" rx="28.844721" ry="29"/><g stroke="#b39357" stroke-linecap="round" stroke-linejoin="round" stroke-width="2.16" transform="translate(19 19)"><path d="m20 13.3333333v4.4444445c0 1.2272994-.9949228 2.2222222-2.2222222 2.2222222h-15.55555558c-1.22729944 0-2.22222222-.9949228-2.22222222-2.2222222v-4.4444445"/><path d="m15.5555556 5.55555556-5.5555556-5.55555556-5.55555556 5.55555556"/><path d="m10 0v13.3333333"/></g><ellipse cx="148.844721" cy="29" fill="#cffae8" rx="28.844721" ry="29"/><path d="m14.2267081 16.6628889c-4.53682586 0-10.30019332-3.1258133-11.40959332-7.34344446 1.1094-4.21763111 6.87276746-7.34344444 11.40959332-7.34344444 4.5368258 0 10.3001933 3.12581333 11.4095933 7.34344444-1.1094 4.21763116-6.8727675 7.34344446-11.4095933 7.34344446m0-16.62666668c5.3513046 0 12.1468964 3.72437334 13.3444971 9.06984667.0316972.13994111.0316972.28542444 0 .42675111-1.1962226 5.3454733-7.9931925 9.0698467-13.3444971 9.0698467-5.35130462 0-12.14827456-3.7243734-13.34449717-9.0698467-.03169714-.14132667-.03169714-.28681 0-.42675111 1.19760075-5.34547333 7.99319255-9.06984667 13.34449717-9.06984667zm0 13.37255088c-2.2422283 0-4.0668813-1.8344755-4.0668813-4.08877443 0-2.25429889 1.824653-4.08738889 4.0668813-4.08738889s4.0668812 1.83309 4.0668812 4.08738889c0 2.25429893-1.8246529 4.08877443-4.0668812 4.08877443zm0-10.11732666c-3.3061498 0-5.99627257 2.70460445-5.99627257 6.02855223 0 3.32394773 2.69012277 6.02855223 5.99627257 6.02855223s5.9962725-2.7046045 5.9962725-6.02855223c0-3.32394778-2.6901227-6.02855223-5.9962725-6.02855223z" fill="#39b481" transform="translate(135.018634 20.083333)"/><g transform="translate(79 24.5)"><use fill="#000" filter="url(#b)" xlink:href="#a"/><use fill="#d1d5ed" fill-rule="evenodd" xlink:href="#a"/><g mask="url(#e)"><g transform="translate(-7 6)"><path d="m0 0h34.140685v35.206033h-34.140685z" fill="none"/><path d="m0 0h34.140685v35.206033h-34.140685z" fill="#d1d5ed" fill-rule="evenodd"/></g></g></g><g transform="translate(199 24.5)"><use fill="#000" filter="url(#d)" xlink:href="#c"/><use fill="#d1d5ed" fill-rule="evenodd" xlink:href="#c"/></g><ellipse cx="268.844721" cy="29" fill="#eaf1ff" rx="28.844721" ry="29"/><path d="m22.8708 4.10054505c0-.01116.0062-.02108.0062-.03348 0-.32736-.19592-.60636-.47616-.73284l-2.4366-2.33616c-.32116-.30752-.8308-.29636-1.1408.02356-.1488.15624-.2232.35712-.2232.558 0 .21204.08308.42284.24676.58156l1.147 1.09988h-10.62928c-5.0964 0-9.24296 4.14656-9.24296 9.24295995v.4774c0 5.0964 4.14656 9.2442 9.24296 9.2442h2.54944c.44392 0 .80476-.36084.80476-.806s-.36084-.806-.80476-.806h-2.54944c-4.20856 0-7.63096-3.42364-7.63096-7.6322v-.4774c0-4.20731995 3.4224-7.63095995 7.63096-7.63095995h10.88348l-1.31564 1.37144c-.15004.15624-.22444.35836-.22444.558 0 .21204.08184.42408.24676.58156.15624.15128.35712.22568.558.22568.21204 0 .42408-.08308.58156-.248l2.55936-2.666c.15004-.15624.22444-.35712.22444-.558 0-.0124-.00744-.0248-.00744-.0372" fill="#455ac3" transform="translate(258 18)"/></g></svg>