<svg id="Layer_1" data-name="Layer 1" xmlns="http://www.w3.org/2000/svg" viewBox="0 0 376 128"><defs><style>.cls-1{opacity:0.07;isolation:isolate;}.cls-2{fill:#4285f4;}.cls-3{fill:#fff;}</style></defs><g id="gke"><g id="audit-logs"><g id="Group-2"><g id="logo"><path id="Path" d="M105.41,61.06l-13-22.66a5.71,5.71,0,0,0-4.86-2.9H61.72a5.71,5.71,0,0,0-4.86,2.9L43.92,61a5.68,5.68,0,0,0,0,5.67L56.86,89.49a5.73,5.73,0,0,0,4.86,3H87.6a5.72,5.72,0,0,0,4.86-3l13-22.65a5.94,5.94,0,0,0,0-5.78Z"/><path id="Path-2" data-name="Path" class="cls-1" d="M83.12,51.44l-.24,1.1-2.07-2L68.37,52.34l-8.21,9.94,3,3-2.62-.7L67,76,84,91.5h4.14a5.82,5.82,0,0,0,4.92-3l10.07-17.27Z"/><polygon id="Path-3" data-name="Path" points="90.16 63.5 83.66 51.5 77.16 63.5 83.66 75.5 90.16 63.5"/><polygon id="Path-4" data-name="Path" points="60.16 63.5 67.14 75.5 81.16 75.5 74.18 63.5 60.16 63.5"/><polygon id="Path-5" data-name="Path" points="74.06 62.5 81.16 50.5 67.16 50.5 60.16 62.5 74.06 62.5"/><path id="Path-6" data-name="Path" class="cls-2" d="M107.36,61,94,37.52a5.84,5.84,0,0,0-5-3H62.28a5.86,5.86,0,0,0-5,3L43.93,60.91a6,6,0,0,0,0,5.87l13.33,23.6a6,6,0,0,0,5,3.12H89a6,6,0,0,0,5-3.12l13.36-23.46a6,6,0,0,0,0-5.94Z"/><path id="Path-7" data-name="Path" class="cls-1" d="M88.25,56.32,75.17,50.5,62.68,57.28l-.52,14.91L83.49,93.5H88.6a6,6,0,0,0,5-3.1l10.52-18.25Z"/><g id="art"><path id="Shape" class="cls-3" d="M88.4,55.81l-12-7a1.39,1.39,0,0,0-1.37,0l-12,7A1.39,1.39,0,0,0,62.36,57V71a1.4,1.4,0,0,0,.69,1.18l12,7a1.34,1.34,0,0,0,1.37,0l12-7A1.44,1.44,0,0,0,89.08,71V57A1.36,1.36,0,0,0,88.4,55.81ZM86.79,69.65l-4.18-2.42V60.79l-6.17,3.57v7.23L82,68.37l4.18,2.42L75.79,76.85,65.44,70.79l4.18-2.42,5.52,3.22v-7.2L69,60.83v6.4l-4.18,2.42V57.57l10.35-6V56.4l-5.52,3.22,6.17,3.56L82,59.62,76.44,56.4V51.52l10.35,6Z"/></g></g><g id="svg_12" data-name="svg 12"><path id="Path-8" data-name="Path" d="M126.07,61a2.44,2.44,0,0,0-1.41-1.79,3.18,3.18,0,0,0-1.39-.28,2.93,2.93,0,0,0-2.4,1.14,5.3,5.3,0,0,0-1,3.44,4.36,4.36,0,0,0,1,3.27,3.35,3.35,0,0,0,2.32,1,2.93,2.93,0,0,0,2.09-.76,3.33,3.33,0,0,0,1-2h-2.81v-2.1h5V69.6h-1.67L126.67,68a5.59,5.59,0,0,1-1.32,1.25,4.47,4.47,0,0,1-2.46.64,5,5,0,0,1-4-1.73,6.76,6.76,0,0,1-1.61-4.75A7.15,7.15,0,0,1,119,58.56a6.08,6.08,0,0,1,8-.62,4.5,4.5,0,0,1,1.6,3Z"/><path id="Shape-2" data-name="Shape" d="M138.31,68.46a4.82,4.82,0,0,1-6.89,0,5.9,5.9,0,0,1,0-7,4.77,4.77,0,0,1,6.89,0,5.9,5.9,0,0,1,0,7Zm-1.87-1.34a4.5,4.5,0,0,0,0-4.3,2,2,0,0,0-3.17,0,4.44,4.44,0,0,0,0,4.3,2,2,0,0,0,3.17,0Z"/><path id="Shape-3" data-name="Shape" d="M148.61,68.46a4.83,4.83,0,0,1-6.9,0,5.93,5.93,0,0,1,0-7,4.78,4.78,0,0,1,6.9,0,5.93,5.93,0,0,1,0,7Zm-1.88-1.34a4.44,4.44,0,0,0,0-4.3,2,2,0,0,0-3.16,0,4.44,4.44,0,0,0,0,4.3,2,2,0,0,0,3.16,0Z"/><path id="Shape-4" data-name="Shape" d="M155.86,60.31a2.85,2.85,0,0,1,1.38,1.34V60.32h2.29v8.8a5.1,5.1,0,0,1-.59,2.71c-.67,1-1.95,1.56-3.85,1.56a5,5,0,0,1-2.8-.7,2.57,2.57,0,0,1-1.21-2.08h2.56a1,1,0,0,0,.32.61,1.85,1.85,0,0,0,1.27.33,1.69,1.69,0,0,0,1.7-.87,4.68,4.68,0,0,0,.28-1.89v-.6a3,3,0,0,1-.73.9,2.9,2.9,0,0,1-1.82.55,3.41,3.41,0,0,1-2.76-1.26,5.2,5.2,0,0,1-1-3.4,5.94,5.94,0,0,1,1-3.48,3.26,3.26,0,0,1,2.82-1.41,3.17,3.17,0,0,1,1.18.22Zm.8,6.65a3.09,3.09,0,0,0,.56-2,3.24,3.24,0,0,0-.53-2,1.75,1.75,0,0,0-1.44-.69,1.72,1.72,0,0,0-1.7,1.2,4.46,4.46,0,0,0-.24,1.58,3.75,3.75,0,0,0,.26,1.44,1.69,1.69,0,0,0,1.7,1.17,1.76,1.76,0,0,0,1.39-.64Z"/><polygon id="Path-9" data-name="Path" points="164.11 69.6 161.76 69.6 161.76 57.05 164.11 57.05 164.11 69.6"/><path id="Shape-5" data-name="Shape" d="M172.24,60.5a3.75,3.75,0,0,1,1.55,1.38,4.67,4.67,0,0,1,.72,1.91,12.72,12.72,0,0,1,.07,1.85h-6.53a2.1,2.1,0,0,0,2.23,2.3,1.82,1.82,0,0,0,1.79-1.06h2.39a3.07,3.07,0,0,1-.87,1.68,4.27,4.27,0,0,1-3.37,1.35,4.78,4.78,0,0,1-3.16-1.14,4.59,4.59,0,0,1-1.37-3.72,5.11,5.11,0,0,1,1.24-3.69,4.23,4.23,0,0,1,3.2-1.29A5.08,5.08,0,0,1,172.24,60.5Zm-3.51,2.1a2.54,2.54,0,0,0-.62,1.44h4a2,2,0,0,0-.63-1.47,2,2,0,0,0-1.39-.5,1.86,1.86,0,0,0-1.4.53Z"/><polygon id="Path-10" data-name="Path" points="180.68 57.05 183.18 57.05 183.18 62.22 187.86 57.05 191.14 57.05 186.16 62.21 191.39 69.6 188.13 69.6 184.4 64.12 183.18 65.4 183.18 69.6 180.68 69.6 180.68 57.05"/><path id="Path-11" data-name="Path" d="M195,60.32v5.59a3,3,0,0,0,.18,1.19,1.22,1.22,0,0,0,1.25.71,1.63,1.63,0,0,0,1.64-1,3.69,3.69,0,0,0,.23-1.44v-5h2.38V69.6h-2.28V68.28a2.93,2.93,0,0,0-.17.26,1.61,1.61,0,0,1-.31.38,3,3,0,0,1-2.26.88,2.65,2.65,0,0,1-2.68-1.48,5.84,5.84,0,0,1-.38-2.41V60.32Z"/><path id="Shape-6" data-name="Shape" d="M210.57,61.43a5.44,5.44,0,0,1,1,3.41,6.1,6.1,0,0,1-1,3.58A3.2,3.2,0,0,1,207.87,70a3.14,3.14,0,0,1-2.72-1.55V69.6h-2.32V57.06h2.35v4.47a3.31,3.31,0,0,1,1-1,2.93,2.93,0,0,1,1.63-.43,3.3,3.3,0,0,1,2.78,1.32Zm-2,5.65a3.47,3.47,0,0,0,.51-2,4.52,4.52,0,0,0-.25-1.63,1.75,1.75,0,0,0-1.74-1.23,1.77,1.77,0,0,0-1.77,1.2,4.63,4.63,0,0,0-.25,1.65,3.61,3.61,0,0,0,.52,2,1.72,1.72,0,0,0,1.56.78,1.6,1.6,0,0,0,1.42-.76Z"/><path id="Shape-7" data-name="Shape" d="M219.05,60.5a3.69,3.69,0,0,1,1.55,1.38,4.67,4.67,0,0,1,.72,1.91,12.73,12.73,0,0,1,.08,1.85h-6.54a2.1,2.1,0,0,0,2.23,2.3,1.82,1.82,0,0,0,1.79-1.06h2.39a3.07,3.07,0,0,1-.87,1.68A4.27,4.27,0,0,1,217,69.91a4.78,4.78,0,0,1-3.16-1.14,4.59,4.59,0,0,1-1.37-3.72,5.11,5.11,0,0,1,1.24-3.69,4.23,4.23,0,0,1,3.2-1.29A5.08,5.08,0,0,1,219.05,60.5Zm-3.5,2.1a2.55,2.55,0,0,0-.63,1.44h4a2.06,2.06,0,0,0-.62-1.47,2,2,0,0,0-1.39-.5,1.83,1.83,0,0,0-1.4.53Z"/><path id="Path-12" data-name="Path" d="M227.56,60.1h.2V62.6l-.39,0h-.28a1.94,1.94,0,0,0-1.9,1,3.88,3.88,0,0,0-.27,1.65V69.6h-2.36V60.32h2.23v1.61a4.91,4.91,0,0,1,1-1.26,2.56,2.56,0,0,1,1.71-.58Z"/><path id="Path-13" data-name="Path" d="M236.37,60.85a3.11,3.11,0,0,1,.88,2.5V69.6h-2.4V64a2.67,2.67,0,0,0-.19-1.12,1.3,1.3,0,0,0-1.31-.72,1.62,1.62,0,0,0-1.62,1,3.76,3.76,0,0,0-.23,1.41v5h-2.34V60.33h2.27v1.36a3.84,3.84,0,0,1,.85-1,2.93,2.93,0,0,1,1.83-.57A3.4,3.4,0,0,1,236.37,60.85Z"/><path id="Shape-8" data-name="Shape" d="M245.28,60.5a3.75,3.75,0,0,1,1.55,1.38,4.66,4.66,0,0,1,.71,1.91,12.73,12.73,0,0,1,.08,1.85h-6.53a2.1,2.1,0,0,0,2.23,2.3,1.8,1.8,0,0,0,1.78-1.06h2.4a3.14,3.14,0,0,1-.87,1.68,4.29,4.29,0,0,1-3.38,1.35,4.78,4.78,0,0,1-3.16-1.14,4.59,4.59,0,0,1-1.36-3.72A5.1,5.1,0,0,1,240,61.36a4.24,4.24,0,0,1,3.21-1.29,5.14,5.14,0,0,1,2.11.43Zm-3.51,2.1a2.62,2.62,0,0,0-.63,1.44h4a2.06,2.06,0,0,0-.62-1.47,2,2,0,0,0-1.39-.5,1.83,1.83,0,0,0-1.4.53Z"/><path id="Path-14" data-name="Path" d="M247.88,62.13V60.4h1.25V57.81h2.32V60.4h1.46v1.73h-1.46V67a1.16,1.16,0,0,0,.14.71,1.51,1.51,0,0,0,.86.14h.46v1.81l-1.11,0a2.91,2.91,0,0,1-2.27-.59,1.86,1.86,0,0,1-.4-1.29V62.13Z"/><path id="Shape-9" data-name="Shape" d="M260.26,60.5a3.75,3.75,0,0,1,1.55,1.38,4.67,4.67,0,0,1,.72,1.91,12.72,12.72,0,0,1,.07,1.85h-6.53a2.1,2.1,0,0,0,2.23,2.3,1.82,1.82,0,0,0,1.79-1.06h2.39a3.07,3.07,0,0,1-.87,1.68,4.27,4.27,0,0,1-3.37,1.35,4.78,4.78,0,0,1-3.16-1.14,4.56,4.56,0,0,1-1.37-3.72,5.14,5.14,0,0,1,1.23-3.69,4.27,4.27,0,0,1,3.21-1.29,5.08,5.08,0,0,1,2.11.43Zm-3.51,2.1a2.54,2.54,0,0,0-.62,1.44h4a2.07,2.07,0,0,0-.63-1.47,2,2,0,0,0-1.39-.5,1.86,1.86,0,0,0-1.4.53Z"/><path id="Path-15" data-name="Path" d="M265.61,66.63a1.58,1.58,0,0,0,.32.92,2.13,2.13,0,0,0,1.62.49,2.43,2.43,0,0,0,1.1-.21.71.71,0,0,0,.41-.61.73.73,0,0,0-.33-.66,13.81,13.81,0,0,0-2.45-.73,5,5,0,0,1-2.15-1,2.14,2.14,0,0,1-.63-1.67,2.92,2.92,0,0,1,1-2.2,3.86,3.86,0,0,1,2.75-.93,4.9,4.9,0,0,1,2.74.7,3,3,0,0,1,1.22,2.39h-2.35a1.52,1.52,0,0,0-.25-.74,1.61,1.61,0,0,0-1.32-.49,1.78,1.78,0,0,0-1.1.25.69.69,0,0,0-.32.57.63.63,0,0,0,.34.61,15.07,15.07,0,0,0,2.45.67,4.42,4.42,0,0,1,2.1,1,2.37,2.37,0,0,1,.69,1.75,2.82,2.82,0,0,1-1,2.25,4.57,4.57,0,0,1-3.07.87,4.48,4.48,0,0,1-3.13-.92,3.07,3.07,0,0,1-1-2.36Z"/><polygon id="Path-16" data-name="Path" points="287 59.27 280.58 59.27 280.58 61.93 286.47 61.93 286.47 64.11 280.58 64.11 280.58 67.34 287.3 67.34 287.3 69.6 278.11 69.6 278.11 57.05 287 57.05 287 59.27"/><path id="Path-17" data-name="Path" d="M296.32,60.85a3.18,3.18,0,0,1,.88,2.5V69.6h-2.41V64a2.67,2.67,0,0,0-.18-1.12,1.33,1.33,0,0,0-1.31-.72,1.63,1.63,0,0,0-1.63,1,4,4,0,0,0-.23,1.41v5H289.1V60.33h2.27v1.36a4.25,4.25,0,0,1,.85-1,3,3,0,0,1,1.83-.57A3.43,3.43,0,0,1,296.32,60.85Z"/><path id="Shape-10" data-name="Shape" d="M303.81,60.31a2.81,2.81,0,0,1,1.38,1.34V60.32h2.29v8.8a5.1,5.1,0,0,1-.58,2.71c-.67,1-2,1.56-3.85,1.56a5.05,5.05,0,0,1-2.81-.7,2.58,2.58,0,0,1-1.2-2.08h2.55a1.1,1.1,0,0,0,.32.61,1.89,1.89,0,0,0,1.28.33,1.68,1.68,0,0,0,1.69-.87,4.51,4.51,0,0,0,.28-1.89v-.6a3,3,0,0,1-.72.9,2.9,2.9,0,0,1-1.82.55,3.38,3.38,0,0,1-2.76-1.26,5.14,5.14,0,0,1-1-3.4,5.8,5.8,0,0,1,1-3.48,3.26,3.26,0,0,1,2.82-1.41A3.12,3.12,0,0,1,303.81,60.31Zm.8,6.65a3,3,0,0,0,.57-2,3.19,3.19,0,0,0-.54-2,1.74,1.74,0,0,0-1.44-.69,1.7,1.7,0,0,0-1.69,1.2,4.47,4.47,0,0,0-.25,1.58,3.75,3.75,0,0,0,.26,1.44,1.71,1.71,0,0,0,1.71,1.17,1.74,1.74,0,0,0,1.38-.64Z"/><path id="Shape-11" data-name="Shape" d="M312.08,59.21H309.7V57h2.38Zm-2.38,1.11h2.38V69.6H309.7Z"/><path id="Path-18" data-name="Path" d="M321.58,60.85a3.15,3.15,0,0,1,.89,2.5V69.6h-2.41V64a2.67,2.67,0,0,0-.18-1.12,1.33,1.33,0,0,0-1.31-.72,1.63,1.63,0,0,0-1.63,1,4,4,0,0,0-.23,1.41v5h-2.34V60.33h2.27v1.36a4,4,0,0,1,.85-1,3,3,0,0,1,1.83-.57,3.38,3.38,0,0,1,2.26.76Z"/><path id="Shape-12" data-name="Shape" d="M330.49,60.5A3.75,3.75,0,0,1,332,61.88a4.52,4.52,0,0,1,.71,1.91,11.46,11.46,0,0,1,.08,1.85H326.3a2.1,2.1,0,0,0,2.23,2.3,1.79,1.79,0,0,0,1.78-1.06h2.4a3.07,3.07,0,0,1-.87,1.68,4.27,4.27,0,0,1-3.37,1.35,4.78,4.78,0,0,1-3.16-1.14,4.56,4.56,0,0,1-1.37-3.72,5.14,5.14,0,0,1,1.23-3.69,4.27,4.27,0,0,1,3.21-1.29,5.11,5.11,0,0,1,2.11.43ZM327,62.6a2.54,2.54,0,0,0-.62,1.44h4a2.07,2.07,0,0,0-.63-1.47,2,2,0,0,0-1.39-.5,1.84,1.84,0,0,0-1.4.53Z"/></g></g></g></g></svg>