<svg viewBox="0 0 290 59" xmlns="http://www.w3.org/2000/svg" fill-rule="evenodd" clip-rule="evenodd" stroke-linejoin="round" stroke-miterlimit="2"><path d="M62.247 26.54l-13-22.66a5.715 5.715 0 00-4.86-2.9h-25.83a5.715 5.715 0 00-4.86 2.9L.757 26.48a5.684 5.684 0 000 5.67l12.94 22.82a5.737 5.737 0 004.86 3h25.88a5.726 5.726 0 004.86-3l13-22.65a5.948 5.948 0 000-5.78h-.05z" fill-rule="nonzero"/><path d="M39.957 16.92l-.24 1.1-2.07-2-12.44 1.8-8.21 9.94 3 3-2.62-.7 6.46 11.42 17 15.5h4.14a5.826 5.826 0 004.92-3l10.07-17.27-20.01-19.79z" fill-opacity=".07" fill-rule="nonzero"/><path d="M46.997 28.98l-6.5-12-6.5 12 6.5 12 6.5-12zM16.997 28.98l6.98 12h14.02l-6.98-12h-14.02zM30.897 27.98l7.1-12h-14l-7 12h13.9z" fill-rule="nonzero"/><path d="M64.197 26.48L50.837 3a5.846 5.846 0 00-5-3h-26.72a5.865 5.865 0 00-5 3L.767 26.39a6.008 6.008 0 000 5.87l13.33 23.6a6.007 6.007 0 005 3.12h26.74a6.007 6.007 0 005-3.12l13.36-23.46a6.004 6.004 0 000-5.94v.02z" fill="#4285f4" fill-rule="nonzero"/><path d="M45.087 21.8l-13.08-5.82-12.49 6.78-.52 14.91 21.33 21.31h5.11a6.007 6.007 0 005-3.1l10.52-18.25-15.87-15.83z" fill-opacity=".07" fill-rule="nonzero"/><path d="M45.237 21.29l-12-7a1.393 1.393 0 00-1.37 0l-12 7c-.416.252-.67.704-.67 1.19v14a1.4 1.4 0 00.69 1.18l12 7a1.34 1.34 0 001.37 0l12-7c.402-.259.65-.702.66-1.18v-14a1.362 1.362 0 00-.68-1.19zm-1.61 13.84l-4.18-2.42v-6.44l-6.17 3.57v7.23l5.56-3.22 4.18 2.42-10.39 6.06-10.35-6.06 4.18-2.42 5.52 3.22v-7.2l-6.14-3.56v6.4l-4.18 2.42V23.05l10.35-6v4.83l-5.52 3.22 6.17 3.56 6.18-3.56-5.56-3.22V17l10.35 6v12.13z" fill="#fff" fill-rule="nonzero"/><g fill-rule="nonzero"><path d="M82.907 26.48a2.443 2.443 0 00-1.41-1.79 3.184 3.184 0 00-1.39-.28 2.934 2.934 0 00-2.4 1.14 5.303 5.303 0 00-1 3.44 4.363 4.363 0 001 3.27 3.352 3.352 0 002.32 1 2.933 2.933 0 002.09-.76 3.329 3.329 0 001-2h-2.81v-2.1h5v6.68h-1.67l-.13-1.6a5.599 5.599 0 01-1.32 1.25 4.47 4.47 0 01-2.46.64 5.004 5.004 0 01-4-1.73 6.76 6.76 0 01-1.61-4.75 7.154 7.154 0 011.72-4.85 6.1 6.1 0 018-.62 4.5 4.5 0 011.6 3l-2.53.06zM95.147 33.94a4.822 4.822 0 01-6.89 0 5.915 5.915 0 010-7 4.772 4.772 0 016.89 0 5.915 5.915 0 010 7zm-1.87-1.34a4.506 4.506 0 000-4.3 2 2 0 00-3.17 0 4.442 4.442 0 000 4.3 2 2 0 003.17 0zM105.447 33.94a4.83 4.83 0 01-6.9 0 5.943 5.943 0 010-7 4.78 4.78 0 016.9 0 5.943 5.943 0 010 7zm-1.88-1.34a4.442 4.442 0 000-4.3 2.002 2.002 0 00-3.16 0 4.442 4.442 0 000 4.3 2.002 2.002 0 003.16 0zM112.697 25.79a2.852 2.852 0 011.38 1.34V25.8h2.29v8.8a5.106 5.106 0 01-.59 2.71c-.67 1-1.95 1.56-3.85 1.56a5.003 5.003 0 01-2.8-.7 2.575 2.575 0 01-1.21-2.08h2.56c.031.235.145.451.32.61.37.261.821.379 1.27.33a1.694 1.694 0 001.7-.87 4.678 4.678 0 00.28-1.89v-.6c-.183.345-.43.65-.73.9a2.901 2.901 0 01-1.82.55 3.412 3.412 0 01-2.76-1.26 5.202 5.202 0 01-1-3.4 5.943 5.943 0 011-3.48 3.261 3.261 0 012.82-1.41c.404-.002.804.072 1.18.22h-.04zm.8 6.65c.412-.582.61-1.289.56-2a3.24 3.24 0 00-.53-2 1.751 1.751 0 00-1.44-.69 1.724 1.724 0 00-1.7 1.2 4.465 4.465 0 00-.24 1.58c-.009.492.08.982.26 1.44a1.694 1.694 0 001.7 1.17 1.76 1.76 0 001.39-.64v-.06zM118.597 22.53h2.35v12.55h-2.35zM129.077 25.98a3.751 3.751 0 011.55 1.38c.378.576.624 1.228.72 1.91.068.614.092 1.232.07 1.85h-6.53a2.11 2.11 0 002.23 2.3 1.822 1.822 0 001.79-1.06h2.39a3.065 3.065 0 01-.87 1.68 4.273 4.273 0 01-3.37 1.35 4.778 4.778 0 01-3.16-1.14 4.59 4.59 0 01-1.37-3.72 5.109 5.109 0 011.24-3.69 4.232 4.232 0 013.2-1.29 5.09 5.09 0 012.11.43zm-3.51 2.1c-.353.403-.57.907-.62 1.44h4a2 2 0 00-.63-1.47 1.998 1.998 0 00-1.39-.5 1.861 1.861 0 00-1.4.53h.04zM137.517 22.53h2.5v5.17l4.68-5.17h3.28l-4.98 5.16 5.23 7.39h-3.26l-3.73-5.48-1.22 1.28v4.2h-2.5V22.53zM151.837 25.8v5.59c-.02.405.04.81.18 1.19.218.482.725.77 1.25.71a1.635 1.635 0 001.64-1c.172-.46.25-.949.23-1.44v-5h2.38v9.23h-2.28v-1.32c-.06.084-.118.17-.17.26-.083.142-.188.27-.31.38a3.002 3.002 0 01-2.26.88 2.656 2.656 0 01-2.68-1.48 5.847 5.847 0 01-.38-2.41V25.8h2.4zM167.407 26.91a5.436 5.436 0 011 3.41 6.1 6.1 0 01-1 3.58 3.203 3.203 0 01-2.7 1.58 3.143 3.143 0 01-2.72-1.55v1.15h-2.32V22.54h2.35v4.47a3.312 3.312 0 011-1 2.931 2.931 0 011.63-.43 3.303 3.303 0 012.78 1.32l-.02.01zm-2 5.65a3.467 3.467 0 00.51-2 4.517 4.517 0 00-.25-1.63 1.755 1.755 0 00-1.74-1.23 1.774 1.774 0 00-1.77 1.2 4.625 4.625 0 00-.25 1.65 3.617 3.617 0 00.52 2c.34.523.938.822 1.56.78a1.601 1.601 0 001.42-.76v-.01zM175.887 25.98a3.687 3.687 0 011.55 1.38c.378.576.624 1.228.72 1.91.072.614.098 1.232.08 1.85h-6.54a2.11 2.11 0 002.23 2.3 1.822 1.822 0 001.79-1.06h2.39a3.065 3.065 0 01-.87 1.68 4.27 4.27 0 01-3.4 1.35 4.778 4.778 0 01-3.16-1.14 4.59 4.59 0 01-1.37-3.72 5.109 5.109 0 011.24-3.69 4.232 4.232 0 013.2-1.29 5.083 5.083 0 012.14.43zm-3.5 2.1a2.554 2.554 0 00-.63 1.44h4a2.06 2.06 0 00-.62-1.47 1.998 1.998 0 00-1.39-.5 1.83 1.83 0 00-1.4.53h.04zM184.397 25.58h.2v2.5h-.67a1.944 1.944 0 00-1.9 1 3.878 3.878 0 00-.27 1.65v4.35h-2.36V25.8h2.23v1.61a4.92 4.92 0 011-1.26 2.558 2.558 0 011.71-.58l.06.01zM193.207 26.33c.651.66.974 1.578.88 2.5v6.25h-2.4v-5.6a2.663 2.663 0 00-.19-1.12 1.303 1.303 0 00-1.31-.72 1.624 1.624 0 00-1.62 1c-.166.451-.244.93-.23 1.41v5h-2.34v-9.24h2.27v1.36c.224-.38.511-.718.85-1a2.926 2.926 0 011.83-.57 3.403 3.403 0 012.26.73zM202.117 25.98a3.751 3.751 0 011.55 1.38c.375.576.617 1.229.71 1.91.072.614.098 1.232.08 1.85h-6.53a2.11 2.11 0 002.23 2.3 1.802 1.802 0 001.78-1.06h2.4a3.136 3.136 0 01-.87 1.68 4.292 4.292 0 01-3.38 1.35 4.778 4.778 0 01-3.16-1.14 4.594 4.594 0 01-1.36-3.72 5.103 5.103 0 011.27-3.69 4.244 4.244 0 013.21-1.29 5.138 5.138 0 012.11.43h-.04zm-3.51 2.1a2.625 2.625 0 00-.63 1.44h4a2.06 2.06 0 00-.62-1.47 1.998 1.998 0 00-1.39-.5 1.83 1.83 0 00-1.4.53h.04zM204.717 27.61v-1.73h1.25v-2.59h2.32v2.59h1.46v1.73h-1.46v4.87c-.03.246.02.494.14.71.267.13.566.179.86.14h.46v1.81h-1.11a2.913 2.913 0 01-2.27-.59 1.862 1.862 0 01-.4-1.29v-5.65h-1.25zM217.097 25.98a3.751 3.751 0 011.55 1.38c.378.576.624 1.228.72 1.91.068.614.092 1.232.07 1.85h-6.53a2.11 2.11 0 002.23 2.3 1.822 1.822 0 001.79-1.06h2.39a3.065 3.065 0 01-.87 1.68 4.273 4.273 0 01-3.37 1.35 4.778 4.778 0 01-3.16-1.14 4.565 4.565 0 01-1.37-3.72 5.144 5.144 0 011.23-3.69 4.274 4.274 0 013.21-1.29 5.09 5.09 0 012.11.43zm-3.51 2.1c-.353.403-.57.907-.62 1.44h4a2.075 2.075 0 00-.63-1.47 1.998 1.998 0 00-1.39-.5 1.861 1.861 0 00-1.4.53h.04zM222.447 32.11c.007.333.12.655.32.92.45.38 1.036.557 1.62.49a2.42 2.42 0 001.1-.21.712.712 0 00.41-.61.732.732 0 00-.33-.66 13.772 13.772 0 00-2.45-.73 5 5 0 01-2.15-1 2.14 2.14 0 01-.63-1.67c0-.843.365-1.646 1-2.2a3.859 3.859 0 012.75-.93 4.906 4.906 0 012.74.7 3 3 0 011.22 2.39h-2.35a1.521 1.521 0 00-.25-.74 1.61 1.61 0 00-1.32-.49c-.384-.038-.77.05-1.1.25a.692.692 0 00-.32.57.63.63 0 00.34.61 15.05 15.05 0 002.45.67c.777.14 1.502.485 2.1 1 .461.463.711 1.097.69 1.75a2.822 2.822 0 01-1 2.25 4.574 4.574 0 01-3.07.87 4.478 4.478 0 01-3.13-.92 3.072 3.072 0 01-1-2.36l2.36.05zM243.837 24.75h-6.42v2.66h5.89v2.18h-5.89v3.23h6.72v2.26h-9.19V22.53h8.89v2.22zM253.157 26.33c.643.665.964 1.579.88 2.5v6.25h-2.41v-5.6a2.66 2.66 0 00-.18-1.12 1.332 1.332 0 00-1.31-.72 1.633 1.633 0 00-1.63 1c-.16.452-.239.93-.23 1.41v5h-2.34v-9.24h2.27v1.36c.23-.375.517-.713.85-1a3 3 0 011.83-.57 3.43 3.43 0 012.27.73zM260.647 25.79a2.81 2.81 0 011.38 1.34V25.8h2.29v8.8a5.093 5.093 0 01-.58 2.71c-.67 1-2 1.56-3.85 1.56a5.046 5.046 0 01-2.81-.7 2.582 2.582 0 01-1.2-2.08h2.55c.04.232.151.446.32.61.373.26.828.378 1.28.33a1.684 1.684 0 001.69-.87 4.51 4.51 0 00.28-1.89v-.6c-.18.344-.424.649-.72.9a2.901 2.901 0 01-1.82.55 3.38 3.38 0 01-2.76-1.26 5.14 5.14 0 01-1-3.4 5.797 5.797 0 011-3.48 3.261 3.261 0 012.82-1.41c.387.003.77.077 1.13.22zm.8 6.65a3 3 0 00.57-2 3.19 3.19 0 00-.54-2 1.742 1.742 0 00-1.44-.69 1.704 1.704 0 00-1.69 1.2 4.47 4.47 0 00-.25 1.58c-.009.492.08.982.26 1.44a1.714 1.714 0 001.71 1.17 1.742 1.742 0 001.38-.64v-.06zM268.917 24.69h-2.38v-2.21h2.38v2.21zm-2.38 1.11h2.38v9.28h-2.38V25.8zM278.417 26.33c.65.661.976 1.577.89 2.5v6.25h-2.41v-5.6a2.66 2.66 0 00-.18-1.12 1.332 1.332 0 00-1.31-.72 1.633 1.633 0 00-1.63 1c-.16.452-.239.93-.23 1.41v5h-2.34v-9.24h2.27v1.36c.226-.378.514-.716.85-1a3 3 0 011.83-.57c.82-.03 1.624.241 2.26.76v-.03zM287.327 25.98a3.754 3.754 0 011.51 1.38c.38.574.622 1.228.71 1.91.077.613.103 1.232.08 1.85h-6.49a2.11 2.11 0 002.23 2.3 1.793 1.793 0 001.78-1.06h2.4a3.065 3.065 0 01-.87 1.68 4.273 4.273 0 01-3.37 1.35 4.778 4.778 0 01-3.16-1.14 4.565 4.565 0 01-1.37-3.72 5.144 5.144 0 011.23-3.69 4.274 4.274 0 013.21-1.29 5.106 5.106 0 012.11.43zm-3.49 2.1c-.353.403-.57.907-.62 1.44h4a2.075 2.075 0 00-.63-1.47 1.998 1.998 0 00-1.39-.5 1.84 1.84 0 00-1.4.53h.04z"/></g></svg>