<svg height="267" viewBox="0 0 584 267" width="584" xmlns="http://www.w3.org/2000/svg" xmlns:xlink="http://www.w3.org/1999/xlink"><linearGradient id="a" x1="50%" x2="50%" y1="116.203136%" y2="33.035714%"><stop offset="0" stop-color="#d7e7ff"/><stop offset="1" stop-color="#fff" stop-opacity="0"/></linearGradient><linearGradient id="b" x1="100%" x2="-5.289578%" y1="46.307837%" y2="46.307838%"><stop offset="0" stop-color="#edfdff"/><stop offset="1" stop-color="#ecf5ff"/></linearGradient><linearGradient id="c" x1="100%" x2="-5.289578%" y1="46.307837%" y2="46.307838%"><stop offset="0" stop-color="#edefff"/><stop offset="1" stop-color="#ecf5ff"/></linearGradient><linearGradient id="d" x1="100%" x2="-5.289578%" y1="46.307837%" y2="46.307838%"><stop offset="0" stop-color="#ffedfa"/><stop offset="1" stop-color="#ffecf6"/></linearGradient><mask id="e" fill="#fff"><path d="m2 0h580c1.104569 0 2 .8954305 2 2v35c0 1.1045695-.895431 2-2 2h-580c-1.1045695 0-2-.8954305-2-2v-35c0-1.1045695.8954305-2 2-2zm1 2c-.55228475 0-1 .44771525-1 1v33c0 .5522847.44771525 1 1 1h578c.552285 0 1-.4477153 1-1v-33c0-.55228475-.447715-1-1-1z" fill="#fff" fill-rule="evenodd"/></mask><mask id="f" fill="#fff"><path d="m2 0h74c1.1045695 0 2 .8954305 2 2v18c0 1.1045695-.8954305 2-2 2h-74c-1.1045695 0-2-.8954305-2-2v-18c0-1.1045695.8954305-2 2-2zm1 2c-.55228475 0-1 .44771525-1 1v16c0 .5522847.44771525 1 1 1h72c.5522847 0 1-.4477153 1-1v-16c0-.55228475-.4477153-1-1-1z" fill="#fff" fill-rule="evenodd"/></mask><mask id="g" fill="#fff"><path d="m2 0h80c1.1045695 0 2 .8954305 2 2v18c0 1.1045695-.8954305 2-2 2h-80c-1.1045695 0-2-.8954305-2-2v-18c0-1.1045695.8954305-2 2-2zm1 2c-.55228475 0-1 .44771525-1 1v16c0 .5522847.44771525 1 1 1h78c.5522847 0 1-.4477153 1-1v-16c0-.55228475-.4477153-1-1-1z" fill="#fff" fill-rule="evenodd"/></mask><mask id="h" fill="#fff"><path d="m2 0h86c1.1045695 0 2 .8954305 2 2v18c0 1.1045695-.8954305 2-2 2h-86c-1.1045695 0-2-.8954305-2-2v-18c0-1.1045695.8954305-2 2-2zm1 2c-.55228475 0-1 .44771525-1 1v16c0 .5522847.44771525 1 1 1h84c.5522847 0 1-.4477153 1-1v-16c0-.55228475-.4477153-1-1-1z" fill="#fff" fill-rule="evenodd"/></mask><mask id="i" fill="#fff"><path d="m2 0h81c1.1045695 0 2 .8954305 2 2v18c0 1.1045695-.8954305 2-2 2h-81c-1.1045695 0-2-.8954305-2-2v-18c0-1.1045695.8954305-2 2-2zm1 2c-.55228475 0-1 .44771525-1 1v16c0 .5522847.44771525 1 1 1h79c.5522847 0 1-.4477153 1-1v-16c0-.55228475-.4477153-1-1-1z" fill="#fff" fill-rule="evenodd"/></mask><mask id="j" fill="#fff"><path d="m2 0h122c1.104569 0 2 .8954305 2 2v18c0 1.1045695-.895431 2-2 2h-122c-1.1045695 0-2-.8954305-2-2v-18c0-1.1045695.8954305-2 2-2zm1 2c-.55228475 0-1 .44771525-1 1v16c0 .5522847.44771525 1 1 1h120c.552285 0 1-.4477153 1-1v-16c0-.55228475-.447715-1-1-1z" fill="#fff" fill-rule="evenodd"/></mask><g fill="none" fill-rule="evenodd" transform="translate(0 -1)"><g transform="translate(0 114)"><g transform="translate(0 115)"><path d="m0 0h584v39h-584z"/><g transform="translate(2 2)"><path d="m0 0h580v35h-580z"/><path d="m0 0h580v35h-580z" fill="#fff" fill-rule="evenodd"/></g><g mask="url(#e)"><path d="m0 0h584v39h-584z"/><path d="m0 0h584v39h-584z" fill="#e6e9f5" fill-rule="evenodd"/></g><g transform="translate(12 10)"><text/><g stroke="#8f94b0" stroke-linecap="round" stroke-linejoin="round" stroke-width="1.333333" transform="translate(552 6)"><path d="m8.00000054 0-8.00000054 8.00000054"/><path d="m0 0 8.00000054 8.00000054"/></g></g><circle cx="17.67936" cy="19.67936" r="5.67936" stroke="#8f94b0" stroke-linecap="round" stroke-linejoin="round" stroke-width="1.41984"/><path d="m24.7785593 26.7785593-3.0881518-3.0881518" stroke="#8f94b0" stroke-linecap="round" stroke-linejoin="round" stroke-width="1.41984"/><g transform="translate(34 9)"><path d="m0 0h78v22h-78z"/><g fill-rule="evenodd"><path d="m2 2h74v18h-74z" fill="#edf6ff"/><g fill="#a1c7ed" mask="url(#f)"><path d="m0 0h78v22h-78z"/></g></g></g><path d="m65.9306641 18.0185547c-.5696643 0-1.0107407.2140278-1.3232422.6420898-.3125016.4280621-.46875 1.024573-.46875 1.7895508 0 1.5918048.5973247 2.3876953 1.7919922 2.3876953.5013046 0 1.1083948-.1253242 1.821289-.3759765v1.2695312c-.5859404.2441419-1.2402307.3662109-1.9628906.3662109-1.0384167 0-1.8326795-.3149382-2.3828125-.9448242-.550133-.6298859-.8251953-1.534011-.8251953-2.7124023 0-.7421912.1350898-1.3924126.4052734-1.9506836.2701837-.558271.6583634-.9863266 1.1645508-1.2841797.5061874-.297853 1.0994432-.4467773 1.7797852-.4467773.6933628 0 1.3899704.1676415 2.0898437.5029297l-.4882812 1.2304687c-.2669285-.1269538-.5354805-.2376297-.8056641-.3320313-.2701836-.0944015-.5354805-.1416015-.7958984-.1416015zm5.211914 5.9814453h-1.4892578v-7.5976562h1.4892578zm5.9296875 0-.2001953-.6982422h-.078125c-.159506.2539075-.3857407.4500319-.6787109.5883789-.2929702.1383471-.6266258.2075195-1.0009766.2075195-.6412792 0-1.1246728-.1717105-1.4501953-.5151367s-.4882813-.8373991-.4882813-1.4819336v-3.5595703h1.4892579v3.1884766c0 .3938822.0699862.6892894.2099609.8862305.1399747.196941.3629542.2954101.6689453.2954101.4166688 0 .7177725-.1391588.9033203-.4174805s.2783203-.7397428.2783203-1.3842773v-2.5683594h1.4892579v5.4589844zm7.0136719-1.6210938c0 .5598987-.1944968.9863267-.5834961 1.2792969s-.970862.4394531-1.7456055.4394531c-.3971374 0-.7356756-.0268552-1.015625-.0805664-.2799493-.0537112-.5419909-.1326492-.7861328-.2368164v-1.2304687c.2766941.130209.5883772.2392574.9350586.3271484.3466814.0878911.6518542.131836.9155274.131836.5403672 0 .8105468-.1562485.8105468-.46875 0-.1171881-.0358069-.212402-.1074218-.2856446-.071615-.0732425-.1953117-.1562495-.3710938-.2490234s-.4101548-.2010085-.703125-.324707c-.419924-.1757822-.7283519-.338541-.925293-.4882813-.196941-.1497403-.3401688-.3214508-.4296875-.5151367-.0895186-.1936859-.1342773-.4321275-.1342773-.715332 0-.4850285.1879864-.8601875.5639648-1.1254883.3759785-.2653008.9090135-.3979492 1.5991211-.3979492.6575554 0 1.2971974.1432277 1.9189454.4296875l-.4492188 1.0742187c-.2734389-.1171881-.5289702-.2132158-.7666016-.2880859-.2376314-.0748702-.480142-.1123047-.727539-.1123047-.4394553 0-.6591797.1188139-.6591797.3564453 0 .1334642.0708001.2490229.2124023.3466797.1416023.0976567.4516578.242512.9301758.4345703.4264344.1725269.7389313.3336581.9375.4833984.1985687.1497404.3450516.3222647.4394531.5175782.0944016.1953134.1416016.4280585.1416016.6982421zm3.9619141.5322266c.2604179 0 .5729148-.0569656.9375-.1708984v1.1083984c-.3710956.1660165-.8268203.2490234-1.3671875.2490234-.5957061 0-1.0294583-.1505518-1.3012696-.4516601-.2718112-.3011083-.4077148-.7527639-.4077148-1.3549805v-2.6318359h-.7128906v-.6298828l.8203125-.4980469.4296875-1.1523438h.9521484v1.1621094h1.5283203v1.1181641h-1.5283203v2.6318359c0 .2115896.059407.3678381.1782227.46875.1188157.100912.2758779.1513672.4711914.1513672zm4.8017578-3.4130859c-.3157568 0-.5631502.1000966-.7421875.3002929-.1790374.2001964-.2815754.4842104-.3076172.8520508h2.0898437c-.0065104-.3678404-.1025381-.6518544-.2880859-.8520508-.1855478-.2001963-.4361963-.3002929-.7519531-.3002929zm.2099609 4.5996093c-.8789106 0-1.5657527-.2425105-2.0605469-.727539-.4947941-.4850285-.7421875-1.1718706-.7421875-2.0605469 0-.9147181.2286761-1.621905.6860352-2.121582s1.0896769-.7495117 1.8969727-.7495117c.7714882 0 1.3720681.2197243 1.8017578.6591796.4296896.4394554.6445312 1.0465457.6445312 1.8212891v.7226563h-3.5205078c.0162761.4231792.1416004.7535795.3759766.9912109.2343761.2376314.5631489.3564453.9863281.3564453.3287777 0 .639647-.0341793.9326172-.102539.2929702-.0683598.5989567-.1774082.9179687-.3271485v1.1523438c-.2604179.1302089-.5387355.2270504-.8349609.2905273-.2962255.0634769-.65755.0952148-1.0839844.0952148zm6.9843747-5.6591796c.201824 0 .369466.0146483.50293.0439453l-.112305 1.3964843c-.120443-.0325522-.266926-.0488281-.4394528-.0488281-.4752628 0-.8455391.1220691-1.1108399.366211-.2653008.2441418-.3979492.5859353-.3979492 1.0253906v2.7783203h-1.4892578v-5.4589844h1.1279297l.2197266.9179688h.0732422c.1692716-.3059911.3979477-.5525707.6860351-.7397461s.6013981-.2807617.9399411-.2807617zm1.78418 4.8632812c0-.2734389.073241-.4801425.219727-.6201172.146485-.1399746.359699-.2099609.639648-.2099609.270184 0 .479329.0716139.627441.2148437.148113.1432299.222168.348306.222168.6152344 0 .2571628-.074869.4597974-.224609.6079102-.14974.1481127-.358072.2221679-.625.2221679-.273439 0-.485025-.0724276-.634766-.2172851-.14974-.1448575-.224609-.3491198-.224609-.612793zm0-4.0332031c0-.2734389.073241-.4801425.219727-.6201172.146485-.1399747.359699-.2099609.639648-.2099609.270184 0 .479329.0716138.627441.2148437.148113.1432299.222168.348306.222168.6152344 0 .2636732-.075682.4679355-.22705.612793s-.358886.2172851-.622559.2172851c-.273439 0-.485025-.0716139-.634766-.2148437-.14974-.1432299-.224609-.348306-.224609-.6152344z" fill="#3f7dff"/><path d="m54.75 9.65h1.5v20.7h-1.5z" fill="#a1c7ed" fill-rule="nonzero"/><path d="m44.0893555 20.4331055-1.9335938-2.9379883h1.8583985l1.1655273 1.9121094 1.1762695-1.9121094h1.8583985l-1.9550782 2.9379883 2.0463868 3.0668945h-1.8637696l-1.262207-2.0571289-1.2675781 2.0571289h-1.8583985z" fill="#3f7dff"/><g transform="translate(116 9)"><path d="m0 0h84v22h-84z"/><g fill-rule="evenodd"><path d="m0 0h80v18h-80z" fill="#f7f8fc" transform="translate(2 2)"/><g fill="#d1d5ed" mask="url(#g)"><path d="m0 0h84v22h-84z"/></g></g></g><path d="m150.640625 24h-1.71875l-1.870117-3.0078125-.639649.4589844v2.5488281h-1.513671v-7.1386719h1.513671v3.2666016l.595703-.8398438 1.933594-2.4267578h1.679688l-2.490235 3.1591797zm5.148437 0-.200195-.6982422h-.078125c-.159506.2539075-.385741.4500319-.678711.5883789-.29297.1383471-.626625.2075195-1.000976.2075195-.64128 0-1.124673-.1717105-1.450196-.5151367-.325522-.3434262-.488281-.8373991-.488281-1.4819336v-3.5595703h1.489258v3.1884766c0 .3938822.069986.6892894.209961.8862305.139975.196941.362954.2954101.668945.2954101.416669 0 .717773-.1391588.90332-.4174805.185548-.2783217.278321-.7397428.278321-1.3842773v-2.5683594h1.489258v5.4589844zm6.242188-5.5615234c.644534 0 1.149087.2514623 1.513672.7543945s.546875 1.1922157.546875 2.0678711c0 .9016972-.187987 1.5999324-.563965 2.0947266-.375978.4947941-.887855.7421874-1.535644.7421874-.64128 0-1.144204-.232745-1.50879-.6982421h-.102539l-.249023.6005859h-1.137695v-7.5976562h1.489257v1.7675781c0 .2246105-.019531.5843074-.058593 1.0791015h.058593c.348309-.5403672.864255-.8105468 1.547852-.8105468zm-.478516 1.1914062c-.36784 0-.636392.1131174-.805664.3393555-.169271.2262381-.257161.5997695-.263672 1.1206055v.1611328c0 .5859404.087076 1.0058581.261231 1.2597656.174154.2539075.450031.3808594.827637.3808594.305991 0 .549315-.1407864.72998-.4223633s.270996-.6909153.270996-1.2280274c0-.537112-.091145-.93994-.273437-1.2084961-.182293-.268556-.431314-.402832-.747071-.402832zm6.530274-.1318359c-.315757 0-.56315.1000966-.742188.3002929-.179037.2001964-.281575.4842104-.307617.8520508h2.089844c-.006511-.3678404-.102538-.6518544-.288086-.8520508-.185548-.2001963-.436196-.3002929-.751953-.3002929zm.209961 4.5996093c-.878911 0-1.565753-.2425105-2.060547-.727539s-.742188-1.1718706-.742188-2.0605469c0-.9147181.228676-1.621905.686036-2.121582.457359-.499677 1.089676-.7495117 1.896972-.7495117.771488 0 1.372068.2197243 1.801758.6591796.42969.4394554.644531 1.0465457.644531 1.8212891v.7226563h-3.520508c.016277.4231792.141601.7535795.375977.9912109s.563149.3564453.986328.3564453c.328778 0 .639647-.0341793.932617-.102539.292971-.0683598.598957-.1774082.917969-.3271485v1.1523438c-.260418.1302089-.538735.2270504-.834961.2905273-.296225.0634769-.65755.0952148-1.083984.0952148zm3.454101-2.1679687v-1.2207031h2.622071v1.2207031zm5.929688 2.1679687c-.641279 0-1.145018-.2490209-1.511231-.7470703-.366212-.4980493-.549316-1.1881466-.549316-2.0703125 0-.8951867.186359-1.5926081.559082-2.0922851s.886227-.7495117 1.540527-.7495117c.686853 0 1.210936.2669244 1.572266.8007812h.048828c-.07487-.4069031-.112305-.7698552-.112305-1.0888672v-1.7480468h1.494141v7.5976562h-1.142578l-.288086-.7080078h-.063477c-.338543.537112-.854488.805664-1.547851.805664zm.522461-1.1865234c.380861 0 .659992-.110676.837402-.3320312.17741-.2213553.274251-.5973281.290527-1.1279297v-.1611328c0-.5859405-.090331-1.0058581-.270996-1.2597657-.180665-.2539075-.474444-.3808593-.881347-.3808593-.332033 0-.590006.1407863-.773926.4223632-.18392.281577-.275879.6909153-.275879 1.2280274 0 .537112.092773.9399401.27832 1.2084961.185548.268556.450845.402832.795899.402832zm6.83789-3.4130859c-.315756 0-.56315.1000966-.742187.3002929-.179037.2001964-.281576.4842104-.307617.8520508h2.089843c-.00651-.3678404-.102538-.6518544-.288086-.8520508-.185547-.2001963-.436196-.3002929-.751953-.3002929zm.209961 4.5996093c-.87891 0-1.565752-.2425105-2.060547-.727539-.494794-.4850285-.742187-1.1718706-.742187-2.0605469 0-.9147181.228676-1.621905.686035-2.121582s1.089677-.7495117 1.896973-.7495117c.771488 0 1.372068.2197243 1.801758.6591796.429689.4394554.644531 1.0465457.644531 1.8212891v.7226563h-3.520508c.016276.4231792.1416.7535795.375977.9912109.234376.2376314.563148.3564453.986328.3564453.328777 0 .639647-.0341793.932617-.102539.29297-.0683598.598957-.1774082.917969-.3271485v1.1523438c-.260418.1302089-.538736.2270504-.834961.2905273-.296226.0634769-.65755.0952148-1.083985.0952148zm5.036133-.0976562-2.080078-5.4589844h1.557617l1.054688 3.1103516c.117188.3938822.190429.7665998.219726 1.118164h.029297c.016276-.3125015.089518-.6852191.219727-1.118164l1.049804-3.1103516h1.557618l-2.080079 5.4589844z" fill="#53587a"/><path d="m136.75 9.65h1.5v20.7h-1.5z" fill="#d1d5ed" fill-rule="nonzero"/><path d="m126.089355 20.4331055-1.933593-2.9379883h1.858398l1.165528 1.9121094 1.176269-1.9121094h1.858398l-1.955078 2.9379883 2.046387 3.0668945h-1.863769l-1.262207-2.0571289-1.267579 2.0571289h-1.858398z" fill="#53587a"/><g transform="translate(204 9)"><path d="m0 0h90v22h-90z"/><g fill-rule="evenodd"><path d="m0 0h86v18h-86z" fill="#f7f8fc" transform="translate(2 2)"/><g fill="#d1d5ed" mask="url(#h)"><path d="m0 0h90v22h-90z"/></g></g></g><path d="m238.640625 24h-1.71875l-1.870117-3.0078125-.639649.4589844v2.5488281h-1.513671v-7.1386719h1.513671v3.2666016l.595703-.8398438 1.933594-2.4267578h1.679688l-2.490235 3.1591797zm5.148437 0-.200195-.6982422h-.078125c-.159506.2539075-.385741.4500319-.678711.5883789-.29297.1383471-.626625.2075195-1.000976.2075195-.64128 0-1.124673-.1717105-1.450196-.5151367-.325522-.3434262-.488281-.8373991-.488281-1.4819336v-3.5595703h1.489258v3.1884766c0 .3938822.069986.6892894.209961.8862305.139975.196941.362954.2954101.668945.2954101.416669 0 .717773-.1391588.90332-.4174805.185548-.2783217.278321-.7397428.278321-1.3842773v-2.5683594h1.489258v5.4589844zm6.242188-5.5615234c.644534 0 1.149087.2514623 1.513672.7543945s.546875 1.1922157.546875 2.0678711c0 .9016972-.187987 1.5999324-.563965 2.0947266-.375978.4947941-.887855.7421874-1.535644.7421874-.64128 0-1.144204-.232745-1.50879-.6982421h-.102539l-.249023.6005859h-1.137695v-7.5976562h1.489257v1.7675781c0 .2246105-.019531.5843074-.058593 1.0791015h.058593c.348309-.5403672.864255-.8105468 1.547852-.8105468zm-.478516 1.1914062c-.36784 0-.636392.1131174-.805664.3393555-.169271.2262381-.257161.5997695-.263672 1.1206055v.1611328c0 .5859404.087076 1.0058581.261231 1.2597656.174154.2539075.450031.3808594.827637.3808594.305991 0 .549315-.1407864.72998-.4223633s.270996-.6909153.270996-1.2280274c0-.537112-.091145-.93994-.273437-1.2084961-.182293-.268556-.431314-.402832-.747071-.402832zm6.530274-.1318359c-.315757 0-.56315.1000966-.742188.3002929-.179037.2001964-.281575.4842104-.307617.8520508h2.089844c-.006511-.3678404-.102538-.6518544-.288086-.8520508-.185548-.2001963-.436196-.3002929-.751953-.3002929zm.209961 4.5996093c-.878911 0-1.565753-.2425105-2.060547-.727539s-.742188-1.1718706-.742188-2.0605469c0-.9147181.228676-1.621905.686036-2.121582.457359-.499677 1.089676-.7495117 1.896972-.7495117.771488 0 1.372068.2197243 1.801758.6591796.42969.4394554.644531 1.0465457.644531 1.8212891v.7226563h-3.520508c.016277.4231792.141601.7535795.375977.9912109s.563149.3564453.986328.3564453c.328778 0 .639647-.0341793.932617-.102539.292971-.0683598.598957-.1774082.917969-.3271485v1.1523438c-.260418.1302089-.538735.2270504-.834961.2905273-.296225.0634769-.65755.0952148-1.083984.0952148zm3.454101-2.1679687v-1.2207031h2.622071v1.2207031zm7.199219 2.1679687c-.641279 0-1.144204-.232745-1.508789-.6982421h-.078125c.052084.4557314.078125.7194006.078125.7910156v2.2119141h-1.489258v-7.8613282h1.210938l.209961.7080078h.068359c.348309-.5403672.864254-.8105468 1.547852-.8105468.644534 0 1.149086.2490209 1.513671.7470703.364586.4980493.546875 1.1897742.546875 2.0751953 0 .5826852-.085448 1.088865-.256347 1.5185547-.1709.4296896-.414224.7568348-.729981.9814453-.315756.2246105-.686847.336914-1.113281.336914zm-.439453-4.4677734c-.36784 0-.636392.1131174-.805664.3393555s-.257162.5997695-.263672 1.1206055v.1611328c0 .5859404.087076 1.0058581.26123 1.2597656.174155.2539075.450031.3808594.827637.3808594.667321 0 1.000977-.5501247 1.000977-1.6503907 0-.537112-.082193-.93994-.246582-1.2084961-.164389-.268556-.422362-.402832-.773926-.402832zm7.316406-1.1914062c.201824 0 .369466.0146483.50293.0439453l-.112305 1.3964843c-.120443-.0325522-.266926-.0488281-.439453-.0488281-.475263 0-.845539.1220691-1.11084.366211-.265301.2441418-.397949.5859353-.397949 1.0253906v2.7783203h-1.489258v-5.4589844h1.12793l.219726.9179688h.073243c.169271-.3059911.397947-.5525707.686035-.7397461.288087-.1871754.601398-.2807617.939941-.2807617zm2.980469 2.8222656c0 .5403673.088703.9488918.266113 1.2255859s.466307.4150391.866699.4150391c.397138 0 .68278-.1375312.856934-.4125977.174155-.2750664.261231-.6844048.261231-1.2280273 0-.5403673-.08789-.9456367-.263672-1.2158203-.175783-.2701837-.463866-.4052735-.864258-.4052735-.397138 0-.683593.134276-.859375.4028321-.175782.268556-.263672.6746392-.263672 1.2182617zm3.774414 0c0 .8886763-.234373 1.5836563-.703125 2.0849609s-1.121415.7519531-1.958008.7519531c-.524091 0-.986326-.1147449-1.386719-.3442382-.400392-.2294934-.708006-.5590799-.922851-.9887696-.214845-.4296896-.322266-.9309867-.322266-1.5039062 0-.8919316.232745-1.585284.698242-2.0800781.465498-.4947942 1.119788-.7421875 1.962891-.7421875.524091 0 .986326.1139311 1.386719.3417968.400392.2278658.708007.5550109.922851.9814454.214845.4264344.322266.9261039.322266 1.4990234zm3.458984 2.836914c-.641279 0-1.145017-.2490209-1.51123-.7470703-.366213-.4980493-.549317-1.1881466-.549317-2.0703125 0-.8951867.186359-1.5926081.559083-2.0922851.372723-.499677.886227-.7495117 1.540527-.7495117.686852 0 1.210936.2669244 1.572266.8007812h.048828c-.074871-.4069031-.112305-.7698552-.112305-1.0888672v-1.7480468h1.494141v7.5976562h-1.142579l-.288085-.7080078h-.063477c-.338543.537112-.854489.805664-1.547852.805664zm.522461-1.1865234c.380862 0 .659993-.110676.837403-.3320312.177409-.2213553.274251-.5973281.290527-1.1279297v-.1611328c0-.5859405-.090331-1.0058581-.270996-1.2597657-.180665-.2539075-.474445-.3808593-.881348-.3808593-.332033 0-.590005.1407863-.773926.4223632-.18392.281577-.275878.6909153-.275878 1.2280274 0 .537112.092772.9399401.27832 1.2084961s.450845.402832.795898.402832z" fill="#53587a"/><path d="m224.75 9.65h1.5v20.7h-1.5z" fill="#d1d5ed" fill-rule="nonzero"/><path d="m214.089355 20.4331055-1.933593-2.9379883h1.858398l1.165528 1.9121094 1.176269-1.9121094h1.858398l-1.955078 2.9379883 2.046387 3.0668945h-1.863769l-1.262207-2.0571289-1.267579 2.0571289h-1.858398z" fill="#53587a"/><g transform="translate(299 9)"><path d="m0 0h85v22h-85z"/><g fill-rule="evenodd"><path d="m2 2h81v18h-81z" fill="#edf6ff"/><g fill="#a1c7ed" mask="url(#i)"><path d="m0 0h85v22h-85z"/></g></g></g><path d="m330.930664 18.0185547c-.569664 0-1.010741.2140278-1.323242.6420898-.312502.4280621-.46875 1.024573-.46875 1.7895508 0 1.5918048.597325 2.3876953 1.791992 2.3876953.501305 0 1.108395-.1253242 1.821289-.3759765v1.2695312c-.58594.2441419-1.240231.3662109-1.962891.3662109-1.038416 0-1.832679-.3149382-2.382812-.9448242-.550133-.6298859-.825195-1.534011-.825195-2.7124023 0-.7421912.135089-1.3924126.405273-1.9506836s.658363-.9863266 1.164551-1.2841797c.506187-.297853 1.099443-.4467773 1.779785-.4467773.693363 0 1.389971.1676415 2.089844.5029297l-.488281 1.2304687c-.266929-.1269538-.535481-.2376297-.805665-.3320313-.270183-.0944015-.53548-.1416015-.795898-.1416015zm7.189453 5.9814453-.288086-.7421875h-.039062c-.250653.3157568-.508625.5346674-.773926.6567383s-.611163.1831054-1.037598.1831054c-.524091 0-.936684-.149738-1.237793-.4492187-.301108-.2994807-.45166-.7259087-.45166-1.2792969 0-.57943.202635-1.0066718.60791-1.2817383.405276-.2750664 1.016435-.4272459 1.833496-.4565429l.947266-.0292969v-.2392578c0-.5533882-.2832-.8300781-.849609-.8300781-.4362 0-.948891.1318346-1.538086.3955078l-.493164-1.0058594c.628258-.3287777 1.324866-.4931641 2.089843-.4931641.732426 0 1.293944.1595037 1.684571.4785157s.585937.8040332.585937 1.4550781v3.6376953zm-.439453-2.5292969-.576172.0195313c-.432945.0130209-.755207.0911451-.966797.234375-.211589.1432299-.317383.3613266-.317383.6542968 0 .419924.240884.6298829.722657.6298829.345054 0 .62093-.0992829.827636-.2978516.206707-.1985687.310059-.4622379.310059-.7910156zm5.8125 1.4404297c.260418 0 .572915-.0569656.9375-.1708984v1.1083984c-.371096.1660165-.82682.2490234-1.367187.2490234-.595707 0-1.029459-.1505518-1.30127-.4516601s-.407715-.7527639-.407715-1.3549805v-2.6318359h-.71289v-.6298828l.820312-.4980469.429688-1.1523438h.952148v1.1621094h1.52832v1.1181641h-1.52832v2.6318359c0 .2115896.059407.3678381.178223.46875.118815.100912.275878.1513672.471191.1513672zm4.801758-3.4130859c-.315757 0-.56315.1000966-.742188.3002929-.179037.2001964-.281575.4842104-.307617.8520508h2.089844c-.006511-.3678404-.102538-.6518544-.288086-.8520508-.185548-.2001963-.436196-.3002929-.751953-.3002929zm.209961 4.5996093c-.878911 0-1.565753-.2425105-2.060547-.727539s-.742188-1.1718706-.742188-2.0605469c0-.9147181.228677-1.621905.686036-2.121582s1.089677-.7495117 1.896972-.7495117c.771488 0 1.372068.2197243 1.801758.6591796.42969.4394554.644531 1.0465457.644531 1.8212891v.7226563h-3.520507c.016276.4231792.1416.7535795.375976.9912109s.563149.3564453.986328.3564453c.328778 0 .639647-.0341793.932617-.102539.292971-.0683598.598957-.1774082.917969-.3271485v1.1523438c-.260418.1302089-.538735.2270504-.834961.2905273-.296225.0634769-.65755.0952148-1.083984.0952148zm8.688476-5.5566406v.756836l-.854492.2197265c.156251.2441419.234375.5175766.234375.8203125 0 .5859405-.204262 1.0424789-.612793 1.3696289-.40853.3271501-.975745.4907227-1.70166.4907227l-.268555-.0146484-.219726-.0244141c-.152996.1171881-.229492.2473951-.229492.390625 0 .2148448.273434.3222656.820312.3222656h.927734c.598962 0 1.0555.1285795 1.369629.3857422.31413.2571627.471192.6347631.471192 1.1328125 0 .638024-.266111 1.1328107-.79834 1.484375s-1.296382.5273438-2.292481.5273438c-.761722 0-1.343585-.1326485-1.745605-.3979493s-.603027-.6372046-.603027-1.1157226c0-.3287777.102538-.6038401.307617-.8251953.205079-.2213553.506183-.3792313.90332-.4736328-.152995-.0651045-.286458-.1717115-.40039-.3198243-.113933-.1481127-.170899-.3051749-.170899-.4711914 0-.2083343.060221-.3816725.180664-.5200195.120443-.1383471.294595-.2742506.522461-.4077148-.28646-.1236986-.513508-.3222643-.681152-.5957032-.167644-.2734388-.251465-.5957012-.251465-.9667968 0-.5957062.193683-1.0563135.581055-1.381836.387371-.3255224.940751-.4882812 1.660156-.4882812.152995 0 .334471.0138345.544433.0415039s.344238.0480142.402832.0610351zm-4.213867 6.2304688c0 .2050791.098469.3662103.29541.4833984s.472818.1757813.827637.1757813c.533857 0 .952147-.0732415 1.254883-.2197266s.454101-.3466784.454101-.6005859c0-.2050792-.089517-.3466793-.268554-.4248047-.179038-.0781254-.455728-.1171875-.830078-.1171875h-.771485c-.273439 0-.502115.0642897-.686035.1928711-.18392.1285813-.275879.2986643-.275879.5102539zm.541992-4.4433594c0 .2962254.067545.5305981.202637.703125s.340982.2587891.617676.2587891c.279949 0 .485025-.0862622.615234-.2587891s.195313-.4068996.195313-.703125c0-.6575554-.27018-.9863281-.810547-.9863281-.546878 0-.820313.3287727-.820313.9863281zm6.256836.9326172c0 .5403673.088704.9488918.266114 1.2255859.177409.2766941.466306.4150391.866699.4150391.397137 0 .682779-.1375312.856933-.4125977.174155-.2750664.261231-.6844048.261231-1.2280273 0-.5403673-.08789-.9456367-.263672-1.2158203-.175782-.2701837-.463865-.4052735-.864258-.4052735-.397137 0-.683593.134276-.859375.4028321-.175782.268556-.263672.6746392-.263672 1.2182617zm3.774414 0c0 .8886763-.234372 1.5836563-.703125 2.0849609-.468752.5013046-1.121415.7519531-1.958007.7519531-.524092 0-.986327-.1147449-1.386719-.3442382-.400393-.2294934-.708007-.5590799-.922852-.9887696-.214845-.4296896-.322265-.9309867-.322265-1.5039062 0-.8919316.232745-1.585284.698242-2.0800781.465497-.4947942 1.119787-.7421875 1.96289-.7421875.524092 0 .986327.1139311 1.386719.3417968.400393.2278658.708007.5550109.922852.9814454.214845.4264344.322265.9261039.322265 1.4990234zm4.777344-2.8222656c.201824 0 .369466.0146483.50293.0439453l-.112305 1.3964843c-.120443-.0325522-.266926-.0488281-.439453-.0488281-.475263 0-.845539.1220691-1.11084.366211-.265301.2441418-.397949.5859353-.397949 1.0253906v2.7783203h-1.489258v-5.4589844h1.12793l.219726.9179688h.073243c.169271-.3059911.397947-.5525707.686035-.7397461.288087-.1871754.601398-.2807617.939941-.2807617zm1.212891.102539h1.630859l1.030274 3.0712891c.087891.2669284.148111.5826805.180664.9472656h.029296c.035808-.3352881.105794-.6510402.209961-.9472656l1.010743-3.0712891h1.596679l-2.30957 6.1572266c-.21159.5696643-.513507.9960923-.905762 1.2792969-.392254.2832045-.85042.4248047-1.374511.4248047-.257163 0-.509439-.027669-.756836-.0830079v-1.1816406c.179037.0423179.374348.0634766.585937.0634766.263673 0 .493977-.0805656.690918-.2416992.196941-.1611337.350748-.4044581.461426-.7299805l.087891-.2685547zm6.759765 4.7607422c0-.2734389.073242-.4801425.219727-.6201172.146485-.1399746.359699-.2099609.639648-.2099609.270184 0 .479329.0716139.627442.2148437.148113.1432299.222168.348306.222168.6152344 0 .2571628-.074869.4597974-.22461.6079102-.14974.1481127-.358071.2221679-.625.2221679-.273438 0-.485025-.0724276-.634765-.2172851-.149741-.1448575-.22461-.3491198-.22461-.612793zm0-4.0332031c0-.2734389.073242-.4801425.219727-.6201172s.359699-.2099609.639648-.2099609c.270184 0 .479329.0716138.627442.2148437s.222168.348306.222168.6152344c0 .2636732-.075683.4679355-.227051.612793s-.358885.2172851-.622559.2172851c-.273438 0-.485025-.0716139-.634765-.2148437-.149741-.1432299-.22461-.348306-.22461-.6152344z" fill="#3f7dff"/><path d="m319.75 9.65h1.5v20.7h-1.5z" fill="#a1c7ed" fill-rule="nonzero"/><path d="m309.089355 20.4331055-1.933593-2.9379883h1.858398l1.165528 1.9121094 1.176269-1.9121094h1.858398l-1.955078 2.9379883 2.046387 3.0668945h-1.863769l-1.262207-2.0571289-1.267579 2.0571289h-1.858398z" fill="#3f7dff"/><g transform="translate(389 9)"><path d="m0 0h126v22h-126z"/><g fill-rule="evenodd"><path d="m0 0h122v18h-122z" fill="#f7f8fc" transform="translate(2 2)"/><g fill="#d1d5ed" mask="url(#j)"><path d="m0 0h126v22h-126z"/></g></g></g><path d="m417.898438 24v-7.1386719h1.513671v7.1386719zm8.581054 0h-1.489258v-3.1884766c0-.3938821-.065917-.6892893-.197754-.8862304-.131836-.1969411-.339354-.2954102-.622558-.2954102-.380861 0-.657551.1399726-.830078.4199219s-.258789.7405567-.258789 1.3818359v2.5683594h-1.489258v-5.4589844h1.137695l.200196.6982422h.083007c.146485-.2506523.358072-.4467766.634766-.5883789s.594074-.2124023.952148-.2124023c.817062 0 1.370442.2669244 1.660157.8007812h.131836c.146485-.2539075.36214-.4508456.646972-.5908203s.606281-.2099609.964356-.2099609c.618492 0 1.086424.1586898 1.403808.4760742.317385.3173844.476074.8260056.476074 1.5258789v3.5595703h-1.49414v-3.1884766c0-.3938821-.065917-.6892893-.197754-.8862304s-.339354-.2954102-.622559-.2954102c-.364585 0-.637206.130207-.817871.390625s-.270996.6738253-.270996 1.2402344zm8.898438 0-.288086-.7421875h-.039063c-.250652.3157568-.508625.5346674-.773926.6567383-.2653.1220709-.611163.1831054-1.037597.1831054-.524091 0-.936685-.149738-1.237793-.4492187s-.45166-.7259087-.45166-1.2792969c0-.57943.202634-1.0066718.60791-1.2817383.405275-.2750664 1.016435-.4272459 1.833496-.4565429l.947266-.0292969v-.2392578c0-.5533882-.283201-.8300781-.84961-.8300781-.4362 0-.94889.1318346-1.538086.3955078l-.493164-1.0058594c.628259-.3287777 1.324866-.4931641 2.089844-.4931641.732425 0 1.293943.1595037 1.68457.4785157s.585938.8040332.585938 1.4550781v3.6376953zm-.439453-2.5292969-.576172.0195313c-.432945.0130209-.755208.0911451-.966797.234375-.21159.1432299-.317383.3613266-.317383.6542968 0 .419924.240883.6298829.722656.6298829.345054 0 .62093-.0992829.827637-.2978516s.310059-.4622379.310059-.7910156zm8.263671-2.9296875v.756836l-.854492.2197265c.156251.2441419.234375.5175766.234375.8203125 0 .5859405-.204262 1.0424789-.612793 1.3696289-.40853.3271501-.975745.4907227-1.70166.4907227l-.268555-.0146484-.219726-.0244141c-.152996.1171881-.229492.2473951-.229492.390625 0 .2148448.273434.3222656.820312.3222656h.927735c.598961 0 1.055499.1285795 1.369628.3857422.31413.2571627.471192.6347631.471192 1.1328125 0 .638024-.266111 1.1328107-.79834 1.484375s-1.296382.5273438-2.29248.5273438c-.761723 0-1.343586-.1326485-1.745606-.3979493s-.603027-.6372046-.603027-1.1157226c0-.3287777.102538-.6038401.307617-.8251953.205079-.2213553.506183-.3792313.90332-.4736328-.152995-.0651045-.286458-.1717115-.40039-.3198243-.113933-.1481127-.170899-.3051749-.170899-.4711914 0-.2083343.060221-.3816725.180664-.5200195.120444-.1383471.294595-.2742506.522461-.4077148-.28646-.1236986-.513508-.3222643-.681152-.5957032-.167644-.2734388-.251465-.5957012-.251465-.9667968 0-.5957062.193683-1.0563135.581055-1.381836.387371-.3255224.940751-.4882812 1.660156-.4882812.152995 0 .334472.0138345.544434.0415039s.344238.0480142.402832.0610351zm-4.213867 6.2304688c0 .2050791.098469.3662103.29541.4833984s.472818.1757813.827637.1757813c.533857 0 .952147-.0732415 1.254883-.2197266s.454101-.3466784.454101-.6005859c0-.2050792-.089517-.3466793-.268554-.4248047-.179038-.0781254-.455727-.1171875-.830078-.1171875h-.771485c-.273439 0-.502115.0642897-.686035.1928711-.18392.1285813-.275879.2986643-.275879.5102539zm.541992-4.4433594c0 .2962254.067545.5305981.202637.703125s.340982.2587891.617676.2587891c.279949 0 .485025-.0862622.615234-.2587891s.195313-.4068996.195313-.703125c0-.6575554-.27018-.9863281-.810547-.9863281-.546878 0-.820313.3287727-.820313.9863281zm7.331055-.8300781c-.315757 0-.56315.1000966-.742187.3002929-.179038.2001964-.281576.4842104-.307618.8520508h2.089844c-.00651-.3678404-.102538-.6518544-.288086-.8520508-.185548-.2001963-.436196-.3002929-.751953-.3002929zm.209961 4.5996093c-.878911 0-1.565753-.2425105-2.060547-.727539s-.742187-1.1718706-.742187-2.0605469c0-.9147181.228676-1.621905.686035-2.121582s1.089677-.7495117 1.896972-.7495117c.771489 0 1.372069.2197243 1.801758.6591796.42969.4394554.644532 1.0465457.644532 1.8212891v.7226563h-3.520508c.016276.4231792.1416.7535795.375976.9912109s.563149.3564453.986328.3564453c.328778 0 .639647-.0341793.932618-.102539.29297-.0683598.598956-.1774082.917968-.3271485v1.1523438c-.260418.1302089-.538735.2270504-.834961.2905273-.296225.0634769-.65755.0952148-1.083984.0952148zm11.522461-.0976562-.517578-1.6992188h-2.602539l-.517578 1.6992188h-1.63086l2.519532-7.1679688h1.850585l2.529297 7.1679688zm-.878906-2.96875c-.478518-1.5397212-.747884-2.4104808-.808106-2.6123047-.060221-.2018239-.103352-.3613275-.129394-.4785156-.107423.4166687-.415037 1.4469319-.922852 3.0908203zm7.599609 1.3476562c0 .5598987-.194497.9863267-.583496 1.2792969s-.970862.4394531-1.745605.4394531c-.397138 0-.735676-.0268552-1.015625-.0805664-.27995-.0537112-.541991-.1326492-.786133-.2368164v-1.2304687c.276694.130209.588377.2392574.935058.3271484.346682.0878911.651854.131836.915528.131836.540367 0 .810547-.1562485.810547-.46875 0-.1171881-.035807-.212402-.107422-.2856446-.071615-.0732425-.195312-.1562495-.371094-.2490234s-.410155-.2010085-.703125-.324707c-.419924-.1757822-.728352-.338541-.925293-.4882813s-.340169-.3214508-.429688-.5151367c-.089518-.1936859-.134277-.4321275-.134277-.715332 0-.4850285.187987-.8601875.563965-1.1254883s.909013-.3979492 1.599121-.3979492c.657555 0 1.297197.1432277 1.918945.4296875l-.449218 1.0742187c-.273439-.1171881-.528971-.2132158-.766602-.2880859-.237631-.0748702-.480142-.1123047-.727539-.1123047-.439455 0-.65918.1188139-.65918.3564453 0 .1334642.0708.2490229.212403.3466797.141602.0976567.451657.242512.930175.4345703.426435.1725269.738932.3336581.9375.4833984.198569.1497404.345052.3222647.439454.5175782.094401.1953134.141601.4280585.141601.6982421zm5.470703 0c0 .5598987-.194497.9863267-.583496 1.2792969s-.970862.4394531-1.745605.4394531c-.397138 0-.735676-.0268552-1.015625-.0805664-.27995-.0537112-.541991-.1326492-.786133-.2368164v-1.2304687c.276694.130209.588377.2392574.935058.3271484.346682.0878911.651855.131836.915528.131836.540367 0 .810547-.1562485.810547-.46875 0-.1171881-.035807-.212402-.107422-.2856446-.071615-.0732425-.195312-.1562495-.371094-.2490234s-.410155-.2010085-.703125-.324707c-.419924-.1757822-.728352-.338541-.925293-.4882813s-.340169-.3214508-.429687-.5151367c-.089519-.1936859-.134278-.4321275-.134278-.715332 0-.4850285.187987-.8601875.563965-1.1254883.375979-.2653008.909014-.3979492 1.599121-.3979492.657556 0 1.297198.1432277 1.918945.4296875l-.449218 1.0742187c-.273439-.1171881-.52897-.2132158-.766602-.2880859-.237631-.0748702-.480142-.1123047-.727539-.1123047-.439455 0-.65918.1188139-.65918.3564453 0 .1334642.070801.2490229.212403.3466797.141602.0976567.451658.242512.930176.4345703.426434.1725269.738931.3336581.9375.4833984.198568.1497404.345051.3222647.439453.5175782.094401.1953134.141601.4280585.141601.6982421zm5.529297 1.6210938-.200195-.6982422h-.078125c-.159506.2539075-.385741.4500319-.678711.5883789-.29297.1383471-.626626.2075195-1.000977.2075195-.641279 0-1.124673-.1717105-1.450195-.5151367s-.488281-.8373991-.488281-1.4819336v-3.5595703h1.489258v3.1884766c0 .3938822.069986.6892894.209961.8862305.139974.196941.362954.2954101.668945.2954101.416669 0 .717772-.1391588.90332-.4174805s.27832-.7397428.27832-1.3842773v-2.5683594h1.489258v5.4589844zm6.251953-5.5615234c.201824 0 .369466.0146483.50293.0439453l-.112305 1.3964843c-.120443-.0325522-.266926-.0488281-.439453-.0488281-.475263 0-.845539.1220691-1.11084.366211-.265301.2441418-.397949.5859353-.397949 1.0253906v2.7783203h-1.489258v-5.4589844h1.12793l.219727.9179688h.073242c.169271-.3059911.397947-.5525707.686035-.7397461.288087-.1871754.601398-.2807617.939941-.2807617zm5.260742 5.5615234-.288086-.7421875h-.039062c-.250652.3157568-.508625.5346674-.773926.6567383s-.611163.1831054-1.037597.1831054c-.524092 0-.936685-.149738-1.237793-.4492187-.301109-.2994807-.451661-.7259087-.451661-1.2792969 0-.57943.202635-1.0066718.607911-1.2817383.405275-.2750664 1.016434-.4272459 1.833496-.4565429l.947265-.0292969v-.2392578c0-.5533882-.2832-.8300781-.849609-.8300781-.4362 0-.94889.1318346-1.538086.3955078l-.493164-1.0058594c.628258-.3287777 1.324866-.4931641 2.089844-.4931641.732425 0 1.293943.1595037 1.68457.4785157s.585938.8040332.585938 1.4550781v3.6376953zm-.439453-2.5292969-.576172.0195313c-.432944.0130209-.755207.0911451-.966796.234375-.21159.1432299-.317383.3613266-.317383.6542968 0 .419924.240883.6298829.722656.6298829.345054 0 .62093-.0992829.827637-.2978516.206706-.1985687.310058-.4622379.310058-.7910156zm8.551758 2.5292969h-1.489258v-3.1884766c0-.3938821-.069986-.6892893-.209961-.8862304-.139974-.1969411-.362954-.2954102-.668945-.2954102-.416669 0-.717772.1391588-.90332.4174805s-.278321.7397429-.278321 1.3842773v2.5683594h-1.489257v-5.4589844h1.137695l.200195.6982422h.083008c.166017-.2636732.394693-.4630527.686035-.5981445.291343-.1350918.622557-.2026367.993653-.2026367.634768 0 1.116534.1717105 1.445312.5151367s.493164.8390267.493164 1.4868164zm4.25.0976562c-1.699227 0-2.548828-.9326078-2.548828-2.7978515 0-.927739.231117-1.6365536.693359-2.1264649s1.124671-.7348632 1.987305-.7348632c.631514 0 1.197914.1236966 1.699219.3710937l-.439453 1.1523438c-.234376-.0944016-.452473-.171712-.654297-.2319336-.201824-.0602217-.403645-.0903321-.605469-.0903321-.774743 0-1.162109.5501247-1.162109 1.6503907 0 1.0677136.387366 1.6015625 1.162109 1.6015625.28646 0 .551757-.0382484.795899-.1147461.244141-.0764978.48828-.1961255.732421-.3588867v1.274414c-.240886.1529956-.484211.2587888-.72998.3173828-.24577.0585941-.555825.0878906-.930176.0878906zm5.685547-4.5996093c-.315757 0-.56315.1000966-.742188.3002929-.179037.2001964-.281575.4842104-.307617.8520508h2.089844c-.00651-.3678404-.102538-.6518544-.288086-.8520508-.185548-.2001963-.436196-.3002929-.751953-.3002929zm.209961 4.5996093c-.878911 0-1.565753-.2425105-2.060547-.727539s-.742187-1.1718706-.742187-2.0605469c0-.9147181.228676-1.621905.686035-2.121582s1.089677-.7495117 1.896972-.7495117c.771489 0 1.372069.2197243 1.801758.6591796.42969.4394554.644531 1.0465457.644531 1.8212891v.7226563h-3.520507c.016276.4231792.1416.7535795.375976.9912109s.563149.3564453.986328.3564453c.328778 0 .639647-.0341793.932618-.102539.29297-.0683598.598956-.1774082.917968-.3271485v1.1523438c-.260418.1302089-.538735.2270504-.834961.2905273-.296225.0634769-.65755.0952148-1.083984.0952148z" fill="#53587a"/><path d="m409.75 9.65h1.5v20.7h-1.5z" fill="#d1d5ed" fill-rule="nonzero"/><path d="m399.089355 20.4331055-1.933593-2.9379883h1.858398l1.165528 1.9121094 1.176269-1.9121094h1.858398l-1.955078 2.9379883 2.046387 3.0668945h-1.863769l-1.262207-2.0571289-1.267579 2.0571289h-1.858398z" fill="#53587a"/><path d="m5.506787 9h25.326874v23.300724h-25.326874z"/><ellipse cx="18.170224" cy="20.650362" fill-rule="evenodd" rx="12.663437" ry="11.650362"/></g><path d="m0 0h584v152h-584z" fill="url(#a)"/></g><path d="m112.692173 188.809645c0 1.632834-.593075 2.906086-1.779244 3.819797-1.186168.91371-2.795944 1.370558-4.829376 1.370558-2.202884 0-3.897385-.283415-5.083553-.850254v-2.081218c.762537.321491 1.592842.575295 2.490941.761421s1.787712.279188 2.668866.279188c1.440347 0 2.524828-.27284 3.253474-.818528s1.092964-1.304987 1.092964-2.277919c0-.642981-.129206-1.169625-.387621-1.579949-.258415-.410323-.690513-.788915-1.296306-1.135787-.605793-.346871-1.527178-.740268-2.764182-1.180203-1.728417-.6176-2.963285-1.349403-3.70464-2.195431s-1.112027-1.950078-1.112027-3.312183c0-1.429787.538004-2.567678 1.614028-3.413706 1.076024-.846027 2.499405-1.269035 4.270185-1.269035 1.847034 0 3.545771.338406 5.096262 1.015228l-.673571 1.878173c-1.533546-.642981-3.024707-.964467-4.473527-.964467-1.143805 0-2.037654.245344-2.681574.736041-.64392.490696-.965875 1.171738-.965875 2.043147 0 .642981.118615 1.169625.355849 1.579949.237233.410324.637559.7868 1.200989 1.129442.56343.342641 1.425507.721233 2.586258 1.135786 1.948705.693743 3.289479 1.438237 4.022361 2.233503.732883.795266 1.099319 1.827405 1.099319 3.096447zm9.626725 5.190355c-2.058849 0-3.683452-.626051-4.873857-1.878173-1.190405-1.252121-1.785598-2.990682-1.785598-5.215736 0-2.241974.552831-4.022836 1.658509-5.342639 1.105679-1.319804 2.590485-1.979696 4.454464-1.979696 1.745362 0 3.12638.573176 4.143096 1.719543 1.016716 1.146368 1.525066 2.658621 1.525066 4.536803v1.332487h-9.595207c.042363 1.632834.455398 2.872246 1.239116 3.718274.783719.846028 1.887262 1.269035 3.310664 1.269035 1.499656 0 2.982344-.313025 4.44811-.939086v1.878173c-.745592.32149-1.450928.55203-2.116029.691624-.665102.139595-1.467872.209391-2.408334.209391zm-.5719-12.652284c-1.118387 0-2.010118.363786-2.67522 1.09137-.665101.727584-1.056955 1.734342-1.175571 3.020305h7.28219c0-1.328264-.296538-2.345597-.889622-3.052031-.593084-.706433-1.440335-1.059644-2.541777-1.059644zm18.11626 12.398477-.419393-1.979696h-.101672c-.694755.871409-1.387383 1.461505-2.077902 1.770305s-1.552597.463198-2.586258.463198c-1.381039 0-2.463401-.355326-3.24712-1.06599-.783718-.710663-1.175571-1.721651-1.175571-3.032995 0-2.808812 2.24945-4.280879 6.748417-4.416243l2.363852-.076143v-.862944c0-1.091376-.235112-1.897205-.705343-2.417512-.470231-.520308-1.222166-.780457-2.255827-.780457-1.16075 0-2.473988.355326-3.939754 1.06599l-.648153-1.611676c.686284-.372252 1.438218-.664127 2.255827-.875634s1.637324-.317259 2.459169-.317259c1.660636 0 2.891267.368017 3.691931 1.104061s1.200989 1.916236 1.200989 3.540609v9.492386zm-4.765832-1.484772c1.313258 0 2.344786-.359556 3.094614-1.07868.749827-.719124 1.124736-1.725882 1.124736-3.020304v-1.256346l-2.109675.088833c-1.677581.059222-2.887031.319371-3.628386.780457-.741355.461085-1.112028 1.178083-1.112028 2.151015 0 .761425.230876 1.340945.692635 1.738579.461758.397633 1.107786.596446 1.938104.596446zm17.290182-12.677665c.618502 0 1.173451.050761 1.664864.152285l-.292304 1.954314c-.576139-.126904-1.084489-.190355-1.525066-.190355-1.12686 0-2.090608.456848-2.891271 1.370558-.800664.913711-1.20099 2.051601-1.20099 3.413706v7.461929h-2.109674v-13.90863h1.741117l.241468 2.576143h.101671c.516831-.90525 1.13956-1.603213 1.868206-2.093909.728647-.490696 1.529298-.736041 2.401979-.736041zm9.57589 14.416244c-2.016486 0-3.577545-.619706-4.683224-1.859137-1.105678-1.239431-1.658509-2.992798-1.658509-5.260152 0-2.326577.561303-4.124359 1.683927-5.393401s2.721809-1.903554 4.797604-1.903554c.669338 0 1.338665.071912 2.008003.215736.669338.143825 1.194633.313028 1.575902.507615l-.648153 1.78934c-.465995-.186126-.974345-.340524-1.525066-.463198s-1.03789-.18401-1.461522-.18401c-2.829859 0-4.244767 1.802012-4.244767 5.406091 0 1.708976.345255 3.0203 1.035774 3.93401s1.713574 1.370558 3.069195 1.370558c1.160751 0 2.351138-.249574 3.571197-.74873v1.865482c-.93199.482236-2.105432.72335-3.520361.72335zm16.616611-.253807v-8.997462c0-1.133677-.258411-1.979693-.775242-2.538071-.51683-.558379-1.325954-.837564-2.427397-.837564-1.465765 0-2.535418.397628-3.208993 1.192894-.673574.795266-1.010356 2.09813-1.010356 3.908629v7.271574h-2.109675v-19.746193h2.109675v5.977157c0 .719124-.03389 1.315565-.101671 1.78934h.127089c.415159-.668362 1.006116-1.195006 1.772889-1.579949.766773-.384942 1.641559-.577411 2.624385-.577411 1.702998 0 2.980229.403972 3.831728 1.211929s1.277243 2.091785 1.277243 3.851523v9.073604zm22.290874 0-.419394-1.979696h-.101671c-.694755.871409-1.387383 1.461505-2.077902 1.770305-.69052.3088-1.552597.463198-2.586258.463198-1.381039 0-2.463401-.355326-3.24712-1.06599-.783718-.710663-1.175571-1.721651-1.175571-3.032995 0-2.808812 2.249449-4.280879 6.748417-4.416243l2.363852-.076143v-.862944c0-1.091376-.235112-1.897205-.705343-2.417512-.470231-.520308-1.222166-.780457-2.255827-.780457-1.16075 0-2.473988.355326-3.939754 1.06599l-.648153-1.611676c.686283-.372252 1.438218-.664127 2.255827-.875634s1.637324-.317259 2.459169-.317259c1.660636 0 2.891267.368017 3.691931 1.104061.800663.736044 1.200989 1.916236 1.200989 3.540609v9.492386zm-4.765832-1.484772c1.313258 0 2.344786-.359556 3.094613-1.07868.749828-.719124 1.124737-1.725882 1.124737-3.020304v-1.256346l-2.109675.088833c-1.677581.059222-2.887031.319371-3.628386.780457-.741356.461085-1.112028 1.178083-1.112028 2.151015 0 .761425.230876 1.340945.692634 1.738579.461759.397633 1.107787.596446 1.938105.596446zm13.045415 1.484772h-2.109675v-19.746193h2.109675zm6.84348 0h-2.109675v-19.746193h2.109675zm21.236036-1.865482h-.11438c-.974353 1.412866-2.431623 2.119289-4.371856 2.119289-1.821616 0-3.238642-.621821-4.251122-1.865482-1.012479-1.243661-1.518711-3.011833-1.518711-5.304569 0-2.292735.50835-4.073597 1.525066-5.342639s2.431624-1.903554 4.244767-1.903554c1.889397 0 3.338195.685273 4.346438 2.055838h.165216l-.088963-1.002538-.050835-.977158v-5.659898h2.109675v19.746193h-1.7157zm-4.219349.35533c1.440347 0 2.484583-.391282 3.132739-1.173858.648157-.782576.97223-2.045254.97223-3.788071v-.444163c0-1.971245-.32831-3.377745-.984939-4.219543-.656628-.841798-1.705101-1.26269-3.145448-1.26269-1.237004 0-2.183807.480113-2.840436 1.440355s-.984938 2.315981-.984938 4.067259c0 1.776659.326191 3.117593.978584 4.022843.652392.905249 1.609785 1.357868 2.872208 1.357868zm19.514236 1.510152-.419393-1.979696h-.101671c-.694756.871409-1.387383 1.461505-2.077903 1.770305-.690519.3088-1.552596.463198-2.586257.463198-1.381039 0-2.463402-.355326-3.24712-1.06599-.783719-.710663-1.175572-1.721651-1.175572-3.032995 0-2.808812 2.24945-4.280879 6.748417-4.416243l2.363853-.076143v-.862944c0-1.091376-.235112-1.897205-.705343-2.417512-.470231-.520308-1.222166-.780457-2.255827-.780457-1.160751 0-2.473989.355326-3.939754 1.06599l-.648153-1.611676c.686283-.372252 1.438218-.664127 2.255827-.875634s1.637323-.317259 2.459169-.317259c1.660635 0 2.891267.368017 3.69193 1.104061.800664.736044 1.20099 1.916236 1.20099 3.540609v9.492386zm-4.765831-1.484772c1.313258 0 2.344785-.359556 3.094613-1.07868s1.124736-1.725882 1.124736-3.020304v-1.256346l-2.109675.088833c-1.677581.059222-2.887031.319371-3.628386.780457-.741355.461085-1.112027 1.178083-1.112027 2.151015 0 .761425.230876 1.340945.692634 1.738579.461758.397633 1.107787.596446 1.938105.596446zm15.434685 0c.372796 0 .732877-.027495 1.080255-.082487s.622734-.112098.826077-.17132v1.611675c-.228761.109984-.565543.200931-1.010356.272843s-.845139.107868-1.200989.107868c-2.694297 0-4.041425-1.417076-4.041425-4.251269v-8.274112h-1.995295v-1.015228l1.995295-.875635.889621-2.969543h1.220053v3.22335h4.041425v1.637056h-4.041425v8.185279c0 .837568.199104 1.48054.597318 1.928934.398213.448395.94469.672589 1.639446.672589zm13.515643 1.484772-.419393-1.979696h-.101671c-.694756.871409-1.387383 1.461505-2.077902 1.770305-.69052.3088-1.552597.463198-2.586258.463198-1.381039 0-2.463402-.355326-3.24712-1.06599-.783718-.710663-1.175572-1.721651-1.175572-3.032995 0-2.808812 2.24945-4.280879 6.748417-4.416243l2.363853-.076143v-.862944c0-1.091376-.235112-1.897205-.705343-2.417512-.470231-.520308-1.222166-.780457-2.255827-.780457-1.160751 0-2.473989.355326-3.939754 1.06599l-.648153-1.611676c.686283-.372252 1.438218-.664127 2.255827-.875634s1.637324-.317259 2.459169-.317259c1.660636 0 2.891267.368017 3.69193 1.104061.800664.736044 1.20099 1.916236 1.20099 3.540609v9.492386zm-4.765831-1.484772c1.313258 0 2.344785-.359556 3.094613-1.07868s1.124736-1.725882 1.124736-3.020304v-1.256346l-2.109674.088833c-1.677581.059222-2.887031.319371-3.628387.780457-.741355.461085-1.112027 1.178083-1.112027 2.151015 0 .761425.230876 1.340945.692634 1.738579.461759.397633 1.107787.596446 1.938105.596446zm26.522932 1.484772-.419393-1.979696h-.101672c-.694755.871409-1.387383 1.461505-2.077902 1.770305s-1.552597.463198-2.586258.463198c-1.381039 0-2.463401-.355326-3.24712-1.06599-.783718-.710663-1.175571-1.721651-1.175571-3.032995 0-2.808812 2.24945-4.280879 6.748417-4.416243l2.363852-.076143v-.862944c0-1.091376-.235112-1.897205-.705343-2.417512-.470231-.520308-1.222166-.780457-2.255827-.780457-1.16075 0-2.473988.355326-3.939754 1.06599l-.648153-1.611676c.686284-.372252 1.438218-.664127 2.255827-.875634s1.637324-.317259 2.459169-.317259c1.660636 0 2.891267.368017 3.691931 1.104061s1.200989 1.916236 1.200989 3.540609v9.492386zm-4.765832-1.484772c1.313258 0 2.344786-.359556 3.094613-1.07868.749828-.719124 1.124737-1.725882 1.124737-3.020304v-1.256346l-2.109675.088833c-1.677581.059222-2.887031.319371-3.628386.780457-.741356.461085-1.112028 1.178083-1.112028 2.151015 0 .761425.230876 1.340945.692635 1.738579.461758.397633 1.107786.596446 1.938104.596446zm16.502232 1.738579c-2.016487 0-3.577546-.619706-4.683224-1.859137s-1.658509-2.992798-1.658509-5.260152c0-2.326577.561303-4.124359 1.683927-5.393401 1.122623-1.269042 2.721809-1.903554 4.797603-1.903554.669338 0 1.338666.071912 2.008004.215736.669338.143825 1.194633.313028 1.575901.507615l-.648153 1.78934c-.465994-.186126-.974345-.340524-1.525066-.463198s-1.03789-.18401-1.461521-.18401c-2.829859 0-4.244767 1.802012-4.244767 5.406091 0 1.708976.345254 3.0203 1.035774 3.93401.690519.91371 1.713574 1.370558 3.069195 1.370558 1.16075 0 2.351137-.249574 3.571196-.74873v1.865482c-.931989.482236-2.105431.72335-3.52036.72335zm13.43939-14.416244c.618502 0 1.173451.050761 1.664864.152285l-.292305 1.954314c-.576139-.126904-1.084489-.190355-1.525066-.190355-1.12686 0-2.090607.456848-2.891271 1.370558-.800664.913711-1.200989 2.051601-1.200989 3.413706v7.461929h-2.109675v-13.90863h1.741117l.241469 2.576143h.101671c.51683-.90525 1.139559-1.603213 1.868206-2.093909.728646-.490696 1.529298-.736041 2.401979-.736041zm16.032002 7.195432c0 2.267355-.571894 4.037642-1.715699 5.310914s-2.723927 1.909898-4.740414 1.909898c-1.245476 0-2.351138-.291875-3.317018-.875635-.96588-.583759-1.711461-1.421314-2.236764-2.51269s-.787951-2.368859-.787951-3.832487c0-2.267355.567658-4.033412 1.702991-5.298224 1.135332-1.264811 2.711218-1.897208 4.727705-1.897208 1.948705 0 3.497055.647202 4.645097 1.941625 1.148041 1.294422 1.722053 3.045674 1.722053 5.253807zm-10.611918 0c0 1.776658.355846 3.130283 1.067547 4.060914.711701.93063 1.758055 1.395939 3.139094 1.395939s2.429511-.463194 3.145449-1.389594c.715937-.926401 1.0739-2.28214 1.0739-4.067259 0-1.768199-.357963-3.111248-1.0739-4.029188-.715938-.91794-1.772883-1.376904-3.170867-1.376904-1.381039 0-2.423157.452619-3.126385 1.357868-.703229.90525-1.054838 2.254645-1.054838 4.048224zm23.555662 3.172589c0 1.294422-.482933 2.29272-1.448813 2.994924-.96588.702203-2.32148 1.053299-4.066842 1.053299-1.847034 0-3.28736-.291875-4.321021-.875635v-1.954314c.669338.338411 1.387383.604906 2.154156.799492.766773.194587 1.505999.291878 2.2177.291878 1.101442 0 1.948693-.175548 2.541777-.526649.593084-.351102.889622-.886207.889622-1.60533 0-.541458-.235112-1.004652-.705343-1.389594-.470231-.384943-1.38738-.839676-2.751474-1.364213-1.296312-.482236-2.217697-.903129-2.764182-1.262691s-.953165-.767764-1.220053-1.224619-.40033-1.002535-.40033-1.637056c0-1.133677.461752-2.028338 1.385269-2.68401s2.190156-.983503 3.799956-.983503c1.499656 0 2.965399.304566 4.397274.913706l-.749824 1.713198c-1.397985-.575299-2.664624-.862944-3.799957-.862944-.99977 0-1.753823.156513-2.262181.469543s-.762533.744498-.762533 1.294416c0 .372252.095316.689508.28595.951777.190634.262268.497762.511843.921394.748731s1.236992.579524 2.440106 1.027919c1.652163.600679 2.768415 1.20558 3.34879 1.81472.580376.60914.870559 1.374784.870559 2.296955zm12.676857 0c0 1.294422-.482932 2.29272-1.448812 2.994924-.96588.702203-2.321481 1.053299-4.066843 1.053299-1.847034 0-3.28736-.291875-4.321021-.875635v-1.954314c.669338.338411 1.387383.604906 2.154156.799492.766773.194587 1.505999.291878 2.2177.291878 1.101442 0 1.948693-.175548 2.541777-.526649.593084-.351102.889622-.886207.889622-1.60533 0-.541458-.235112-1.004652-.705343-1.389594-.470231-.384943-1.38738-.839676-2.751473-1.364213-1.296313-.482236-2.217698-.903129-2.764183-1.262691-.546484-.359562-.953165-.767764-1.220052-1.224619-.266888-.456855-.40033-1.002535-.40033-1.637056 0-1.133677.461751-2.028338 1.385268-2.68401s2.190156-.983503 3.799956-.983503c1.499656 0 2.965399.304566 4.397274.913706l-.749824 1.713198c-1.397984-.575299-2.664624-.862944-3.799956-.862944-.999771 0-1.753824.156513-2.262182.469543s-.762533.744498-.762533 1.294416c0 .372252.095316.689508.28595.951777.190634.262268.497763.511843.921394.748731.423632.236888 1.236992.579524 2.440106 1.027919 1.652163.600679 2.768415 1.20558 3.348791 1.81472.580375.60914.870558 1.374784.870558 2.296955zm21.515632-1.142132c0 1.632834-.593075 2.906086-1.779244 3.819797-1.186168.91371-2.795944 1.370558-4.829376 1.370558-2.202884 0-3.897385-.283415-5.083553-.850254v-2.081218c.762537.321491 1.592842.575295 2.490941.761421s1.787712.279188 2.668866.279188c1.440347 0 2.524828-.27284 3.253474-.818528s1.092964-1.304987 1.092964-2.277919c0-.642981-.129206-1.169625-.387621-1.579949-.258415-.410323-.690513-.788915-1.296306-1.135787-.605793-.346871-1.527178-.740268-2.764182-1.180203-1.728417-.6176-2.963285-1.349403-3.70464-2.195431s-1.112027-1.950078-1.112027-3.312183c0-1.429787.538004-2.567678 1.614028-3.413706 1.076024-.846027 2.499405-1.269035 4.270185-1.269035 1.847033 0 3.545771.338406 5.096262 1.015228l-.673571 1.878173c-1.533546-.642981-3.024707-.964467-4.473527-.964467-1.143805 0-2.037654.245344-2.681574.736041-.64392.490696-.965875 1.171738-.965875 2.043147 0 .642981.118615 1.169625.355848 1.579949.237234.410324.63756.7868 1.20099 1.129442.56343.342641 1.425507.721233 2.586258 1.135786 1.948705.693743 3.289479 1.438237 4.022361 2.233503.732883.795266 1.099319 1.827405 1.099319 3.096447zm8.241457 3.451776c.372795 0 .732877-.027495 1.080255-.082487s.622734-.112098.826077-.17132v1.611675c-.228761.109984-.565543.200931-1.010356.272843s-.845139.107868-1.20099.107868c-2.694296 0-4.041425-1.417076-4.041425-4.251269v-8.274112h-1.995294v-1.015228l1.995294-.875635.889622-2.969543h1.220053v3.22335h4.041425v1.637056h-4.041425v8.185279c0 .837568.199104 1.48054.597318 1.928934.398213.448395.94469.672589 1.639446.672589zm13.515643 1.484772-.419393-1.979696h-.101671c-.694756.871409-1.387383 1.461505-2.077902 1.770305-.69052.3088-1.552597.463198-2.586258.463198-1.381039 0-2.463402-.355326-3.24712-1.06599-.783718-.710663-1.175572-1.721651-1.175572-3.032995 0-2.808812 2.24945-4.280879 6.748417-4.416243l2.363853-.076143v-.862944c0-1.091376-.235112-1.897205-.705343-2.417512-.470231-.520308-1.222166-.780457-2.255827-.780457-1.160751 0-2.473989.355326-3.939754 1.06599l-.648153-1.611676c.686283-.372252 1.438218-.664127 2.255827-.875634s1.637323-.317259 2.459169-.317259c1.660635 0 2.891267.368017 3.69193 1.104061.800664.736044 1.20099 1.916236 1.20099 3.540609v9.492386zm-4.765831-1.484772c1.313258 0 2.344785-.359556 3.094613-1.07868s1.124736-1.725882 1.124736-3.020304v-1.256346l-2.109674.088833c-1.677581.059222-2.887031.319371-3.628387.780457-.741355.461085-1.112027 1.178083-1.112027 2.151015 0 .761425.230876 1.340945.692634 1.738579.461759.397633 1.107787.596446 1.938105.596446zm16.502231 1.738579c-2.016486 0-3.577545-.619706-4.683224-1.859137-1.105678-1.239431-1.658509-2.992798-1.658509-5.260152 0-2.326577.561304-4.124359 1.683927-5.393401 1.122624-1.269042 2.721809-1.903554 4.797604-1.903554.669338 0 1.338666.071912 2.008003.215736.669338.143825 1.194634.313028 1.575902.507615l-.648153 1.78934c-.465995-.186126-.974345-.340524-1.525066-.463198s-1.03789-.18401-1.461522-.18401c-2.829859 0-4.244767 1.802012-4.244767 5.406091 0 1.708976.345255 3.0203 1.035774 3.93401.69052.91371 1.713575 1.370558 3.069196 1.370558 1.16075 0 2.351137-.249574 3.571196-.74873v1.865482c-.93199.482236-2.105431.72335-3.520361.72335zm9.169205-7.373096c.364324-.516077.919273-1.19289 1.664864-2.030457l4.498945-4.758884h2.50365l-5.642744 5.926396 6.036719 7.982234h-2.554485l-4.918338-6.573604-1.588611 1.370558v5.203046h-2.084256v-19.746193h2.084256v10.469543c0 .465316-.03389 1.184428-.101671 2.157361zm14.316304-.596447v7.715736h-2.160511v-18.5533h5.096263c2.279138 0 3.963048.435698 5.051781 1.307107s1.633092 2.182732 1.633092 3.93401c0 2.453481-1.245459 4.111671-3.736412 4.974619l5.045427 8.337564h-2.554486l-4.498945-7.715736zm0-1.852792h2.96117c1.525073 0 2.643444-.30245 3.355145-.90736s1.067546-1.512262 1.067546-2.722082c0-1.22674-.3622-2.110826-1.08661-2.652284s-1.887261-.812183-3.488588-.812183h-2.808663zm25.894096 2.601523c0 2.267355-.571894 4.037642-1.715699 5.310914-1.143806 1.273272-2.723928 1.909898-4.740414 1.909898-1.245477 0-2.351139-.291875-3.317019-.875635-.96588-.583759-1.71146-1.421314-2.236763-2.51269s-.787951-2.368859-.787951-3.832487c0-2.267355.567658-4.033412 1.70299-5.298224 1.135333-1.264811 2.711219-1.897208 4.727705-1.897208 1.948705 0 3.497056.647202 4.645097 1.941625 1.148042 1.294422 1.722054 3.045674 1.722054 5.253807zm-10.611918 0c0 1.776658.355845 3.130283 1.067546 4.060914.711701.93063 1.758056 1.395939 3.139094 1.395939 1.381039 0 2.429512-.463194 3.145449-1.389594.715938-.926401 1.073901-2.28214 1.073901-4.067259 0-1.768199-.357963-3.111248-1.073901-4.029188-.715937-.91794-1.772882-1.376904-3.170866-1.376904-1.381039 0-2.423157.452619-3.126386 1.357868-.703228.90525-1.054837 2.254645-1.054837 4.048224zm17.404562-.152284-4.842085-6.789341h2.401979l3.672868 5.32995 3.660158-5.32995h2.376561l-4.842084 6.789341 5.096262 7.119289h-2.38927l-3.901627-5.634518-3.939754 5.634518h-2.38927z" fill="#434861"/><g fill-rule="nonzero" transform="translate(284.309816 13.510638)"><path d="m45.8736472 76.5602837h47.1304595c1.4873475 0 2.6931691-.6049163 2.6931691-1.3510638 0-.7461476-1.2058216-1.3510639-2.6931691-1.3510639h-47.1304595c-1.4873475 0-2.6931691.6049163-2.6931691 1.3510639 0 .7461475 1.2058216 1.3510638 2.6931691 1.3510638z" fill="#d4d7e9"/><path d="m140.134566 59.4468085h-94.2609188c-1.4873475 0-2.6931691.6049163-2.6931691 1.3510638 0 .7461476 1.2058216 1.3510639 2.6931691 1.3510639h94.2609188c1.487348 0 2.693169-.6049163 2.693169-1.3510639 0-.7461475-1.205821-1.3510638-2.693169-1.3510638z" fill="#d4d7e9"/><path d="m45.8736472 33.3262411h47.1304595c1.4873475 0 2.6931691-.806555 2.6931691-1.8014184s-1.2058216-1.8014184-2.6931691-1.8014184h-47.1304595c-1.4873475 0-2.6931691.806555-2.6931691 1.8014184s1.2058216 1.8014184 2.6931691 1.8014184z" fill="#b9daf8"/><path d="m45.8736472 18.9148936h94.2609188c1.487348 0 2.693169-.8065551 2.693169-1.8014184 0-.9948634-1.205821-1.8014185-2.693169-1.8014185h-94.2609188c-1.4873475 0-2.6931691.8065551-2.6931691 1.8014185 0 .9948633 1.2058216 1.8014184 2.6931691 1.8014184z" fill="#b9daf8"/><path d="m150.907243 0h-148.12430158c-1.48734753 0-2.69316912 1.20983262-2.69316912 2.70212766v43.23404254c0 1.492295 1.20582159 2.7021277 2.69316912 2.7021277h148.12430158c1.487347 0 2.693169-1.2098327 2.693169-2.7021277v-43.23404254c0-1.49229504-1.205822-2.70212766-2.693169-2.70212766zm-2.693169 43.2340426h-142.73796347v-37.82978728h142.73796347z" fill="#c8e5ff"/><g fill="#d4d7e9"><path d="m35.1009708 54.0425532h-21.5453529c-1.4873476 0-2.6931691 1.2098326-2.6931691 2.7021277v21.6170212c0 1.4922951 1.2058215 2.7021277 2.6931691 2.7021277h21.5453529c1.4873475 0 2.6931691-1.2098326 2.6931691-2.7021277v-21.6170212c0-1.4922951-1.2058216-2.7021277-2.6931691-2.7021277zm-.8956231 23.4184397h-19.7541067v-19.8156028h19.7541067z"/><path d="m35.1009708 86.4680851h-21.5453529c-1.4873476 0-2.6931691 1.2098326-2.6931691 2.7021277v21.6170212c0 1.492295 1.2058215 2.702128 2.6931691 2.702128h21.5453529c1.4873475 0 2.6931691-1.209833 2.6931691-2.702128v-21.6170212c0-1.4922951-1.2058216-2.7021277-2.6931691-2.7021277zm-.8956231 23.4184399h-19.7541067v-19.815603h19.7541067z"/><path d="m93.0041067 106.283688h-47.1304595c-1.4873475 0-2.6931691.604916-2.6931691 1.351064 0 .746147 1.2058216 1.351064 2.6931691 1.351064h47.1304595c1.4873475 0 2.6931691-.604917 2.6931691-1.351064 0-.746148-1.2058216-1.351064-2.6931691-1.351064z"/><path d="m140.134566 91.8723404h-94.2609188c-1.4873475 0-2.6931691.6049163-2.6931691 1.3510639 0 .7461475 1.2058216 1.3510638 2.6931691 1.3510638h94.2609188c1.487348 0 2.693169-.6049163 2.693169-1.3510638 0-.7461476-1.205821-1.3510639-2.693169-1.3510639z"/></g><path d="m13.5556179 37.8297872h21.5453529c1.4873475 0 2.6931691-1.2098326 2.6931691-2.7021276v-21.6170213c0-1.492295-1.2058216-2.7021277-2.6931691-2.7021277h-21.5453529c-1.4873476 0-2.6931691 1.2098327-2.6931691 2.7021277v21.6170213c0 1.492295 1.2058215 2.7021276 2.6931691 2.7021276zm2.6931691-21.6170212h16.1590147v16.2127659h-16.1590147z" fill="#b9daf8"/></g><path d="m53.4048752 17.4722802 15.320413.0070302c3.2296765.0008398 5.8476373 2.6187991 5.8484788 5.8484756l.0316874 98.229526c.0008419 3.230866-2.6176098 5.850683-5.8484756 5.851525-.0010152 0-.0020304 0-.0030456 0l-15.3204122-.010075c-3.2296765-.00084-5.8476373-2.618799-5.8484789-5.848476l-.0316874-98.2295262c-.0008418-3.2308658 2.6176099-5.8506825 5.8484757-5.8515244.0010152-.0000002.0020304-.0000002.0030456 0z" fill="url(#b)" transform="matrix(.12186934 .99254615 -.99254615 .12186934 270.534784 2.98681)"/><path d="m41.9387494 8.13048746 15.2954079.01636561c2.9778238.00318618 5.3910324 2.41639423 5.3942193 5.39421803l.1061991 99.2320209c.0031917 2.982336-2.4118819 5.402585-5.394218 5.405776-.0038523.000004-.0077046.000004-.0115569 0l-15.295408-.016365c-2.9778238-.003187-5.3910324-2.416395-5.3942193-5.394218l-.1061991-99.2320213c-.0031917-2.982336 2.411882-5.40258451 5.394218-5.40577624.0038524-.00000412.0077047-.00000412.011557 0z" fill="url(#c)" transform="matrix(.66913061 .74314483 -.74314483 .66913061 208.355369 -15.989133)"/><path d="m29.394765 1.77137471 15.2676989.00771972c2.980207.00150686 5.3957651 2.41706725 5.3972691 5.39727434l.0501379 99.34895823c.0015051 2.982338-2.414937 5.40122-5.3972743 5.402725-.0018186.000001-.0036371.000001-.0054556 0l-15.2676989-.00772c-2.9802071-.001507-5.3957651-2.417067-5.3972691-5.397274l-.0501379-99.34895858c-.0015051-2.98233739 2.4149369-5.40121963 5.3972743-5.40272471.0018185-.00000092.0036371-.00000092.0054556 0z" fill="url(#d)" transform="matrix(.97029573 .2419219 -.2419219 .97029573 159.853762 -7.274757)"/><g fill-rule="nonzero" transform="translate(164.773006 35.12766)"><path d="m62.7399204 53.8724159c2.4809905 2.4860481 2.4809905 6.5166161 0 9.0029513-2.4804175 2.4860481-6.5023211 2.485761-8.9830251 0l-14.3535859-14.3845076c-2.4804174-2.4860481-2.4809905-6.5166161-.0002865-9.0026642 2.4809905-2.4863352 6.5028942-2.4860481 8.9838847 0z" stroke="#8f94b0" stroke-width="1.8"/><ellipse cx="28.851865" cy="28.91402" fill="#8f94b0" rx="28.851865" ry="28.91402"/><g fill="#fff"><ellipse cx="28.851865" cy="28.91402" rx="25.739959" ry="25.79541"/><path d="m53.3706642 67.0480689c-3.7373877-3.7448648-3.7373877-9.8175642 0-13.5627162 3.7371012-3.7454391 9.7961734-3.745152 13.5335611 0l15.6440791 15.6780681c3.7373877 3.745152 3.7373877 9.8172771 0 13.5627162-3.7368147 3.745152-9.7961734 3.745152-13.5335611 0z" stroke="#8f94b0" stroke-width="1.8"/></g></g></g></svg>