<svg viewBox="0 0 338 37" xmlns="http://www.w3.org/2000/svg" fill-rule="evenodd" clip-rule="evenodd" stroke-linejoin="round" stroke-miterlimit="2"><path d="M14.433 7.389h21.288l-3.488-5.96C31.753.597 30.911 0 29.828 0h-18.04c-.964 0-1.925.479-2.407 1.43L3.85 11.085l10.584 18.233V7.389z" fill="#5273aa"/><path d="M14.433 29.317L3.85 11.084.36 17.043a2.787 2.787 0 000 2.74l9.021 15.494c.482.834 1.443 1.429 2.406 1.429h11.185l10.705-18.353-19.244 10.964z" fill="#fbbe0f"/><path d="M35.721 7.389H14.433l19.123 10.964-10.704 18.353h6.976c.962 0 1.924-.476 2.406-1.43l9.02-15.611a2.786 2.786 0 000-2.742l-5.533-9.534z" fill="#ea4638"/><path d="M27.182 7.389l6.374 10.964-6.374 10.964H14.433L8.058 18.353l6.375-10.964h12.75z" fill="#f0efeb"/><path d="M14.433 7.389h21.288l-3.488-5.96C31.753.597 30.911 0 29.828 0h-18.04c-.964 0-1.925.479-2.407 1.43L3.85 11.085l10.584 18.233V7.389z" fill="#4c8bf4"/><path d="M27.182 7.389l6.374 10.964-6.374 10.964H14.433L8.058 18.353l6.375-10.964h12.75z" fill="#f0efeb"/><g transform="translate(7.468 7.158)"><path d="M19.714.231l6.374 10.964-6.374 10.964H6.965L.59 11.195 6.965.231h12.749z" fill="#e1e1e1"/><ellipse cx="13.069" cy="11.342" rx="5.601" ry="5.55" fill="#fff"/></g><g fill="#4c4c4c"><path d="M314.75 15.017h2.886v2.026h.12c.842-1.43 2.766-2.503 4.451-2.503 2.285 0 3.848 1.073 4.57 2.74 1.082-1.667 2.766-2.74 5.051-2.74 3.608 0 5.172 2.503 5.172 6.078v8.819h-2.766v-8.342c0-2.98-1.203-3.933-3.248-3.933-2.165 0-3.728 2.264-3.728 4.409v7.985h-2.766v-8.343c0-2.98-1.204-3.932-3.248-3.932-2.165 0-3.728 2.265-3.728 4.41v7.984h-2.766V15.017zm-10.223 14.3v-14.3h2.645V17.4h.121c.601-1.67 2.645-2.742 4.21-2.742.841 0 1.442.119 2.043.358l-1.082 2.503a4.527 4.527 0 00-1.443-.24c-1.925 0-3.728 1.55-3.728 4.172v7.865h-2.766zm-4.932-7.15c0-3.336-2.285-5.244-4.69-5.244-2.406 0-4.69 1.908-4.69 5.244 0 3.337 2.284 5.244 4.69 5.244 2.405-.12 4.69-2.026 4.69-5.244zm2.766 0c0 4.41-3.126 7.628-7.457 7.628-4.33 0-7.457-3.338-7.457-7.628 0-4.41 3.127-7.627 7.457-7.627 4.331 0 7.457 3.218 7.457 7.627zM287.447 8.582l-.962 2.263c-.36-.118-.72-.238-1.203-.238-1.323 0-2.405.835-2.405 2.502v1.788h3.73V17.4h-3.73v11.916h-2.767V17.4h-2.645v-2.504h2.766v-1.788c0-2.98 2.044-4.885 5.172-4.885.842 0 1.443.119 2.044.358zm-17.68 16.445V17.52h-2.525v-2.503h2.525v-4.41h2.766v4.41h3.61v2.503h-3.61v7.388c0 1.669.722 2.384 1.925 2.384.481 0 .842 0 1.202-.238l.963 2.263c-.6.239-1.323.358-2.165.358-3.007-.12-4.69-1.788-4.69-4.648zm-6.494-1.906s-1.204-.954-3.488-.954c-2.887 0-3.969 1.549-3.969 2.86 0 1.55 1.563 2.265 3.007 2.265 2.164 0 4.45-1.788 4.45-4.171zm-10.344 1.906c0-3.217 3.007-5.005 6.374-5.005 1.925 0 3.368.596 3.97.834v-.358c0-2.145-1.805-3.455-3.729-3.455-1.563 0-3.007.715-3.487 2.025l-2.527-1.072c.481-1.311 2.286-3.456 5.894-3.456s6.494 2.145 6.494 6.197v8.7h-2.645V27.41h-.12c-.843 1.192-2.286 2.503-4.812 2.503-2.887-.12-5.412-1.907-5.412-4.887zm-5.052 4.29h2.767V8.344h-2.767v20.975zm-8.418-11.083c2.405 0 3.728-2.026 3.728-3.694 0-1.668-1.323-3.695-3.728-3.695h-4.57v7.389h4.57zm-7.337 11.083V8.343h7.216c3.488 0 6.615 2.62 6.615 6.197 0 3.576-3.127 6.197-6.615 6.197h-4.45v8.462h-2.766v.118zm-9.983-7.15c0-3.336-2.165-5.244-4.57-5.244-2.406 0-4.57 1.908-4.57 5.244 0 3.218 2.164 5.244 4.57 5.244 2.285-.12 4.57-2.026 4.57-5.244zm-12.027 0c0-4.41 3.247-7.627 6.855-7.627 2.286 0 4.09 1.192 4.931 2.503h.121l-.12-2.026V8.343h2.766v20.974h-2.526v-2.025h-.12c-.842 1.31-2.646 2.503-4.93 2.503-3.73 0-6.977-3.218-6.977-7.628zm-4.81 7.27v-2.145h-.12c-.843 1.31-2.648 2.503-4.572 2.503-3.728 0-5.533-2.503-5.533-6.08v-8.818h2.767v8.343c0 2.979 1.563 4.052 3.608 4.052 2.406 0 3.85-2.265 3.85-4.41v-7.865h2.765v14.42h-2.766zm-15.035-7.27c0-3.336-2.285-5.244-4.69-5.244-2.407 0-4.692 1.908-4.692 5.244 0 3.337 2.285 5.244 4.691 5.244 2.406-.12 4.691-2.026 4.691-5.244zm2.766 0c0 4.41-3.127 7.628-7.457 7.628s-7.457-3.338-7.457-7.628c0-4.41 3.127-7.627 7.457-7.627s7.457 3.218 7.457 7.627zm-19.724 7.15h2.766V8.344h-2.766v20.975zm-21.53-10.486c0-6.198 4.811-10.964 11.066-10.964 3.247 0 5.893 1.31 7.817 3.455l-1.924 1.787c-1.443-1.787-3.489-2.621-5.893-2.621-4.45 0-8.179 3.218-8.179 8.343 0 5.124 3.73 8.34 8.18 8.34 2.644 0 4.93-1.19 6.493-3.097l1.924 1.907c-1.803 2.145-4.81 3.694-8.418 3.694-6.255.12-11.066-4.53-11.066-10.844zM116.01 26.749c-2.359 0-4.347-1.971-4.347-4.674 0-2.725 1.988-4.718 4.346-4.718 2.335 0 4.161 1.993 4.161 4.718.023 2.726-1.826 4.674-4.16 4.674zm3.928-11.957v1.259h-.114c-.764-.916-2.243-1.74-4.115-1.74-3.907 0-7.49 3.389-7.49 7.764 0 4.329 3.583 7.72 7.49 7.72 1.872 0 3.351-.825 4.115-1.764h.114v1.123c0 2.954-1.594 4.535-4.16 4.535-2.104 0-3.398-1.49-3.93-2.75l-2.982 1.237c.855 2.062 3.144 4.582 6.935 4.582 4.023 0 7.421-2.337 7.421-8.063V14.792h-3.284zM98.95 26.749c-2.358 0-4.415-1.924-4.415-4.697 0-2.794 2.034-4.695 4.415-4.695 2.381 0 4.415 1.9 4.415 4.695 0 2.773-2.057 4.697-4.415 4.697zm0-12.416c-4.323 0-7.837 3.253-7.837 7.742 0 4.467 3.514 7.743 7.837 7.743 4.322 0 7.836-3.276 7.836-7.743 0-4.49-3.514-7.742-7.836-7.742zM81.842 26.749c-2.357 0-4.414-1.924-4.414-4.697 0-2.794 2.034-4.695 4.414-4.695 2.36 0 4.416 1.9 4.416 4.695 0 2.773-2.057 4.697-4.416 4.697zm0-12.416c-4.322 0-7.835 3.253-7.835 7.742 0 4.467 3.513 7.743 7.835 7.743 4.324 0 7.837-3.276 7.837-7.743 0-4.49-3.513-7.742-7.837-7.742zM49.18 17.792c0-6.643 5.618-12.025 12.321-12.025 3.7 0 6.334 1.443 8.322 3.32l-2.358 2.315c-1.41-1.33-3.329-2.36-5.964-2.36-4.877 0-8.692 3.894-8.692 8.728 0 4.833 3.815 8.726 8.692 8.726 3.167 0 4.97-1.26 6.126-2.405.947-.94 1.572-2.29 1.803-4.123H61.5v-3.275h11.165c.116.596.186 1.283.186 2.06 0 2.475-.67 5.52-2.867 7.675-2.15 2.198-4.878 3.367-8.484 3.367-6.703 0-12.32-5.383-12.32-12.003zM125.58 6.59H129v22.746h-3.42zM138.154 17.31c1.364 0 2.521.666 2.89 1.65l-6.98 2.864c-.094-2.98 2.333-4.513 4.09-4.513zm.255 9.439c-1.757 0-2.983-.802-3.79-2.337l10.448-4.284-.347-.87c-.647-1.741-2.636-4.925-6.68-4.925-4.023 0-7.375 3.139-7.375 7.742 0 4.329 3.305 7.743 7.744 7.743 3.583 0 5.64-2.177 6.52-3.437l-2.66-1.763c-.902 1.282-2.103 2.13-3.86 2.13z"/></g></svg>