<svg viewBox="0 0 295 105" xmlns="http://www.w3.org/2000/svg" fill-rule="evenodd" clip-rule="evenodd" stroke-linejoin="round" stroke-miterlimit="2"><path d="M135.124 49.45l3.15-3.14-4.68-4.72V26.97l4.68-4.71-3.15-3.15-6.25 6.29v17.77l6.25 6.28z" fill="#fff" fill-rule="nonzero"/><circle cx="181.45" cy="45.57" r="2.24" fill="#fff" transform="translate(-41.456 -11.29)"/><circle cx="188.1" cy="45.57" r="2.24" fill="#fff" transform="translate(-41.456 -11.29)"/><circle cx="194.78" cy="45.57" r="2.24" fill="#fff" transform="translate(-41.456 -11.29)"/><path d="M158.114 19.11l-3.1 3.15 4.68 4.71v14.62l-4.68 4.72 3.1 3.14 6.29-6.28V25.4l-6.29-6.29z" fill="#fff" fill-rule="nonzero"/><path d="M183.634 30.99l-15.63-27.16a7.007 7.007 0 00-5.86-3.51h-31.23a6.846 6.846 0 00-5.86 3.51l-15.63 27.08a6.84 6.84 0 000 6.78L125.054 65a7.065 7.065 0 005.86 3.63h31.27a7.006 7.006 0 005.86-3.59l15.63-27.15a6.898 6.898 0 00-.04-6.9zm-15.63 34a7.006 7.006 0 01-5.86 3.59h-8.18l-17.14-17.14 3.86-2.23-7.21-7.18v-3.98h2.11l-2-2a2.13 2.13 0 011.27-3.59l-1.43-1.43v-3.99l8.09-4.63-4.78-4.78 3.15-1.84h.08l6.58 3.75 6.46-3.75h.08l3.15 1.84 24.76 24.76-12.99 22.6z" fill="#4285f4" fill-rule="nonzero"/><path d="M149.744 21.42l9.8 5.62v4h-3.38v-2.13l-8.06-4.7v3.5h-3.23v-3.5l-8.05 4.7v2.12h-3.28l1.43 1.43h.24a2.128 2.128 0 011.974 2.115 2.128 2.128 0 01-1.974 2.115 2.19 2.19 0 01-1.51-.64l2 2h1.24v2.11l8.05 4.7v-3.43h3.23v3.43l8.06-4.7v-2.11h3.26v4l-9.8 5.66 6.53 3.78-3.15 1.84h-.07l-6.46-3.75-6.46 3.75h-.08l-3.15-1.84 17.14 17.14h8.18a7.006 7.006 0 005.86-3.59l13-22.61-24.77-24.72-6.57 3.71zm-3.2 18.46h-.01a2.13 2.13 0 01-2.12-2.12 2.13 2.13 0 012.12-2.12 2.13 2.13 0 012.12 2.12v.01a2.14 2.14 0 01-2.11 2.11zm0-6.38h-.01a2.13 2.13 0 01-2.12-2.12 2.13 2.13 0 012.12-2.12 2.13 2.13 0 012.12 2.12v.01a2.13 2.13 0 01-2.11 2.11zm11.37 3.21h-.01a2.13 2.13 0 01-2.12-2.12 2.13 2.13 0 012.12-2.12 2.13 2.13 0 012.12 2.12v.01a2.13 2.13 0 01-2.11 2.11z" fill="#4285f4" fill-rule="nonzero"/><path d="M149.744 21.42l9.8 5.62v4h-3.38v-2.13l-8.06-4.7v3.5h-3.23v-3.5l-8.05 4.7v2.12h-3.28l1.43 1.43h.24a2.128 2.128 0 011.974 2.115 2.128 2.128 0 01-1.974 2.115 2.19 2.19 0 01-1.51-.64l2 2h1.24v2.11l8.05 4.7v-3.43h3.23v3.43l8.06-4.7v-2.11h3.26v4l-9.8 5.66 6.53 3.78-3.15 1.84h-.07l-6.46-3.75-6.46 3.75h-.08l-3.15-1.84 17.14 17.14h8.18a7.006 7.006 0 005.86-3.59l13-22.61-24.77-24.72-6.57 3.71zm-3.2 18.46h-.01a2.13 2.13 0 01-2.12-2.12 2.13 2.13 0 012.12-2.12 2.13 2.13 0 012.12 2.12v.01a2.14 2.14 0 01-2.11 2.11zm0-6.38h-.01a2.13 2.13 0 01-2.12-2.12 2.13 2.13 0 012.12-2.12 2.13 2.13 0 012.12 2.12v.01a2.13 2.13 0 01-2.11 2.11zm11.37 3.21h-.01a2.13 2.13 0 01-2.12-2.12 2.13 2.13 0 012.12-2.12 2.13 2.13 0 012.12 2.12v.01a2.13 2.13 0 01-2.11 2.11z" fill-rule="nonzero"/><path d="M133.544 42.03l7.21 7.18 2.61-1.5-9.82-5.68z" fill="#4285f4" fill-rule="nonzero"/><path d="M133.544 42.03l7.21 7.18 2.61-1.5-9.82-5.68z" fill-rule="nonzero"/><path d="M136.824 17.63l4.78 4.78 1.72-1-6.5-3.78z" fill="#4285f4" fill-rule="nonzero"/><path d="M136.824 17.63l4.78 4.78 1.72-1-6.5-3.78z" fill-rule="nonzero"/><circle cx="199.37" cy="45.87" r="2.11" fill="#fff" transform="translate(-41.456 -11.29)"/><path d="M135.144 36.71a2.128 2.128 0 001.974-2.115 2.128 2.128 0 00-1.974-2.115.691.691 0 00-.24 0 2.129 2.129 0 00-1.87 2.12 2.002 2.002 0 00.6 1.47c.43.35.957.559 1.51.6v.04z" fill="#fff" fill-rule="nonzero"/><circle cx="188.01" cy="42.68" r="2.11" fill="#fff" transform="translate(-41.456 -11.29)"/><circle cx="188.01" cy="49.02" r="2.11" fill="#fff" transform="translate(-41.456 -11.29)"/><path d="M136.864 31.03v-2.16l8.05-4.7v3.47h3.23v-3.47l8.06 4.7v2.16h3.34v-4l-9.84-5.62 6.54-3.79-3.2-1.84h-.07l-6.43 3.76-6.5-3.75h-.08l-3.15 1.84 6.5 3.79-1.72 1-8.05 4.62v4l3.32-.01zm3.19 22.25l6.5-3.75 6.46 3.75h.07l3.2-1.84-6.54-3.73 9.8-5.68v-4h-3.38v2.15l-8.06 4.7v-3.41h-3.23v3.43l-8.05-4.7v-2.15h-3.28v4l9.82 5.66-2.68 1.51-3.86 2.23 3.15 1.84.08-.01z" fill="#fff" fill-rule="nonzero"/><path d="M183.674 30.71l-15.63-27.2a6.936 6.936 0 00-5.86-3.51h-31.27a6.936 6.936 0 00-5.86 3.51l-15.67 27.12a6.915 6.915 0 000 6.82l15.63 27.35a7.065 7.065 0 005.86 3.63h31.31a7.006 7.006 0 005.86-3.59l15.63-27.19a6.948 6.948 0 000-6.94z" fill="#4285f4" fill-rule="nonzero"/><path d="M165.544 23.21l-7.3-1.79-1.12 1.15 5.62 5.63v7.73l-11.56-11.6h-9.45l-5.94-5.94-6.19 5.32-2.16 21.51 23.21 23.21h11.53a7.006 7.006 0 005.86-3.59L182.314 40l-16.77-16.79z" fill-rule="nonzero"/><path d="M141.764 29.83l4.78 2.75 4.74-2.75v-5.5l-4.74-2.75-4.79 2.75.01 5.5zm6.54 11.21l4.78 2.75 4.75-2.75v-5.51l-4.75-2.71-4.78 2.71v5.51zm-13.08.16l4.79 2.75 4.74-2.75v-5.49l-4.74-2.75-4.79 2.75v5.49z" fill="#fff" fill-rule="nonzero"/><path d="M135.824 22.57l-4.75 2.76v17.78l4.75 2.75v4.19l-8.28-4.79V23.17l8.3-4.78-.02 4.18zm21.41 0l4.75 2.76v17.78l-4.75 2.75v4.19l8.31-4.79V23.17l-8.34-4.78.03 4.18z" fill="#fff" fill-rule="nonzero"/><path d="M14.544 97.12a6.296 6.296 0 01-2.8 1.84c-1.285.45-2.64.67-4 .65a8 8 0 01-4-1 6.708 6.708 0 01-2.74-2.9 10.152 10.152 0 01-1-4.5V90a10.928 10.928 0 01.89-4.61 6.647 6.647 0 012.59-3 7.542 7.542 0 014-1 7.47 7.47 0 015 1.51 6.495 6.495 0 012.06 4.35h-3.58a3.552 3.552 0 00-1.08-2.24 3.44 3.44 0 00-2.3-.7 3.264 3.264 0 00-2.84 1.4 7.427 7.427 0 00-1 4.18v1.13a6.997 6.997 0 001.06 4.22 3.622 3.622 0 003.12 1.47 4.062 4.062 0 002.95-.88v-3.12h-3.33v-2.7h7v7.11zM16.714 92.64a7.756 7.756 0 01.76-3.5 5.518 5.518 0 012.18-2.38 6.378 6.378 0 013.3-.84 6.005 6.005 0 014.36 1.63 6.572 6.572 0 011.89 4.45v.9a6.92 6.92 0 01-1.66 4.88c-2.53 2.427-6.58 2.427-9.11 0a7.003 7.003 0 01-1.71-5l-.01-.14zm3.53.25a4.94 4.94 0 00.71 2.88 2.323 2.323 0 002 1 2.362 2.362 0 002-1 5.415 5.415 0 00.72-3.15 4.871 4.871 0 00-.72-2.86 2.344 2.344 0 00-2-1 2.312 2.312 0 00-2 1 5.493 5.493 0 00-.71 3.13zM30.854 92.64a7.756 7.756 0 01.76-3.5 5.565 5.565 0 012.17-2.38 6.396 6.396 0 013.31-.84 6.005 6.005 0 014.36 1.63 6.572 6.572 0 011.89 4.45v.9a6.922 6.922 0 01-1.7 4.88c-2.53 2.427-6.58 2.427-9.11 0a7.003 7.003 0 01-1.7-5l.02-.14zm3.53.25a4.937 4.937 0 00.7 2.88 2.551 2.551 0 004 0 5.415 5.415 0 00.72-3.15 4.871 4.871 0 00-.72-2.86 2.512 2.512 0 00-4 0 5.5 5.5 0 00-.7 3.13zM45.024 92.71a7.723 7.723 0 011.45-4.9 4.692 4.692 0 013.9-1.85 4.125 4.125 0 013.38 1.49l.14-1.25h3.2v12.77a5.703 5.703 0 01-.78 3 5.157 5.157 0 01-2.22 2 7.757 7.757 0 01-3.34.67 7.22 7.22 0 01-2.84-.58 4.995 4.995 0 01-2.08-1.49l1.56-2.15a4.141 4.141 0 003.2 1.47c.797.05 1.582-.22 2.18-.75a2.82 2.82 0 00.78-2.13v-.7a4.09 4.09 0 01-3.21 1.37 4.685 4.685 0 01-3.8-1.97 7.722 7.722 0 01-1.47-4.93l-.05-.07zm3.53.26a4.82 4.82 0 00.72 2.82 2.291 2.291 0 002 1 2.435 2.435 0 002.3-1.21v-5.56a2.432 2.432 0 00-2.28-1.21 2.302 2.302 0 00-2 1 5.443 5.443 0 00-.75 3.12l.01.04zM60.004 80.62h3.54v18.75h-3.54zM72.544 99.61a6.473 6.473 0 01-4.73-1.78 6.322 6.322 0 01-1.82-4.75v-.37a8.045 8.045 0 01.76-3.56 5.668 5.668 0 012.18-2.41 6.105 6.105 0 013.22-.85 5.494 5.494 0 014.27 1.71 7.004 7.004 0 011.55 4.84v1.44h-8.43c.074.79.429 1.529 1 2.08.6.529 1.38.808 2.18.78a3.814 3.814 0 003.19-1.48l1.73 1.94a5.28 5.28 0 01-2.15 1.76 7.155 7.155 0 01-2.95.65zm-.4-10.85a2.242 2.242 0 00-1.71.71 3.75 3.75 0 00-.83 2h4.91v-.28a2.6 2.6 0 00-.64-1.82 2.268 2.268 0 00-1.76-.61h.03zM100.354 93.45a6.28 6.28 0 01-2.11 4.52 7.442 7.442 0 01-5 1.64 6.684 6.684 0 01-5.38-2.3 9.453 9.453 0 01-2-6.31v-1.09a10.728 10.728 0 01.9-4.52 6.714 6.714 0 012.58-3 8.064 8.064 0 018.86.6 6.787 6.787 0 012.17 4.63h-3.66a3.716 3.716 0 00-1-2.5 3.538 3.538 0 00-2.51-.77 3.103 3.103 0 00-2.66 1.36 7.262 7.262 0 00-1 4v1.34a7.873 7.873 0 00.87 4.21 3.004 3.004 0 002.75 1.33 3.58 3.58 0 002.53-.77 3.503 3.503 0 001-2.4l3.66.03zM101.984 92.64a7.756 7.756 0 01.76-3.5 5.565 5.565 0 012.17-2.38 6.396 6.396 0 013.31-.84 6.002 6.002 0 014.32 1.63 6.572 6.572 0 011.89 4.45v.9a6.922 6.922 0 01-1.7 4.88c-2.53 2.427-6.58 2.427-9.11 0a7.003 7.003 0 01-1.7-5l.06-.14zm3.53.25a4.937 4.937 0 00.7 2.88 2.551 2.551 0 004 0 5.415 5.415 0 00.72-3.15 4.871 4.871 0 00-.72-2.86 2.512 2.512 0 00-4 0 5.497 5.497 0 00-.67 3.13h-.03zM119.914 86.16l.11 1.53a4.615 4.615 0 013.8-1.77 3.823 3.823 0 013.12 1.23 5.741 5.741 0 011 3.69v8.53h-3.53v-8.45a2.322 2.322 0 00-.48-1.63 2.239 2.239 0 00-1.63-.5 2.416 2.416 0 00-2.23 1.27v9.31h-3.53V86.16h3.37zM134.894 82.92v3.24h2.26v2.55h-2.26v6.59c-.036.372.063.745.28 1.05.297.249.685.365 1.07.32.335.001.67-.029 1-.09v2.68a7.286 7.286 0 01-2.13.31c-2.48 0-3.74-1.24-3.79-3.74v-7.12h-1.93v-2.55h1.93v-3.24h3.57zM146.774 99.37a3.908 3.908 0 01-.36-1.18 4.253 4.253 0 01-3.33 1.42 4.7 4.7 0 01-3.22-1.12 3.602 3.602 0 01-1.27-2.83 3.743 3.743 0 011.55-3.22 7.7 7.7 0 014.5-1.14h1.63v-.76a2.196 2.196 0 00-.47-1.46 1.857 1.857 0 00-1.49-.55 2 2 0 00-1.39.43 1.431 1.431 0 00-.51 1.17h-3.53a3.563 3.563 0 01.71-2.12 4.622 4.622 0 012-1.54 7.294 7.294 0 012.91-.55 5.792 5.792 0 013.87 1.22 4.29 4.29 0 011.44 3.45v5.73a6.215 6.215 0 00.52 2.84v.21h-3.56zm-2.92-2.45c.5.003.996-.118 1.44-.35a2.288 2.288 0 001-.94v-2.27h-1.32c-1.77 0-2.71.61-2.82 1.84v.2a1.42 1.42 0 00.46 1.09c.345.292.788.446 1.24.43zM152.544 82.71a1.75 1.75 0 01.53-1.3 2.307 2.307 0 012.89 0c.357.336.554.81.54 1.3.014.498-.186.979-.55 1.32a2 2 0 01-1.43.52 2 2 0 01-1.44-.52 1.733 1.733 0 01-.54-1.32zm3.75 16.63h-3.54V86.16h3.54v13.18zM162.394 86.16l.15 1.55a4.621 4.621 0 013.8-1.77 3.823 3.823 0 013.12 1.23 5.68 5.68 0 011.05 3.69v8.53h-3.57v-8.45a2.322 2.322 0 00-.48-1.63 2.239 2.239 0 00-1.63-.5 2.416 2.416 0 00-2.23 1.27v9.31h-3.53V86.16h3.32zM179.224 99.61a6.453 6.453 0 01-4.72-1.78 6.332 6.332 0 01-1.83-4.75v-.37a8.062 8.062 0 01.77-3.56 5.614 5.614 0 012.18-2.41 6.058 6.058 0 013.21-.85 5.494 5.494 0 014.27 1.71 6.922 6.922 0 011.56 4.84v1.44h-8.41a3.22 3.22 0 001 2.08c.6.53 1.38.809 2.18.78a3.784 3.784 0 003.18-1.48l1.74 1.94a5.348 5.348 0 01-2.15 1.76 7.229 7.229 0 01-2.98.65zm-.4-10.85a2.2 2.2 0 00-1.7.71 3.749 3.749 0 00-.84 2h4.91v-.28a2.648 2.648 0 00-.63-1.82 2.292 2.292 0 00-1.74-.61zM194.084 89.47a10.584 10.584 0 00-1.27-.1 2.576 2.576 0 00-2.62 1.36v8.64h-3.53V86.16h3.33l.1 1.58a3.265 3.265 0 012.94-1.82c.373-.004.744.05 1.1.16l-.05 3.39zM208.814 92.86h-2.91v6.51h-3.66V81.6h6.6a7.503 7.503 0 014.86 1.4 4.854 4.854 0 011.71 4 5.497 5.497 0 01-.79 3 5.395 5.395 0 01-2.39 1.94l3.85 7.26v.17h-3.93l-3.34-6.51zm-2.91-3h2.95a3.08 3.08 0 002.14-.7c.515-.51.788-1.216.75-1.94a2.669 2.669 0 00-.71-2 3.003 3.003 0 00-2.19-.72h-2.94v5.36zM224.044 99.61a6.46 6.46 0 01-4.73-1.78 6.332 6.332 0 01-1.83-4.75v-.37a8.062 8.062 0 01.77-3.56 5.614 5.614 0 012.18-2.41 6.075 6.075 0 013.22-.85 5.483 5.483 0 014.26 1.71 6.922 6.922 0 011.56 4.84v1.44h-8.41a3.268 3.268 0 001 2.08c.6.53 1.38.809 2.18.78a3.784 3.784 0 003.18-1.48l1.74 1.94a5.348 5.348 0 01-2.15 1.76 7.148 7.148 0 01-2.97.65zm-.41-10.85a2.223 2.223 0 00-1.7.71 3.825 3.825 0 00-.84 2h4.91v-.28a2.599 2.599 0 00-.63-1.82 2.292 2.292 0 00-1.74-.61zM230.964 92.71a7.785 7.785 0 011.44-4.9 4.723 4.723 0 013.9-1.85 4.143 4.143 0 013.39 1.49l.14-1.25h3.2v12.77a5.62 5.62 0 01-.79 3 5.063 5.063 0 01-2.21 2 7.77 7.77 0 01-3.35.67 7.17 7.17 0 01-2.83-.58 5.12 5.12 0 01-2.09-1.49l1.57-2.15a4.132 4.132 0 003.19 1.47 3 3 0 002.19-.75 2.82 2.82 0 00.78-2.13v-.7a4.09 4.09 0 01-3.21 1.37 4.674 4.674 0 01-3.85-1.86 7.722 7.722 0 01-1.47-4.93v-.18zm3.53.26a4.82 4.82 0 00.72 2.82 2.282 2.282 0 002 1 2.445 2.445 0 002.31-1.21v-5.56a2.432 2.432 0 00-2.28-1.21 2.302 2.302 0 00-2 1 5.44 5.44 0 00-.7 3.12l-.05.04zM245.724 82.71a1.71 1.71 0 01.53-1.3 2.296 2.296 0 012.88 0c.715.72.715 1.9 0 2.62a2.246 2.246 0 01-2.87 0 1.733 1.733 0 01-.54-1.32zm3.74 16.63h-3.54V86.16h3.54v13.18zM259.544 95.71a1.142 1.142 0 00-.64-1 7.087 7.087 0 00-2.06-.66c-3.14-.667-4.71-2-4.71-4a3.622 3.622 0 011.41-2.95 5.87 5.87 0 013.82-1.18 6.341 6.341 0 014 1.18 3.76 3.76 0 011.51 3.08h-3.53a1.718 1.718 0 00-.49-1.25 2.07 2.07 0 00-1.53-.5 2.125 2.125 0 00-1.38.41 1.261 1.261 0 00-.48 1 1.09 1.09 0 00.55.95 5.893 5.893 0 001.88.62c.754.14 1.496.338 2.22.59 1.86.667 2.79 1.85 2.79 3.55a3.444 3.444 0 01-1.55 2.93 6.714 6.714 0 01-4 1.11 6.914 6.914 0 01-2.95-.59 4.88 4.88 0 01-2-1.62 3.758 3.758 0 01-.73-2.23h3.34c0 .562.258 1.093.7 1.44a2.718 2.718 0 001.73.5 2.568 2.568 0 001.53-.38 1.19 1.19 0 00.57-1zM269.454 82.92v3.24h2.26v2.55h-2.26v6.59c-.036.372.063.745.28 1.05.297.249.685.365 1.07.32.335.001.67-.029 1-.09v2.68a7.281 7.281 0 01-2.14.31c-2.47 0-3.73-1.24-3.78-3.74v-7.12h-1.93v-2.55h1.93v-3.24h3.57zM281.094 89.47a10.584 10.584 0 00-1.27-.1 2.576 2.576 0 00-2.62 1.36v8.64h-3.53V86.16h3.33l.1 1.58a3.265 3.265 0 012.94-1.82c.373-.004.744.05 1.1.16l-.05 3.39zM287.944 94.38l2.44-8.22h3.79l-5.31 15.26-.3.7a4.01 4.01 0 01-3.9 2.58 5.385 5.385 0 01-1.57-.23v-2.67h.54a3.004 3.004 0 001.5-.3c.354-.245.624-.595.77-1l.42-1.08-4.63-13.25h3.85l2.4 8.21z" fill="#333" fill-rule="nonzero"/></svg>