<svg viewBox="0 0 271 107" xmlns="http://www.w3.org/2000/svg" fill-rule="evenodd" clip-rule="evenodd" stroke-linejoin="round" stroke-miterlimit="2"><path d="M169.573 39.486c-1.747 3.08-3.5 6.157-5.26 9.23-2.98 5.16-5.98 10.32-9 15.48a6.217 6.217 0 01-5.29 3.32c-4.21.12-8.43 0-12.65 0-.06-.41-.4-.6-.65-.85l-20-20c-.32-.32-.73-.59-.71-1.12.25.12.5.23.74.37 2 1.127 4 2.267 6 3.42.47.28.64.21.63-.35v-2.84a1.004 1.004 0 00-.63-1.09c-1.21-.66-2.39-1.39-3.62-2.05a1.133 1.133 0 01-.65-1.13v-16.14a1.193 1.193 0 01.74-1.21c1.21-.65 2.37-1.38 3.58-2 .417-.198.663-.642.61-1.1v-3c.521.16.985.466 1.34.88l4.39 4.39c.23.24.53.43.53.82-.69.46-.58.76.14 1.12 1.03.529 2.03 1.11 3 1.74a1.222 1.222 0 001.43 0c1.25-.74 2.53-1.44 3.8-2.16.34.17.63.37.59.81a41.034 41.034 0 00-4.4 2.43c-.29.17-.29.44-.29.72v4c0 .65.2.65.68.36 1.1-.66 2.2-1.31 3.34-1.92.453-.187.73-.653.68-1.14v-4.5c.32-.06.5.16.7.35l4.23 4 4.97 4.75c.17.22.432.349.71.35.18 1.89-.06 3.8.11 5.68a2.01 2.01 0 01-1.5 2.34c-.11 0-.23.07-.34.12a8.926 8.926 0 00-2.94 1.9c-.52.61-.1 1.71-.15 2.59v.83c-.06.68.17.71.71.4 2.37-1.39 4.76-2.77 7.16-4.12.497-.227.8-.746.75-1.29v-20.56c.52-.07.76.34 1 .63a7610.23 7610.23 0 0112.38 12.39c1.11 1.04 2.12 2.1 3.14 3.15zm-34.59-4.52l4.28 2.49a.6.6 0 00.68 0c1.23-.73 2.47-1.45 3.71-2.16.47-.26.4-.43 0-.66-1.22-.69-2.43-1.4-3.64-2.1a.621.621 0 00-.68-.09c-1.43.82-2.85 1.63-4.35 2.52zm-2.42 0l-4.31-2.5a.472.472 0 00-.52 0l-4.4 2.54 4.32 2.49a.6.6 0 00.61 0l4.3-2.53zm-4.08 5.68v2.42c0 .51.11.67.62.37 1.15-.69 2.32-1.34 3.48-2a.832.832 0 00.51-.79v-4.11c0-.54-.18-.67-.65-.39a13.13 13.13 0 01-1.82 1c-1.84.72-2.7 1.86-2.14 3.5zm4.56-9.57v-2a.81.81 0 00-.44-.82c-1.2-.68-2.38-1.38-3.56-2.08-.54-.32-.61-.06-.6.41v4c-.025.404.22.78.6.92 1.07.58 2.14 1.18 3.18 1.82.6.37.87.37.83-.43-.03-.59-.01-1.21-.01-1.82zm-5.56 10c-.03-.58-.03-1.16 0-1.74a1.254 1.254 0 00-.77-1.38c-1-.51-2-1.12-2.93-1.69-.82-.47-.89-.44-.9.47.04.456.04.914 0 1.37-.4 2.21.31 3.76 2.54 4.46.08 0 .15.1.23.14.57.28 1.23 1 1.65.79.42-.21.12-1.16.17-1.78.01-.18.01-.4.01-.64zm12.55-.45v2.42c0 .7.15.66.63.37 1.15-.69 2.32-1.36 3.49-2a.772.772 0 00.48-.79v-4c0-.57-.14-.75-.68-.42-.555.375-1.136.71-1.74 1-1.73.69-2.73 1.76-2.17 3.45l-.01-.03zm-.95.34v-2a.811.811 0 00-.46-.82c-1.17-.66-2.33-1.34-3.49-2-.45-.26-.66-.19-.66.38v4.13a.692.692 0 00.36.68c1.22.69 2.43 1.4 3.65 2.1.38.21.58.13.58-.33l.02-2.14z" fill="#4e7cd7" fill-rule="nonzero"/><path d="M103.043 19.816c1.68-2.94 3.34-5.9 5-8.84 1.4-2.44 2.82-4.87 4.22-7.3a6.849 6.849 0 016.32-3.67h30.63a6.778 6.778 0 016.26 3.6l8.76 15.16c.082.16.152.328.21.5h-15a2.537 2.537 0 00-1.72.42c-.85-.46-1.72-.9-2.54-1.41-.63-.38-.79-.2-.73.45a1.51 1.51 0 01-.05.36h-16.73a3.725 3.725 0 01-3.27-1.2c-.3-.37-.76-.57-1.09.05l-3.83 2.14a2.474 2.474 0 00-1.34-.22l-15.1-.04z" fill="#5388f2" fill-rule="nonzero"/><path d="M103.043 19.816h15.12c.456-.037.912.053 1.32.26-1.28.74-2.54 1.5-3.83 2.2a1.495 1.495 0 00-.88 1.5v19.14c0 1.14-.13 2.26 1.29 2.67 0 .53.39.8.71 1.12l20 20c.25.25.59.44.65.85-1.5 0-3 0-4.49.06h-14.32a6.869 6.869 0 01-6.33-3.67l-15-26a7.342 7.342 0 01-.1-8c1.89-3.18 3.71-6.4 5.56-9.61.06-.26.19-.37.3-.52zM147.693 19.696a2.537 2.537 0 011.72-.42h15c1.52 2.573 3.033 5.15 4.54 7.73.62 1 1.21 2.12 1.83 3.17a6.78 6.78 0 010 7.21c-.41.71-.85 1.41-1.27 2.11-1-1-2-2.11-3.07-3.14-4.12-4.14-8.247-8.27-12.38-12.39-.29-.29-.53-.7-1-.63a1.073 1.073 0 00-.67-.86c-1.58-.89-3.14-1.85-4.7-2.78zM123.283 17.966c.33-.62.79-.42 1.09-.05a3.725 3.725 0 003.27 1.2h16.73c.035.69.035 1.38 0 2.07-.07.78.13 1.32.92 1.55a17.217 17.217 0 003.94 4.09c.08 2.88.13 5.75 0 8.63a.901.901 0 01-.71-.35l-4.95-4.76-4.23-4c-.2-.19-.38-.41-.7-.35 0-.44-.25-.64-.58-.81a27.455 27.455 0 00-4.19-2.54 1.001 1.001 0 00-1.15.13c-1 .64-2 1.16-3 1.73 0-.39-.3-.58-.53-.82l-4.39-4.39a2.888 2.888 0 00-1.34-.88l-.18-.45z" fill="#5487ec" fill-rule="nonzero"/><path d="M145.333 22.716c1.19.67 2.41 1.29 3.57 2 .83.52.32 1.38.37 2.09a17.217 17.217 0 01-3.94-4.09z" fill="#4e7cd7" fill-rule="nonzero"/><path d="M14.533 98.486a6.319 6.319 0 01-2.79 1.84 11.635 11.635 0 01-4 .65 7.935 7.935 0 01-4-1 6.72 6.72 0 01-2.74-2.9 10.328 10.328 0 01-1-4.5v-1.21a10.916 10.916 0 01.9-4.61 6.647 6.647 0 012.59-3 7.494 7.494 0 014-1 7.393 7.393 0 014.94 1.51 6.453 6.453 0 012.11 4.39h-3.57a3.552 3.552 0 00-1.08-2.24 3.472 3.472 0 00-2.3-.7c-1.12-.07-2.2.446-2.85 1.36a7.342 7.342 0 00-1 4.17v1.14a6.997 6.997 0 001.06 4.22 3.602 3.602 0 003.13 1.47 4.003 4.003 0 002.94-.88v-3.12h-3.33v-2.7h7l-.01 7.11zM16.723 94.006a7.756 7.756 0 01.76-3.5 5.565 5.565 0 012.17-2.38 6.396 6.396 0 013.31-.84 6.005 6.005 0 014.36 1.63 6.572 6.572 0 011.89 4.45v.9a6.922 6.922 0 01-1.7 4.88c-2.53 2.427-6.58 2.427-9.11 0a7.003 7.003 0 01-1.7-5l.02-.14zm3.53.25a4.937 4.937 0 00.7 2.88 2.551 2.551 0 004 0 5.415 5.415 0 00.72-3.15 4.871 4.871 0 00-.72-2.86 2.512 2.512 0 00-4 0 5.5 5.5 0 00-.7 3.13zM30.863 94.006a7.893 7.893 0 01.75-3.5 5.594 5.594 0 012.18-2.38 6.378 6.378 0 013.3-.84 6.002 6.002 0 014.39 1.63 6.615 6.615 0 011.88 4.45v.9a6.922 6.922 0 01-1.7 4.88c-2.53 2.427-6.58 2.427-9.11 0a7.003 7.003 0 01-1.7-5l.01-.14zm3.52.25a4.94 4.94 0 00.71 2.88 2.331 2.331 0 002 1 2.353 2.353 0 002-1 5.415 5.415 0 00.72-3.15 4.871 4.871 0 00-.72-2.86 2.344 2.344 0 00-2-1 2.312 2.312 0 00-2 1 5.493 5.493 0 00-.71 3.13zM45.033 94.076a7.785 7.785 0 011.44-4.9 4.723 4.723 0 013.9-1.85 4.082 4.082 0 013.38 1.49l.15-1.25h3.2v12.77a5.62 5.62 0 01-.79 3 5.063 5.063 0 01-2.21 2 7.802 7.802 0 01-3.35.67 7.17 7.17 0 01-2.83-.58 5 5 0 01-2.09-1.49l1.57-2.15a4.12 4.12 0 003.19 1.47 3 3 0 002.19-.75 2.82 2.82 0 00.78-2.13v-.7a4.09 4.09 0 01-3.21 1.37 4.672 4.672 0 01-3.87-1.97 7.732 7.732 0 01-1.47-4.94l.02-.06zm3.52.26a4.82 4.82 0 00.72 2.82 2.291 2.291 0 002 1 2.445 2.445 0 002.31-1.21v-5.56a2.432 2.432 0 00-2.28-1.21 2.291 2.291 0 00-2 1 5.427 5.427 0 00-.75 3.12v.04zM59.993 81.986h3.54v18.75h-3.54zM72.483 100.976a6.46 6.46 0 01-4.73-1.78 6.332 6.332 0 01-1.83-4.75v-.37a8.062 8.062 0 01.77-3.56 5.614 5.614 0 012.18-2.41 6.075 6.075 0 013.22-.85 5.46 5.46 0 014.26 1.71 6.922 6.922 0 011.56 4.84v1.44h-8.41a3.268 3.268 0 001 2.08c.6.53 1.38.809 2.18.78a3.784 3.784 0 003.18-1.48l1.74 1.94a5.348 5.348 0 01-2.15 1.76 7.148 7.148 0 01-2.97.65zm-.41-10.85a2.223 2.223 0 00-1.7.71 3.825 3.825 0 00-.84 2h4.95v-.28a2.599 2.599 0 00-.63-1.82 2.292 2.292 0 00-1.74-.61h-.04zM96.483 97.076h-6.42l-1.22 3.66h-3.89l6.53-17.77h3.4l6.65 17.77h-3.85l-1.2-3.66zm-5.43-3h4.43l-2.23-6.65-2.2 6.65zM110.423 90.836a10.584 10.584 0 00-1.27-.1 2.576 2.576 0 00-2.62 1.36v8.64h-3.53v-13.21h3.33l.15 1.55a3.265 3.265 0 012.94-1.82c.373-.004.744.05 1.1.16l-.1 3.42zM116.953 84.286v3.24h2.26v2.55h-2.26v6.59c-.036.372.063.745.28 1.05.301.25.692.366 1.08.32.335.002.67-.028 1-.09v2.68a7.286 7.286 0 01-2.13.31c-2.48 0-3.74-1.24-3.79-3.74v-7.12h-1.91v-2.55h1.93v-3.24h3.54zM121.153 84.076a1.731 1.731 0 01.53-1.3 2.276 2.276 0 012.89 0 1.7 1.7 0 01.53 1.3c.018.497-.179.978-.54 1.32a2.246 2.246 0 01-2.87 0 1.733 1.733 0 01-.54-1.32zm3.75 16.63h-3.54v-13.18h3.54v13.18zM128.773 100.736v-10.66h-2v-2.55h2v-1.12a4.574 4.574 0 011.27-3.45 4.932 4.932 0 013.57-1.23 8.54 8.54 0 011.8.25v2.73a4.635 4.635 0 00-1.07-.11c-1.33 0-2 .62-2 1.87v1.06h2.62v2.55h-2.62v10.62l-3.57.04zM144.423 100.736a3.908 3.908 0 01-.36-1.18 4.253 4.253 0 01-3.33 1.42 4.7 4.7 0 01-3.22-1.12 3.602 3.602 0 01-1.27-2.83 3.743 3.743 0 011.55-3.22 7.7 7.7 0 014.5-1.14h1.63v-.76a2.196 2.196 0 00-.47-1.46 1.857 1.857 0 00-1.49-.55 2.093 2.093 0 00-1.4.43 1.452 1.452 0 00-.5 1.17h-3.53a3.593 3.593 0 01.71-2.13 4.68 4.68 0 012-1.53 7.294 7.294 0 012.91-.55 5.812 5.812 0 013.87 1.22 4.29 4.29 0 011.44 3.45v5.73a6.215 6.215 0 00.52 2.84v.21h-3.56zm-2.94-2.45c.501.003.996-.118 1.44-.35a2.288 2.288 0 001-.94v-2.27h-1.32c-1.77 0-2.71.61-2.82 1.84v.2a1.42 1.42 0 00.46 1.09c.345.292.788.446 1.24.43zM155.663 98.136a2.32 2.32 0 001.59-.54 1.9 1.9 0 00.63-1.43h3.31a4.523 4.523 0 01-.73 2.46 4.787 4.787 0 01-2 1.74 6.144 6.144 0 01-2.76.61 5.742 5.742 0 01-4.47-1.8 7.111 7.111 0 01-1.63-5v-.23a7.003 7.003 0 011.64-4.87 5.653 5.653 0 014.46-1.82 5.56 5.56 0 014 1.41 5.003 5.003 0 011.52 3.75h-3.34a2.455 2.455 0 00-.63-1.67 2.361 2.361 0 00-3.48.25 5.223 5.223 0 00-.62 2.92v.36a5.267 5.267 0 00.62 2.94 2.152 2.152 0 001.89.92zM167.483 84.286v3.24h2.26v2.55h-2.26v6.59c-.036.372.063.745.28 1.05.297.249.685.365 1.07.32.335 0 .67-.03 1-.09v2.68a7.281 7.281 0 01-2.14.31c-2.47 0-3.73-1.24-3.78-3.74v-7.12h-1.93v-2.55h1.93v-3.24h3.57zM184.693 94.226h-2.92v6.51h-3.66v-17.77h6.6a7.453 7.453 0 014.86 1.4 4.854 4.854 0 011.71 4 5.419 5.419 0 01-.79 3 5.34 5.34 0 01-2.39 1.94l3.85 7.26v.17h-3.93l-3.33-6.51zm-2.92-3h3a3.06 3.06 0 002.14-.7 2.54 2.54 0 00.76-1.94 2.682 2.682 0 00-.72-2 3.003 3.003 0 00-2.19-.72h-2.94l-.05 5.36zM199.913 100.976a6.473 6.473 0 01-4.73-1.78 6.332 6.332 0 01-1.83-4.75v-.37a8.062 8.062 0 01.77-3.56 5.668 5.668 0 012.18-2.41 6.075 6.075 0 013.22-.85 5.46 5.46 0 014.26 1.71 6.922 6.922 0 011.56 4.84v1.44h-8.41a3.268 3.268 0 001 2.08c.6.529 1.381.808 2.18.78a3.814 3.814 0 003.19-1.48l1.73 1.94a5.348 5.348 0 01-2.15 1.76 7.148 7.148 0 01-2.97.65zm-.4-10.85a2.242 2.242 0 00-1.71.71 3.75 3.75 0 00-.83 2h4.9v-.28a2.55 2.55 0 00-.63-1.82 2.268 2.268 0 00-1.76-.61h.03zM206.833 94.076a7.723 7.723 0 011.45-4.9 4.692 4.692 0 013.9-1.85 4.094 4.094 0 013.38 1.49l.15-1.25h3.19v12.77a5.703 5.703 0 01-.78 3 5.157 5.157 0 01-2.22 2 7.757 7.757 0 01-3.34.67 7.22 7.22 0 01-2.84-.58 4.995 4.995 0 01-2.08-1.49l1.56-2.15a4.141 4.141 0 003.2 1.47c.797.05 1.582-.22 2.18-.75a2.82 2.82 0 00.78-2.13v-.7a4.09 4.09 0 01-3.21 1.37 4.683 4.683 0 01-3.85-1.86 7.732 7.732 0 01-1.47-4.94v-.17zm3.53.26a4.82 4.82 0 00.72 2.82 2.291 2.291 0 002 1 2.435 2.435 0 002.3-1.21v-5.56a2.432 2.432 0 00-2.28-1.21 2.27 2.27 0 00-2 1 5.35 5.35 0 00-.74 3.12v.04zM221.593 84.076a1.731 1.731 0 01.53-1.3 2.276 2.276 0 012.89 0 1.88 1.88 0 010 2.62 2.246 2.246 0 01-2.87 0 1.73 1.73 0 01-.55-1.32zm3.75 16.63h-3.54v-13.18h3.54v13.18zM235.403 97.076a1.15 1.15 0 00-.65-1 6.997 6.997 0 00-2-.66c-3.14-.667-4.71-2-4.71-4a3.613 3.613 0 011.44-2.95 5.895 5.895 0 013.82-1.18 6.315 6.315 0 014 1.18 3.73 3.73 0 011.51 3.08h-3.53c.017-.466-.16-.92-.49-1.25a2 2 0 00-1.52-.5 2.14 2.14 0 00-1.38.4c-.307.24-.488.61-.49 1 0 .395.214.76.56.95a5.804 5.804 0 001.87.62c.754.138 1.497.335 2.22.59 1.86.69 2.8 1.87 2.8 3.55a3.464 3.464 0 01-1.55 2.93 6.744 6.744 0 01-4 1.11 6.91 6.91 0 01-3-.59 4.88 4.88 0 01-2-1.62 3.758 3.758 0 01-.73-2.23h3.35c-.004.56.251 1.092.69 1.44a2.718 2.718 0 001.73.5 2.63 2.63 0 001.54-.38c.323-.226.517-.596.52-.99zM245.323 84.286v3.24h2.26v2.55h-2.26v6.59c-.036.372.063.745.28 1.05.298.248.685.364 1.07.32.335 0 .67-.03 1-.09v2.68a7.286 7.286 0 01-2.13.31c-2.48 0-3.74-1.24-3.79-3.74v-7.12h-1.93v-2.55h1.93v-3.24h3.57zM256.973 90.836a10.794 10.794 0 00-1.27-.1 2.584 2.584 0 00-2.63 1.36v8.64h-3.53v-13.21h3.34l.09 1.58a3.265 3.265 0 012.94-1.82c.373-.005.744.049 1.1.16l-.04 3.39zM263.813 95.746l2.45-8.22h3.78l-5.31 15.26-.29.7a4.008 4.008 0 01-3.91 2.58 5.357 5.357 0 01-1.56-.23v-2.67h.51a3.004 3.004 0 001.5-.3c.358-.241.628-.592.77-1l.42-1.08-4.63-13.25h3.8l2.47 8.21z" fill="#333" fill-rule="nonzero"/></svg>