<svg height="128" viewBox="0 0 376 128" width="376" xmlns="http://www.w3.org/2000/svg" xmlns:xlink="http://www.w3.org/1999/xlink"><mask id="a" fill="#fff"><path d="m0 18.6916682v-.0727681c.00595997-.4645615.12607262-.9277885.36033795-1.3343501l3.48855679-5.95885 5.5320277-9.6533c.48169529-.95275 1.44321886-1.43005 2.40567586-1.43005h18.041169c1.0828809 0 1.9239806.5957 2.4056759 1.310725l3.4876233 5.95885 5.5329612 9.6533c.4807618.953675.4807618 1.90735 0 2.7417l-9.0205845 15.61215c-.4816953.95275-1.4432188 1.429125-2.4056759 1.429125h-18.041169c-.962457 0-1.92398057-.5957-2.40567586-1.429125l-9.02058449-15.49375c-.23426533-.4061109-.35437798-.8691067-.36033795-1.3336569m20.686759 5.3860819c3.1272853 0 5.5329612-2.50305 5.5329612-5.482475s-2.5260997-5.48155-5.5329612-5.48155-5.5320277 2.502125-5.5320277 5.48155" fill="#fff" fill-rule="evenodd"/></mask><g fill="none" fill-rule="evenodd" transform="translate(20 47)"><path d="m14.4331219 7.63125h21.2879446l-3.4876233-5.95885c-.4816953-.83435-1.322795-1.43005-2.4056759-1.43005h-18.041169c-.962457 0-1.92398057.4773-2.40567586 1.43005l-5.5320277 9.6533 10.58422716 18.2336z" fill="#5273aa" mask="url(#a)"/><path d="m14.4331219 29.5593-10.58422716-18.2336-3.48855679 5.95885c-.48076177.83435-.48076177 1.90735 0 2.740775l9.02058449 15.49375c.48169529.833425 1.44321886 1.429125 2.40567586 1.429125h11.1854128l10.7046509-18.352925z" fill="#fbbe0f" mask="url(#a)"/><path d="m21.7182964.23125h-21.2879446l19.1231163 10.964025-10.70465093 18.352925h6.97618003c.9624571 0 1.9239806-.476375 2.4056759-1.429125l9.0205845-15.61215c.4807618-.83435.4807618-1.90735 0-2.7417z" fill="#ea4638" transform="translate(14.00277 7.4)"/><g transform="translate(3.734072)"><path d="m23.4481053 7.63125 6.3740609 10.964025-6.3740609 10.964025h-12.7490554l-6.3749945-10.964025 6.3749945-10.964025z" fill="#f0efeb"/><path d="m10.6990499 7.63125h21.2879446l-3.4876233-5.95885c-.4816953-.83435-1.322795-1.43005-2.4056759-1.43005h-18.04116898c-.96245707 0-1.92398061.4773-2.4056759 1.43005l-5.5320277 9.6533 10.58422718 18.2336z" fill="#4c8bf4"/></g><path d="m19.7140332.23125 6.374061 10.964025-6.374061 10.964025h-12.74905536l-6.37499446-10.964025 6.37499446-10.964025z" fill="#f0efeb" transform="translate(7.468144 7.4)"/><g transform="translate(7.468144 7.4)"><path d="m19.7140332.23125 6.374061 10.964025-6.374061 10.964025h-12.74905536l-6.37499446-10.964025 6.37499446-10.964025z" fill="#e1e1e1"/><ellipse cx="13.069252" cy="11.34235" fill="#fff" rx="5.601108" ry="5.55"/></g><g fill="#4c4c4c"><path d="m314.989512 15.2588h2.646524v2.02575h.120424c.842033-1.43005 2.766014-2.50305 4.45008-2.50305 2.285252 0 3.848895 1.073 4.570504 2.7417 1.081948-1.6687 2.766014-2.7417 5.051266-2.7417 3.608047 0 5.17169 2.50305 5.17169 6.078175v8.81895h-2.766014v-8.34165c0-2.979425-1.203305-3.9331-3.247709-3.9331-2.164828 0-3.728471 2.2644-3.728471 4.409475v7.9846h-2.766014v-8.342575c0-2.979425-1.203304-3.932175-3.247709-3.932175-2.164828 0-3.728471 2.2644-3.728471 4.409475v7.9846h-2.766014v-14.658475zm-10.462869 14.3005v-14.3005h2.64559v2.383725h.120424c.601185-1.6687 2.64559-2.7417 4.209232-2.7417.842033 0 1.443219.119325 2.044405.357975l-1.081948 2.50305c-.361271-.119325-.842033-.23865-1.443219-.23865-1.924914 0-3.72847 1.549375-3.72847 4.170825v7.865275zm-4.931776-7.15025c0-3.336475-2.285252-5.243825-4.690928-5.243825-2.404742 0-4.689994 1.90735-4.689994 5.243825 0 3.3374 2.285252 5.243825 4.689994 5.243825 2.405676-.119325 4.690928-2.02575 4.690928-5.243825zm2.766014 0c0 4.409475-3.126352 7.62755-7.456942 7.62755-4.329656 0-7.456942-3.3374-7.456942-7.62755 0-4.409475 3.127286-7.62755 7.456942-7.62755 4.33059 0 7.456942 3.218075 7.456942 7.62755zm-14.913884-13.585475-.961523 2.263475c-.361272-.1184-.72161-.237725-1.203305-.237725-1.322795 0-2.404742.83435-2.404742 2.502125v1.788025h3.728471v2.50305h-3.728471v11.916775h-2.766948v-11.916775h-2.64559v-2.50305h2.766014v-1.788025c0-2.979425 2.044404-4.88585 5.17169-4.88585.842033 0 1.443219.119325 2.044404.357975zm-17.679897 16.445575v-7.5073h-2.525166v-2.50305h2.525166v-4.409475h2.766014v4.409475h3.60898v2.50305h-3.60898v7.387975c0 1.6687.721609 2.383725 1.924914 2.383725.480761 0 .842033 0 1.202371-.237725l.962457 2.263475c-.601186.23865-1.322795.357975-2.164828.357975-3.006862-.119325-4.690928-1.788025-4.690928-4.648125zm-6.494485-1.906425s-1.203305-.953675-3.487623-.953675c-2.887372 0-3.969319 1.549375-3.969319 2.8601 0 1.549375 1.563643 2.2644 3.006862 2.2644 2.164828 0 4.45008-1.7871 4.45008-4.170825zm-10.34338 1.906425c0-3.21715 3.006862-5.005175 6.374061-5.005175 1.924915 0 3.368133.5957 3.969319.83435v-.357975c0-2.145075-1.80449-3.4558-3.728471-3.4558-1.563643 0-3.006861.715025-3.487623 2.02575l-2.5261-1.072075c.480762-1.310725 2.285252-3.456725 5.893299-3.456725s6.494485 2.146 6.494485 6.1975v8.699625h-2.64559v-2.02575h-.120424c-.842033 1.192325-2.285252 2.50305-4.811352 2.50305-2.886437-.119325-5.411604-1.90735-5.411604-4.886775zm-5.052199 4.291075h2.766947v-20.9753h-2.766947zm-8.418465-11.084275c2.405676 0 3.728471-2.02575 3.728471-3.69445 0-1.667775-1.322795-3.69445-3.728471-3.69445h-4.570505v7.3889zm-7.336518 11.08335v-20.974375h7.216094c3.487623 0 6.614908 2.62145 6.614908 6.196575 0 3.57605-3.127285 6.1975-6.614908 6.1975h-4.450081v8.4619h-2.766013zm-9.983042-7.15025c0-3.336475-2.164828-5.243825-4.570504-5.243825s-4.570504 1.90735-4.570504 5.243825c0 3.218075 2.164828 5.243825 4.570504 5.243825 2.285252-.119325 4.570504-2.02575 4.570504-5.243825zm-12.027446 0c0-4.409475 3.247709-7.62755 6.855756-7.62755 2.285252 0 4.088809 1.192325 4.930842 2.50305h.120424l-.120424-2.02575v-6.673875h2.766948v20.974375h-2.5261v-2.02575h-.120424c-.842033 1.31165-2.64559 2.50305-4.930842 2.50305-3.728471 0-6.97618-3.218075-6.97618-7.62755zm-4.810418 7.15025v-2.02575h-.120424c-.842033 1.31165-2.646524 2.50305-4.570504 2.50305-3.728471 0-5.532961-2.50305-5.532961-6.078175v-8.81895h2.766947v8.342575c0 2.979425 1.562709 4.0515 3.608047 4.0515 2.405676 0 3.848895-2.2644 3.848895-4.409475v-7.865275h2.766014v14.419825h-2.766014zm-15.034308-7.15025c0-3.336475-2.285252-5.243825-4.690928-5.243825s-4.690928 1.90735-4.690928 5.243825c0 3.3374 2.285252 5.243825 4.690928 5.243825 2.405676-.119325 4.690928-2.02575 4.690928-5.243825zm2.766014 0c0 4.409475-3.127285 7.62755-7.456942 7.62755-4.329656 0-7.456941-3.3374-7.456941-7.62755 0-4.409475 3.127285-7.62755 7.456941-7.62755 4.329657 0 7.456942 3.218075 7.456942 7.62755zm-19.724302 7.151175h2.766014v-20.9753h-2.766014zm-21.529726-10.48765c0-6.1975 4.811352-10.964025 11.065923-10.964025 3.246776 0 5.893299 1.310725 7.81728 3.4558l-1.923981 1.7871c-1.443219-1.7871-3.488557-2.62145-5.893299-2.62145-4.45008 0-8.178551 3.218075-8.178551 8.342575s3.728471 8.34165 8.178551 8.34165c2.64559 0 4.930842-1.1914 6.494485-3.097825l1.92398 1.906425c-1.803556 2.145075-4.810418 3.69445-8.418465 3.69445-6.254571.119325-11.065923-4.5288-11.065923-10.8447z"/><path d="m116.009216 26.990575c-2.358066 0-4.34646-1.97025-4.34646-4.6731 0-2.725975 1.988394-4.718425 4.34646-4.718425 2.334729 0 4.16069 1.99245 4.16069 4.718425.023338 2.725975-1.825961 4.6731-4.16069 4.6731zm3.929177-11.95655v1.258925h-.114822c-.763618-.91575-2.242311-1.739925-4.114948-1.739925-3.906773 0-7.489615 3.3892-7.489615 7.76445 0 4.329 3.582842 7.719125 7.489615 7.719125 1.872637 0 3.35133-.824175 4.114948-1.763975h.114822v1.12295c0 2.95445-1.594448 4.535275-4.160689 4.535275-2.103216 0-3.398006-1.48925-3.930111-2.7491l-2.981657 1.236725c.855103 2.061825 3.144089 4.581525 6.935106 4.581525 4.022529 0 7.420534-2.33655 7.420534-8.063225v-13.90275zm-20.9892185 11.95655c-2.3580665 0-4.4155402-1.924-4.4155402-4.696225 0-2.794425 2.0341358-4.6953 4.4155402-4.6953 2.3804705 0 4.4146065 1.900875 4.4146065 4.6953 0 2.772225-2.05654 4.696225-4.4146065 4.696225zm0-12.41535c-4.3231219 0-7.8368836 3.253225-7.8368836 7.74225 0 4.466825 3.5137617 7.74225 7.8368836 7.74225 4.3221885 0 7.8359505-3.275425 7.8359505-7.74225 0-4.489025-3.513762-7.74225-7.8359505-7.74225zm-17.1067174 12.41535c-2.357133 0-4.4146067-1.924-4.4146067-4.696225 0-2.794425 2.0341357-4.6953 4.4146067-4.6953 2.3580664 0 4.4155401 1.900875 4.4155401 4.6953 0 2.772225-2.0574737 4.696225-4.4155401 4.696225zm0-12.41535c-4.3221884 0-7.8359502 3.253225-7.8359502 7.74225 0 4.466825 3.5137618 7.74225 7.8359502 7.74225 4.3231218 0 7.8368836-3.275425 7.8368836-7.74225 0-4.489025-3.5137618-7.74225-7.8368836-7.74225zm-32.6637951 3.458575c0-6.642425 5.6179114-12.025 12.3215042-12.025 3.6985983 0 6.3339197 1.443 8.322313 3.321675l-2.3580665 2.313425c-1.4105457-1.329225-3.3289252-2.359675-5.9642465-2.359675-4.8776316 0-8.6919861 3.89425-8.6919861 8.727375s3.8143545 8.72645 8.6919861 8.72645c3.1664931 0 4.9700499-1.25985 6.1257452-2.405.9475207-.938875 1.5720443-2.2903 1.8035567-4.122725h-7.9293019v-3.275425h11.1648754c.1157562.5957.18577 1.282975.18577 2.0609 0 2.474375-.6711994 5.5204-2.8668338 7.6738-2.1498919 2.198725-4.8776315 3.367-8.4838116 3.367-6.7035928 0-12.3215042-5.382575-12.3215042-12.0028z"/><path d="m125.578709 29.5778h3.421344v-22.744825h-3.421344z"/><path d="m138.15413 17.5528c1.36387 0 2.520499.665075 2.890172 1.649275l-6.981781 2.8638c-.092419-2.9785 2.334728-4.513075 4.091609-4.513075zm.254851 9.437775c-1.756881 0-2.98259-.801975-3.791017-2.33655l10.448867-4.283675-.347269-.870425c-.646928-1.74085-2.635321-4.9247-6.680255-4.9247-4.022529 0-7.374792 3.138525-7.374792 7.74225 0 4.329 3.305587 7.74225 7.744466 7.74225 3.582842 0 5.640315-2.176525 6.518756-3.436375l-2.658659-1.76305c-.901779 1.28205-2.103217 2.130275-3.860097 2.130275z"/></g></g></svg>