<svg id="Layer_1" data-name="Layer 1" xmlns="http://www.w3.org/2000/svg" viewBox="0 0 376 128"><defs><style>.cls-1{fill:#fff;}.cls-2{fill:#4285f4;}.cls-3,.cls-4{opacity:0.07;}.cls-4{isolation:isolate;}.cls-5{fill:#333;}</style></defs><path class="cls-1" d="M176.58,60.74l3.15-3.14-4.68-4.72V38.26l4.68-4.71-3.15-3.15-6.25,6.29V54.46Z"/><circle class="cls-1" cx="181.45" cy="45.57" r="2.24"/><circle class="cls-1" cx="188.1" cy="45.57" r="2.24"/><circle class="cls-1" cx="194.78" cy="45.57" r="2.24"/><path class="cls-1" d="M199.57,30.4l-3.1,3.15,4.68,4.71V52.88l-4.68,4.72,3.1,3.14,6.29-6.28V36.69Z"/><path class="cls-2" d="M225.09,42.28,209.46,15.12a7,7,0,0,0-5.86-3.51H172.37a6.84,6.84,0,0,0-5.86,3.51L150.88,42.2a6.83,6.83,0,0,0,0,6.78l15.63,27.31a7.06,7.06,0,0,0,5.86,3.63h31.27a7,7,0,0,0,5.86-3.59l15.63-27.15A6.89,6.89,0,0,0,225.09,42.28Zm-15.63,34a7,7,0,0,1-5.86,3.59h-8.18L178.28,62.73l3.86-2.23-7.21-7.18,0,0V49.34h2.11l-2-2v0a2.13,2.13,0,0,1,1.27-3.59l-1.43-1.43,0,0V38.33l8.09-4.63-4.78-4.78,3.15-1.84h.08L188,30.83l6.46-3.75h.08l3.15,1.84,24.76,24.76Z"/><path class="cls-2" d="M191.2,32.71,201,38.33v4h-3.38V40.2l-8.06-4.7V39h-3.23V35.5l-8.05,4.7v2.12H175v0l0,0,1.43,1.43c.08,0,.16,0,.24,0a2.12,2.12,0,0,1,0,4.23,2.19,2.19,0,0,1-1.51-.64v0l2,2h1.24v2.11l8.05,4.7V52.72h3.23v3.43l8.06-4.7V49.34H201v4L191.2,59l6.53,3.78-3.15,1.84h-.07l-6.46-3.75-6.46,3.75h-.08l-3.15-1.84L195.5,79.92h8.18a7,7,0,0,0,5.86-3.59l13-22.61L197.77,29ZM188,51.17a2.12,2.12,0,1,1,2.11-2.11h0A2.13,2.13,0,0,1,188,51.17Zm0-6.38a2.12,2.12,0,1,1,2.11-2.11A2.12,2.12,0,0,1,188,44.79ZM199.37,48a2.12,2.12,0,1,1,2.11-2.11h0A2.12,2.12,0,0,1,199.37,48Z"/><g class="cls-3"><path d="M191.2,32.71,201,38.33v4h-3.38V40.2l-8.06-4.7V39h-3.23V35.5l-8.05,4.7v2.12H175v0l0,0,1.43,1.43c.08,0,.16,0,.24,0a2.12,2.12,0,0,1,0,4.23,2.19,2.19,0,0,1-1.51-.64v0l2,2h1.24v2.11l8.05,4.7V52.72h3.23v3.43l8.06-4.7V49.34H201v4L191.2,59l6.53,3.78-3.15,1.84h-.07l-6.46-3.75-6.46,3.75h-.08l-3.15-1.84L195.5,79.92h8.18a7,7,0,0,0,5.86-3.59l13-22.61L197.77,29ZM188,51.17a2.12,2.12,0,1,1,2.11-2.11h0A2.13,2.13,0,0,1,188,51.17Zm0-6.38a2.12,2.12,0,1,1,2.11-2.11A2.12,2.12,0,0,1,188,44.79ZM199.37,48a2.12,2.12,0,1,1,2.11-2.11h0A2.12,2.12,0,0,1,199.37,48Z"/></g><path class="cls-2" d="M175,53.32v0l0,0,7.21,7.18L184.82,59Z"/><g class="cls-3"><path d="M175,53.32v0l0,0,7.21,7.18L184.82,59Z"/></g><path class="cls-2" d="M178.28,28.92l4.78,4.78,1.72-1Z"/><path class="cls-4" d="M178.28,28.92l4.78,4.78,1.72-1Z"/><circle class="cls-1" cx="199.37" cy="45.87" r="2.11"/><path class="cls-1" d="M176.6,48a2.12,2.12,0,0,0,0-4.23.67.67,0,0,0-.24,0,2.12,2.12,0,0,0-1.87,2.12,2,2,0,0,0,.6,1.47,2.71,2.71,0,0,0,1.51.6Z"/><circle class="cls-1" cx="188.01" cy="42.68" r="2.11"/><circle class="cls-1" cx="188.01" cy="49.02" r="2.11"/><path class="cls-1" d="M178.32,42.32V40.16l8.05-4.7v3.47h3.23V35.46l8.06,4.7v2.16H201v-4l-9.84-5.62,6.54-3.79-3.2-1.84h-.07L188,30.83l-6.5-3.75h-.08l-3.15,1.84,6.5,3.79-1.72,1L175,38.33v4Zm3.19,22.25,6.5-3.75,6.46,3.75h.07l3.2-1.84L191.2,59,201,53.32v-4h-3.38v2.15l-8.06,4.7V52.76h-3.23v3.43l-8.05-4.7V49.34H175v4L184.82,59l-2.68,1.51-3.86,2.23,3.15,1.84Z"/><path class="cls-2" d="M225.13,42,209.5,14.8a6.93,6.93,0,0,0-5.86-3.51H172.37a6.93,6.93,0,0,0-5.86,3.51L150.84,41.92a6.91,6.91,0,0,0,0,6.82l15.63,27.35a7.06,7.06,0,0,0,5.86,3.63h31.31a7,7,0,0,0,5.86-3.59l15.63-27.19a6.94,6.94,0,0,0,0-6.94Z"/><g class="cls-3"><path d="M207,34.5l-7.3-1.79-1.12,1.15,5.62,5.63,0,7.73-11.56-11.6h-9.45l-5.94-5.94L171.06,35,168.9,56.51l23.21,23.21h11.53a7,7,0,0,0,5.86-3.59l14.27-24.84Z"/></g><g id="art"><path class="cls-1" d="M183.22,41.12,188,43.87l4.74-2.75v-5.5L188,32.87l-4.79,2.75Zm6.54,11.21,4.78,2.75,4.75-2.75V46.82l-4.75-2.71-4.78,2.71v5.51Zm-13.08.16,4.79,2.75,4.74-2.75V47l-4.74-2.75L176.68,47Z"/><path class="cls-1" d="M177.28,33.86l-4.75,2.76V54.4l4.75,2.75v4.19L169,56.55V34.46l8.3-4.78Zm21.41,0,4.75,2.76V54.4l-4.75,2.75v4.19L207,56.55V34.46l-8.34-4.78Z"/></g><path class="cls-5" d="M56,108.41a6.3,6.3,0,0,1-2.8,1.84,11.58,11.58,0,0,1-4,.65,8,8,0,0,1-4-1A6.7,6.7,0,0,1,42.46,107a10.15,10.15,0,0,1-1-4.5v-1.21a10.93,10.93,0,0,1,.89-4.61,6.64,6.64,0,0,1,2.59-3,7.54,7.54,0,0,1,4-1,7.47,7.47,0,0,1,5,1.51A6.49,6.49,0,0,1,56,98.54H52.42a3.55,3.55,0,0,0-1.08-2.24,3.44,3.44,0,0,0-2.3-.7A3.26,3.26,0,0,0,46.2,97a7.43,7.43,0,0,0-1,4.18v1.13a7,7,0,0,0,1.06,4.22A3.62,3.62,0,0,0,49.38,108a4.06,4.06,0,0,0,2.95-.88V104H49v-2.7h7Z"/><path class="cls-5" d="M58.17,103.93a7.76,7.76,0,0,1,.76-3.5,5.52,5.52,0,0,1,2.18-2.38,6.38,6.38,0,0,1,3.3-.84,6,6,0,0,1,4.36,1.63,6.57,6.57,0,0,1,1.89,4.45l0,.9A6.92,6.92,0,0,1,69,109.07a6.58,6.58,0,0,1-9.11,0,7,7,0,0,1-1.71-5Zm3.53.25a4.94,4.94,0,0,0,.71,2.88,2.32,2.32,0,0,0,2,1,2.36,2.36,0,0,0,2-1,5.42,5.42,0,0,0,.72-3.15,4.87,4.87,0,0,0-.72-2.86,2.34,2.34,0,0,0-2-1,2.31,2.31,0,0,0-2,1A5.49,5.49,0,0,0,61.7,104.18Z"/><path class="cls-5" d="M72.31,103.93a7.76,7.76,0,0,1,.76-3.5,5.56,5.56,0,0,1,2.17-2.38,6.39,6.39,0,0,1,3.31-.84,6,6,0,0,1,4.36,1.63,6.57,6.57,0,0,1,1.89,4.45l0,.9a6.92,6.92,0,0,1-1.7,4.88,6.58,6.58,0,0,1-9.11,0,7,7,0,0,1-1.7-5Zm3.53.25a4.94,4.94,0,0,0,.7,2.88,2.55,2.55,0,0,0,4,0,5.42,5.42,0,0,0,.72-3.15,4.87,4.87,0,0,0-.72-2.86,2.51,2.51,0,0,0-4,0A5.5,5.5,0,0,0,75.84,104.18Z"/><path class="cls-5" d="M86.48,104a7.72,7.72,0,0,1,1.45-4.9,4.69,4.69,0,0,1,3.9-1.85,4.12,4.12,0,0,1,3.38,1.49l.14-1.25h3.2v12.77a5.71,5.71,0,0,1-.78,3,5.15,5.15,0,0,1-2.22,2,7.75,7.75,0,0,1-3.34.67,7.22,7.22,0,0,1-2.84-.58,5,5,0,0,1-2.08-1.49l1.56-2.15a4.14,4.14,0,0,0,3.2,1.47,3,3,0,0,0,2.18-.75,2.82,2.82,0,0,0,.78-2.13v-.7a4.09,4.09,0,0,1-3.21,1.37A4.68,4.68,0,0,1,88,109a7.72,7.72,0,0,1-1.47-4.93Zm3.53.26a4.82,4.82,0,0,0,.72,2.82,2.29,2.29,0,0,0,2,1,2.43,2.43,0,0,0,2.3-1.21v-5.56a2.43,2.43,0,0,0-2.28-1.21,2.3,2.3,0,0,0-2,1A5.44,5.44,0,0,0,90,104.22Z"/><path class="cls-5" d="M105,110.66h-3.54V91.91H105Z"/><path class="cls-5" d="M114,110.9a6.47,6.47,0,0,1-4.73-1.78,6.32,6.32,0,0,1-1.82-4.75V104a8.05,8.05,0,0,1,.76-3.56,5.67,5.67,0,0,1,2.18-2.41,6.1,6.1,0,0,1,3.22-.85,5.49,5.49,0,0,1,4.27,1.71,7,7,0,0,1,1.55,4.84v1.44H111a3.32,3.32,0,0,0,1,2.08,3.13,3.13,0,0,0,2.18.78,3.81,3.81,0,0,0,3.19-1.48l1.73,1.94a5.28,5.28,0,0,1-2.15,1.76A7.15,7.15,0,0,1,114,110.9Zm-.4-10.85a2.24,2.24,0,0,0-1.71.71,3.75,3.75,0,0,0-.83,2h4.91v-.28a2.6,2.6,0,0,0-.64-1.82A2.27,2.27,0,0,0,113.57,100.05Z"/><path class="cls-5" d="M141.81,104.74a6.28,6.28,0,0,1-2.11,4.52,7.44,7.44,0,0,1-5,1.64,6.68,6.68,0,0,1-5.38-2.3,9.45,9.45,0,0,1-2-6.31V101.2a10.73,10.73,0,0,1,.9-4.52,6.71,6.71,0,0,1,2.58-3,8.05,8.05,0,0,1,8.86.6,6.79,6.79,0,0,1,2.17,4.63h-3.66a3.72,3.72,0,0,0-1-2.5,3.54,3.54,0,0,0-2.51-.77A3.1,3.1,0,0,0,132,97,7.26,7.26,0,0,0,131,101v1.34a7.87,7.87,0,0,0,.87,4.21,3,3,0,0,0,2.75,1.33,3.58,3.58,0,0,0,2.53-.77,3.5,3.5,0,0,0,1-2.4Z"/><path class="cls-5" d="M143.44,103.93a7.76,7.76,0,0,1,.76-3.5,5.56,5.56,0,0,1,2.17-2.38,6.39,6.39,0,0,1,3.31-.84A6,6,0,0,1,154,98.84a6.57,6.57,0,0,1,1.89,4.45l0,.9a6.92,6.92,0,0,1-1.7,4.88,6.58,6.58,0,0,1-9.11,0,7,7,0,0,1-1.7-5Zm3.53.25a4.94,4.94,0,0,0,.7,2.88,2.55,2.55,0,0,0,4,0,5.42,5.42,0,0,0,.72-3.15,4.87,4.87,0,0,0-.72-2.86,2.51,2.51,0,0,0-4,0A5.5,5.5,0,0,0,147,104.18Z"/><path class="cls-5" d="M161.37,97.45l.11,1.53a4.61,4.61,0,0,1,3.8-1.77,3.82,3.82,0,0,1,3.12,1.23,5.74,5.74,0,0,1,1,3.69v8.53h-3.53v-8.45a2.32,2.32,0,0,0-.48-1.63,2.24,2.24,0,0,0-1.63-.5,2.41,2.41,0,0,0-2.23,1.27v9.31h-3.53V97.45Z"/><path class="cls-5" d="M176.35,94.21v3.24h2.26V100h-2.26v6.59a1.55,1.55,0,0,0,.28,1.05,1.41,1.41,0,0,0,1.07.32,5.37,5.37,0,0,0,1-.09v2.68a7.27,7.27,0,0,1-2.13.31c-2.48,0-3.74-1.24-3.79-3.74V100h-1.93V97.45h1.93V94.21Z"/><path class="cls-5" d="M188.23,110.66a3.91,3.91,0,0,1-.36-1.18,4.25,4.25,0,0,1-3.33,1.42,4.7,4.7,0,0,1-3.22-1.12,3.6,3.6,0,0,1-1.27-2.83,3.74,3.74,0,0,1,1.55-3.22,7.7,7.7,0,0,1,4.5-1.14h1.63v-.76a2.19,2.19,0,0,0-.47-1.46,1.86,1.86,0,0,0-1.49-.55,2,2,0,0,0-1.39.43,1.43,1.43,0,0,0-.51,1.17h-3.53a3.56,3.56,0,0,1,.71-2.12,4.62,4.62,0,0,1,2-1.54,7.29,7.29,0,0,1,2.91-.55,5.79,5.79,0,0,1,3.87,1.22,4.29,4.29,0,0,1,1.44,3.45v5.73a6.22,6.22,0,0,0,.52,2.84v.21Zm-2.92-2.45a3.07,3.07,0,0,0,1.44-.35,2.29,2.29,0,0,0,1-.94v-2.27h-1.32c-1.77,0-2.71.61-2.82,1.84v.2a1.42,1.42,0,0,0,.46,1.09A1.82,1.82,0,0,0,185.31,108.21Z"/><path class="cls-5" d="M194,94a1.75,1.75,0,0,1,.53-1.3,2.3,2.3,0,0,1,2.89,0,1.72,1.72,0,0,1,.54,1.3,1.74,1.74,0,0,1-.55,1.32,2,2,0,0,1-1.43.52,2,2,0,0,1-1.44-.52A1.73,1.73,0,0,1,194,94Zm3.75,16.63h-3.54V97.45h3.54Z"/><path class="cls-5" d="M203.85,97.45,204,99a4.62,4.62,0,0,1,3.8-1.77,3.82,3.82,0,0,1,3.12,1.23,5.68,5.68,0,0,1,1.05,3.69v8.53H208.4v-8.45a2.32,2.32,0,0,0-.48-1.63,2.24,2.24,0,0,0-1.63-.5,2.41,2.41,0,0,0-2.23,1.27v9.31h-3.53V97.45Z"/><path class="cls-5" d="M220.68,110.9a6.45,6.45,0,0,1-4.72-1.78,6.33,6.33,0,0,1-1.83-4.75V104a8.06,8.06,0,0,1,.77-3.56,5.61,5.61,0,0,1,2.18-2.41,6.06,6.06,0,0,1,3.21-.85,5.49,5.49,0,0,1,4.27,1.71,6.92,6.92,0,0,1,1.56,4.84v1.44h-8.41a3.22,3.22,0,0,0,1,2.08,3.12,3.12,0,0,0,2.18.78,3.78,3.78,0,0,0,3.18-1.48l1.74,1.94a5.34,5.34,0,0,1-2.15,1.76A7.23,7.23,0,0,1,220.68,110.9Zm-.4-10.85a2.2,2.2,0,0,0-1.7.71,3.75,3.75,0,0,0-.84,2h4.91v-.28a2.65,2.65,0,0,0-.63-1.82A2.29,2.29,0,0,0,220.28,100.05Z"/><path class="cls-5" d="M235.54,100.76a10.53,10.53,0,0,0-1.27-.1,2.57,2.57,0,0,0-2.62,1.36v8.64h-3.53V97.45h3.33l.1,1.58a3.26,3.26,0,0,1,2.94-1.82,3.57,3.57,0,0,1,1.1.16Z"/><path class="cls-5" d="M250.27,104.15h-2.91v6.51H243.7V92.89h6.6a7.5,7.5,0,0,1,4.86,1.4,4.85,4.85,0,0,1,1.71,4,5.5,5.5,0,0,1-.79,3,5.39,5.39,0,0,1-2.39,1.94l3.85,7.26v.17h-3.93Zm-2.91-3h2.95a3.08,3.08,0,0,0,2.14-.7,2.54,2.54,0,0,0,.75-1.94,2.67,2.67,0,0,0-.71-2,3,3,0,0,0-2.19-.72h-2.94Z"/><path class="cls-5" d="M265.5,110.9a6.46,6.46,0,0,1-4.73-1.78,6.33,6.33,0,0,1-1.83-4.75V104a8.06,8.06,0,0,1,.77-3.56,5.61,5.61,0,0,1,2.18-2.41,6.07,6.07,0,0,1,3.22-.85,5.48,5.48,0,0,1,4.26,1.71,6.92,6.92,0,0,1,1.56,4.84v1.44h-8.41a3.27,3.27,0,0,0,1,2.08,3.12,3.12,0,0,0,2.18.78,3.78,3.78,0,0,0,3.18-1.48l1.74,1.94a5.34,5.34,0,0,1-2.15,1.76A7.15,7.15,0,0,1,265.5,110.9Zm-.41-10.85a2.22,2.22,0,0,0-1.7.71,3.83,3.83,0,0,0-.84,2h4.91v-.28a2.6,2.6,0,0,0-.63-1.82A2.29,2.29,0,0,0,265.09,100.05Z"/><path class="cls-5" d="M272.42,104a7.78,7.78,0,0,1,1.44-4.9,4.72,4.72,0,0,1,3.9-1.85,4.14,4.14,0,0,1,3.39,1.49l.14-1.25h3.2v12.77a5.62,5.62,0,0,1-.79,3,5.06,5.06,0,0,1-2.21,2,7.76,7.76,0,0,1-3.35.67,7.17,7.17,0,0,1-2.83-.58,5.11,5.11,0,0,1-2.09-1.49l1.57-2.15a4.13,4.13,0,0,0,3.19,1.47,3,3,0,0,0,2.19-.75,2.82,2.82,0,0,0,.78-2.13v-.7a4.09,4.09,0,0,1-3.21,1.37,4.67,4.67,0,0,1-3.85-1.86,7.72,7.72,0,0,1-1.47-4.93Zm3.53.26a4.82,4.82,0,0,0,.72,2.82,2.28,2.28,0,0,0,2,1,2.44,2.44,0,0,0,2.31-1.21v-5.56a2.43,2.43,0,0,0-2.28-1.21,2.3,2.3,0,0,0-2,1A5.44,5.44,0,0,0,276,104.22Z"/><path class="cls-5" d="M287.18,94a1.71,1.71,0,0,1,.53-1.3,2.29,2.29,0,0,1,2.88,0,1.86,1.86,0,0,1,0,2.62,2.24,2.24,0,0,1-2.87,0A1.73,1.73,0,0,1,287.18,94Zm3.74,16.63h-3.54V97.45h3.54Z"/><path class="cls-5" d="M301,107a1.14,1.14,0,0,0-.64-1,7.07,7.07,0,0,0-2.06-.66q-4.71-1-4.71-4A3.62,3.62,0,0,1,295,98.39a5.87,5.87,0,0,1,3.82-1.18,6.34,6.34,0,0,1,4,1.18,3.76,3.76,0,0,1,1.51,3.08h-3.53a1.72,1.72,0,0,0-.49-1.25,2.07,2.07,0,0,0-1.53-.5,2.12,2.12,0,0,0-1.38.41,1.26,1.26,0,0,0-.48,1,1.09,1.09,0,0,0,.55.95,5.88,5.88,0,0,0,1.88.62,15.21,15.21,0,0,1,2.22.59q2.79,1,2.79,3.55a3.44,3.44,0,0,1-1.55,2.93,6.71,6.71,0,0,1-4,1.11,6.91,6.91,0,0,1-2.95-.59,4.88,4.88,0,0,1-2-1.62,3.76,3.76,0,0,1-.73-2.23h3.34a1.83,1.83,0,0,0,.7,1.44,2.72,2.72,0,0,0,1.73.5,2.57,2.57,0,0,0,1.53-.38A1.19,1.19,0,0,0,301,107Z"/><path class="cls-5" d="M310.91,94.21v3.24h2.26V100h-2.26v6.59a1.55,1.55,0,0,0,.28,1.05,1.41,1.41,0,0,0,1.07.32,5.37,5.37,0,0,0,1-.09v2.68a7.29,7.29,0,0,1-2.14.31c-2.47,0-3.73-1.24-3.78-3.74V100h-1.93V97.45h1.93V94.21Z"/><path class="cls-5" d="M322.55,100.76a10.53,10.53,0,0,0-1.27-.1,2.57,2.57,0,0,0-2.62,1.36v8.64h-3.53V97.45h3.33l.1,1.58a3.26,3.26,0,0,1,2.94-1.82,3.57,3.57,0,0,1,1.1.16Z"/><path class="cls-5" d="M329.4,105.67l2.44-8.22h3.79l-5.31,15.26-.3.7a4,4,0,0,1-3.9,2.58,5.38,5.38,0,0,1-1.57-.23v-2.67h.54a3,3,0,0,0,1.5-.3,2.07,2.07,0,0,0,.77-1l.42-1.08-4.63-13.25H327Z"/></svg>