<svg id="Layer_1" data-name="Layer 1" xmlns="http://www.w3.org/2000/svg" viewBox="0 0 376 128"><defs><style>.cls-1{fill:#4e7cd7;}.cls-2{fill:#5388f2;}.cls-3{fill:#5487ec;}.cls-4{fill:#333;}</style></defs><path class="cls-1" d="M223.09,49.41q-2.62,4.62-5.26,9.23-4.47,7.74-9,15.48a6.21,6.21,0,0,1-5.29,3.32c-4.21.12-8.43,0-12.65,0-.06-.41-.4-.6-.65-.85l-20-20c-.32-.32-.73-.59-.71-1.12.25.12.5.23.74.37q3,1.69,6,3.42c.47.28.64.21.63-.35,0-1,0-1.89,0-2.84a1,1,0,0,0-.63-1.09c-1.21-.66-2.39-1.39-3.62-2.05A1.13,1.13,0,0,1,172,51.8q0-8.07,0-16.14a1.19,1.19,0,0,1,.74-1.21c1.21-.65,2.37-1.38,3.58-2a1.08,1.08,0,0,0,.61-1.1c0-1,0-2,0-3a2.89,2.89,0,0,1,1.34.88l4.39,4.39c.23.24.53.43.53.82-.69.46-.58.76.14,1.12a34.4,34.4,0,0,1,3,1.74,1.22,1.22,0,0,0,1.43,0c1.25-.74,2.53-1.44,3.8-2.16.34.17.63.37.59.81a40.94,40.94,0,0,0-4.4,2.43c-.29.17-.29.44-.29.72,0,1.35,0,2.7,0,4,0,.65.2.65.68.36,1.1-.66,2.2-1.31,3.34-1.92a1.11,1.11,0,0,0,.68-1.14c0-1.5,0-3,0-4.5.32-.06.5.16.7.35l4.23,4L202.06,45a.9.9,0,0,0,.71.35c.18,1.89-.06,3.8.11,5.68a2,2,0,0,1-1.5,2.34c-.11,0-.23.07-.34.12a8.92,8.92,0,0,0-2.94,1.9c-.52.61-.1,1.71-.15,2.59,0,.28,0,.56,0,.83-.06.68.17.71.71.4,2.37-1.39,4.76-2.77,7.16-4.12a1.29,1.29,0,0,0,.75-1.29c0-4.62,0-9.24,0-13.87,0-2.23,0-4.46,0-6.69.52-.07.76.34,1,.63q6.2,6.19,12.38,12.39C221.06,47.3,222.07,48.36,223.09,49.41ZM188.5,44.89l4.28,2.49a.6.6,0,0,0,.68,0c1.23-.73,2.47-1.45,3.71-2.16.47-.26.4-.43,0-.66-1.22-.69-2.43-1.4-3.64-2.1a.62.62,0,0,0-.68-.09C191.42,43.19,190,44,188.5,44.89Zm-2.42,0-4.31-2.5a.47.47,0,0,0-.52,0l-4.4,2.54,4.32,2.49a.6.6,0,0,0,.61,0ZM182,50.57c0,1,0,1.72,0,2.42,0,.51.11.67.62.37,1.15-.69,2.32-1.34,3.48-2a.83.83,0,0,0,.51-.79q0-2.05,0-4.11c0-.54-.18-.67-.65-.39a13.14,13.14,0,0,1-1.82,1C182.3,47.79,181.44,48.93,182,50.57ZM186.56,41c0-.67,0-1.34,0-2a.81.81,0,0,0-.44-.82c-1.2-.68-2.38-1.38-3.56-2.08-.54-.32-.61-.06-.6.41,0,1.35,0,2.69,0,4a.92.92,0,0,0,.6.92c1.07.58,2.14,1.18,3.18,1.82.6.37.87.37.83-.43C186.54,42.23,186.56,41.61,186.56,41ZM181,51a16.82,16.82,0,0,1,0-1.74,1.25,1.25,0,0,0-.77-1.38c-1-.51-2-1.12-2.93-1.69-.82-.47-.89-.44-.9.47a7.82,7.82,0,0,1,0,1.37c-.4,2.21.31,3.76,2.54,4.46.08,0,.15.1.23.14.57.28,1.23,1,1.65.79s.12-1.16.17-1.78C181,51.46,181,51.24,181,51Zm12.55-.45c0,1,0,1.72,0,2.42s.15.66.63.37c1.15-.69,2.32-1.36,3.49-2a.77.77,0,0,0,.48-.79c0-1.35,0-2.7,0-4,0-.57-.14-.75-.68-.42a13.72,13.72,0,0,1-1.74,1C194,47.82,193,48.89,193.56,50.58Zm-.95.34h0c0-.67,0-1.34,0-2a.81.81,0,0,0-.46-.82c-1.17-.66-2.33-1.34-3.49-2-.45-.26-.66-.19-.66.38,0,1.37,0,2.75,0,4.13a.69.69,0,0,0,.36.68c1.22.69,2.43,1.4,3.65,2.1.38.21.58.13.58-.33Z"/><path class="cls-2" d="M156.56,29.74c1.68-2.94,3.34-5.9,5-8.84,1.4-2.44,2.82-4.87,4.22-7.3a6.84,6.84,0,0,1,6.32-3.67h30.63a6.77,6.77,0,0,1,6.26,3.6l8.76,15.16a3.75,3.75,0,0,1,.21.5h-15a2.54,2.54,0,0,0-1.72.42c-.85-.46-1.72-.9-2.54-1.41-.63-.38-.79-.2-.73.45a1.49,1.49,0,0,1-.05.36c-5.57,0-11.15,0-16.73,0a3.72,3.72,0,0,1-3.27-1.2c-.3-.37-.76-.57-1.09.05L173,30a2.48,2.48,0,0,0-1.34-.22Z"/><path class="cls-3" d="M156.56,29.74h15.12A2.48,2.48,0,0,1,173,30c-1.28.74-2.54,1.5-3.83,2.2a1.49,1.49,0,0,0-.88,1.5q0,9.57,0,19.14c0,1.14-.13,2.26,1.29,2.67,0,.53.39.8.71,1.12l20,20c.25.25.59.44.65.85-1.5,0-3,0-4.49.06H172.13a6.86,6.86,0,0,1-6.33-3.67q-7.5-13-15-26a7.33,7.33,0,0,1-.1-8c1.89-3.18,3.71-6.4,5.56-9.61C156.32,30,156.45,29.89,156.56,29.74Z"/><path class="cls-3" d="M201.21,29.62a2.54,2.54,0,0,1,1.72-.42h15q2.28,3.86,4.54,7.73c.62,1,1.21,2.12,1.83,3.17a6.77,6.77,0,0,1,0,7.21c-.41.71-.85,1.41-1.27,2.11-1-1-2-2.11-3.07-3.14q-6.18-6.21-12.38-12.39c-.29-.29-.53-.7-1-.63a1.07,1.07,0,0,0-.67-.86C204.33,31.51,202.77,30.55,201.21,29.62Z"/><path class="cls-3" d="M176.8,27.89c.33-.62.79-.42,1.09-.05a3.72,3.72,0,0,0,3.27,1.2c5.58,0,11.16,0,16.73,0a20.48,20.48,0,0,1,0,2.07c-.07.78.13,1.32.92,1.55a17.2,17.2,0,0,0,3.94,4.09c.08,2.88.13,5.75,0,8.63a.9.9,0,0,1-.71-.35l-4.95-4.76-4.23-4c-.2-.19-.38-.41-.7-.35h0c0-.44-.25-.64-.58-.81a27.5,27.5,0,0,0-4.19-2.54,1,1,0,0,0-1.15.13c-1,.64-2,1.16-3,1.73,0-.39-.3-.58-.53-.82l-4.39-4.39a2.89,2.89,0,0,0-1.34-.88Z"/><path class="cls-1" d="M198.85,32.64c1.19.67,2.41,1.29,3.57,2,.83.52.32,1.38.37,2.09A17.2,17.2,0,0,1,198.85,32.64Z"/><path class="cls-4" d="M68.05,108.41a6.32,6.32,0,0,1-2.79,1.84,11.63,11.63,0,0,1-4,.65,7.94,7.94,0,0,1-4-1A6.72,6.72,0,0,1,54.52,107a10.32,10.32,0,0,1-1-4.5v-1.21a10.93,10.93,0,0,1,.9-4.61,6.64,6.64,0,0,1,2.59-3,7.49,7.49,0,0,1,4-1,7.39,7.39,0,0,1,4.94,1.51,6.45,6.45,0,0,1,2.11,4.39H64.49a3.55,3.55,0,0,0-1.08-2.24,3.47,3.47,0,0,0-2.3-.7A3.25,3.25,0,0,0,58.26,97a7.34,7.34,0,0,0-1,4.17v1.14a7,7,0,0,0,1.06,4.22A3.6,3.6,0,0,0,61.45,108a4,4,0,0,0,2.94-.88V104H61.06v-2.7h7Z"/><path class="cls-4" d="M70.24,103.93a7.76,7.76,0,0,1,.76-3.5,5.56,5.56,0,0,1,2.17-2.38,6.39,6.39,0,0,1,3.31-.84,6,6,0,0,1,4.36,1.63,6.57,6.57,0,0,1,1.89,4.45l0,.9a6.92,6.92,0,0,1-1.7,4.88,6.58,6.58,0,0,1-9.11,0,7,7,0,0,1-1.7-5Zm3.53.25a4.94,4.94,0,0,0,.7,2.88,2.55,2.55,0,0,0,4,0,5.42,5.42,0,0,0,.72-3.15,4.87,4.87,0,0,0-.72-2.86,2.51,2.51,0,0,0-4,0A5.5,5.5,0,0,0,73.77,104.18Z"/><path class="cls-4" d="M84.38,103.93a7.89,7.89,0,0,1,.75-3.5,5.59,5.59,0,0,1,2.18-2.38,6.38,6.38,0,0,1,3.3-.84A6,6,0,0,1,95,98.84a6.61,6.61,0,0,1,1.88,4.45l0,.9a6.92,6.92,0,0,1-1.7,4.88,6.58,6.58,0,0,1-9.11,0,7,7,0,0,1-1.7-5Zm3.52.25a4.94,4.94,0,0,0,.71,2.88,2.33,2.33,0,0,0,2,1,2.35,2.35,0,0,0,2-1,5.42,5.42,0,0,0,.72-3.15,4.87,4.87,0,0,0-.72-2.86,2.34,2.34,0,0,0-2-1,2.31,2.31,0,0,0-2,1A5.49,5.49,0,0,0,87.9,104.18Z"/><path class="cls-4" d="M98.55,104a7.78,7.78,0,0,1,1.44-4.9,4.72,4.72,0,0,1,3.9-1.85,4.08,4.08,0,0,1,3.38,1.49l.15-1.25h3.2v12.77a5.62,5.62,0,0,1-.79,3,5.06,5.06,0,0,1-2.21,2,7.79,7.79,0,0,1-3.35.67,7.17,7.17,0,0,1-2.83-.58,5,5,0,0,1-2.09-1.49l1.57-2.15a4.12,4.12,0,0,0,3.19,1.47,3,3,0,0,0,2.19-.75,2.82,2.82,0,0,0,.78-2.13v-.7a4.09,4.09,0,0,1-3.21,1.37A4.67,4.67,0,0,1,100,109a7.73,7.73,0,0,1-1.47-4.94Zm3.52.26a4.82,4.82,0,0,0,.72,2.82,2.29,2.29,0,0,0,2,1,2.44,2.44,0,0,0,2.31-1.21v-5.56a2.43,2.43,0,0,0-2.28-1.21,2.29,2.29,0,0,0-2,1A5.43,5.43,0,0,0,102.07,104.22Z"/><path class="cls-4" d="M117.05,110.66h-3.54V91.91h3.54Z"/><path class="cls-4" d="M126,110.9a6.46,6.46,0,0,1-4.73-1.78,6.33,6.33,0,0,1-1.83-4.75V104a8.06,8.06,0,0,1,.77-3.56,5.61,5.61,0,0,1,2.18-2.41,6.07,6.07,0,0,1,3.22-.85,5.46,5.46,0,0,1,4.26,1.71,6.92,6.92,0,0,1,1.56,4.84v1.44h-8.41a3.27,3.27,0,0,0,1,2.08,3.12,3.12,0,0,0,2.18.78,3.78,3.78,0,0,0,3.18-1.48l1.74,1.94a5.34,5.34,0,0,1-2.15,1.76A7.15,7.15,0,0,1,126,110.9Zm-.41-10.85a2.22,2.22,0,0,0-1.7.71,3.83,3.83,0,0,0-.84,2H128v-.28a2.6,2.6,0,0,0-.63-1.82A2.29,2.29,0,0,0,125.63,100.05Z"/><path class="cls-4" d="M150,107h-6.42l-1.22,3.66h-3.89L145,92.89h3.4l6.65,17.77H151.2Zm-5.43-3H149l-2.23-6.65Z"/><path class="cls-4" d="M163.94,100.76a10.53,10.53,0,0,0-1.27-.1,2.57,2.57,0,0,0-2.62,1.36v8.64h-3.53V97.45h3.33L160,99a3.26,3.26,0,0,1,2.94-1.82,3.57,3.57,0,0,1,1.1.16Z"/><path class="cls-4" d="M170.47,94.21v3.24h2.26V100h-2.26v6.59a1.55,1.55,0,0,0,.28,1.05,1.43,1.43,0,0,0,1.08.32,5.26,5.26,0,0,0,1-.09v2.68a7.27,7.27,0,0,1-2.13.31c-2.48,0-3.74-1.24-3.79-3.74V100H165V97.45h1.93V94.21Z"/><path class="cls-4" d="M174.67,94a1.73,1.73,0,0,1,.53-1.3,2.27,2.27,0,0,1,2.89,0,1.7,1.7,0,0,1,.53,1.3,1.73,1.73,0,0,1-.54,1.32,2.24,2.24,0,0,1-2.87,0A1.73,1.73,0,0,1,174.67,94Zm3.75,16.63h-3.54V97.45h3.54Z"/><path class="cls-4" d="M182.29,110.66V100h-2V97.45h2V96.33a4.57,4.57,0,0,1,1.27-3.45,4.93,4.93,0,0,1,3.57-1.23,8.53,8.53,0,0,1,1.8.25l0,2.73a4.63,4.63,0,0,0-1.07-.11c-1.33,0-2,.62-2,1.87v1.06h2.62V100h-2.62v10.62Z"/><path class="cls-4" d="M197.94,110.66a3.91,3.91,0,0,1-.36-1.18,4.25,4.25,0,0,1-3.33,1.42,4.7,4.7,0,0,1-3.22-1.12,3.6,3.6,0,0,1-1.27-2.83,3.74,3.74,0,0,1,1.55-3.22,7.7,7.7,0,0,1,4.5-1.14h1.63v-.76a2.19,2.19,0,0,0-.47-1.46,1.86,1.86,0,0,0-1.49-.55,2.09,2.09,0,0,0-1.4.43,1.45,1.45,0,0,0-.5,1.17h-3.53a3.59,3.59,0,0,1,.71-2.13,4.68,4.68,0,0,1,2-1.53,7.29,7.29,0,0,1,2.91-.55,5.81,5.81,0,0,1,3.87,1.22,4.29,4.29,0,0,1,1.44,3.45v5.73a6.22,6.22,0,0,0,.52,2.84v.21ZM195,108.21a3.07,3.07,0,0,0,1.44-.35,2.29,2.29,0,0,0,1-.94v-2.27h-1.32c-1.77,0-2.71.61-2.82,1.84v.2a1.42,1.42,0,0,0,.46,1.09A1.82,1.82,0,0,0,195,108.21Z"/><path class="cls-4" d="M209.18,108.06a2.32,2.32,0,0,0,1.59-.54,1.9,1.9,0,0,0,.63-1.43h3.31a4.52,4.52,0,0,1-.73,2.46,4.79,4.79,0,0,1-2,1.74,6.14,6.14,0,0,1-2.76.61,5.74,5.74,0,0,1-4.47-1.8,7.11,7.11,0,0,1-1.63-5v-.23A7,7,0,0,1,204.76,99a5.65,5.65,0,0,1,4.46-1.82,5.56,5.56,0,0,1,4,1.41,5,5,0,0,1,1.52,3.75H211.4a2.45,2.45,0,0,0-.63-1.67,2.36,2.36,0,0,0-3.48.25,5.22,5.22,0,0,0-.62,2.92v.36a5.27,5.27,0,0,0,.62,2.94A2.15,2.15,0,0,0,209.18,108.06Z"/><path class="cls-4" d="M221,94.21v3.24h2.26V100H221v6.59a1.55,1.55,0,0,0,.28,1.05,1.41,1.41,0,0,0,1.07.32,5.37,5.37,0,0,0,1-.09v2.68a7.29,7.29,0,0,1-2.14.31c-2.47,0-3.73-1.24-3.78-3.74V100h-1.93V97.45h1.93V94.21Z"/><path class="cls-4" d="M238.21,104.15h-2.92v6.51h-3.66V92.89h6.6a7.45,7.45,0,0,1,4.86,1.4,4.85,4.85,0,0,1,1.71,4,5.42,5.42,0,0,1-.79,3,5.34,5.34,0,0,1-2.39,1.94l3.85,7.26v.17h-3.93Zm-2.92-3h3a3.06,3.06,0,0,0,2.14-.7,2.54,2.54,0,0,0,.76-1.94,2.68,2.68,0,0,0-.72-2,3,3,0,0,0-2.19-.72h-2.94Z"/><path class="cls-4" d="M253.43,110.9a6.47,6.47,0,0,1-4.73-1.78,6.33,6.33,0,0,1-1.83-4.75V104a8.06,8.06,0,0,1,.77-3.56,5.67,5.67,0,0,1,2.18-2.41,6.07,6.07,0,0,1,3.22-.85,5.46,5.46,0,0,1,4.26,1.71,6.92,6.92,0,0,1,1.56,4.84v1.44h-8.41a3.27,3.27,0,0,0,1,2.08,3.13,3.13,0,0,0,2.18.78,3.81,3.81,0,0,0,3.19-1.48l1.73,1.94a5.34,5.34,0,0,1-2.15,1.76A7.15,7.15,0,0,1,253.43,110.9Zm-.4-10.85a2.24,2.24,0,0,0-1.71.71,3.75,3.75,0,0,0-.83,2h4.9v-.28a2.55,2.55,0,0,0-.63-1.82A2.27,2.27,0,0,0,253,100.05Z"/><path class="cls-4" d="M260.35,104a7.72,7.72,0,0,1,1.45-4.9,4.69,4.69,0,0,1,3.9-1.85,4.09,4.09,0,0,1,3.38,1.49l.15-1.25h3.19v12.77a5.71,5.71,0,0,1-.78,3,5.15,5.15,0,0,1-2.22,2,7.75,7.75,0,0,1-3.34.67,7.22,7.22,0,0,1-2.84-.58,5,5,0,0,1-2.08-1.49l1.56-2.15a4.14,4.14,0,0,0,3.2,1.47,3,3,0,0,0,2.18-.75,2.82,2.82,0,0,0,.78-2.13v-.7a4.09,4.09,0,0,1-3.21,1.37,4.68,4.68,0,0,1-3.85-1.86,7.73,7.73,0,0,1-1.47-4.94Zm3.53.26a4.82,4.82,0,0,0,.72,2.82,2.29,2.29,0,0,0,2,1,2.43,2.43,0,0,0,2.3-1.21v-5.56a2.43,2.43,0,0,0-2.28-1.21,2.27,2.27,0,0,0-2,1A5.35,5.35,0,0,0,263.88,104.22Z"/><path class="cls-4" d="M275.11,94a1.73,1.73,0,0,1,.53-1.3,2.27,2.27,0,0,1,2.89,0,1.87,1.87,0,0,1,0,2.62,2.24,2.24,0,0,1-2.87,0A1.73,1.73,0,0,1,275.11,94Zm3.75,16.63h-3.54V97.45h3.54Z"/><path class="cls-4" d="M288.92,107a1.15,1.15,0,0,0-.65-1,7,7,0,0,0-2-.66q-4.71-1-4.71-4A3.61,3.61,0,0,1,283,98.39a5.89,5.89,0,0,1,3.82-1.18,6.31,6.31,0,0,1,4,1.18,3.73,3.73,0,0,1,1.51,3.08h-3.53a1.68,1.68,0,0,0-.49-1.25,2,2,0,0,0-1.52-.5,2.14,2.14,0,0,0-1.38.4,1.28,1.28,0,0,0-.49,1,1.08,1.08,0,0,0,.56.95,5.81,5.81,0,0,0,1.87.62,14.55,14.55,0,0,1,2.22.59c1.86.69,2.8,1.87,2.8,3.55a3.46,3.46,0,0,1-1.55,2.93,6.74,6.74,0,0,1-4,1.11,6.91,6.91,0,0,1-3-.59,4.88,4.88,0,0,1-2-1.62,3.76,3.76,0,0,1-.73-2.23h3.35a1.82,1.82,0,0,0,.69,1.44,2.72,2.72,0,0,0,1.73.5,2.63,2.63,0,0,0,1.54-.38A1.22,1.22,0,0,0,288.92,107Z"/><path class="cls-4" d="M298.84,94.21v3.24h2.26V100h-2.26v6.59a1.55,1.55,0,0,0,.28,1.05,1.42,1.42,0,0,0,1.07.32,5.37,5.37,0,0,0,1-.09v2.68a7.27,7.27,0,0,1-2.13.31c-2.48,0-3.74-1.24-3.79-3.74V100h-1.93V97.45h1.93V94.21Z"/><path class="cls-4" d="M310.49,100.76a10.85,10.85,0,0,0-1.27-.1,2.58,2.58,0,0,0-2.63,1.36v8.64h-3.53V97.45h3.34l.09,1.58a3.26,3.26,0,0,1,2.94-1.82,3.52,3.52,0,0,1,1.1.16Z"/><path class="cls-4" d="M317.33,105.67l2.45-8.22h3.78l-5.31,15.26-.29.7a4,4,0,0,1-3.91,2.58,5.36,5.36,0,0,1-1.56-.23v-2.67H313a3,3,0,0,0,1.5-.3,2,2,0,0,0,.77-1l.42-1.08-4.63-13.25h3.8Z"/></svg>