<svg xmlns="http://www.w3.org/2000/svg" xmlns:xlink="http://www.w3.org/1999/xlink" viewBox="0 0 304 351"><title>Helm</title><mask id="a" fill="#fff"><path d="m0 0h313.303155v159.864865H0z" fill="#fff" fill-rule="evenodd"></path></mask><mask id="b" fill="#fff"><path d="m0 0h313.303155v159.864865H0z" fill="#fff" fill-rule="evenodd"></path></mask><g fill="none" fill-rule="evenodd" transform="translate(-11 -51)"><path d="m11.6785714 189h19.7858357v26.789h23.9037V189h19.7858358v75.25H55.3681071v-28.695333h-23.9037V264.25h-19.7858357zm86.1738429 75.25V189h46.8030427v16.354333h-27.017207V217.595h23.9037v16.655333h-23.9037v13.846h27.017207V264.25zm68.4971567.0V189h19.785836v55.384h27.117643v19.866zM243.885943 189l30.733328 27.892667 30.632893-27.892667h8.938779v75.25h-19.886272v-38.628333l-19.6854 17.959666-19.785835-17.859333v38.528h-19.886272V189z" fill="#0f1689"></path><g transform="matrix(1 0 0 -1 11.958136 455)"><g fill="#0f1689" mask="url(#a)"><path d="m203.460676 95.6875425c6.93631.0 12.559301-14.8092194 12.559301-33.0773172s-5.622991-33.0773172-12.559301-33.0773172c-6.936311.0-12.559301 14.8092194-12.559301 33.0773172s5.62299 33.0773172 12.559301 33.0773172z" transform="matrix(.81915204 .57357644 -.57357644 .81915204 111.870091 -51.706556)"></path><path d="m30.1423223 95.6875425c6.9363104.0 12.559301-14.8092194 12.559301-33.0773172s-5.6229906-33.0773172-12.559301-33.0773172-12.5593009 14.8092194-12.5593009 33.0773172 5.6229905 33.0773172 12.5593009 33.0773172z" transform="matrix(-.81915204 .57357644 .57357644 .81915204 58.084611 47.704768)"></path><path d="m116.732815 66.2752676c6.936311.0 12.559301-14.8092193 12.559301-33.0773172.0-18.2680978-5.62299-33.07731713-12.559301-33.07731713-6.93631.0-12.559301 14.80921933-12.559301 33.07731713.0 18.2680979 5.622991 33.0773172 12.559301 33.0773172z" transform="matrix(-1 0 0 1 272.628524 53.670762)"></path></g><path d="m251.467006 173.099849c-20.230076-33.609969-56.889565-56.067908-98.755776-56.067908-40.720798.0-76.5158766 21.245901-97.0586959 53.334588m2.1981107 129.169534c20.8403036 30.232701 55.5559042 50.026591 94.8605852 50.026591 39.376099.0 74.146424-19.865887 94.974049-50.191495" mask="url(#a)" stroke="#0f1689" stroke-width="20"></path></g><g transform="translate(11.958136)"><g fill="#0f1689" mask="url(#b)"><path d="m203.460676 95.6875425c6.93631.0 12.559301-14.8092194 12.559301-33.0773172s-5.622991-33.0773172-12.559301-33.0773172c-6.936311.0-12.559301 14.8092194-12.559301 33.0773172s5.62299 33.0773172 12.559301 33.0773172z" transform="matrix(.81915204 .57357644 -.57357644 .81915204 111.870091 -54.166016)"></path><path d="m30.1423223 95.6875425c6.9363104.0 12.559301-14.8092194 12.559301-33.0773172s-5.6229906-33.0773172-12.559301-33.0773172-12.5593009 14.8092194-12.5593009 33.0773172 5.6229905 33.0773172 12.5593009 33.0773172z" transform="matrix(-.81915204 .57357644 .57357644 .81915204 58.084611 45.245308)"></path><path d="m116.732815 66.2752676c6.936311.0 12.559301-14.8092193 12.559301-33.0773172.0-18.2680978-5.62299-33.07731713-12.559301-33.07731713-6.93631.0-12.559301 14.80921933-12.559301 33.07731713.0 18.2680979 5.622991 33.0773172 12.559301 33.0773172z" transform="matrix(-1 0 0 1 272.628524 51.211302)"></path></g><path d="m251.467006 170.64039c-20.230076-33.609969-56.889565-56.067908-98.755776-56.067908-40.720798.0-76.5158766 21.2459-97.0586959 53.334587m2.1981107 129.169534c20.8403036 30.232702 55.5559042 50.026591 94.8605852 50.026591 39.376099.0 74.146424-19.865886 94.974049-50.191494" mask="url(#b)" stroke="#0f1689" stroke-width="20"></path></g></g></svg>
