<svg viewBox="0 0 319 92" xmlns="http://www.w3.org/2000/svg" fill-rule="evenodd" clip-rule="evenodd" stroke-linejoin="round" stroke-miterlimit="2"><path d="M103.179 41.78v-1.86h2.48V25.1h-2.48v-1.86h7.08v1.86h-2.48v14.82h2.48v1.86h-7.08zM116.249 39.82h5.24a2.652 2.652 0 002.93-2.87v-.9a2.652 2.652 0 00-2.93-2.87h-5.24v6.64zm0-8.56h4.88a2.41 2.41 0 002.68-2.57v-.9a2.422 2.422 0 00-2.68-2.58h-4.88v6.05zm-2.12-8h7.22c.098-.006.196-.01.295-.01 2.43 0 4.43 2 4.43 4.43 0 .12-.005.24-.015.36 0 2.77-1.7 3.75-2.86 3.94v.15a4.018 4.018 0 013.46 4.31c0 3.05-1.94 5.36-4.55 5.36h-8l.02-18.54zM130.639 23.24h2.83l5 10h.13l5.08-10h2.73v18.54h-2.06V26.16h-.13l-1.49 3.11-4.22 8.08-4.16-8.08-1.5-3.11h-.12v15.62h-2.07l-.02-18.54zM156.089 32.62c0-6.25 3-9.73 7.61-9.73a6.444 6.444 0 016.45 4.28l-2.86 1.59a3.53 3.53 0 00-3.59-2.76c-2.48 0-4.07 1.89-4.07 5.05v2.92c0 3.19 1.59 5 4.07 5a4.01 4.01 0 003.82-2.94l2.7 1.67a6.782 6.782 0 01-6.52 4.38c-4.65 0-7.61-3.21-7.61-9.45M176.109 41.78c-2.2 0-3.23-1.22-3.23-3.34V22.13h3.23v16.94h1.75v2.71h-1.75zM188.349 36.13v-2.58c0-2.07-1.06-3.21-2.76-3.21-1.7 0-2.73 1.14-2.73 3.21v2.58c0 2.09 1.06 3.24 2.73 3.24s2.76-1.15 2.76-3.24m-8.88-1.31c0-4.43 2.35-7.22 6.12-7.22s6.15 2.79 6.15 7.22-2.36 7.28-6.15 7.28c-3.79 0-6.12-2.81-6.12-7.28M202.429 39.47h-.08a3.601 3.601 0 01-3.69 2.63c-2.7 0-4.22-2-4.22-5.42v-8.76h3.24v8.42c0 1.91.68 3 2.22 3a2.33 2.33 0 002.58-2.21v-9.21h3.24v13.86h-3.24l-.05-2.31zM217.599 37.03v-4.41c0-1.36-1.19-2.23-2.73-2.23s-2.81 1.3-2.81 3.27v2.39c0 2 1.14 3.24 2.81 3.24 1.67 0 2.73-.83 2.73-2.26m0 2.44h-.13a3.73 3.73 0 01-3.64 2.63c-3.31 0-5.16-2.63-5.16-7.28s1.85-7.2 5.16-7.2a3.659 3.659 0 013.64 2.6h.13v-8.09h3.23v19.65h-3.23v-2.31zM102.979 59.49c0-6.24 3-9.72 7.61-9.72a6.444 6.444 0 016.45 4.28l-2.86 1.57a3.53 3.53 0 00-3.59-2.76c-2.48 0-4.07 1.88-4.07 5v2.93c0 3.18 1.59 5 4.07 5a4.01 4.01 0 003.82-3l2.7 1.67a6.773 6.773 0 01-6.52 4.39c-4.65 0-7.61-3.22-7.61-9.46M127.749 62.97v-2.58c0-2.07-1.06-3.21-2.75-3.21s-2.73 1.14-2.73 3.21v2.58c0 2.1 1.06 3.24 2.73 3.24s2.75-1.14 2.75-3.24m-8.87-1.3c0-4.44 2.35-7.23 6.12-7.23s6.14 2.79 6.14 7.23-2.35 7.28-6.14 7.28c-3.79 0-6.12-2.82-6.12-7.28M133.999 68.62V54.76h3.23v2.31h.12a3.67 3.67 0 013.69-2.63c2.71 0 4.22 2 4.22 5.42v8.76h-3.23v-8.41c0-2-.63-3-2.18-3a2.37 2.37 0 00-2.63 2.23v9.18h-3.22zM149.569 65.1v-7.63h-1.95v-2.71h1c1 0 1.27-.48 1.27-1.43v-2.37h2.91v3.8h2.7v2.71h-2.7v8.45h2.55v2.7h-2.33c-2.22 0-3.41-1.28-3.41-3.53M165.269 64.48v-1.86h-2.07c-1.7 0-2.53.61-2.53 1.7v.45c0 1.12.73 1.68 2 1.68 1.44 0 2.6-.69 2.6-2m-7.89.38c0-2.85 2.05-4.25 5.64-4.25h2.25v-.96a2.18 2.18 0 00-2.45-2.45 3.405 3.405 0 00-3 1.76l-1.92-1.81a5.488 5.488 0 015.15-2.66c3.57 0 5.47 1.78 5.47 4.94v6.52h1.31v2.7h-1.79a2.471 2.471 0 01-2.46-2.39h-.15a3.592 3.592 0 01-3.84 2.71 3.848 3.848 0 01-4.2-4.09M172.449 54.76h3.23v13.86h-3.23V54.76zm-.28-3.72v-.53c0-1 .56-1.7 1.9-1.7 1.34 0 1.89.72 1.89 1.7v.53c0 1-.58 1.7-1.89 1.7s-1.9-.71-1.9-1.7M179.419 68.62V54.76h3.24v2.31h.13a3.67 3.67 0 013.69-2.63c2.7 0 4.22 2 4.22 5.42v8.76h-3.24v-8.41c0-2-.63-3-2.17-3a2.37 2.37 0 00-2.63 2.23v9.18h-3.24zM196.769 60.23v.22h5.41v-.24c0-1.91-.94-3.22-2.61-3.22s-2.8 1.33-2.8 3.24m-3.37 1.44c0-4.38 2.25-7.23 6.12-7.23 4.12 0 6 3.19 6 7v1.11h-8.77v.35a3.015 3.015 0 003.21 3.35 4.004 4.004 0 003.39-1.9l1.74 2a6.415 6.415 0 01-5.46 2.55c-3.89 0-6.22-2.85-6.22-7.28M208.349 68.62V54.76h3.24v2.86h.13a3.442 3.442 0 013.49-2.87h.7v3.22h-1c-2.17 0-3.31.63-3.31 2.15v8.5h-3.25zM232.129 58.53a1.91 1.91 0 002.08-2.09v-1.23a1.9 1.9 0 00-2.08-2.07h-4.3v5.39h4.3zm-4.3 10.09h-3.33V50.09h8c3.21 0 5.21 2.23 5.21 5.73 0 2.55-1.11 4.49-3.29 5.26l3.58 7.54h-3.72l-3.29-7.15h-3.16v7.15zM243.179 60.23v.22h5.41v-.24c0-1.91-.94-3.22-2.61-3.22s-2.8 1.33-2.8 3.24m-3.36 1.44c0-4.38 2.25-7.23 6.11-7.23 4.13 0 6 3.19 6 7v1.11h-8.77v.35a3.014 3.014 0 003.19 3.34 4.003 4.003 0 003.36-1.89l1.75 2a6.437 6.437 0 01-5.46 2.55c-3.9 0-6.22-2.85-6.22-7.28M262.159 59.36v-.45c0-1.41-.83-2.13-2.37-2.13s-2.38.72-2.38 2.13v.45c0 1.38.83 2.12 2.38 2.12 1.55 0 2.37-.74 2.37-2.12m-.73 9.43h-4.5a1.723 1.723 0 00-.68 1.43c0 1.06.76 1.7 2.78 1.7h1.62c2.09 0 3-.56 3-1.73 0-.87-.61-1.4-2.25-1.4m-1.64 5.47c-4.45 0-6.15-1.22-6.15-3.27a2.51 2.51 0 012.35-2.65v-.3a2.266 2.266 0 01-1.61-2.31c0-1.43 1.16-2.15 2.43-2.44v-.11a4.207 4.207 0 01-2.4-4c0-2.82 1.89-4.71 5.46-4.71a7.016 7.016 0 012.3.35v-.45c0-1.36.65-2 1.87-2h2.05v2.6h-2.81v.37a4.216 4.216 0 012 3.86c0 2.78-1.87 4.64-5.46 4.64a7.794 7.794 0 01-2-.24c-.53.195-.897.687-.93 1.25 0 .69.56 1 1.72 1h3.54c3.23 0 4.62 1.46 4.62 4 0 2.89-1.87 4.46-6.92 4.46M268.579 54.76h3.24v13.86h-3.24V54.76zm-.23-3.72v-.53c0-1 .55-1.7 1.89-1.7 1.34 0 1.9.72 1.9 1.7v.53c0 1-.58 1.7-1.9 1.7-1.32 0-1.89-.71-1.89-1.7M274.419 66.4l2-2a4.552 4.552 0 003.61 1.88c1.54 0 2.2-.61 2.2-1.59 0-.8-.46-1.3-1.62-1.46l-1.31-.19c-2.83-.37-4.4-1.67-4.4-4.19 0-2.69 2-4.39 5-4.39a6.156 6.156 0 015.14 2.16l-1.89 2a4.29 4.29 0 00-3.17-1.48c-1.39 0-2 .58-2 1.43s.48 1.36 1.72 1.57l1.34.18c2.88.43 4.27 1.78 4.27 4.09 0 2.69-2.15 4.55-5.44 4.55a6.593 6.593 0 01-5.46-2.55M288.679 65.1v-7.63h-1.95v-2.71h1c1 0 1.26-.48 1.26-1.43v-2.37h2.91v3.8h2.7v2.71h-2.7v8.45h2.5v2.7h-2.33c-2.22 0-3.41-1.28-3.41-3.53M297.429 68.62V54.76h3.23v2.86h.13a3.442 3.442 0 013.49-2.87h.71v3.22h-1c-2.18 0-3.32.63-3.32 2.15v8.5h-3.24zM315.649 54.76h3l-5.3 16.34c-.66 2-1.59 2.84-3.77 2.84h-1.95v-2.71h2.38l.61-1.94-4.73-14.53h3.21l2.3 7.33.86 3.51h.15l.91-3.51 2.33-7.33z" fill-rule="nonzero"/><path d="M25.349 84.18a4.432 4.432 0 01-1.73-3.8l.07-40.76a9.833 9.833 0 015.89-8.52l38.09-14.4a4.403 4.403 0 014.16.27l9.24 6.4a4.403 4.403 0 00-4.15-.28l-38.09 14.44a9.865 9.865 0 00-5.9 8.53v40.72a4.435 4.435 0 001.67 3.84l-9.25-6.44z" fill="#0f3659" fill-rule="nonzero"/><path d="M49.889 33.35v11.83a9.884 9.884 0 01-5.9 8.53l-11.08 4.18v17.59l27.5-10.41a9.841 9.841 0 005.94-8.52V27.13l-16.46 6.22z" fill="#9e7bff" fill-rule="nonzero"/><path d="M64.639 12.04a4.424 4.424 0 00-4.16-.28l-38.13 14.41a9.843 9.843 0 00-5.89 8.52l-.06 40.72a4.412 4.412 0 001.73 3.79L1.739 67.83a4.412 4.412 0 01-1.73-3.79l.05-40.72a9.884 9.884 0 015.9-8.53L44.049.39a4.424 4.424 0 014.16.28l16.43 11.37z" fill="#0f3659" fill-rule="nonzero"/><path d="M16.439 75.41a4.02 4.02 0 00-.025.454c0 2.232 1.837 4.07 4.07 4.07.649 0 1.288-.156 1.865-.453l1.31-.5V61.39l-7.2 2.72-.02 11.3zM64.639 12.04l-.51-.29a3.833 3.833 0 00-1.12-.32h-1.43l-.35.07-.19.05-.56.18-10.56 4v7.69l16.43-6.19v-1.4a4.384 4.384 0 00-1.72-3.79M81.069 23.41a3.901 3.901 0 00-2.37-.62h-.56l-.25.05a6.822 6.822 0 00-.93.27l-3.37 1.27v37.13a9.851 9.851 0 01-5.9 8.52l-34.81 13.15v3.6a4.434 4.434 0 001.72 3.84 4.424 4.424 0 004.16.28l38.09-14.46a9.833 9.833 0 005.89-8.52l.06-40.72a4.412 4.412 0 00-1.73-3.79" fill="#9e7bff" fill-rule="nonzero"/></svg>