<svg viewBox="0 0 281 36" xmlns="http://www.w3.org/2000/svg" fill-rule="evenodd" clip-rule="evenodd" stroke-linejoin="round" stroke-miterlimit="2"><g fill="#253858" fill-rule="nonzero"><path d="M52.58 4.263h3.81v19.042c0 5.045-2.241 8.527-7.495 8.527-1.554.023-3.1-.218-4.571-.711v-3.647c1.255.479 2.59.72 3.936.71 3.219 0 4.33-1.895 4.33-4.628l-.01-19.293zM63.335 2.799a2.4 2.4 0 011.85.68 2.32 2.32 0 01.69 1.822c0 1.381-1.137 2.501-2.54 2.501s-2.541-1.12-2.541-2.501a2.323 2.323 0 01.69-1.822 2.402 2.402 0 011.85-.68zm-1.862 8.006h3.642v20.842h-3.642V10.805zM70.615 10.8h3.555v3.666c1.227-2.458 3.369-4.211 7.497-3.96v3.501c-4.658-.474-7.497.919-7.497 5.334v12.315h-3.555V10.8zM98.729 27.891c-1.357 2.752-3.897 4.168-7.155 4.168-5.63 0-8.468-4.708-8.468-10.838 0-5.878 2.964-10.838 8.892-10.838 3.089 0 5.46 1.374 6.736 4.083V10.8h3.642v20.842h-3.642l-.005-3.751zm-6.183.833c3.262 0 6.183-2.041 6.183-6.669v-1.687c0-4.627-2.666-6.669-5.774-6.669-4.11 0-6.226 2.667-6.226 7.503.019 5.021 2.05 7.522 5.822 7.522h-.005zM123.923 32.059c-5.38 0-7.877-1.042-10.037-2.127V26.1c2.584 1.336 6.563 2.293 10.244 2.293 4.19 0 5.774-1.625 5.774-4.046 0-2.42-1.526-3.709-6.818-4.959-6.255-1.502-9.061-3.629-9.061-8.129 0-4.263 3.3-7.417 9.782-7.417 4.023 0 6.607.947 8.512 1.999v3.751a17.304 17.304 0 00-8.661-2.084c-3.642 0-5.803 1.25-5.803 3.751 0 2.25 1.78 3.378 6.689 4.586 5.884 1.459 9.19 3.316 9.19 8.251-.03 4.751-2.906 7.963-9.811 7.963zM136.924 21.178c0-6.252 3.724-10.795 10.076-10.795 6.35 0 9.993 4.543 9.993 10.795 0 6.253-3.685 10.895-9.993 10.895-6.31 0-10.076-4.642-10.076-10.895zm3.556 0c0 3.96 1.992 7.546 6.52 7.546 4.527 0 6.438-3.586 6.438-7.546 0-3.96-1.95-7.441-6.438-7.441-4.49 0-6.501 3.481-6.501 7.441h-.02zM166.265 10.8h5.462v3.316h-5.462v17.526h-3.555V14.116h-3.446V10.8h3.43V8.526c0-3.874 2.205-6.503 6.737-6.503a8.883 8.883 0 012.454.331V5.67a12.156 12.156 0 00-2.285-.208c-2.242 0-3.368 1.293-3.368 3.169l.033 2.169zM184.049 28.142a11.73 11.73 0 002.286-.294v3.458a8.845 8.845 0 01-2.454.331c-4.533 0-6.737-2.624-6.737-6.503V14.135h-3.445v-3.316h3.43V6.381h3.557V10.8h5.629v3.316h-5.63v10.942c.02 1.833 1.122 3.084 3.364 3.084zM187.355 10.8h4.022l6.097 17.673 6.178-17.673h3.474l6.183 17.673 6.1-17.673h4.023l-7.79 20.842h-4.657l-3.643-10.085-1.924-6.418-1.925 6.418-3.69 10.085h-4.658l-7.79-20.842zM240.066 27.891c-1.357 2.752-3.897 4.168-7.155 4.168-5.63 0-8.468-4.708-8.468-10.838 0-5.878 2.964-10.838 8.892-10.838 3.089 0 5.46 1.374 6.736 4.083V10.8h3.643v20.842h-3.643l-.005-3.751zm-6.183.833c3.263 0 6.183-2.041 6.183-6.669v-1.687c0-4.627-2.665-6.669-5.774-6.669-4.09.038-6.221 2.686-6.221 7.522 0 5.002 2.045 7.503 5.817 7.503h-.005zM249.213 10.8h3.556v3.666c1.227-2.458 3.368-4.211 7.497-3.96v3.501c-4.658-.474-7.497.919-7.497 5.334v12.315h-3.556V10.8zM273.093 32.059c-7.92 0-11.39-4.5-11.39-10.895 0-6.295 3.557-10.795 9.995-10.795 6.52 0 9.142 4.462 9.142 10.795v1.625h-15.45c.51 3.543 2.839 5.836 7.833 5.836a19.023 19.023 0 006.438-1.128v3.316c-1.737.924-4.407 1.246-6.568 1.246zm-7.746-12.316h11.803c-.212-3.875-1.992-6.087-5.63-6.087-3.844-.019-5.793 2.449-6.173 6.063v.024z"/></g><path d="M34.835 16.939L17.629 0 .422 16.939a1.406 1.406 0 000 2.008l17.207 16.939 17.206-16.939a1.405 1.405 0 000-2.008zm-17.206 6.309l-5.39-5.305 5.39-5.305 5.389 5.305-5.39 5.305z" fill="#2684ff" fill-rule="nonzero"/><path d="M17.63 12.638A8.836 8.836 0 0117.591.043L5.798 11.648l6.419 6.319 5.413-5.329z" fill="url(#_Linear1)" fill-rule="nonzero" transform="translate(-.001)"/><path d="M23.033 17.929l-5.403 5.319a8.865 8.865 0 012.66 6.319 8.862 8.862 0 01-2.66 6.319l11.822-11.638-6.419-6.319z" fill="url(#_Linear2)" fill-rule="nonzero" transform="translate(-.001)"/><defs><linearGradient id="_Linear1" x1="0" y1="0" x2="1" y2="0" gradientUnits="userSpaceOnUse" gradientTransform="scale(-10.56014) rotate(-44.551 -1.63 1.582)"><stop offset="0" stop-color="#0052cc"/><stop offset=".18" stop-color="#0052cc"/><stop offset="1" stop-color="#2684ff"/></linearGradient><linearGradient id="_Linear2" x1="0" y1="0" x2="1" y2="0" gradientUnits="userSpaceOnUse" gradientTransform="scale(10.53988) rotate(-44.551 4.192 -.806)"><stop offset="0" stop-color="#0052cc"/><stop offset=".18" stop-color="#0052cc"/><stop offset="1" stop-color="#2684ff"/></linearGradient></defs></svg>