<svg height="128" viewBox="0 0 376 128" width="376" xmlns="http://www.w3.org/2000/svg"><g fill="#304362" transform="translate(40 38)"><g stroke="#304362" stroke-width=".5"><path d="m131.142893 19.2678571c-1.380457-2.0728587-3.754411-3.2657949-6.245786-3.1385714-.848935-.0009392-1.694176.1114877-2.513208.3342857-.792748.2219183-1.54188.5767408-2.215346 1.0492857-.660784.4898764-1.199151 1.1254593-1.573081 1.8571429-.409605.8113536-.614118 1.7103176-.595724 2.6185714-.077937 1.2551473.370479 2.4861589 1.237988 3.3985715.885506.8430011 1.92092 1.5137663 3.053082 1.9778571 1.301941.5409482 2.635436 1.0029795 3.993207 1.3835714 1.402188.3753288 2.755037.9145392 4.03044 1.6064286 1.207562.6691257 2.253004 1.5947566 3.06239 2.7114286.897149 1.3765336 1.327822 3.0039374 1.22868 4.6428571.022237 1.3691238-.297662 2.7222199-.930818 3.9371429-.616183 1.1418397-1.469884 2.1391143-2.503899 2.925-2.081103 1.5780164-4.618489 2.4413171-7.232453 2.4607143-1.93608.0091533-3.854277-.369771-5.640755-1.1142858-1.830361-.793506-3.403189-2.0795984-4.54239-3.7142857l3.015849-2.1357143c.703765 1.1862617 1.708717 2.166368 2.913459 2.8414286 1.349266.7411963 2.872342 1.1098271 4.412076 1.0678572.843955.0197206 1.685769-.093086 2.494591-.3342858.796926-.2483977 1.543705-.6350312 2.206038-1.1421428.654775-.506539 1.202142-1.137807 1.610314-1.8571429.43572-.7630835.657564-1.629077.642264-2.5071428.02918-.9762093-.215853-1.9411095-.707421-2.7857143-.479644-.7452408-1.114592-1.3786568-1.861635-1.8571429-.831776-.5204886-1.722208-.9412544-2.65283-1.2535714l-3.053082-.9935714c-1.039408-.3290779-2.061504-.710277-3.06239-1.1421429-.955466-.4070393-1.846077-.9513784-2.643522-1.6157143-.791227-.6766569-1.426305-1.5161046-1.861635-2.4607143-.511227-1.1697561-.752967-2.4389981-.707422-3.7142857-.021582-1.4076348.297732-2.7996702.930818-4.0578571.562366-1.1212393 1.370413-2.1018847 2.364277-2.8692857 1.005828-.7634033 2.145322-1.3333498 3.360251-1.6807143 2.894757-.8266305 5.977733-.7160932 8.805535.3157143 1.581913.6652619 2.98023 1.7003221 4.076981 3.0178571z"/><path d="m151.183396 27.5971429h-6.162012v12.5728571c-.016184.6510518.05901 1.3011614.223396 1.9314286.11733.4328299.337658.831011.642264 1.1607143.270947.2702795.60779.4654971.977359.5664285.409228.1118778.832346.1650308 1.256603.1578572.541227-.0029556 1.079642-.0779019 1.601007-.2228572.523282-.1413846 1.029068-.3407193 1.507924-.5942857l.130315 2.7857143c-1.279678.5518214-2.664771.8180302-4.058365.78-.60591-.0064039-1.20893-.0843269-1.796478-.2321429-.631402-.1484833-1.218416-.4444648-1.712705-.8635714-.554072-.4709552-.993355-1.0616037-1.284528-1.7271428-.368138-.9104701-.539421-1.888224-.502641-2.8692858v-13.4457142h-4.514466v-2.73h4.514466v-6.0078572h3.015849v6.0078572h6.162012z"/><path d="m168.980629 33.1128571v-.5478571c0-3.6771429-1.824403-5.5157143-5.473208-5.5157143-2.413005-.0241808-4.744001.872748-6.515723 2.5071429l-1.815094-2.1357143c2.00436-2.0738095 5.014004-3.1076191 9.028931-3.1014286 1.013367-.0007116 2.02092.1527181 2.987924.455 1.87522.5605384 3.40547 1.9205 4.179371 3.7142857.451617 1.0653197.670564 2.2143911.642264 3.3707143v9.5364286c0 .8171428 0 1.6807143.111698 2.5721428.111699.8914286.158239 1.6342858.251321 2.21h-2.969308c-.096738-.5595347-.165085-1.1235866-.20478-1.69-.046541-.6035714-.065157-1.1978571-.065157-1.7735714h-.093082c-.741612 1.2902066-1.823247 2.353174-3.127547 3.0735714-1.371553.6577201-2.881726.976225-4.402767.9285715-.926261.0020429-1.847967-.1293116-2.736604-.39-.853939-.2423611-1.653365-.6458379-2.354969-1.1885715-.678767-.5264928-1.237254-1.1912604-1.638239-1.95-.424078-.8400529-.635026-1.7710891-.614339-2.7114285-.085865-1.4789893.393061-2.9355239 1.340377-4.0764286.924925-1.0050558 2.086141-1.7645663 3.378868-2.21 1.398219-.4999584 2.856873-.8122189 4.33761-.9285714 1.535849-.1207143 2.941384-.1764286 4.216604-.1764286zm-1.554465 2.4514286c-.753963 0-1.712705 0-2.848302.1207143-1.110763.067664-2.211717.2481208-3.285787.5385714-.981214.2561841-1.897639.7148726-2.690062 1.3464286-.752194.6106639-1.169981 1.5406656-1.12629 2.5071429-.015587.6254621.135372 1.2438612.437485 1.7921428.28725.495618.685456.9182872 1.163522 1.235.494598.3213155 1.043265.550948 1.619622.6778572.591966.1376369 1.197958.2061918 1.805786.2042857.977006.0243653 1.948001-.1592353 2.848302-.5385715.777087-.346002 1.471847-.8523642 2.038491-1.4857142.551829-.6335198.961261-1.3775845 1.200755-2.1821429.264583-.8635166.396396-1.7620612.390943-2.665v-1.5507143z"/><path d="m194.540881 29.8721429c-.556107-.8307067-1.298697-1.5206343-2.168806-2.015-.96284-.5587036-2.060357-.8444611-3.174088-.8264286-1.147031-.0476512-2.290657.1551694-3.350943.5942857-.959096.407857-1.821649 1.0120853-2.531824 1.7735714-.718669.781584-1.264187 1.7054622-1.601006 2.7114286-.731992 2.2037019-.731992 4.5841553 0 6.7878571.336722 1.0032477.882329 1.9241108 1.601006 2.7021429.707403.766959 1.570509 1.3747401 2.531824 1.7828571 1.059713.4403498 2.204305.64017 3.350943.585 1.112913.0213212 2.210497-.2612427 3.174088-.8171428.865471-.4885971 1.607351-1.168336 2.168806-1.9871429l2.466666 1.8571429c-.978361 1.1878821-2.212902 2.14012-3.611572 2.7857143-1.32364.5845327-2.750733.9001979-4.197988.9285714-1.58888.0413129-3.170354-.2300442-4.654088-.7985714-1.343959-.528582-2.563994-1.3283847-3.583647-2.3492857-.998031-1.0193783-1.768835-2.2376646-2.261887-3.575-1.029996-2.9017244-1.029996-6.0682757 0-8.97.492953-1.3346468 1.263852-2.5499181 2.261887-3.5657143 1.017063-1.0240628 2.237806-1.8243293 3.583647-2.3492857 1.483734-.5685273 3.065208-.8398844 4.654088-.7985715 1.447255.0283736 2.874348.3440387 4.197988.9285715 1.401214.6414087 2.636631 1.594323 3.611572 2.7857142z"/><path d="m203.988679 34.4778571 10.080755-9.6107142h4.523774l-10.639246 9.7407142 11.774843 11.57h-4.654088l-11.086038-11.1985714v11.1985714h-3.015849v-34.4221428h3.015849z"/><path d="m227.352201 46.1778571h-3.285786v-32.2492857h9.95044c3.285787 0 5.873459.715 7.781636 2.145 1.908176 1.43 2.848301 3.5842857 2.848301 6.5.05825 2.0916341-.703057 4.1235484-2.122264 5.6642857-1.623925 1.6179366-3.803031 2.5604906-6.096855 2.6371429l9.308176 15.3028571h-4.011824l-8.898616-14.9778571h-5.473208zm0-17.9864285h5.845535c1.256591.0282523 2.510671-.1250017 3.72327-.455.887632-.2379198 1.719519-.6481263 2.448051-1.2071429.581128-.4727688 1.035334-1.0822339 1.321761-1.7735714.275087-.7042856.414053-1.4541518.409559-2.21.00176-.7405294-.137213-1.4746797-.409559-2.1635714-.291764-.7012939-.748285-1.3223208-1.33107-1.8107143-.724178-.5659484-1.55754-.9768824-2.44805-1.2071429-1.215875-.3104586-2.468491-.4541619-3.72327-.4271428h-5.845535z"/><path d="m271.621887 35.5178571c.017725 1.5301469-.270224 3.0484918-.847044 4.4664286-.534877 1.3276787-1.332667 2.53411-2.345661 3.5471429-1.026042 1.0130596-2.244367 1.8117412-3.583647 2.3492857-2.938939 1.1270414-6.192383 1.1270414-9.131321 0-2.704223-1.069859-4.848363-3.2021094-5.929308-5.8964286-1.12946-2.8678236-1.12946-6.0557478 0-8.9235714.534683-1.3305168 1.33242-2.5400247 2.34566-3.5564286 1.02735-1.0091442 2.245493-1.8045503 3.583648-2.34 2.938938-1.1270414 6.192382-1.1270414 9.131321 0 1.3369.5378468 2.554597 1.3329614 3.583647 2.34 1.01324 1.0164039 1.810977 2.2259118 2.345661 3.5564286.575845 1.4149772.86378 2.9300932.847044 4.4571428m-3.285786 0c.004585-1.1324906-.187521-2.2572141-.567799-3.3242857-.358759-.991578-.909023-1.903317-1.619623-2.6835714-.711259-.7648969-1.573201-1.3750196-2.531824-1.7921429-2.147933-.8909162-4.563262-.8909162-6.711195 0-.957053.4103541-1.814241 1.0216056-2.513207 1.7921429-.701455.7836672-1.245026 1.6947889-1.601006 2.6835714-.757084 2.1518445-.757084 4.496727 0 6.6485715.353621.9926738.897383 1.9072698 1.601006 2.6928571.701457.7677445 1.557996 1.3785341 2.513207 1.7921429 2.150349.8787609 4.560847.8787609 6.711195 0 .956672-.4205605 1.817957-1.0302179 2.531824-1.7921429.712623-.7822726 1.263064-1.6974618 1.619623-2.6928571.381932-1.0666404.574089-2.1916554.567799-3.3242858"/><path d="m282.624151 34.7935714-7.763019-9.9264285h4.104906l5.938616 7.9671428 5.659371-7.9671428h3.741887l-7.437233 9.9264285 8.945157 11.3842857h-4.114213l-7.157988-9.3321428-6.897358 9.3321428h-3.834969z"/></g><path d="m89.3584906 50.2914286c.337695-.1301094.5107838-.50423.3909434-.845l-10.6950944-30.7914286c-.0603883-.1611096-.1831754-.2912313-.3407351-.3610888-.1575597-.0698576-.3366585-.0735836-.4970007-.0103398l-27.7942139 14.4485715c-.1632893.0586331-.2963845.1798281-.3697742.3367122-.0733897.1568842-.0810092.3364931-.0211692.499002l6.7484277 18.3485715h29.069434z"/><path d="m45.2284277 31.9428571c-.1191719-.3382758.0545053-.7095433.3909434-.8357142l26.5189937-13.78-2.7272956-7.8371429c-.0770163-.20594693-.233958-.37225531-.4353823-.46136703s-.4303428-.09351103-.635058-.0122044l-35.52 18.46000003c-.435013.1610952-.6591253.6413601-.5026415 1.0771428l8.5821384 23.3628572h11.6631446z"/><path d="m27.431195 26.9285714c-.1574503-.4331757.0620031-.9123298.4933333-1.0771428l32.7275472-17.0114286-2.7924529-8.13428571c-.0832159-.24286975-.2634896-.4405465-.4980156-.54609237-.234526-.10554588-.502384-.10954598-.7399718-.01105049l-41.2538365 21.42214287c-.2492135.0788112-.4537152.2585405-.5634966.4952373-.1097813.2366968-.1147207.5085382-.0136103.7490484l10.6857862 29.1014286h11.1698113z"/><path d="m11.1698113 24.0314286 10.2389937 27.8571428h-16.91295594c-.14134306-.0024512-.26683077-.090817-.31647799-.2228571l-3.9745912-11.5607143c-.04191438-.0881501-.04191438-.1904214 0-.2785714l10.37861633-15.86c.0687908-.1063326.1918761-.1647954.3179844-.1510356.1261083.0137599.2336154.0973828.2777389.2160356"/></g></svg>