<svg width="218" height="84" viewBox="0 0 218 84" fill="none" xmlns="http://www.w3.org/2000/svg">
<path d="M69.9719 25.9178C69.9719 29.3802 69.8923 32.8461 69.9884 36.3086C70.1873 43.4498 68.1292 49.8651 64.54 55.8162C59.8935 63.5264 53.7358 69.7357 46.9948 75.3622C43.3393 78.4128 39.475 81.1527 35.5311 83.767C35.1865 83.9973 34.9313 84.116 34.5104 83.8403C25.4826 77.8892 17.0911 71.1284 10.1447 62.5456C6.33007 57.8336 3.16836 52.7028 1.3522 46.7482C0.437494 43.7465 0.0132816 40.675 0.0165958 37.5232C0.0298524 28.916 0.0364809 20.3053 2.50987e-05 11.698C-0.00328906 10.8045 0.321499 10.6475 1.04067 10.6091C4.10295 10.452 7.15198 10.1518 10.1612 9.50261C14.2542 8.61955 18.0456 6.96512 21.383 4.33688C26.6227 0.207791 32.5484 -0.430945 38.7757 0.218262C41.9573 0.549846 44.9003 1.63535 47.4588 3.63881C53.5104 8.38221 60.4105 10.2565 67.8044 10.5742C69.9719 10.6684 69.9719 10.6789 69.9719 12.9092C69.9719 17.2477 69.9719 21.5862 69.9719 25.9247V25.9178Z" fill="#0072C5"/>
<path d="M32.4954 54.0245C31.9353 54.1257 31.869 54.6597 31.7298 55.0786C29.8441 60.7364 27.9782 66.4013 26.1024 72.0661C25.8604 72.7921 25.6052 73.5146 25.3534 74.2371C25.1976 74.6909 25.0551 74.9038 24.558 74.4919C20.6539 71.2459 16.9652 67.7381 13.5914 63.8952C10.2607 60.1012 7.28789 55.993 5.12705 51.3194C3.53294 47.8745 2.43927 44.2689 2.141 40.3946C1.97529 38.2446 2.01837 36.105 2.00843 33.9619C1.97529 27.3407 1.99517 20.7195 1.99517 14.0983C1.99517 12.559 2.05151 12.5276 3.5694 12.4648C6.91007 12.3252 10.1878 11.7842 13.4158 10.8592C16.773 9.89588 19.8154 8.24843 22.6457 6.16119C25.2838 4.21706 28.061 2.66036 31.3255 2.27643C37.0524 1.60279 42.5704 1.95182 47.4555 5.70047C47.8996 6.04252 48.0156 6.29383 47.83 6.84181C46.7297 10.0913 45.6592 13.3548 44.5987 16.6183C44.4993 16.9255 44.2905 17.1139 44.1347 17.3583C43.6111 17.6759 43.1371 17.3338 42.6665 17.1977C35.9719 15.271 29.443 15.7841 23.3118 19.1872C15.623 23.4594 10.9069 30.1923 9.35592 39.2742C9.23661 39.9688 9.14713 40.6669 9.13387 41.3754C9.12724 41.8501 9.31615 42.0525 9.75362 42.056C11.8946 42.0595 14.0322 42.0665 16.1731 42.0525C16.71 42.0491 16.8658 41.6861 16.9487 41.2149C17.1608 40.0246 17.3729 38.8344 17.7871 37.6966C20.528 30.1818 25.6715 25.8503 33.2411 24.6741C35.7665 24.2831 38.2024 24.674 40.625 25.3407C40.9697 25.4349 41.4171 25.4454 41.4933 25.976C40.6847 28.3424 39.8793 30.7089 39.064 33.0753C38.9249 33.4802 38.7525 33.8711 38.5934 34.269C38.2355 34.5797 37.8643 34.3598 37.4964 34.3005C35.6803 34.0073 33.884 33.9793 32.1143 34.632C28.5648 35.9444 25.9101 39.6896 25.8207 43.5639C25.7146 48.0036 27.9517 51.7662 31.6238 53.3613C31.9519 53.5044 32.4092 53.5009 32.4888 54.021L32.4954 54.0245Z" fill="#2686CD"/>
<path d="M41.6655 25.1351C36.5054 23.1874 31.4778 23.5853 26.7087 26.3637C21.3364 29.491 18.2543 34.381 17.3429 40.7684C17.2633 41.3163 17.1175 41.5048 16.5873 41.4978C14.2574 41.4734 11.9275 41.4664 9.59769 41.4978C9.00114 41.5048 8.96468 41.278 8.99783 40.73C9.75345 28.786 18.4564 18.2032 29.5887 15.6727C34.5765 14.5383 39.4715 14.8525 44.3069 16.5104C50.2028 18.828 54.8923 22.7232 58.2032 28.3881C60.4104 32.1646 61.6797 36.2728 62.0277 40.702C62.0774 41.3338 61.9714 41.5083 61.3582 41.4978C59.0615 41.4629 56.7648 41.4629 54.4681 41.4978C53.8749 41.5083 53.7622 41.271 53.676 40.702C52.5658 33.3863 48.7479 28.2729 42.2985 25.3305C42.0963 25.2398 41.8743 25.1944 41.6622 25.1316L41.6655 25.1351Z" fill="#FEFEFE"/>
<path d="M32.9863 53.2357C30.4378 52.2689 28.3665 50.6633 27.1569 48.0595C25.3408 44.1468 25.6158 40.3458 28.1809 36.9218C30.6996 33.564 34.0899 32.4401 38.0668 33.2534C38.4082 33.3232 38.7495 33.407 39.0909 33.4837C41.8184 34.6879 43.9593 36.5727 44.9933 39.5535C46.3189 43.3894 45.8118 47.0019 43.2335 50.0909C40.6618 53.1694 37.3676 54.199 33.5531 53.3439C33.3675 53.302 33.1786 53.2741 32.9897 53.2392L32.9863 53.2357Z" fill="#FEFEFE"/>
<path d="M108.08 15.8932V41.5531H103.904V21.4495H103.821L96.3699 41.5531H93.5942L85.9345 21.4495H85.8946V41.5531H82V15.8932H88.003L94.919 34.8953H95.0452L102.33 15.8932H108.08ZM111.557 17.8321C111.557 17.1283 111.806 16.5547 112.3 16.0691C112.798 15.5835 113.376 15.3196 114.04 15.3196C114.747 15.3196 115.325 15.5835 115.823 16.0691C116.281 16.5547 116.53 17.1705 116.53 17.8321C116.53 18.5359 116.281 19.1552 115.787 19.6408C115.328 20.0807 114.747 20.3446 114.044 20.3446C113.34 20.3446 112.762 20.0807 112.267 19.5951C111.809 19.1095 111.56 18.5359 111.56 17.8321H111.557ZM116.032 41.5531H111.968V23.1668H116.032V41.5531ZM128.37 38.379C128.988 38.379 129.652 38.2453 130.356 37.9392C131.1 37.6295 131.764 37.2319 132.381 36.7498V40.8071C131.72 41.2047 131.017 41.4686 130.19 41.6868C129.363 41.9085 128.45 41.9965 127.457 41.9965C124.931 41.9965 122.859 41.1132 121.285 39.4382C119.675 37.7175 118.884 35.5146 118.884 32.8684C118.884 29.9125 119.711 27.488 121.328 25.5491C122.938 23.6524 125.219 22.6812 128.201 22.6812C128.985 22.6812 129.732 22.8149 130.518 22.9908C131.302 23.2125 131.926 23.4764 132.378 23.7404V27.8856C131.76 27.4 131.096 27.0024 130.472 26.7385C129.811 26.4745 129.147 26.3408 128.447 26.3408C126.83 26.3408 125.548 26.9144 124.555 28.0158C123.599 29.1173 123.104 30.6163 123.104 32.4673C123.104 34.3182 123.563 35.8173 124.512 36.8307C125.468 37.8899 126.747 38.372 128.364 38.372L128.37 38.379ZM143.936 22.8606C144.268 22.8606 144.56 22.8606 144.809 22.9486C145.094 22.9943 145.307 23.0366 145.469 23.1245V27.488C145.26 27.3121 144.971 27.1783 144.56 27.0024C144.145 26.8687 143.65 26.7807 143.069 26.7807C142.076 26.7807 141.203 27.2206 140.542 28.146C139.842 29.0293 139.51 30.3946 139.51 32.2456V41.5496H135.452V23.1633H139.51V26.0734H139.593C139.925 25.0599 140.502 24.2647 141.249 23.6911C141.993 23.1175 142.906 22.8536 143.939 22.8536L143.936 22.8606ZM145.719 32.6045C145.719 29.5642 146.502 27.1819 148.119 25.4189C149.729 23.6102 151.967 22.7304 154.826 22.7304C157.519 22.7304 159.627 23.5679 161.161 25.2887C162.652 27.0094 163.435 29.3002 163.435 32.2104C163.435 35.1205 162.609 37.5908 160.995 39.3538C159.378 41.1168 157.187 42 154.411 42C151.635 42 149.646 41.1625 148.076 39.4875C146.505 37.8125 145.719 35.5182 145.719 32.608V32.6045ZM149.942 32.4708C149.942 34.4097 150.357 35.8665 151.14 36.88C151.967 37.8934 153.126 38.379 154.663 38.379C156.2 38.379 157.273 37.8934 158.056 36.88C158.8 35.8665 159.215 34.3675 159.215 32.3828C159.215 30.3981 158.8 28.8991 158.017 27.8856C157.19 26.8722 156.068 26.3866 154.617 26.3866C153.166 26.3866 151.967 26.9144 151.184 27.9736C150.357 29.0328 149.942 30.5319 149.942 32.4708ZM169.481 27.9736C169.481 28.5894 169.647 29.075 170.023 29.4269C170.391 29.7788 171.221 30.2222 172.463 30.7923C174.12 31.4538 175.239 32.2456 175.903 33.0866C176.563 33.9663 176.895 35.0255 176.895 36.2607C176.895 37.9814 176.271 39.3467 174.99 40.4059C173.748 41.4651 172.048 41.993 169.94 41.993C169.232 41.993 168.449 41.905 167.576 41.729C166.709 41.5074 165.965 41.2892 165.341 41.0253V36.7498C166.085 37.2776 166.875 37.721 167.742 38.0729C168.615 38.3826 169.359 38.5585 170.059 38.5585C170.969 38.5585 171.633 38.3826 172.091 38.1186C172.543 37.8547 172.752 37.4149 172.752 36.7533C172.752 36.1375 172.503 35.6519 172.045 35.2542C171.593 34.8144 170.763 34.371 169.478 33.7974C167.987 33.1359 166.912 32.3863 166.294 31.5488C165.67 30.7113 165.338 29.6521 165.338 28.3748C165.338 26.742 165.962 25.3766 167.204 24.3175C168.445 23.216 170.056 22.6847 172.005 22.6847C172.622 22.6847 173.286 22.7727 174.03 22.9064C174.82 23.0401 175.438 23.2583 175.936 23.48V27.5795C175.401 27.1819 174.777 26.8757 174.03 26.6083C173.33 26.2986 172.622 26.1684 171.922 26.1684C171.132 26.1684 170.554 26.3444 170.099 26.654C169.684 27.0059 169.475 27.4493 169.475 27.9771L169.481 27.9736ZM178.632 32.6045C178.632 29.5642 179.422 27.1819 181.032 25.4189C182.649 23.6102 184.884 22.7304 187.739 22.7304C190.595 22.7304 192.54 23.5679 194.074 25.2887C195.605 27.0094 196.349 29.3002 196.349 32.2104C196.349 35.1205 195.565 37.5908 193.948 39.3538C192.338 41.1168 190.14 42 187.367 42C184.595 42 182.566 41.1625 180.993 39.4875C179.419 37.8125 178.629 35.5182 178.629 32.608L178.632 32.6045ZM182.855 32.4708C182.855 34.4097 183.27 35.8665 184.097 36.88C184.887 37.8934 186.083 38.379 187.573 38.379C189.064 38.379 190.183 37.8934 190.967 36.88C191.71 35.8665 192.125 34.3675 192.125 32.3828C192.125 30.3981 191.71 28.8991 190.927 27.8856C190.1 26.8722 188.978 26.3866 187.533 26.3866C186.089 26.3866 184.924 26.9144 184.094 27.9736C183.267 29.0328 182.852 30.5319 182.852 32.4708H182.855ZM209.852 26.6962H203.763V41.5531H199.666V26.6962H196.764V23.1703H199.666V20.612C199.666 18.6731 200.247 17.0861 201.442 15.8509C202.601 14.6158 204.135 14 205.957 14C206.455 14 206.907 14.0457 207.282 14.088C207.651 14.1337 207.983 14.2217 208.275 14.3097V18.0573C208.149 17.9693 207.943 17.8814 207.568 17.7476C207.236 17.6597 206.867 17.5717 206.409 17.5717C205.582 17.5717 204.918 17.8814 204.467 18.4549C204.008 18.9828 203.759 19.8203 203.759 20.9675V23.1703H209.849V19.025L213.906 17.7019V23.1703H218.003V26.6962H213.906V35.293C213.906 36.4401 214.112 37.2319 214.487 37.6753C214.856 38.1609 215.48 38.379 216.31 38.379C216.559 38.379 216.844 38.3333 217.176 38.2031C217.508 38.1151 217.758 37.9392 218.003 37.8055V41.3772C217.754 41.5109 217.342 41.6411 216.722 41.7748C216.141 41.9085 215.563 41.9965 214.982 41.9965C213.242 41.9965 211.957 41.5109 211.13 40.5396C210.264 39.5684 209.849 38.1151 209.849 36.1305V26.6962H209.852Z" fill="#282828"/>
<path d="M95.0077 68.6124V66.2625C95.2741 66.499 95.5945 66.7123 95.9689 66.9023C96.3433 67.0923 96.7371 67.2513 97.1501 67.3831C97.5631 67.515 97.98 67.6158 98.3969 67.6856C98.8138 67.7554 99.1998 67.7942 99.555 67.7942C100.775 67.7942 101.686 67.5654 102.288 67.1117C102.89 66.658 103.191 66.0026 103.191 65.1495C103.191 64.6919 103.091 64.2925 102.89 63.9513C102.689 63.6101 102.411 63.2998 102.056 63.0206C101.701 62.7414 101.284 62.47 100.798 62.2141C100.312 61.9581 99.7904 61.6867 99.2346 61.3997C98.644 61.1011 98.092 60.7948 97.5824 60.4846C97.069 60.1743 96.6251 59.837 96.2468 59.4647C95.8685 59.0924 95.5713 58.6736 95.3551 58.2006C95.139 57.7313 95.0309 57.1768 95.0309 56.5447C95.0309 55.7692 95.2007 55.0945 95.5404 54.5206C95.8801 53.9466 96.324 53.4736 96.876 53.1013C97.428 52.729 98.0534 52.4537 98.7598 52.2714C99.4662 52.0892 100.184 52 100.914 52C102.581 52 103.801 52.2016 104.562 52.6049V54.8463C103.562 54.1522 102.276 53.8032 100.713 53.8032C100.281 53.8032 99.8483 53.8497 99.4121 53.9389C98.9798 54.0281 98.5938 54.1793 98.2541 54.3848C97.9144 54.5904 97.6403 54.854 97.428 55.1798C97.2157 55.5055 97.1076 55.901 97.1076 56.3664C97.1076 56.8007 97.1887 57.1768 97.3508 57.4948C97.5129 57.8128 97.7523 58.0997 98.0649 58.3595C98.3776 58.6194 98.7636 58.8753 99.2153 59.1196C99.6669 59.3639 100.188 59.6353 100.779 59.9262C101.385 60.2286 101.96 60.5427 102.504 60.8762C103.048 61.2097 103.523 61.5781 103.932 61.9814C104.342 62.3847 104.666 62.8306 104.905 63.3231C105.144 63.8156 105.264 64.374 105.264 65.0099C105.264 65.8475 105.102 66.5572 104.774 67.1388C104.446 67.7205 104.006 68.1936 103.45 68.5581C102.894 68.9226 102.253 69.1863 101.531 69.3453C100.809 69.5043 100.041 69.5896 99.2384 69.5896C98.9721 69.5896 98.6401 69.5663 98.2464 69.5237C97.8526 69.481 97.4512 69.4151 97.042 69.3336C96.6328 69.2522 96.2468 69.1475 95.8801 69.0234C95.5134 68.8993 95.22 68.7636 95 68.6163L95.0077 68.6124Z" fill="#282828"/>
<path d="M117.555 63.8355H109.017C109.047 65.1888 109.41 66.2319 110.101 66.9687C110.792 67.7055 111.746 68.0739 112.958 68.0739C114.32 68.0739 115.571 67.6241 116.714 66.7205V68.547C115.652 69.3225 114.247 69.7103 112.498 69.7103C110.75 69.7103 109.449 69.1597 108.472 68.0545C107.496 66.9493 107.009 65.3982 107.009 63.3973C107.009 61.5088 107.542 59.9655 108.611 58.775C109.677 57.5845 111.005 56.9912 112.587 56.9912C114.17 56.9912 115.393 57.507 116.262 58.5346C117.127 59.5622 117.563 60.9892 117.563 62.8195V63.8394L117.555 63.8355ZM115.571 62.1874C115.563 61.0629 115.293 60.1904 114.76 59.5661C114.228 58.9417 113.49 58.6276 112.545 58.6276C111.599 58.6276 110.858 58.9572 110.217 59.6126C109.58 60.2679 109.186 61.1288 109.036 62.1874H115.567H115.571Z" fill="#282828"/>
<path d="M131.06 69.4272H129.123V62.4976C129.123 59.9189 128.185 58.6315 126.312 58.6315C125.344 58.6315 124.545 58.996 123.908 59.7289C123.275 60.4618 122.958 61.3847 122.958 62.4976V69.4272H121.02V57.2782H122.958V59.2946H123.004C123.919 57.759 125.239 56.9912 126.973 56.9912C128.297 56.9912 129.308 57.4216 130.007 58.2786C130.705 59.1356 131.057 60.3765 131.057 61.9974V69.4233L131.06 69.4272Z" fill="#282828"/>
<path d="M140.09 69.6196C139.634 69.8717 139.032 69.9997 138.283 69.9997C136.164 69.9997 135.106 68.8131 135.106 66.4399V59.2505H133.03V57.5908H135.106V54.6243L137.044 53.9961V57.5908H140.09V59.2505H137.044V66.0947C137.044 66.9091 137.183 67.4907 137.457 67.8397C137.731 68.1887 138.191 68.3632 138.827 68.3632C139.318 68.3632 139.738 68.2275 140.09 67.96V69.6196Z" fill="#282828"/>
<path d="M143.287 54.5283C142.94 54.5283 142.647 54.4081 142.403 54.1715C142.16 53.935 142.037 53.6325 142.037 53.268C142.037 52.9035 142.16 52.6011 142.403 52.3606C142.647 52.1202 142.944 52 143.287 52C143.631 52 143.944 52.1202 144.191 52.3606C144.438 52.6011 144.561 52.9035 144.561 53.268C144.561 53.6325 144.438 53.9117 144.191 54.156C143.944 54.4003 143.642 54.5244 143.287 54.5244V54.5283ZM144.233 69.7641H142.295V57.615H144.233V69.7641Z" fill="#282828"/>
<path d="M159.082 69.4272H157.144V62.4976C157.144 59.9189 156.206 58.6315 154.334 58.6315C153.365 58.6315 152.562 58.996 151.929 59.7289C151.296 60.4618 150.98 61.3847 150.98 62.4976V69.4272H149.042V57.2782H150.98V59.2946H151.026C151.941 57.759 153.261 56.9912 154.994 56.9912C156.318 56.9912 157.33 57.4216 158.028 58.2786C158.727 59.1356 159.078 60.3765 159.078 61.9974V69.4233L159.082 69.4272Z" fill="#282828"/>
<path d="M171.593 63.8355H163.055C163.086 65.1888 163.448 66.2319 164.139 66.9687C164.83 67.7055 165.784 68.0739 167 68.0739C168.362 68.0739 169.613 67.6241 170.756 66.7205V68.547C169.694 69.3225 168.289 69.7103 166.54 69.7103C164.792 69.7103 163.491 69.1597 162.514 68.0545C161.538 66.9493 161.051 65.3982 161.051 63.3973C161.051 61.5088 161.584 59.9655 162.653 58.775C163.722 57.5845 165.043 56.9912 166.629 56.9912C168.216 56.9912 169.435 57.507 170.304 58.5346C171.169 59.5622 171.605 60.9892 171.605 62.8195V63.8394L171.593 63.8355ZM169.609 62.1874C169.601 61.0629 169.331 60.1904 168.799 59.5661C168.266 58.9417 167.529 58.6276 166.583 58.6276C165.637 58.6276 164.892 58.9572 164.255 59.6126C163.618 60.2679 163.225 61.1288 163.074 62.1874H169.605H169.609Z" fill="#282828"/>
<path d="M177 69.9851H175.062V52H177V69.9851Z" fill="#282828"/>
</svg>
