<svg viewBox="0 0 228 46" xmlns="http://www.w3.org/2000/svg" fill-rule="evenodd" clip-rule="evenodd" stroke-linejoin="round" stroke-miterlimit="2"><path d="M104.65 0v45.25h-2.88L67.37 5.7v39.55h-3.5V0h3l34.32 39.55V0h3.46zM139.29 29.25h-23.48a11.62 11.62 0 00-.1 1.56 11.366 11.366 0 003.56 8.45 11.688 11.688 0 008.38 3.47c3.78 0 7.473-1.48 11.08-4.44v3.63a18.313 18.313 0 01-11.47 4 14.005 14.005 0 01-10.61-4.55A15.917 15.917 0 01112.44 30a15.543 15.543 0 013.88-10.84 13.295 13.295 0 019.777-4.288c3.511 0 6.884 1.392 9.373 3.868 2.54 2.58 3.813 6.083 3.82 10.51zm-23.06-2.56h19.3c-1.12-5.807-4.26-8.71-9.42-8.71a9.46 9.46 0 00-6.34 2.28 11.204 11.204 0 00-3.54 6.43zM157.76 32.17l-11.72 13.08h-4.09L155.58 30l-13.63-14.55h4.09l11.72 12.37 11.67-12.37h4.1L159.85 30l13.68 15.25h-4.1l-11.67-13.08zM198.47 45.25v-4.92h-.13a13.865 13.865 0 01-4.26 4.24 12.112 12.112 0 01-13.49-1.84c-2.1-2.07-3.14-5-3.14-8.81V15.45h3.2v18.4a9.006 9.006 0 002.27 6.51 7.772 7.772 0 005.89 2.37 9.491 9.491 0 005.3-1.43 15.853 15.853 0 004.39-4.92V15.45h3.15v29.8h-3.18zM226.36 17.4v3.43c-3.027-2-5.75-3-8.17-3a7.096 7.096 0 00-4.54 1.41 4.412 4.412 0 00-1.85 3.59 4.14 4.14 0 001.13 2.79c.753.847 2.813 1.923 6.18 3.23 3.367 1.307 5.577 2.663 6.63 4.07a7.723 7.723 0 011.56 4.7 7.384 7.384 0 01-2.82 5.85 10.474 10.474 0 01-7 2.38 17.002 17.002 0 01-8.94-2.72v-3.12a21.001 21.001 0 009.36 2.72 6.862 6.862 0 004.52-1.46 4.604 4.604 0 001.77-3.72 4.26 4.26 0 00-1.15-2.87c-.773-.873-2.847-1.98-6.22-3.32-3.373-1.34-5.567-2.673-6.58-4a6.998 6.998 0 01-1.5-4.36 7.338 7.338 0 012.8-5.78 10.16 10.16 0 016.85-2.3c2.845.112 5.608.986 8 2.53l-.03-.05z" fill="#000301" fill-rule="nonzero"/><path fill="#2e5e8a" fill-rule="nonzero" d="M0 .06h18.89v4.12H0zM26.01.06h18.8v4.12h-18.8zM0 16.39h18.89v4.12H0z"/><path fill="#000301" fill-rule="nonzero" d="M0 24.7h18.89v4.11H0zM0 32.92h18.89v4.12H0zM.07 41.22h18.89v4.12H.07z"/><path fill="#2e5e8a" fill-rule="nonzero" d="M.14 8.42h44.6v4.11H.14zM25.78 16.39h19v4.12h-19z"/><path fill="#000301" fill-rule="nonzero" d="M25.78 24.7h19v4.11h-19zM25.78 32.92h19v4.12h-19zM25.85 41.22h18.89v4.12H25.85z"/></svg>