<?xml version="1.0" encoding="UTF-8"?>
<svg width="25px" height="23px" viewBox="0 0 25 23" version="1.1" xmlns="http://www.w3.org/2000/svg" xmlns:xlink="http://www.w3.org/1999/xlink">
    <title>Artboard</title>
    <g id="Artboard" stroke="none" stroke-width="1" fill="none" fill-rule="evenodd">
        <g id="OpenShift-LogoType" transform="translate(0.000744, 0.000000)" fill-rule="nonzero">
            <path d="M24.9755438,5.85181471 C24.6960518,5.27452322 24.3726221,4.7173696 23.9973216,4.1919489 L19.9880138,5.6510442 C20.4542408,6.12825557 20.8460179,6.66466067 21.1663964,7.23829069 L24.9755438,5.85181471 L24.9755438,5.85181471 Z M7.25263633,10.2862824 L3.2421081,11.7453775 C3.29336865,12.3885754 3.40443319,13.0238402 3.56004559,13.6462898 L7.36980332,12.2592035 C7.24592364,11.6147851 7.20198602,10.9508389 7.25263633,10.2862824" id="path44560" fill="#C22133"></path>
            <path d="M16.1530554,4.71602706 C16.98726,5.10536338 17.7097897,5.63627628 18.3194242,6.25872588 L22.3287319,4.79963059 C21.2180865,3.2410656 19.7052899,1.93880339 17.8519767,1.07408663 C12.1199481,-1.5987852 5.28154592,0.889792728 2.60928433,6.62121124 C1.74395733,8.47574492 1.42235837,10.4456148 1.57369906,12.3532398 L5.58361705,10.8941447 C5.65013372,10.0251562 5.86188864,9.15433703 6.25061452,8.31952227 C7.98737096,4.59580885 12.4293422,2.97988086 16.1530554,4.71602706" id="path44564" fill="#DB212E"></path>
            <path d="M20.4294648,12.0429328 C20.3653892,12.911311 20.1463113,13.7821302 19.7563649,14.6175552 C18.0202187,18.3418787 13.5776372,19.9578067 9.85453426,18.2216605 C9.01910925,17.8317141 8.29108731,17.3050729 7.68389383,16.6814029 L3.68251926,18.1374467 C4.79072366,19.6960117 6.30168956,20.9988842 8.15622323,21.8642112 C13.8882518,24.5364728 20.7254335,22.0478948 23.3983054,16.3158663 C24.2642426,14.4625531 24.5834006,12.4926832 24.4308394,10.5868889 L20.4294648,12.0429328 L20.4294648,12.0429328 Z" id="path44572" fill="#DB212E"></path>
            <path d="M21.4154397,7.14773038 L17.6056819,8.53420636 C18.3135658,9.80229487 18.6479799,11.2620002 18.5381359,12.730249 L22.5395104,11.2748154 C22.4247844,9.83890955 22.042161,8.43717745 21.4154397,7.14773038 M3.80975773,13.5548116 L0,14.9425081 C0.349670219,16.3314251 0.956863706,17.6513844 1.79167847,18.8261054 L5.79244279,17.3694513 C4.76540094,16.3149485 4.08253711,14.9803433 3.80975773,13.5548116" id="path44576" fill="#EB2126"></path>
            <path d="M24.394835,4.79554439 C24.2685143,4.59050217 24.1373117,4.38851117 23.9975657,4.19201237 L19.9882579,5.65110767 C20.1646186,5.8317401 20.3269437,6.02335694 20.4819459,6.21985574 L24.394835,4.79554439 Z M7.23731675,11.0914978 C7.22755283,10.8242107 7.23180014,10.555703 7.25254846,10.2865851 L3.24202022,11.7456802 C3.26276854,12.0025932 3.29511151,12.2576755 3.33355693,12.5121475 L7.23729234,11.0914978 L7.23731675,11.0914978 Z" id="path44584" fill="#AD213B"></path>
            <path d="M24.4305953,10.5868255 L20.4292207,12.0428693 C20.3870895,12.6189404 20.2748288,13.1962318 20.0911452,13.7637594 L24.4464617,12.1759027 C24.4776086,11.6437693 24.4726778,11.1128564 24.4305953,10.5868255 M3.68288541,18.1379935 C3.99105899,18.5718775 4.33218578,18.9856234 4.70260432,19.37618 L9.05853106,17.787713 C8.54958697,17.4691653 8.08946246,17.0975263 7.68364973,16.6813394 L3.68288541,18.1379935 Z" id="path44588" fill="#BA2133"></path>
        </g>
    </g>
</svg>