<svg height="128" viewBox="0 0 376 128" width="376" xmlns="http://www.w3.org/2000/svg"><g fill="none" fill-rule="evenodd"><g transform="translate(66.011781 25.008822)"><path d="m68.8988948 27.0111032c-7.2595441-4.5015664-17.3955113-7.297994-28.4902862-7.297994-22.3265225 0-40.40689644 11.1175048-40.40689644 24.8268204 0 12.5498214 15.06697834 22.8488595 34.58556384 24.6222038v-7.2297884c-13.1493629-1.6369332-23.011385-8.798516-23.011385-17.3924154 0-9.7533937 12.8754178-17.7334431 28.8327176-17.7334431 7.9444067 0 15.1354645 1.977961 20.3404207 5.1836218l-7.3965166 4.5697719h23.0798713v-14.1867545z" fill="#ccc"/><path d="m34.587276 7.43611015v54.49623485 7.2297884l11.5741788-7.2297884v-61.93063986z" fill="#ff6200"/></g><g fill="#ff6200" transform="translate(149.422017 52.721379)"><g fill-rule="nonzero"><path d="m1.19091557 12.9325532c.73146446-2.549632 1.9200942-4.73503089 3.47445617-6.64725492 1.64579503-1.91222403 3.56588923-3.46021492 5.94314876-4.55291436 2.3772594-1.18375774 5.1202512-1.73010746 8.2289751-1.73010746 3.200157 0 5.9431487.54634972 8.3204082 1.73010746 2.2858264 1.09269944 4.2973537 2.64069033 5.8517157 4.55291436 1.5543619 1.91222403 2.7429917 4.09762292 3.4744561 6.64725492.8228975 2.4585738 1.1886298 5.0992641 1.1886298 7.8310128 0 2.7317486-.3657323 5.3724389-1.1886298 7.9220709-.7314644 2.4585738-1.9200942 4.6439727-3.4744561 6.5561967-1.554362 1.9122241-3.5658893 3.4602149-5.8517157 4.5529144-2.3772595 1.1837577-5.1202512 1.7301074-8.3204082 1.7301074-3.1087239 0-5.8517157-.5463497-8.2289751-1.7301074-2.37725953-1.0926995-4.29735373-2.6406903-5.94314876-4.5529144-1.55436197-1.912224-2.74299171-4.0976229-3.47445617-6.5561967-.82289751-2.549632-1.18862974-5.1903223-1.18862974-7.9220709 0-2.7317487.36573223-5.372439 1.18862974-7.8310128zm3.47445617 14.2961511c.54859834 2.0943407 1.46292891 3.9155064 2.74299171 5.6456139 1.18862975 1.6390491 2.74299175 2.9138652 4.66308595 4.0065646 1.9200942 1.0016412 4.1144875 1.4569326 6.7660462 1.4569326s4.9373851-.4552914 6.8574793-1.4569326c1.9200942-1.0926994 3.3830231-2.3675155 4.6630859-4.0065646 1.1886297-1.7301075 2.1029603-3.5512732 2.6515587-5.6456139.5485983-2.0943406.9143305-4.2797395.9143305-6.4651383 0-2.1853989-.3657322-4.2797395-.9143305-6.3740802-.5485984-2.0943406-1.462929-4.0065646-2.6515587-5.64561377-1.2800628-1.63904917-2.7429917-3.00492348-4.6630859-4.00656464s-4.2059206-1.45693259-6.8574793-1.45693259-4.845952.45529143-6.7660462 1.45693259-3.4744562 2.36751547-4.66308595 4.00656464c-1.2800628 1.63904917-2.19439337 3.55127317-2.74299171 5.64561377-.54859834 2.0943407-.82289751 4.1886813-.82289751 6.3740802 0 2.1853988.27429917 4.3707977.82289751 6.4651383z"/><path d="m43.3415549 11.9309121v5.4634972h.0914331c.8228975-2.0032823 2.1943933-3.5512732 4.0230545-4.6439726 1.8286611-1.0926995 3.9316214-1.6390492 6.3088809-1.6390492 2.1943934 0 4.1144876.3642332 5.7602826 1.1837577 1.645795.8195246 3.0172909 1.9122241 4.1144876 3.3691567 1.0057636 1.3658743 1.8286611 3.0049234 2.3772595 4.8260892.5485983 1.8211657.8228975 3.8244481.8228975 5.8277304 0 2.0943406-.2742992 4.0065646-.8228975 5.8277304-.5485984 1.8211657-1.3714959 3.4602149-2.3772595 4.8260892-1.0971967 1.4569326-2.4686926 2.549632-4.1144876 3.3691566-1.645795.7284663-3.5658892 1.1837577-5.7602826 1.1837577-1.0971967 0-2.1029603-.1821165-3.200157-.3642331-1.0057636-.2731749-2.0115272-.7284663-2.8344248-1.1837577-.9143305-.5463498-1.737228-1.1837578-2.4686925-2.0032824-.6400314-.7284663-1.1886297-1.6390491-1.554362-2.7317486h-.091433v16.0262586h-3.5658893v-39.3371801zm19.3838081 10.0164116c-.3657322-1.5479909-.9143306-2.8228069-1.645795-4.0065647-.8228975-1.0926994-1.8286612-2.0943406-3.0172909-2.8228069s-2.5601256-1.0016411-4.2973537-1.0016411c-1.9200942 0-3.5658892.2731748-4.845952 1.0016411-1.3714959.6374081-2.3772595 1.5479909-3.200157 2.6406904-.7314645 1.0926994-1.2800628 2.4585737-1.645795 3.9155063-.2742992 1.4569326-.4571653 3.0049235-.4571653 4.6439727 0 1.5479909.1828661 3.0049235.5485983 4.4618561.3657322 1.4569325.9143306 2.8228069 1.7372281 3.9155063.8228975 1.1837577 1.8286611 2.0943406 3.1087239 2.8228069s2.9258579 1.0926995 4.754519 1.0926995c1.7372281 0 3.108724-.3642332 4.2973537-1.0926995s2.1943934-1.6390492 3.0172909-2.8228069c.7314644-1.0926994 1.2800628-2.4585738 1.645795-3.9155063.3657322-1.4569326.5485984-2.9138652.5485984-4.4618561 0-1.4569326-.1828662-2.9138652-.5485984-4.3707978z"/><path d="m72.7829993 31.235269c.3657322 1.3658743.9143306 2.549632 1.7372281 3.6423315.7314644 1.0926994 1.7372281 2.0032823 2.9258578 2.6406903 1.1886298.7284663 2.6515587 1.0926995 4.2973537 1.0926995 2.5601256 0 4.5716529-.6374081 6.0345818-2.0032824s2.4686925-3.0959817 3.0172909-5.3724389h3.5658892c-.7314645 3.2780983-2.1029603 5.8277304-4.1144876 7.5578378-2.0115272 1.8211658-4.845952 2.7317486-8.5032743 2.7317486-2.2858264 0-4.2059206-.4552914-5.8517157-1.1837577-1.737228-.8195246-3.0172908-1.912224-4.1144875-3.3691566-1.0057637-1.3658743-1.8286612-3.0049235-2.2858265-4.8260892-.5485983-1.8211658-.7314644-3.7333898-.7314644-5.8277304 0-1.9122241.1828661-3.7333898.7314644-5.5545555.4571653-1.8211658 1.2800628-3.460215 2.2858265-4.9171476 1.0971967-1.4569326 2.3772595-2.549632 4.1144875-3.4602149 1.6457951-.8195246 3.5658893-1.274816 5.8517157-1.274816s4.2973537.4552914 5.9431487 1.3658743 3.0172909 2.1853989 4.0230545 3.6423315c1.0057637 1.5479909 1.7372281 3.2780983 2.1943934 5.1903224.4571653 1.912224.6400314 3.9155063.5485983 5.9187886h-22.2182328c0 1.2748161.1828661 2.6406904.5485983 4.0065647zm17.4637139-10.7448779c-.4571653-1.274816-1.0971967-2.3675155-1.8286611-3.2780984-.8228975-.9105828-1.7372281-1.7301074-2.8344248-2.2764571-1.1886297-.5463498-2.3772595-.8195246-3.8401884-.8195246s-2.7429917.2731748-3.8401884.8195246c-1.0971967.5463497-2.1029603 1.3658743-2.8344248 2.2764571-.8228975.9105829-1.4629289 2.0032824-1.9200942 3.2780984-.4571653 1.1837577-.7314644 2.4585737-.9143305 3.8244481h18.6523436c0-1.3658744-.2742992-2.6406904-.6400314-3.8244481z"/></g><path d="m99.7557512 11.9309121v4.9171475h.091433c.7314648-1.7301075 1.9200938-3.0959818 3.6573218-4.1886812 1.645796-1.0016412 3.56589-1.5479909 5.66885-1.5479909 2.011527 0 3.657322.2731749 5.028818.7284663 1.371496.5463497 2.468693 1.274816 3.29159 2.2764572.822898.9105829 1.371496 2.0943406 1.737228 3.4602149.365733 1.3658743.457166 2.9138652.457166 4.6439726v18.4848324h-3.474457v-17.9384826c0-1.274816-.091433-2.3675155-.365732-3.4602149-.182866-1.0016412-.640031-1.9122241-1.18863-2.7317487-.548598-.8195245-1.280062-1.3658743-2.285826-1.8211657-.914331-.4552914-2.10296-.637408-3.474456-.637408-1.462929 0-2.742992.1821166-3.840189.7284663-1.097196.4552914-2.011527 1.1837577-2.742991 2.0032823-.822898.9105829-1.371496 1.912224-1.828661 3.1870401-.457166 1.1837577-.6400318 2.4585737-.7314648 3.9155063v16.7547249h-3.4744562v-28.7744188z"/><path d="m126.454204.91285933v39.79247157h-3.748756v-39.79247157z"/><path d="m143.186453.91285933c6.126015.09105829 10.697668 1.82116574 13.806392 5.09926409 3.017291 3.27809834 4.571653 8.19524588 4.571653 14.75144258 0 6.6472549-1.554362 11.5644024-4.571653 14.8425008-3.108724 3.2780983-7.680377 4.9171475-13.806392 5.0992641h-13.806391v-39.79247157zm-1.828661 36.51437317c2.834425 0 5.303117-.2731748 7.406078-.9105829 2.011527-.637408 3.748755-1.5479908 5.120251-2.9138651 1.280063-1.3658744 2.285826-3.0959818 2.925858-5.1903224.640031-2.0943406.91433-4.6439727.91433-7.6488961 0-2.9138652-.274299-5.4634973-.91433-7.5578379-.640032-2.1853989-1.645795-3.91550634-2.925858-5.19032236-1.371496-1.36587431-3.108724-2.36751547-5.120251-2.9138652-2.102961-.63740801-4.571653-1.00164116-7.406078-1.00164116h-8.137542v33.32733312z" fill-rule="nonzero"/></g></g></svg>