<svg viewBox="0 0 251 49" xmlns="http://www.w3.org/2000/svg" fill-rule="evenodd" clip-rule="evenodd" stroke-linejoin="round" stroke-miterlimit="2"><path d="M53.75 14.57a8.064 8.064 0 00-4.866-4.082 9.11 9.11 0 00-2.757-.433H31.395v5.839h14.718a2.544 2.544 0 011.879.716c.513.5.784 1.203.743 1.919v2.568H37.423a8.323 8.323 0 00-3.946.851 8.02 8.02 0 00-2.636 2.122 8.333 8.333 0 00-1.46 2.757 9.581 9.581 0 00-.445 2.77 8.397 8.397 0 00.851 3.934 8.02 8.02 0 002.122 2.635 8.387 8.387 0 002.743 1.46 9.565 9.565 0 002.758.446h8.676a8.323 8.323 0 003.947-.852 8.02 8.02 0 002.635-2.122 8.387 8.387 0 001.46-2.743 9.226 9.226 0 00.46-2.77v-11.07a7.971 7.971 0 00-.839-3.946zm-4.988 14.96a2.71 2.71 0 01-.69 1.892c-.5.527-1.215.798-1.945.757h-8.623a2.805 2.805 0 01-1.878-.662 2.364 2.364 0 01-.798-1.879 2.682 2.682 0 01.69-1.905 2.511 2.511 0 011.946-.784h11.312v2.581h-.014zM104.011 27.07a8.542 8.542 0 003.96-.85c1.974-1.001 3.46-2.771 4.109-4.893a9.143 9.143 0 00.446-2.77 8.542 8.542 0 00-.852-3.96 8.06 8.06 0 00-2.135-2.636 8.299 8.299 0 00-2.77-1.473 9.11 9.11 0 00-2.758-.433h-8.73a8.542 8.542 0 00-3.96.852 8.06 8.06 0 00-2.636 2.135 8.333 8.333 0 00-1.46 2.757 9.656 9.656 0 00-.445 2.77v11.11a8.389 8.389 0 00.865 3.96 8.076 8.076 0 004.892 4.108 9.594 9.594 0 002.77.46h16.367V32.3H95.348a2.776 2.776 0 01-1.919-.69 2.461 2.461 0 01-.77-1.919v-2.608l11.352-.013zm-11.366-8.46a2.776 2.776 0 01.69-1.919c.5-.54 1.216-.81 1.946-.77h8.73c.69-.014 1.352.23 1.866.689.527.486.81 1.19.77 1.906a2.776 2.776 0 01-.69 1.919 2.5 2.5 0 01-1.946.77h-11.38l.014-2.595zM154.922 38.112h-9.365c-3.325 0-5.271-1.351-6.312-2.486-2.081-2.257-2.095-5.19-2.054-5.96V18.433c0-3.243 1.324-5.162 2.432-6.19 2.271-2.135 5.244-2.162 5.974-2.135h11.664V0h5.946v29.8c0 3.055-1.257 4.92-2.31 5.947-2.285 2.23-5.353 2.365-5.975 2.365zm-11.798-8.15c0 .312.067 1.163.513 1.65.446.486 1.284.554 1.92.554h9.365c2.339-.027 2.339-1.784 2.339-2.365V16.029h-11.934c-.325 0-1.19.094-1.649.554-.351.324-.54.96-.54 1.851l-.014 11.529zM5.947 48.181H0V18.299c0-3.054 1.257-4.92 2.311-5.96 2.325-2.297 5.487-2.351 6.028-2.351h9.352c3.325 0 5.285 1.351 6.312 2.486 2.081 2.27 2.094 5.19 2.054 5.974v11.244c0 3.244-1.325 5.163-2.433 6.204-2.27 2.135-5.257 2.162-5.973 2.149H5.947V48.18zm11.933-16.07c.311 0 1.203-.094 1.69-.553.351-.325.54-.974.54-1.852V18.151c0-.311-.067-1.176-.513-1.65-.446-.472-1.284-.553-1.933-.553h-9.38c-2.35.027-2.35 1.797-2.35 2.378v13.8H17.88v-.014zM120.878 38.112h-5.946V18.34c0-3.041 1.256-4.906 2.31-5.947 2.339-2.31 5.528-2.378 6.042-2.378h11.555v5.946h-11.596c-2.365.04-2.365 1.798-2.365 2.379v19.772zM174.627 38.112c-.446 0-3.676-.094-6.027-2.419-1.041-1.027-2.284-2.892-2.284-5.92V10.016h5.946v19.772c0 1.297.446 1.73.933 1.987.46.23.96.378 1.473.405h11.623V10.015h5.946v28.097h-17.61zM74.954 47.91H60.831v-5.946h14.11c1.486 0 2.013-.581 2.31-1.149a4.41 4.41 0 00.487-1.703v-1.135h-11.23c-.744.027-3.893 0-6.299-2.243-1.162-1.095-2.554-3.109-2.554-6.542V18.84c-.027-.716.014-3.906 2.311-6.325 1.095-1.149 3.109-2.54 6.5-2.54H74.9c3.528 0 8.771 2.337 8.771 8.77v20.408c0 3.54-2.365 8.758-8.717 8.758zM63.63 18.625v10.555c0 1.04.23 1.784.662 2.203.703.662 1.987.662 1.987.662h11.46V18.745c0-1.581-.635-2.108-1.257-2.419a4.578 4.578 0 00-1.567-.419H66.48c-1.013 0-1.73.216-2.162.662-.581.622-.69 1.676-.69 2.055zM241.864 47.992h-14.096v-5.947h14.096c1.474 0 2-.581 2.312-1.135.27-.527.432-1.108.473-1.69v-1.094h-11.245c-3.42 0-5.446-1.392-6.541-2.555-2.257-2.405-2.298-5.581-2.27-6.325V10.042h5.946V29.49c0 .392.108 1.432.676 2.027.432.432 1.162.662 2.19.662h11.244V10.001h5.946v29.26c-.027 3.527-2.365 8.73-8.73 8.73zM211.334 38.14h-5.947V15.974h-10.109v-5.947h10.11V2.392h5.946v7.636h10.15v5.947h-10.15v22.164z" fill="#25c151" fill-rule="nonzero"/></svg>