<?xml version="1.0" encoding="UTF-8"?>
<svg width="302px" height="64px" viewBox="0 0 302 64" version="1.1" xmlns="http://www.w3.org/2000/svg" xmlns:xlink="http://www.w3.org/1999/xlink">
    <title>Artboard</title>
    <g id="Artboard" stroke="none" stroke-width="1" fill="none" fill-rule="evenodd">
        <g id="paladin-cloud" fill-rule="nonzero">
            <g id="Group" transform="translate(91.5882, 6.9519)" fill="#06262D">
                <path d="M8.02120784,20.2458313 L8.02120784,29.5759886 L5.68586673e-14,29.5759886 L5.68586673e-14,0 L13.1755201,0 C20.7087457,0 24.6431024,4.14673654 24.6431024,10.2143878 C24.6431024,16.2820391 20.6782468,20.2458313 13.2670168,20.2458313 L7.99070895,20.2458313 L8.02120784,20.2458313 Z M8.02120784,7.19580753 L8.02120784,13.2024774 L13.0840234,13.2024774 C15.0664512,13.2024774 16.5303979,12.1353025 16.5303979,10.2143878 C16.5303979,8.29347308 15.0664512,7.19580753 13.0840234,7.19580753 L8.02120784,7.19580753 L8.02120784,7.19580753 Z" id="Shape"></path>
                <path d="M58.039386,29.5759886 L49.5301959,29.5759886 L47.578267,23.9352072 L36.5376692,23.9352072 L34.5857403,29.5759886 L26.1985457,29.5759886 L37.3916381,0 L46.8462937,0 L58.039386,29.5759886 L58.039386,29.5759886 Z M39.0080792,16.7698904 L45.0773581,16.7698904 L42.0579681,8.01905669 L39.0080792,16.7698904 Z" id="Shape"></path>
                <polygon id="Path" points="86.7693395 29.5759886 64.5051505 29.5759886 64.5051505 0 72.5263583 0 72.5263583 22.1667461 86.7693395 22.1667461 86.7693395 29.5454979"></polygon>
                <path d="M123.611998,29.5759886 L115.102808,29.5759886 L113.150879,23.9352072 L102.110281,23.9352072 L100.158352,29.5759886 L91.7711573,29.5759886 L102.96425,0 L112.418905,0 L123.611998,29.5759886 Z M104.580691,16.7698904 L110.64997,16.7698904 L107.63058,8.01905669 L104.580691,16.7698904 Z" id="Shape"></path>
                <path d="M158.472228,14.7879943 C158.472228,23.6912816 152.37245,29.5759886 143.131287,29.5759886 L130.077762,29.5759886 L130.077762,0 L143.131287,0 C152.37245,0 158.472228,5.884707 158.472228,14.7879943 Z M138.09897,7.37875179 L138.09897,22.1972368 L142.917794,22.1972368 C147.767118,22.1972368 150.115532,19.0566937 150.115532,14.7879943 C150.115532,10.5192949 147.767118,7.37875179 142.917794,7.37875179 L138.09897,7.37875179 Z" id="Shape"></path>
                <polygon id="Path" points="173.904666 29.5759886 165.883458 29.5759886 165.883458 0 173.904666 0"></polygon>
                <polygon id="Path" points="210.411836 29.5759886 202.60412 29.5759886 190.404565 12.9585517 190.404565 29.5759886 182.383357 29.5759886 182.383357 0 190.191073 0 202.390628 16.6174369 202.390628 0 210.411836 0"></polygon>
            </g>
            <g id="Group" transform="translate(89.7277, 46.8337)" fill="#06262D">
                <path d="M13.4195112,3.14054312 L11.010099,4.60409719 C10.2171279,3.38446879 8.93617451,2.65269176 7.38073117,2.65269176 C4.81882448,2.65269176 2.92789335,4.51262506 2.92789335,7.25678895 C2.92789335,10.092425 4.87982226,11.8608861 7.38073117,11.8608861 C8.93617451,11.8608861 10.2171279,11.1595998 11.0405979,9.93997141 L13.3280145,11.5864697 C12.0775601,13.4159123 9.97313674,14.5745593 7.38073117,14.5745593 C3.04988891,14.5745593 0,11.4949976 0,7.28727966 C0,3.0795617 3.04988891,0 7.38073117,0 C9.97313674,0 12.2605534,1.18913768 13.4195112,3.17103383 L13.4195112,3.14054312 Z" id="Path"></path>
                <polygon id="Path" points="33.9452636 14.3306336 23.6976368 14.3306336 23.6976368 0.274416389 26.5035346 0.274416389 26.5035346 11.7084326 33.9452636 11.7084326"></polygon>
                <path d="M57.2769138,7.28727966 C57.2769138,11.4949976 54.2270248,14.5745593 49.8656837,14.5745593 C45.5043426,14.5745593 42.4849525,11.4645069 42.4849525,7.28727966 C42.4849525,3.11005241 45.5348414,0 49.8656837,0 C54.196526,0 57.2769138,3.11005241 57.2769138,7.28727966 Z M45.4128459,7.28727966 C45.4128459,10.0314435 47.303777,11.8913768 49.8656837,11.8913768 C52.4275904,11.8913768 54.3185215,10.0314435 54.3185215,7.28727966 C54.3185215,4.54311577 52.4580893,2.68318247 49.8656837,2.68318247 C47.2732781,2.68318247 45.4128459,4.54311577 45.4128459,7.28727966 Z" id="Shape"></path>
                <path d="M79.6325995,8.72034302 C79.6325995,12.6231539 77.1621895,14.5745593 73.5633205,14.5745593 C69.9644516,14.5745593 67.4940416,12.5926632 67.4940416,8.72034302 L67.4940416,0.274416389 L70.2999394,0.274416389 L70.2999394,8.59838018 C70.2999394,10.9156741 71.6113916,11.9218676 73.5328217,11.9218676 C75.4542517,11.9218676 76.7657039,10.9156741 76.7657039,8.59838018 L76.7657039,0.274416389 L79.5716017,0.274416389 L79.5716017,8.72034302 L79.6325995,8.72034302 Z" id="Path"></path>
                <path d="M96.3154918,0.243925679 C100.707332,0.243925679 103.635225,3.04907099 103.635225,7.28727966 C103.635225,11.5254883 100.737831,14.3306336 96.3154918,14.3306336 L90.5207029,14.3306336 L90.5207029,0.274416389 L96.3154918,0.274416389 L96.3154918,0.243925679 Z M93.3266007,2.86612673 L93.3266007,11.6779419 L96.2849929,11.6779419 C99.2433852,11.6779419 100.676833,9.81800858 100.676833,7.25678895 C100.676833,4.69556932 99.2433852,2.83563602 96.2849929,2.83563602 L93.3266007,2.83563602 L93.3266007,2.86612673 Z" id="Shape"></path>
            </g>
            <polygon id="Path" fill="#0047BA" points="39.0995758 0.182944259 49.1337104 0 61.9432438 11.0071463 69.3544738 8.17151024 69.3544738 41.2234397 39.0995758 64 42.7289436 41.0404955 57.1244193 27.4416389 55.9349626 23.3558838 39.0995758 27.8075274"></polygon>
            <polygon id="Path" fill="#0047BA" points="30.254898 0.182944259 20.2207635 0 7.41123005 11.0071463 0 8.17151024 0 41.2234397 30.254898 64 26.5950313 41.0404955 12.2300545 27.4416389 13.4195112 23.3558838 30.254898 27.8075274"></polygon>
        </g>
    </g>
</svg>