<svg height="170" viewBox="0 0 185 170" width="185" xmlns="http://www.w3.org/2000/svg"><g fill="none" fill-rule="evenodd" transform="translate(23 44)"><path d="m138.599038 56.973913-107.324038 33.2347827-31.275-84.01014498 112.670192-6.19855072z" fill="#02797e"/><g fill="#fff"><path d="m57.4711538 40.0927536c0 2.110145-.5346153 3.9565218-1.4701923 5.6710145-.9355769 1.5826087-2.2721153 3.0333333-4.0096153 4.0884058s-3.8759616 1.8463768-6.2817308 2.3739131c-2.4057692.5275362-5.0788462.7913043-8.1528846.7913043h-2.1384616v10.8144928h-13.9v-36.0043479h16.3057693c6.1480769 0 10.9596153 1.0550725 14.4346153 3.0333334 3.475 1.9782608 5.2125 5.1434782 5.2125 9.231884zm-13.3653846.1318841c0-3.1652174-2.4057692-4.7478261-7.0836538-4.7478261h-1.7375v9.6275362h1.6038461c2.2721154 0 4.1432693-.3956521 5.3461539-1.1869565 1.2028846-.6594203 1.8711538-1.9782609 1.8711538-3.6927536z" fill-rule="nonzero"/><path d="m91.9538462 63.8318841c-2.1384616.3956521-4.5442308.6594202-7.3509616.6594202-3.8759615 0-7.3509615-.3956521-10.2913461-1.3188405-3.0740385-.9231884-5.6134616-2.110145-7.7519231-3.6927537-2.1384616-1.5826087-3.7423077-3.5608695-4.8115385-5.8028985-1.0692307-2.373913-1.6038461-4.8797102-1.6038461-7.6492754s.5346154-5.2753623 1.7375-7.6492753c1.2028846-2.242029 2.8067307-4.2202899 4.9451923-5.9347826 2.1384615-1.5826087 4.6778846-2.9014493 7.6182692-3.8246377s6.1480769-1.3188406 9.6230769-1.3188406c2.673077 0 5.2125.1318841 7.4846154.5275362 2.2721154.5275363 2.2721154.5275363 4.0096154 1.1869566v9.6275362c-1.3365385-.7913044-2.9403846-1.4507247-4.6778846-1.8463768-1.7375-.5275363-3.6086539-.7913044-5.4798077-.7913044-3.2076923 0-5.7471154.9231884-7.7519231 2.5057971-2.0048077 1.7144928-2.9403846 4.0884058-2.9403846 7.3855073 0 1.5826087.2673077 3.0333333.9355769 4.3521739.6682693 1.1869565 1.4701923 2.242029 2.5394231 3.0333333 1.0692308.7913044 2.2721154 1.4507247 3.7423077 1.8463768 1.4701923.3956522 2.9403846.6594203 4.5442308.6594203 1.6038461 0 3.3413461-.131884 4.9451923-.5275362 1.6038461-.3956522 3.3413461-.7913044 5.0788461-1.5826087v9.1c-2.1384615.5275362-2.4057692.6594203-4.5442307 1.0550725"/><path d="m102.245192 27.827536h14.033654v36.136232h-14.033654z"/><path d="m117.749038 16.4855072c0 2.3739131-.801923 4.352174-2.405769 5.6710145-1.603846 1.3188406-3.608654 2.110145-6.014423 2.110145s-4.410577-.6594203-6.014423-2.110145c-1.603846-1.3188405-2.405769-3.2971014-2.405769-5.6710145 0-2.5057971.801923-4.3521739 2.405769-5.8028985 1.603846-1.45072464 3.608654-2.11014493 6.014423-2.11014493s4.410577.65942029 6.014423 2.11014493c1.603846 1.3188406 2.405769 3.2971014 2.405769 5.8028985"/></g></g></svg>