<svg viewBox="0 0 612 240" xmlns="http://www.w3.org/2000/svg" fill-rule="evenodd" clip-rule="evenodd" stroke-linejoin="round" stroke-miterlimit="2"><path d="M287.7 208.39l7.49 9.15L285 220l-5-6a38.628 38.628 0 01-18.62 4.68c-21.22 0-37.86-16.53-37.86-37.54 0-21.01 16.64-37.55 37.86-37.55s38 16.54 38 37.55a37.265 37.265 0 01-11.68 27.25zm-6.76-8.22a27.54 27.54 0 007.28-19c0-15.6-11.65-27.46-26.83-27.46-15.18 0-26.73 11.86-26.73 27.46 0 15.6 11.65 27.45 26.73 27.45a26.6 26.6 0 0012-2.7l-9.46-11.54 10.19-2.5 6.82 8.29zM319.94 196c0 8.32 5.1 13.52 13.1 13.52a14.866 14.866 0 0013-7v-38h10.4v52.94H346v-5.31a21.64 21.64 0 01-15.91 6.35c-12.17 0-20.59-8.53-20.59-20.8v-33.1h10.4l.04 31.4zM366 202.35c0-10 8.11-16.12 21.42-16.12a37.232 37.232 0 0114.46 2.92v-5.62c0-7.49-4.47-11.23-12.9-11.23-4.88 0-9.88 1.35-16.43 4.47l-3.85-7.8c7.91-3.75 14.77-5.41 21.74-5.41 13.73 0 21.63 6.76 21.63 18.93v35h-10.18V213a25.075 25.075 0 01-16.43 5.51c-11.55-.04-19.46-6.59-19.46-16.16zm21.84 8.43a20.34 20.34 0 0014-5v-9.16a27.549 27.549 0 00-13.62-3.22c-7.6 0-12.28 3.43-12.28 8.74.06 5.1 4.84 8.64 11.91 8.64h-.01zM438.29 217.75l-21.11-53.15h11.44l15.49 40.46 17.06-40.46h11.23l-25.58 59.28c-4.89 11.34-10.51 15.81-20.28 15.81a20.304 20.304 0 01-5.51-.62v-9.15a20.65 20.65 0 004.68.41c4.78 0 8.21-2.49 10.5-7.8l2.08-4.78zM483.32 211.71c.028 3.622-2.928 6.627-6.55 6.66-3.645-.022-6.638-3.015-6.66-6.66.038-3.62 3.04-6.572 6.66-6.55h.03c3.577 0 6.52 2.943 6.52 6.52v.03zM493 149.62v-.05c0-3.491 2.86-6.368 6.35-6.39 3.44.136 6.196 3.002 6.196 6.445 0 3.443-2.756 6.309-6.196 6.445-3.49-.022-6.35-2.899-6.35-6.39v-.06zm11.55 67.92h-10.4V164.6h10.4v52.94zM542 163.56c15.065.038 27.44 12.445 27.44 27.51 0 15.091-12.419 27.51-27.51 27.51-15.092 0-27.51-12.419-27.51-27.51V191l-.001-.283c0-14.9 12.26-27.16 27.16-27.16.14 0 .281.001.421.003zM559.24 191c0-10.3-7.7-18.31-17.26-18.31-9.56 0-17.37 8-17.37 18.31 0 10.31 7.59 18.41 17.37 18.41 9.56.02 17.26-8.1 17.26-18.41z" fill-rule="nonzero"/><path d="M127 83c12.51 0 30.61-2.58 30.61-17.46a14.036 14.036 0 00-.31-3.42l-7.45-32.36c-1.72-7.12-3.23-10.35-15.73-16.6C124.39 8.19 103.26 0 97 0c-5.82 0-7.55 7.54-14.45 7.54-6.68 0-11.64-5.6-17.89-5.6-6 0-9.91 4.09-12.93 12.5 0 0-8.41 23.72-9.49 27.16a6.455 6.455 0 00-.24 1.94C42 52.76 78.33 83 127 83m32.55-11.42c1.73 8.19 1.73 9.05 1.73 10.13 0 14-15.74 21.77-36.43 21.77C78 103.47 37.08 76.1 37.08 58a18.439 18.439 0 011.51-7.33C21.77 51.52 0 54.54 0 73.72 0 105.2 74.59 144 133.65 144c45.28 0 56.7-20.48 56.7-36.65 0-12.72-11-27.16-30.83-35.78" fill="#e00" fill-rule="nonzero"/><path d="M159.52 71.57c1.73 8.19 1.73 9.05 1.73 10.13 0 14-15.74 21.77-36.43 21.77C78 103.47 37.08 76.1 37.08 58a18.439 18.439 0 011.51-7.33l3.66-9.06a6.426 6.426 0 00-.25 1.93C42 52.76 78.33 83 127 83c12.51 0 30.61-2.58 30.61-17.46a14.036 14.036 0 00-.31-3.42l2.22 9.45zM579.24 92.3c0 11.89 7.15 17.67 20.19 17.67 4.015-.1 8.005-.664 11.89-1.68V94.51a24.851 24.851 0 01-7.68 1.16c-5.37 0-7.36-1.68-7.36-6.73V67.8h15.56V53.6h-15.56v-18l-17 3.68V53.6H568v14.2h11.25l-.01 24.5zm-53 .32c0-3.68 3.69-5.47 9.26-5.47 3.405.02 6.795.443 10.1 1.26v7.15a21.507 21.507 0 01-10.6 2.63c-5.46 0-8.73-2.1-8.73-5.57m5.2 17.56c6 0 10.84-1.26 15.36-4.31v3.37h16.82V73.58c0-13.56-9.14-21-24.39-21-8.52 0-16.94 2-26 6.1l6.1 12.52c6.52-2.74 12-4.42 16.83-4.42 7 0 10.62 2.73 10.62 8.31v2.73a49.515 49.515 0 00-12.62-1.58c-14.31 0-22.93 6-22.93 16.73 0 9.78 7.78 17.24 20.19 17.24m-92.44-.94h18.09V80.42h30.29v28.82h18.09V35.62h-18.05v28.29h-30.29V35.62h-18.09l-.04 73.65zm-68.89-27.9c0-8 6.31-14.1 14.62-14.1a17.225 17.225 0 0111.78 4.32V91a16.363 16.363 0 01-11.78 4.42c-8.2 0-14.62-6.1-14.62-14.09m26.61 27.87h16.83V31.94l-17 3.68v20.93a28.301 28.301 0 00-14.2-3.68c-16.19 0-28.92 12.51-28.92 28.5a24.07 24.07 0 00-.003.38c0 15.498 12.753 28.25 28.25 28.25h.113a25.125 25.125 0 0014.93-4.83v4.03zm-77.19-42.7c5.36 0 9.88 3.47 11.67 8.83H308c1.68-5.57 5.89-8.83 11.57-8.83m-28.74 14.97c0 16.2 13.25 28.82 30.28 28.82 9.36 0 16.2-2.53 23.25-8.42l-11.26-10c-2.63 2.74-6.52 4.21-11.14 4.21a14.416 14.416 0 01-13.68-8.83h39.65v-4.2c0-17.67-11.88-30.39-28.08-30.39a30.963 30.963 0 00-.431-.003c-15.673 0-28.57 12.897-28.57 28.57l.001.243m-29.36-30.39c6 0 9.36 3.78 9.36 8.31 0 4.53-3.37 8.31-9.36 8.31h-17.88V51.08h17.88zm-36 58.16h18.09V82.42h13.77l13.89 26.82h20.19l-16.2-29.45c8.405-3.418 13.917-11.646 13.88-20.72 0-13.25-10.41-23.45-26-23.45h-37.59l-.03 73.62z" fill-rule="nonzero"/></svg>