<svg width="444" height="178" viewBox="0 0 444 178" fill="none" xmlns="http://www.w3.org/2000/svg">
<g clip-path="url(#clip0_276_1872)">
<path d="M23 106.75V93.4375C23 93.4375 23 90.8859 25.0113 93.4375C29.1447 98.6932 41.8364 106.75 80.7022 106.75C82.2557 106.75 83.7815 106.736 85.2518 106.708C86.0147 106.695 86.5556 107.429 86.3198 108.151C86.2089 108.483 86.1118 108.816 86.0147 109.149C84.697 113.753 84.2115 118.496 84.5721 123.266C84.6276 123.904 84.1283 124.458 83.4763 124.472C82.547 124.486 81.6177 124.486 80.6744 124.486C48.8273 124.5 23 116.554 23 106.75ZM106.516 156.089C107.487 156.575 107.251 158.017 106.183 158.183C98.4983 159.348 89.843 160 80.7022 160C48.8273 159.986 23 152.054 23 142.25V124.5C23 124.5 23 121.948 25.0113 124.5C29.1447 129.77 41.8364 137.84 80.7022 137.812C83.1573 137.812 85.5015 137.771 87.7485 137.715C88.1785 137.702 88.5808 137.937 88.7749 138.326C92.6449 146.008 98.9006 152.234 106.516 156.089ZM23 44.625V35.75C23 25.9459 48.8273 18 80.7022 18C112.577 18 138.404 25.9459 138.404 35.75V44.625C138.404 54.4291 112.577 62.375 80.7022 62.375C48.8273 62.375 23 54.4291 23 44.625ZM23 75.6875V62.375C23 62.375 23 59.8234 25.0113 62.375C29.1447 67.6307 41.8364 75.6875 80.7022 75.6875C119.568 75.6875 132.26 67.6307 136.393 62.375C138.404 59.8234 138.404 62.375 138.404 62.375V75.6875C138.404 77.5457 137.475 79.3346 135.755 81.0125C135.478 81.276 135.089 81.3869 134.715 81.2898C131.511 80.4717 128.168 80.0279 124.728 80.0279C123.091 80.0279 121.44 80.125 119.818 80.333C114.436 80.9848 109.345 82.6904 104.671 85.3668C101.272 87.3221 98.207 89.735 95.53 92.55C95.3358 92.7441 95.0861 92.8689 94.8087 92.8967C90.2869 93.2434 85.5708 93.4375 80.7022 93.4375C48.8273 93.4375 23 85.4916 23 75.6875ZM171.056 148.92L152.442 136.648C150.597 135.344 148.738 134.845 147.268 135.025C147.198 135.025 147.143 135.053 147.074 135.053C150.5 129.88 152.15 123.543 151.36 116.956C149.598 102.243 136.185 91.7457 121.44 93.5484C106.696 95.3512 96.2097 108.733 97.9851 123.474C99.7606 138.215 113.174 148.698 127.918 146.896C134.548 146.105 140.277 142.929 144.466 138.395C144.591 139.92 145.548 141.695 147.323 143.248L163.718 158.336C164.981 159.445 166.52 160 168.032 160C169.78 160 171.708 159.043 172.693 157.767C173.553 156.658 173.913 155.562 173.913 154.037C173.913 152.11 172.873 150.182 171.056 148.92ZM126.864 138.021C117.03 139.227 108.069 132.224 106.89 122.392C105.711 112.56 112.688 103.602 122.522 102.423C132.357 101.245 141.317 108.22 142.496 118.052C143.661 127.884 136.698 136.814 126.864 138.021Z" fill="url(#paint0_radial_276_1872)"/>
</g>
<path d="M220.123 106.623C220.123 105.1 219.942 103.757 219.579 102.592C219.217 101.398 218.583 100.323 217.676 99.3676C216.77 98.4122 215.502 97.5016 213.871 96.6357C212.239 95.7698 210.17 94.889 207.663 93.9933C204.945 93.0379 202.483 91.9779 200.278 90.8135C198.073 89.6192 196.186 88.2607 194.615 86.738C193.074 85.2152 191.881 83.4686 191.036 81.498C190.19 79.5274 189.767 77.2732 189.767 74.7353C189.767 72.1974 190.205 69.8536 191.081 67.7039C191.987 65.5541 193.256 63.6881 194.887 62.1056C196.548 60.4933 198.542 59.2393 200.867 58.3436C203.193 57.4479 205.791 57 208.66 57C212.949 57 216.559 57.9405 219.489 59.8215C222.449 61.6727 224.684 64.1061 226.194 67.1217C227.704 70.1074 228.46 73.3021 228.46 76.7059H220.123C220.123 74.2576 219.715 72.0929 218.9 70.2119C218.114 68.301 216.876 66.8082 215.184 65.7333C213.523 64.6286 211.348 64.0762 208.66 64.0762C206.244 64.0762 204.25 64.539 202.68 65.4646C201.139 66.3902 199.991 67.6442 199.236 69.2266C198.511 70.809 198.149 72.6154 198.149 74.6457C198.149 76.0192 198.391 77.2732 198.874 78.4078C199.357 79.5125 200.097 80.5426 201.094 81.498C202.121 82.4534 203.389 83.3342 204.9 84.1404C206.44 84.9465 208.252 85.7228 210.337 86.4693C213.569 87.5143 216.332 88.6787 218.628 89.9626C220.923 91.2464 222.796 92.6945 224.246 94.3068C225.696 95.8893 226.753 97.6956 227.417 99.7259C228.112 101.726 228.46 103.996 228.46 106.533C228.46 109.191 228.006 111.594 227.1 113.744C226.224 115.894 224.941 117.73 223.249 119.253C221.558 120.775 219.519 121.955 217.133 122.791C214.746 123.597 212.058 124 209.068 124C206.47 124 203.918 123.582 201.411 122.746C198.934 121.91 196.684 120.656 194.66 118.984C192.636 117.312 191.02 115.252 189.812 112.803C188.604 110.325 188 107.459 188 104.205H196.337C196.337 106.444 196.669 108.37 197.333 109.982C197.998 111.564 198.919 112.878 200.097 113.923C201.275 114.968 202.619 115.744 204.129 116.252C205.67 116.73 207.316 116.969 209.068 116.969C211.484 116.969 213.508 116.551 215.139 115.715C216.8 114.879 218.039 113.684 218.854 112.132C219.7 110.579 220.123 108.743 220.123 106.623Z" fill="black"/>
<path d="M247.851 86.4245H253.016C255.312 86.4245 257.215 85.9467 258.725 84.9913C260.235 84.006 261.353 82.6774 262.078 81.0053C262.833 79.3035 263.21 77.3926 263.21 75.2727C263.21 72.7647 262.878 70.6598 262.214 68.9579C261.549 67.256 260.552 65.9721 259.223 65.1063C257.924 64.2404 256.278 63.8075 254.285 63.8075C252.412 63.8075 250.781 64.2703 249.392 65.1959C248.002 66.0916 246.93 67.3754 246.175 69.0475C245.42 70.7195 245.042 72.6901 245.042 74.9592H237.068C237.068 71.6451 237.763 68.6295 239.152 65.9124C240.572 63.1954 242.565 61.0307 245.133 59.4184C247.73 57.8061 250.781 57 254.285 57C257.638 57 260.583 57.7016 263.12 59.1049C265.657 60.4784 267.635 62.5385 269.055 65.2854C270.505 68.0025 271.23 71.3913 271.23 75.4519C271.23 77.094 270.913 78.8556 270.278 80.7366C269.674 82.5878 268.693 84.3195 267.333 85.9318C266.004 87.5441 264.252 88.8728 262.078 89.9178C259.933 90.9329 257.305 91.4405 254.194 91.4405H247.851V86.4245ZM247.851 93.232V88.2607H254.194C257.879 88.2607 260.885 88.7533 263.21 89.7386C265.536 90.7239 267.333 92.0377 268.602 93.6798C269.871 95.322 270.746 97.1283 271.23 99.0989C271.743 101.04 272 102.98 272 104.921C272 107.967 271.547 110.669 270.641 113.027C269.765 115.386 268.511 117.387 266.88 119.029C265.279 120.671 263.407 121.91 261.262 122.746C259.118 123.582 256.777 124 254.239 124C251.763 124 249.467 123.597 247.353 122.791C245.238 121.985 243.381 120.82 241.78 119.297C240.179 117.745 238.926 115.849 238.019 113.61C237.143 111.34 236.706 108.758 236.706 105.862H244.725C244.725 108.131 245.102 110.116 245.858 111.818C246.613 113.52 247.7 114.849 249.12 115.804C250.539 116.73 252.246 117.193 254.239 117.193C256.233 117.193 257.955 116.76 259.405 115.894C260.854 114.998 261.972 113.654 262.757 111.863C263.573 110.072 263.981 107.817 263.981 105.1C263.981 102.383 263.528 100.159 262.621 98.4271C261.745 96.6656 260.492 95.3668 258.861 94.5307C257.23 93.6649 255.282 93.232 253.016 93.232H247.851Z" fill="black"/>
<defs>
<radialGradient id="paint0_radial_276_1872" cx="0" cy="0" r="1" gradientUnits="userSpaceOnUse" gradientTransform="translate(98.4567 89) rotate(90) scale(71 75.4567)">
<stop stop-color="#E15443"/>
<stop offset="0.625" stop-color="#BC4535"/>
<stop offset="1" stop-color="#8C3223"/>
</radialGradient>
<clipPath id="clip0_276_1872">
<rect width="150.913" height="142" fill="white" transform="translate(23 18)"/>
</clipPath>
</defs>
</svg>
