<?xml version="1.0" encoding="utf-8"?>
<!-- Generator: Adobe Illustrator 23.0.3, SVG Export Plug-In . SVG Version: 6.00 Build 0)  -->
<svg version="1.1" id="Layer_1" xmlns="http://www.w3.org/2000/svg" xmlns:xlink="http://www.w3.org/1999/xlink" x="0px" y="0px"
	 viewBox="0 0 376 128" style="enable-background:new 0 0 376 128;" xml:space="preserve">
<style type="text/css">
	.st0{fill:#8C3223;}
	.st1{fill:#E15343;}
	.st2{fill:#5E1F19;}
	.st3{fill:#F2B0A9;}
	.st4{fill:#201C1D;}
</style>
<g id="XMLID_77_">
	<g id="Layer_1-2">
		<g id="S3">
			<path id="path8" d="M181.6,75.9c0-2.4-0.9-4.1-3.6-4.1c-2.4,0-3.8,1.3-3.8,3.8c0,6.5,10.9,2.6,10.9,11.1c0,5.3-3.9,6.9-7.2,6.9
				c-5.4,0-7-2.8-7-7.7h2.8c0,2.6,0.2,5.4,4.3,5.4c2.2,0.1,4-1.6,4-3.8c0-0.1,0-0.2,0-0.3c0-6.5-10.9-2.8-10.9-11.2
				c0-2.1,0.9-6.4,6.8-6.4c4.4,0,6.4,2.2,6.5,6.4L181.6,75.9z"/>
			<path id="path10" d="M192.8,80.1h1.4c2.4,0,3.5-1.7,3.5-4c0-2.1-0.8-3.8-3-3.8c-3,0-3.3,2.8-3.3,4.5h-2.8c0-3.9,1.8-6.6,6.1-6.6
				c4.8,0,5.9,3.4,5.9,6c0,2.3-1.2,4.3-3.6,4.9V81c2.6,0.5,4.2,2.2,4.2,5.3c0,4.2-2.1,7.1-6.5,7.1c-6.2,0-6.5-5.4-6.5-6.4v-0.3h2.8
				c0,2.1,1,4.5,3.6,4.5c1.7,0,3.6-0.8,3.6-4.7c0-2.7-1.3-4.4-4.1-4.4h-1.5L192.8,80.1z"/>
		</g>
		<g id="S3-2">
			<path id="path13" class="st0" d="M102.3,25.1c4.6-2.3,9.3-4.7,13.9-6.9c0,7.7,0,15.4,0,23.1c-4.5,1-9,2.3-13.5,3.3l0.6,0.4
				l-0.9-0.1c-0.1-2.2,0-4.3-0.1-6.5C102.3,34,102.3,29.5,102.3,25.1z"/>
			<path id="path15" class="st1" d="M116.2,18.2c4.6,2.3,9.3,4.6,13.9,7v13.3c0,2.1,0,4.1,0,6.2l-0.3,0.1c-4.5-1.1-9-2.3-13.6-3.3
				C116.2,33.6,116.2,25.9,116.2,18.2z"/>
			<path id="path17" class="st0" d="M78.3,37.1c2.1-1,4.1-2.1,6.2-3.1c0,19.9,0,39.8,0,59.8c-2.1-1-4.1-2-6.1-3
				C78.3,72.9,78.3,55,78.3,37.1z"/>
			<path id="path19" class="st1" d="M84.4,34c5.9,1.5,11.9,2.9,17.8,4.4c0,2.2,0,4.3,0.1,6.5l0.9,0.1c4.3,0.7,8.6,1.6,12.9,2.3
				c0,1.7,0,3.5,0,5.2c-4.6,0.5-9.2,1.1-13.9,1.7c0,6.5,0,13,0,19.6c4.6,0.7,9.3,1.2,13.9,1.8c0.1,1.7,0,3.4,0,5.1
				c-4.6,0.8-9.3,1.7-13.9,2.5v6.2c-6,1.5-11.9,2.8-17.9,4.3C84.4,73.9,84.4,54,84.4,34z"/>
			<path id="path21" class="st0" d="M130.1,38.4c6-1.5,11.9-2.9,17.9-4.3c0,19.3,0,38.7,0,58c0,0.6-0.1,1.1-0.1,1.7
				c-5.9-1.4-11.8-2.8-17.8-4.3c0-2.1,0-4.1,0-6.2c-4.6-0.9-9.3-1.8-13.9-2.5c0-1.7,0.1-3.4,0-5.1c-4.6-0.6-9.3-1.1-13.9-1.8
				c0-6.5,0-13,0-19.6c4.6-0.6,9.3-1.2,13.9-1.8c0-1.7,0-3.5,0-5.2c3.9-0.6,7.7-1.4,11.6-2c0.7-0.1,1.4-0.3,2-0.6l0.3-0.1
				C130.1,42.5,130.1,40.5,130.1,38.4z"/>
			<path id="path23" class="st1" d="M148,34.1c2,1,4.1,2,6.1,3.1c0,17.9,0,35.7,0,53.6c-2.1,1-4.2,2.1-6.3,3.1v-0.1
				c0-0.6,0.1-1.1,0.1-1.7C148,72.8,148,53.4,148,34.1L148,34.1z"/>
			<path id="path25" class="st2" d="M102.7,44.6c4.5-1,9-2.3,13.5-3.3c4.5,1,9.1,2.2,13.6,3.3c-0.6,0.3-1.3,0.4-2,0.6
				c-3.9,0.6-7.7,1.5-11.6,2c-4.3-0.6-8.6-1.6-12.9-2.3C103.1,44.8,102.9,44.7,102.7,44.6z"/>
			<path id="path27" class="st1" d="M116.2,52.5c4.6,0.6,9.2,1.1,13.9,1.8v19.5c-4.6,0.7-9.3,1.3-13.9,1.8
				C116.2,67.8,116.1,60.2,116.2,52.5z"/>
			<path id="path29" class="st3" d="M102.3,83.2c4.6-0.9,9.2-1.8,13.9-2.5c4.6,0.8,9.3,1.7,13.9,2.5c-4.6,1.1-9.3,2.4-13.9,3.4
				C111.5,85.6,106.9,84.4,102.3,83.2z"/>
			<path id="path31" class="st0" d="M102.3,89.5c0-2.1,0-4.1,0-6.2c4.6,1.2,9.2,2.3,13.9,3.4c0,7.7,0,15.4,0,23.1
				c-4.7-2.3-9.3-4.6-13.9-6.9C102.3,98.4,102.3,93.9,102.3,89.5L102.3,89.5z"/>
			<path id="path33" class="st1" d="M116.2,86.7c4.7-1.1,9.3-2.3,13.9-3.4c0,2.1,0,4.1,0,6.2c0,4.5,0,8.9,0,13.4
				c-4.6,2.3-9.3,4.6-13.9,7C116.2,102.1,116.2,94.4,116.2,86.7z"/>
		</g>
		<path id="Amazon" class="st4" d="M180.1,39.5c-3.7,0-7.9,1.4-8.8,6.2c-0.1,0.4,0.1,0.7,0.5,0.8c0,0,0,0,0,0h0.1l3.8,0.5
			c0.4-0.1,0.6-0.4,0.6-0.8c0.3-1.5,1.7-2.5,3.2-2.4c0.9,0,1.7,0.3,2.2,1c0.4,0.9,0.6,1.9,0.5,2.9v0.6c-2.5,0.1-5,0.6-7.4,1.4
			c-2.6,1.1-4.3,3.7-4.2,6.6c0,4.2,2.6,6.3,5.9,6.3c2.5,0.2,4.9-0.9,6.5-2.9c0.6,1,1.3,1.9,2.2,2.6c0.3,0.2,0.7,0.1,0.9-0.1
			c0.8-0.7,2.2-2,3-2.7c0.3-0.3,0.3-0.8,0-1.1c-1-1-1.5-2.3-1.5-3.7v-6.1c0-2.6,0.2-5.1-1.7-7C184.3,40.2,182.2,39.5,180.1,39.5
			L180.1,39.5z M231.7,39.5c-3.7,0-7.9,1.4-8.8,6.2c-0.1,0.4,0.1,0.7,0.5,0.8c0,0,0,0,0,0h0.1l3.9,0.5c0.4-0.1,0.7-0.4,0.7-0.8
			c0.3-1.5,1.7-2.5,3.2-2.4c0.9,0,1.7,0.3,2.2,1c0.4,0.9,0.6,1.9,0.4,2.9v0.6c-2.5,0.1-5,0.6-7.4,1.4c-2.6,1.1-4.3,3.7-4.2,6.6
			c0,4.2,2.6,6.3,5.9,6.3c2.5,0.1,4.9-0.9,6.5-2.9c0.6,1,1.3,1.9,2.2,2.6c0.3,0.2,0.7,0.1,0.9-0.1c0.8-0.7,2.2-2,3-2.7
			c0.3-0.3,0.3-0.8,0-1.1c-0.9-1-1.5-2.3-1.5-3.7v-6.1c0-2.6,0.2-5.1-1.7-7C235.9,40.2,233.8,39.5,231.7,39.5L231.7,39.5z
			 M202.6,39.7c-2.4-0.1-4.5,1.5-5.2,3.8v-2.7c0-0.4-0.3-0.7-0.7-0.7h-3.6c-0.4,0-0.7,0.3-0.8,0.8v20.7c0,0.4,0.3,0.7,0.7,0.7h3.9
			c0.4,0,0.7-0.3,0.8-0.8v-11c0-2.4-0.1-5.7,2.7-5.7c2.8,0,2.4,3.4,2.4,5.7v11c0,0.4,0.3,0.7,0.7,0.8h3.9c0.4,0,0.7-0.3,0.8-0.8v-11
			c-0.1-1.3,0-2.7,0.4-3.9c0.3-1,1.2-1.7,2.3-1.8c1.1-0.1,2.1,0.6,2.3,1.8c0.1,1.3,0.2,2.6,0.1,3.9v11c0,0.4,0.3,0.7,0.7,0.8h3.9
			c0.4,0,0.7-0.3,0.8-0.8V48.4c0-2.2,0.2-4.8-1-6.5c-2-2.5-5.6-2.9-8.1-0.9c-0.8,0.7-1.5,1.5-1.8,2.5
			C206.6,41,205.1,39.8,202.6,39.7L202.6,39.7z M269.7,39.7c-5.7,0-8.9,5-8.9,11.5s3.1,11.6,8.9,11.6c5.5,0,9-5,9-11.4
			C278.7,44.9,275.5,39.7,269.7,39.7L269.7,39.7z M292.1,39.7c-2.7,0-4.3,1.3-5.4,4.2v-3.2c-0.1-0.3-0.4-0.6-0.7-0.6h-3.6
			c-0.4,0-0.7,0.3-0.8,0.7v20.7c0,0.4,0.3,0.7,0.7,0.8h3.9c0.4,0,0.7-0.3,0.8-0.8V50.4c-0.1-1.3,0.2-2.7,0.7-3.9
			c0.3-0.9,1.1-1.6,2.1-1.7c2.7,0,2.5,3.3,2.5,5.6v11.3c0.1,0.4,0.4,0.6,0.7,0.7h3.9c0.4,0,0.7-0.3,0.8-0.7v-13c0-2,0-4.8-1-6.5
			C295.7,40.6,294,39.7,292.1,39.7L292.1,39.7z M244.8,40.1c-0.4,0-0.7,0.3-0.7,0.7c0,0,0,0,0,0v3c0,0.4,0.3,0.7,0.7,0.8h6.8
			l-7.7,11.4c-0.4,0.6-0.6,1.3-0.5,2v3c0,0.4,0.3,0.7,0.6,0.7c0.1,0,0.2,0,0.3,0c4.3-2.3,9.4-2.3,13.7,0c0.4,0.1,0.8,0,0.9-0.4
			c0-0.1,0.1-0.2,0.1-0.3v-3.1c0-0.5-0.3-0.9-0.7-1.1c-2.3-1.2-4.8-1.8-7.4-1.7l6.7-9.9c0.5-0.5,0.8-1.2,1-1.8v-2.5
			c0-0.4-0.3-0.7-0.7-0.8L244.8,40.1L244.8,40.1z M269.6,44c1.2-0.1,2.4,0.8,2.6,2c0.4,1.8,0.6,3.6,0.6,5.5c0,2.6-0.1,7.1-3.2,7.1
			s-3.1-5.5-3.1-8S266.7,44,269.6,44L269.6,44z M182.2,51.6v0.9c0.2,1.5-0.1,2.9-0.7,4.3c-0.5,1.1-1.5,1.8-2.7,1.8
			c-1.5,0-2.4-1.2-2.4-3C176.3,52.2,179.4,51.6,182.2,51.6L182.2,51.6z M233.7,51.6v0.9c0.2,1.5-0.1,3-0.7,4.3
			c-0.5,1.1-1.5,1.8-2.7,1.8c-1.5,0-2.4-1.2-2.4-3C227.9,52.2,230.9,51.5,233.7,51.6L233.7,51.6z"/>
	</g>
</g>
</svg>
