<svg viewBox="0 0 220 92" xmlns="http://www.w3.org/2000/svg" fill-rule="evenodd" clip-rule="evenodd" stroke-linejoin="round" stroke-miterlimit="2"><g fill-rule="nonzero"><path d="M103.3 57.7c0-2.4-.9-4.1-3.6-4.1-2.4 0-3.8 1.3-3.8 3.8 0 6.5 10.9 2.6 10.9 11.1 0 5.3-3.9 6.9-7.2 6.9-5.4 0-7-2.8-7-7.7h2.8c0 2.6.2 5.4 4.3 5.4 2.2.1 4-1.6 4-3.8V69c0-6.5-10.9-2.8-10.9-11.2 0-2.1.9-6.4 6.8-6.4 4.4 0 6.4 2.2 6.5 6.4l-2.8-.1zM114.5 61.9h1.4c2.4 0 3.5-1.7 3.5-4 0-2.1-.8-3.8-3-3.8-3 0-3.3 2.8-3.3 4.5h-2.8c0-3.9 1.8-6.6 6.1-6.6 4.8 0 5.9 3.4 5.9 6 0 2.3-1.2 4.3-3.6 4.9v-.1c2.6.5 4.2 2.2 4.2 5.3 0 4.2-2.1 7.1-6.5 7.1-6.2 0-6.5-5.4-6.5-6.4v-.3h2.8c0 2.1 1 4.5 3.6 4.5 1.7 0 3.6-.8 3.6-4.7 0-2.7-1.3-4.4-4.1-4.4h-1.5l.2-2z"/><path d="M24 6.9c4.6-2.3 9.3-4.7 13.9-6.9v23.1c-4.5 1-9 2.3-13.5 3.3l.6.4-.9-.1c-.1-2.2 0-4.3-.1-6.5V6.9z" fill="#8c3223"/><path d="M37.9 0c4.6 2.3 9.3 4.6 13.9 7v19.5l-.3.1c-4.5-1.1-9-2.3-13.6-3.3V0z" fill="#e15343"/><path d="M0 18.9c2.1-1 4.1-2.1 6.2-3.1v59.8c-2.1-1-4.1-2-6.1-3C0 54.7 0 36.8 0 18.9z" fill="#8c3223"/><path d="M6.1 15.8c5.9 1.5 11.9 2.9 17.8 4.4 0 2.2 0 4.3.1 6.5l.9.1c4.3.7 8.6 1.6 12.9 2.3v5.2c-4.6.5-9.2 1.1-13.9 1.7v19.6c4.6.7 9.3 1.2 13.9 1.8.1 1.7 0 3.4 0 5.1-4.6.8-9.3 1.7-13.9 2.5v6.2C17.9 72.7 12 74 6 75.5c.1-19.8.1-39.7.1-59.7z" fill="#e15343"/><path d="M51.8 20.2c6-1.5 11.9-2.9 17.9-4.3v58c0 .6-.1 1.1-.1 1.7-5.9-1.4-11.8-2.8-17.8-4.3v-6.2c-4.6-.9-9.3-1.8-13.9-2.5 0-1.7.1-3.4 0-5.1-4.6-.6-9.3-1.1-13.9-1.8V36.1c4.6-.6 9.3-1.2 13.9-1.8v-5.2c3.9-.6 7.7-1.4 11.6-2 .7-.1 1.4-.3 2-.6l.3-.1v-6.2z" fill="#8c3223"/><path d="M69.7 15.9c2 1 4.1 2 6.1 3.1v53.6c-2.1 1-4.2 2.1-6.3 3.1v-.1c0-.6.1-1.1.1-1.7.1-19.3.1-38.7.1-58z" fill="#e15343"/><path d="M24.4 26.4c4.5-1 9-2.3 13.5-3.3 4.5 1 9.1 2.2 13.6 3.3-.6.3-1.3.4-2 .6-3.9.6-7.7 1.5-11.6 2-4.3-.6-8.6-1.6-12.9-2.3l-.6-.3z" fill="#5e1f19"/><path d="M37.9 34.3c4.6.6 9.2 1.1 13.9 1.8v19.5c-4.6.7-9.3 1.3-13.9 1.8 0-7.8-.1-15.4 0-23.1z" fill="#e15343"/><path d="M24 65c4.6-.9 9.2-1.8 13.9-2.5 4.6.8 9.3 1.7 13.9 2.5-4.6 1.1-9.3 2.4-13.9 3.4-4.7-1-9.3-2.2-13.9-3.4z" fill="#f2b0a9"/><path d="M24 84.7V65.1c4.6 1.2 9.2 2.3 13.9 3.4v23.1c-4.7-2.3-9.3-4.6-13.9-6.9z" fill="#8c3223"/><path d="M37.9 68.5c4.7-1.1 9.3-2.3 13.9-3.4v19.6c-4.6 2.3-9.3 4.6-13.9 7V68.5z" fill="#e15343"/><path d="M101.8 21.3c-3.7 0-7.9 1.4-8.8 6.2-.1.4.1.7.5.8h.1l3.8.5c.4-.1.6-.4.6-.8.3-1.5 1.7-2.5 3.2-2.4.9 0 1.7.3 2.2 1 .4.9.6 1.9.5 2.9v.6c-2.5.1-5 .6-7.4 1.4-2.6 1.1-4.3 3.7-4.2 6.6 0 4.2 2.6 6.3 5.9 6.3 2.5.2 4.9-.9 6.5-2.9.6 1 1.3 1.9 2.2 2.6.3.2.7.1.9-.1.8-.7 2.2-2 3-2.7.3-.3.3-.8 0-1.1-1-1-1.5-2.3-1.5-3.7v-6.1c0-2.6.2-5.1-1.7-7-1.6-1.4-3.7-2.1-5.8-2.1zm51.6 0c-3.7 0-7.9 1.4-8.8 6.2-.1.4.1.7.5.8h.1l3.9.5c.4-.1.7-.4.7-.8.3-1.5 1.7-2.5 3.2-2.4.9 0 1.7.3 2.2 1 .4.9.6 1.9.4 2.9v.6c-2.5.1-5 .6-7.4 1.4-2.6 1.1-4.3 3.7-4.2 6.6 0 4.2 2.6 6.3 5.9 6.3 2.5.1 4.9-.9 6.5-2.9.6 1 1.3 1.9 2.2 2.6.3.2.7.1.9-.1.8-.7 2.2-2 3-2.7.3-.3.3-.8 0-1.1-.9-1-1.5-2.3-1.5-3.7v-6.1c0-2.6.2-5.1-1.7-7-1.7-1.4-3.8-2.1-5.9-2.1zm-29.1.2c-2.4-.1-4.5 1.5-5.2 3.8v-2.7c0-.4-.3-.7-.7-.7h-3.6c-.4 0-.7.3-.8.8v20.7c0 .4.3.7.7.7h3.9c.4 0 .7-.3.8-.8v-11c0-2.4-.1-5.7 2.7-5.7 2.8 0 2.4 3.4 2.4 5.7v11c0 .4.3.7.7.8h3.9c.4 0 .7-.3.8-.8v-11c-.1-1.3 0-2.7.4-3.9.3-1 1.2-1.7 2.3-1.8 1.1-.1 2.1.6 2.3 1.8.1 1.3.2 2.6.1 3.9v11c0 .4.3.7.7.8h3.9c.4 0 .7-.3.8-.8V30.2c0-2.2.2-4.8-1-6.5-2-2.5-5.6-2.9-8.1-.9-.8.7-1.5 1.5-1.8 2.5-1.2-2.5-2.7-3.7-5.2-3.8zm67.1 0c-5.7 0-8.9 5-8.9 11.5s3.1 11.6 8.9 11.6c5.5 0 9-5 9-11.4 0-6.5-3.2-11.7-9-11.7zm22.4 0c-2.7 0-4.3 1.3-5.4 4.2v-3.2c-.1-.3-.4-.6-.7-.6h-3.6c-.4 0-.7.3-.8.7v20.7c0 .4.3.7.7.8h3.9c.4 0 .7-.3.8-.8V32.2c-.1-1.3.2-2.7.7-3.9.3-.9 1.1-1.6 2.1-1.7 2.7 0 2.5 3.3 2.5 5.6v11.3c.1.4.4.6.7.7h3.9c.4 0 .7-.3.8-.7v-13c0-2 0-4.8-1-6.5-1-1.6-2.7-2.5-4.6-2.5zm-47.3.4c-.4 0-.7.3-.7.7v3c0 .4.3.7.7.8h6.8l-7.7 11.4c-.4.6-.6 1.3-.5 2v3c0 .4.3.7.6.7h.3c4.3-2.3 9.4-2.3 13.7 0 .4.1.8 0 .9-.4 0-.1.1-.2.1-.3v-3.1c0-.5-.3-.9-.7-1.1-2.3-1.2-4.8-1.8-7.4-1.7l6.7-9.9c.5-.5.8-1.2 1-1.8v-2.5c0-.4-.3-.7-.7-.8h-13.1zm24.8 3.9c1.2-.1 2.4.8 2.6 2 .4 1.8.6 3.6.6 5.5 0 2.6-.1 7.1-3.2 7.1s-3.1-5.5-3.1-8 .2-6.6 3.1-6.6zm-87.4 7.6v.9c.2 1.5-.1 2.9-.7 4.3-.5 1.1-1.5 1.8-2.7 1.8-1.5 0-2.4-1.2-2.4-3-.1-3.4 3-4 5.8-4zm51.5 0v.9c.2 1.5-.1 3-.7 4.3-.5 1.1-1.5 1.8-2.7 1.8-1.5 0-2.4-1.2-2.4-3 0-3.4 3-4.1 5.8-4z" fill="#201c1d"/></g></svg>