<svg id="Artwork" xmlns="http://www.w3.org/2000/svg" xmlns:xlink="http://www.w3.org/1999/xlink" viewBox="0 0 1080 1080"><defs><style>.cls-1,.cls-10,.cls-11,.cls-13,.cls-5,.cls-6{fill:none;}.cls-2{fill:#ffd9da;}.cls-3{fill:#ffb2b4;}.cls-4,.cls-9{fill:#fff;}.cls-5,.cls-6{stroke:#ffd9da;}.cls-10,.cls-5,.cls-6,.cls-9{stroke-miterlimit:10;}.cls-11,.cls-13,.cls-15,.cls-5{stroke-width:2px;}.cls-6{stroke-width:2.5px;}.cls-7{clip-path:url(#clip-path);}.cls-15,.cls-8{fill:red;}.cls-10,.cls-13,.cls-9{stroke:red;}.cls-10,.cls-9{stroke-width:3px;}.cls-11,.cls-15{stroke:#fff;}.cls-11,.cls-13,.cls-15{stroke-linecap:round;stroke-linejoin:round;}.cls-12{clip-path:url(#clip-path-2);}.cls-14{clip-path:url(#clip-path-3);}.cls-16{clip-path:url(#clip-path-5);}</style><clipPath id="clip-path"><path class="cls-1" d="M342,459.88s-9.93,40.39-12,45.89c-9.95,26.84-36.58,65.85-58.32,84.46s-47,32.65-66.31,53.81c-24.5,26.78-37.3,65-29.84,100.53C188.31,805.41,245.18,822,300,821.17c36.81-.58,77,3,108.27,24.21,24.8,16.84,38.07,42.45,60.44,61.22,22.2,18.62,51.1,29.48,80.17,28.82,31.77-.71,63.34-15.29,85.06-38.38,25.66-27.29,24.68-60.92,34.71-94.82C684.38,749,704.38,694.77,740.18,651.5c37.21-45,99.07-60.78,129.8-111.8A118.58,118.58,0,0,0,886.57,471c-1.82-26.91-13.57-53.5-34-71.13-50.78-43.86-131.9-29.19-175-86.58-15.46-20.58-21.6-46.63-34.34-69-22.86-40.1-66.66-65-112.36-67.76-51.59-3.11-113.53,23.81-135.07,72.84-8.65,19.69-12.61,41.28-13.06,62.72C378.61,507.63,342,459.88,342,459.88Z"/></clipPath><clipPath id="clip-path-2"><path class="cls-1" d="M463.64,366.39a69.36,69.36,0,0,0-20.49,3.07,92.74,92.74,0,0,0-168.49,10.21,63,63,0,0,0-56,38.59,44.41,44.41,0,0,0-55.43,43c0,24.52,21.12,43.32,45.63,43.32H362.48c20.74,0,83,1.08,101.16,1.08a69.64,69.64,0,0,0,0-139.27Zm-263,384.11H375.8V590H200.67Z"/></clipPath><clipPath id="clip-path-3"><polygon class="cls-1" points="305.71 350.46 305.71 389.17 272.19 408.52 238.68 389.17 238.68 350.46 272.19 331.11 305.71 350.46"/></clipPath><clipPath id="clip-path-5"><polygon class="cls-1" points="718.01 812.66 718.01 851.36 684.49 870.72 650.98 851.36 650.98 812.66 684.49 793.31 718.01 812.66"/></clipPath></defs><g id="Layers"><g id="Layers-2" data-name="Layers"><g id="graphics"><g id="_3-Person" data-name="3-Person"><path class="cls-2" d="M342,459.88s-9.93,40.39-12,45.89c-9.95,26.84-36.58,65.85-58.32,84.46s-47,32.65-66.31,53.81c-24.5,26.78-37.3,65-29.84,100.53C188.31,805.41,245.18,822,300,821.17c36.81-.58,77,3,108.27,24.21,24.8,16.84,38.07,42.45,60.44,61.22,22.2,18.62,51.1,29.48,80.17,28.82,31.77-.71,63.34-15.29,85.06-38.38,25.66-27.29,24.68-60.92,34.71-94.82C684.38,749,704.38,694.77,740.18,651.5c37.21-45,99.07-60.78,129.8-111.8A118.58,118.58,0,0,0,886.57,471c-1.82-26.91-13.57-53.5-34-71.13-50.78-43.86-131.9-29.19-175-86.58-15.46-20.58-21.6-46.63-34.34-69-22.86-40.1-66.66-65-112.36-67.76-51.59-3.11-113.53,23.81-135.07,72.84-8.65,19.69-12.61,41.28-13.06,62.72C378.61,507.63,342,459.88,342,459.88Z"/><path class="cls-3" d="M505,356.46l-170.1,48.27v177A188.16,188.16,0,0,0,350.8,657.6C404.58,779.71,505,775.43,505,775.43s101.7,4.34,155.23-120.14A185.49,185.49,0,0,0,675.13,582V404.73Z"/><path class="cls-4" d="M463.64,366.29a69.69,69.69,0,0,0-20.49,3.07,92.73,92.73,0,0,0-168.48,10.22,63,63,0,0,0-56,38.58,44.4,44.4,0,1,0-11,87.4h256a69.64,69.64,0,0,0,0-139.27Z"/><path class="cls-5" d="M463.64,366.29a69.69,69.69,0,0,0-20.49,3.07,92.73,92.73,0,0,0-168.48,10.22,63,63,0,0,0-56,38.58,44.4,44.4,0,1,0-11,87.4h256a69.64,69.64,0,0,0,0-139.27Z"/><path class="cls-4" d="M592,558.55a75.39,75.39,0,0,1,22.15,3.32,100.26,100.26,0,0,1,182.15,11,68.13,68.13,0,0,1,60.53,41.72,48,48,0,1,1,11.94,94.49H592a75.29,75.29,0,0,1,0-150.57Z"/><path class="cls-6" d="M592,558.55a75.39,75.39,0,0,1,22.15,3.32,100.26,100.26,0,0,1,182.15,11,68.13,68.13,0,0,1,60.53,41.72,48,48,0,1,1,11.94,94.49H592a75.29,75.29,0,0,1,0-150.57Z"/><g class="cls-7"><path class="cls-3" d="M189.67,761.5H363.3v-159H189.67Zm423.93-.72H732.88V651.59H613.6Zm-19.87-452V470.25H770.09V308.8Z"/></g><path class="cls-8" d="M349.76,763.9a35.67,35.67,0,0,1-1.09,9.52,17.77,17.77,0,0,1-3,6.33,11.36,11.36,0,0,1-4.57,3.52,14.85,14.85,0,0,1-5.76,1.09,15.12,15.12,0,0,1-5.74-1.07,10.92,10.92,0,0,1-4.5-3.51,17.9,17.9,0,0,1-2.95-6.33,37.26,37.26,0,0,1-1.06-9.55,39.11,39.11,0,0,1,1.05-9.87,16.49,16.49,0,0,1,3-6.3,10.43,10.43,0,0,1,4.58-3.33,17,17,0,0,1,5.9-1,16,16,0,0,1,5.64,1,10.38,10.38,0,0,1,4.5,3.33,17.11,17.11,0,0,1,3,6.3A38.56,38.56,0,0,1,349.76,763.9Zm-8.3,0a59.52,59.52,0,0,0-.32-6.75,15.54,15.54,0,0,0-1-4.3,4.65,4.65,0,0,0-1.84-2.28,5.36,5.36,0,0,0-2.75-.66,5.65,5.65,0,0,0-2.91.68,4.7,4.7,0,0,0-1.9,2.29,14.88,14.88,0,0,0-1,4.32,59.36,59.36,0,0,0-.31,6.7,55.81,55.81,0,0,0,.32,6.62,16.11,16.11,0,0,0,1,4.32,4.83,4.83,0,0,0,1.86,2.32,5.36,5.36,0,0,0,2.82.69,5.27,5.27,0,0,0,2.77-.69,5,5,0,0,0,1.89-2.32,15.61,15.61,0,0,0,1.07-4.32A53.28,53.28,0,0,0,341.46,763.9Z"/><rect class="cls-9" x="200.67" y="591.54" width="173.63" height="158.95"/><rect class="cls-2" x="255.47" y="637.85" width="106" height="98.31" transform="translate(616.93 1374.02) rotate(180)"/><rect class="cls-2" x="215.14" y="637.85" width="26.3" height="31.88"/><rect class="cls-2" x="215.14" y="679.08" width="26.3" height="57.09"/><rect class="cls-4" x="604.73" y="297.8" width="176.36" height="161.45"/><rect class="cls-10" x="604.73" y="297.8" width="176.36" height="161.45"/><rect class="cls-2" x="619.88" y="345.7" width="106" height="98.31"/><rect class="cls-2" x="739.91" y="345.7" width="26.3" height="31.88"/><rect class="cls-2" x="739.91" y="386.93" width="26.3" height="57.09"/><rect class="cls-8" x="604.73" y="297.8" width="176.36" height="34.26"/><rect class="cls-9" x="624.6" y="640.59" width="119.28" height="109.2"/><rect class="cls-8" x="624.6" y="640.59" width="119.28" height="23.17"/><line class="cls-11" x1="621.97" y1="652.03" x2="690.01" y2="652.03"/><rect class="cls-8" x="200.67" y="591.54" width="173.63" height="33.73"/><g class="cls-12"><path d="M505.06,356.47,335,404.75v177a188.16,188.16,0,0,0,15.87,75.88c53.78,122.11,154.23,117.83,154.23,117.83s101.7,4.34,155.23-120.14A185.49,185.49,0,0,0,675.16,582V404.75Z"/></g><path class="cls-8" d="M514.06,342.47,344,390.75v187a188.16,188.16,0,0,0,15.87,75.88c53.78,122.11,154.23,117.83,154.23,117.83s101.7,4.34,155.23-120.14A185.49,185.49,0,0,0,684.16,578V390.75Z"/><path class="cls-4" d="M514.06,743c-8.15,0-66.79.65-110.53-63.48A185.51,185.51,0,0,1,371.72,574.9V416.05l142.34-40.39,142.33,40.39V574.9a185.6,185.6,0,0,1-31.8,104.63C580.84,743.65,522.22,743,514.06,743Z"/><path class="cls-8" d="M498.32,276.8v-6.16h11.45V244.41a6.93,6.93,0,0,1-1.75,2.22,12.16,12.16,0,0,1-2.77,1.81,17,17,0,0,1-3.44,1.22,15.79,15.79,0,0,1-3.82.46v-6.3a16,16,0,0,0,4.07-.5,14.42,14.42,0,0,0,3.44-1.4,12.42,12.42,0,0,0,2.76-2.14,11.44,11.44,0,0,0,1.95-2.71h7.84v33.57h9.51v6.16Z"/><path class="cls-8" d="M544.55,332.33v-6.15H556V299.94a6.86,6.86,0,0,1-1.75,2.23,12.51,12.51,0,0,1-2.77,1.81A16.81,16.81,0,0,1,548,305.2a16.28,16.28,0,0,1-3.81.46v-6.31a15.52,15.52,0,0,0,4.06-.5,14.1,14.1,0,0,0,3.45-1.4,12.33,12.33,0,0,0,2.75-2.13,11.69,11.69,0,0,0,2-2.71h7.83v33.57h9.51v6.15Z"/><path class="cls-8" d="M590.5,227.25V221.1H602V194.86a6.72,6.72,0,0,1-1.75,2.22,12.16,12.16,0,0,1-2.77,1.81,17.67,17.67,0,0,1-3.44,1.23,16.29,16.29,0,0,1-3.82.45v-6.3a16,16,0,0,0,4.07-.5,14,14,0,0,0,3.44-1.4,12.69,12.69,0,0,0,2.76-2.13,11.86,11.86,0,0,0,1.95-2.71h7.84V221.1h9.51v6.15Z"/><path class="cls-8" d="M572.91,256.33a36.16,36.16,0,0,1-1.09,9.53,17.94,17.94,0,0,1-3,6.33,11.36,11.36,0,0,1-4.57,3.52,15.75,15.75,0,0,1-11.49,0,10.84,10.84,0,0,1-4.51-3.5,17.72,17.72,0,0,1-2.94-6.33,36.84,36.84,0,0,1-1.06-9.56,39.13,39.13,0,0,1,1-9.86,16.64,16.64,0,0,1,3-6.3,10.49,10.49,0,0,1,4.58-3.33,17.06,17.06,0,0,1,5.9-1,15.91,15.91,0,0,1,5.64,1,10.46,10.46,0,0,1,4.51,3.33,17.11,17.11,0,0,1,3,6.3A38,38,0,0,1,572.91,256.33Zm-8.31,0a59.33,59.33,0,0,0-.32-6.74,15.85,15.85,0,0,0-1-4.3,4.7,4.7,0,0,0-1.84-2.28,5.42,5.42,0,0,0-2.76-.66,5.77,5.77,0,0,0-2.91.67,4.73,4.73,0,0,0-1.9,2.3,15.22,15.22,0,0,0-1,4.31,59.48,59.48,0,0,0-.31,6.7,58.22,58.22,0,0,0,.32,6.63,15.72,15.72,0,0,0,1,4.31,4.8,4.8,0,0,0,1.85,2.33,5.42,5.42,0,0,0,2.83.69,5.23,5.23,0,0,0,2.76-.69,5,5,0,0,0,1.89-2.33,15.27,15.27,0,0,0,1.07-4.31A53.45,53.45,0,0,0,564.6,256.33Z"/><path class="cls-8" d="M665.69,256.33a36.16,36.16,0,0,1-1.09,9.53,17.94,17.94,0,0,1-3,6.33,11.36,11.36,0,0,1-4.57,3.52,15.75,15.75,0,0,1-11.49,0,10.84,10.84,0,0,1-4.51-3.5,17.72,17.72,0,0,1-2.94-6.33,36.84,36.84,0,0,1-1.06-9.56,39.13,39.13,0,0,1,1-9.86,16.64,16.64,0,0,1,3-6.3,10.49,10.49,0,0,1,4.58-3.33,17.06,17.06,0,0,1,5.9-1,16,16,0,0,1,5.64,1,10.46,10.46,0,0,1,4.51,3.33,17.27,17.27,0,0,1,3,6.3A38,38,0,0,1,665.69,256.33Zm-8.31,0a59.33,59.33,0,0,0-.32-6.74,15.85,15.85,0,0,0-1-4.3,4.7,4.7,0,0,0-1.84-2.28,5.42,5.42,0,0,0-2.76-.66,5.77,5.77,0,0,0-2.91.67,4.73,4.73,0,0,0-1.9,2.3,15.22,15.22,0,0,0-1,4.31,59.48,59.48,0,0,0-.31,6.7,58.22,58.22,0,0,0,.32,6.63,16.12,16.12,0,0,0,1,4.31,4.87,4.87,0,0,0,1.86,2.33,5.39,5.39,0,0,0,2.83.69,5.23,5.23,0,0,0,2.76-.69,5,5,0,0,0,1.89-2.33A15.27,15.27,0,0,0,657,263,53.45,53.45,0,0,0,657.38,256.33Z"/><path class="cls-8" d="M665.69,165a36.14,36.14,0,0,1-1.09,9.52,17.94,17.94,0,0,1-3,6.33,11.36,11.36,0,0,1-4.57,3.52,14.8,14.8,0,0,1-5.75,1.09,15.08,15.08,0,0,1-5.74-1.07A11,11,0,0,1,641,180.9a17.72,17.72,0,0,1-2.94-6.33A36.82,36.82,0,0,1,637,165a39.16,39.16,0,0,1,1-9.87,16.64,16.64,0,0,1,3-6.3,10.49,10.49,0,0,1,4.58-3.33,17.06,17.06,0,0,1,5.9-1,16,16,0,0,1,5.64,1,10.46,10.46,0,0,1,4.51,3.33,17.27,17.27,0,0,1,3,6.3A38.07,38.07,0,0,1,665.69,165Zm-8.31,0a59.52,59.52,0,0,0-.32-6.75,15.94,15.94,0,0,0-1-4.3,4.7,4.7,0,0,0-1.84-2.28,5.42,5.42,0,0,0-2.76-.66,5.67,5.67,0,0,0-2.91.68,4.7,4.7,0,0,0-1.9,2.29,15.21,15.21,0,0,0-1,4.32,59.36,59.36,0,0,0-.31,6.7,58,58,0,0,0,.32,6.62,16,16,0,0,0,1,4.31,4.87,4.87,0,0,0,1.86,2.33,5.39,5.39,0,0,0,2.83.69,5.23,5.23,0,0,0,2.76-.69A5,5,0,0,0,656,176a15.18,15.18,0,0,0,1.07-4.31A53.28,53.28,0,0,0,657.38,165Z"/><path class="cls-8" d="M355.27,844.73v-6.16h11.46V812.34a7.22,7.22,0,0,1-1.75,2.22,12.39,12.39,0,0,1-2.77,1.81,16.91,16.91,0,0,1-3.45,1.22,15.71,15.71,0,0,1-3.81.46v-6.3a15.9,15.9,0,0,0,4.06-.5,14.33,14.33,0,0,0,3.45-1.4,12.14,12.14,0,0,0,2.75-2.14,11.21,11.21,0,0,0,2-2.71H375v33.57h9.51v6.16Z"/><path class="cls-8" d="M385.92,907.88v-6.15h11.46V875.49a7,7,0,0,1-1.75,2.23,12.74,12.74,0,0,1-2.77,1.81,16.91,16.91,0,0,1-3.45,1.22,16.15,16.15,0,0,1-3.81.46V874.9a15.47,15.47,0,0,0,4.06-.5,14.31,14.31,0,0,0,3.45-1.39,12.14,12.14,0,0,0,2.75-2.14,11.4,11.4,0,0,0,2-2.71h7.83v33.57h9.51v6.15Z"/><path class="cls-8" d="M453,824.26a35.75,35.75,0,0,1-1.09,9.53,17.77,17.77,0,0,1-3,6.33,11.33,11.33,0,0,1-4.56,3.52,15.78,15.78,0,0,1-11.5,0,10.93,10.93,0,0,1-4.51-3.5,18.07,18.07,0,0,1-2.94-6.33,36.84,36.84,0,0,1-1.06-9.56,39.6,39.6,0,0,1,1-9.86,16.79,16.79,0,0,1,3-6.3,10.47,10.47,0,0,1,4.58-3.33,17.12,17.12,0,0,1,5.91-1,16,16,0,0,1,5.64,1,10.41,10.41,0,0,1,4.5,3.33,17,17,0,0,1,3,6.3A38,38,0,0,1,453,824.26Zm-8.3,0a56.69,56.69,0,0,0-.33-6.74,15.48,15.48,0,0,0-1-4.3,4.65,4.65,0,0,0-1.84-2.28,5.39,5.39,0,0,0-2.75-.67,5.81,5.81,0,0,0-2.92.68,4.78,4.78,0,0,0-1.9,2.3,15.22,15.22,0,0,0-1,4.31,62,62,0,0,0-.31,6.7,55.73,55.73,0,0,0,.33,6.63,15.75,15.75,0,0,0,1,4.31,4.86,4.86,0,0,0,1.85,2.33,5.42,5.42,0,0,0,2.83.69,5.3,5.3,0,0,0,2.77-.69,5,5,0,0,0,1.88-2.33,15.59,15.59,0,0,0,1.08-4.31A55.48,55.48,0,0,0,444.65,824.26Z"/><path class="cls-8" d="M385.92,784.36v-6.15h11.46V752a6.86,6.86,0,0,1-1.75,2.22,12.39,12.39,0,0,1-2.77,1.81,17.54,17.54,0,0,1-3.45,1.23,16.14,16.14,0,0,1-3.81.45v-6.3a15.9,15.9,0,0,0,4.06-.5,13.94,13.94,0,0,0,3.45-1.4,12.39,12.39,0,0,0,2.75-2.13,11.61,11.61,0,0,0,2-2.71h7.83v33.57h9.51v6.15Z"/><path class="cls-8" d="M315.19,824.26a35.75,35.75,0,0,1-1.09,9.53,17.77,17.77,0,0,1-3,6.33,11.36,11.36,0,0,1-4.57,3.52,15.78,15.78,0,0,1-11.5,0,10.9,10.9,0,0,1-4.5-3.5,17.9,17.9,0,0,1-2.95-6.33,37.28,37.28,0,0,1-1.06-9.56,39.08,39.08,0,0,1,1.05-9.86,16.64,16.64,0,0,1,3-6.3,10.35,10.35,0,0,1,4.58-3.33,17,17,0,0,1,5.9-1,16,16,0,0,1,5.64,1,10.3,10.3,0,0,1,4.5,3.33,17.11,17.11,0,0,1,3,6.3A38.09,38.09,0,0,1,315.19,824.26Zm-8.3,0a59.21,59.21,0,0,0-.32-6.74,15.85,15.85,0,0,0-1-4.3,4.72,4.72,0,0,0-1.85-2.28,5.36,5.36,0,0,0-2.75-.67A5.75,5.75,0,0,0,298,811a4.73,4.73,0,0,0-1.9,2.3,14.88,14.88,0,0,0-1,4.31,59.48,59.48,0,0,0-.31,6.7,58.22,58.22,0,0,0,.32,6.63,16.12,16.12,0,0,0,1,4.31,4.81,4.81,0,0,0,1.86,2.33,5.36,5.36,0,0,0,2.82.69,5.27,5.27,0,0,0,2.77-.69,5,5,0,0,0,1.89-2.33,15.27,15.27,0,0,0,1.07-4.31A53.45,53.45,0,0,0,306.89,824.26Z"/><line class="cls-11" x1="215.57" y1="608.41" x2="289.61" y2="608.41"/><line class="cls-11" x1="619.27" y1="314.93" x2="698.48" y2="314.93"/><circle class="cls-4" cx="710.39" cy="652.03" r="4.91"/><circle class="cls-4" cx="729.42" cy="652.03" r="4.91"/><circle class="cls-4" cx="745.3" cy="314.93" r="4.91"/><circle class="cls-4" cx="764.33" cy="314.93" r="4.91"/><line class="cls-13" x1="684.24" y1="713.31" x2="684.24" y2="696.62"/><line class="cls-13" x1="661.41" y1="715.6" x2="661.41" y2="772.13"/><line class="cls-13" x1="707.08" y1="771.25" x2="707.08" y2="734.89"/><line class="cls-13" x1="684.24" y1="785" x2="684.24" y2="732.66"/><line class="cls-13" x1="272.19" y1="517.55" x2="272.19" y2="549.22"/><line class="cls-13" x1="295.03" y1="528.18" x2="295.03" y2="452.74"/><line class="cls-13" x1="249.36" y1="453.63" x2="249.36" y2="489.99"/><line class="cls-13" x1="272.19" y1="439.88" x2="272.19" y2="492.22"/><polygon class="cls-8" points="305.71 350.46 305.71 389.17 272.19 408.52 238.68 389.17 238.68 350.46 272.19 331.11 305.71 350.46"/><g class="cls-14"><line class="cls-15" x1="238.68" y1="350.46" x2="272.22" y2="369.83"/><line class="cls-11" x1="272.22" y1="369.83" x2="272.22" y2="414.73"/><line class="cls-15" x1="305.71" y1="350.46" x2="272.22" y2="369.83"/></g><g class="cls-14"><path d="M245.05,320.14c-2,2.16-2.92,6.48-3.79,9.18C239.43,335,237.93,341,237.85,347c-.1,8.27,5.28,16.06,10.53,22.11,5,5.81,11.65,10.11,16.27,16.31a28.92,28.92,0,0,1,2.27,3.52c4,7.45,5.22,16.19,4.44,24.56,0,.4-.09,2.9-.77,2.93L225.15,418l-3.47-96.92S245.87,319.25,245.05,320.14Z"/></g><polygon class="cls-8" points="718.01 812.66 718.01 851.36 684.49 870.72 650.98 851.36 650.98 812.66 684.49 793.31 718.01 812.66"/><g class="cls-16"><line class="cls-15" x1="650.98" y1="812.66" x2="684.52" y2="832.03"/><line class="cls-11" x1="684.52" y1="832.03" x2="684.52" y2="876.93"/><line class="cls-15" x1="718.01" y1="812.66" x2="684.52" y2="832.03"/></g><g class="cls-16"><path d="M657.35,782.33c-2,2.17-2.92,6.49-3.79,9.19-1.83,5.68-3.33,11.67-3.41,17.66-.1,8.26,5.28,16.06,10.53,22.11,5,5.81,11.65,10.11,16.27,16.3a29,29,0,0,1,2.27,3.53c4,7.45,5.22,16.19,4.44,24.56,0,.4-.09,2.9-.77,2.93l-45.44,1.58L634,783.27S658.17,781.45,657.35,782.33Z"/></g><path class="cls-8" d="M355.27,844.73v-6.16h11.46V812.34a7.22,7.22,0,0,1-1.75,2.22,12.39,12.39,0,0,1-2.77,1.81,16.91,16.91,0,0,1-3.45,1.22,15.71,15.71,0,0,1-3.81.46v-6.3a15.9,15.9,0,0,0,4.06-.5,14.33,14.33,0,0,0,3.45-1.4,12.14,12.14,0,0,0,2.75-2.14,11.21,11.21,0,0,0,2-2.71H375v33.57h9.51v6.16Z"/><path class="cls-2" d="M513.06,742c-20.2-.1-70.19-6.58-108.7-63-20.7-30.33-31.64-66.32-31.64-104.06V416.81L513.06,377Z"/><path class="cls-4" d="M512.06,378.3V741c-20.65-.31-69.25-7.44-106.88-62.6-20.58-30.17-31.46-66-31.46-103.5V417.56L512.06,378.3m2-2.64L371.72,416.05V574.9a185.51,185.51,0,0,0,31.81,104.63C446.4,742.38,503.58,743,513.51,743h.55V375.66Z"/><circle class="cls-4" cx="307.91" cy="608.41" r="4.91"/><circle class="cls-4" cx="326.94" cy="608.41" r="4.91"/></g></g></g></g></svg>