<svg xmlns="http://www.w3.org/2000/svg" viewBox="0 0 200 40">
  <g fill="#293e40">
    <path d="M20 2C10.06 2 2 10.06 2 20s8.06 18 18 18 18-8.06 18-18S29.94 2 20 2zm0 28.8c-4.86 0-8.82-2.7-8.82-5.4 0-1.26.9-2.16 2.16-2.16 2.88 0 2.7 4.14 6.66 4.14 2.16 0 3.42-1.08 3.42-2.52 0-.72-.36-1.62-1.8-1.98l-4.68-1.26c-3.78-.9-4.5-3.06-4.5-5.04 0-4.14 3.78-5.76 7.38-5.76 3.24 0 8.1 1.8 8.1 4.68 0 1.44-.9 2.34-2.34 2.34-2.52 0-2.34-3.42-6.12-3.42-1.62 0-3.06.72-3.06 2.16s1.62 1.98 3.24 2.34l3.42.72c3.78.9 4.5 3.24 4.5 5.4 0 3.6-2.88 5.76-7.56 5.76z"/>
    <path d="M55.2 12.8h3.6v2.4c1.2-1.8 3-2.8 5.4-2.8 4.2 0 6.6 3 6.6 7.2v8.8h-3.6v-8.2c0-2.8-1.2-4.4-3.6-4.4-2.4 0-4.8 1.8-4.8 4.8v7.8h-3.6V12.8z"/>
    <path d="M78.2 12.4c5 0 8.4 3.6 8.4 8.2 0 4.4-3.4 8-8.4 8s-8.4-3.6-8.4-8c0-4.6 3.4-8.2 8.4-8.2zm0 12.8c2.8 0 4.8-2.2 4.8-4.6s-2-4.8-4.8-4.8-4.8 2.2-4.8 4.8c0 2.4 2 4.6 4.8 4.6z"/>
    <path d="M93.4 12.8h3.6l3.4 11.4 3.6-11.4h2.8l3.6 11.4 3.4-11.4h3.6l-5.4 15.6h-3.4l-3.4-10.8-3.4 10.8h-3.4l-5.4-15.6z"/>
    <path d="M46.8 12.4c-5 0-8.4 3.6-8.4 8.2s3.4 8 8.4 8c3 0 5.4-1.2 6.8-3.2l-2.8-1.8c-1 1.2-2.2 1.8-4 1.8-2.6 0-4.4-1.6-4.8-4h12.4c0-.4.2-.8.2-1.4 0-4.2-3.2-7.6-7.8-7.6zm-4.6 6.6c.6-2 2.2-3.4 4.6-3.4 2.2 0 3.8 1.4 4.2 3.4H42.2z"/>
    <path d="M126.4 7.2c-1.4 0-2.4-1-2.4-2.2 0-1.4 1-2.4 2.4-2.4 1.4 0 2.4 1 2.4 2.4 0 1.2-1 2.2-2.4 2.2z"/>
    <rect x="124.6" y="12.8" width="3.6" height="15.6"/>
    <path d="M136.4 12.8h3.6v2.4c1.2-1.8 3-2.8 5.4-2.8 4.2 0 6.6 3 6.6 7.2v8.8h-3.6v-8.2c0-2.8-1.2-4.4-3.6-4.4-2.4 0-4.8 1.8-4.8 4.8v7.8h-3.6V12.8z"/>
    <path d="M159 12.4c5 0 8.4 3.6 8.4 8.2 0 4.4-3.4 8-8.4 8s-8.4-3.6-8.4-8c0-4.6 3.4-8.2 8.4-8.2zm0 12.8c2.8 0 4.8-2.2 4.8-4.6s-2-4.8-4.8-4.8-4.8 2.2-4.8 4.8c0 2.4 2 4.6 4.8 4.6z"/>
    <path d="M174.2 12.8h3.6l3.4 11.4 3.6-11.4h2.8l3.6 11.4 3.4-11.4h3.6l-5.4 15.6h-3.4l-3.4-10.8-3.4 10.8h-3.4l-5.4-15.6z"/>
    <path d="M118.6 25.4l-3.6-12.6h-3.8l5.6 15.6h3.6l5.6-15.6h-3.8l-3.6 12.6z"/>
  </g>
</svg>
