<svg width="64" height="64" viewBox="0 0 64 64" fill="none" xmlns="http://www.w3.org/2000/svg">
<g clip-path="url(#clip0_26_506)">
<path fill-rule="evenodd" clip-rule="evenodd" d="M32.1951 3.31201C25.76 3.32631 19.4761 5.26442 14.1509 8.87733C8.82574 12.4902 4.70246 17.6129 2.31088 23.5871C-0.0806923 29.5613 -0.631312 36.1141 0.729772 42.4037C2.09086 48.6932 5.30147 54.4321 9.94908 58.883C11.0473 59.9314 12.4851 60.5514 14.0014 60.6303C15.5176 60.7092 17.012 60.2418 18.2131 59.313C22.1825 56.3689 26.9935 54.7795 31.9356 54.7795C36.8776 54.7795 41.6887 56.3689 45.6581 59.313C46.8701 60.2724 48.3899 60.7578 49.9336 60.6787C51.4773 60.5995 52.9395 59.9613 54.0471 58.883C58.6716 54.4555 61.8745 48.7524 63.2482 42.4993C64.622 36.2462 64.1045 29.7257 61.7616 23.7676C59.4186 17.8094 55.3563 12.6829 50.0913 9.04035C44.8263 5.39775 38.5967 3.40374 32.1951 3.31201ZM32.0151 51.587C29.8869 51.656 27.7671 51.2894 25.7856 50.5098C23.8042 49.7302 22.0029 48.554 20.4923 47.0534C18.9816 45.5528 17.7935 43.7594 17.0007 41.7832C16.208 39.8069 15.8273 37.6896 15.8821 35.561C15.81 33.4101 16.1714 31.2666 16.9448 29.2582C17.7182 27.2498 18.8877 25.4175 20.3839 23.8705C21.88 22.3234 23.672 21.0931 25.6534 20.2529C27.6348 19.4127 29.7649 18.9797 31.9171 18.9797C34.0692 18.9797 36.1994 19.4127 38.1808 20.2529C40.1621 21.0931 41.9542 22.3234 43.4503 23.8705C44.9464 25.4175 46.116 27.2498 46.8894 29.2582C47.6627 31.2666 48.0242 33.4101 47.9521 35.561C48.0088 37.681 47.633 39.7904 46.8477 41.7604C46.0624 43.7304 44.884 45.5198 43.3844 47.0194C41.8848 48.519 40.0954 49.6974 38.1254 50.4827C36.1554 51.268 34.0461 51.6437 31.9261 51.587" fill="#81B5A1"/>
</g>
<defs>
<clipPath id="clip0_26_506">
<rect width="64" height="64" fill="white"/>
</clipPath>
</defs>
</svg>
