<svg width="368" height="58" viewBox="0 0 368 58" fill="none" xmlns="http://www.w3.org/2000/svg">
<g clip-path="url(#clip0_27_577)">
<path fill-rule="evenodd" clip-rule="evenodd" d="M32.1953 0C25.7602 0.0142968 19.4764 1.95241 14.1512 5.56531C8.82598 9.17822 4.7027 14.3009 2.31113 20.2751C-0.0804482 26.2493 -0.631068 32.8021 0.730016 39.0917C2.0911 45.3812 5.30171 51.1201 9.94932 55.571C11.0476 56.6194 12.4853 57.2394 14.0016 57.3183C15.5179 57.3972 17.0122 56.9298 18.2133 56.001C22.1827 53.0569 26.9938 51.4675 31.9358 51.4675C36.8779 51.4675 41.6889 53.0569 45.6583 56.001C46.8704 56.9604 48.3901 57.4458 49.9338 57.3667C51.4776 57.2875 52.9397 56.6493 54.0473 55.571C58.6718 51.1435 61.8747 45.4404 63.2485 39.1873C64.6222 32.9342 64.1047 26.4137 61.7618 20.4556C59.4189 14.4974 55.3565 9.37093 50.0915 5.72833C44.8265 2.08574 38.5969 0.0917293 32.1953 0ZM32.0153 48.275C29.8871 48.3439 27.7673 47.9774 25.7859 47.1978C23.8044 46.4182 22.0031 45.242 20.4925 43.7414C18.9819 42.2408 17.7937 40.4474 17.001 38.4711C16.2082 36.4949 15.8275 34.3776 15.8823 32.249C15.8102 30.0981 16.1717 27.9546 16.945 25.9462C17.7184 23.9378 18.888 22.1055 20.3841 20.5584C21.8802 19.0114 23.6723 17.7811 25.6536 16.9409C27.635 16.1007 29.7652 15.6677 31.9173 15.6677C34.0695 15.6677 36.1996 16.1007 38.181 16.9409C40.1624 17.7811 41.9544 19.0114 43.4506 20.5584C44.9467 22.1055 46.1162 23.9378 46.8896 25.9462C47.663 27.9546 48.0244 30.0981 47.9523 32.249C48.009 34.369 47.6333 36.4783 46.848 38.4484C46.0627 40.4184 44.8843 42.2077 43.3847 43.7074C41.8851 45.207 40.0957 46.3854 38.1257 47.1707C36.1557 47.956 34.0463 48.3317 31.9263 48.275" fill="#6AC63F"/>
<g class="text" fill="#100F0D">
<path fill-rule="evenodd" clip-rule="evenodd" d="M149.3 20.6215C146.172 20.6215 143.507 21.7267 141.364 23.4704V20.9122H134.124V49.1111H141.654V31.0876C142.696 29.6335 145.303 27.5986 148.489 27.5986C149.623 27.5986 150.661 27.6814 151.51 28.0512V20.8147C150.791 20.6887 150.052 20.6215 149.3 20.6215Z"/>
<path fill-rule="evenodd" clip-rule="evenodd" d="M83.649 40.5064C85.5604 42.2502 88.5146 43.2965 91.3526 43.2965C93.3803 43.2965 94.9437 42.308 94.9437 40.9132C94.9437 36.6694 81.3323 38.1804 81.3323 29.1101C81.3323 23.7033 86.5453 20.3303 92.1063 20.3303C95.7552 20.3303 99.7521 21.7257 101.605 23.1794L98.0724 28.645C96.624 27.5986 94.7125 26.7262 92.6849 26.7262C90.6 26.7262 88.862 27.5403 88.862 28.9934C88.862 32.657 102.475 31.2038 102.475 40.971C102.475 46.3783 97.2031 49.6929 91.2953 49.6929C87.4135 49.6929 83.3016 48.3554 80 45.9132L83.649 40.5064Z"/>
<path fill-rule="evenodd" clip-rule="evenodd" d="M111.621 31.3778C111.969 28.8189 114.518 26.4356 117.645 26.4356C120.715 26.4356 122.974 28.8778 123.206 31.3778H111.621ZM130.909 34.7497C130.909 26.9008 125.407 20.3304 117.645 20.3304C109.305 20.3304 103.976 27.1913 103.976 35.0404C103.976 43.8783 110.289 49.6924 118.688 49.6924C123.032 49.6924 127.492 47.8903 130.215 44.634L125.929 40.3314C124.597 41.7851 122.047 43.5877 118.862 43.5877C114.865 43.5877 111.679 40.8544 111.274 36.9018H130.736C130.852 36.2617 130.909 35.5054 130.909 34.7497Z"/>
<path fill-rule="evenodd" clip-rule="evenodd" d="M169.457 38.122L177.16 20.9122H184.981L172.063 49.1111H166.85L153.933 20.9122H161.753L169.457 38.122Z"/>
<path fill-rule="evenodd" clip-rule="evenodd" d="M191.303 7.67042C194.027 7.67042 196.227 9.76362 196.227 12.496C196.227 15.2294 194.027 17.322 191.303 17.322C188.581 17.322 186.38 15.2294 186.38 12.496C186.38 9.76362 188.581 7.67042 191.303 7.67042Z"/>
<path fill-rule="evenodd" clip-rule="evenodd" d="M187.539 49.1111H195.069V20.9122H187.539V49.1111Z"/>
<path fill-rule="evenodd" clip-rule="evenodd" d="M226.203 43.3549C222.901 47.7731 218.731 49.6924 213.46 49.6924C204.771 49.6924 198.399 43.1804 198.399 35.0409C198.399 26.8418 204.945 20.3304 213.517 20.3304C218.383 20.3304 222.728 22.5981 225.333 25.9705L220.005 30.6798C218.499 28.7028 216.24 27.3076 213.517 27.3076C209.173 27.3076 205.929 30.7382 205.929 35.0409C205.929 39.459 209.115 42.7148 213.691 42.7148C216.761 42.7148 219.193 40.8544 220.411 38.9945L226.203 43.3549Z"/>
<path fill-rule="evenodd" clip-rule="evenodd" d="M246.543 31.3778C246.312 28.8778 244.052 26.4356 240.983 26.4356C237.855 26.4356 235.305 28.8189 234.959 31.3778H246.543ZM253.552 44.634C250.829 47.8903 246.369 49.6924 242.025 49.6924C233.627 49.6924 227.313 43.8783 227.313 35.0404C227.313 27.1913 232.641 20.3304 240.983 20.3304C248.744 20.3304 254.247 26.9008 254.247 34.7497C254.247 35.5054 254.189 36.2617 254.073 36.9018H234.611C235.016 40.8544 238.203 43.5877 242.199 43.5877C245.385 43.5877 247.933 41.7851 249.267 40.3314L253.552 44.634Z"/>
<path fill-rule="evenodd" clip-rule="evenodd" d="M257.24 49.1111V20.9122H264.48V23.1794C266.624 21.4355 269.288 20.3303 272.416 20.3303C276.297 20.3303 279.829 22.0742 282.147 24.8658C284.001 27.0751 285.043 29.9242 285.043 34.7496V49.1111H277.513V34.1684C277.513 31.3778 276.876 29.9242 275.833 28.8778C274.848 27.8892 273.343 27.3075 271.605 27.3075C268.419 27.3075 265.813 29.3428 264.771 30.7964V49.1111H257.24Z"/>
</g>
<path fill-rule="evenodd" clip-rule="evenodd" d="M304.336 45.0523C299.463 45.0523 296.127 41.3825 296.127 36.8434C296.127 32.3022 299.463 28.571 304.336 28.571C309.212 28.571 312.545 32.3022 312.545 36.8434C312.545 41.3825 309.212 45.0523 304.336 45.0523ZM304.432 20.3309C295.435 20.2789 287.993 27.6413 287.917 36.6726C287.879 41.4533 289.868 45.7695 293.075 48.8043C294.241 49.9075 296.044 50.0148 297.308 49.0283C299.177 47.5689 301.577 46.6997 304.336 46.6997C307.095 46.6997 309.495 47.5695 311.364 49.0283C312.64 50.0231 314.449 49.8955 315.623 48.7804C318.783 45.7767 320.756 41.5241 320.756 36.8116C320.756 27.7423 313.455 20.383 304.432 20.3309Z" fill="#6AC63F"/>
<g class="text" fill="#100F0D">
<path fill-rule="evenodd" clip-rule="evenodd" d="M335.656 49.1111H330.048L318.865 20.9122H326.384L332.515 37.0272L338.527 20.9122H344.811L350.768 37.0272L356.953 20.9122H364.472L353.289 49.1111H347.681L341.669 33.0538L335.656 49.1111Z"/>
<path d="M363.924 45.4495H364.695C364.98 45.4495 365.211 45.2068 365.211 44.9027C365.211 44.5943 364.98 44.3553 364.695 44.3553H363.924V45.4495ZM364.56 45.9313H363.924V47.124H363.387V43.8506H364.695C365.28 43.8506 365.747 44.3183 365.747 44.9027C365.747 45.324 365.481 45.6975 365.097 45.8516L365.841 47.124H365.252L364.56 45.9313Z"/>
<path d="M364.489 42.0329C362.551 42.0329 360.979 43.6042 360.979 45.5433C360.979 47.4818 362.551 49.0537 364.489 49.0537C366.428 49.0537 368 47.4818 368 45.5433C368 43.6042 366.428 42.0329 364.489 42.0329ZM364.489 42.5126C366.16 42.5126 367.52 43.8719 367.52 45.5433C367.52 47.2141 366.16 48.574 364.489 48.574C362.819 48.574 361.459 47.2141 361.459 45.5433C361.459 43.8719 362.819 42.5126 364.489 42.5126Z"/>
</g>
</g>
<defs>
<clipPath id="clip0_27_577">
<rect width="368" height="57.375" fill="white"/>
</clipPath>
</defs>
</svg>
