<svg viewBox="0 0 191 55" xmlns="http://www.w3.org/2000/svg" fill-rule="evenodd" clip-rule="evenodd" stroke-linejoin="round" stroke-miterlimit="2"><g fill-rule="nonzero"><path d="M34.306 4.855a4.76 4.76 0 00-5.947-3.032 4.744 4.744 0 00-3.038 5.933l12.198 37.418c.824 2.295 3.342 3.594 5.73 2.9 2.517-.735 4.037-3.377 3.212-5.802 0-.086-12.155-37.417-12.155-37.417z" fill="#ecb32d"/><path d="M15.424 10.96a4.76 4.76 0 00-5.948-3.03 4.743 4.743 0 00-3.038 5.933L18.636 51.28c.825 2.295 3.342 3.595 5.73 2.902 2.518-.737 4.037-3.378 3.212-5.804 0-.086-12.154-37.417-12.154-37.417z" fill="#63c1a0"/><path d="M49.673 35.819a4.744 4.744 0 003.039-5.933 4.76 4.76 0 00-5.947-3.031L9.215 39.067c-2.3.823-3.602 3.335-2.907 5.717.738 2.512 3.386 4.028 5.816 3.205.087 0 37.549-12.17 37.549-12.17z" fill="#e01a59"/><path d="M17.03 46.43c2.43-.78 5.599-1.82 8.985-2.902-.781-2.425-1.823-5.587-2.908-8.964l-8.986 2.9 2.909 8.966z" fill="#331433"/><path d="M35.956 40.28c3.386-1.083 6.555-2.122 8.986-2.902-.782-2.425-1.823-5.586-2.91-8.964l-8.984 2.902 2.908 8.964z" fill="#d62027"/><path d="M43.509 16.98a4.744 4.744 0 003.039-5.932A4.76 4.76 0 0040.6 8.016L3.095 20.186c-2.3.822-3.603 3.334-2.908 5.716.738 2.512 3.386 4.028 5.817 3.205.087 0 37.505-12.126 37.505-12.126z" fill="#89d3df"/><path d="M10.909 27.548c2.43-.78 5.6-1.82 8.986-2.902-1.086-3.378-2.127-6.54-2.91-8.964l-8.984 2.9 2.908 8.966z" fill="#258b74"/><path d="M29.792 21.44c3.386-1.081 6.555-2.121 8.986-2.9-1.086-3.378-2.127-6.54-2.91-8.965l-8.984 2.902 2.908 8.964z" fill="#819c3c"/></g><g fill="#2d333a" fill-rule="nonzero"><path d="M87.7 14.685c1.649.736 1.779 1.256.477 3.724-1.346 2.512-1.65 2.685-3.3 2.036-2.04-.866-4.687-1.516-6.38-1.516-2.778 0-4.601.996-4.601 2.512 0 4.98 15.887 2.295 15.887 12.862 0 5.327-4.601 8.878-11.46 8.878-3.603 0-8.074-1.213-11.156-2.772-1.52-.779-1.65-1.212-.304-3.767 1.129-2.209 1.52-2.469 3.169-1.776 2.605 1.126 5.947 2.035 8.16 2.035 2.519 0 4.212-1.039 4.212-2.51 0-4.808-16.192-2.513-16.192-12.777 0-5.457 4.558-9.094 11.373-9.094 3.299-.044 7.336.91 10.115 2.165zM100.549 2.126v39.496c0 .606-.651 1.212-1.52 1.212h-4.167c-.911 0-1.52-.649-1.52-1.212V2.126c0-1.949.565-2.122 3.604-2.122 3.473-.044 3.603.216 3.603 2.122zM130.154 24.3v17.02c0 .908-.651 1.514-1.52 1.514h-4.123c-.955 0-1.607-.692-1.52-1.645l.044-1.819c-2.214 2.468-5.426 3.768-8.64 3.768-6.206 0-10.374-3.595-10.374-8.922 0-5.673 4.689-9.527 11.764-9.527 2.692 0 5.123.476 7.119 1.3v-1.95c0-3.118-2.474-4.98-6.685-4.98-1.953 0-4.384.78-6.294 1.905-1.476.823-1.823.78-3.43-1.602-1.562-2.382-1.52-2.815 0-3.81 2.909-1.863 6.816-3.076 10.419-3.076 8.117 0 13.24 4.374 13.24 11.823zm-19.187 9.873c0 2.035 1.736 3.378 4.297 3.378 3.126 0 5.99-1.516 7.64-4.07v-2.643c-1.65-.649-3.69-.996-5.47-.996-3.906 0-6.467 1.82-6.467 4.331zM158.37 14.728c1.519.866 1.562 1.343-.087 3.898-1.563 2.425-1.823 2.555-3.516 1.732-1.26-.65-3.3-1.213-4.95-1.213-5.208 0-8.681 3.422-8.681 8.62 0 5.37 3.473 9.006 8.682 9.006 1.823 0 4.08-.692 5.556-1.515 1.52-.866 1.824-.823 3.43 1.515 1.432 2.166 1.432 2.686.13 3.595-2.344 1.602-5.99 2.815-9.246 2.815-9.637 0-16.105-6.15-16.105-15.417 0-9.18 6.468-15.288 16.192-15.288 2.95 0 6.424.996 8.595 2.252zM189.885 39.11c1.215 1.516.738 2.08-2.301 3.161-3.082 1.126-3.516 1.04-4.601-.346l-8.64-11.476-3.862 3.724v7.45c0 .605-.651 1.211-1.52 1.211h-4.167c-.911 0-1.52-.649-1.52-1.212V2.126c0-1.949.565-2.122 3.604-2.122 3.516 0 3.603.26 3.603 2.122V24.56l11.807-11.303c1.302-1.213 2.04-1.126 4.34.39 2.562 1.645 2.736 2.122 1.52 3.291l-8.768 8.575 10.505 13.598z"/></g></svg>