<svg height="128" viewBox="0 0 376 128" width="376" xmlns="http://www.w3.org/2000/svg"><g fill="none" transform="translate(90 43)"><g transform="translate(0 1.732283)"><path d="m34.6404545 3.50787402c-.8247727-2.46850394-3.4727272-3.81102363-5.9470454-3.03149607-2.4743182.82283465-3.82 3.46456693-3.0386364 5.93307087l12.1979546 37.41732288c.8247727 2.2952755 3.3425 3.5944881 5.73 2.9015748 2.5177272-.7362205 4.0370454-3.3779528 3.2122727-5.8031496 0-.0866142-12.1545455-37.41732288-12.1545455-37.41732288z" fill="#ecb32d"/><path d="m15.7575 9.61417323c-.8247727-2.46850394-3.4727273-3.81102362-5.94704545-3.03149606-2.47431819.82283464-3.82 3.46456693-3.03863637 5.93307083l12.19795452 37.4173229c.8247728 2.2952756 3.3425 3.5944882 5.73 2.9015748 2.5177273-.7362205 4.0370455-3.3779528 3.2122728-5.8031496 0-.0866142-12.1545455-37.41732287-12.1545455-37.41732287z" fill="#63c1a0"/><path d="m50.0072727 34.4724409c2.4743182-.8228346 3.82-3.4645669 3.0386364-5.9330708-.8247727-2.468504-3.4727273-3.8110236-5.9470455-3.0314961l-37.5488636 12.2125984c-2.30068182.8228347-3.60295455 3.3346457-2.90840909 5.7165355.73795454 2.511811 3.38590909 4.027559 5.81681819 3.2047244.0868182 0 37.5488636-12.1692914 37.5488636-12.1692914z" fill="#e01a59"/><path d="m17.3636364 45.0826772c2.4309091-.7795276 5.5997727-1.8188977 8.9856818-2.9015748-.7813637-2.4251969-1.8231818-5.5866142-2.9084091-8.964567l-8.9856818 2.9015748z" fill="#331433"/><path d="m36.29 38.9330709c3.3859091-1.0826772 6.5547727-2.1220473 8.9856818-2.9015748-.7813636-2.4251969-1.8231818-5.5866142-2.9084091-8.964567l-8.9856818 2.9015748z" fill="#d62027"/><path d="m43.8431818 15.6338583c2.4743182-.8228347 3.82-3.464567 3.0386364-5.9330709-.8247727-2.46850394-3.4727273-3.81102362-5.9470455-3.03149606l-37.50545452 12.16929136c-2.30068182.8228346-3.60295454 3.3346456-2.90840909 5.7165354.73795455 2.511811 3.38590909 4.0275591 5.81681818 3.2047244.08681818 0 37.50545453-12.1259842 37.50545453-12.1259842z" fill="#89d3df"/><path d="m11.2429545 26.2007874c2.4309091-.7795276 5.5997728-1.8188976 8.9856819-2.9015748-1.0852273-3.3779528-2.1270455-6.5393701-2.9084091-8.9645669l-8.98568185 2.9015748z" fill="#258b74"/><path d="m30.1259091 20.0944882c3.3859091-1.0826772 6.5547727-2.1220473 8.9856818-2.9015748-1.0852273-3.3779528-2.1270454-6.5393701-2.9084091-8.96456694l-8.9856818 2.90157484z" fill="#819c3c"/></g><g fill="#2d333a"><path d="m88.0336364 15.0708661c1.6495454.7362205 1.7797727 1.2559056.4775 3.7244095-1.3456819 2.511811-1.6495455 2.6850394-3.2990909 2.0354331-2.0402273-.8661418-4.6881819-1.5157481-6.3811364-1.5157481-2.7781818 0-4.6013636.996063-4.6013636 2.5118111 0 4.9803149 15.8877272 2.2952755 15.8877272 12.8622047 0 5.3267716-4.6013636 8.8779527-11.46 8.8779527-3.6029545 0-8.0740909-1.2125984-11.1561363-2.7716535-1.5193182-.7795276-1.6495455-1.2125984-.3038637-3.7677165 1.1286364-2.2086615 1.5193182-2.468504 3.1688637-1.7755906 2.6045454 1.1259843 5.9470454 2.0354331 8.1609091 2.0354331 2.5177272 0 4.2106818-1.0393701 4.2106818-2.511811 0-4.8070867-16.1915909-2.5118111-16.1915909-12.7755906 0-5.4566929 4.5579545-9.0944882 11.3731818-9.0944882 3.2990909-.0433071 7.3361363.9094488 10.1143182 2.1653543z"/><path d="m100.882727 2.51181102v39.49606298c0 .6062992-.651136 1.2125984-1.5193179 1.2125984h-4.1672727c-.9115909 0-1.5193182-.6496063-1.5193182-1.2125984v-39.49606298c0-1.94881889.5643182-2.12204724 3.6029545-2.12204724 3.4727273-.04330709 3.6029543.21653543 3.6029543 2.12204724z"/><path d="m130.487727 24.6850394v17.019685c0 .9094488-.651136 1.515748-1.519318 1.515748h-4.123864c-.955 0-1.606136-.6929133-1.519318-1.6456693l.043409-1.8188976c-2.213863 2.4685039-5.426136 3.7677165-8.638409 3.7677165-6.2075 0-10.374772-3.5944881-10.374772-8.9212598 0-5.6732283 4.688181-9.5275591 11.763863-9.5275591 2.691364 0 5.122273.476378 7.119091 1.2992126v-1.9488188c0-3.1181103-2.474318-4.980315-6.685-4.980315-1.953409 0-4.384318.7795275-6.294318 1.9055118-1.475909.8228346-1.823182.7795276-3.429318-1.6023622-1.562728-2.3818898-1.519318-2.8149606 0-3.8110236 2.908409-1.8622048 6.815227-3.0748032 10.418182-3.0748032 8.1175 0 13.239772 4.3740158 13.239772 11.8228347zm-19.186818 9.8740157c0 2.0354331 1.736364 3.3779528 4.2975 3.3779528 3.125455 0 5.990455-1.5157481 7.64-4.0708662v-2.6417323c-1.649545-.6496063-3.689773-.9960629-5.469545-.9960629-3.906819 0-6.467955 1.8188976-6.467955 4.3307086z"/><path d="m158.703636 15.1141732c1.519319.8661418 1.562728 1.3425197-.086818 3.8976378-1.562727 2.4251969-1.823182 2.5551181-3.516136 1.7322835-1.258864-.6496063-3.299091-1.2125984-4.948637-1.2125984-5.20909 0-8.681818 3.4212598-8.681818 8.6181102 0 5.3700787 3.472728 9.007874 8.681818 9.007874 1.823182 0 4.080455-.6929134 5.556364-1.515748 1.519318-.8661417 1.823182-.8228347 3.429318 1.515748 1.4325 2.1653543 1.4325 2.6850394.130228 3.5944882-2.344091 1.6023622-5.990455 2.8149606-9.246137 2.8149606-9.636818 0-16.104773-6.1496063-16.104773-15.4173228 0-9.1811024 6.467955-15.2874016 16.191591-15.2874016 2.951819 0 6.424546.996063 8.595 2.2519685z"/><path d="m190.218636 39.496063c1.215455 1.515748.737955 2.0787401-2.300681 3.1614173-3.082046 1.1259843-3.516137 1.0393701-4.601364-.3464567l-8.638409-11.4763779-3.863409 3.7244094v7.4488189c0 .6062992-.651137 1.2125984-1.519318 1.2125984h-4.167273c-.911591 0-1.519318-.6496063-1.519318-1.2125984v-39.49606298c0-1.94881889.564318-2.12204724 3.602954-2.12204724 3.516137 0 3.602955.25984252 3.602955 2.12204724v22.43307088l11.807272-11.3031496c1.302273-1.2125984 2.040228-1.1259843 4.34091.3897638 2.561136 1.6456693 2.734772 2.1220472 1.519318 3.2913385l-8.768637 8.5748032z"/></g></g></svg>