<svg viewBox="0 0 184 55" xmlns="http://www.w3.org/2000/svg" fill-rule="evenodd" clip-rule="evenodd" stroke-linejoin="round" stroke-miterlimit="2"><path d="M16.697 18.118s-1.501-1.524-4.513-1.524c-1.79 0-3.566.865-3.528 2.68.082 3.816 10.889 6.875 10.88 13.101 0 1.167.679 8.446-10.617 8.987-.216.01-4.496.244-8.92-3.167l2.362-3.898c4.287 3.438 5.744 2.711 6.087 2.698 3.799-.145 3.753-2.788 3.736-3.515-.11-4.543-10.881-6.708-10.646-13.629.18-5.303 5.282-7.434 9.439-7.434 4.49 0 7.963 2.164 7.963 2.164l-2.243 3.537z"/><path d="M40.214 12.417c-7.96-.256-10.167 4.8-10.167 4.8l.036-4.224h-7.235v41.58h7.235l-.072-17.65s2.93 4.446 8.303 4.446c10.257 0 13.513-9.48 13.513-14.787 0-5.865-2.677-13.877-11.613-14.165zm-3.17 24.614c-4.862 0-7.04-4.533-7.04-10.124 0-5.59 2.322-10.124 7.04-10.124 5.159 0 7.04 4.533 7.04 10.124 0 5.143-2.28 10.124-7.04 10.124z" fill-rule="nonzero"/><path d="M54.974 0h7.453v40.713h-7.453zM74.439 30.246s-.507 6.1 5.499 6.063c.528-.003 6.078.397 6.269-7.363l-.01-15.953h7.272v27.72h-7.262l-.01-3.718c-3.98 4.62-8.968 4.367-9.226 4.367-9.913.004-9.913-8.95-9.913-8.95V12.992h7.38v17.253zM117.636 23.463s.507-6.1-5.5-6.064c-.527.003-6.077-.397-6.268 7.363l.01 15.953h-7.272V12.996h7.262l.01 3.717c3.98-4.62 8.967-4.367 9.226-4.367 9.913-.004 9.913 8.951 9.913 8.951v19.418h-7.381V23.463zM137.354 40.715h-7.272V0h7.272v23.947l.759.001 9.913-11.352 5.499 2.382-9.37 10.034 11.107 13.896-6.838 2.274-10.84-15.06-.23-.009v14.602z"/><g><path d="M183.77 28.982L161.667 39.81v-4.728l17.257-8.5-17.257-8.283v-4.945l22.105 11.044v4.584z" fill="#6ab361"/></g></svg>