<svg version="1.1" viewBox="0.0 0.0 423.9265091863517 101.89238845144357" fill="none" stroke="none" stroke-linecap="square" stroke-miterlimit="10" xmlns:xlink="http://www.w3.org/1999/xlink" xmlns="http://www.w3.org/2000/svg"><clipPath id="p.0"><path d="m0 0l423.9265 0l0 101.89239l-423.9265 0l0 -101.89239z" clip-rule="nonzero"/></clipPath><g clip-path="url(#p.0)"><path fill="#000000" fill-opacity="0.0" d="m0 0l423.9265 0l0 101.89239l-423.9265 0z" fill-rule="evenodd"/><path fill="#000000" fill-opacity="0.0" d="m0 0l655.40155 0l0 88.88189l-655.40155 0z" fill-rule="evenodd"/><path fill="#000000" d="m46.375 47.58687q-1.90625 8.328125 -7.671875 13.34375q-5.859375 5.046875 -13.71875 5.046875q-7.453125 0 -11.171875 -3.9375q-3.71875 -3.9375 -3.71875 -11.796875q0 -7.171875 3.515625 -14.703125q3.53125 -7.53125 9.078125 -12.203125q3.890625 -3.265625 8.34375 -3.265625q2.71875 0 7.390625 1.953125q5.546875 2.328125 5.546875 4.953125q0 1.515625 -1.15625 2.703125q-1.140625 1.1875 -2.828125 1.1875q-0.84375 0 -3.71875 -1.578125q-2.859375 -1.578125 -5.234375 -1.578125q-2.515625 0 -6.796875 5.421875q-6.25 7.890625 -6.25 17.109375q0 4.671875 1.375 6.34375q1.453125 1.765625 5.625 1.765625q4.28125 0 7.53125 -2.4375q3.4375 -2.5625 5.09375 -7.5q-6.5 0.515625 -11.3125 2.671875q-0.859375 0.390625 -1.734375 0.390625q-1.734375 0 -2.875 -1.296875q-1.046875 -1.140625 -1.046875 -2.59375q0 -4.296875 10.140625 -6.0q5.703125 -0.953125 13.328125 -0.953125q1.671875 0 2.796875 1.09375q1.140625 1.09375 1.140625 2.6875q0 2.046875 -1.671875 3.171875zm28.605835 18.296875q-1.296875 0 -4.09375 -2.796875q-2.578125 1.234375 -4.53125 1.859375q-1.953125 0.640625 -3.328125 0.640625q-6.75 0 -10.125 -3.609375q-3.375 -3.625 -3.375 -10.8125q0 -6.75 4.984375 -11.546875q4.984375 -4.796875 11.921875 -4.796875q2.671875 0 6.171875 1.5q4.21875 1.828125 4.21875 4.234375q0 1.0 -0.640625 1.765625q-0.28125 1.109375 -0.4375 2.8125q-0.15625 1.6875 -0.15625 3.953125q0 5.359375 0.765625 7.703125q0.078125 0.25 1.28125 2.90625q1.09375 2.40625 1.09375 2.75q0 1.484375 -1.140625 2.453125q-1.125 0.984375 -2.609375 0.984375zm-6.9375 -19.203125q0 -0.890625 0.125 -2.046875q0.125 -1.171875 0.375 -2.59375q-0.5625 -0.28125 -1.0 -0.40625q-0.4375 -0.125 -0.734375 -0.125q-3.8125 0 -6.671875 2.984375q-2.84375 2.96875 -2.84375 6.890625q0 3.75 1.34375 5.640625q1.34375 1.890625 4.03125 1.890625q1.734375 0 3.28125 -0.5625q1.546875 -0.578125 2.921875 -1.703125q-0.828125 -6.65625 -0.828125 -9.96875zm29.667679 15.28125q-0.140625 1.40625 -1.15625 2.296875q-1.0 0.90625 -2.484375 0.90625q-2.828125 0 -4.0 -2.921875q-3.03125 -7.546875 -9.265625 -22.5625q-0.375 -0.828125 -0.375 -1.59375q0 -1.5 1.21875 -2.546875q1.21875 -1.0625 2.796875 -1.0625q2.40625 0 3.4375 2.21875q1.59375 3.375 6.21875 15.84375q1.484375 -3.171875 4.078125 -9.640625q0.78125 -2.15625 2.4375 -6.015625q1.15625 -2.234375 3.46875 -2.234375q1.578125 0 2.78125 1.03125q1.21875 1.03125 1.21875 2.578125q0 1.015625 -4.53125 11.078125q-3.6875 8.234375 -5.84375 12.625zm24.38028 3.734375q-5.1875 0 -8.90625 -3.5625q-4.078125 -3.890625 -4.28125 -10.375q-0.203125 -6.1875 3.390625 -11.03125q4.25 -5.71875 11.84375 -5.71875q5.59375 0 8.890625 4.484375q2.96875 4.03125 2.96875 9.984375q0 6.5 -3.46875 11.09375q-3.890625 5.125 -10.4375 5.125zm1.671875 -23.296875q-3.4375 -0.03125 -5.421875 3.140625q-1.6875 2.65625 -1.6875 6.21875q0 3.359375 1.90625 5.140625q1.515625 1.4375 3.53125 1.4375q2.4375 0 4.21875 -1.65625q2.046875 -1.9375 2.1875 -5.234375q0.359375 -9.015625 -4.734375 -9.046875zm77.598526 -3.015625q-2.9375 10.96875 -5.90625 19.921875q-0.84375 2.515625 -2.75 5.1875q-1.328125 1.84375 -3.578125 1.8125q-3.53125 -0.046875 -5.546875 -6.796875q-0.75 -2.578125 -1.78125 -9.609375q-0.59375 1.234375 -0.734375 1.65625q-1.453125 3.46875 -4.25 10.78125q-0.421875 1.171875 -1.265625 1.875q-1.171875 1.875 -3.5 1.953125q-1.3125 0.0625 -2.765625 -2.34375q-1.546875 -2.4375 -2.484375 -6.28125q-0.875 -3.46875 -2.6875 -15.109375q-0.40625 -2.515625 -0.40625 -3.953125q0 -1.53125 1.15625 -2.546875q1.171875 -1.03125 2.796875 -1.03125q3.03125 0 3.71875 3.0q0.375 1.5625 0.625 3.859375q0.328125 3.296875 0.421875 3.890625q0.359375 2.1875 1.109375 7.140625q2.078125 -5.6875 4.765625 -14.140625q1.140625 -3.640625 4.3125 -3.640625q3.109375 0 4.078125 4.0625q0.703125 2.859375 1.484375 7.421875q1.15625 6.625 1.40625 7.890625q0.25 -0.875 4.390625 -17.015625q0.625 -2.40625 3.5 -2.40625q1.59375 0 2.8125 1.03125q1.21875 1.03125 1.21875 2.578125q0 0.28125 -0.140625 0.8125zm14.951523 26.3125q-5.1875 0 -8.90625 -3.5625q-4.078125 -3.890625 -4.28125 -10.375q-0.203125 -6.1875 3.390625 -11.03125q4.25 -5.71875 11.84375 -5.71875q5.59375 0 8.890625 4.484375q2.96875 4.03125 2.96875 9.984375q0 6.5 -3.46875 11.09375q-3.890625 5.125 -10.4375 5.125zm1.671875 -23.296875q-3.4375 -0.03125 -5.421875 3.140625q-1.6875 2.65625 -1.6875 6.21875q0 3.359375 1.90625 5.140625q1.515625 1.4375 3.53125 1.4375q2.4375 0 4.21875 -1.65625q2.046875 -1.9375 2.1875 -5.234375q0.359375 -9.015625 -4.734375 -9.046875zm41.007034 0.25q-2.375 2.6875 -5.734375 7.25q-4.671875 6.328125 -5.8125 7.78125q1.703125 -0.046875 2.8125 -0.046875q1.125 0 3.265625 0.40625q2.140625 0.40625 3.234375 0.40625q1.6875 0 2.78125 1.046875q1.109375 1.046875 1.109375 2.640625q0 1.59375 -1.09375 2.625q-1.09375 1.046875 -2.796875 1.046875q-1.125 0 -3.265625 -0.390625q-2.140625 -0.390625 -3.234375 -0.390625q-6.265625 0 -11.71875 1.03125q-0.734375 0.140625 -1.234375 0.140625q-1.546875 0 -2.625 -0.84375q-1.234375 -0.921875 -1.234375 -2.4375q0 -1.78125 1.765625 -3.265625q6.96875 -5.90625 14.578125 -17.28125q-1.734375 0.09375 -3.328125 0.09375q-4.28125 0 -8.6875 -0.625q-3.4375 -0.46875 -3.4375 -3.640625q0 -1.53125 1.0625 -2.625q1.0625 -1.09375 2.71875 -1.09375q1.375 0 4.15625 0.296875q2.78125 0.296875 4.1875 0.296875q1.90625 0 5.703125 -0.234375q3.8125 -0.25 5.71875 -0.25q3.5 0 3.5 2.859375q0 2.515625 -2.390625 5.203125zm45.751465 22.671875q-6.703125 0 -10.953125 -3.1875q-4.703125 -3.53125 -4.703125 -9.9375q0 -7.078125 3.71875 -11.984375q4.15625 -5.421875 11.171875 -5.421875q4.875 0 8.09375 1.5625q4.234375 2.078125 4.234375 6.4375q0 3.078125 -3.453125 5.46875q-1.5625 1.078125 -6.296875 3.1875l-9.4375 4.171875q1.34375 1.453125 3.25 2.1875q1.90625 0.71875 4.375 0.71875q3.75 0 6.34375 -1.53125q2.328125 -1.375 3.734375 -1.375q2.90625 0 2.90625 2.828125q0 3.1875 -4.671875 5.203125q-3.921875 1.671875 -8.3125 1.671875zm-0.765625 -23.765625q-2.59375 0 -4.453125 1.75q-1.84375 1.734375 -2.953125 5.203125q3.15625 -1.375 6.296875 -2.71875q3.765625 -1.703125 6.015625 -3.171875q-1.875 -1.0625 -4.90625 -1.0625zm42.160522 2.296875q-0.25 4.28125 -3.890625 4.28125q-3.53125 0 -3.53125 -3.625l-0.140625 -2.828125q-6.296875 1.0 -9.015625 6.453125l0.03125 14.09375q0 1.59375 -1.09375 2.640625q-1.09375 1.046875 -2.765625 1.046875q-1.734375 0 -2.6875 -1.125q-0.890625 -1.0 -0.890625 -2.5625l0 -18.34375q0 -0.859375 0.046875 -2.578125q0.0625 -1.734375 0.0625 -2.59375q0 -1.578125 0.9375 -2.625q0.9375 -1.046875 2.671875 -1.046875q3.109375 0 3.6875 3.1875q4.96875 -3.6875 11.015625 -3.6875q5.59375 0 5.59375 7.4375q0 1.4375 -0.03125 1.875zm18.200623 21.46875q-6.703125 0 -10.953125 -3.1875q-4.703125 -3.53125 -4.703125 -9.9375q0 -7.078125 3.71875 -11.984375q4.15625 -5.421875 11.171875 -5.421875q4.875 0 8.09375 1.5625q4.234375 2.078125 4.234375 6.4375q0 3.078125 -3.453125 5.46875q-1.5625 1.078125 -6.296875 3.1875l-9.4375 4.171875q1.34375 1.453125 3.25 2.1875q1.90625 0.71875 4.375 0.71875q3.75 0 6.34375 -1.53125q2.328125 -1.375 3.734375 -1.375q2.90625 0 2.90625 2.828125q0 3.1875 -4.671875 5.203125q-3.921875 1.671875 -8.3125 1.671875zm-0.765625 -23.765625q-2.59375 0 -4.453125 1.75q-1.84375 1.734375 -2.953125 5.203125q3.15625 -1.375 6.296875 -2.71875q3.765625 -1.703125 6.015625 -3.171875q-1.875 -1.0625 -4.90625 -1.0625zm22.629272 14.171875q-1.578125 0 -2.609375 -0.96875q-1.015625 -0.984375 -1.015625 -2.46875q0 -1.09375 -0.078125 -3.265625q-0.0625 -2.171875 -0.0625 -3.265625q0 -3.859375 0.0625 -11.578125q0.078125 -7.734375 0.078125 -11.59375q0 -1.484375 1.03125 -2.46875q1.046875 -1.0 2.59375 -1.0q1.53125 0 2.5625 1.0q1.046875 0.984375 1.046875 2.46875l0 29.703125q0 1.484375 -1.03125 2.46875q-1.015625 0.96875 -2.578125 0.96875zm-0.09375 10.15625q-1.671875 0 -3.125 -1.78125q-1.328125 -1.65625 -1.328125 -3.078125q0 -1.46875 1.140625 -2.4375q1.15625 -0.984375 2.609375 -0.984375q1.6875 0 3.109375 1.796875q1.3125 1.640625 1.3125 3.046875q0 1.421875 -1.140625 2.421875q-1.125 1.015625 -2.578125 1.015625z" fill-rule="nonzero"/></g></svg>