<svg width="196px" height="32px" viewBox="0 0 64 12" fill="#FFFFFF" xmlns="http://www.w3.org/2000/svg">
<path d="M28.447 4.655a1.504 1.504 0 0 0-1.343-.702c-.182 0-.363.025-.539.076a1.46 1.46 0 0 0-.475.233 1.153 1.153 0 0 0-.35.407 1.27 1.27 0 0 0-.126.586c-.017.28.08.555.266.76.19.189.413.34.657.443.28.122.566.225.857.31.298.085.586.207.857.363.259.15.483.358.657.607.192.305.285.666.266 1.03a1.89 1.89 0 0 1-.2.88 2.01 2.01 0 0 1-.527.657c-.221.178-.47.316-.735.408-.263.093-.54.141-.818.142a2.996 2.996 0 0 1-1.21-.251 2.32 2.32 0 0 1-.976-.819l.647-.48c.151.266.367.486.626.637.29.166.617.249.948.24.18-.001.357-.03.528-.087.17-.056.33-.142.472-.255.142-.112.26-.251.35-.41.093-.171.14-.365.136-.56a1.19 1.19 0 0 0-.15-.626 1.339 1.339 0 0 0-.402-.419 2.511 2.511 0 0 0-.567-.28l-.657-.225a5.881 5.881 0 0 1-.658-.255 2.254 2.254 0 0 1-.566-.363 1.613 1.613 0 0 1-.403-.55 1.987 1.987 0 0 1-.15-.828c-.006-.314.06-.624.192-.906.122-.25.297-.469.511-.64.216-.166.46-.29.72-.363a2.946 2.946 0 0 1 1.889.072c.346.15.653.384.892.684l-.62.484zM32.745 6.516h-1.322v2.811a1.58 1.58 0 0 0 .052.433.618.618 0 0 0 .137.258c.058.06.13.105.21.127a.96.96 0 0 0 .269.037c.118 0 .236-.017.35-.051.111-.031.22-.075.321-.131l.028.622a2.005 2.005 0 0 1-.87.174 1.57 1.57 0 0 1-.389-.05.898.898 0 0 1-.37-.2 1.064 1.064 0 0 1-.273-.386 1.604 1.604 0 0 1-.112-.64V6.516h-.969v-.61h.969V4.56h.647v1.345h1.322v.611zM36.564 7.75v-.114c0-.821-.392-1.232-1.175-1.232a1.982 1.982 0 0 0-1.4.56l-.39-.48c.43-.461 1.076-.691 1.937-.691.217-.001.433.033.64.102.2.054.385.152.545.287.15.147.27.325.35.523.096.238.143.495.136.753v2.127a8.61 8.61 0 0 0 .077 1.07h-.626a5.497 5.497 0 0 1-.045-.364 2.25 2.25 0 0 1 0-.396h-.021c-.16.288-.391.526-.672.687a1.97 1.97 0 0 1-.944.207 2.05 2.05 0 0 1-.587-.087 1.48 1.48 0 0 1-.504-.266 1.335 1.335 0 0 1-.35-.436 1.318 1.318 0 0 1-.133-.607 1.34 1.34 0 0 1 .29-.913c.197-.219.442-.383.714-.48.3-.11.613-.18.93-.204.33-.026.631-.04.906-.04l.322-.007zm-.35.548a9.13 9.13 0 0 0-.612.026 3.42 3.42 0 0 0-.7.123c-.21.058-.406.16-.576.302a.696.696 0 0 0-.242.56.792.792 0 0 0 .343.68c.107.073.225.124.35.153.127.03.257.047.388.047.21.005.419-.037.612-.124.338-.151.594-.45.7-.818.056-.193.084-.394.083-.596v-.364l-.346.011zM42.048 7.025a1.422 1.422 0 0 0-.465-.447 1.276 1.276 0 0 0-.682-.182 1.639 1.639 0 0 0-.72.131 1.576 1.576 0 0 0-.89.99 2.51 2.51 0 0 0 0 1.516c.076.225.195.432.35.607a1.636 1.636 0 0 0 1.277.542c.239.005.475-.058.682-.182a1.4 1.4 0 0 0 .465-.447l.528.418c-.21.263-.474.473-.773.614a2.248 2.248 0 0 1-.902.208 2.472 2.472 0 0 1-1.007-.178 2.225 2.225 0 0 1-.77-.524 2.25 2.25 0 0 1-.486-.8 3.109 3.109 0 0 1 0-2.007c.106-.3.271-.573.486-.8.22-.228.481-.407.77-.524.32-.13.663-.19 1.007-.178.311.005.618.076.902.207.3.142.563.352.773.615l-.545.421zM44.066 8.055l2.164-2.15h.983l-2.28 2.182 2.525 2.586h-1l-2.392-2.506v2.506h-.647V2.975h.647zM49.091 10.673h-.7V3.462h2.134a2.64 2.64 0 0 1 1.668.48c.424.35.653.894.612 1.454a1.86 1.86 0 0 1-.454 1.27 1.92 1.92 0 0 1-1.319.596l1.997 3.422h-.86l-1.9-3.35h-1.174l-.004 3.339zm0-4.022h1.252c.27.006.538-.029.798-.102a1.46 1.46 0 0 0 .524-.269.984.984 0 0 0 .283-.396c.06-.158.09-.326.088-.495a1.336 1.336 0 0 0-.088-.484 1.02 1.02 0 0 0-.283-.403 1.378 1.378 0 0 0-.524-.27 2.855 2.855 0 0 0-.798-.097h-1.252V6.65zM58.586 8.287a2.69 2.69 0 0 1-.182.997 2.32 2.32 0 0 1-1.273 1.32 2.504 2.504 0 0 1-.982.189 2.477 2.477 0 0 1-.976-.19 2.32 2.32 0 0 1-1.273-1.32 2.84 2.84 0 0 1 0-1.996 2.32 2.32 0 0 1 1.273-1.32c.31-.128.642-.192.976-.189.336-.004.67.06.982.19a2.32 2.32 0 0 1 1.273 1.323c.123.316.185.655.182.996zm-.7 0c0-.248-.04-.494-.122-.727a1.833 1.833 0 0 0-.35-.6 1.645 1.645 0 0 0-.545-.415 1.829 1.829 0 0 0-1.44 0c-.2.095-.377.231-.522.4a1.833 1.833 0 0 0-.35.6 2.32 2.32 0 0 0 0 1.488c.078.221.197.425.35.6.15.172.334.31.539.403a1.82 1.82 0 0 0 1.44 0 1.64 1.64 0 0 0 .543-.403c.153-.174.272-.378.35-.6.076-.24.112-.493.104-.746h.004zM60.947 8.127L59.282 5.91h.871l1.273 1.782L62.64 5.91h.804l-1.595 2.218 1.92 2.546h-.881l-1.539-2.088-1.48 2.088h-.821zM19.487 11.593a.15.15 0 0 0 .084-.19L17.27 4.517a.14.14 0 0 0-.073-.08.132.132 0 0 0-.106-.003l-5.963 3.232a.15.15 0 0 0-.084.19l1.445 4.101h6.239l.759-.363z"/>
<path d="M10.013 7.49a.15.15 0 0 1 .084-.188l5.69-3.084-.584-1.749a.18.18 0 0 0-.094-.104.169.169 0 0 0-.137-.001L7.344 6.49a.191.191 0 0 0-.108.24l1.857 5.225h2.504L10.013 7.49z"/>
<path d="M6.194 6.367a.191.191 0 0 1 .108-.24l7.02-3.803-.61-1.819a.213.213 0 0 0-.102-.128.2.2 0 0 0-.16-.013L3.606 5.167a.215.215 0 0 0-.112.12.226.226 0 0 0 .003.168l2.294 6.509h2.39L6.193 6.367zM2.707 5.72l2.19 6.233H1.272a.07.07 0 0 1-.066-.051L.35 9.316a.075.075 0 0 1 0-.061l2.22-3.546a.07.07 0 0 1 .073-.052c.033.003.06.029.064.063z"/>
</svg>
