<svg viewBox="0 0 297 52" xmlns="http://www.w3.org/2000/svg" fill-rule="evenodd" clip-rule="evenodd"><g fill="#304362" fill-rule="nonzero" stroke="#304362" stroke-width=".5"><path d="M130.97 19.19a7.072 7.072 0 00-6.246-3.138 9.522 9.522 0 00-2.513.335 7.226 7.226 0 00-2.215 1.049 5.332 5.332 0 00-1.574 1.857 5.558 5.558 0 00-.595 2.619 4.521 4.521 0 001.238 3.398 9.836 9.836 0 003.053 1.978 35.15 35.15 0 003.993 1.384c1.402.375 2.755.914 4.03 1.606a9.43 9.43 0 013.063 2.71 7.66 7.66 0 011.229 4.644 8.231 8.231 0 01-.931 3.937 9.093 9.093 0 01-2.504 2.925 12.119 12.119 0 01-7.233 2.46 14.493 14.493 0 01-5.64-1.113 10.75 10.75 0 01-4.543-3.714l3.016-2.136a7.849 7.849 0 002.914 2.84 8.674 8.674 0 004.412 1.069 8.064 8.064 0 002.494-.334 7.118 7.118 0 002.206-1.142 6.265 6.265 0 001.61-1.857 4.9 4.9 0 00.643-2.508 5.222 5.222 0 00-.708-2.785 6.15 6.15 0 00-1.861-1.857 12.455 12.455 0 00-2.653-1.254l-3.053-.994a32.363 32.363 0 01-3.063-1.142 10.657 10.657 0 01-2.643-1.615 7.23 7.23 0 01-1.862-2.461 8.512 8.512 0 01-.707-3.714 8.725 8.725 0 01.93-4.058 8.356 8.356 0 012.365-2.87 10.191 10.191 0 013.36-1.68 14.27 14.27 0 018.806.315 10.717 10.717 0 014.077 3.018l-2.895 2.229zM151.01 27.52h-6.162v12.573a6.947 6.947 0 00.224 1.93c.117.434.337.832.642 1.162.27.27.608.466.977.567.41.11.833.165 1.257.157a6.1 6.1 0 001.6-.222 7.303 7.303 0 001.509-.595l.13 2.786a9.585 9.585 0 01-4.058.78 7.672 7.672 0 01-1.797-.232 4.105 4.105 0 01-1.712-.864 4.78 4.78 0 01-1.285-1.727 6.954 6.954 0 01-.502-2.87V27.52h-4.515v-2.73h4.515v-6.008h3.015v6.008h6.162v2.73zM168.808 33.036v-.548c0-3.677-1.825-5.516-5.474-5.516a9.47 9.47 0 00-6.515 2.507l-1.815-2.135c2.004-2.074 5.014-3.108 9.029-3.102 1.013 0 2.02.153 2.987.455a6.614 6.614 0 014.18 3.715 8.138 8.138 0 01.642 3.37v9.537c0 .817 0 1.68.112 2.572.11.89.158 1.634.25 2.21h-2.968a16.868 16.868 0 01-.205-1.69 22.869 22.869 0 01-.065-1.774h-.093a8.16 8.16 0 01-3.128 3.074 9.484 9.484 0 01-4.403.928 9.636 9.636 0 01-2.736-.39 6.94 6.94 0 01-2.355-1.188 6.038 6.038 0 01-1.638-1.95 5.746 5.746 0 01-.615-2.712 5.846 5.846 0 011.34-4.076 8.235 8.235 0 013.38-2.21c1.398-.5 2.856-.812 4.337-.93a54.37 54.37 0 014.217-.175l1.536.028zm-1.555 2.45c-.754 0-1.713 0-2.848.122a16.393 16.393 0 00-3.286.539 7.246 7.246 0 00-2.69 1.346A3.052 3.052 0 00157.303 40a3.525 3.525 0 00.437 1.792c.287.496.686.919 1.164 1.235a4.894 4.894 0 001.619.678 7.84 7.84 0 001.806.204 6.886 6.886 0 002.848-.538 6.024 6.024 0 002.039-1.486 5.871 5.871 0 001.2-2.182 8.948 8.948 0 00.392-2.665v-1.551h-1.555zM194.368 29.795a6.44 6.44 0 00-2.17-2.015 6.123 6.123 0 00-3.173-.826 7.897 7.897 0 00-3.351.594 7.443 7.443 0 00-2.532 1.774 7.55 7.55 0 00-1.601 2.71 10.766 10.766 0 000 6.789 7.514 7.514 0 001.6 2.702 7.36 7.36 0 002.533 1.783c1.06.44 2.204.64 3.35.585a6.12 6.12 0 003.175-.817 6.523 6.523 0 002.169-1.987l2.467 1.857a10.23 10.23 0 01-3.612 2.785 10.91 10.91 0 01-4.198.929c-1.59.04-3.17-.23-4.654-.8a10.486 10.486 0 01-3.584-2.348 10.108 10.108 0 01-2.262-3.575 13.406 13.406 0 010-8.97 10.064 10.064 0 012.262-3.566 10.353 10.353 0 013.584-2.35 12.123 12.123 0 014.654-.797c1.447.028 2.874.344 4.198.928a10.1 10.1 0 013.612 2.786l-2.467 1.829zM203.816 34.4l10.08-9.61h4.524l-10.64 9.74 11.776 11.57h-4.654l-11.086-11.198V46.1H200.8V11.679h3.016V34.4zM227.179 46.1h-3.286V13.853h9.95c3.287 0 5.874.715 7.782 2.145 1.909 1.43 2.849 3.584 2.849 6.5a8.033 8.033 0 01-2.122 5.664 9.07 9.07 0 01-6.097 2.637l9.308 15.303h-4.012l-8.9-14.978h-5.472V46.1zm0-17.986h5.846c1.256.029 2.51-.125 3.723-.455a6.974 6.974 0 002.448-1.207 4.516 4.516 0 001.322-1.773 5.97 5.97 0 00.409-2.21 5.85 5.85 0 00-.41-2.164 4.744 4.744 0 00-1.33-1.811 6.712 6.712 0 00-2.448-1.207 13.87 13.87 0 00-3.724-.427h-5.845l.009 11.254zM271.449 35.44a11.49 11.49 0 01-.847 4.467 10.638 10.638 0 01-2.346 3.547 10.865 10.865 0 01-3.583 2.35 12.755 12.755 0 01-9.132 0 10.58 10.58 0 01-5.93-5.897 12.167 12.167 0 010-8.923 10.674 10.674 0 012.347-3.557 10.89 10.89 0 013.583-2.34 12.755 12.755 0 019.132 0 10.995 10.995 0 013.583 2.34 10.69 10.69 0 012.346 3.557c.576 1.415.864 2.93.847 4.457m-3.286 0a9.753 9.753 0 00-.568-3.324 8.047 8.047 0 00-1.62-2.684 7.606 7.606 0 00-2.531-1.792 8.759 8.759 0 00-6.711 0 7.244 7.244 0 00-2.514 1.792 8.188 8.188 0 00-1.601 2.684 10.014 10.014 0 000 6.648 8.14 8.14 0 001.6 2.693 7.36 7.36 0 002.515 1.792 8.87 8.87 0 006.71 0 7.724 7.724 0 002.533-1.792 8.001 8.001 0 001.619-2.693 9.705 9.705 0 00.568-3.324M282.45 34.717l-7.762-9.927h4.105l5.939 7.967 5.659-7.967h3.742l-7.437 9.927L295.64 46.1h-4.114l-7.158-9.332-6.898 9.332h-3.835l8.815-11.384z"/></g><path d="M89.185 50.214a.668.668 0 00.39-.845L78.882 18.578a.641.641 0 00-.837-.371L50.249 32.655a.65.65 0 00-.391.836l6.749 18.348h29.069l3.509-1.625z" fill="#304362" fill-rule="nonzero"/><path d="M45.055 31.866a.66.66 0 01.39-.836l26.52-13.78-2.727-7.837a.817.817 0 00-1.07-.474l-35.52 18.46a.846.846 0 00-.503 1.078l8.582 23.362H52.39l-7.335-19.973z" fill="#304362" fill-rule="nonzero"/><path d="M27.258 26.852a.845.845 0 01.494-1.078L60.479 8.763 57.687.629a.931.931 0 00-1.238-.557L15.195 21.494a.93.93 0 00-.577 1.244l10.685 29.1h11.17l-9.215-24.986zM10.997 23.954l10.239 27.858H4.323a.347.347 0 01-.317-.223L.032 40.028a.325.325 0 010-.28l10.378-15.86a.337.337 0 01.596.065" fill="#304362" fill-rule="nonzero"/></svg>