<svg id="Layer_1" data-name="Layer 1" xmlns="http://www.w3.org/2000/svg" viewBox="0 0 376 128"><defs><style>.cls-2{stroke:#fff;fill:none;stroke-linecap:round;stroke-linejoin:round;stroke-width:4px}</style></defs><rect x="76.19" y="38.18" width="64.63" height="43.94" rx="3.99" stroke-miterlimit="10" stroke="#fff" fill="#2f4ca0"/><path class="cls-2" d="M100.06 70.57l7.69-7.69-7.69-7.68M110.31 73.13h10.24"/><path stroke-width="3" fill="none" stroke-miterlimit="10" stroke="#fff" d="M76.02 45.46h64.71"/><path d="M180 67.76a8.29 8.29 0 01-3.13 6.85q-3.14 2.51-8.71 2.51a20.47 20.47 0 01-9.1-1.94v-6.33a37.53 37.53 0 005.51 2.05 16.49 16.49 0 004.12.59 5.83 5.83 0 003.43-.86 2.93 2.93 0 001.2-2.55 2.76 2.76 0 00-.53-1.68 5.77 5.77 0 00-1.58-1.4 39.87 39.87 0 00-4.21-2.19 19.58 19.58 0 01-4.41-2.66 10 10 0 01-2.36-3 8.56 8.56 0 01-.87-4 8.31 8.31 0 012.88-6.7q2.9-2.45 8-2.44a19.14 19.14 0 014.78.59 34.46 34.46 0 014.76 1.67l-2.2 5.3a31.18 31.18 0 00-4.25-1.47 13.59 13.59 0 00-3.31-.42 4.35 4.35 0 00-3 .9 3 3 0 00-1 2.35 2.88 2.88 0 00.42 1.57 4.59 4.59 0 001.33 1.3 40.36 40.36 0 004.32 2.25q4.5 2.16 6.17 4.32a8.38 8.38 0 011.74 5.39zM181.74 52.11h7.34l4.64 13.82a19.68 19.68 0 01.81 4.26h.13a18.64 18.64 0 011-4.26l4.54-13.82h7.19L197 79.82a12 12 0 01-4.08 5.75 10.25 10.25 0 01-6.18 1.92 15.5 15.5 0 01-3.41-.38V81.8a11.5 11.5 0 002.64.28A4.76 4.76 0 00189 81a7.09 7.09 0 002.07-3.28l.4-1.21zM228 69.38a6.77 6.77 0 01-2.62 5.76q-2.62 2-7.86 2a24.73 24.73 0 01-4.57-.37 17.14 17.14 0 01-3.54-1.06v-5.56a22.8 22.8 0 004.21 1.47 16.9 16.9 0 004.12.6c2.43 0 3.65-.71 3.65-2.11a1.77 1.77 0 00-.48-1.29 7.27 7.27 0 00-1.67-1.12c-.8-.42-1.85-.9-3.17-1.46A19.32 19.32 0 01211.9 64a6.22 6.22 0 01-1.9-2.28 7.68 7.68 0 01-.6-3.22 5.83 5.83 0 012.54-5.06q2.53-1.78 7.19-1.79a20.43 20.43 0 018.64 1.93l-2 4.84c-1.23-.53-2.38-1-3.45-1.3a10.75 10.75 0 00-3.28-.51c-2 0-3 .54-3 1.61a1.9 1.9 0 00.95 1.56 26.08 26.08 0 004.19 1.95 19.91 19.91 0 014.22 2.18 6.49 6.49 0 012 2.33 7.24 7.24 0 01.6 3.14zM239.92 76.68h-6.7V42.49h6.7zM269.28 64.35q0 6-3.16 9.38t-8.81 3.39a12.34 12.34 0 01-6.24-1.55 10.36 10.36 0 01-4.16-4.45 15.07 15.07 0 01-1.45-6.77q0-6 3.14-9.36t8.84-3.34a12.37 12.37 0 016.24 1.54 10.24 10.24 0 014.15 4.41 14.79 14.79 0 011.45 6.75zm-17 0a10.27 10.27 0 001.19 5.51 4.28 4.28 0 003.9 1.87 4.23 4.23 0 003.86-1.85 10.51 10.51 0 001.17-5.53 10.15 10.15 0 00-1.18-5.47 5 5 0 00-7.76 0 10.12 10.12 0 00-1.16 5.47zM296.2 52.11v3.41l-3.85 1a6.75 6.75 0 011.06 3.7 7.45 7.45 0 01-2.76 6.16q-2.76 2.2-7.66 2.21l-1.21-.07-1-.11a2.26 2.26 0 00-1 1.76c0 1 1.23 1.45 3.69 1.45h4.18a9.5 9.5 0 016.16 1.74 6.19 6.19 0 012.12 5.09 7.57 7.57 0 01-3.59 6.68c-2.4 1.59-5.83 2.38-10.32 2.38q-5.13 0-7.85-1.79a5.7 5.7 0 01-2.72-5 5.29 5.29 0 011.37-3.72 7.94 7.94 0 014.06-2.13 4.4 4.4 0 01-1.8-1.44 3.54 3.54 0 010-4.46 9.57 9.57 0 012.36-1.83 6.61 6.61 0 01-3.07-2.69 8.19 8.19 0 01-1.13-4.35 7.66 7.66 0 012.61-6.21q2.63-2.2 7.47-2.2a18.16 18.16 0 012.45.19c.95.12 1.55.21 1.82.27zm-19 28a2.43 2.43 0 001.33 2.17 7.31 7.31 0 003.73.79 13.31 13.31 0 005.64-1 3 3 0 002.1-2.65 1.91 1.91 0 00-1.21-1.91A9.94 9.94 0 00285 77h-3.47a5.21 5.21 0 00-3.08.87 2.69 2.69 0 00-1.22 2.28zm2.44-20a5.06 5.06 0 00.91 3.17 3.34 3.34 0 002.78 1.16 3.25 3.25 0 002.77-1.16 5.12 5.12 0 00.88-3.17c0-3-1.21-4.44-3.65-4.44s-3.66 1.52-3.66 4.48z"/></svg>