<svg viewBox="0 0 221 51" xmlns="http://www.w3.org/2000/svg" fill-rule="evenodd" clip-rule="evenodd" stroke-miterlimit="10"><path d="M64.8 3.99A3.992 3.992 0 0060.81 0H4.16A3.992 3.992 0 00.17 3.99v35.96a3.992 3.992 0 003.99 3.99h56.65a3.992 3.992 0 003.99-3.99V3.99z" fill="#2f4ca0" stroke="#fff"/><path d="M24.04 32.39l7.69-7.69-7.69-7.68m10.25 17.93h10.24" fill="none" stroke="#fff" stroke-width="4" stroke-linecap="round" stroke-linejoin="round" stroke-miterlimit="4"/><path d="M0 7.28h64.71" fill="none" stroke="#fff" stroke-width="3"/><path d="M103.98 29.58a8.296 8.296 0 01-3.13 6.85c-2.093 1.673-4.997 2.51-8.71 2.51a20.47 20.47 0 01-9.1-1.94v-6.33a37.556 37.556 0 005.51 2.05 16.49 16.49 0 004.12.59 5.832 5.832 0 003.43-.86 2.932 2.932 0 001.2-2.55 2.76 2.76 0 00-.53-1.68 5.778 5.778 0 00-1.58-1.4 39.9 39.9 0 00-4.21-2.19 19.576 19.576 0 01-4.41-2.66 10.005 10.005 0 01-2.36-3 8.56 8.56 0 01-.87-4 8.313 8.313 0 012.88-6.7c1.933-1.633 4.6-2.447 8-2.44a19.163 19.163 0 014.78.59c1.625.44 3.216.998 4.76 1.67l-2.2 5.3a31.113 31.113 0 00-4.25-1.47A13.638 13.638 0 0094 11.5a4.35 4.35 0 00-3 .9 3.004 3.004 0 00-1 2.35 2.874 2.874 0 00.42 1.57c.35.52.803.962 1.33 1.3a40.312 40.312 0 004.32 2.25c3 1.44 5.057 2.88 6.17 4.32a8.38 8.38 0 011.74 5.39zm1.74-15.65h7.34l4.64 13.82c.426 1.386.698 2.815.81 4.26h.13a18.673 18.673 0 011-4.26l4.54-13.82h7.19l-10.39 27.71a11.997 11.997 0 01-4.08 5.75 10.254 10.254 0 01-6.18 1.92c-1.147 0-2.291-.128-3.41-.38v-5.31c.866.195 1.752.289 2.64.28a4.757 4.757 0 003.03-1.08 7.1 7.1 0 002.07-3.28l.4-1.21-9.73-24.4zm46.26 17.27a6.776 6.776 0 01-2.62 5.76c-1.747 1.333-4.367 2-7.86 2a24.733 24.733 0 01-4.57-.37 17.138 17.138 0 01-3.54-1.06v-5.56a22.81 22.81 0 004.21 1.47c1.343.369 2.727.571 4.12.6 2.43 0 3.65-.71 3.65-2.11a1.77 1.77 0 00-.48-1.29 7.256 7.256 0 00-1.67-1.12c-.8-.42-1.85-.9-3.17-1.46a19.305 19.305 0 01-4.17-2.24 6.225 6.225 0 01-1.9-2.28 7.682 7.682 0 01-.6-3.22 5.836 5.836 0 012.54-5.06c1.687-1.187 4.083-1.783 7.19-1.79a20.43 20.43 0 018.64 1.93l-2 4.84c-1.23-.53-2.38-1-3.45-1.3a10.738 10.738 0 00-3.28-.51c-2 0-3 .54-3 1.61.03.647.388 1.237.95 1.56a26.055 26.055 0 004.19 1.95 19.946 19.946 0 014.22 2.18 6.497 6.497 0 012 2.33c.431.989.636 2.062.6 3.14zm11.92 7.3h-6.7V4.31h6.7V38.5zm29.36-12.33c0 4-1.053 7.127-3.16 9.38-2.107 2.253-5.043 3.383-8.81 3.39a12.338 12.338 0 01-6.24-1.55 10.364 10.364 0 01-4.16-4.45 15.065 15.065 0 01-1.45-6.77c0-4 1.047-7.12 3.14-9.36 2.093-2.24 5.04-3.353 8.84-3.34a12.377 12.377 0 016.24 1.54 10.24 10.24 0 014.15 4.41 14.79 14.79 0 011.45 6.75zm-17 0a10.269 10.269 0 001.19 5.51 4.284 4.284 0 003.9 1.87 4.233 4.233 0 003.86-1.85 10.511 10.511 0 001.17-5.53 10.151 10.151 0 00-1.18-5.47 5.005 5.005 0 00-3.88-1.846 5.005 5.005 0 00-3.88 1.846 10.115 10.115 0 00-1.16 5.47h-.02zm43.92-12.24v3.41l-3.85 1a6.75 6.75 0 011.06 3.7 7.458 7.458 0 01-2.76 6.16c-1.84 1.467-4.393 2.203-7.66 2.21l-1.21-.07-1-.11a2.26 2.26 0 00-1 1.76c0 1 1.23 1.45 3.69 1.45h4.18a9.502 9.502 0 016.16 1.74 6.193 6.193 0 012.12 5.09 7.58 7.58 0 01-3.59 6.68c-2.4 1.59-5.83 2.38-10.32 2.38-3.42 0-6.037-.597-7.85-1.79a5.707 5.707 0 01-2.72-5 5.292 5.292 0 011.37-3.72 7.936 7.936 0 014.06-2.13 4.399 4.399 0 01-1.8-1.44 3.551 3.551 0 010-4.46 9.561 9.561 0 012.36-1.83 6.611 6.611 0 01-3.07-2.69 8.192 8.192 0 01-1.13-4.35 7.665 7.665 0 012.61-6.21c1.753-1.467 4.243-2.2 7.47-2.2.82.008 1.639.071 2.45.19.95.12 1.55.21 1.82.27l8.61-.04zm-19 28a2.433 2.433 0 001.33 2.17 7.309 7.309 0 003.73.79c1.93.08 3.855-.261 5.64-1a3.005 3.005 0 002.1-2.65 1.915 1.915 0 00-1.21-1.91 9.933 9.933 0 00-3.79-.51h-3.47a5.213 5.213 0 00-3.08.87 2.694 2.694 0 00-1.22 2.28l-.03-.04zm2.44-20a5.06 5.06 0 00.91 3.17 3.341 3.341 0 002.78 1.16 3.252 3.252 0 002.77-1.16 5.124 5.124 0 00.88-3.17c0-3-1.21-4.44-3.65-4.44s-3.66 1.52-3.66 4.48l-.03-.04z" fill-rule="nonzero"/></svg>