<svg viewBox="0 0 84 74" xmlns="http://www.w3.org/2000/svg" fill-rule="evenodd" clip-rule="evenodd" stroke-linejoin="round" stroke-miterlimit="2"><g transform="translate(-70.5 -7.38)"><circle cx="114.594" cy="18.902" r="11.522" fill="#7b83eb"/><path d="M113.73 21.371h-10.961l.054.229.006.02.054.213c1.645 5.937 7.999 9.636 14.302 8.324v-5.495c-.006-1.803-1.563-3.286-3.457-3.291h.002z" fill-opacity=".09" fill-rule="nonzero"/><path d="M111.136 23.84h-7.48c2 4.014 6.269 6.584 10.938 6.584v-3.291c-.006-1.803-1.563-3.285-3.458-3.291v-.002z" fill-opacity=".2" fill-rule="nonzero"/><circle cx="141.828" cy="22.606" r="8.641" fill="#5059c9"/><path d="M149.61 33.715h-20.39c-.909 0-1.657.712-1.657 1.577v20.022c-.117 5.95 4.195 11.212 10.286 12.554.877.175 1.771.263 2.667.263 7.12 0 12.979-5.574 12.984-12.35V37.418c0-2.032-1.756-3.703-3.89-3.703z" fill="#5059c9" fill-rule="nonzero"/><path d="M135.344 37.418v23.464c0 10.828-9.361 19.738-20.737 19.738-7.402 0-14.263-3.772-17.962-9.874a17.397 17.397 0 01-1.297-2.469 19.952 19.952 0 01-.856-2.468 19.447 19.447 0 01-.648-4.938V37.413c0-2.029 1.754-3.698 3.885-3.698h33.729c2.132 0 3.886 1.669 3.886 3.698v.005z" fill="#7b83eb" fill-rule="nonzero"/><path d="M111.136 23.84h-7.48c2 4.014 6.269 6.584 10.938 6.584v-3.291c-.006-1.803-1.563-3.285-3.458-3.291v-.002z" fill-opacity=".2" fill-rule="nonzero"/><path d="M117.188 33.715v31.279c-.004 1.526-1.131 2.857-2.698 3.184a2.617 2.617 0 01-.752.099h-18.39a19.91 19.91 0 01-.856-2.469 19.434 19.434 0 01-.648-4.937V37.413c0-2.029 1.754-3.698 3.885-3.698h19.459z" fill-opacity=".09" fill-rule="nonzero"/><path d="M114.594 33.715v33.747c.003.243-.031.484-.104.717-.344 1.491-1.742 2.564-3.346 2.567H96.645a17.397 17.397 0 01-1.297-2.469 20.119 20.119 0 01-.856-2.468 19.447 19.447 0 01-.648-4.938V37.413c0-2.029 1.754-3.698 3.885-3.698h16.865zm0 0v28.81c-.009 1.798-1.561 3.275-3.45 3.283H94.492a19.434 19.434 0 01-.648-4.937V37.413c0-2.029 1.754-3.698 3.885-3.698h16.865zm-16.86 0h-.005c-2.131 0-3.885 1.669-3.885 3.698v23.458c.003 1.665.221 3.323.648 4.938h14.058c1.89-.009 3.441-1.486 3.45-3.284v-28.81H97.734z" fill-opacity=".2" fill-rule="nonzero"/><path d="M73.957 23.84h34.583c1.897 0 3.457 1.485 3.457 3.29v32.917c0 1.805-1.56 3.29-3.457 3.29H73.957c-1.896 0-3.457-1.485-3.457-3.29V27.13c0-1.805 1.561-3.29 3.457-3.29z" fill="#4b53bc" fill-rule="nonzero"/><path d="M101.573 36.122H93.82v19.799h-5.094V36.122h-7.797v-4.864h20.644v4.864z" fill="#fff" fill-rule="nonzero"/></g></svg>