<svg width="224" height="88" xmlns="http://www.w3.org/2000/svg" clip-rule="evenodd">
 <g>
  <title>background</title>
  <rect x="-1" y="-1" width="226" height="90" id="canvas_background" fill="none"/>
 </g>

 <g>
  <title>Layer 1</title>
  <g stroke="null" id="svg_13">
   <g stroke="null" id="svg_12">
    <circle stroke="null" cx="114.593754" cy="18.902227" r="11.521791" fill="#7b83eb" id="svg_1"/>
    <path stroke="null" d="m113.730179,21.370978l-10.961292,0l0.054333,0.229459l0.00528,0.01975l0.054327,0.212583c1.645661,5.937211 7.999314,9.635847 14.302037,8.324447l0,-5.495528c-0.005657,-1.802994 -1.562661,-3.285326 -3.457328,-3.29071l0.002643,0z" fill-opacity="0.098" fill-rule="nonzero" id="svg_2"/>
    <path stroke="null" d="m111.136428,23.83973l-7.48057,0c2.000301,4.014636 6.269523,6.584295 10.937898,6.584295l0,-3.291075c-0.005663,-1.803352 -1.563044,-3.28532 -3.457328,-3.29071l0,-0.00251z" fill-opacity="0.2" fill-rule="nonzero" id="svg_3"/>
    <circle stroke="null" cx="141.82833" cy="22.605533" r="8.640804" fill="#5059c9" id="svg_4"/>
    <path stroke="null" d="m149.609583,33.714735l-20.389713,0c-0.909227,0 -1.657358,0.712076 -1.657358,1.577485l0,20.021484c-0.11696,5.950137 4.195269,11.212615 10.286718,12.553823c0.877164,0.175234 1.770544,0.26321 2.666568,0.26321c7.11989,0 12.979693,-5.573453 12.98422,-12.350216l0,-18.362842c0,-2.031377 -1.756204,-3.702945 -3.890435,-3.702945z" fill="#5059c9" fill-rule="nonzero" id="svg_5"/>
    <path stroke="null" d="m135.34376,37.418038l0,23.464087c0,10.827672 -9.360891,19.737443 -20.737177,19.737443c-7.401343,0 -14.262427,-3.771535 -17.961585,-9.873565a18.655012,17.755976 0 0 1 -1.297067,-2.468751a21.68678,20.641635 0 0 1 -0.855654,-2.468751a21.361944,20.332453 0 0 1 -0.64853,-4.937502l0,-23.453319l0,-0.004667c0,-2.028867 1.753938,-3.698277 3.885532,-3.698277l33.72895,0c2.131594,0 3.885532,1.669411 3.885532,3.698277l0,0.005026z" fill="#7b83eb" fill-rule="nonzero" id="svg_6"/>
    <path stroke="null" d="m111.136428,23.83973l-7.48057,0c2.000301,4.014636 6.269523,6.584295 10.937898,6.584295l0,-3.291075c-0.005663,-1.803352 -1.563044,-3.28532 -3.457328,-3.29071l0,-0.00251z" fill-opacity="0.2" fill-rule="nonzero" id="svg_7"/>
    <path stroke="null" d="m117.187508,33.714735l0,31.278984a3.433558,3.268086 0 0 1 -2.697501,3.184777a2.512635,2.391544 0 0 1 -0.752287,0.09875l-18.389789,0a21.68678,20.641635 0 0 1 -0.855654,-2.468751a21.361944,20.332453 0 0 1 -0.64853,-4.937502l0,-23.453313l0,-0.004667c0,-2.028867 1.753938,-3.698277 3.885532,-3.698277l19.458229,0z" fill-opacity="0.098" fill-rule="nonzero" id="svg_8"/>
    <path stroke="null" d="m114.593756,33.714735l0,33.747735a2.512635,2.391544 0 0 1 -0.10375,0.716032a3.433558,3.268086 0 0 1 -3.346038,2.567501l-14.49897,0a18.610869,17.71396 0 0 1 -1.29669,-2.468751a21.62151,20.57951 0 0 1 -0.85603,-2.468751a21.361944,20.332453 0 0 1 -0.64853,-4.937502l0,-23.453319l0,-0.004667c0,-2.028867 1.753938,-3.698277 3.885532,-3.698277l16.864478,0zm0,0l0,28.810233c-0.008677,1.798333 -1.560401,3.275269 -3.449788,3.283527l-16.651691,0a21.361944,20.332453 0 0 1 -0.64853,-4.937502l0,-23.453313l0,-0.004667c0,-2.028867 1.753938,-3.698277 3.885532,-3.698277l16.864478,0zm-16.859575,0l-0.004903,0c-2.131594,0 -3.885532,1.669411 -3.885532,3.698277l0,23.457986a21.361944,20.332453 0 0 0 0.64853,4.937502l14.057947,0c1.889381,-0.008265 3.441105,-1.485201 3.449782,-3.283533l0,-28.810233l-14.265823,0z" fill-opacity="0.2" fill-rule="nonzero" id="svg_9"/>
    <path stroke="null" d="m73.957314,23.83973l34.58272,0c1.896551,0 3.457328,1.485559 3.457328,3.29071l0,32.916083c0,1.805151 -1.560777,3.29071 -3.457328,3.29071l-34.58272,0c-1.896551,0 -3.457328,-1.485559 -3.457328,-3.29071l0,-32.916083c0,-1.805151 1.560777,-3.29071 3.457328,-3.29071z" fill="#4b53bc" fill-rule="nonzero" id="svg_10"/>
    <path stroke="null" d="m101.57331,36.12172l-7.752957,0l0,19.799561l-5.093936,0l0,-19.799561l-7.7971,0l0,-4.863528l20.643993,0l0,4.863528z" fill="#fff" fill-rule="nonzero" id="svg_11"/>
   </g>
  </g>
 </g>
</svg>