<svg viewBox="0 0 223 50" xmlns="http://www.w3.org/2000/svg" fill-rule="evenodd" clip-rule="evenodd" stroke-linejoin="round" stroke-miterlimit="2"><g fill="#445464" fill-rule="nonzero"><path d="M58.376 34.288V20.733H54.04V14.74h4.31V7.61h6.84v7.13h5.288v5.993h-5.254v11.719c0 1.671.87 2.911 2.374 2.911a3.418 3.418 0 002.373-.808l1.457 5.24c-1.026.917-2.859 1.671-5.718 1.671-4.795 0-7.333-2.487-7.333-7.178zM72.077 27.753c0-7.534 5.603-13.698 13.476-13.698 7.873 0 13.052 5.835 13.052 14.308v1.623H79.246c.486 3.185 3.071 5.829 7.525 5.829 2.21 0 5.226-.918 6.902-2.534l3.071 4.534c-2.586 2.377-6.683 3.617-10.733 3.617-7.948.034-13.934-5.309-13.934-13.679zm13.476-8.048c-4.255 0-6.088 2.973-6.362 5.562h12.833c-.212-2.479-1.936-5.562-6.47-5.562zM118.75 40.815V25.062c0-3.617-1.888-4.863-4.788-4.863a7.616 7.616 0 00-5.93 3.027v17.589h-6.842V14.74h6.841v3.349a12.173 12.173 0 019.111-4c5.774 0 8.524 3.24 8.524 8.315v18.411h-6.916zM145.161 40.815v-2.74c-1.778 2.165-4.85 3.425-8.25 3.425-4.152 0-9.002-2.808-9.002-8.637 0-6.164 4.85-8.425 9.002-8.425 3.51 0 6.526 1.137 8.25 3.185v-3.328c0-2.644-2.264-4.37-5.712-4.37A10.937 10.937 0 00131.925 23l-2.695-4.795a16.822 16.822 0 0111.375-4.109c5.986 0 11.431 2.377 11.431 9.883v16.836h-6.875zm0-6.26v-3.24c-1.129-1.514-3.283-2.322-5.472-2.322-2.695 0-4.905 1.459-4.905 3.945 0 2.487 2.21 3.884 4.905 3.884 2.19 0 4.343-.754 5.472-2.267zM154.998 40.815V4.795h6.84v13.287a9.896 9.896 0 018.038-4c6.635 0 11.54 5.185 11.54 13.699 0 8.746-4.96 13.698-11.54 13.698a10.123 10.123 0 01-8.038-3.993v3.343l-6.84-.014zm12.785-5.479c3.933 0 6.573-3.076 6.573-7.61 0-4.534-2.64-7.534-6.573-7.534a7.657 7.657 0 00-5.938 3.027v9.233a7.739 7.739 0 005.938 2.911v-.027zM183.735 4.795h6.84v36.021h-6.84zM193.154 27.753c0-7.534 5.602-13.698 13.476-13.698 7.873 0 13.051 5.835 13.051 14.308v1.623h-19.358c.485 3.185 3.071 5.829 7.524 5.829 2.21 0 5.226-.918 6.902-2.534l3.072 4.534c-2.586 2.377-6.683 3.617-10.733 3.617-7.949.034-13.934-5.309-13.934-13.679zm13.476-8.048c-4.255 0-6.088 2.973-6.362 5.562h12.833c-.212-2.479-1.936-5.562-6.47-5.562zM221.788 11.452c.343.198.626.484.821.829.198.351.3.748.294 1.151.005.4-.096.795-.294 1.143a2.14 2.14 0 01-.82.822 2.208 2.208 0 01-1.15.302 2.224 2.224 0 01-1.943-1.124 2.28 2.28 0 01-.3-1.143 2.296 2.296 0 01.3-1.151c.193-.345.474-.631.814-.829a2.15 2.15 0 011.13-.308 2.22 2.22 0 011.148.308zm-.232 3.575c.273-.162.494-.4.636-.685a2.09 2.09 0 000-1.89 1.66 1.66 0 00-.636-.685 1.727 1.727 0 00-.917-.24 1.677 1.677 0 00-.903.24 1.62 1.62 0 00-.622.685 2.09 2.09 0 000 1.89c.137.284.353.522.622.685.274.161.586.244.903.24a1.77 1.77 0 00.917-.24zm-.11-1.678a.943.943 0 01-.417.254l.684 1.02h-.595l-.568-.924h-.212v.945h-.513v-2.48h.684c.725 0 1.081.254 1.081.754a.6.6 0 01-.144.431zm-1.108-.061h.26c.321 0 .486-.124.486-.37a.305.305 0 00-.123-.274.678.678 0 00-.377-.082h-.246v.726z"/></g><path d="M43.463 7.705c.137.521.643 2.405 1.122 4.199l3.797 14.185c.48 1.795.985 3.678 1.128 4.199a2.426 2.426 0 01-.58 2.171l-3.1 3.075L35.487 45.89c-1.286 1.37-2.654 2.74-3.07 3.103a2.417 2.417 0 01-2.169.582l-4.194-1.123-14.166-3.801-4.193-1.13a2.299 2.299 0 01-.992-.596 2.296 2.296 0 01-.595-.993c-.144-.514-.65-2.411-1.129-4.199L1.182 23.548l-1.12-4.199.54-.171.546-.144c.137.521.643 2.411 1.122 4.199l3.797 14.205c.478 1.795.985 3.685 1.121 4.206.063.184.17.351.308.486.136.14.302.245.486.308l4.193 1.124 14.167 3.801 4.2 1.123c.385.063.778-.042 1.081-.287l16.513-16.535c.245-.303.35-.697.287-1.082-.144-.52-.643-2.411-1.122-4.205l-3.803-14.178c-.472-1.795-.985-3.685-1.122-4.199a1.237 1.237 0 00-.308-.466 1.064 1.064 0 00-.486-.308L37.39 6.075 23.257 2.274 19.03 1.151a1.369 1.369 0 00-1.08.287L1.435 17.973a1.32 1.32 0 00-.288 1.082l-.547.123-.54.151a2.395 2.395 0 01.581-2.171l3.071-3.083L14.084 3.719 17.155.644a2.382 2.382 0 012.168-.582l4.194 1.123 14.16 3.808 4.193 1.123c.377.112.72.32.992.603.285.268.494.609.601.986z" fill="#00a6b4" fill-rule="nonzero"/><path d="M25.712 3.938l3.1 1.795 10.465 6.048 3.133 1.794c.554.349.9.949.924 1.603v19.274a1.983 1.983 0 01-.924 1.603l-3.099 1.794-10.5 6.048-3.099 1.795a1.861 1.861 0 01-.93.226 1.846 1.846 0 01-.923-.226l-3.099-1.788-10.5-6.055-3.099-1.794.233-.397.232-.405 3.1 1.795 10.48 6.048 3.104 1.794a.935.935 0 00.458.103.952.952 0 00.466-.103l3.098-1.794 10.473-6.048 3.1-1.795c.277-.179.463-.472.505-.801V15.178a1.108 1.108 0 00-.492-.794l-3.099-1.795-10.473-6.055-3.099-1.787a.873.873 0 00-.465-.103.86.86 0 00-.458.103l-3.119 1.787-10.466 6.048-3.085 1.802a1.108 1.108 0 00-.466.801v19.267c.033.322.202.614.466.801l-.233.405-.233.397a1.968 1.968 0 01-.923-1.603V15.178a1.968 1.968 0 01.923-1.603l3.072-1.794 10.5-6.048 3.1-1.795c.283-.151.6-.229.922-.226.324-.005.645.073.93.226z" fill="#00a6b4" fill-rule="nonzero"/><path d="M12.243 10.959l3.08-.829 10.39-2.788 3.078-.828a1.76 1.76 0 011.593.431l2.258 2.254 7.606 7.616 2.251 2.26a1.75 1.75 0 01.424 1.596c-.096.377-.472 1.767-.82 3.082l-2.785 10.405c-.356 1.315-.725 2.739-.828 3.082-.08.276-.23.526-.437.726-.2.207-.45.358-.725.438l-3.079.829-10.397 2.788-3.078.828-.103-.383-.109-.404 3.078-.822 10.397-2.788 3.08-.829a.918.918 0 00.354-.226.914.914 0 00.226-.356l.821-3.082 2.784-10.411c.356-1.315.725-2.699.828-3.082a.985.985 0 00-.212-.795l-2.244-2.267-7.62-7.616-2.25-2.254a.978.978 0 00-.794-.212l-3.086.822-10.39 2.815-3.072.829a.796.796 0 00-.362.226.751.751 0 00-.219.356c-.103.377-.479 1.767-.828 3.082l-2.79 10.377a859.712 859.712 0 01-.822 3.082.957.957 0 00.213.794l2.25 2.261 7.607 7.616 2.257 2.254a.979.979 0 00.794.212l.11.404.102.397a1.747 1.747 0 01-1.587-.431l-2.258-2.254-7.606-7.616-2.25-2.26a1.757 1.757 0 01-.432-1.589c.103-.384.48-1.767.828-3.083l2.791-10.411.827-3.075a1.68 1.68 0 01.438-.733c.2-.204.446-.355.718-.438z" fill="#00a6b4" fill-rule="nonzero"/><path d="M9.507 40.116a21.655 21.655 0 01-4.686-23.58A21.608 21.608 0 0124.786 3.178c8.74 0 16.62 5.272 19.964 13.358a21.655 21.655 0 01-4.686 23.58 21.588 21.588 0 01-15.278 6.339 21.588 21.588 0 01-15.279-6.339zm29.845-.684c8.008-8.064 7.977-21.098-.068-29.123-8.045-8.026-21.063-8.007-29.086.041-8.022 8.048-8.016 21.082.014 29.123a20.585 20.585 0 0029.14-.028v-.013z" fill="#00a6b4" fill-rule="nonzero"/><path d="M25.473 9.158l2.292 1.321 7.75 4.48 2.298 1.329c.41.26.666.706.684 1.191v14.295a1.472 1.472 0 01-.684 1.185l-2.29 1.288-7.758 4.5-2.292 1.328a1.443 1.443 0 01-1.368 0l-2.299-1.328-7.757-4.5-2.298-1.329.171-.302.171-.294 2.271 1.349 7.757 4.487 2.292 1.321a.617.617 0 00.342.076.6.6 0 00.342-.076l2.298-1.321 7.75-4.487 2.3-1.329a.8.8 0 00.341-.589V17.452a.804.804 0 00-.342-.596l-2.299-1.329-7.722-4.452-2.299-1.328a.75.75 0 00-.342-.076.766.766 0 00-.342.076l-2.298 1.328-7.778 4.48-2.298 1.329a.846.846 0 00-.342.595v14.295a.85.85 0 00.342.589l-.17.295-.172.301a1.45 1.45 0 01-.684-1.185V17.452c.013-.487.27-.935.684-1.192l2.298-1.328 7.778-4.453 2.298-1.321c.21-.116.445-.175.684-.172.24-.003.475.056.684.172h.007z" fill="#00a6b4" fill-rule="nonzero"/><path d="M13.468 35.945c-6.248-6.256-6.248-16.4.001-22.656 6.248-6.256 16.378-6.256 22.627 0 6.248 6.256 6.248 16.4 0 22.656-6.25 6.254-16.378 6.254-22.628 0zm22.102-.5c5.933-5.962 5.922-15.61-.026-21.559-5.947-5.948-15.583-5.948-21.53 0-5.949 5.949-5.96 15.597-.026 21.559a15.236 15.236 0 0021.582 0z" fill="#00a6b4" fill-rule="nonzero"/></svg>