<?xml version="1.0" encoding="UTF-8" standalone="no"?>
<!DOCTYPE svg PUBLIC "-//W3C//DTD SVG 1.1//EN"
 "http://www.w3.org/Graphics/SVG/1.1/DTD/svg11.dtd">
<!-- Generated by graphviz version 2.43.0 (0)
 -->
<!-- Title: %3 Pages: 1 -->
<svg width="518pt" height="186pt"
 viewBox="0.00 0.00 517.79 186.00" xmlns="http://www.w3.org/2000/svg" xmlns:xlink="http://www.w3.org/1999/xlink">
<g id="graph0" class="graph" transform="scale(1 1) rotate(0) translate(4 182)">
<title>%3</title>
<polygon fill="white" stroke="transparent" points="-4,4 -4,-182 513.79,-182 513.79,4 -4,4"/>
<g id="clust1" class="cluster">
<title>cluster_default</title>
<polygon fill="none" stroke="black" points="8,-8 8,-170 252,-170 252,-8 8,-8"/>
<text text-anchor="middle" x="130" y="-154.8" font-family="Times,serif" font-size="14.00">default</text>
</g>
<!-- default/backend[Deployment] -->
<g id="node1" class="node">
<title>default/backend[Deployment]</title>
<ellipse fill="none" stroke="blue" cx="130" cy="-34" rx="112.38" ry="18"/>
<text text-anchor="middle" x="130" y="-30.3" font-family="Times,serif" font-size="14.00" fill="blue">backend[Deployment]</text>
</g>
<!-- default/frontend[Deployment] -->
<g id="node2" class="node">
<title>default/frontend[Deployment]</title>
<ellipse fill="none" stroke="blue" cx="130" cy="-121" rx="113.98" ry="18"/>
<text text-anchor="middle" x="130" y="-117.3" font-family="Times,serif" font-size="14.00" fill="blue">frontend[Deployment]</text>
</g>
<!-- default/frontend[Deployment]&#45;&gt;default/backend[Deployment] -->
<g id="edge3" class="edge">
<title>default/frontend[Deployment]&#45;&gt;default/backend[Deployment]</title>
<path fill="none" stroke="#eec900" d="M130,-102.8C130,-91.16 130,-75.55 130,-62.24"/>
<polygon fill="#eec900" stroke="#eec900" points="133.5,-62.18 130,-52.18 126.5,-62.18 133.5,-62.18"/>
<text text-anchor="middle" x="165" y="-73.8" font-family="Times,serif" font-size="14.00" fill="darkgreen">TCP 9090</text>
</g>
<!-- 0.0.0.0&#45;255.255.255.255 -->
<g id="node3" class="node">
<title>0.0.0.0&#45;255.255.255.255</title>
<ellipse fill="none" stroke="#ee0000" cx="385" cy="-34" rx="124.58" ry="18"/>
<text text-anchor="middle" x="385" y="-30.3" font-family="Times,serif" font-size="14.00" fill="#ee0000">0.0.0.0&#45;255.255.255.255</text>
</g>
<!-- default/frontend[Deployment]&#45;&gt;0.0.0.0&#45;255.255.255.255 -->
<g id="edge2" class="edge">
<title>default/frontend[Deployment]&#45;&gt;0.0.0.0&#45;255.255.255.255</title>
<path fill="none" stroke="#eec900" d="M170.18,-104.1C196.65,-93.85 232.17,-80.52 264,-70 281.87,-64.09 301.4,-58.2 319.45,-52.98"/>
<polygon fill="#eec900" stroke="#eec900" points="320.66,-56.28 329.31,-50.16 318.73,-49.55 320.66,-56.28"/>
<text text-anchor="middle" x="292" y="-73.8" font-family="Times,serif" font-size="14.00" fill="darkgreen">UDP 53</text>
</g>
<!-- 0.0.0.0&#45;255.255.255.255&#45;&gt;default/frontend[Deployment] -->
<g id="edge1" class="edge">
<title>0.0.0.0&#45;255.255.255.255&#45;&gt;default/frontend[Deployment]</title>
<path fill="none" stroke="#eec900" d="M369,-52.03C357.54,-63.17 341.16,-77.08 324,-85 297.73,-97.13 267.66,-105.06 239.16,-110.25"/>
<polygon fill="#eec900" stroke="#eec900" points="238.41,-106.83 229.15,-111.97 239.6,-113.73 238.41,-106.83"/>
<text text-anchor="middle" x="382" y="-73.8" font-family="Times,serif" font-size="14.00" fill="darkgreen">TCP 8080</text>
</g>
</g>
</svg>
