<?xml version="1.0" encoding="UTF-8" standalone="no"?>
<!DOCTYPE svg PUBLIC "-//W3C//DTD SVG 1.1//EN" "http://www.w3.org/Graphics/SVG/1.1/DTD/svg11.dtd">
<!-- Generated by graphviz version 2.40.1 (20161225.0304)
 -->
<!-- Title: %0 Pages: 1 -->
<svg width="372pt" height="222pt" viewBox="0.00 0.00 372.21 221.60" xmlns="http://www.w3.org/2000/svg" xmlns:xlink="http://www.w3.org/1999/xlink">
<g id="graph0" class="graph" transform="scale(1 1) rotate(0) translate(4 217.6)">
<title>%0</title>
<polygon fill="#ffffff" stroke="transparent" points="-4,4 -4,-217.6 368.208,-217.6 368.208,4 -4,4"/>
<!-- 0.0.0.0&#45;255.255.255.255 -->
<g id="node1" class="node">
<title>0.0.0.0-255.255.255.255</title>
<ellipse fill="none" stroke="#ee0000" cx="127.4143" cy="-195.6" rx="105.9846" ry="18"/>
<text text-anchor="middle" x="127.4143" y="-191.4" font-family="Times,serif" font-size="14.00" fill="#ee0000">0.0.0.0-255.255.255.255</text>
</g>
<!-- default/frontend[Deployment] -->
<g id="node3" class="node">
<title>default/frontend[Deployment]</title>
<ellipse fill="none" stroke="#0000ff" cx="127.4143" cy="-106.8" rx="127.3286" ry="18"/>
<text text-anchor="middle" x="127.4143" y="-102.6" font-family="Times,serif" font-size="14.00" fill="#0000ff">default/frontend[Deployment]</text>
</g>
<!-- 0.0.0.0&#45;255.255.255.255&#45;&gt;default/frontend[Deployment] -->
<g id="edge1" class="edge">
<title>0.0.0.0-255.255.255.255-&gt;default/frontend[Deployment]</title>
<path fill="none" stroke="#eec900" d="M101.9454,-177.9255C96.4012,-172.7204 91.2878,-166.5347 88.2425,-159.6 83.9558,-149.8385 88.0122,-140.1711 94.8941,-131.8287"/>
<polygon fill="#eec900" stroke="#eec900" points="97.4548,-134.2152 101.8502,-124.5751 92.4025,-129.3701 97.4548,-134.2152"/>
<text text-anchor="middle" x="117.0002" y="-147" font-family="Times,serif" font-size="14.00" fill="#006400">TCP 8080</text>
</g>
<!-- default/backend[Deployment] -->
<g id="node2" class="node">
<title>default/backend[Deployment]</title>
<ellipse fill="none" stroke="#0000ff" cx="127.4143" cy="-18" rx="126.749" ry="18"/>
<text text-anchor="middle" x="127.4143" y="-13.8" font-family="Times,serif" font-size="14.00" fill="#0000ff">default/backend[Deployment]</text>
</g>
<!-- default/backend[Deployment]&#45;&gt;default/backend[Deployment] -->
<g id="edge2" class="edge">
<title>default/backend[Deployment]-&gt;default/backend[Deployment]</title>
<path fill="none" stroke="#eec900" d="M242.7719,-25.5229C260.3514,-24.3748 272.2887,-21.8672 272.2887,-18 272.2887,-14.9485 264.8563,-12.7436 253.0842,-11.3851"/>
<polygon fill="#eec900" stroke="#eec900" points="253.0404,-7.8678 242.7719,-10.4771 252.4264,-14.8408 253.0404,-7.8678"/>
<text text-anchor="middle" x="317.9784" y="-13.8" font-family="Times,serif" font-size="14.00" fill="#006400">All Connections</text>
</g>
<!-- default/frontend[Deployment]&#45;&gt;0.0.0.0&#45;255.255.255.255 -->
<g id="edge3" class="edge">
<title>default/frontend[Deployment]-&gt;0.0.0.0-255.255.255.255</title>
<path fill="none" stroke="#eec900" d="M138.4817,-124.8594C141.3157,-130.4127 143.9694,-136.6793 145.4143,-142.8 147.1298,-150.0669 147.1298,-152.3331 145.4143,-159.6 144.737,-162.4691 143.7941,-165.3702 142.6915,-168.2149"/>
<polygon fill="#eec900" stroke="#eec900" points="139.4061,-166.9862 138.4817,-177.5406 145.7862,-169.8663 139.4061,-166.9862"/>
<text text-anchor="middle" x="169.1622" y="-147" font-family="Times,serif" font-size="14.00" fill="#006400">UDP 53</text>
</g>
<!-- default/frontend[Deployment]&#45;&gt;default/backend[Deployment] -->
<g id="edge4" class="edge">
<title>default/frontend[Deployment]-&gt;default/backend[Deployment]</title>
<path fill="none" stroke="#eec900" d="M127.4143,-88.4006C127.4143,-76.2949 127.4143,-60.2076 127.4143,-46.4674"/>
<polygon fill="#eec900" stroke="#eec900" points="130.9144,-46.072 127.4143,-36.072 123.9144,-46.0721 130.9144,-46.072"/>
<text text-anchor="middle" x="156.0002" y="-58.2" font-family="Times,serif" font-size="14.00" fill="#006400">TCP 9090</text>
</g>
<!-- default/frontend[Deployment]&#45;&gt;default/frontend[Deployment] -->
<g id="edge5" class="edge">
<title>default/frontend[Deployment]-&gt;default/frontend[Deployment]</title>
<path fill="none" stroke="#eec900" d="M243.2018,-114.3229C260.8468,-113.1748 272.8286,-110.6672 272.8286,-106.8 272.8286,-103.7183 265.22,-101.5 253.2003,-100.145"/>
<polygon fill="#eec900" stroke="#eec900" points="253.467,-96.6551 243.2018,-99.2771 252.8616,-103.6289 253.467,-96.6551"/>
<text text-anchor="middle" x="318.5183" y="-102.6" font-family="Times,serif" font-size="14.00" fill="#006400">All Connections</text>
</g>
</g>
</svg>