<?xml version="1.0" encoding="UTF-8" standalone="no"?>
<!DOCTYPE svg PUBLIC "-//W3C//DTD SVG 1.1//EN"
 "http://www.w3.org/Graphics/SVG/1.1/DTD/svg11.dtd">
<!-- Generated by graphviz version 2.46.0 (20210118.1747)
 -->
<!-- Pages: 1 -->
<svg width="415pt" height="278pt"
 viewBox="0.00 0.00 414.89 278.00" xmlns="http://www.w3.org/2000/svg" xmlns:xlink="http://www.w3.org/1999/xlink">
<g id="graph0" class="graph" transform="scale(1 1) rotate(0) translate(4 274)">
<polygon fill="white" stroke="transparent" points="-4,4 -4,-274 410.89,-274 410.89,4 -4,4"/>
<g id="clust2" class="cluster">
<title>cluster_namespace with {effect=NoSchedule}</title>
<polygon fill="none" stroke="#ee0000" points="8,-187 8,-262 248,-262 248,-187 8,-187"/>
<text text-anchor="middle" x="128" y="-246.8" font-family="Times New Roman,serif" font-size="14.00" fill="#ee0000">namespace with {effect=NoSchedule}</text>
</g>
<g id="clust1" class="cluster">
<title>cluster_hello_world</title>
<polygon fill="none" stroke="black" points="19,-79 19,-154 237,-154 237,-79 19,-79"/>
<text text-anchor="middle" x="128" y="-138.8" font-family="Times New Roman,serif" font-size="14.00">hello&#45;world</text>
</g>
<!-- hello&#45;world/workload&#45;a[Deployment] -->
<g id="node1" class="node">
<title>hello&#45;world/workload&#45;a[Deployment]</title>
<ellipse fill="none" stroke="blue" cx="128" cy="-105" rx="101.28" ry="18"/>
<text text-anchor="middle" x="128" y="-101.3" font-family="Times New Roman,serif" font-size="14.00" fill="blue">workload&#45;a[Deployment]</text>
</g>
<!-- 0.0.0.0&#45;255.255.255.255 -->
<g id="node3" class="node">
<title>0.0.0.0&#45;255.255.255.255</title>
<ellipse fill="none" stroke="#ee0000" cx="128" cy="-18" rx="98.58" ry="18"/>
<text text-anchor="middle" x="128" y="-14.3" font-family="Times New Roman,serif" font-size="14.00" fill="#ee0000">0.0.0.0&#45;255.255.255.255</text>
</g>
<!-- hello&#45;world/workload&#45;a[Deployment]&#45;&gt;0.0.0.0&#45;255.255.255.255 -->
<g id="edge1" class="edge">
<title>hello&#45;world/workload&#45;a[Deployment]&#45;&gt;0.0.0.0&#45;255.255.255.255</title>
<path fill="none" stroke="#eec900" d="M128,-86.8C128,-75.16 128,-59.55 128,-46.24"/>
<polygon fill="#eec900" stroke="#eec900" points="131.5,-46.18 128,-36.18 124.5,-46.18 131.5,-46.18"/>
<text text-anchor="middle" x="173.5" y="-57.8" font-family="Times New Roman,serif" font-size="14.00" fill="darkgreen">All Connections</text>
</g>
<!-- entire&#45;cluster -->
<g id="node4" class="node">
<title>entire&#45;cluster</title>
<polygon fill="none" stroke="#ee0000" points="326,-36 245.23,-18 326,0 406.77,-18 326,-36"/>
<text text-anchor="middle" x="326" y="-14.3" font-family="Times New Roman,serif" font-size="14.00" fill="#ee0000">entire&#45;cluster</text>
</g>
<!-- hello&#45;world/workload&#45;a[Deployment]&#45;&gt;entire&#45;cluster -->
<g id="edge2" class="edge">
<title>hello&#45;world/workload&#45;a[Deployment]&#45;&gt;entire&#45;cluster</title>
<path fill="none" stroke="#8b4500" stroke-dasharray="5,2" d="M172.34,-88.69C188.43,-82.87 206.67,-75.95 223,-69 247.16,-58.72 273.81,-45.73 293.94,-35.58"/>
<polygon fill="#8b4500" stroke="#8b4500" points="295.65,-38.63 302.99,-30.98 292.48,-32.39 295.65,-38.63"/>
<text text-anchor="middle" x="299.5" y="-57.8" font-family="Times New Roman,serif" font-size="14.00" fill="darkgreen">All Connections</text>
</g>
<!-- pod with {role=monitoring}_in_namespace with {effect=NoSchedule} -->
<g id="node2" class="node">
<title>pod with {role=monitoring}_in_namespace with {effect=NoSchedule}</title>
<ellipse fill="none" stroke="#ee0000" cx="128" cy="-213" rx="112.38" ry="18"/>
<text text-anchor="middle" x="128" y="-209.3" font-family="Times New Roman,serif" font-size="14.00" fill="#ee0000">pod with {role=monitoring}</text>
</g>
<!-- pod with {role=monitoring}_in_namespace with {effect=NoSchedule}&#45;&gt;hello&#45;world/workload&#45;a[Deployment] -->
<g id="edge3" class="edge">
<title>pod with {role=monitoring}_in_namespace with {effect=NoSchedule}&#45;&gt;hello&#45;world/workload&#45;a[Deployment]</title>
<path fill="none" stroke="#ee7600" stroke-dasharray="5,2" d="M128,-194.97C128,-178.38 128,-152.88 128,-133.43"/>
<polygon fill="#ee7600" stroke="#ee7600" points="131.5,-133.34 128,-123.34 124.5,-133.34 131.5,-133.34"/>
<text text-anchor="middle" x="157" y="-165.8" font-family="Times New Roman,serif" font-size="14.00" fill="darkgreen">TCP 8050</text>
</g>
</g>
</svg>
