<svg width="31" height="31" viewBox="0 0 31 31" fill="none" xmlns="http://www.w3.org/2000/svg">
<rect width="31" height="31" fill="white"/>
<path fill-rule="evenodd" clip-rule="evenodd" d="M3.57338 2H27.4266C28.2956 2 29 2.78342 29 3.74983V27.2502C29 28.2166 28.2956 29 27.4266 29H3.57338C2.70443 29 2 28.2166 2 27.2502L2 3.74983C2 2.78342 2.70443 2 3.57338 2Z" fill="#8C9CF0" fill-opacity="0.194848" stroke="#5771F7" stroke-width="1.61165" stroke-dasharray="1 1"/>
<rect x="7.54" y="7.54" width="15.92" height="15.92" fill="#A4B7FC" stroke="#4B5CB7" stroke-width="1.08"/>
<rect x="22" y="9" width="2.6" height="2.6" transform="rotate(90 22 9)" fill="#CAD7FC"/>
<rect x="22" y="14.2" width="2.6" height="2.6" transform="rotate(90 22 14.2)" fill="#CAD7FC"/>
<rect x="22" y="19.4" width="2.6" height="2.6" transform="rotate(90 22 19.4)" fill="#CAD7FC"/>
<rect x="19.4" y="16.8" width="2.6" height="2.6" transform="rotate(90 19.4 16.8)" fill="#CAD7FC"/>
<rect x="19.4" y="11.6" width="2.6" height="2.6" transform="rotate(90 19.4 11.6)" fill="#CAD7FC"/>
<rect x="16.8" y="9" width="2.6" height="2.6" transform="rotate(90 16.8 9)" fill="#CAD7FC"/>
<rect x="14.2" y="11.6" width="2.6" height="2.6" transform="rotate(90 14.2 11.6)" fill="#CAD7FC"/>
<rect x="11.6" y="9" width="2.6" height="2.6" transform="rotate(90 11.6 9)" fill="#CAD7FC"/>
<rect x="11.6" y="14.2" width="2.6" height="2.6" transform="rotate(90 11.6 14.2)" fill="#CAD7FC"/>
<rect x="14.2" y="16.8" width="2.6" height="2.6" transform="rotate(90 14.2 16.8)" fill="#CAD7FC"/>
<rect x="16.8" y="14.2" width="2.6" height="2.6" transform="rotate(90 16.8 14.2)" fill="#CAD7FC"/>
<rect x="16.8" y="19.4" width="2.6" height="2.6" transform="rotate(90 16.8 19.4)" fill="#CAD7FC"/>
<rect x="11.6" y="19.4" width="2.6" height="2.6" transform="rotate(90 11.6 19.4)" fill="#CAD7FC"/>
</svg>
