<svg width="31" height="31" viewBox="0 0 31 31" fill="none" xmlns="http://www.w3.org/2000/svg">
<rect width="31" height="31" fill="white"/>
<path fill-rule="evenodd" clip-rule="evenodd" d="M15.5 29C22.9558 29 29 22.9558 29 15.5C29 8.04416 22.9558 2 15.5 2C8.04416 2 2 8.04416 2 15.5C2 22.9558 8.04416 29 15.5 29Z" fill="#8C9CF0" fill-opacity="0.194848" stroke="#1D3DE8" stroke-width="1.45048" stroke-dasharray="0.9 0.9"/>
<path fill-rule="evenodd" clip-rule="evenodd" d="M20.1709 14.1756V12.8203C20.1709 11.6454 19.8614 10.4688 19.2762 9.41737C18.6945 8.37268 17.8378 7.44749 16.7986 6.74159L15.4963 5.85712L14.1938 6.74159C13.1546 7.44749 12.2979 8.37268 11.7162 9.41737C11.1309 10.4686 10.8215 11.6454 10.8215 12.8203V14.1756L8.19122 15.703V20.6862H11.4764L12.7332 23.066V24.2708H13.923V23.2155H14.9013V25.9143H16.0911V23.2155H17.0694V24.2708H18.2592V23.0659L19.516 20.6862H22.8012V15.703L20.1709 14.1756ZM14.8672 7.71146L15.4961 7.28437L16.125 7.71146C16.9645 8.28163 17.645 9.00482 18.1309 9.81707H12.8615C13.3474 9.00482 14.0279 8.28163 14.8672 7.71146ZM18.1738 20.6862L17.4593 22.0389H13.5331L12.8186 20.6862H18.1738ZM9.38103 19.5096V16.3766L10.8215 15.54V19.5096H9.38103ZM21.6114 19.5096H20.1709V15.54L21.6114 16.3766V19.5096Z" fill="#3145AA"/>
<path d="M17.0694 24.8422H18.2592V25.9143H17.0694V24.8422Z" fill="black"/>
<path d="M12.7332 24.8422H13.923V25.9143H12.7332V24.8422Z" fill="black"/>
<path fill-rule="evenodd" clip-rule="evenodd" d="M12.0114 12.8203C12.0114 12.1977 12.1166 11.5825 12.316 10.9937H18.6764C18.8759 11.5825 18.9811 12.1977 18.9811 12.8203V19.5096H12.0114V12.8203Z" fill="#A4B7FC"/>
<path fill-rule="evenodd" clip-rule="evenodd" d="M15.5185 12.1386H15.4738C14.3858 12.1386 13.5009 13.0139 13.5009 14.0897V16.8908H17.4915V14.0897C17.4915 13.0139 16.6065 12.1386 15.5185 12.1386ZM16.3017 15.7142H14.6905V14.0897C14.6905 13.6626 15.0419 13.3152 15.4738 13.3152H15.5185C15.9504 13.3152 16.3017 13.6626 16.3017 14.0897V15.7142Z" fill="#5164BB"/>
</svg>
