<svg width="31" height="31" viewBox="0 0 31 31" fill="none" xmlns="http://www.w3.org/2000/svg">
<rect width="31" height="31" fill="white"/>
<path fill-rule="evenodd" clip-rule="evenodd" d="M15.5 29C22.9558 29 29 22.9558 29 15.5C29 8.04416 22.9558 2 15.5 2C8.04416 2 2 8.04416 2 15.5C2 22.9558 8.04416 29 15.5 29Z" fill="#8C9CF0" fill-opacity="0.194848" stroke="#5771F7" stroke-width="1.45048" stroke-dasharray="0.9 0.9"/>
<path d="M15.4999 6.77292C10.6802 6.77292 6.77292 10.6802 6.77292 15.4998C6.77292 20.3194 10.6803 24.2271 15.4999 24.2271C20.3195 24.2271 24.2271 20.3195 24.2271 15.4998C24.2271 10.6801 20.3197 6.77292 15.4999 6.77292ZM15.0576 20.2076H11.0727V19.7372C11.0727 18.1615 11.7216 17.2205 12.9111 16.5605C13.1464 16.43 13.878 16.0838 13.8529 16.0965C13.9573 16.0439 14.0396 15.9975 14.1028 15.9562C13.3479 15.3868 12.878 14.385 12.878 13.287C12.878 11.5662 14.0264 10.1348 15.4999 10.1348C16.9734 10.1348 18.1218 11.5662 18.1218 13.287C18.1218 14.3847 17.6525 15.3874 16.8974 15.9571C16.9606 15.9984 17.0426 16.0445 17.1465 16.0968C17.1213 16.0841 17.853 16.4302 18.0882 16.5607C19.2779 17.2207 19.9268 18.1616 19.9268 19.7374V20.2077H15.0576V20.2076Z" fill="#A4B7FC" stroke="#3145AA" stroke-width="1.08"/>
</svg>
