<svg width="31" height="31" viewBox="0 0 31 31" fill="none" xmlns="http://www.w3.org/2000/svg">
<rect width="31" height="31" fill="white"/>
<path fill-rule="evenodd" clip-rule="evenodd" d="M3.57338 2H27.4266C28.2956 2 29 2.78342 29 3.74983V27.2502C29 28.2166 28.2956 29 27.4266 29H3.57338C2.70443 29 2 28.2166 2 27.2502L2 3.74983C2 2.78342 2.70443 2 3.57338 2Z" fill="#F2F4FF" stroke="#5771F7" stroke-width="1.61165" stroke-dasharray="1 1"/>
<rect x="7.54" y="7.54" width="15.92" height="15.92" fill="#A4B7FC" stroke="#4B5CB7" stroke-width="1.08"/>
<rect x="18.5688" y="12.3607" width="5.975" height="5.975" transform="rotate(90 18.5688 12.3607)" fill="#CAD7FC" stroke="#4B5CB7" stroke-width="0.4"/>
<rect x="18.4188" y="12.5107" width="5.675" height="5.675" transform="rotate(90 18.4188 12.5107)" fill="#CAD7FC" stroke="#4B5CB7" stroke-width="0.7"/>
<line x1="15.55" y1="13" x2="15.55" y2="17.8" stroke="#A4B7FC" stroke-width="0.1"/>
<line x1="17.9" y1="15.45" x2="13.1" y2="15.45" stroke="#A4B7FC" stroke-width="0.1"/>
</svg>
