<svg width="31" height="31" viewBox="0 0 31 31" fill="none" xmlns="http://www.w3.org/2000/svg">
<rect width="31" height="31" fill="white"/>
<path fill-rule="evenodd" clip-rule="evenodd" d="M3.57338 2H27.4266C28.2956 2 29 2.78342 29 3.74983V27.2502C29 28.2166 28.2956 29 27.4266 29H3.57338C2.70443 29 2 28.2166 2 27.2502L2 3.74983C2 2.78342 2.70443 2 3.57338 2Z" fill="#8C9CF0" fill-opacity="0.194848" stroke="#5771F7" stroke-width="1.61165" stroke-dasharray="1 1"/>
<rect x="7.54" y="7.54" width="15.92" height="15.92" fill="#E9ECFC" stroke="#4B5CB7" stroke-width="1.08"/>
<g opacity="0.55">
<rect x="9.15" y="9.15" width="5.7" height="5.7" fill="#A4B7FC" stroke="#4B5CB7" stroke-width="0.3"/>
</g>
<g opacity="0.55">
<rect x="9.15" y="16.15" width="5.7" height="5.7" fill="#A4B7FC" stroke="#4B5CB7" stroke-width="0.3"/>
</g>
<g opacity="0.55">
<rect x="14.1429" y="9.85712" width="0.857143" height="0.857143" transform="rotate(90 14.1429 9.85712)" fill="#CAD7FC"/>
<rect x="14.1429" y="11.5714" width="0.857143" height="0.857143" transform="rotate(90 14.1429 11.5714)" fill="#CAD7FC"/>
<rect x="14.1429" y="13.2857" width="0.857143" height="0.857143" transform="rotate(90 14.1429 13.2857)" fill="#CAD7FC"/>
<rect x="13.2858" y="12.4285" width="0.857143" height="0.857143" transform="rotate(90 13.2858 12.4285)" fill="#CAD7FC"/>
<rect x="13.2858" y="10.7142" width="0.857143" height="0.857143" transform="rotate(90 13.2858 10.7142)" fill="#CAD7FC"/>
<rect x="12.4286" y="9.85712" width="0.857143" height="0.857143" transform="rotate(90 12.4286 9.85712)" fill="#CAD7FC"/>
<rect x="11.5714" y="10.7142" width="0.857143" height="0.857143" transform="rotate(90 11.5714 10.7142)" fill="#CAD7FC"/>
<rect x="10.7144" y="9.85712" width="0.857143" height="0.857143" transform="rotate(90 10.7144 9.85712)" fill="#CAD7FC"/>
<rect x="10.7144" y="11.5714" width="0.857143" height="0.857143" transform="rotate(90 10.7144 11.5714)" fill="#CAD7FC"/>
<rect x="11.5714" y="12.4285" width="0.857143" height="0.857143" transform="rotate(90 11.5714 12.4285)" fill="#CAD7FC"/>
<rect x="12.4286" y="11.5714" width="0.857143" height="0.857143" transform="rotate(90 12.4286 11.5714)" fill="#CAD7FC"/>
<rect x="12.4286" y="13.2857" width="0.857143" height="0.857143" transform="rotate(90 12.4286 13.2857)" fill="#CAD7FC"/>
<rect x="10.7144" y="13.2857" width="0.857143" height="0.857143" transform="rotate(90 10.7144 13.2857)" fill="#CAD7FC"/>
</g>
<g opacity="0.55">
<rect x="16.15" y="9.15" width="5.7" height="5.7" fill="#A4B7FC" stroke="#4B5CB7" stroke-width="0.3"/>
</g>
<g opacity="0.55">
<rect x="21.1429" y="9.85712" width="0.857143" height="0.857143" transform="rotate(90 21.1429 9.85712)" fill="#CAD7FC"/>
<rect x="21.1429" y="11.5714" width="0.857143" height="0.857143" transform="rotate(90 21.1429 11.5714)" fill="#CAD7FC"/>
<rect x="21.1429" y="13.2857" width="0.857143" height="0.857143" transform="rotate(90 21.1429 13.2857)" fill="#CAD7FC"/>
<rect x="20.2858" y="12.4285" width="0.857143" height="0.857143" transform="rotate(90 20.2858 12.4285)" fill="#CAD7FC"/>
<rect x="20.2858" y="10.7142" width="0.857143" height="0.857143" transform="rotate(90 20.2858 10.7142)" fill="#CAD7FC"/>
<rect x="19.4286" y="9.85712" width="0.857143" height="0.857143" transform="rotate(90 19.4286 9.85712)" fill="#CAD7FC"/>
<rect x="18.5714" y="10.7142" width="0.857143" height="0.857143" transform="rotate(90 18.5714 10.7142)" fill="#CAD7FC"/>
<rect x="17.7144" y="9.85712" width="0.857143" height="0.857143" transform="rotate(90 17.7144 9.85712)" fill="#CAD7FC"/>
<rect x="17.7144" y="11.5714" width="0.857143" height="0.857143" transform="rotate(90 17.7144 11.5714)" fill="#CAD7FC"/>
<rect x="18.5714" y="12.4285" width="0.857143" height="0.857143" transform="rotate(90 18.5714 12.4285)" fill="#CAD7FC"/>
<rect x="19.4286" y="11.5714" width="0.857143" height="0.857143" transform="rotate(90 19.4286 11.5714)" fill="#CAD7FC"/>
<rect x="19.4286" y="13.2857" width="0.857143" height="0.857143" transform="rotate(90 19.4286 13.2857)" fill="#CAD7FC"/>
<rect x="17.7144" y="13.2857" width="0.857143" height="0.857143" transform="rotate(90 17.7144 13.2857)" fill="#CAD7FC"/>
</g>
<g opacity="0.55">
<rect x="16.15" y="16.15" width="5.7" height="5.7" fill="#A4B7FC" stroke="#4B5CB7" stroke-width="0.3"/>
</g>
<g opacity="0.55">
<rect x="21.143" y="16.8571" width="0.857143" height="0.857143" transform="rotate(90 21.143 16.8571)" fill="#CAD7FC"/>
<rect x="21.143" y="18.5714" width="0.857143" height="0.857143" transform="rotate(90 21.143 18.5714)" fill="#CAD7FC"/>
<rect x="21.143" y="20.2857" width="0.857143" height="0.857143" transform="rotate(90 21.143 20.2857)" fill="#CAD7FC"/>
<rect x="20.2858" y="19.4285" width="0.857143" height="0.857143" transform="rotate(90 20.2858 19.4285)" fill="#CAD7FC"/>
<rect x="20.2858" y="17.7142" width="0.857143" height="0.857143" transform="rotate(90 20.2858 17.7142)" fill="#CAD7FC"/>
<rect x="19.4286" y="16.8571" width="0.857143" height="0.857143" transform="rotate(90 19.4286 16.8571)" fill="#CAD7FC"/>
<rect x="18.5715" y="17.7142" width="0.857143" height="0.857143" transform="rotate(90 18.5715 17.7142)" fill="#CAD7FC"/>
<rect x="17.7144" y="16.8571" width="0.857143" height="0.857143" transform="rotate(90 17.7144 16.8571)" fill="#CAD7FC"/>
<rect x="17.7144" y="18.5714" width="0.857143" height="0.857143" transform="rotate(90 17.7144 18.5714)" fill="#CAD7FC"/>
<rect x="18.5715" y="19.4285" width="0.857143" height="0.857143" transform="rotate(90 18.5715 19.4285)" fill="#CAD7FC"/>
<rect x="19.4286" y="18.5714" width="0.857143" height="0.857143" transform="rotate(90 19.4286 18.5714)" fill="#CAD7FC"/>
<rect x="19.4286" y="20.2857" width="0.857143" height="0.857143" transform="rotate(90 19.4286 20.2857)" fill="#CAD7FC"/>
<rect x="17.7144" y="20.2857" width="0.857143" height="0.857143" transform="rotate(90 17.7144 20.2857)" fill="#CAD7FC"/>
</g>
<g opacity="0.55">
<rect x="14" y="17" width="0.8" height="0.8" transform="rotate(90 14 17)" fill="#CAD7FC"/>
<rect x="14" y="18.6" width="0.8" height="0.8" transform="rotate(90 14 18.6)" fill="#CAD7FC"/>
<rect x="14" y="20.2" width="0.8" height="0.8" transform="rotate(90 14 20.2)" fill="#CAD7FC"/>
<rect x="13.2" y="19.4" width="0.8" height="0.8" transform="rotate(90 13.2 19.4)" fill="#CAD7FC"/>
<rect x="13.2" y="17.8" width="0.8" height="0.8" transform="rotate(90 13.2 17.8)" fill="#CAD7FC"/>
<rect x="12.4" y="17" width="0.8" height="0.8" transform="rotate(90 12.4 17)" fill="#CAD7FC"/>
<rect x="11.6" y="17.8" width="0.8" height="0.8" transform="rotate(90 11.6 17.8)" fill="#CAD7FC"/>
<rect x="10.8" y="17" width="0.8" height="0.8" transform="rotate(90 10.8 17)" fill="#CAD7FC"/>
<rect x="10.8" y="18.6" width="0.8" height="0.8" transform="rotate(90 10.8 18.6)" fill="#CAD7FC"/>
<rect x="11.6" y="19.4" width="0.8" height="0.8" transform="rotate(90 11.6 19.4)" fill="#CAD7FC"/>
<rect x="12.4" y="18.6" width="0.8" height="0.8" transform="rotate(90 12.4 18.6)" fill="#CAD7FC"/>
<rect x="12.4" y="20.2" width="0.8" height="0.8" transform="rotate(90 12.4 20.2)" fill="#CAD7FC"/>
<rect x="10.8" y="20.2" width="0.8" height="0.8" transform="rotate(90 10.8 20.2)" fill="#CAD7FC"/>
</g>
</svg>
