<svg width="31" height="31" viewBox="0 0 31 31" fill="none" xmlns="http://www.w3.org/2000/svg">
<rect width="31" height="31" fill="white"/>
<circle cx="15.5" cy="15.5" r="13.5" fill="#CDD9FC" stroke="#5771F7" stroke-width="1.61" stroke-dasharray="1 1"/>
<g opacity="0.75">
<circle cx="15.5" cy="15.5" r="6.35" stroke="#A4B7FC" stroke-width="0.3" stroke-dasharray="1.5 1.5"/>
<circle cx="15.5" cy="15.5" r="4.82059" transform="rotate(-15.3267 15.5 15.5)" stroke="#A4B7FC" stroke-width="0.3" stroke-dasharray="1.5 1.5"/>
<circle cx="15.5" cy="15.5" r="3.20703" transform="rotate(-52.4583 15.5 15.5)" stroke="#A4B7FC" stroke-width="0.3" stroke-dasharray="1.5 1.5"/>
<circle cx="15.5" cy="15.5" r="1.78403" transform="rotate(-76.0487 15.5 15.5)" stroke="#A4B7FC" stroke-width="0.3" stroke-dasharray="1.5 1.5"/>
</g>
<path d="M23.9616 15.7788L22.7504 15.1765C22.7472 14.707 22.7013 14.2412 22.6117 13.7829L23.682 12.9578C24.1366 12.6059 24.272 11.9792 23.9977 11.4734L23.2076 9.99914C23.0591 9.72209 22.8135 9.51937 22.5134 9.42868C22.2778 9.35752 22.0318 9.36198 21.8005 9.44137L20.517 9.87455C20.1721 9.53401 19.7967 9.22572 19.3923 8.95844L19.5607 7.63274C19.6336 7.06187 19.2857 6.52554 18.7347 6.3591L17.1352 5.87584C16.5843 5.70939 15.9975 5.96335 15.7422 6.47912L15.1316 7.70435C14.6659 7.70877 14.1989 7.75843 13.7395 7.85182L12.9219 6.78386C12.7733 6.58968 12.5671 6.44862 12.3315 6.37745C12.0314 6.28677 11.7108 6.31846 11.4376 6.4681L9.95949 7.25712C9.45487 7.52757 9.21687 8.12322 9.40057 8.66797L9.8379 9.96519C9.50841 10.301 9.21611 10.6646 8.95722 11.0549L7.63152 10.8866C7.06065 10.8137 6.52432 11.1616 6.35788 11.7125L5.87462 13.3121C5.70818 13.863 5.96213 14.4497 6.4779 14.7051L7.70313 15.3157C7.70755 15.7814 7.75721 16.2484 7.8506 16.7078L6.78759 17.5227C6.33298 17.8746 6.19757 18.5013 6.47183 19.007L7.26199 20.4813C7.41048 20.7584 7.65605 20.9611 7.95621 21.0518C8.19178 21.123 8.43775 21.1185 8.66905 21.0391L9.96627 20.6018C10.2892 20.9191 10.6426 21.2041 11.0177 21.4584L10.8448 22.7993C10.7718 23.3702 11.1197 23.9065 11.6707 24.073L13.274 24.5574C13.8249 24.7238 14.4117 24.4699 14.667 23.9541L15.2693 22.7429C15.7388 22.7396 16.2046 22.6938 16.6628 22.6042L17.488 23.6745C17.6367 23.8686 17.8428 24.0097 18.0784 24.0809C18.3785 24.1715 18.6953 24.1387 18.9723 23.9902L20.4466 23.2C20.9513 22.9296 21.1893 22.3339 21.0056 21.7892L20.5724 20.5057C20.9019 20.1699 21.2018 19.8085 21.4595 19.422L22.8004 19.5949C23.3713 19.6679 23.9076 19.3199 24.0741 18.769L24.5573 17.1694C24.7314 16.6208 24.4774 16.0341 23.9616 15.7788ZM23.0558 18.4614C23.0409 18.5108 22.9941 18.5422 22.9424 18.5349L21.2662 18.3188C21.0545 18.2921 20.8502 18.3921 20.7423 18.5709C20.4291 19.0858 20.0469 19.555 19.6002 19.9632C19.4448 20.107 19.387 20.3258 19.4543 20.5286L19.9933 22.1343C20.0084 22.1803 19.9874 22.2362 19.9428 22.2601L18.4685 23.0502C18.4339 23.0688 18.4061 23.0645 18.3872 23.0588C18.3644 23.0519 18.3477 23.0386 18.3359 23.0226L17.301 21.6858C17.1732 21.5187 16.9552 21.4445 16.7494 21.4943C16.1621 21.6403 15.5598 21.6988 14.9577 21.6744C14.7452 21.6641 14.5477 21.7827 14.4576 21.9711L13.7057 23.4854C13.6832 23.5325 13.6311 23.5541 13.5817 23.5391L11.9821 23.0559C11.9327 23.0409 11.9012 22.9941 11.9086 22.9424L12.1247 21.2663C12.1514 21.0546 12.0514 20.8503 11.8725 20.7423C11.3717 20.4376 10.9128 20.0626 10.5076 19.6334C10.4416 19.5637 10.3573 19.5134 10.2699 19.487C10.1673 19.456 10.0518 19.4542 9.94485 19.4924L8.32923 20.0367C8.30678 20.0424 8.28549 20.0442 8.26649 20.0385C8.2513 20.0339 8.22205 20.0209 8.20349 19.9863L7.41332 18.512C7.38946 18.4674 7.40173 18.4131 7.44095 18.3794L8.77163 17.3509C8.93992 17.2193 9.0141 17.0013 8.96432 16.7955C8.81719 16.212 8.75107 15.6074 8.77543 15.0053C8.78078 14.7955 8.66597 14.5991 8.47873 14.5052L6.95421 13.7461C6.90711 13.7235 6.88555 13.6714 6.90047 13.622L7.38373 12.0225C7.39865 11.9731 7.44547 11.9416 7.49716 11.9489L9.16188 12.1616C9.37358 12.1883 9.58173 12.0895 9.69081 11.9068C10.0001 11.3908 10.3797 10.9167 10.8226 10.5073C10.978 10.3635 11.032 10.1435 10.9636 9.94457L10.4193 8.32894C10.4042 8.28291 10.4252 8.22707 10.4697 8.2032L11.944 7.41304C11.9787 7.39448 12.0064 7.39871 12.0254 7.40445C12.0482 7.41134 12.0649 7.42468 12.0767 7.44067L13.1051 8.77135C13.2367 8.93964 13.4548 9.01382 13.6605 8.96403C14.244 8.8169 14.8486 8.75079 15.4507 8.77515C15.6606 8.7805 15.857 8.66569 15.9508 8.47845L16.71 6.95393C16.7325 6.90683 16.7846 6.88526 16.834 6.90018L18.4336 7.38344C18.483 7.39837 18.5144 7.44519 18.5071 7.49688L18.2944 9.1616C18.2677 9.3733 18.3666 9.58144 18.5492 9.69052C19.0793 10.0082 19.5587 10.3977 19.9772 10.8517C20.1209 11.0071 20.3398 11.0649 20.5426 10.9976L22.138 10.4514C22.1605 10.4457 22.1818 10.4438 22.2008 10.4496C22.216 10.4542 22.2452 10.4672 22.2638 10.5018L23.0539 11.9761C23.0778 12.0206 23.0655 12.075 23.0263 12.1087L21.6895 13.1436C21.5224 13.2714 21.4482 13.4895 21.498 13.6952C21.644 14.2825 21.7025 14.8848 21.6781 15.4869C21.6678 15.6994 21.7865 15.897 21.9748 15.9871L23.4891 16.7389C23.5362 16.7614 23.5578 16.8136 23.5429 16.863L23.0596 18.4625L23.0558 18.4614Z" fill="#4B5CB7"/>
<mask id="path-7-inside-1" fill="white">
<path d="M23.1741 8.78677C22.247 7.64066 21.078 6.7137 19.7507 6.07226C18.4234 5.43082 16.9707 5.09076 15.4966 5.07642C14.0226 5.06209 12.5636 5.37384 11.2241 5.98934C9.88456 6.60485 8.6977 7.5089 7.74847 8.63676C6.79924 9.76462 6.11111 11.0884 5.73334 12.5133C5.35557 13.9382 5.29751 15.4291 5.56331 16.879C5.82911 18.329 6.4122 19.7023 7.27084 20.9006C8.12948 22.0989 9.24242 23.0925 10.53 23.8103L15.3994 15.076L23.1741 8.78677Z"/>
</mask>
<path d="M23.1741 8.78677C22.247 7.64066 21.078 6.7137 19.7507 6.07226C18.4234 5.43082 16.9707 5.09076 15.4966 5.07642C14.0226 5.06209 12.5636 5.37384 11.2241 5.98934C9.88456 6.60485 8.6977 7.5089 7.74847 8.63676C6.79924 9.76462 6.11111 11.0884 5.73334 12.5133C5.35557 13.9382 5.29751 15.4291 5.56331 16.879C5.82911 18.329 6.4122 19.7023 7.27084 20.9006C8.12948 22.0989 9.24242 23.0925 10.53 23.8103L15.3994 15.076L23.1741 8.78677Z" fill="#DBE3FF" stroke="#4B5CB7" mask="url(#path-7-inside-1)"/>
<mask id="path-8-inside-2" fill="white">
<path d="M17.7475 13.1765C17.4675 12.8304 17.1144 12.5504 16.7136 12.3567C16.3127 12.1629 15.874 12.0602 15.4288 12.0559C14.9836 12.0516 14.5429 12.1457 14.1384 12.3316C13.7338 12.5175 13.3754 12.7906 13.0887 13.1312C12.802 13.4718 12.5942 13.8716 12.4801 14.302C12.366 14.7323 12.3484 15.1826 12.4287 15.6205C12.509 16.0584 12.6851 16.4732 12.9444 16.8351C13.2038 17.197 13.5399 17.4971 13.9287 17.7139L15.3994 15.0759L17.7475 13.1765Z"/>
</mask>
<path d="M17.7475 13.1765C17.4675 12.8304 17.1144 12.5504 16.7136 12.3567C16.3127 12.1629 15.874 12.0602 15.4288 12.0559C14.9836 12.0516 14.5429 12.1457 14.1384 12.3316C13.7338 12.5175 13.3754 12.7906 13.0887 13.1312C12.802 13.4718 12.5942 13.8716 12.4801 14.302C12.366 14.7323 12.3484 15.1826 12.4287 15.6205C12.509 16.0584 12.6851 16.4732 12.9444 16.8351C13.2038 17.197 13.5399 17.4971 13.9287 17.7139L15.3994 15.0759L17.7475 13.1765Z" fill="#C9DAFF" stroke="#4B5CB7" stroke-width="0.8" mask="url(#path-8-inside-2)"/>
<mask id="path-9-inside-3" fill="white">
<path d="M16.9346 13.834C16.7515 13.6077 16.5207 13.4246 16.2586 13.2979C15.9965 13.1713 15.7096 13.1041 15.4185 13.1013C15.1275 13.0985 14.8393 13.16 14.5748 13.2816C14.3103 13.4031 14.076 13.5816 13.8885 13.8044C13.7011 14.0271 13.5652 14.2885 13.4906 14.5699C13.416 14.8512 13.4045 15.1456 13.457 15.432C13.5095 15.7183 13.6246 15.9895 13.7942 16.2261C13.9637 16.4627 14.1835 16.6589 14.4378 16.8007L15.3993 15.0759L16.9346 13.834Z"/>
</mask>
<path d="M16.9346 13.834C16.7515 13.6077 16.5207 13.4246 16.2586 13.2979C15.9965 13.1713 15.7096 13.1041 15.4185 13.1013C15.1275 13.0985 14.8393 13.16 14.5748 13.2816C14.3103 13.4031 14.076 13.5816 13.8885 13.8044C13.7011 14.0271 13.5652 14.2885 13.4906 14.5699C13.416 14.8512 13.4045 15.1456 13.457 15.432C13.5095 15.7183 13.6246 15.9895 13.7942 16.2261C13.9637 16.4627 14.1835 16.6589 14.4378 16.8007L15.3993 15.0759L16.9346 13.834Z" stroke="#4B5CB7" stroke-width="0.2" stroke-dasharray="0.2 0.2" mask="url(#path-9-inside-3)"/>
<mask id="path-10-inside-4" fill="white">
<path d="M16.4406 14.2337C16.3164 14.0802 16.1599 13.956 15.9821 13.8701C15.8044 13.7842 15.6098 13.7387 15.4124 13.7367C15.215 13.7348 15.0196 13.7766 14.8402 13.859C14.6608 13.9414 14.5018 14.0625 14.3747 14.2136C14.2476 14.3646 14.1554 14.5419 14.1048 14.7327C14.0543 14.9236 14.0465 15.1232 14.0821 15.3174C14.1177 15.5116 14.1958 15.6955 14.3108 15.856C14.4257 16.0165 14.5748 16.1495 14.7472 16.2457L15.3994 15.0759L16.4406 14.2337Z"/>
</mask>
<path d="M16.4406 14.2337C16.3164 14.0802 16.1599 13.956 15.9821 13.8701C15.8044 13.7842 15.6098 13.7387 15.4124 13.7367C15.215 13.7348 15.0196 13.7766 14.8402 13.859C14.6608 13.9414 14.5018 14.0625 14.3747 14.2136C14.2476 14.3646 14.1554 14.5419 14.1048 14.7327C14.0543 14.9236 14.0465 15.1232 14.0821 15.3174C14.1177 15.5116 14.1958 15.6955 14.3108 15.856C14.4257 16.0165 14.5748 16.1495 14.7472 16.2457L15.3994 15.0759L16.4406 14.2337Z" stroke="#4B5CB7" stroke-width="0.8" mask="url(#path-10-inside-4)"/>
</svg>
