<svg width="31" height="31" viewBox="0 0 31 31" fill="none" xmlns="http://www.w3.org/2000/svg">
<path fill-rule="evenodd" clip-rule="evenodd" d="M15.5 29C22.9558 29 29 22.9558 29 15.5C29 8.04416 22.9558 2 15.5 2C8.04416 2 2 8.04416 2 15.5C2 22.9558 8.04416 29 15.5 29Z" fill="#8C9CF0" fill-opacity="0.194848" stroke="#5771F7" stroke-width="1.45048" stroke-dasharray="0.9 0.9"/>
<path d="M15.4999 9C11.9102 9 9 11.9102 9 15.4998C9 19.0895 11.9102 22 15.4999 22C19.0896 22 22 19.0896 22 15.4998C22 11.9101 19.0897 9 15.4999 9ZM15.1705 19.0062H12.2025V18.6559C12.2025 17.4823 12.6858 16.7814 13.5718 16.2899C13.747 16.1927 14 16 14 16C13.953 16.0307 14.0777 15.9608 14 16C14 15.5 13.8782 15.0204 13.8782 14.2026C13.8782 13.2295 14.2026 11.8244 15.4999 11.5C16.4731 11.8244 17.1218 12.5966 17.1218 13.8782C17.1218 14.6959 17.1218 14.6703 17 15.5C17.0471 15.5307 16.9227 15.961 17 16C17 16 17.2525 16.1928 17.4277 16.29C18.3138 16.7816 18.7971 17.4824 18.7971 18.656V19.0063L15.1705 19.0062Z" fill="#A4B7FC"/>
<path fill-rule="evenodd" clip-rule="evenodd" d="M15.5001 11.6833C14.6911 11.6833 13.9625 12.5046 13.9625 13.6313C13.9625 14.3373 14.2603 14.9573 14.704 15.2975L15.086 15.5903L14.6854 15.8562C14.6261 15.8956 14.5554 15.9356 14.4743 15.9772L14.3643 15.7552L14.2992 15.8429C14.2183 15.7809 14.1415 15.7132 14.0693 15.6404C14.0839 15.7694 14.1402 15.921 14.2694 16.009C14.3278 16.0134 14.4018 16.004 14.4174 15.9999C14.4244 15.9977 14.4354 15.994 14.4393 15.9925L14.4479 15.9892C14.4537 15.9868 14.4584 15.9847 14.4584 15.9847C14.4616 15.9833 14.4637 15.9823 14.4617 15.9832L14.4494 15.9891L14.3935 16.016C14.345 16.0395 14.2767 16.0727 14.2027 16.1091C14.051 16.1838 13.8873 16.266 13.813 16.3079C13.425 16.5267 13.1463 16.7799 12.962 17.0901C12.778 17.3997 12.6723 17.7924 12.6723 18.3166L15.5201 18.3166L18.3277 18.3167C18.3277 17.7925 18.222 17.3998 18.038 17.0902C17.8536 16.78 17.575 16.5269 17.1868 16.308C17.1126 16.2662 16.9489 16.184 16.7971 16.1093C16.7232 16.0729 16.6549 16.0397 16.6064 16.0162L16.5505 15.9893L16.5386 15.9837C16.5386 15.9837 16.5404 15.9845 16.5415 15.985C16.5415 15.985 16.5465 15.9872 16.5522 15.9895L16.561 15.9929C16.5651 15.9944 16.5764 15.9982 16.5838 16.0005C16.6002 16.0048 16.6816 16.0136 16.7461 16.0063C16.8682 15.9134 16.9185 15.7664 16.9307 15.6414C16.8586 15.714 16.7821 15.7816 16.7013 15.8435L16.6357 15.7552L16.5256 15.9774C16.4451 15.9362 16.3745 15.8963 16.3151 15.8569L15.9144 15.5911L16.2964 15.2981C16.7402 14.9578 17.0378 14.3373 17.0378 13.6313C17.0378 12.5046 16.3091 11.6833 15.5001 11.6833ZM17.0722 15.4856C17.4795 14.9958 17.71 14.3299 17.71 13.6313C17.71 12.2581 16.7973 11 15.5001 11C14.203 11 13.2902 12.2581 13.2902 13.6313C13.2902 14.3301 13.521 14.9957 13.9282 15.4851C13.9221 15.4881 13.916 15.4911 13.9098 15.4941C13.7626 15.5666 13.5807 15.6575 13.4869 15.7104C13.0249 15.971 12.6466 16.2993 12.3865 16.7368C12.1262 17.1749 12 17.6963 12 18.3166V18.9999H14.8478L19 19V18.3167C19 17.6963 18.8738 17.175 18.6134 16.7369C18.3533 16.2994 17.975 15.9711 17.5129 15.7105C17.4191 15.6576 17.2373 15.5667 17.09 15.4943C17.0841 15.4914 17.0781 15.4884 17.0722 15.4856ZM16.5386 15.9837C16.5373 15.983 16.5373 15.9831 16.5386 15.9837V15.9837Z" fill="#4B5CB7"/>
<path d="M24.0275 13.5055L22.6939 13.2793C22.5549 12.8308 22.3763 12.3981 22.158 11.9853L22.9439 10.8859C23.2773 10.4176 23.2257 9.77854 22.8169 9.3737L21.6341 8.19092C21.4119 7.96865 21.1181 7.84561 20.8046 7.84561C20.5585 7.84561 20.3243 7.92102 20.1259 8.06391L19.0225 8.84978C18.5938 8.62355 18.1453 8.437 17.6809 8.29809L17.4587 6.98036C17.3634 6.41278 16.8752 6 16.2997 6H14.6287C14.0532 6 13.565 6.41278 13.4698 6.98036L13.2396 8.32984C12.795 8.46876 12.3624 8.65133 11.9496 8.8736L10.8581 8.08773C10.6597 7.94484 10.4215 7.86943 10.1755 7.86943C9.86189 7.86943 9.56422 7.99247 9.34592 8.21474L8.15917 9.39751C7.75432 9.80236 7.69876 10.4414 8.03216 10.9097L8.82597 12.025C8.60767 12.4418 8.43303 12.8744 8.29809 13.3229L6.98036 13.5452C6.41278 13.6404 6 14.1286 6 14.7041V16.3751C6 16.9506 6.41278 17.4388 6.98036 17.5341L8.32984 17.7643C8.46875 18.2088 8.65133 18.6415 8.8736 19.0542L8.09169 20.1418C7.75829 20.6101 7.80989 21.2491 8.2187 21.654L9.40148 22.8368C9.62375 23.059 9.91746 23.1821 10.231 23.1821C10.4771 23.1821 10.7113 23.1066 10.9097 22.9638L12.025 22.1699C12.4259 22.3803 12.8466 22.551 13.2793 22.6859L13.5015 24.0195C13.5968 24.5871 14.085 24.9999 14.6605 24.9999H16.3354C16.9109 24.9999 17.3991 24.5871 17.4944 24.0195L17.7206 22.6859C18.1691 22.547 18.6018 22.3684 19.0145 22.1501L20.114 22.936C20.3124 23.0789 20.5506 23.1543 20.7967 23.1543C21.1102 23.1543 21.4039 23.0312 21.6262 22.809L22.809 21.6262C23.2138 21.2213 23.2694 20.5823 22.936 20.114L22.1501 19.0106C22.3684 18.5938 22.551 18.1612 22.6859 17.7167L24.0195 17.4944C24.5871 17.3991 24.9999 16.9109 24.9999 16.3354V14.6645C25.0078 14.0889 24.595 13.6007 24.0275 13.5055ZM23.9362 16.3354C23.9362 16.387 23.9005 16.4307 23.8489 16.4386L22.1819 16.7165C21.9715 16.7522 21.8048 16.907 21.7532 17.1094C21.6024 17.6928 21.3722 18.2525 21.0626 18.7724C20.9554 18.955 20.9634 19.1812 21.0864 19.3559L22.0668 20.7371C22.0945 20.7768 22.0906 20.8363 22.0548 20.8721L20.8721 22.0548C20.8443 22.0826 20.8165 22.0866 20.7967 22.0866C20.7728 22.0866 20.753 22.0787 20.7371 22.0668L19.3599 21.0864C19.1892 20.9634 18.959 20.9554 18.7764 21.0626C18.2565 21.3722 17.6968 21.6024 17.1134 21.7532C16.907 21.8048 16.7522 21.9755 16.7204 22.1819L16.4386 23.8489C16.4307 23.9005 16.387 23.9362 16.3354 23.9362H14.6645C14.6129 23.9362 14.5692 23.9005 14.5613 23.8489L14.2834 22.1819C14.2477 21.9715 14.0929 21.8048 13.8905 21.7532C13.3229 21.6063 12.7752 21.3801 12.2632 21.0864C12.1798 21.0388 12.0846 21.015 11.9933 21.015C11.8861 21.015 11.775 21.0467 11.6837 21.1142L10.2945 22.1025C10.2747 22.1144 10.2548 22.1223 10.235 22.1223C10.2191 22.1223 10.1874 22.1184 10.1596 22.0906L8.97679 20.9078C8.94107 20.8721 8.9371 20.8165 8.96489 20.7728L9.94128 19.4035C10.0643 19.2289 10.0723 18.9987 9.96509 18.8161C9.6555 18.3001 9.41736 17.7405 9.26654 17.157C9.21097 16.9546 9.04427 16.7998 8.83788 16.7641L7.15897 16.4783C7.10737 16.4704 7.07165 16.4267 7.07165 16.3751V14.7041C7.07165 14.6525 7.10737 14.6089 7.15897 14.601L8.81406 14.3231C9.02442 14.2874 9.19509 14.1326 9.24669 13.9262C9.39355 13.3428 9.61978 12.7792 9.9254 12.2592C10.0326 12.0766 10.0207 11.8504 9.89762 11.6797L8.90932 10.2906C8.88154 10.2509 8.88551 10.1913 8.92123 10.1556L10.104 8.97283C10.1318 8.94504 10.1596 8.94107 10.1794 8.94107C10.2032 8.94107 10.2231 8.94901 10.239 8.96092L11.6083 9.93731C11.7829 10.0603 12.0131 10.0683 12.1957 9.96112C12.7117 9.65154 13.2713 9.41339 13.8548 9.26257C14.0572 9.207 14.212 9.0403 14.2477 8.83391L14.5335 7.155C14.5414 7.1034 14.5851 7.06768 14.6367 7.06768H16.3076C16.3592 7.06768 16.4029 7.1034 16.4108 7.155L16.6887 8.81009C16.7244 9.02045 16.8792 9.19112 17.0856 9.24272C17.6849 9.39355 18.2565 9.62772 18.7883 9.94128C18.9709 10.0484 19.1971 10.0405 19.3718 9.91746L20.7411 8.93314C20.7609 8.92123 20.7808 8.91329 20.8006 8.91329C20.8165 8.91329 20.8482 8.91726 20.876 8.94504L22.0588 10.1278C22.0945 10.1635 22.0985 10.2191 22.0707 10.2628L21.0904 11.64C20.9673 11.8107 20.9594 12.0409 21.0665 12.2235C21.3761 12.7434 21.6063 13.3031 21.7572 13.8865C21.8088 14.0929 21.9794 14.2477 22.1858 14.2795L23.8528 14.5613C23.9044 14.5692 23.9401 14.6129 23.9401 14.6645V16.3354H23.9362Z" fill="#4B5CB7"/>
</svg>
