<svg width="31" height="31" viewBox="0 0 31 31" fill="none" xmlns="http://www.w3.org/2000/svg">
<rect width="31" height="31" fill="white"/>
<path fill-rule="evenodd" clip-rule="evenodd" d="M3.57338 2H27.4266C28.2956 2 29 2.78342 29 3.74983V27.2502C29 28.2166 28.2956 29 27.4266 29H3.57338C2.70443 29 2 28.2166 2 27.2502L2 3.74983C2 2.78342 2.70443 2 3.57338 2V2Z" fill="#8C9CF0" fill-opacity="0.194848" stroke="#5771F7" stroke-width="1.61165" stroke-dasharray="1 1"/>
<path d="M7.81963 6.91785H23.2774C23.8102 6.9197 24.2419 7.40512 24.2435 8.00434V10.1773H6.85352V8.00434C6.85517 7.40512 7.2868 6.9197 7.81963 6.91785Z" fill="#A4B7FC"/>
<path d="M23.2885 11.2455H7.80865V23.2152C7.80865 23.2266 7.8148 23.2335 7.8197 23.2335H23.2775C23.2824 23.2335 23.2885 23.2266 23.2885 23.2152V11.2455Z" fill="#A4B7FC" stroke="#3145AA" stroke-width="1.08"/>
<path d="M24.2546 23.2152V8.00433C24.2546 7.39293 23.8159 6.89954 23.2775 6.89954H7.81968C7.28126 6.89954 6.84253 7.39293 6.84253 8.00433V23.2152C6.84253 23.8266 7.28126 24.32 7.81968 24.32H23.2775C23.8159 24.32 24.2546 23.8266 24.2546 23.2152ZM7.81968 6.93613H23.2775C23.8061 6.93613 24.2325 7.4157 24.2325 8.00433V10.159H6.86461V8.00433C6.86461 7.4157 7.29105 6.93613 7.81968 6.93613Z" fill="#ADBDFF" stroke="#3145AA" stroke-width="1.08"/>
<path d="M8.30273 8.00433H9.26885V9.09083H8.30273V8.00433Z" fill="#3145AA"/>
<path d="M10.235 8.00433H11.2011V9.09083H10.235V8.00433Z" fill="#3145AA"/>
<path d="M12.1672 8.00433H13.1333V9.09083H12.1672V8.00433Z" fill="#3145AA"/>
<path d="M12.5755 14.6377L10.9041 16.6045C10.6867 16.8605 10.6867 17.2754 10.9041 17.5315L12.5755 19.4983L13.3633 18.5712L12.0858 17.068L13.3633 15.5647L12.5755 14.6377Z" fill="#3145AA"/>
<path d="M14.2374 19.9998L15.8516 14.6377L16.8597 15.108L15.2456 20.4704L14.2374 19.9998Z" fill="#3145AA"/>
<path d="M18.5217 14.6377L17.7338 15.5647L19.0113 17.068L17.7338 18.5712L18.5217 19.4983L20.1931 17.5315C20.4105 17.2754 20.4105 16.8605 20.1931 16.6045L18.5217 14.6377Z" fill="#3145AA"/>
</svg>
